0, 0, Header, 1, 6, 480
1, 0, Start_track
1, 0, Title_t, "Untitled"
1, 0, Time_signature, 2, 2, 24, 8
1, 0, Key_signature, 0, "major"
1, 0, Tempo, 600000
1, 0, Marker_t, "Beethoven"
1, 480, Tempo, 600000
1, 960, Marker_t, "Piano Sonata No.10"
1, 1440, Tempo, 612244
1, 1560, Tempo, 600000
1, 1920, Marker_t, "hisamori@bekkoame.or.jp"
1, 2400, Tempo, 612244
1, 2530, Tempo, 600000
1, 2880, Marker_t, "Mail in English only"
1, 3360, Tempo, 612244
1, 3480, Tempo, 600000
1, 3840, Marker_t, "Dec. '97,   Ver.2 "
1, 4330, Tempo, 612244
1, 4620, Tempo, 625000
1, 4680, Tempo, 638297
1, 4800, Marker_t, "Thanks!"
1, 4860, Tempo, 600000
1, 6000, Tempo, 612244
1, 6600, Tempo, 625000
1, 7080, Tempo, 638297
1, 7507, Tempo, 652173
1, 7720, Tempo, 612244
1, 8280, Tempo, 625000
1, 8400, Tempo, 612244
1, 8512, Tempo, 625000
1, 8710, Tempo, 612244
1, 9240, Tempo, 625000
1, 9540, Tempo, 652173
1, 9670, Tempo, 612244
1, 10500, Tempo, 625000
1, 10560, Tempo, 612244
1, 11470, Tempo, 625000
1, 11590, Tempo, 612244
1, 12420, Tempo, 625000
1, 12480, Tempo, 612244
1, 13390, Tempo, 625000
1, 13510, Tempo, 612244
1, 14350, Tempo, 625000
1, 14470, Tempo, 612244
1, 15310, Tempo, 638297
1, 15430, Tempo, 612244
1, 16270, Tempo, 625000
1, 16390, Tempo, 612244
1, 17182, Tempo, 638297
1, 17350, Tempo, 612244
1, 18190, Tempo, 625000
1, 18310, Tempo, 612244
1, 19150, Tempo, 625000
1, 19270, Tempo, 612244
1, 20110, Tempo, 625000
1, 20230, Tempo, 612244
1, 21070, Tempo, 625000
1, 22030, Tempo, 638297
1, 22990, Tempo, 652173
1, 23880, Tempo, 659340
1, 23985, Tempo, 674157
1, 24640, Tempo, 689655
1, 24840, Tempo, 810810
1, 24960, Tempo, 612244
1, 25380, Tempo, 625000
1, 25440, Tempo, 612244
1, 25860, Tempo, 625000
1, 25920, Tempo, 612244
1, 27780, Tempo, 638297
1, 28560, Tempo, 659340
1, 28800, Tempo, 612244
1, 29220, Tempo, 625000
1, 29280, Tempo, 612244
1, 29700, Tempo, 625000
1, 29760, Tempo, 612244
1, 31570, Tempo, 625000
1, 31680, Tempo, 625000
1, 32590, Tempo, 638297
1, 32640, Tempo, 625000
1, 33540, Tempo, 638297
1, 34550, Tempo, 652173
1, 34560, Tempo, 625000
1, 35280, Tempo, 638297
1, 35400, Tempo, 659340
1, 35520, Tempo, 625000
1, 36420, Tempo, 638297
1, 36480, Tempo, 625000
1, 37380, Tempo, 638297
1, 37440, Tempo, 625000
1, 38340, Tempo, 638297
1, 38400, Tempo, 625000
1, 39180, Tempo, 638297
1, 39240, Tempo, 659340
1, 39360, Tempo, 600000
1, 39780, Tempo, 612244
1, 39840, Tempo, 600000
1, 40260, Tempo, 612244
1, 40320, Tempo, 600000
1, 40740, Tempo, 612244
1, 40800, Tempo, 600000
1, 41220, Tempo, 625000
1, 41280, Tempo, 600000
1, 42180, Tempo, 659340
1, 42727, Tempo, 689655
1, 43200, Tempo, 600000
1, 44100, Tempo, 659340
1, 44640, Tempo, 689655
1, 45120, Tempo, 638297
1, 45240, Tempo, 625000
1, 46020, Tempo, 638297
1, 46140, Tempo, 625000
1, 46980, Tempo, 638297
1, 47100, Tempo, 625000
1, 47940, Tempo, 638297
1, 48060, Tempo, 625000
1, 48900, Tempo, 638297
1, 49020, Tempo, 625000
1, 49860, Tempo, 638297
1, 49980, Tempo, 625000
1, 50820, Tempo, 638297
1, 50940, Tempo, 625000
1, 51780, Tempo, 638297
1, 51900, Tempo, 625000
1, 52740, Tempo, 638297
1, 52860, Tempo, 625000
1, 53700, Tempo, 638297
1, 53820, Tempo, 625000
1, 54660, Tempo, 638297
1, 54780, Tempo, 625000
1, 55620, Tempo, 638297
1, 55680, Tempo, 625000
1, 56580, Tempo, 638297
1, 57540, Tempo, 652173
1, 58500, Tempo, 659340
1, 58920, Tempo, 674157
1, 59220, Tempo, 689655
1, 59400, Tempo, 722891
1, 59460, Tempo, 750000
1, 60480, Tempo, 1071428
1, 60720, Tempo, 1276595
1, 61080, Tempo, 600000
1, 61920, Tempo, 612244
1, 62040, Tempo, 600000
1, 62880, Tempo, 625000
1, 63000, Tempo, 612244
1, 63840, Tempo, 625000
1, 63960, Tempo, 612244
1, 64800, Tempo, 625000
1, 65760, Tempo, 638297
1, 66720, Tempo, 652173
1, 67140, Tempo, 689655
1, 67260, Tempo, 600000
1, 70072, Tempo, 612244
1, 70860, Tempo, 638297
1, 70920, Tempo, 731707
1, 71040, Tempo, 612244
1, 71460, Tempo, 625000
1, 71520, Tempo, 612244
1, 71940, Tempo, 625000
1, 72000, Tempo, 612244
1, 72420, Tempo, 625000
1, 72480, Tempo, 612244
1, 73860, Tempo, 638297
1, 73920, Tempo, 625000
1, 73980, Tempo, 612244
1, 74640, Tempo, 659340
1, 74880, Tempo, 612244
1, 75300, Tempo, 625000
1, 75360, Tempo, 612244
1, 75780, Tempo, 625000
1, 75840, Tempo, 612244
1, 76260, Tempo, 625000
1, 76320, Tempo, 612244
1, 76740, Tempo, 625000
1, 76800, Tempo, 612244
1, 76804, Tempo, 618556
1, 77092, Tempo, 625000
1, 77212, Tempo, 652173
1, 77304, Tempo, 638297
1, 77380, Tempo, 645161
1, 77448, Tempo, 652173
1, 77512, Tempo, 659340
1, 77568, Tempo, 705882
1, 77640, Tempo, 1276595
1, 77760, Tempo, 625000
1, 77820, Tempo, 600000
1, 78900, Tempo, 612244
1, 79012, Tempo, 600000
1, 79860, Tempo, 612244
1, 79972, Tempo, 600000
1, 82440, Tempo, 612244
1, 82500, Tempo, 750000
1, 82560, Tempo, 625000
1, 82620, Tempo, 600000
1, 83700, Tempo, 612244
1, 83812, Tempo, 600000
1, 84660, Tempo, 612244
1, 84772, Tempo, 600000
1, 87300, Tempo, 612244
1, 87420, Tempo, 600000
1, 89220, Tempo, 612244
1, 89340, Tempo, 600000
1, 90180, Tempo, 612244
1, 90240, Tempo, 600000
1, 91140, Tempo, 612244
1, 91200, Tempo, 600000
1, 92100, Tempo, 612244
1, 92160, Tempo, 600000
1, 93120, Tempo, 594059
1, 93124, Tempo, 600000
1, 93304, Tempo, 606060
1, 93380, Tempo, 612244
1, 93440, Tempo, 618556
1, 93488, Tempo, 625000
1, 93532, Tempo, 631578
1, 93572, Tempo, 638297
1, 93608, Tempo, 645161
1, 93640, Tempo, 652173
1, 93672, Tempo, 659340
1, 93700, Tempo, 666666
1, 93728, Tempo, 674157
1, 93756, Tempo, 681818
1, 93784, Tempo, 689655
1, 93808, Tempo, 697674
1, 93832, Tempo, 705882
1, 93856, Tempo, 714285
1, 93876, Tempo, 722891
1, 93900, Tempo, 731707
1, 93920, Tempo, 740740
1, 93940, Tempo, 810810
1, 93960, Tempo, 1132075
1, 94020, Tempo, 1428571
1, 95040, Tempo, 600000
1, 96480, Tempo, 612244
1, 96600, Tempo, 600000
1, 97440, Tempo, 612244
1, 97550, Tempo, 600000
1, 98400, Tempo, 612244
1, 98520, Tempo, 600000
1, 99350, Tempo, 612244
1, 99660, Tempo, 625000
1, 99720, Tempo, 652173
1, 99877, Tempo, 600000
1, 100740, Tempo, 612244
1, 100800, Tempo, 600000
1, 101700, Tempo, 612244
1, 101760, Tempo, 600000
1, 102660, Tempo, 612244
1, 102720, Tempo, 600000
1, 103500, Tempo, 625000
1, 103550, Tempo, 674157
1, 103680, Tempo, 600000
1, 103860, Tempo, 612244
1, 103920, Tempo, 600000
1, 104580, Tempo, 612244
1, 105480, Tempo, 625000
1, 105540, Tempo, 652173
1, 105600, Tempo, 612244
1, 105780, Tempo, 612244
1, 105840, Tempo, 600000
1, 106500, Tempo, 612244
1, 107400, Tempo, 625000
1, 107460, Tempo, 652173
1, 107520, Tempo, 612244
1, 107700, Tempo, 612244
1, 107760, Tempo, 600000
1, 108420, Tempo, 612244
1, 109380, Tempo, 638297
1, 109440, Tempo, 625000
1, 109860, Tempo, 638297
1, 110330, Tempo, 652173
1, 110820, Tempo, 659340
1, 111000, Tempo, 689655
1, 111250, Tempo, 722891
1, 111300, Tempo, 789473
1, 111400, Tempo, 600000
1, 117060, Tempo, 612244
1, 117120, Tempo, 845070
1, 117240, Tempo, 612244
1, 118020, Tempo, 652173
1, 118080, Tempo, 659340
1, 118185, Tempo, 625000
1, 119820, Tempo, 638297
1, 119940, Tempo, 659340
1, 120000, Tempo, 821917
1, 120120, Tempo, 1000000
1, 121440, Tempo, 1333333
1, 121560, Tempo, 600000
1, 122400, Tempo, 612244
1, 122520, Tempo, 600000
1, 123360, Tempo, 612244
1, 123460, Tempo, 600000
1, 124320, Tempo, 612244
1, 124440, Tempo, 600000
1, 125280, Tempo, 612244
1, 125580, Tempo, 625000
1, 125640, Tempo, 638297
1, 125812, Tempo, 600000
1, 127020, Tempo, 612244
1, 127560, Tempo, 625000
1, 128040, Tempo, 638297
1, 128520, Tempo, 652173
1, 128760, Tempo, 612244
1, 129300, Tempo, 625000
1, 129360, Tempo, 612244
1, 129540, Tempo, 625000
1, 129600, Tempo, 612244
1, 130500, Tempo, 625000
1, 130610, Tempo, 612244
1, 131460, Tempo, 625000
1, 131520, Tempo, 612244
1, 132420, Tempo, 625000
1, 132540, Tempo, 612244
1, 133380, Tempo, 625000
1, 133440, Tempo, 612244
1, 134340, Tempo, 625000
1, 134460, Tempo, 612244
1, 135300, Tempo, 625000
1, 135360, Tempo, 612244
1, 136260, Tempo, 625000
1, 136380, Tempo, 612244
1, 137220, Tempo, 625000
1, 137340, Tempo, 612244
1, 138180, Tempo, 625000
1, 138300, Tempo, 612244
1, 139140, Tempo, 638297
1, 139260, Tempo, 612244
1, 140100, Tempo, 625000
1, 140220, Tempo, 612244
1, 141060, Tempo, 638297
1, 141180, Tempo, 612244
1, 142020, Tempo, 625000
1, 142140, Tempo, 612244
1, 142980, Tempo, 625000
1, 143100, Tempo, 612244
1, 143940, Tempo, 625000
1, 144060, Tempo, 612244
1, 144900, Tempo, 625000
1, 145020, Tempo, 612244
1, 145860, Tempo, 625000
1, 146820, Tempo, 638297
1, 146880, Tempo, 625000
1, 147780, Tempo, 638297
1, 147825, Tempo, 638297
1, 148500, Tempo, 652173
1, 148680, Tempo, 750000
1, 148800, Tempo, 612244
1, 149220, Tempo, 625000
1, 149280, Tempo, 612244
1, 149700, Tempo, 625000
1, 149760, Tempo, 612244
1, 151620, Tempo, 652173
1, 152400, Tempo, 674157
1, 152640, Tempo, 612244
1, 153060, Tempo, 625000
1, 153120, Tempo, 612244
1, 153540, Tempo, 625000
1, 153600, Tempo, 612244
1, 155460, Tempo, 612244
1, 155520, Tempo, 625000
1, 155580, Tempo, 612244
1, 156430, Tempo, 625000
1, 156540, Tempo, 612244
1, 157380, Tempo, 625000
1, 158290, Tempo, 638297
1, 158400, Tempo, 625000
1, 159120, Tempo, 638297
1, 159240, Tempo, 659340
1, 159360, Tempo, 612244
1, 159420, Tempo, 612244
1, 160260, Tempo, 625000
1, 160380, Tempo, 612244
1, 161220, Tempo, 625000
1, 161340, Tempo, 612244
1, 162180, Tempo, 625000
1, 162300, Tempo, 612244
1, 163020, Tempo, 625000
1, 163080, Tempo, 659340
1, 163200, Tempo, 600000
1, 163620, Tempo, 612244
1, 163680, Tempo, 600000
1, 164100, Tempo, 612244
1, 164160, Tempo, 600000
1, 164580, Tempo, 612244
1, 164640, Tempo, 600000
1, 165060, Tempo, 625000
1, 165120, Tempo, 600000
1, 166020, Tempo, 659340
1, 166570, Tempo, 689655
1, 167040, Tempo, 600000
1, 167940, Tempo, 659340
1, 168470, Tempo, 689655
1, 169020, Tempo, 612244
1, 169860, Tempo, 625000
1, 169980, Tempo, 612244
1, 170820, Tempo, 625000
1, 170940, Tempo, 612244
1, 171780, Tempo, 625000
1, 171900, Tempo, 612244
1, 172740, Tempo, 625000
1, 172860, Tempo, 612244
1, 173700, Tempo, 625000
1, 173820, Tempo, 612244
1, 174660, Tempo, 625000
1, 174780, Tempo, 612244
1, 175620, Tempo, 625000
1, 175740, Tempo, 612244
1, 176580, Tempo, 625000
1, 176700, Tempo, 612244
1, 177540, Tempo, 625000
1, 177660, Tempo, 612244
1, 178500, Tempo, 625000
1, 178620, Tempo, 612244
1, 179460, Tempo, 625000
1, 180360, Tempo, 638297
1, 181200, Tempo, 652173
1, 181320, Tempo, 674157
1, 182040, Tempo, 612244
1, 182880, Tempo, 625000
1, 182990, Tempo, 612244
1, 183850, Tempo, 625000
1, 184140, Tempo, 638297
1, 184200, Tempo, 652173
1, 184455, Tempo, 625000
1, 185760, Tempo, 638297
1, 185880, Tempo, 625000
1, 186720, Tempo, 638297
1, 186830, Tempo, 625000
1, 187680, Tempo, 638297
1, 187980, Tempo, 652173
1, 188040, Tempo, 705882
1, 188240, Tempo, 638297
1, 188520, Tempo, 652173
1, 189960, Tempo, 659340
1, 190860, Tempo, 674157
1, 190920, Tempo, 689655
1, 191520, Tempo, 705882
1, 192360, Tempo, 722891
1, 192840, Tempo, 731707
1, 193560, Tempo, 750000
1, 193800, Tempo, 769230
1, 193860, Tempo, 952380
1, 193920, Tempo, 750000
1, 194880, Time_signature, 2, 1, 24, 8
1, 194880, Tempo, 750000
1, 195300, Marker_t, "Andante"
1, 196680, Tempo, 740740
1, 196800, Tempo, 697674
1, 199560, Tempo, 722891
1, 200610, Tempo, 740740
1, 200640, Tempo, 697674
1, 203400, Tempo, 722891
1, 204360, Tempo, 740740
1, 204480, Tempo, 697674
1, 207240, Tempo, 722891
1, 208050, Tempo, 740740
1, 208320, Tempo, 697674
1, 209160, Tempo, 722891
1, 210120, Tempo, 740740
1, 211200, Tempo, 845070
1, 211680, Tempo, 1071428
1, 212040, Tempo, 740740
1, 212160, Tempo, 697674
1, 213990, Tempo, 705882
1, 214080, Tempo, 697674
1, 214890, Tempo, 722891
1, 215880, Tempo, 740740
1, 216000, Tempo, 697674
1, 218760, Tempo, 722891
1, 219800, Tempo, 740740
1, 219840, Tempo, 697674
1, 223080, Tempo, 722891
1, 224040, Tempo, 740740
1, 225480, Tempo, 750000
1, 226560, Tempo, 845070
1, 227290, Tempo, 789473
1, 227520, Tempo, 697674
1, 230280, Tempo, 722891
1, 231240, Tempo, 740740
1, 231360, Tempo, 722891
1, 233160, Tempo, 740740
1, 234255, Tempo, 845070
1, 234970, Tempo, 789473
1, 235080, Tempo, 740740
1, 235200, Tempo, 697674
1, 237030, Tempo, 705882
1, 237120, Tempo, 697674
1, 237930, Tempo, 722891
1, 238920, Tempo, 740740
1, 239040, Tempo, 697674
1, 241800, Tempo, 722891
1, 242840, Tempo, 740740
1, 242880, Tempo, 697674
1, 246120, Tempo, 722891
1, 247080, Tempo, 740740
1, 248520, Tempo, 750000
1, 249600, Tempo, 845070
1, 250330, Tempo, 789473
1, 250560, Tempo, 697674
1, 253320, Tempo, 722891
1, 254280, Tempo, 740740
1, 254400, Tempo, 722891
1, 256200, Tempo, 740740
1, 257295, Tempo, 845070
1, 257640, Tempo, 1071428
1, 258010, Tempo, 789473
1, 258240, Tempo, 697674
1, 261000, Tempo, 722891
1, 261960, Tempo, 740740
1, 262080, Tempo, 697674
1, 264840, Tempo, 722891
1, 265800, Tempo, 740740
1, 265920, Tempo, 697674
1, 268680, Tempo, 722891
1, 269640, Tempo, 740740
1, 269760, Tempo, 705882
1, 270600, Tempo, 722891
1, 271560, Tempo, 740740
1, 271680, Tempo, 722891
1, 272520, Tempo, 740740
1, 273375, Tempo, 759493
1, 273600, Tempo, 697674
1, 275400, Tempo, 722891
1, 275520, Tempo, 697674
1, 276360, Tempo, 722891
1, 277320, Tempo, 740740
1, 277440, Tempo, 697674
1, 280200, Tempo, 722891
1, 281160, Tempo, 731707
1, 281280, Tempo, 697674
1, 284040, Tempo, 722891
1, 285000, Tempo, 740740
1, 285120, Tempo, 697674
1, 286920, Tempo, 722891
1, 287040, Tempo, 697674
1, 287880, Tempo, 722891
1, 288750, Tempo, 759493
1, 288960, Tempo, 697674
1, 291720, Tempo, 722891
1, 292680, Tempo, 740740
1, 292800, Tempo, 697674
1, 294510, Tempo, 722891
1, 294720, Tempo, 697674
1, 295560, Tempo, 722891
1, 296160, Tempo, 1071428
1, 296400, Tempo, 740740
1, 296640, Tempo, 697674
1, 298440, Tempo, 722891
1, 298560, Tempo, 697674
1, 299400, Tempo, 722891
1, 300360, Tempo, 740740
1, 300480, Tempo, 697674
1, 303240, Tempo, 722891
1, 304200, Tempo, 731707
1, 304320, Tempo, 697674
1, 307080, Tempo, 722891
1, 308040, Tempo, 740740
1, 308160, Tempo, 697674
1, 309960, Tempo, 722891
1, 310080, Tempo, 697674
1, 310920, Tempo, 722891
1, 311790, Tempo, 759493
1, 312000, Tempo, 697674
1, 314760, Tempo, 722891
1, 315720, Tempo, 740740
1, 315840, Tempo, 697674
1, 317550, Tempo, 722891
1, 317760, Tempo, 697674
1, 318600, Tempo, 722891
1, 319150, Tempo, 1071428
1, 319440, Tempo, 740740
1, 319680, Tempo, 697674
1, 323400, Tempo, 722891
1, 323520, Tempo, 697674
1, 326520, Tempo, 722891
1, 327300, Tempo, 740740
1, 327360, Tempo, 697674
1, 330360, Tempo, 705882
1, 331080, Tempo, 722891
1, 331200, Tempo, 697674
1, 332280, Tempo, 722891
1, 333000, Tempo, 740740
1, 333120, Tempo, 697674
1, 334200, Tempo, 722891
1, 334920, Tempo, 731707
1, 335040, Tempo, 697674
1, 338760, Tempo, 722891
1, 338880, Tempo, 697674
1, 341880, Tempo, 722891
1, 342600, Tempo, 731707
1, 342720, Tempo, 697674
1, 346440, Tempo, 722891
1, 346560, Tempo, 697674
1, 349560, Tempo, 722891
1, 350280, Tempo, 759493
1, 350400, Tempo, 697674
1, 353160, Tempo, 722891
1, 354000, Tempo, 731707
1, 354120, Tempo, 750000
1, 354240, Tempo, 697674
1, 357735, Tempo, 722891
1, 357975, Tempo, 740740
1, 358080, Tempo, 697674
1, 361800, Tempo, 722891
1, 361920, Tempo, 697674
1, 364920, Tempo, 722891
1, 365640, Tempo, 731707
1, 365760, Tempo, 697674
1, 369480, Tempo, 722891
1, 369600, Tempo, 697674
1, 372600, Tempo, 722891
1, 373320, Tempo, 759493
1, 373440, Tempo, 697674
1, 376200, Tempo, 722891
1, 377040, Tempo, 731707
1, 377160, Tempo, 750000
1, 377280, Tempo, 697674
1, 380775, Tempo, 722891
1, 381015, Tempo, 740740
1, 381120, Tempo, 697674
1, 382920, Tempo, 705882
1, 384840, Tempo, 722891
1, 386760, Tempo, 740740
1, 387470, Tempo, 759493
1, 387960, Tempo, 769230
1, 388200, Tempo, 800000
1, 388440, Tempo, 895522
1, 388660, Tempo, 2222222
1, 388800, Tempo, 697674
1, 392520, Tempo, 722891
1, 392640, Tempo, 697674
1, 396360, Tempo, 722891
1, 396480, Tempo, 697674
1, 399240, Tempo, 722891
1, 399360, Tempo, 697674
1, 400200, Tempo, 722891
1, 400320, Tempo, 697674
1, 401160, Tempo, 722891
1, 401280, Tempo, 697674
1, 402120, Tempo, 705882
1, 403080, Tempo, 722891
1, 403920, Tempo, 731707
1, 404040, Tempo, 769230
1, 404160, Tempo, 697674
1, 407880, Tempo, 722891
1, 408000, Tempo, 697674
1, 411720, Tempo, 722891
1, 411840, Tempo, 697674
1, 415560, Tempo, 722891
1, 415680, Tempo, 697674
1, 419340, Tempo, 697674
1, 419400, Tempo, 722891
1, 419520, Tempo, 697674
1, 422280, Tempo, 722891
1, 422400, Tempo, 697674
1, 423240, Tempo, 731707
1, 423360, Tempo, 697674
1, 426120, Tempo, 705882
1, 426240, Tempo, 923076
1, 426360, Tempo, 731707
1, 426600, Tempo, 722891
1, 426900, Tempo, 731707
1, 426960, Tempo, 769230
1, 427080, Tempo, 923076
1, 427200, Tempo, 722891
1, 429960, Tempo, 731707
1, 430560, Tempo, 769230
1, 431040, Tempo, 750000
1, 432720, Tempo, 769230
1, 433680, Tempo, 750000
1, 434640, Tempo, 769230
1, 435600, Tempo, 821917
1, 436320, Tempo, 1333333
1, 436800, Tempo, 2727272
1, 437280, Tempo, 337078
1, 438720, Time_signature, 3, 3, 24, 8
1, 439440, Marker_t, "Scherzo"
1, 439920, Tempo, 480000
1, 441480, Tempo, 508474
1, 441600, Tempo, 487804
1, 442560, Tempo, 500000
1, 442790, Tempo, 480000
1, 444290, Tempo, 517241
1, 444360, Tempo, 526315
1, 444480, Tempo, 487804
1, 445440, Tempo, 500000
1, 445680, Tempo, 480000
1, 447000, Tempo, 487804
1, 447120, Tempo, 480000
1, 448440, Tempo, 487804
1, 448560, Tempo, 480000
1, 449460, Tempo, 487804
1, 450840, Tempo, 550458
1, 450960, Tempo, 495867
1, 451680, Tempo, 845070
1, 452400, Tempo, 500000
1, 452880, Tempo, 480000
1, 454440, Tempo, 508474
1, 454560, Tempo, 487804
1, 455640, Tempo, 495867
1, 456360, Tempo, 508474
1, 456960, Tempo, 659340
1, 457440, Tempo, 480000
1, 459555, Tempo, 487804
1, 460080, Tempo, 495867
1, 460320, Tempo, 480000
1, 462442, Tempo, 487804
1, 462960, Tempo, 495867
1, 463200, Tempo, 480000
1, 465315, Tempo, 487804
1, 465840, Tempo, 495867
1, 466080, Tempo, 480000
1, 468217, Tempo, 487804
1, 468960, Tempo, 517241
1, 469680, Tempo, 588235
1, 470400, Tempo, 845070
1, 470880, Tempo, 480000
1, 472440, Tempo, 508474
1, 472560, Tempo, 487804
1, 473520, Tempo, 500000
1, 473770, Tempo, 480000
1, 475260, Tempo, 517241
1, 475320, Tempo, 526315
1, 475440, Tempo, 487804
1, 476400, Tempo, 500000
1, 476640, Tempo, 480000
1, 477960, Tempo, 487804
1, 478080, Tempo, 480000
1, 479400, Tempo, 487804
1, 479520, Tempo, 480000
1, 480420, Tempo, 487804
1, 481810, Tempo, 550458
1, 481920, Tempo, 495867
1, 482640, Tempo, 845070
1, 483360, Tempo, 500000
1, 483840, Tempo, 480000
1, 485400, Tempo, 508474
1, 485520, Tempo, 487804
1, 486600, Tempo, 495867
1, 487320, Tempo, 508474
1, 487920, Tempo, 750000
1, 488150, Tempo, 487804
1, 489480, Tempo, 495867
1, 489600, Tempo, 487804
1, 490920, Tempo, 495867
1, 491040, Tempo, 487804
1, 492840, Tempo, 495867
1, 492880, Tempo, 500000
1, 492960, Tempo, 540540
1, 493440, Tempo, 600000
1, 494160, Tempo, 500000
1, 494880, Tempo, 487804
1, 496200, Tempo, 495867
1, 496320, Tempo, 487804
1, 496920, Tempo, 495867
1, 497040, Tempo, 487804
1, 499080, Tempo, 495867
1, 499200, Tempo, 487804
1, 499680, Tempo, 495867
1, 499800, Tempo, 508474
1, 499920, Tempo, 487804
1, 501960, Tempo, 495867
1, 502080, Tempo, 487804
1, 504840, Tempo, 495867
1, 504960, Tempo, 487804
1, 505440, Tempo, 495867
1, 505560, Tempo, 508474
1, 505680, Tempo, 487804
1, 506092, Tempo, 495867
1, 506160, Tempo, 487804
1, 506827, Tempo, 495867
1, 506880, Tempo, 487804
1, 507540, Tempo, 495867
1, 507600, Tempo, 487804
1, 508320, Tempo, 495867
1, 508440, Tempo, 517241
1, 508560, Tempo, 487804
1, 510600, Tempo, 495867
1, 510720, Tempo, 487804
1, 511320, Tempo, 495867
1, 511440, Tempo, 487804
1, 511860, Tempo, 495867
1, 511912, Tempo, 487804
1, 512580, Tempo, 495867
1, 512647, Tempo, 487804
1, 513300, Tempo, 495867
1, 513360, Tempo, 487804
1, 514147, Tempo, 495867
1, 514200, Tempo, 526315
1, 514320, Tempo, 487804
1, 516360, Tempo, 495867
1, 516480, Tempo, 487804
1, 517080, Tempo, 495867
1, 517200, Tempo, 487804
1, 517800, Tempo, 495867
1, 517920, Tempo, 487804
1, 518520, Tempo, 495867
1, 518640, Tempo, 487804
1, 519240, Tempo, 495867
1, 519900, Tempo, 500000
1, 519960, Tempo, 517241
1, 520080, Tempo, 487804
1, 522120, Tempo, 495867
1, 522240, Tempo, 487804
1, 522840, Tempo, 495867
1, 522960, Tempo, 487804
1, 525000, Tempo, 495867
1, 525120, Tempo, 487804
1, 525720, Tempo, 500000
1, 525840, Tempo, 487804
1, 527880, Tempo, 495867
1, 528000, Tempo, 487804
1, 528540, Tempo, 500000
1, 528720, Tempo, 487804
1, 529980, Tempo, 500000
1, 530760, Tempo, 508474
1, 531120, Tempo, 789473
1, 531360, Tempo, 480000
1, 532920, Tempo, 508474
1, 533040, Tempo, 487804
1, 534120, Tempo, 495867
1, 534840, Tempo, 500000
1, 535560, Tempo, 508474
1, 536280, Tempo, 517241
1, 537000, Tempo, 540540
1, 537240, Tempo, 550458
1, 540000, Tempo, 480000
1, 541560, Tempo, 508474
1, 541680, Tempo, 487804
1, 542640, Tempo, 500000
1, 542870, Tempo, 480000
1, 544320, Tempo, 517241
1, 544440, Tempo, 526315
1, 544560, Tempo, 487804
1, 545520, Tempo, 500000
1, 545760, Tempo, 480000
1, 547080, Tempo, 487804
1, 547200, Tempo, 480000
1, 548520, Tempo, 487804
1, 548640, Tempo, 480000
1, 549540, Tempo, 487804
1, 550940, Tempo, 550458
1, 551040, Tempo, 495867
1, 551760, Tempo, 845070
1, 552480, Tempo, 500000
1, 552960, Tempo, 480000
1, 554520, Tempo, 508474
1, 554640, Tempo, 487804
1, 555720, Tempo, 495867
1, 556440, Tempo, 508474
1, 557040, Tempo, 750000
1, 557290, Tempo, 487804
1, 558600, Tempo, 495867
1, 558720, Tempo, 487804
1, 560040, Tempo, 495867
1, 560160, Tempo, 487804
1, 562000, Tempo, 495867
1, 563280, Tempo, 500000
1, 563880, Tempo, 508474
1, 564660, Tempo, 517241
1, 565380, Tempo, 526315
1, 565840, Tempo, 535714
1, 566880, Tempo, 750000
1, 567360, Tempo, 480000
1, 568920, Tempo, 508474
1, 569040, Tempo, 487804
1, 570000, Tempo, 500000
1, 570230, Tempo, 480000
1, 571800, Tempo, 517241
1, 571920, Tempo, 487804
1, 572520, Tempo, 495867
1, 572640, Tempo, 487804
1, 573240, Tempo, 495867
1, 573960, Tempo, 500000
1, 574680, Tempo, 517241
1, 574800, Tempo, 487804
1, 576120, Tempo, 495867
1, 576240, Tempo, 487804
1, 576840, Tempo, 495867
1, 577560, Tempo, 517241
1, 577680, Tempo, 480000
1, 582180, Tempo, 487804
1, 582240, Tempo, 480000
1, 583620, Tempo, 487804
1, 583680, Tempo, 480000
1, 584340, Tempo, 487804
1, 584400, Tempo, 480000
1, 585060, Tempo, 487804
1, 585120, Tempo, 480000
1, 585780, Tempo, 487804
1, 585840, Tempo, 480000
1, 586200, Tempo, 487804
1, 586320, Tempo, 480000
1, 591960, Tempo, 500000
1, 592080, Tempo, 480000
1, 592680, Tempo, 487804
1, 593400, Tempo, 495867
1, 594120, Tempo, 508474
1, 594840, Tempo, 600000
1, 594960, Tempo, 480000
1, 599460, Tempo, 487804
1, 599520, Tempo, 480000
1, 600900, Tempo, 487804
1, 600960, Tempo, 480000
1, 601620, Tempo, 487804
1, 601680, Tempo, 480000
1, 602340, Tempo, 487804
1, 602400, Tempo, 480000
1, 603060, Tempo, 487804
1, 603120, Tempo, 480000
1, 603480, Tempo, 487804
1, 603600, Tempo, 480000
1, 609240, Tempo, 495867
1, 609360, Tempo, 487804
1, 609960, Tempo, 495867
1, 610680, Tempo, 500000
1, 611410, Tempo, 508474
1, 612120, Tempo, 517241
1, 612180, Tempo, 600000
1, 612240, Tempo, 480000
1, 614280, Tempo, 495867
1, 614400, Tempo, 487804
1, 617160, Tempo, 508474
1, 617280, Tempo, 495867
1, 618600, Tempo, 500000
1, 620040, Tempo, 508474
1, 621480, Tempo, 517241
1, 622200, Tempo, 526315
1, 622920, Tempo, 535714
1, 623290, Tempo, 540540
1, 623640, Tempo, 550458
1, 623640, End_track
2, 0, Start_track
2, 0, Title_t, "No Name"
2, 0, Control_c, 0, 0, 0
2, 0, Control_c, 0, 32, 0
2, 0, Program_c, 0, 0
2, 0, Control_c, 0, 7, 127
2, 0, Pitch_bend_c, 0, 8192
2, 0, Control_c, 0, 1, 0
2, 0, Control_c, 0, 64, 0
2, 0, Control_c, 0, 93, 28
2, 0, Control_c, 0, 91, 91
2, 0, Control_c, 0, 10, 73
2, 600, Note_on_c, 0, 62, 36
2, 720, Note_off_c, 0, 62, 0
2, 720, Note_on_c, 0, 74, 36
2, 840, Note_off_c, 0, 74, 0
2, 840, Note_on_c, 0, 70, 37
2, 960, Note_off_c, 0, 70, 0
2, 960, Note_on_c, 0, 71, 37
2, 1080, Note_off_c, 0, 71, 0
2, 1080, Note_on_c, 0, 66, 38
2, 1200, Note_off_c, 0, 66, 0
2, 1200, Note_on_c, 0, 67, 38
2, 1560, Note_off_c, 0, 67, 0
2, 1560, Note_on_c, 0, 62, 40
2, 1680, Note_off_c, 0, 62, 0
2, 1680, Note_on_c, 0, 74, 40
2, 1800, Note_off_c, 0, 74, 0
2, 1800, Note_on_c, 0, 70, 40
2, 1920, Note_off_c, 0, 70, 0
2, 1920, Note_on_c, 0, 71, 41
2, 2040, Note_off_c, 0, 71, 0
2, 2040, Note_on_c, 0, 66, 41
2, 2160, Note_off_c, 0, 66, 0
2, 2160, Note_on_c, 0, 67, 42
2, 2520, Note_off_c, 0, 67, 0
2, 2520, Note_on_c, 0, 64, 43
2, 2640, Note_off_c, 0, 64, 0
2, 2640, Note_on_c, 0, 76, 44
2, 2760, Note_off_c, 0, 76, 0
2, 2760, Note_on_c, 0, 71, 44
2, 2880, Note_off_c, 0, 71, 0
2, 2880, Note_on_c, 0, 72, 45
2, 3000, Note_off_c, 0, 72, 0
2, 3000, Note_on_c, 0, 68, 45
2, 3120, Note_off_c, 0, 68, 0
2, 3120, Note_on_c, 0, 69, 46
2, 3480, Note_off_c, 0, 69, 0
2, 3480, Note_on_c, 0, 64, 47
2, 3600, Note_off_c, 0, 64, 0
2, 3600, Note_on_c, 0, 76, 48
2, 3720, Note_off_c, 0, 76, 0
2, 3720, Note_on_c, 0, 71, 48
2, 3840, Note_off_c, 0, 71, 0
2, 3840, Note_on_c, 0, 72, 48
2, 3960, Note_off_c, 0, 72, 0
2, 3960, Note_on_c, 0, 68, 49
2, 4080, Note_off_c, 0, 68, 0
2, 4080, Note_on_c, 0, 69, 49
2, 4440, Note_off_c, 0, 69, 0
2, 4440, Note_on_c, 0, 69, 51
2, 4560, Note_off_c, 0, 69, 0
2, 4560, Note_on_c, 0, 84, 55
2, 4638, Note_off_c, 0, 84, 0
2, 4680, Note_on_c, 0, 83, 56
2, 4758, Note_off_c, 0, 83, 0
2, 4800, Note_on_c, 0, 81, 61
2, 5160, Note_off_c, 0, 81, 0
2, 5160, Note_on_c, 0, 79, 56
2, 5280, Note_off_c, 0, 79, 0
2, 5280, Note_on_c, 0, 78, 55
2, 5400, Note_off_c, 0, 78, 0
2, 5400, Note_on_c, 0, 76, 54
2, 5520, Note_off_c, 0, 76, 0
2, 5520, Note_on_c, 0, 74, 53
2, 5640, Note_off_c, 0, 74, 0
2, 5640, Note_on_c, 0, 72, 53
2, 5760, Note_off_c, 0, 72, 0
2, 5760, Note_on_c, 0, 74, 55
2, 5820, Note_off_c, 0, 74, 0
2, 5820, Note_on_c, 0, 72, 51
2, 5880, Note_off_c, 0, 72, 0
2, 5880, Note_on_c, 0, 71, 51
2, 6120, Note_off_c, 0, 71, 0
2, 6120, Note_on_c, 0, 79, 50
2, 6240, Note_off_c, 0, 79, 0
2, 6240, Note_on_c, 0, 79, 49
2, 6360, Note_off_c, 0, 79, 0
2, 6360, Note_on_c, 0, 69, 48
2, 6600, Note_off_c, 0, 69, 0
2, 6600, Note_on_c, 0, 76, 47
2, 6720, Note_off_c, 0, 76, 0
2, 6720, Note_on_c, 0, 76, 46
2, 6840, Note_off_c, 0, 76, 0
2, 6840, Note_on_c, 0, 67, 45
2, 7080, Note_off_c, 0, 67, 0
2, 7080, Note_on_c, 0, 74, 44
2, 7200, Note_off_c, 0, 74, 0
2, 7200, Note_on_c, 0, 74, 43
2, 7320, Note_off_c, 0, 74, 0
2, 7320, Note_on_c, 0, 60, 42
2, 7560, Note_off_c, 0, 60, 0
2, 7560, Note_on_c, 0, 66, 41
2, 7680, Note_off_c, 0, 66, 0
2, 7680, Note_on_c, 0, 67, 40
2, 8160, Note_off_c, 0, 67, 0
2, 8400, Note_on_c, 0, 74, 38
2, 8592, Note_off_c, 0, 74, 0
2, 8640, Note_on_c, 0, 74, 40
2, 8832, Note_off_c, 0, 74, 0
2, 8880, Note_on_c, 0, 74, 42
2, 9072, Note_off_c, 0, 74, 0
2, 9120, Note_on_c, 0, 74, 44
2, 9312, Note_off_c, 0, 74, 0
2, 9360, Note_on_c, 0, 74, 48
2, 9400, Note_off_c, 0, 74, 0
2, 9400, Note_on_c, 0, 76, 49
2, 9440, Note_off_c, 0, 76, 0
2, 9440, Note_on_c, 0, 74, 49
2, 9480, Note_off_c, 0, 74, 0
2, 9480, Note_on_c, 0, 73, 50
2, 9540, Note_off_c, 0, 73, 0
2, 9540, Note_on_c, 0, 74, 51
2, 9600, Note_off_c, 0, 74, 0
2, 9600, Note_on_c, 0, 76, 56
2, 10080, Note_off_c, 0, 76, 0
2, 10080, Note_on_c, 0, 74, 45
2, 10320, Note_off_c, 0, 74, 0
2, 10920, Note_on_c, 0, 74, 44
2, 11016, Note_off_c, 0, 74, 0
2, 11040, Note_on_c, 0, 74, 46
2, 11136, Note_off_c, 0, 74, 0
2, 11160, Note_on_c, 0, 74, 47
2, 11256, Note_off_c, 0, 74, 0
2, 11280, Note_on_c, 0, 74, 49
2, 11376, Note_off_c, 0, 74, 0
2, 11400, Note_on_c, 0, 74, 51
2, 11496, Note_off_c, 0, 74, 0
2, 11520, Note_on_c, 0, 76, 59
2, 12000, Note_off_c, 0, 76, 0
2, 12000, Note_on_c, 0, 74, 49
2, 12240, Note_off_c, 0, 74, 0
2, 12720, Note_on_c, 0, 74, 47
2, 13080, Note_off_c, 0, 74, 0
2, 13080, Note_on_c, 0, 76, 49
2, 13140, Note_off_c, 0, 76, 0
2, 13140, Note_on_c, 0, 74, 49
2, 13200, Note_off_c, 0, 74, 0
2, 13200, Note_on_c, 0, 72, 49
2, 13278, Note_off_c, 0, 72, 0
2, 13320, Note_on_c, 0, 71, 50
2, 13398, Note_off_c, 0, 71, 0
2, 13440, Note_on_c, 0, 71, 53
2, 13680, Note_off_c, 0, 71, 0
2, 13680, Note_on_c, 0, 69, 50
2, 14160, Note_off_c, 0, 69, 0
2, 14160, Note_on_c, 0, 67, 54
2, 14400, Note_off_c, 0, 67, 0
2, 14400, Note_on_c, 0, 66, 53
2, 14440, Note_off_c, 0, 66, 0
2, 14440, Note_on_c, 0, 67, 53
2, 14480, Note_off_c, 0, 67, 0
2, 14480, Note_on_c, 0, 69, 54
2, 14520, Note_off_c, 0, 69, 0
2, 14520, Note_on_c, 0, 67, 57
2, 14640, Note_on_c, 0, 66, 54
2, 14647, Note_off_c, 0, 67, 0
2, 15120, Note_off_c, 0, 66, 0
2, 15120, Note_on_c, 0, 74, 60
2, 15360, Note_off_c, 0, 74, 0
2, 15360, Note_on_c, 0, 74, 63
2, 15600, Note_off_c, 0, 74, 0
2, 15600, Note_on_c, 0, 73, 58
2, 16080, Note_off_c, 0, 73, 0
2, 16080, Note_on_c, 0, 71, 65
2, 16320, Note_off_c, 0, 71, 0
2, 16320, Note_on_c, 0, 69, 59
2, 16360, Note_off_c, 0, 69, 0
2, 16360, Note_on_c, 0, 71, 60
2, 16400, Note_off_c, 0, 71, 0
2, 16400, Note_on_c, 0, 73, 61
2, 16440, Note_off_c, 0, 73, 0
2, 16440, Note_on_c, 0, 71, 62
2, 16560, Note_on_c, 0, 69, 59
2, 16582, Note_off_c, 0, 71, 0
2, 17040, Note_on_c, 0, 78, 70
2, 17047, Note_off_c, 0, 69, 0
2, 17280, Note_off_c, 0, 78, 0
2, 17280, Note_on_c, 0, 78, 73
2, 17520, Note_off_c, 0, 78, 0
2, 17520, Note_on_c, 0, 76, 70
2, 18000, Note_off_c, 0, 76, 0
2, 18000, Note_on_c, 0, 74, 74
2, 18240, Note_off_c, 0, 74, 0
2, 18240, Note_on_c, 0, 74, 76
2, 18480, Note_off_c, 0, 74, 0
2, 18480, Note_on_c, 0, 73, 72
2, 18960, Note_off_c, 0, 73, 0
2, 18960, Note_on_c, 0, 71, 69
2, 19200, Note_off_c, 0, 71, 0
2, 19200, Note_on_c, 0, 71, 69
2, 19440, Note_off_c, 0, 71, 0
2, 19440, Note_on_c, 0, 69, 65
2, 19680, Note_off_c, 0, 69, 0
2, 19760, Note_on_c, 0, 74, 55
2, 19840, Note_off_c, 0, 74, 0
2, 19840, Note_on_c, 0, 76, 56
2, 19920, Note_off_c, 0, 76, 0
2, 19920, Note_on_c, 0, 78, 57
2, 20000, Note_off_c, 0, 78, 0
2, 20000, Note_on_c, 0, 76, 58
2, 20080, Note_off_c, 0, 76, 0
2, 20080, Note_on_c, 0, 74, 59
2, 20160, Note_off_c, 0, 74, 0
2, 20160, Note_on_c, 0, 74, 60
2, 20400, Note_off_c, 0, 74, 0
2, 20400, Note_on_c, 0, 73, 58
2, 20640, Note_off_c, 0, 73, 0
2, 20720, Note_on_c, 0, 71, 49
2, 20800, Note_off_c, 0, 71, 0
2, 20800, Note_on_c, 0, 73, 51
2, 20880, Note_off_c, 0, 73, 0
2, 20880, Note_on_c, 0, 74, 53
2, 20960, Note_off_c, 0, 74, 0
2, 20960, Note_on_c, 0, 73, 54
2, 21040, Note_off_c, 0, 73, 0
2, 21040, Note_on_c, 0, 71, 56
2, 21120, Note_off_c, 0, 71, 0
2, 21120, Note_on_c, 0, 71, 55
2, 21360, Note_off_c, 0, 71, 0
2, 21360, Note_on_c, 0, 69, 51
2, 21600, Note_off_c, 0, 69, 0
2, 21680, Note_on_c, 0, 74, 47
2, 21760, Note_off_c, 0, 74, 0
2, 21760, Note_on_c, 0, 76, 48
2, 21840, Note_off_c, 0, 76, 0
2, 21840, Note_on_c, 0, 78, 48
2, 21920, Note_off_c, 0, 78, 0
2, 21920, Note_on_c, 0, 76, 49
2, 22000, Note_off_c, 0, 76, 0
2, 22000, Note_on_c, 0, 74, 50
2, 22080, Note_off_c, 0, 74, 0
2, 22080, Note_on_c, 0, 74, 51
2, 22160, Note_off_c, 0, 74, 0
2, 22160, Note_on_c, 0, 73, 50
2, 22240, Note_off_c, 0, 73, 0
2, 22240, Note_on_c, 0, 74, 50
2, 22320, Note_off_c, 0, 74, 0
2, 22320, Note_on_c, 0, 76, 49
2, 22400, Note_off_c, 0, 76, 0
2, 22400, Note_on_c, 0, 74, 48
2, 22480, Note_off_c, 0, 74, 0
2, 22480, Note_on_c, 0, 73, 47
2, 22560, Note_off_c, 0, 73, 0
2, 22560, Note_on_c, 0, 73, 46
2, 22640, Note_off_c, 0, 73, 0
2, 22640, Note_on_c, 0, 71, 46
2, 22720, Note_off_c, 0, 71, 0
2, 22720, Note_on_c, 0, 73, 45
2, 22800, Note_off_c, 0, 73, 0
2, 22800, Note_on_c, 0, 74, 44
2, 22880, Note_off_c, 0, 74, 0
2, 22880, Note_on_c, 0, 73, 43
2, 22960, Note_off_c, 0, 73, 0
2, 22960, Note_on_c, 0, 71, 42
2, 23040, Note_off_c, 0, 71, 0
2, 23040, Note_on_c, 0, 71, 40
2, 23120, Note_off_c, 0, 71, 0
2, 23120, Note_on_c, 0, 69, 41
2, 23200, Note_off_c, 0, 69, 0
2, 23200, Note_on_c, 0, 68, 42
2, 23280, Note_off_c, 0, 68, 0
2, 23280, Note_on_c, 0, 69, 43
2, 23360, Note_off_c, 0, 69, 0
2, 23360, Note_on_c, 0, 71, 44
2, 23440, Note_off_c, 0, 71, 0
2, 23440, Note_on_c, 0, 73, 45
2, 23520, Note_off_c, 0, 73, 0
2, 23520, Note_on_c, 0, 74, 46
2, 23600, Note_off_c, 0, 74, 0
2, 23600, Note_on_c, 0, 75, 47
2, 23680, Note_off_c, 0, 75, 0
2, 23680, Note_on_c, 0, 76, 48
2, 23760, Note_off_c, 0, 76, 0
2, 23760, Note_on_c, 0, 77, 49
2, 23820, Note_off_c, 0, 77, 0
2, 23820, Note_on_c, 0, 78, 50
2, 23880, Note_off_c, 0, 78, 0
2, 23880, Note_on_c, 0, 79, 51
2, 23940, Note_off_c, 0, 79, 0
2, 23940, Note_on_c, 0, 80, 51
2, 24000, Note_off_c, 0, 80, 0
2, 24000, Note_on_c, 0, 81, 52
2, 24192, Note_off_c, 0, 81, 0
2, 24240, Note_on_c, 0, 81, 56
2, 24432, Note_off_c, 0, 81, 0
2, 24480, Note_on_c, 0, 81, 60
2, 24672, Note_off_c, 0, 81, 0
2, 24720, Note_on_c, 0, 81, 65
2, 24912, Note_off_c, 0, 81, 0
2, 24960, Note_on_c, 0, 81, 68
2, 25320, Note_off_c, 0, 81, 0
2, 25320, Note_on_c, 0, 80, 66
2, 25416, Note_off_c, 0, 80, 0
2, 25440, Note_on_c, 0, 81, 65
2, 25800, Note_off_c, 0, 81, 0
2, 25800, Note_on_c, 0, 80, 63
2, 25896, Note_off_c, 0, 80, 0
2, 25920, Note_on_c, 0, 81, 62
2, 26280, Note_off_c, 0, 81, 0
2, 26280, Note_on_c, 0, 79, 60
2, 26376, Note_off_c, 0, 79, 0
2, 26400, Note_on_c, 0, 79, 59
2, 26520, Note_off_c, 0, 79, 0
2, 26520, Note_on_c, 0, 78, 58
2, 26616, Note_off_c, 0, 78, 0
2, 26640, Note_on_c, 0, 78, 58
2, 26760, Note_off_c, 0, 78, 0
2, 26760, Note_on_c, 0, 76, 57
2, 26856, Note_off_c, 0, 76, 0
2, 26880, Note_on_c, 0, 76, 56
2, 27000, Note_off_c, 0, 76, 0
2, 27000, Note_on_c, 0, 74, 56
2, 27096, Note_off_c, 0, 74, 0
2, 27120, Note_on_c, 0, 74, 55
2, 27240, Note_off_c, 0, 74, 0
2, 27240, Note_on_c, 0, 73, 54
2, 27336, Note_off_c, 0, 73, 0
2, 27360, Note_on_c, 0, 73, 53
2, 27480, Note_off_c, 0, 73, 0
2, 27480, Note_on_c, 0, 71, 53
2, 27576, Note_off_c, 0, 71, 0
2, 27600, Note_on_c, 0, 71, 52
2, 27720, Note_off_c, 0, 71, 0
2, 27720, Note_on_c, 0, 69, 51
2, 27816, Note_off_c, 0, 69, 0
2, 27840, Note_on_c, 0, 66, 51
2, 28320, Note_off_c, 0, 66, 0
2, 28320, Note_on_c, 0, 67, 44
2, 28560, Note_off_c, 0, 67, 0
2, 28800, Note_on_c, 0, 79, 59
2, 29160, Note_off_c, 0, 79, 0
2, 29160, Note_on_c, 0, 78, 57
2, 29256, Note_off_c, 0, 78, 0
2, 29280, Note_on_c, 0, 79, 57
2, 29640, Note_off_c, 0, 79, 0
2, 29640, Note_on_c, 0, 78, 54
2, 29736, Note_off_c, 0, 78, 0
2, 29760, Note_on_c, 0, 79, 54
2, 30120, Note_off_c, 0, 79, 0
2, 30120, Note_on_c, 0, 78, 52
2, 30216, Note_off_c, 0, 78, 0
2, 30240, Note_on_c, 0, 78, 52
2, 30360, Note_off_c, 0, 78, 0
2, 30360, Note_on_c, 0, 76, 51
2, 30456, Note_off_c, 0, 76, 0
2, 30480, Note_on_c, 0, 76, 50
2, 30600, Note_off_c, 0, 76, 0
2, 30600, Note_on_c, 0, 74, 49
2, 30696, Note_off_c, 0, 74, 0
2, 30720, Note_on_c, 0, 74, 48
2, 30840, Note_off_c, 0, 74, 0
2, 30840, Note_on_c, 0, 73, 47
2, 30936, Note_off_c, 0, 73, 0
2, 30960, Note_on_c, 0, 73, 46
2, 31080, Note_off_c, 0, 73, 0
2, 31080, Note_on_c, 0, 71, 45
2, 31176, Note_off_c, 0, 71, 0
2, 31200, Note_on_c, 0, 71, 44
2, 31320, Note_off_c, 0, 71, 0
2, 31320, Note_on_c, 0, 69, 43
2, 31416, Note_off_c, 0, 69, 0
2, 31440, Note_on_c, 0, 69, 42
2, 31560, Note_off_c, 0, 69, 0
2, 31560, Note_on_c, 0, 67, 41
2, 31656, Note_off_c, 0, 67, 0
2, 31680, Note_on_c, 0, 66, 40
2, 31920, Note_off_c, 0, 66, 0
2, 31920, Note_on_c, 0, 71, 45
2, 32160, Note_off_c, 0, 71, 0
2, 32160, Note_on_c, 0, 69, 49
2, 32400, Note_off_c, 0, 69, 0
2, 32400, Note_on_c, 0, 67, 47
2, 32640, Note_off_c, 0, 67, 0
2, 32640, Note_on_c, 0, 66, 44
2, 32880, Note_off_c, 0, 66, 0
2, 32880, Note_on_c, 0, 71, 48
2, 33120, Note_off_c, 0, 71, 0
2, 33120, Note_on_c, 0, 69, 54
2, 33360, Note_off_c, 0, 69, 0
2, 33360, Note_on_c, 0, 67, 53
2, 33600, Note_off_c, 0, 67, 0
2, 33600, Note_on_c, 0, 66, 53
2, 33840, Note_off_c, 0, 66, 0
2, 33840, Note_on_c, 0, 71, 57
2, 34080, Note_off_c, 0, 71, 0
2, 34080, Note_on_c, 0, 69, 52
2, 34320, Note_off_c, 0, 69, 0
2, 34320, Note_on_c, 0, 68, 50
2, 34560, Note_off_c, 0, 68, 0
2, 34560, Note_on_c, 0, 69, 48
2, 34800, Note_off_c, 0, 69, 0
2, 35520, Note_on_c, 0, 78, 47
2, 35760, Note_off_c, 0, 78, 0
2, 35760, Note_on_c, 0, 83, 50
2, 36000, Note_off_c, 0, 83, 0
2, 36000, Note_on_c, 0, 81, 55
2, 36240, Note_off_c, 0, 81, 0
2, 36240, Note_on_c, 0, 79, 53
2, 36480, Note_off_c, 0, 79, 0
2, 36480, Note_on_c, 0, 78, 50
2, 36720, Note_off_c, 0, 78, 0
2, 36720, Note_on_c, 0, 83, 55
2, 36960, Note_off_c, 0, 83, 0
2, 36960, Note_on_c, 0, 81, 59
2, 37200, Note_off_c, 0, 81, 0
2, 37200, Note_on_c, 0, 79, 58
2, 37440, Note_off_c, 0, 79, 0
2, 37440, Note_on_c, 0, 78, 56
2, 37680, Note_off_c, 0, 78, 0
2, 37680, Note_on_c, 0, 86, 62
2, 38160, Note_off_c, 0, 86, 0
2, 38160, Note_on_c, 0, 86, 70
2, 38592, Note_off_c, 0, 86, 0
2, 38640, Note_on_c, 0, 86, 77
2, 38832, Note_off_c, 0, 86, 0
2, 38880, Note_on_c, 0, 86, 80
2, 39072, Note_off_c, 0, 86, 0
2, 39120, Note_on_c, 0, 86, 84
2, 39312, Note_off_c, 0, 86, 0
2, 39360, Note_on_c, 0, 83, 47
2, 39420, Note_off_c, 0, 83, 0
2, 39420, Note_on_c, 0, 85, 47
2, 39480, Note_off_c, 0, 85, 0
2, 39480, Note_on_c, 0, 83, 48
2, 39540, Note_off_c, 0, 83, 0
2, 39540, Note_on_c, 0, 82, 48
2, 39600, Note_off_c, 0, 82, 0
2, 39600, Note_on_c, 0, 83, 49
2, 39660, Note_off_c, 0, 83, 0
2, 39660, Note_on_c, 0, 85, 49
2, 39720, Note_off_c, 0, 85, 0
2, 39720, Note_on_c, 0, 83, 50
2, 39780, Note_off_c, 0, 83, 0
2, 39780, Note_on_c, 0, 82, 50
2, 39840, Note_off_c, 0, 82, 0
2, 39840, Note_on_c, 0, 83, 51
2, 39900, Note_off_c, 0, 83, 0
2, 39900, Note_on_c, 0, 85, 51
2, 39960, Note_off_c, 0, 85, 0
2, 39960, Note_on_c, 0, 83, 52
2, 40020, Note_off_c, 0, 83, 0
2, 40020, Note_on_c, 0, 82, 52
2, 40080, Note_off_c, 0, 82, 0
2, 40080, Note_on_c, 0, 83, 53
2, 40140, Note_off_c, 0, 83, 0
2, 40140, Note_on_c, 0, 85, 53
2, 40200, Note_off_c, 0, 85, 0
2, 40200, Note_on_c, 0, 86, 54
2, 40260, Note_off_c, 0, 86, 0
2, 40260, Note_on_c, 0, 85, 54
2, 40320, Note_off_c, 0, 85, 0
2, 40320, Note_on_c, 0, 86, 54
2, 40380, Note_off_c, 0, 86, 0
2, 40380, Note_on_c, 0, 88, 55
2, 40440, Note_off_c, 0, 88, 0
2, 40440, Note_on_c, 0, 86, 56
2, 40500, Note_off_c, 0, 86, 0
2, 40500, Note_on_c, 0, 85, 57
2, 40560, Note_off_c, 0, 85, 0
2, 40560, Note_on_c, 0, 86, 57
2, 40620, Note_off_c, 0, 86, 0
2, 40620, Note_on_c, 0, 88, 58
2, 40680, Note_off_c, 0, 88, 0
2, 40680, Note_on_c, 0, 89, 59
2, 40740, Note_off_c, 0, 89, 0
2, 40740, Note_on_c, 0, 88, 60
2, 40800, Note_off_c, 0, 88, 0
2, 40800, Note_on_c, 0, 86, 61
2, 40860, Note_off_c, 0, 86, 0
2, 40860, Note_on_c, 0, 88, 61
2, 40920, Note_off_c, 0, 88, 0
2, 40920, Note_on_c, 0, 86, 62
2, 40980, Note_off_c, 0, 86, 0
2, 40980, Note_on_c, 0, 85, 63
2, 41040, Note_off_c, 0, 85, 0
2, 41040, Note_on_c, 0, 86, 64
2, 41100, Note_off_c, 0, 86, 0
2, 41100, Note_on_c, 0, 88, 65
2, 41160, Note_off_c, 0, 88, 0
2, 41160, Note_on_c, 0, 89, 65
2, 41220, Note_off_c, 0, 89, 0
2, 41220, Note_on_c, 0, 88, 66
2, 41280, Note_off_c, 0, 88, 0
2, 41280, Note_on_c, 0, 86, 66
2, 41340, Note_off_c, 0, 86, 0
2, 41340, Note_on_c, 0, 88, 67
2, 41400, Note_off_c, 0, 88, 0
2, 41400, Note_on_c, 0, 86, 69
2, 41460, Note_off_c, 0, 86, 0
2, 41460, Note_on_c, 0, 85, 70
2, 41520, Note_off_c, 0, 85, 0
2, 41520, Note_on_c, 0, 86, 71
2, 41580, Note_off_c, 0, 86, 0
2, 41580, Note_on_c, 0, 88, 72
2, 41640, Note_off_c, 0, 88, 0
2, 41640, Note_on_c, 0, 89, 74
2, 41700, Note_off_c, 0, 89, 0
2, 41700, Note_on_c, 0, 88, 75
2, 41760, Note_off_c, 0, 88, 0
2, 41760, Note_on_c, 0, 86, 76
2, 41820, Note_off_c, 0, 86, 0
2, 41820, Note_on_c, 0, 85, 78
2, 41880, Note_off_c, 0, 85, 0
2, 41880, Note_on_c, 0, 83, 79
2, 41940, Note_off_c, 0, 83, 0
2, 41940, Note_on_c, 0, 81, 80
2, 42000, Note_off_c, 0, 81, 0
2, 42000, Note_on_c, 0, 79, 81
2, 42060, Note_off_c, 0, 79, 0
2, 42060, Note_on_c, 0, 78, 83
2, 42120, Note_off_c, 0, 78, 0
2, 42120, Note_on_c, 0, 76, 84
2, 42180, Note_off_c, 0, 76, 0
2, 42180, Note_on_c, 0, 74, 85
2, 42240, Note_off_c, 0, 74, 0
2, 42240, Note_on_c, 0, 78, 88
2, 42720, Note_off_c, 0, 78, 0
2, 42720, Note_on_c, 0, 76, 78
2, 43200, Note_off_c, 0, 76, 0
2, 43200, Note_on_c, 0, 74, 78
2, 43260, Note_off_c, 0, 74, 0
2, 43260, Note_on_c, 0, 76, 77
2, 43320, Note_off_c, 0, 76, 0
2, 43320, Note_on_c, 0, 78, 77
2, 43380, Note_off_c, 0, 78, 0
2, 43380, Note_on_c, 0, 79, 76
2, 43440, Note_off_c, 0, 79, 0
2, 43440, Note_on_c, 0, 81, 76
2, 43500, Note_off_c, 0, 81, 0
2, 43500, Note_on_c, 0, 79, 75
2, 43560, Note_off_c, 0, 79, 0
2, 43560, Note_on_c, 0, 78, 75
2, 43620, Note_off_c, 0, 78, 0
2, 43620, Note_on_c, 0, 76, 75
2, 43680, Note_off_c, 0, 76, 0
2, 43680, Note_on_c, 0, 74, 74
2, 43740, Note_off_c, 0, 74, 0
2, 43740, Note_on_c, 0, 73, 74
2, 43800, Note_off_c, 0, 73, 0
2, 43800, Note_on_c, 0, 71, 73
2, 43860, Note_off_c, 0, 71, 0
2, 43860, Note_on_c, 0, 69, 73
2, 43920, Note_off_c, 0, 69, 0
2, 43920, Note_on_c, 0, 67, 72
2, 43980, Note_off_c, 0, 67, 0
2, 43980, Note_on_c, 0, 66, 72
2, 44040, Note_off_c, 0, 66, 0
2, 44040, Note_on_c, 0, 64, 71
2, 44100, Note_off_c, 0, 64, 0
2, 44100, Note_on_c, 0, 62, 70
2, 44160, Note_off_c, 0, 62, 0
2, 44160, Note_on_c, 0, 66, 76
2, 44640, Note_off_c, 0, 66, 0
2, 44640, Note_on_c, 0, 64, 67
2, 45120, Note_off_c, 0, 64, 0
2, 45120, Note_on_c, 0, 62, 57
2, 45345, Note_off_c, 0, 62, 0
2, 45360, Note_on_c, 0, 66, 54
2, 45585, Note_off_c, 0, 66, 0
2, 45600, Note_on_c, 0, 67, 57
2, 45825, Note_off_c, 0, 67, 0
2, 45840, Note_on_c, 0, 68, 60
2, 46065, Note_off_c, 0, 68, 0
2, 46080, Note_on_c, 0, 69, 65
2, 47280, Note_off_c, 0, 69, 0
2, 47280, Note_on_c, 0, 66, 54
2, 47520, Note_off_c, 0, 66, 0
2, 47520, Note_on_c, 0, 71, 56
2, 47760, Note_off_c, 0, 71, 0
2, 47760, Note_on_c, 0, 69, 58
2, 48000, Note_off_c, 0, 69, 0
2, 48000, Note_on_c, 0, 67, 63
2, 49200, Note_off_c, 0, 67, 0
2, 49200, Note_on_c, 0, 67, 52
2, 49440, Note_off_c, 0, 67, 0
2, 49440, Note_on_c, 0, 69, 54
2, 49680, Note_off_c, 0, 69, 0
2, 49680, Note_on_c, 0, 67, 57
2, 49920, Note_off_c, 0, 67, 0
2, 49920, Note_on_c, 0, 66, 62
2, 51120, Note_off_c, 0, 66, 0
2, 51120, Note_on_c, 0, 64, 52
2, 51360, Note_off_c, 0, 64, 0
2, 51360, Note_on_c, 0, 64, 55
2, 51600, Note_off_c, 0, 64, 0
2, 51600, Note_on_c, 0, 67, 58
2, 51840, Note_off_c, 0, 67, 0
2, 51840, Note_on_c, 0, 66, 65
2, 53040, Note_off_c, 0, 66, 0
2, 53040, Note_on_c, 0, 64, 48
2, 53280, Note_off_c, 0, 64, 0
2, 53280, Note_on_c, 0, 64, 50
2, 53520, Note_off_c, 0, 64, 0
2, 53520, Note_on_c, 0, 67, 53
2, 53760, Note_off_c, 0, 67, 0
2, 53760, Note_on_c, 0, 66, 58
2, 54960, Note_off_c, 0, 66, 0
2, 54960, Note_on_c, 0, 67, 62
2, 55200, Note_off_c, 0, 67, 0
2, 55200, Note_on_c, 0, 66, 67
2, 55440, Note_off_c, 0, 66, 0
2, 55440, Note_on_c, 0, 64, 71
2, 55680, Note_off_c, 0, 64, 0
2, 55680, Note_on_c, 0, 62, 67
2, 56400, Note_off_c, 0, 62, 0
2, 56400, Note_on_c, 0, 64, 60
2, 56640, Note_off_c, 0, 64, 0
2, 56640, Note_on_c, 0, 66, 58
2, 57360, Note_off_c, 0, 66, 0
2, 57360, Note_on_c, 0, 64, 52
2, 57600, Note_off_c, 0, 64, 0
2, 57600, Note_on_c, 0, 62, 49
2, 58320, Note_off_c, 0, 62, 0
2, 58320, Note_on_c, 0, 73, 52
2, 58560, Note_off_c, 0, 73, 0
2, 58560, Note_on_c, 0, 74, 42
2, 58716, Note_off_c, 0, 74, 0
2, 58800, Note_on_c, 0, 73, 51
2, 59040, Note_off_c, 0, 73, 0
2, 59040, Note_on_c, 0, 74, 40
2, 59196, Note_off_c, 0, 74, 0
2, 59280, Note_on_c, 0, 73, 38
2, 59320, Note_off_c, 0, 73, 0
2, 59320, Note_on_c, 0, 74, 39
2, 59360, Note_off_c, 0, 74, 0
2, 59360, Note_on_c, 0, 73, 40
2, 59400, Note_off_c, 0, 73, 0
2, 59400, Note_on_c, 0, 71, 41
2, 59460, Note_off_c, 0, 71, 0
2, 59460, Note_on_c, 0, 73, 43
2, 59520, Note_off_c, 0, 73, 0
2, 59520, Note_on_c, 0, 76, 46
2, 60480, Note_off_c, 0, 76, 0
2, 60480, Note_on_c, 0, 74, 31
2, 60720, Note_off_c, 0, 74, 0
2, 60960, Control_c, 0, 64, 0
2, 61080, Note_on_c, 0, 62, 49
2, 61200, Note_off_c, 0, 62, 0
2, 61200, Note_on_c, 0, 74, 49
2, 61320, Note_off_c, 0, 74, 0
2, 61320, Note_on_c, 0, 69, 49
2, 61440, Note_off_c, 0, 69, 0
2, 61440, Note_on_c, 0, 70, 48
2, 61560, Note_off_c, 0, 70, 0
2, 61560, Note_on_c, 0, 66, 48
2, 61680, Note_off_c, 0, 66, 0
2, 61680, Note_on_c, 0, 67, 47
2, 62040, Note_off_c, 0, 67, 0
2, 62040, Note_on_c, 0, 62, 46
2, 62160, Note_off_c, 0, 62, 0
2, 62160, Note_on_c, 0, 74, 46
2, 62280, Note_off_c, 0, 74, 0
2, 62280, Note_on_c, 0, 69, 45
2, 62400, Note_off_c, 0, 69, 0
2, 62400, Note_on_c, 0, 70, 45
2, 62520, Note_off_c, 0, 70, 0
2, 62520, Note_on_c, 0, 66, 44
2, 62640, Note_off_c, 0, 66, 0
2, 62640, Note_on_c, 0, 67, 44
2, 63000, Note_off_c, 0, 67, 0
2, 63000, Note_on_c, 0, 67, 43
2, 63120, Note_off_c, 0, 67, 0
2, 63120, Note_on_c, 0, 79, 42
2, 63240, Note_off_c, 0, 79, 0
2, 63240, Note_on_c, 0, 74, 42
2, 63360, Note_off_c, 0, 74, 0
2, 63360, Note_on_c, 0, 75, 42
2, 63480, Note_off_c, 0, 75, 0
2, 63480, Note_on_c, 0, 71, 41
2, 63600, Note_off_c, 0, 71, 0
2, 63600, Note_on_c, 0, 72, 41
2, 63960, Note_off_c, 0, 72, 0
2, 63960, Note_on_c, 0, 67, 39
2, 64080, Note_off_c, 0, 67, 0
2, 64080, Note_on_c, 0, 79, 39
2, 64200, Note_off_c, 0, 79, 0
2, 64200, Note_on_c, 0, 74, 39
2, 64320, Note_off_c, 0, 74, 0
2, 64320, Note_on_c, 0, 75, 38
2, 64440, Note_off_c, 0, 75, 0
2, 64440, Note_on_c, 0, 71, 38
2, 64560, Note_off_c, 0, 71, 0
2, 64560, Note_on_c, 0, 72, 37
2, 64920, Note_off_c, 0, 72, 0
2, 64920, Note_on_c, 0, 86, 36
2, 65040, Note_off_c, 0, 86, 0
2, 65040, Note_on_c, 0, 87, 36
2, 65160, Note_off_c, 0, 87, 0
2, 65160, Note_on_c, 0, 83, 35
2, 65280, Note_off_c, 0, 83, 0
2, 65280, Note_on_c, 0, 84, 35
2, 65400, Note_off_c, 0, 84, 0
2, 65880, Note_on_c, 0, 74, 33
2, 66000, Note_off_c, 0, 74, 0
2, 66000, Note_on_c, 0, 75, 33
2, 66120, Note_off_c, 0, 75, 0
2, 66120, Note_on_c, 0, 71, 32
2, 66240, Note_off_c, 0, 71, 0
2, 66240, Note_on_c, 0, 72, 32
2, 66360, Note_off_c, 0, 72, 0
2, 66840, Note_on_c, 0, 86, 30
2, 66960, Note_off_c, 0, 86, 0
2, 66960, Note_on_c, 0, 87, 29
2, 67080, Note_off_c, 0, 87, 0
2, 67080, Note_on_c, 0, 83, 29
2, 67200, Note_off_c, 0, 83, 0
2, 67200, Note_on_c, 0, 84, 28
2, 67320, Note_off_c, 0, 84, 0
2, 67800, Note_on_c, 0, 65, 29
2, 67920, Note_off_c, 0, 65, 0
2, 67920, Note_on_c, 0, 75, 33
2, 68040, Note_off_c, 0, 75, 0
2, 68040, Note_on_c, 0, 71, 37
2, 68160, Note_off_c, 0, 71, 0
2, 68160, Note_on_c, 0, 72, 41
2, 68280, Note_off_c, 0, 72, 0
2, 68280, Note_on_c, 0, 68, 46
2, 68400, Note_off_c, 0, 68, 0
2, 68400, Note_on_c, 0, 69, 50
2, 68760, Note_off_c, 0, 69, 0
2, 68760, Note_on_c, 0, 65, 63
2, 68880, Note_off_c, 0, 65, 0
2, 68880, Note_on_c, 0, 75, 67
2, 69000, Note_off_c, 0, 75, 0
2, 69000, Note_on_c, 0, 71, 71
2, 69120, Note_off_c, 0, 71, 0
2, 69120, Note_on_c, 0, 72, 81
2, 69240, Note_off_c, 0, 72, 0
2, 69240, Note_on_c, 0, 68, 77
2, 69360, Note_off_c, 0, 68, 0
2, 69360, Note_on_c, 0, 69, 73
2, 69606, Note_off_c, 0, 69, 0
2, 71040, Note_on_c, 0, 77, 67
2, 71400, Note_off_c, 0, 77, 0
2, 71400, Note_on_c, 0, 76, 65
2, 71496, Note_off_c, 0, 76, 0
2, 71520, Note_on_c, 0, 77, 65
2, 71880, Note_off_c, 0, 77, 0
2, 71880, Note_on_c, 0, 76, 63
2, 71976, Note_off_c, 0, 76, 0
2, 72000, Note_on_c, 0, 77, 63
2, 72360, Note_off_c, 0, 77, 0
2, 72360, Note_on_c, 0, 75, 61
2, 72456, Note_off_c, 0, 75, 0
2, 72480, Note_on_c, 0, 75, 61
2, 72600, Note_off_c, 0, 75, 0
2, 72600, Note_on_c, 0, 74, 60
2, 72696, Note_off_c, 0, 74, 0
2, 72720, Note_on_c, 0, 74, 60
2, 72840, Note_off_c, 0, 74, 0
2, 72840, Note_on_c, 0, 72, 59
2, 72936, Note_off_c, 0, 72, 0
2, 72960, Note_on_c, 0, 72, 58
2, 73080, Note_off_c, 0, 72, 0
2, 73080, Note_on_c, 0, 70, 58
2, 73176, Note_off_c, 0, 70, 0
2, 73200, Note_on_c, 0, 70, 57
2, 73320, Note_off_c, 0, 70, 0
2, 73320, Note_on_c, 0, 69, 57
2, 73416, Note_off_c, 0, 69, 0
2, 73440, Note_on_c, 0, 69, 56
2, 73560, Note_off_c, 0, 69, 0
2, 73560, Note_on_c, 0, 67, 56
2, 73656, Note_off_c, 0, 67, 0
2, 73680, Note_on_c, 0, 67, 55
2, 73800, Note_off_c, 0, 67, 0
2, 73800, Note_on_c, 0, 65, 55
2, 73896, Note_off_c, 0, 65, 0
2, 73920, Note_on_c, 0, 62, 54
2, 74400, Note_off_c, 0, 62, 0
2, 74400, Note_on_c, 0, 63, 47
2, 74640, Note_off_c, 0, 63, 0
2, 74880, Note_on_c, 0, 75, 65
2, 75240, Note_off_c, 0, 75, 0
2, 75240, Note_on_c, 0, 74, 61
2, 75336, Note_off_c, 0, 74, 0
2, 75360, Note_on_c, 0, 75, 60
2, 75720, Note_off_c, 0, 75, 0
2, 75720, Note_on_c, 0, 74, 56
2, 75816, Note_off_c, 0, 74, 0
2, 75840, Note_on_c, 0, 75, 54
2, 76200, Note_off_c, 0, 75, 0
2, 76200, Note_on_c, 0, 74, 50
2, 76296, Note_off_c, 0, 74, 0
2, 76320, Note_on_c, 0, 75, 49
2, 76680, Note_off_c, 0, 75, 0
2, 76680, Note_on_c, 0, 74, 45
2, 76776, Note_off_c, 0, 74, 0
2, 76800, Note_on_c, 0, 75, 44
2, 77160, Note_off_c, 0, 75, 0
2, 77160, Note_on_c, 0, 74, 40
2, 77256, Note_off_c, 0, 74, 0
2, 77280, Note_on_c, 0, 75, 38
2, 77640, Note_off_c, 0, 75, 0
2, 77640, Note_on_c, 0, 74, 34
2, 77736, Note_off_c, 0, 74, 0
2, 77760, Control_c, 0, 64, 0
2, 77760, Note_on_c, 0, 75, 58
2, 77800, Control_c, 0, 64, 127
2, 77840, Note_off_c, 0, 75, 0
2, 78000, Note_on_c, 0, 75, 57
2, 78080, Note_off_c, 0, 75, 0
2, 78240, Note_on_c, 0, 75, 57
2, 78320, Note_off_c, 0, 75, 0
2, 78480, Note_on_c, 0, 75, 56
2, 78560, Note_off_c, 0, 75, 0
2, 78720, Note_on_c, 0, 75, 56
2, 78800, Note_off_c, 0, 75, 0
2, 78960, Note_on_c, 0, 75, 55
2, 79040, Note_off_c, 0, 75, 0
2, 79200, Note_on_c, 0, 75, 55
2, 79280, Note_off_c, 0, 75, 0
2, 79440, Note_on_c, 0, 75, 54
2, 79520, Note_off_c, 0, 75, 0
2, 79680, Note_on_c, 0, 75, 54
2, 79760, Note_off_c, 0, 75, 0
2, 79920, Note_on_c, 0, 75, 53
2, 80000, Note_off_c, 0, 75, 0
2, 80160, Note_on_c, 0, 75, 53
2, 80240, Note_off_c, 0, 75, 0
2, 80400, Note_on_c, 0, 75, 52
2, 80480, Note_off_c, 0, 75, 0
2, 80640, Control_c, 0, 64, 0
2, 80640, Note_on_c, 0, 74, 52
2, 80680, Control_c, 0, 64, 127
2, 80720, Note_off_c, 0, 74, 0
2, 80880, Note_on_c, 0, 74, 51
2, 80960, Note_off_c, 0, 74, 0
2, 81120, Note_on_c, 0, 74, 51
2, 81200, Note_off_c, 0, 74, 0
2, 81360, Note_on_c, 0, 74, 50
2, 81440, Note_off_c, 0, 74, 0
2, 81600, Note_on_c, 0, 74, 50
2, 81680, Note_off_c, 0, 74, 0
2, 81840, Note_on_c, 0, 74, 49
2, 81920, Note_off_c, 0, 74, 0
2, 82080, Note_on_c, 0, 74, 49
2, 82160, Note_off_c, 0, 74, 0
2, 82320, Note_on_c, 0, 74, 48
2, 82400, Note_off_c, 0, 74, 0
2, 82560, Control_c, 0, 64, 0
2, 82560, Note_on_c, 0, 74, 60
2, 82600, Control_c, 0, 64, 127
2, 82640, Note_off_c, 0, 74, 0
2, 82800, Note_on_c, 0, 74, 57
2, 82880, Note_off_c, 0, 74, 0
2, 83040, Note_on_c, 0, 74, 57
2, 83120, Note_off_c, 0, 74, 0
2, 83280, Note_on_c, 0, 74, 56
2, 83360, Note_off_c, 0, 74, 0
2, 83520, Note_on_c, 0, 74, 56
2, 83600, Note_off_c, 0, 74, 0
2, 83760, Note_on_c, 0, 74, 55
2, 83840, Note_off_c, 0, 74, 0
2, 84000, Note_on_c, 0, 74, 55
2, 84080, Note_off_c, 0, 74, 0
2, 84240, Note_on_c, 0, 74, 55
2, 84320, Note_off_c, 0, 74, 0
2, 84480, Note_on_c, 0, 74, 54
2, 84560, Note_off_c, 0, 74, 0
2, 84720, Note_on_c, 0, 74, 54
2, 84800, Note_off_c, 0, 74, 0
2, 84960, Note_on_c, 0, 74, 53
2, 85040, Note_off_c, 0, 74, 0
2, 85200, Note_on_c, 0, 74, 53
2, 85280, Note_off_c, 0, 74, 0
2, 85440, Control_c, 0, 64, 0
2, 85440, Note_on_c, 0, 72, 52
2, 85480, Control_c, 0, 64, 127
2, 85520, Note_off_c, 0, 72, 0
2, 85680, Note_on_c, 0, 72, 52
2, 85760, Note_off_c, 0, 72, 0
2, 85920, Note_on_c, 0, 72, 52
2, 86000, Note_off_c, 0, 72, 0
2, 86160, Note_on_c, 0, 72, 51
2, 86240, Note_off_c, 0, 72, 0
2, 86400, Note_on_c, 0, 72, 51
2, 86480, Note_off_c, 0, 72, 0
2, 86640, Note_on_c, 0, 76, 50
2, 86720, Note_off_c, 0, 76, 0
2, 86880, Note_on_c, 0, 76, 50
2, 86960, Note_off_c, 0, 76, 0
2, 87120, Note_on_c, 0, 76, 49
2, 87200, Note_off_c, 0, 76, 0
2, 87360, Control_c, 0, 64, 0
2, 87360, Note_on_c, 0, 77, 49
2, 87400, Control_c, 0, 64, 127
2, 87440, Note_off_c, 0, 77, 0
2, 87600, Note_on_c, 0, 77, 49
2, 87680, Note_off_c, 0, 77, 0
2, 87840, Note_on_c, 0, 77, 48
2, 87920, Note_off_c, 0, 77, 0
2, 88080, Note_on_c, 0, 77, 48
2, 88160, Note_off_c, 0, 77, 0
2, 88320, Note_on_c, 0, 77, 47
2, 88400, Note_off_c, 0, 77, 0
2, 88560, Note_on_c, 0, 75, 46
2, 88640, Note_off_c, 0, 75, 0
2, 88800, Note_on_c, 0, 75, 46
2, 88880, Note_off_c, 0, 75, 0
2, 89040, Note_on_c, 0, 75, 46
2, 89120, Note_off_c, 0, 75, 0
2, 89280, Note_on_c, 0, 75, 45
2, 89360, Note_off_c, 0, 75, 0
2, 89520, Note_on_c, 0, 74, 45
2, 89600, Note_off_c, 0, 74, 0
2, 89760, Note_on_c, 0, 74, 44
2, 89840, Note_off_c, 0, 74, 0
2, 90000, Note_on_c, 0, 74, 47
2, 90080, Note_off_c, 0, 74, 0
2, 90240, Note_on_c, 0, 74, 56
2, 90320, Note_off_c, 0, 74, 0
2, 90480, Note_on_c, 0, 74, 45
2, 90560, Note_off_c, 0, 74, 0
2, 90720, Note_on_c, 0, 74, 40
2, 90800, Note_off_c, 0, 74, 0
2, 90960, Note_on_c, 0, 74, 44
2, 91040, Note_off_c, 0, 74, 0
2, 91200, Note_on_c, 0, 74, 53
2, 91280, Note_off_c, 0, 74, 0
2, 91440, Note_on_c, 0, 77, 43
2, 91520, Note_off_c, 0, 77, 0
2, 91680, Note_on_c, 0, 77, 39
2, 91760, Note_off_c, 0, 77, 0
2, 91920, Note_on_c, 0, 77, 43
2, 92000, Note_off_c, 0, 77, 0
2, 92160, Note_on_c, 0, 77, 53
2, 92240, Note_off_c, 0, 77, 0
2, 92400, Note_on_c, 0, 80, 44
2, 92480, Note_off_c, 0, 80, 0
2, 92640, Note_on_c, 0, 80, 42
2, 92720, Note_off_c, 0, 80, 0
2, 92880, Note_on_c, 0, 80, 40
2, 92960, Note_off_c, 0, 80, 0
2, 93120, Note_on_c, 0, 80, 38
2, 93200, Note_off_c, 0, 80, 0
2, 93360, Note_on_c, 0, 77, 37
2, 93440, Note_off_c, 0, 77, 0
2, 93600, Note_on_c, 0, 77, 37
2, 93680, Note_off_c, 0, 77, 0
2, 93840, Note_on_c, 0, 77, 36
2, 93920, Note_off_c, 0, 77, 0
2, 94080, Note_on_c, 0, 77, 48
2, 95040, Control_c, 0, 64, 0
2, 95040, Note_off_c, 0, 77, 0
2, 95640, Note_on_c, 0, 70, 36
2, 95760, Note_off_c, 0, 70, 0
2, 95760, Note_on_c, 0, 82, 36
2, 95880, Note_off_c, 0, 82, 0
2, 95880, Note_on_c, 0, 78, 37
2, 96000, Note_off_c, 0, 78, 0
2, 96000, Note_on_c, 0, 79, 37
2, 96120, Note_off_c, 0, 79, 0
2, 96120, Note_on_c, 0, 74, 37
2, 96240, Note_off_c, 0, 74, 0
2, 96240, Note_on_c, 0, 75, 38
2, 96600, Note_off_c, 0, 75, 0
2, 96600, Note_on_c, 0, 70, 39
2, 96720, Note_off_c, 0, 70, 0
2, 96720, Note_on_c, 0, 82, 40
2, 96840, Note_off_c, 0, 82, 0
2, 96840, Note_on_c, 0, 78, 40
2, 96960, Note_off_c, 0, 78, 0
2, 96960, Note_on_c, 0, 79, 40
2, 97080, Note_off_c, 0, 79, 0
2, 97080, Note_on_c, 0, 74, 41
2, 97200, Note_off_c, 0, 74, 0
2, 97200, Note_on_c, 0, 75, 41
2, 97560, Note_off_c, 0, 75, 0
2, 97560, Note_on_c, 0, 72, 42
2, 97680, Note_off_c, 0, 72, 0
2, 97680, Note_on_c, 0, 84, 43
2, 97800, Note_off_c, 0, 84, 0
2, 97800, Note_on_c, 0, 79, 43
2, 97920, Note_off_c, 0, 79, 0
2, 97920, Note_on_c, 0, 80, 44
2, 98040, Note_off_c, 0, 80, 0
2, 98040, Note_on_c, 0, 76, 44
2, 98160, Note_off_c, 0, 76, 0
2, 98160, Note_on_c, 0, 77, 45
2, 98520, Note_off_c, 0, 77, 0
2, 98520, Note_on_c, 0, 72, 46
2, 98640, Note_off_c, 0, 72, 0
2, 98640, Note_on_c, 0, 84, 46
2, 98760, Note_off_c, 0, 84, 0
2, 98760, Note_on_c, 0, 79, 47
2, 98880, Note_off_c, 0, 79, 0
2, 98880, Note_on_c, 0, 80, 47
2, 99000, Note_off_c, 0, 80, 0
2, 99000, Note_on_c, 0, 76, 48
2, 99120, Note_off_c, 0, 76, 0
2, 99120, Note_on_c, 0, 77, 48
2, 99480, Note_off_c, 0, 77, 0
2, 99480, Note_on_c, 0, 77, 49
2, 99600, Note_off_c, 0, 77, 0
2, 99600, Note_on_c, 0, 89, 54
2, 99678, Note_off_c, 0, 89, 0
2, 99720, Note_on_c, 0, 89, 58
2, 99798, Note_off_c, 0, 89, 0
2, 99840, Note_on_c, 0, 89, 63
2, 100200, Note_off_c, 0, 89, 0
2, 100200, Note_on_c, 0, 87, 54
2, 100320, Note_off_c, 0, 87, 0
2, 100320, Note_on_c, 0, 86, 52
2, 100440, Note_off_c, 0, 86, 0
2, 100440, Note_on_c, 0, 84, 50
2, 100560, Note_off_c, 0, 84, 0
2, 100560, Note_on_c, 0, 82, 48
2, 100680, Note_off_c, 0, 82, 0
2, 100680, Note_on_c, 0, 80, 47
2, 100800, Note_off_c, 0, 80, 0
2, 100800, Note_on_c, 0, 79, 45
2, 101160, Note_off_c, 0, 79, 0
2, 101160, Note_on_c, 0, 77, 47
2, 101280, Note_off_c, 0, 77, 0
2, 101280, Note_on_c, 0, 75, 49
2, 101400, Note_off_c, 0, 75, 0
2, 101400, Note_on_c, 0, 74, 50
2, 101520, Note_off_c, 0, 74, 0
2, 101520, Note_on_c, 0, 72, 51
2, 101640, Note_off_c, 0, 72, 0
2, 101640, Note_on_c, 0, 70, 53
2, 101760, Note_off_c, 0, 70, 0
2, 101760, Note_on_c, 0, 69, 54
2, 102120, Note_off_c, 0, 69, 0
2, 102120, Note_on_c, 0, 67, 58
2, 102240, Note_off_c, 0, 67, 0
2, 102240, Note_on_c, 0, 66, 59
2, 102360, Note_off_c, 0, 66, 0
2, 102360, Note_on_c, 0, 63, 61
2, 102480, Note_off_c, 0, 63, 0
2, 102480, Note_on_c, 0, 62, 62
2, 102600, Note_off_c, 0, 62, 0
2, 102600, Note_on_c, 0, 60, 63
2, 102720, Note_off_c, 0, 60, 0
2, 102720, Note_on_c, 0, 58, 65
2, 103080, Note_off_c, 0, 58, 0
2, 103080, Note_on_c, 0, 57, 68
2, 103200, Note_off_c, 0, 57, 0
2, 103200, Note_on_c, 0, 55, 71
2, 103320, Note_off_c, 0, 55, 0
2, 103320, Note_on_c, 0, 57, 73
2, 103440, Note_off_c, 0, 57, 0
2, 103440, Note_on_c, 0, 58, 75
2, 103560, Note_off_c, 0, 58, 0
2, 103560, Note_on_c, 0, 61, 78
2, 103680, Note_off_c, 0, 61, 0
2, 103740, Note_on_c, 0, 62, 75
2, 103800, Note_off_c, 0, 62, 0
2, 103800, Note_on_c, 0, 64, 74
2, 103860, Note_off_c, 0, 64, 0
2, 103860, Note_on_c, 0, 66, 74
2, 103920, Note_off_c, 0, 66, 0
2, 103920, Note_on_c, 0, 67, 74
2, 103980, Note_off_c, 0, 67, 0
2, 103980, Note_on_c, 0, 69, 73
2, 104040, Note_off_c, 0, 69, 0
2, 104040, Note_on_c, 0, 71, 73
2, 104100, Note_off_c, 0, 71, 0
2, 104100, Note_on_c, 0, 73, 73
2, 104160, Note_off_c, 0, 73, 0
2, 104160, Note_on_c, 0, 74, 72
2, 104220, Note_off_c, 0, 74, 0
2, 104220, Note_on_c, 0, 76, 72
2, 104280, Note_off_c, 0, 76, 0
2, 104280, Note_on_c, 0, 78, 72
2, 104340, Note_off_c, 0, 78, 0
2, 104340, Note_on_c, 0, 79, 71
2, 104400, Note_off_c, 0, 79, 0
2, 104400, Note_on_c, 0, 81, 71
2, 104460, Note_off_c, 0, 81, 0
2, 104460, Note_on_c, 0, 74, 71
2, 104520, Note_off_c, 0, 74, 0
2, 104520, Note_on_c, 0, 76, 70
2, 104580, Note_off_c, 0, 76, 0
2, 104580, Note_on_c, 0, 78, 70
2, 104640, Note_off_c, 0, 78, 0
2, 104640, Note_on_c, 0, 79, 70
2, 104700, Note_off_c, 0, 79, 0
2, 104700, Note_on_c, 0, 81, 69
2, 104760, Note_off_c, 0, 81, 0
2, 104760, Note_on_c, 0, 82, 69
2, 104820, Note_off_c, 0, 82, 0
2, 104820, Note_on_c, 0, 84, 69
2, 104880, Note_off_c, 0, 84, 0
2, 104880, Note_on_c, 0, 86, 68
2, 104940, Note_off_c, 0, 86, 0
2, 104940, Note_on_c, 0, 87, 68
2, 105000, Note_off_c, 0, 87, 0
2, 105000, Note_on_c, 0, 86, 67
2, 105060, Note_off_c, 0, 86, 0
2, 105060, Note_on_c, 0, 84, 67
2, 105120, Note_off_c, 0, 84, 0
2, 105120, Note_on_c, 0, 82, 67
2, 105180, Note_off_c, 0, 82, 0
2, 105180, Note_on_c, 0, 84, 66
2, 105240, Note_off_c, 0, 84, 0
2, 105240, Note_on_c, 0, 82, 66
2, 105300, Note_off_c, 0, 82, 0
2, 105300, Note_on_c, 0, 81, 66
2, 105360, Note_off_c, 0, 81, 0
2, 105360, Note_on_c, 0, 79, 65
2, 105420, Note_off_c, 0, 79, 0
2, 105420, Note_on_c, 0, 82, 65
2, 105480, Note_off_c, 0, 82, 0
2, 105480, Note_on_c, 0, 81, 65
2, 105540, Note_off_c, 0, 81, 0
2, 105540, Note_on_c, 0, 79, 64
2, 105600, Note_off_c, 0, 79, 0
2, 105600, Note_on_c, 0, 78, 64
2, 105660, Note_off_c, 0, 78, 0
2, 105660, Note_on_c, 0, 62, 64
2, 105720, Note_off_c, 0, 62, 0
2, 105720, Note_on_c, 0, 64, 63
2, 105780, Note_off_c, 0, 64, 0
2, 105780, Note_on_c, 0, 66, 63
2, 105840, Note_off_c, 0, 66, 0
2, 105840, Note_on_c, 0, 67, 63
2, 105900, Note_off_c, 0, 67, 0
2, 105900, Note_on_c, 0, 69, 62
2, 105960, Note_off_c, 0, 69, 0
2, 105960, Note_on_c, 0, 71, 62
2, 106020, Note_off_c, 0, 71, 0
2, 106020, Note_on_c, 0, 73, 62
2, 106080, Note_off_c, 0, 73, 0
2, 106080, Note_on_c, 0, 74, 61
2, 106140, Note_off_c, 0, 74, 0
2, 106140, Note_on_c, 0, 76, 61
2, 106200, Note_off_c, 0, 76, 0
2, 106200, Note_on_c, 0, 78, 60
2, 106260, Note_off_c, 0, 78, 0
2, 106260, Note_on_c, 0, 79, 60
2, 106320, Note_off_c, 0, 79, 0
2, 106320, Note_on_c, 0, 81, 60
2, 106380, Note_off_c, 0, 81, 0
2, 106380, Note_on_c, 0, 74, 59
2, 106440, Note_off_c, 0, 74, 0
2, 106440, Note_on_c, 0, 76, 59
2, 106500, Note_off_c, 0, 76, 0
2, 106500, Note_on_c, 0, 78, 59
2, 106560, Note_off_c, 0, 78, 0
2, 106560, Note_on_c, 0, 79, 58
2, 106620, Note_off_c, 0, 79, 0
2, 106620, Note_on_c, 0, 81, 58
2, 106680, Note_off_c, 0, 81, 0
2, 106680, Note_on_c, 0, 83, 58
2, 106740, Note_off_c, 0, 83, 0
2, 106740, Note_on_c, 0, 85, 57
2, 106800, Note_off_c, 0, 85, 0
2, 106800, Note_on_c, 0, 86, 57
2, 106860, Note_off_c, 0, 86, 0
2, 106860, Note_on_c, 0, 87, 57
2, 106920, Note_off_c, 0, 87, 0
2, 106920, Note_on_c, 0, 86, 56
2, 106980, Note_off_c, 0, 86, 0
2, 106980, Note_on_c, 0, 84, 56
2, 107040, Note_off_c, 0, 84, 0
2, 107040, Note_on_c, 0, 82, 56
2, 107100, Note_off_c, 0, 82, 0
2, 107100, Note_on_c, 0, 84, 55
2, 107160, Note_off_c, 0, 84, 0
2, 107160, Note_on_c, 0, 82, 55
2, 107220, Note_off_c, 0, 82, 0
2, 107220, Note_on_c, 0, 81, 55
2, 107280, Note_off_c, 0, 81, 0
2, 107280, Note_on_c, 0, 79, 54
2, 107340, Note_off_c, 0, 79, 0
2, 107340, Note_on_c, 0, 82, 54
2, 107400, Note_off_c, 0, 82, 0
2, 107400, Note_on_c, 0, 81, 53
2, 107460, Note_off_c, 0, 81, 0
2, 107460, Note_on_c, 0, 79, 53
2, 107520, Note_off_c, 0, 79, 0
2, 107520, Note_on_c, 0, 78, 53
2, 107580, Note_off_c, 0, 78, 0
2, 107580, Note_on_c, 0, 62, 52
2, 107640, Note_off_c, 0, 62, 0
2, 107640, Note_on_c, 0, 64, 52
2, 107700, Note_off_c, 0, 64, 0
2, 107700, Note_on_c, 0, 66, 52
2, 107760, Note_off_c, 0, 66, 0
2, 107760, Note_on_c, 0, 67, 51
2, 107820, Note_off_c, 0, 67, 0
2, 107820, Note_on_c, 0, 69, 51
2, 107880, Note_off_c, 0, 69, 0
2, 107880, Note_on_c, 0, 71, 51
2, 107940, Note_off_c, 0, 71, 0
2, 107940, Note_on_c, 0, 73, 50
2, 108000, Note_off_c, 0, 73, 0
2, 108000, Note_on_c, 0, 74, 50
2, 108060, Note_off_c, 0, 74, 0
2, 108060, Note_on_c, 0, 76, 50
2, 108120, Note_off_c, 0, 76, 0
2, 108120, Note_on_c, 0, 78, 49
2, 108180, Note_off_c, 0, 78, 0
2, 108180, Note_on_c, 0, 79, 49
2, 108240, Note_off_c, 0, 79, 0
2, 108240, Note_on_c, 0, 81, 49
2, 108300, Note_off_c, 0, 81, 0
2, 108300, Note_on_c, 0, 74, 48
2, 108360, Note_off_c, 0, 74, 0
2, 108360, Note_on_c, 0, 76, 48
2, 108420, Note_off_c, 0, 76, 0
2, 108420, Note_on_c, 0, 78, 48
2, 108480, Note_off_c, 0, 78, 0
2, 108480, Note_on_c, 0, 79, 47
2, 108540, Note_off_c, 0, 79, 0
2, 108540, Note_on_c, 0, 81, 47
2, 108600, Note_off_c, 0, 81, 0
2, 108600, Note_on_c, 0, 82, 46
2, 108660, Note_off_c, 0, 82, 0
2, 108660, Note_on_c, 0, 84, 46
2, 108720, Note_off_c, 0, 84, 0
2, 108720, Note_on_c, 0, 86, 46
2, 108780, Note_off_c, 0, 86, 0
2, 108780, Note_on_c, 0, 87, 45
2, 108840, Note_off_c, 0, 87, 0
2, 108840, Note_on_c, 0, 86, 45
2, 108900, Note_off_c, 0, 86, 0
2, 108900, Note_on_c, 0, 84, 45
2, 108960, Note_off_c, 0, 84, 0
2, 108960, Note_on_c, 0, 82, 44
2, 109020, Note_off_c, 0, 82, 0
2, 109020, Note_on_c, 0, 84, 44
2, 109080, Note_off_c, 0, 84, 0
2, 109080, Note_on_c, 0, 82, 44
2, 109140, Note_off_c, 0, 82, 0
2, 109140, Note_on_c, 0, 81, 43
2, 109200, Note_off_c, 0, 81, 0
2, 109200, Note_on_c, 0, 79, 43
2, 109260, Note_off_c, 0, 79, 0
2, 109260, Note_on_c, 0, 82, 43
2, 109320, Note_off_c, 0, 82, 0
2, 109320, Note_on_c, 0, 81, 42
2, 109380, Note_off_c, 0, 81, 0
2, 109380, Note_on_c, 0, 79, 42
2, 109440, Note_off_c, 0, 79, 0
2, 109440, Note_on_c, 0, 78, 42
2, 109500, Note_off_c, 0, 78, 0
2, 109500, Note_on_c, 0, 81, 41
2, 109560, Note_off_c, 0, 81, 0
2, 109560, Note_on_c, 0, 79, 41
2, 109620, Note_off_c, 0, 79, 0
2, 109620, Note_on_c, 0, 78, 41
2, 109680, Note_off_c, 0, 78, 0
2, 109680, Note_on_c, 0, 79, 40
2, 109740, Note_off_c, 0, 79, 0
2, 109740, Note_on_c, 0, 82, 40
2, 109800, Note_off_c, 0, 82, 0
2, 109800, Note_on_c, 0, 81, 39
2, 109860, Note_off_c, 0, 81, 0
2, 109860, Note_on_c, 0, 79, 39
2, 109920, Note_off_c, 0, 79, 0
2, 109920, Note_on_c, 0, 78, 39
2, 109980, Note_off_c, 0, 78, 0
2, 109980, Note_on_c, 0, 81, 38
2, 110040, Note_off_c, 0, 81, 0
2, 110040, Note_on_c, 0, 79, 38
2, 110100, Note_off_c, 0, 79, 0
2, 110100, Note_on_c, 0, 78, 38
2, 110160, Note_off_c, 0, 78, 0
2, 110160, Note_on_c, 0, 79, 37
2, 110220, Note_off_c, 0, 79, 0
2, 110220, Note_on_c, 0, 82, 37
2, 110280, Note_off_c, 0, 82, 0
2, 110280, Note_on_c, 0, 81, 37
2, 110340, Note_off_c, 0, 81, 0
2, 110340, Note_on_c, 0, 79, 36
2, 110400, Note_off_c, 0, 79, 0
2, 110400, Note_on_c, 0, 78, 36
2, 110460, Note_off_c, 0, 78, 0
2, 110460, Note_on_c, 0, 81, 36
2, 110520, Note_off_c, 0, 81, 0
2, 110520, Note_on_c, 0, 79, 35
2, 110580, Note_off_c, 0, 79, 0
2, 110580, Note_on_c, 0, 78, 35
2, 110640, Note_off_c, 0, 78, 0
2, 110640, Note_on_c, 0, 79, 35
2, 110700, Note_off_c, 0, 79, 0
2, 110700, Note_on_c, 0, 82, 34
2, 110760, Note_off_c, 0, 82, 0
2, 110760, Note_on_c, 0, 81, 34
2, 110820, Note_off_c, 0, 81, 0
2, 110820, Note_on_c, 0, 79, 34
2, 110880, Note_off_c, 0, 79, 0
2, 110880, Note_on_c, 0, 78, 33
2, 110940, Note_off_c, 0, 78, 0
2, 110940, Note_on_c, 0, 81, 33
2, 111000, Note_off_c, 0, 81, 0
2, 111000, Note_on_c, 0, 79, 32
2, 111060, Note_off_c, 0, 79, 0
2, 111060, Note_on_c, 0, 78, 32
2, 111120, Note_off_c, 0, 78, 0
2, 111120, Note_on_c, 0, 79, 32
2, 111180, Note_off_c, 0, 79, 0
2, 111180, Note_on_c, 0, 82, 31
2, 111240, Note_off_c, 0, 82, 0
2, 111240, Note_on_c, 0, 81, 31
2, 111300, Note_off_c, 0, 81, 0
2, 111300, Note_on_c, 0, 79, 31
2, 111360, Note_off_c, 0, 79, 0
2, 111360, Note_on_c, 0, 78, 30
2, 111540, Note_off_c, 0, 78, 0
2, 111840, Control_c, 0, 10, 55
2, 111960, Note_on_c, 0, 56, 32
2, 112080, Note_off_c, 0, 56, 0
2, 112080, Note_on_c, 0, 57, 33
2, 112200, Note_off_c, 0, 57, 0
2, 112200, Note_on_c, 0, 53, 33
2, 112320, Note_off_c, 0, 53, 0
2, 112320, Note_on_c, 0, 54, 34
2, 112500, Note_off_c, 0, 54, 0
2, 112800, Control_c, 0, 10, 73
2, 112920, Note_on_c, 0, 80, 37
2, 113040, Note_off_c, 0, 80, 0
2, 113040, Note_on_c, 0, 81, 38
2, 113160, Note_off_c, 0, 81, 0
2, 113160, Note_on_c, 0, 77, 39
2, 113280, Note_off_c, 0, 77, 0
2, 113280, Note_on_c, 0, 78, 40
2, 113460, Note_off_c, 0, 78, 0
2, 113760, Control_c, 0, 10, 55
2, 113880, Note_on_c, 0, 59, 43
2, 114000, Note_off_c, 0, 59, 0
2, 114000, Note_on_c, 0, 60, 44
2, 114120, Note_off_c, 0, 60, 0
2, 114120, Note_on_c, 0, 56, 45
2, 114240, Note_off_c, 0, 56, 0
2, 114240, Note_on_c, 0, 57, 45
2, 114420, Note_off_c, 0, 57, 0
2, 114720, Control_c, 0, 10, 73
2, 114840, Note_on_c, 0, 83, 54
2, 114960, Note_off_c, 0, 83, 0
2, 114960, Note_on_c, 0, 84, 55
2, 115080, Note_off_c, 0, 84, 0
2, 115080, Note_on_c, 0, 80, 56
2, 115200, Note_off_c, 0, 80, 0
2, 115200, Note_on_c, 0, 81, 58
2, 115320, Control_c, 0, 10, 55
2, 115320, Note_on_c, 0, 59, 59
2, 115380, Note_off_c, 0, 81, 0
2, 115440, Note_off_c, 0, 59, 0
2, 115440, Note_on_c, 0, 60, 60
2, 115560, Note_off_c, 0, 60, 0
2, 115560, Note_on_c, 0, 56, 62
2, 115680, Note_off_c, 0, 56, 0
2, 115680, Note_on_c, 0, 57, 63
2, 115800, Control_c, 0, 10, 73
2, 115800, Note_on_c, 0, 83, 65
2, 115860, Note_off_c, 0, 57, 0
2, 115920, Note_off_c, 0, 83, 0
2, 115920, Note_on_c, 0, 84, 66
2, 116040, Note_off_c, 0, 84, 0
2, 116040, Note_on_c, 0, 80, 67
2, 116160, Note_off_c, 0, 80, 0
2, 116160, Note_on_c, 0, 81, 69
2, 116280, Control_c, 0, 10, 55
2, 116280, Note_on_c, 0, 59, 70
2, 116340, Note_off_c, 0, 81, 0
2, 116400, Note_off_c, 0, 59, 0
2, 116400, Note_on_c, 0, 60, 71
2, 116520, Note_off_c, 0, 60, 0
2, 116520, Note_on_c, 0, 56, 73
2, 116640, Note_off_c, 0, 56, 0
2, 116640, Note_on_c, 0, 57, 74
2, 116760, Control_c, 0, 10, 73
2, 116760, Note_on_c, 0, 83, 76
2, 116820, Note_off_c, 0, 57, 0
2, 116880, Note_off_c, 0, 83, 0
2, 116880, Note_on_c, 0, 84, 77
2, 117000, Note_off_c, 0, 84, 0
2, 117000, Note_on_c, 0, 80, 78
2, 117120, Note_off_c, 0, 80, 0
2, 117120, Note_on_c, 0, 81, 80
2, 117240, Note_off_c, 0, 81, 0
2, 117240, Note_on_c, 0, 87, 81
2, 117360, Note_off_c, 0, 87, 0
2, 117360, Note_on_c, 0, 88, 83
2, 117480, Note_off_c, 0, 88, 0
2, 117480, Note_on_c, 0, 83, 84
2, 117600, Note_off_c, 0, 83, 0
2, 117600, Note_on_c, 0, 84, 85
2, 117720, Note_off_c, 0, 84, 0
2, 117720, Note_on_c, 0, 87, 87
2, 117840, Note_off_c, 0, 87, 0
2, 117840, Note_on_c, 0, 88, 88
2, 117960, Note_off_c, 0, 88, 0
2, 117960, Note_on_c, 0, 83, 89
2, 118080, Note_off_c, 0, 83, 0
2, 118080, Note_on_c, 0, 84, 91
2, 118200, Note_off_c, 0, 84, 0
2, 118200, Note_on_c, 0, 87, 93
2, 118320, Note_off_c, 0, 87, 0
2, 118320, Note_on_c, 0, 88, 92
2, 118380, Note_off_c, 0, 88, 0
2, 118440, Note_on_c, 0, 83, 91
2, 118560, Note_off_c, 0, 83, 0
2, 118560, Note_on_c, 0, 84, 90
2, 118623, Note_off_c, 0, 84, 0
2, 118680, Note_on_c, 0, 80, 89
2, 118800, Note_off_c, 0, 80, 0
2, 118800, Note_on_c, 0, 81, 88
2, 118863, Note_off_c, 0, 81, 0
2, 118920, Note_on_c, 0, 77, 87
2, 119040, Note_off_c, 0, 77, 0
2, 119040, Note_on_c, 0, 78, 86
2, 119103, Note_off_c, 0, 78, 0
2, 119160, Note_on_c, 0, 75, 85
2, 119280, Note_off_c, 0, 75, 0
2, 119280, Note_on_c, 0, 76, 85
2, 119343, Note_off_c, 0, 76, 0
2, 119400, Note_on_c, 0, 71, 84
2, 119520, Note_off_c, 0, 71, 0
2, 119520, Note_on_c, 0, 72, 83
2, 119580, Note_off_c, 0, 72, 0
2, 119640, Note_on_c, 0, 68, 82
2, 119760, Note_off_c, 0, 68, 0
2, 119760, Note_on_c, 0, 69, 81
2, 119820, Note_off_c, 0, 69, 0
2, 119880, Note_on_c, 0, 70, 80
2, 119958, Note_off_c, 0, 70, 0
2, 120000, Note_on_c, 0, 71, 79
2, 120078, Note_off_c, 0, 71, 0
2, 120120, Note_on_c, 0, 72, 78
2, 120198, Note_off_c, 0, 72, 0
2, 120240, Control_c, 0, 64, 127
2, 120240, Note_on_c, 0, 73, 82
2, 120474, Note_off_c, 0, 73, 0
2, 121440, Control_c, 0, 64, 0
2, 121560, Note_on_c, 0, 62, 36
2, 121680, Note_off_c, 0, 62, 0
2, 121680, Note_on_c, 0, 74, 36
2, 121800, Note_off_c, 0, 74, 0
2, 121800, Note_on_c, 0, 70, 37
2, 121920, Note_off_c, 0, 70, 0
2, 121920, Note_on_c, 0, 71, 37
2, 122040, Note_off_c, 0, 71, 0
2, 122040, Note_on_c, 0, 66, 38
2, 122160, Note_off_c, 0, 66, 0
2, 122160, Note_on_c, 0, 67, 39
2, 122520, Note_off_c, 0, 67, 0
2, 122520, Note_on_c, 0, 62, 40
2, 122640, Note_off_c, 0, 62, 0
2, 122640, Note_on_c, 0, 74, 41
2, 122760, Note_off_c, 0, 74, 0
2, 122760, Note_on_c, 0, 70, 42
2, 122880, Note_off_c, 0, 70, 0
2, 122880, Note_on_c, 0, 71, 42
2, 123000, Note_off_c, 0, 71, 0
2, 123000, Note_on_c, 0, 66, 43
2, 123120, Note_off_c, 0, 66, 0
2, 123120, Note_on_c, 0, 67, 43
2, 123480, Note_off_c, 0, 67, 0
2, 123480, Note_on_c, 0, 64, 45
2, 123600, Note_off_c, 0, 64, 0
2, 123600, Note_on_c, 0, 76, 46
2, 123720, Note_off_c, 0, 76, 0
2, 123720, Note_on_c, 0, 71, 47
2, 123840, Note_off_c, 0, 71, 0
2, 123840, Note_on_c, 0, 72, 47
2, 123960, Note_off_c, 0, 72, 0
2, 123960, Note_on_c, 0, 68, 48
2, 124080, Note_off_c, 0, 68, 0
2, 124080, Note_on_c, 0, 69, 48
2, 124440, Note_off_c, 0, 69, 0
2, 124440, Note_on_c, 0, 64, 50
2, 124560, Note_off_c, 0, 64, 0
2, 124560, Note_on_c, 0, 76, 51
2, 124680, Note_off_c, 0, 76, 0
2, 124680, Note_on_c, 0, 71, 52
2, 124800, Note_off_c, 0, 71, 0
2, 124800, Note_on_c, 0, 72, 52
2, 124920, Note_off_c, 0, 72, 0
2, 124920, Note_on_c, 0, 68, 53
2, 125040, Note_off_c, 0, 68, 0
2, 125040, Note_on_c, 0, 69, 53
2, 125400, Note_off_c, 0, 69, 0
2, 125400, Note_on_c, 0, 69, 55
2, 125520, Note_off_c, 0, 69, 0
2, 125520, Note_on_c, 0, 84, 60
2, 125598, Note_off_c, 0, 84, 0
2, 125640, Note_on_c, 0, 83, 63
2, 125718, Note_off_c, 0, 83, 0
2, 125760, Note_on_c, 0, 81, 66
2, 126120, Note_off_c, 0, 81, 0
2, 126120, Note_on_c, 0, 79, 59
2, 126240, Note_off_c, 0, 79, 0
2, 126240, Note_on_c, 0, 78, 58
2, 126360, Note_off_c, 0, 78, 0
2, 126360, Note_on_c, 0, 76, 57
2, 126480, Note_off_c, 0, 76, 0
2, 126480, Note_on_c, 0, 74, 56
2, 126600, Note_off_c, 0, 74, 0
2, 126600, Note_on_c, 0, 72, 55
2, 126720, Note_off_c, 0, 72, 0
2, 126720, Note_on_c, 0, 74, 59
2, 126780, Note_off_c, 0, 74, 0
2, 126780, Note_on_c, 0, 72, 53
2, 126840, Note_off_c, 0, 72, 0
2, 126840, Note_on_c, 0, 71, 53
2, 127080, Note_off_c, 0, 71, 0
2, 127080, Note_on_c, 0, 79, 51
2, 127200, Note_off_c, 0, 79, 0
2, 127200, Note_on_c, 0, 79, 50
2, 127320, Note_off_c, 0, 79, 0
2, 127320, Note_on_c, 0, 69, 49
2, 127560, Note_off_c, 0, 69, 0
2, 127560, Note_on_c, 0, 76, 47
2, 127680, Note_off_c, 0, 76, 0
2, 127680, Note_on_c, 0, 76, 46
2, 127800, Note_off_c, 0, 76, 0
2, 127800, Note_on_c, 0, 67, 45
2, 128040, Note_off_c, 0, 67, 0
2, 128040, Note_on_c, 0, 74, 43
2, 128160, Note_off_c, 0, 74, 0
2, 128160, Note_on_c, 0, 74, 42
2, 128280, Note_off_c, 0, 74, 0
2, 128280, Note_on_c, 0, 60, 41
2, 128520, Note_off_c, 0, 60, 0
2, 128520, Note_on_c, 0, 66, 39
2, 128640, Note_off_c, 0, 66, 0
2, 128640, Note_on_c, 0, 67, 38
2, 129120, Note_off_c, 0, 67, 0
2, 129360, Note_on_c, 0, 74, 38
2, 129552, Note_off_c, 0, 74, 0
2, 129600, Note_on_c, 0, 74, 40
2, 129792, Note_off_c, 0, 74, 0
2, 129840, Note_on_c, 0, 74, 42
2, 130032, Note_off_c, 0, 74, 0
2, 130080, Note_on_c, 0, 74, 44
2, 130272, Note_off_c, 0, 74, 0
2, 130320, Note_on_c, 0, 74, 48
2, 130360, Note_off_c, 0, 74, 0
2, 130360, Note_on_c, 0, 76, 49
2, 130400, Note_off_c, 0, 76, 0
2, 130400, Note_on_c, 0, 74, 49
2, 130440, Note_off_c, 0, 74, 0
2, 130440, Note_on_c, 0, 73, 50
2, 130500, Note_off_c, 0, 73, 0
2, 130500, Note_on_c, 0, 74, 51
2, 130560, Note_off_c, 0, 74, 0
2, 130560, Note_on_c, 0, 76, 56
2, 131040, Note_off_c, 0, 76, 0
2, 131040, Note_on_c, 0, 74, 45
2, 131280, Note_off_c, 0, 74, 0
2, 131880, Note_on_c, 0, 74, 44
2, 131976, Note_off_c, 0, 74, 0
2, 132000, Note_on_c, 0, 74, 46
2, 132096, Note_off_c, 0, 74, 0
2, 132120, Note_on_c, 0, 74, 47
2, 132216, Note_off_c, 0, 74, 0
2, 132240, Note_on_c, 0, 74, 49
2, 132336, Note_off_c, 0, 74, 0
2, 132360, Note_on_c, 0, 74, 51
2, 132456, Note_off_c, 0, 74, 0
2, 132480, Note_on_c, 0, 76, 59
2, 132960, Note_off_c, 0, 76, 0
2, 132960, Note_on_c, 0, 74, 49
2, 133200, Note_off_c, 0, 74, 0
2, 133680, Note_on_c, 0, 79, 32
2, 133872, Note_off_c, 0, 79, 0
2, 133920, Note_on_c, 0, 79, 35
2, 134112, Note_off_c, 0, 79, 0
2, 134160, Note_on_c, 0, 79, 37
2, 134200, Note_off_c, 0, 79, 0
2, 134200, Note_on_c, 0, 81, 38
2, 134240, Note_off_c, 0, 81, 0
2, 134240, Note_on_c, 0, 79, 38
2, 134280, Note_off_c, 0, 79, 0
2, 134280, Note_on_c, 0, 78, 39
2, 134340, Note_off_c, 0, 78, 0
2, 134340, Note_on_c, 0, 79, 39
2, 134400, Note_off_c, 0, 79, 0
2, 134400, Note_on_c, 0, 81, 47
2, 134880, Note_off_c, 0, 81, 0
2, 134880, Note_on_c, 0, 79, 35
2, 135120, Note_off_c, 0, 79, 0
2, 135720, Note_on_c, 0, 79, 42
2, 135816, Note_off_c, 0, 79, 0
2, 135840, Note_on_c, 0, 79, 43
2, 135936, Note_off_c, 0, 79, 0
2, 135960, Note_on_c, 0, 79, 43
2, 136056, Note_off_c, 0, 79, 0
2, 136080, Note_on_c, 0, 79, 44
2, 136176, Note_off_c, 0, 79, 0
2, 136200, Note_on_c, 0, 79, 45
2, 136296, Note_off_c, 0, 79, 0
2, 136320, Control_c, 0, 64, 0
2, 136320, Note_on_c, 0, 81, 52
2, 136560, Note_off_c, 0, 81, 0
2, 136560, Note_on_c, 0, 79, 46
2, 136920, Note_off_c, 0, 79, 0
2, 136920, Note_on_c, 0, 81, 48
2, 136980, Note_off_c, 0, 81, 0
2, 136980, Note_on_c, 0, 79, 48
2, 137040, Note_off_c, 0, 79, 0
2, 137040, Note_on_c, 0, 77, 49
2, 137118, Note_off_c, 0, 77, 0
2, 137160, Note_on_c, 0, 76, 49
2, 137238, Note_off_c, 0, 76, 0
2, 137280, Note_on_c, 0, 76, 53
2, 137520, Note_off_c, 0, 76, 0
2, 137520, Note_on_c, 0, 74, 49
2, 138000, Note_off_c, 0, 74, 0
2, 138000, Note_on_c, 0, 72, 54
2, 138240, Note_off_c, 0, 72, 0
2, 138240, Note_on_c, 0, 71, 51
2, 138280, Note_off_c, 0, 71, 0
2, 138280, Note_on_c, 0, 72, 52
2, 138320, Note_off_c, 0, 72, 0
2, 138320, Note_on_c, 0, 74, 53
2, 138360, Note_off_c, 0, 74, 0
2, 138360, Note_on_c, 0, 72, 54
2, 138480, Note_on_c, 0, 71, 53
2, 138487, Note_off_c, 0, 72, 0
2, 138960, Note_off_c, 0, 71, 0
2, 138960, Note_on_c, 0, 79, 60
2, 139200, Note_off_c, 0, 79, 0
2, 139200, Note_on_c, 0, 79, 61
2, 139440, Note_off_c, 0, 79, 0
2, 139440, Note_on_c, 0, 78, 56
2, 139920, Note_off_c, 0, 78, 0
2, 139920, Note_on_c, 0, 76, 65
2, 140160, Note_off_c, 0, 76, 0
2, 140160, Note_on_c, 0, 74, 59
2, 140200, Note_off_c, 0, 74, 0
2, 140200, Note_on_c, 0, 76, 60
2, 140240, Note_off_c, 0, 76, 0
2, 140240, Note_on_c, 0, 78, 61
2, 140280, Note_off_c, 0, 78, 0
2, 140280, Note_on_c, 0, 76, 65
2, 140400, Note_on_c, 0, 74, 63
2, 140422, Note_off_c, 0, 76, 0
2, 140880, Note_on_c, 0, 83, 70
2, 140887, Note_off_c, 0, 74, 0
2, 141120, Note_off_c, 0, 83, 0
2, 141120, Note_on_c, 0, 83, 73
2, 141360, Note_off_c, 0, 83, 0
2, 141360, Note_on_c, 0, 81, 69
2, 141840, Note_off_c, 0, 81, 0
2, 141840, Note_on_c, 0, 79, 73
2, 142080, Note_off_c, 0, 79, 0
2, 142080, Note_on_c, 0, 79, 74
2, 142320, Note_off_c, 0, 79, 0
2, 142320, Note_on_c, 0, 78, 72
2, 142800, Note_off_c, 0, 78, 0
2, 142800, Note_on_c, 0, 76, 69
2, 143040, Note_off_c, 0, 76, 0
2, 143040, Note_on_c, 0, 76, 67
2, 143280, Note_off_c, 0, 76, 0
2, 143280, Note_on_c, 0, 74, 65
2, 143520, Note_off_c, 0, 74, 0
2, 143600, Note_on_c, 0, 79, 58
2, 143680, Note_off_c, 0, 79, 0
2, 143680, Note_on_c, 0, 81, 59
2, 143760, Note_off_c, 0, 81, 0
2, 143760, Note_on_c, 0, 83, 59
2, 143840, Note_off_c, 0, 83, 0
2, 143840, Note_on_c, 0, 81, 60
2, 143920, Note_off_c, 0, 81, 0
2, 143920, Note_on_c, 0, 79, 61
2, 144000, Note_off_c, 0, 79, 0
2, 144000, Note_on_c, 0, 79, 64
2, 144240, Note_off_c, 0, 79, 0
2, 144240, Note_on_c, 0, 78, 58
2, 144480, Note_off_c, 0, 78, 0
2, 144560, Note_on_c, 0, 76, 52
2, 144640, Note_off_c, 0, 76, 0
2, 144640, Note_on_c, 0, 78, 53
2, 144720, Note_off_c, 0, 78, 0
2, 144720, Note_on_c, 0, 79, 54
2, 144800, Note_off_c, 0, 79, 0
2, 144800, Note_on_c, 0, 78, 55
2, 144880, Note_off_c, 0, 78, 0
2, 144880, Note_on_c, 0, 76, 55
2, 144960, Note_off_c, 0, 76, 0
2, 144960, Note_on_c, 0, 76, 58
2, 145200, Note_off_c, 0, 76, 0
2, 145200, Note_on_c, 0, 74, 51
2, 145440, Note_off_c, 0, 74, 0
2, 145520, Note_on_c, 0, 79, 45
2, 145600, Note_off_c, 0, 79, 0
2, 145600, Note_on_c, 0, 81, 46
2, 145680, Note_off_c, 0, 81, 0
2, 145680, Note_on_c, 0, 83, 47
2, 145760, Note_off_c, 0, 83, 0
2, 145760, Note_on_c, 0, 81, 48
2, 145840, Note_off_c, 0, 81, 0
2, 145840, Note_on_c, 0, 79, 48
2, 145920, Note_off_c, 0, 79, 0
2, 145920, Note_on_c, 0, 79, 51
2, 146000, Note_off_c, 0, 79, 0
2, 146000, Note_on_c, 0, 78, 50
2, 146080, Note_off_c, 0, 78, 0
2, 146080, Note_on_c, 0, 79, 49
2, 146160, Note_off_c, 0, 79, 0
2, 146160, Note_on_c, 0, 81, 48
2, 146240, Note_off_c, 0, 81, 0
2, 146240, Note_on_c, 0, 79, 47
2, 146320, Note_off_c, 0, 79, 0
2, 146320, Note_on_c, 0, 78, 46
2, 146400, Note_off_c, 0, 78, 0
2, 146400, Note_on_c, 0, 78, 45
2, 146480, Note_off_c, 0, 78, 0
2, 146480, Note_on_c, 0, 76, 44
2, 146560, Note_off_c, 0, 76, 0
2, 146560, Note_on_c, 0, 78, 43
2, 146640, Note_off_c, 0, 78, 0
2, 146640, Note_on_c, 0, 79, 42
2, 146720, Note_off_c, 0, 79, 0
2, 146720, Note_on_c, 0, 78, 41
2, 146800, Note_off_c, 0, 78, 0
2, 146800, Note_on_c, 0, 76, 40
2, 146880, Note_off_c, 0, 76, 0
2, 146880, Note_on_c, 0, 76, 40
2, 146960, Note_off_c, 0, 76, 0
2, 146960, Note_on_c, 0, 74, 41
2, 147040, Note_off_c, 0, 74, 0
2, 147040, Note_on_c, 0, 73, 42
2, 147120, Note_off_c, 0, 73, 0
2, 147120, Note_on_c, 0, 74, 43
2, 147200, Note_off_c, 0, 74, 0
2, 147200, Note_on_c, 0, 76, 44
2, 147280, Note_off_c, 0, 76, 0
2, 147280, Note_on_c, 0, 78, 45
2, 147360, Note_off_c, 0, 78, 0
2, 147360, Note_on_c, 0, 79, 46
2, 147440, Note_off_c, 0, 79, 0
2, 147440, Note_on_c, 0, 80, 47
2, 147520, Note_off_c, 0, 80, 0
2, 147520, Note_on_c, 0, 81, 48
2, 147600, Note_off_c, 0, 81, 0
2, 147600, Note_on_c, 0, 82, 49
2, 147660, Note_off_c, 0, 82, 0
2, 147660, Note_on_c, 0, 83, 50
2, 147720, Note_off_c, 0, 83, 0
2, 147720, Note_on_c, 0, 84, 51
2, 147780, Note_off_c, 0, 84, 0
2, 147780, Note_on_c, 0, 85, 51
2, 147840, Note_off_c, 0, 85, 0
2, 147840, Note_on_c, 0, 86, 52
2, 148032, Note_off_c, 0, 86, 0
2, 148080, Note_on_c, 0, 86, 56
2, 148272, Note_off_c, 0, 86, 0
2, 148320, Note_on_c, 0, 86, 60
2, 148512, Note_off_c, 0, 86, 0
2, 148560, Note_on_c, 0, 86, 65
2, 148752, Note_off_c, 0, 86, 0
2, 148800, Note_on_c, 0, 86, 68
2, 149160, Note_off_c, 0, 86, 0
2, 149160, Note_on_c, 0, 85, 65
2, 149256, Note_off_c, 0, 85, 0
2, 149280, Note_on_c, 0, 86, 65
2, 149640, Note_off_c, 0, 86, 0
2, 149640, Note_on_c, 0, 85, 62
2, 149736, Note_off_c, 0, 85, 0
2, 149760, Note_on_c, 0, 86, 62
2, 150120, Note_off_c, 0, 86, 0
2, 150120, Note_on_c, 0, 84, 60
2, 150216, Note_off_c, 0, 84, 0
2, 150240, Note_on_c, 0, 84, 59
2, 150360, Note_off_c, 0, 84, 0
2, 150360, Note_on_c, 0, 83, 58
2, 150456, Note_off_c, 0, 83, 0
2, 150480, Note_on_c, 0, 83, 58
2, 150600, Note_off_c, 0, 83, 0
2, 150600, Note_on_c, 0, 81, 57
2, 150696, Note_off_c, 0, 81, 0
2, 150720, Note_on_c, 0, 81, 56
2, 150840, Note_off_c, 0, 81, 0
2, 150840, Note_on_c, 0, 79, 56
2, 150936, Note_off_c, 0, 79, 0
2, 150960, Note_on_c, 0, 79, 55
2, 151080, Note_off_c, 0, 79, 0
2, 151080, Note_on_c, 0, 78, 54
2, 151176, Note_off_c, 0, 78, 0
2, 151200, Note_on_c, 0, 78, 53
2, 151320, Note_off_c, 0, 78, 0
2, 151320, Note_on_c, 0, 76, 53
2, 151416, Note_off_c, 0, 76, 0
2, 151440, Note_on_c, 0, 76, 52
2, 151560, Note_off_c, 0, 76, 0
2, 151560, Note_on_c, 0, 74, 51
2, 151656, Note_off_c, 0, 74, 0
2, 151680, Note_on_c, 0, 71, 51
2, 152160, Note_off_c, 0, 71, 0
2, 152160, Note_on_c, 0, 72, 44
2, 152400, Note_off_c, 0, 72, 0
2, 152640, Note_on_c, 0, 84, 59
2, 153000, Note_off_c, 0, 84, 0
2, 153000, Note_on_c, 0, 83, 57
2, 153096, Note_off_c, 0, 83, 0
2, 153120, Note_on_c, 0, 84, 57
2, 153480, Note_off_c, 0, 84, 0
2, 153480, Note_on_c, 0, 83, 54
2, 153576, Note_off_c, 0, 83, 0
2, 153600, Note_on_c, 0, 84, 54
2, 153960, Note_off_c, 0, 84, 0
2, 153960, Note_on_c, 0, 83, 52
2, 154056, Note_off_c, 0, 83, 0
2, 154080, Note_on_c, 0, 83, 52
2, 154200, Note_off_c, 0, 83, 0
2, 154200, Note_on_c, 0, 81, 51
2, 154296, Note_off_c, 0, 81, 0
2, 154320, Note_on_c, 0, 81, 50
2, 154440, Note_off_c, 0, 81, 0
2, 154440, Note_on_c, 0, 79, 49
2, 154536, Note_off_c, 0, 79, 0
2, 154560, Note_on_c, 0, 79, 48
2, 154680, Note_off_c, 0, 79, 0
2, 154680, Note_on_c, 0, 78, 47
2, 154776, Note_off_c, 0, 78, 0
2, 154800, Note_on_c, 0, 78, 46
2, 154920, Note_off_c, 0, 78, 0
2, 154920, Note_on_c, 0, 76, 45
2, 155016, Note_off_c, 0, 76, 0
2, 155040, Note_on_c, 0, 76, 44
2, 155160, Note_off_c, 0, 76, 0
2, 155160, Note_on_c, 0, 74, 43
2, 155256, Note_off_c, 0, 74, 0
2, 155280, Note_on_c, 0, 74, 42
2, 155400, Note_off_c, 0, 74, 0
2, 155400, Note_on_c, 0, 72, 41
2, 155496, Note_off_c, 0, 72, 0
2, 155520, Note_on_c, 0, 71, 40
2, 155760, Note_off_c, 0, 71, 0
2, 155760, Note_on_c, 0, 76, 45
2, 156000, Note_off_c, 0, 76, 0
2, 156000, Note_on_c, 0, 74, 49
2, 156240, Note_off_c, 0, 74, 0
2, 156240, Note_on_c, 0, 72, 47
2, 156480, Note_off_c, 0, 72, 0
2, 156480, Note_on_c, 0, 71, 44
2, 156720, Note_off_c, 0, 71, 0
2, 156720, Note_on_c, 0, 76, 48
2, 156960, Note_off_c, 0, 76, 0
2, 156960, Note_on_c, 0, 74, 54
2, 157200, Note_off_c, 0, 74, 0
2, 157200, Note_on_c, 0, 72, 53
2, 157440, Note_off_c, 0, 72, 0
2, 157440, Note_on_c, 0, 71, 53
2, 157680, Note_off_c, 0, 71, 0
2, 157680, Note_on_c, 0, 76, 57
2, 157920, Note_off_c, 0, 76, 0
2, 157920, Note_on_c, 0, 74, 52
2, 158160, Note_off_c, 0, 74, 0
2, 158160, Note_on_c, 0, 73, 50
2, 158400, Note_off_c, 0, 73, 0
2, 158400, Note_on_c, 0, 74, 48
2, 158640, Note_off_c, 0, 74, 0
2, 159360, Note_on_c, 0, 83, 47
2, 159600, Note_off_c, 0, 83, 0
2, 159600, Note_on_c, 0, 88, 50
2, 159840, Note_off_c, 0, 88, 0
2, 159840, Note_on_c, 0, 86, 55
2, 160080, Note_off_c, 0, 86, 0
2, 160080, Note_on_c, 0, 84, 53
2, 160320, Note_off_c, 0, 84, 0
2, 160320, Note_on_c, 0, 83, 50
2, 160560, Note_off_c, 0, 83, 0
2, 160560, Note_on_c, 0, 88, 55
2, 160800, Note_off_c, 0, 88, 0
2, 160800, Note_on_c, 0, 86, 59
2, 161040, Note_off_c, 0, 86, 0
2, 161040, Note_on_c, 0, 84, 58
2, 161280, Note_off_c, 0, 84, 0
2, 161280, Note_on_c, 0, 83, 56
2, 161520, Note_off_c, 0, 83, 0
2, 161520, Note_on_c, 0, 79, 62
2, 162000, Note_off_c, 0, 79, 0
2, 162000, Note_on_c, 0, 79, 70
2, 162432, Note_off_c, 0, 79, 0
2, 162480, Note_on_c, 0, 79, 77
2, 162672, Note_off_c, 0, 79, 0
2, 162720, Note_on_c, 0, 79, 80
2, 162912, Note_off_c, 0, 79, 0
2, 162960, Note_on_c, 0, 79, 84
2, 163152, Note_off_c, 0, 79, 0
2, 163200, Note_on_c, 0, 76, 47
2, 163260, Note_off_c, 0, 76, 0
2, 163260, Note_on_c, 0, 78, 47
2, 163320, Note_off_c, 0, 78, 0
2, 163320, Note_on_c, 0, 76, 48
2, 163380, Note_off_c, 0, 76, 0
2, 163380, Note_on_c, 0, 75, 48
2, 163440, Note_off_c, 0, 75, 0
2, 163440, Note_on_c, 0, 76, 49
2, 163500, Note_off_c, 0, 76, 0
2, 163500, Note_on_c, 0, 78, 49
2, 163560, Note_off_c, 0, 78, 0
2, 163560, Note_on_c, 0, 76, 50
2, 163620, Note_off_c, 0, 76, 0
2, 163620, Note_on_c, 0, 75, 50
2, 163680, Note_off_c, 0, 75, 0
2, 163680, Note_on_c, 0, 76, 51
2, 163740, Note_off_c, 0, 76, 0
2, 163740, Note_on_c, 0, 78, 51
2, 163800, Note_off_c, 0, 78, 0
2, 163800, Note_on_c, 0, 76, 52
2, 163860, Note_off_c, 0, 76, 0
2, 163860, Note_on_c, 0, 75, 52
2, 163920, Note_off_c, 0, 75, 0
2, 163920, Note_on_c, 0, 76, 53
2, 163980, Note_off_c, 0, 76, 0
2, 163980, Note_on_c, 0, 78, 53
2, 164040, Note_off_c, 0, 78, 0
2, 164040, Note_on_c, 0, 79, 54
2, 164100, Note_off_c, 0, 79, 0
2, 164100, Note_on_c, 0, 78, 54
2, 164160, Note_off_c, 0, 78, 0
2, 164160, Note_on_c, 0, 79, 54
2, 164220, Note_off_c, 0, 79, 0
2, 164220, Note_on_c, 0, 81, 55
2, 164280, Note_off_c, 0, 81, 0
2, 164280, Note_on_c, 0, 79, 56
2, 164340, Note_off_c, 0, 79, 0
2, 164340, Note_on_c, 0, 78, 57
2, 164400, Note_off_c, 0, 78, 0
2, 164400, Note_on_c, 0, 79, 57
2, 164460, Note_off_c, 0, 79, 0
2, 164460, Note_on_c, 0, 81, 58
2, 164520, Note_off_c, 0, 81, 0
2, 164520, Note_on_c, 0, 82, 59
2, 164580, Note_off_c, 0, 82, 0
2, 164580, Note_on_c, 0, 81, 60
2, 164640, Note_off_c, 0, 81, 0
2, 164640, Note_on_c, 0, 79, 61
2, 164700, Note_off_c, 0, 79, 0
2, 164700, Note_on_c, 0, 81, 61
2, 164760, Note_off_c, 0, 81, 0
2, 164760, Note_on_c, 0, 79, 62
2, 164820, Note_off_c, 0, 79, 0
2, 164820, Note_on_c, 0, 78, 63
2, 164880, Note_off_c, 0, 78, 0
2, 164880, Note_on_c, 0, 79, 64
2, 164940, Note_off_c, 0, 79, 0
2, 164940, Note_on_c, 0, 81, 65
2, 165000, Note_off_c, 0, 81, 0
2, 165000, Note_on_c, 0, 82, 65
2, 165060, Note_off_c, 0, 82, 0
2, 165060, Note_on_c, 0, 81, 66
2, 165120, Note_off_c, 0, 81, 0
2, 165120, Note_on_c, 0, 79, 66
2, 165180, Note_off_c, 0, 79, 0
2, 165180, Note_on_c, 0, 81, 67
2, 165240, Note_off_c, 0, 81, 0
2, 165240, Note_on_c, 0, 79, 69
2, 165300, Note_off_c, 0, 79, 0
2, 165300, Note_on_c, 0, 78, 70
2, 165360, Note_off_c, 0, 78, 0
2, 165360, Note_on_c, 0, 79, 71
2, 165420, Note_off_c, 0, 79, 0
2, 165420, Note_on_c, 0, 81, 72
2, 165480, Note_off_c, 0, 81, 0
2, 165480, Note_on_c, 0, 82, 74
2, 165540, Note_off_c, 0, 82, 0
2, 165540, Note_on_c, 0, 81, 75
2, 165600, Note_off_c, 0, 81, 0
2, 165600, Note_on_c, 0, 79, 76
2, 165660, Note_off_c, 0, 79, 0
2, 165660, Note_on_c, 0, 78, 78
2, 165720, Note_off_c, 0, 78, 0
2, 165720, Note_on_c, 0, 76, 79
2, 165780, Note_off_c, 0, 76, 0
2, 165780, Note_on_c, 0, 74, 80
2, 165840, Note_off_c, 0, 74, 0
2, 165840, Note_on_c, 0, 72, 81
2, 165900, Note_off_c, 0, 72, 0
2, 165900, Note_on_c, 0, 71, 83
2, 165960, Note_off_c, 0, 71, 0
2, 165960, Note_on_c, 0, 69, 84
2, 166020, Note_off_c, 0, 69, 0
2, 166020, Note_on_c, 0, 67, 85
2, 166080, Note_off_c, 0, 67, 0
2, 166080, Note_on_c, 0, 71, 88
2, 166560, Note_off_c, 0, 71, 0
2, 166560, Note_on_c, 0, 69, 80
2, 167040, Note_off_c, 0, 69, 0
2, 167040, Note_on_c, 0, 67, 78
2, 167100, Note_off_c, 0, 67, 0
2, 167100, Note_on_c, 0, 69, 77
2, 167160, Note_off_c, 0, 69, 0
2, 167160, Note_on_c, 0, 71, 77
2, 167220, Note_off_c, 0, 71, 0
2, 167220, Note_on_c, 0, 72, 76
2, 167280, Note_off_c, 0, 72, 0
2, 167280, Note_on_c, 0, 74, 76
2, 167340, Note_off_c, 0, 74, 0
2, 167340, Note_on_c, 0, 72, 75
2, 167400, Note_off_c, 0, 72, 0
2, 167400, Note_on_c, 0, 71, 75
2, 167460, Note_off_c, 0, 71, 0
2, 167460, Note_on_c, 0, 69, 75
2, 167520, Note_off_c, 0, 69, 0
2, 167520, Note_on_c, 0, 67, 74
2, 167580, Note_off_c, 0, 67, 0
2, 167580, Note_on_c, 0, 66, 74
2, 167640, Note_off_c, 0, 66, 0
2, 167640, Note_on_c, 0, 64, 73
2, 167700, Note_off_c, 0, 64, 0
2, 167700, Note_on_c, 0, 62, 73
2, 167760, Note_off_c, 0, 62, 0
2, 167760, Note_on_c, 0, 60, 72
2, 167820, Note_off_c, 0, 60, 0
2, 167820, Note_on_c, 0, 59, 72
2, 167880, Note_off_c, 0, 59, 0
2, 167880, Note_on_c, 0, 57, 71
2, 167940, Note_off_c, 0, 57, 0
2, 167940, Note_on_c, 0, 55, 70
2, 168000, Note_off_c, 0, 55, 0
2, 168000, Note_on_c, 0, 59, 76
2, 168480, Note_off_c, 0, 59, 0
2, 168480, Note_on_c, 0, 57, 67
2, 168960, Note_off_c, 0, 57, 0
2, 168960, Note_on_c, 0, 55, 57
2, 169140, Note_off_c, 0, 55, 0
2, 169200, Note_on_c, 0, 59, 54
2, 169425, Note_off_c, 0, 59, 0
2, 169440, Note_on_c, 0, 60, 57
2, 169665, Note_off_c, 0, 60, 0
2, 169680, Note_on_c, 0, 61, 60
2, 169905, Note_off_c, 0, 61, 0
2, 169920, Note_on_c, 0, 62, 65
2, 171120, Note_off_c, 0, 62, 0
2, 171120, Note_on_c, 0, 59, 52
2, 171360, Note_off_c, 0, 59, 0
2, 171360, Note_on_c, 0, 64, 56
2, 171600, Note_off_c, 0, 64, 0
2, 171600, Note_on_c, 0, 62, 58
2, 171840, Note_off_c, 0, 62, 0
2, 171840, Note_on_c, 0, 60, 63
2, 173040, Note_off_c, 0, 60, 0
2, 173040, Note_on_c, 0, 60, 52
2, 173280, Note_off_c, 0, 60, 0
2, 173280, Note_on_c, 0, 62, 54
2, 173520, Note_off_c, 0, 62, 0
2, 173520, Note_on_c, 0, 60, 57
2, 173760, Note_off_c, 0, 60, 0
2, 173760, Note_on_c, 0, 59, 62
2, 174960, Note_off_c, 0, 59, 0
2, 174960, Note_on_c, 0, 57, 51
2, 175200, Note_off_c, 0, 57, 0
2, 175200, Note_on_c, 0, 57, 52
2, 175440, Note_off_c, 0, 57, 0
2, 175440, Note_on_c, 0, 60, 54
2, 175680, Note_off_c, 0, 60, 0
2, 175680, Note_on_c, 0, 59, 61
2, 176880, Note_off_c, 0, 59, 0
2, 176880, Note_on_c, 0, 57, 48
2, 177120, Note_off_c, 0, 57, 0
2, 177120, Note_on_c, 0, 57, 50
2, 177360, Note_off_c, 0, 57, 0
2, 177360, Note_on_c, 0, 60, 53
2, 177600, Note_off_c, 0, 60, 0
2, 177600, Note_on_c, 0, 59, 58
2, 178800, Note_off_c, 0, 59, 0
2, 178800, Note_on_c, 0, 59, 59
2, 179040, Note_off_c, 0, 59, 0
2, 179040, Note_on_c, 0, 60, 62
2, 179280, Note_off_c, 0, 60, 0
2, 179280, Note_on_c, 0, 62, 66
2, 179520, Note_off_c, 0, 62, 0
2, 179520, Note_on_c, 0, 64, 71
2, 180000, Note_off_c, 0, 64, 0
2, 180000, Note_on_c, 0, 57, 68
2, 180480, Note_off_c, 0, 57, 0
2, 180480, Note_on_c, 0, 59, 64
2, 180960, Note_off_c, 0, 59, 0
2, 180960, Note_on_c, 0, 60, 60
2, 181320, Note_off_c, 0, 60, 0
2, 181320, Note_on_c, 0, 57, 57
2, 181440, Note_off_c, 0, 57, 0
2, 181440, Note_on_c, 0, 55, 56
2, 181920, Note_off_c, 0, 55, 0
2, 182040, Note_on_c, 0, 62, 40
2, 182160, Note_off_c, 0, 62, 0
2, 182160, Note_on_c, 0, 74, 40
2, 182280, Note_off_c, 0, 74, 0
2, 182280, Note_on_c, 0, 70, 40
2, 182400, Note_off_c, 0, 70, 0
2, 182400, Note_on_c, 0, 71, 41
2, 183000, Note_off_c, 0, 71, 0
2, 183000, Note_on_c, 0, 67, 42
2, 183120, Note_off_c, 0, 67, 0
2, 183120, Note_on_c, 0, 79, 43
2, 183240, Note_off_c, 0, 79, 0
2, 183240, Note_on_c, 0, 71, 43
2, 183360, Note_off_c, 0, 71, 0
2, 183360, Note_on_c, 0, 72, 44
2, 183960, Note_off_c, 0, 72, 0
2, 183960, Note_on_c, 0, 72, 45
2, 184080, Note_off_c, 0, 72, 0
2, 184080, Note_on_c, 0, 84, 52
2, 184158, Note_off_c, 0, 84, 0
2, 184200, Note_on_c, 0, 83, 55
2, 184278, Note_off_c, 0, 83, 0
2, 184320, Note_on_c, 0, 81, 61
2, 184680, Note_off_c, 0, 81, 0
2, 184680, Note_on_c, 0, 79, 54
2, 184800, Note_off_c, 0, 79, 0
2, 184800, Note_on_c, 0, 78, 52
2, 184878, Note_off_c, 0, 78, 0
2, 184920, Note_on_c, 0, 76, 49
2, 184998, Note_off_c, 0, 76, 0
2, 185040, Note_on_c, 0, 74, 47
2, 185118, Note_off_c, 0, 74, 0
2, 185160, Note_on_c, 0, 72, 45
2, 185238, Note_off_c, 0, 72, 0
2, 185280, Note_on_c, 0, 70, 43
2, 185520, Note_off_c, 0, 70, 0
2, 185520, Note_on_c, 0, 71, 38
2, 185760, Note_off_c, 0, 71, 0
2, 185880, Note_on_c, 0, 67, 39
2, 186000, Note_off_c, 0, 67, 0
2, 186000, Note_on_c, 0, 74, 41
2, 186120, Note_off_c, 0, 74, 0
2, 186120, Note_on_c, 0, 70, 43
2, 186240, Note_off_c, 0, 70, 0
2, 186240, Note_on_c, 0, 71, 44
2, 186840, Note_off_c, 0, 71, 0
2, 186840, Note_on_c, 0, 67, 54
2, 186960, Note_off_c, 0, 67, 0
2, 186960, Note_on_c, 0, 79, 56
2, 187080, Note_off_c, 0, 79, 0
2, 187080, Note_on_c, 0, 71, 58
2, 187200, Note_off_c, 0, 71, 0
2, 187200, Note_on_c, 0, 72, 60
2, 187800, Note_off_c, 0, 72, 0
2, 187800, Note_on_c, 0, 72, 69
2, 187920, Note_off_c, 0, 72, 0
2, 187920, Note_on_c, 0, 88, 71
2, 187998, Note_off_c, 0, 88, 0
2, 188040, Note_on_c, 0, 86, 76
2, 188118, Note_off_c, 0, 86, 0
2, 188160, Note_on_c, 0, 84, 83
2, 188760, Note_off_c, 0, 84, 0
2, 188760, Note_on_c, 0, 83, 69
2, 188838, Note_off_c, 0, 83, 0
2, 188880, Note_on_c, 0, 81, 68
2, 188958, Note_off_c, 0, 81, 0
2, 189000, Note_on_c, 0, 79, 67
2, 189078, Note_off_c, 0, 79, 0
2, 189120, Note_on_c, 0, 78, 65
2, 189198, Note_off_c, 0, 78, 0
2, 189240, Note_on_c, 0, 76, 64
2, 189318, Note_off_c, 0, 76, 0
2, 189360, Note_on_c, 0, 74, 62
2, 189438, Note_off_c, 0, 74, 0
2, 189480, Note_on_c, 0, 72, 61
2, 189558, Note_off_c, 0, 72, 0
2, 189600, Note_on_c, 0, 71, 60
2, 189678, Note_off_c, 0, 71, 0
2, 189720, Note_on_c, 0, 69, 58
2, 189798, Note_off_c, 0, 69, 0
2, 189840, Note_on_c, 0, 67, 57
2, 189918, Note_off_c, 0, 67, 0
2, 189960, Note_on_c, 0, 66, 55
2, 190038, Note_off_c, 0, 66, 0
2, 190080, Note_on_c, 0, 64, 54
2, 190200, Note_off_c, 0, 64, 0
2, 190200, Note_on_c, 0, 62, 50
2, 190320, Note_off_c, 0, 62, 0
2, 190320, Note_on_c, 0, 61, 49
2, 190440, Note_off_c, 0, 61, 0
2, 190440, Note_on_c, 0, 62, 47
2, 190560, Note_off_c, 0, 62, 0
2, 190560, Note_on_c, 0, 61, 45
2, 190680, Note_off_c, 0, 61, 0
2, 190680, Note_on_c, 0, 62, 43
2, 190800, Note_off_c, 0, 62, 0
2, 190800, Note_on_c, 0, 64, 42
2, 190920, Note_off_c, 0, 64, 0
2, 190920, Note_on_c, 0, 60, 40
2, 191040, Note_off_c, 0, 60, 0
2, 191040, Note_on_c, 0, 59, 38
2, 191280, Note_off_c, 0, 59, 0
2, 191640, Note_on_c, 0, 75, 45
2, 191760, Note_off_c, 0, 75, 0
2, 191760, Note_on_c, 0, 76, 44
2, 191880, Note_off_c, 0, 76, 0
2, 191880, Note_on_c, 0, 72, 43
2, 192000, Note_off_c, 0, 72, 0
2, 192000, Note_on_c, 0, 71, 43
2, 192120, Note_off_c, 0, 71, 0
2, 192600, Note_on_c, 0, 87, 38
2, 192720, Note_off_c, 0, 87, 0
2, 192720, Note_on_c, 0, 88, 37
2, 192840, Note_off_c, 0, 88, 0
2, 192840, Note_on_c, 0, 84, 37
2, 192960, Note_off_c, 0, 84, 0
2, 192960, Note_on_c, 0, 84, 36
2, 193680, Note_off_c, 0, 84, 0
2, 193680, Note_on_c, 0, 83, 31
2, 193740, Note_off_c, 0, 83, 0
2, 193740, Note_on_c, 0, 84, 30
2, 193800, Note_off_c, 0, 84, 0
2, 193800, Note_on_c, 0, 86, 30
2, 193860, Note_off_c, 0, 86, 0
2, 193860, Note_on_c, 0, 84, 30
2, 193920, Note_off_c, 0, 84, 0
2, 193920, Note_on_c, 0, 83, 29
2, 194160, Note_off_c, 0, 83, 0
2, 194880, Control_c, 0, 10, 73
2, 194880, Control_c, 0, 91, 91
2, 194880, Control_c, 0, 93, 28
2, 194880, Control_c, 0, 64, 0
2, 194880, Control_c, 0, 1, 0
2, 194880, Pitch_bend_c, 0, 8192
2, 194880, Control_c, 0, 7, 127
2, 194880, Control_c, 0, 0, 0
2, 194880, Control_c, 0, 32, 0
2, 194880, Program_c, 0, 0
2, 196680, Note_on_c, 0, 55, 40
2, 196776, Note_off_c, 0, 55, 0
2, 196800, Note_on_c, 0, 60, 40
2, 196920, Note_off_c, 0, 60, 0
2, 197280, Note_on_c, 0, 59, 41
2, 197400, Note_off_c, 0, 59, 0
2, 197760, Note_on_c, 0, 60, 42
2, 197880, Note_off_c, 0, 60, 0
2, 198240, Note_on_c, 0, 62, 43
2, 198360, Note_off_c, 0, 62, 0
2, 198720, Note_on_c, 0, 64, 44
2, 198840, Note_off_c, 0, 64, 0
2, 199200, Note_on_c, 0, 65, 47
2, 199320, Note_off_c, 0, 65, 0
2, 199680, Note_on_c, 0, 62, 52
2, 200640, Note_off_c, 0, 62, 0
2, 200640, Note_on_c, 0, 67, 47
2, 200760, Note_off_c, 0, 67, 0
2, 201120, Note_on_c, 0, 67, 46
2, 201240, Note_off_c, 0, 67, 0
2, 201600, Note_on_c, 0, 67, 44
2, 201720, Note_off_c, 0, 67, 0
2, 202080, Note_on_c, 0, 68, 43
2, 202200, Note_off_c, 0, 68, 0
2, 202560, Note_on_c, 0, 69, 41
2, 202680, Note_off_c, 0, 69, 0
2, 203040, Note_on_c, 0, 69, 40
2, 203160, Note_off_c, 0, 69, 0
2, 203520, Note_on_c, 0, 62, 38
2, 204360, Note_off_c, 0, 62, 0
2, 204360, Note_on_c, 0, 55, 40
2, 204456, Note_off_c, 0, 55, 0
2, 204480, Note_on_c, 0, 60, 42
2, 204600, Note_off_c, 0, 60, 0
2, 204960, Note_on_c, 0, 59, 46
2, 205080, Note_off_c, 0, 59, 0
2, 205440, Note_on_c, 0, 60, 50
2, 205560, Note_off_c, 0, 60, 0
2, 205920, Note_on_c, 0, 62, 53
2, 206040, Note_off_c, 0, 62, 0
2, 206400, Note_on_c, 0, 64, 57
2, 206520, Note_off_c, 0, 64, 0
2, 206880, Note_on_c, 0, 66, 61
2, 207000, Note_off_c, 0, 66, 0
2, 207360, Note_on_c, 0, 67, 72
2, 208320, Note_off_c, 0, 67, 0
2, 208320, Note_on_c, 0, 69, 72
2, 208440, Note_off_c, 0, 69, 0
2, 208800, Note_on_c, 0, 70, 76
2, 208920, Note_off_c, 0, 70, 0
2, 209280, Note_on_c, 0, 71, 85
2, 210240, Note_off_c, 0, 71, 0
2, 210240, Note_on_c, 0, 72, 53
2, 210360, Note_off_c, 0, 72, 0
2, 210720, Note_on_c, 0, 69, 49
2, 210840, Note_off_c, 0, 69, 0
2, 211200, Note_on_c, 0, 67, 45
2, 211356, Note_off_c, 0, 67, 0
2, 212040, Control_c, 0, 64, 0
2, 212040, Note_on_c, 0, 67, 42
2, 212160, Note_on_c, 0, 79, 42
2, 212164, Note_off_c, 0, 67, 0
2, 212640, Note_off_c, 0, 79, 0
2, 212640, Note_on_c, 0, 77, 44
2, 213120, Note_off_c, 0, 77, 0
2, 213120, Note_on_c, 0, 76, 46
2, 213600, Note_off_c, 0, 76, 0
2, 213600, Note_on_c, 0, 76, 47
2, 213660, Note_off_c, 0, 76, 0
2, 213660, Note_on_c, 0, 77, 48
2, 213720, Note_off_c, 0, 77, 0
2, 213720, Note_on_c, 0, 76, 49
2, 213780, Note_off_c, 0, 76, 0
2, 213780, Note_on_c, 0, 77, 49
2, 213840, Note_off_c, 0, 77, 0
2, 213840, Note_on_c, 0, 76, 50
2, 213900, Note_on_c, 0, 74, 51
2, 213960, Note_off_c, 0, 76, 0
2, 213960, Note_on_c, 0, 76, 51
2, 214020, Note_off_c, 0, 74, 0
2, 214080, Note_off_c, 0, 76, 0
2, 214080, Note_on_c, 0, 84, 55
2, 214560, Note_off_c, 0, 84, 0
2, 214560, Note_on_c, 0, 82, 48
2, 215040, Note_off_c, 0, 82, 0
2, 215040, Note_on_c, 0, 81, 43
2, 215707, Note_off_c, 0, 81, 0
2, 215880, Note_on_c, 0, 69, 44
2, 216000, Note_off_c, 0, 69, 0
2, 216000, Note_on_c, 0, 81, 45
2, 216480, Note_off_c, 0, 81, 0
2, 216480, Note_on_c, 0, 79, 49
2, 216960, Note_off_c, 0, 79, 0
2, 216960, Note_on_c, 0, 77, 52
2, 217440, Note_off_c, 0, 77, 0
2, 217440, Note_on_c, 0, 76, 56
2, 217920, Note_off_c, 0, 76, 0
2, 217920, Note_on_c, 0, 74, 60
2, 218400, Note_off_c, 0, 74, 0
2, 218400, Note_on_c, 0, 72, 64
2, 219360, Note_off_c, 0, 72, 0
2, 219360, Note_on_c, 0, 71, 63
2, 219840, Note_off_c, 0, 71, 0
2, 219840, Note_on_c, 0, 72, 42
2, 219960, Note_off_c, 0, 72, 0
2, 220320, Note_on_c, 0, 71, 44
2, 220440, Note_off_c, 0, 71, 0
2, 220800, Note_on_c, 0, 72, 46
2, 220920, Note_off_c, 0, 72, 0
2, 221280, Note_on_c, 0, 74, 48
2, 221400, Note_off_c, 0, 74, 0
2, 221760, Note_on_c, 0, 76, 51
2, 221880, Note_off_c, 0, 76, 0
2, 222240, Note_on_c, 0, 77, 55
2, 222360, Note_off_c, 0, 77, 0
2, 222720, Note_on_c, 0, 74, 62
2, 222876, Note_off_c, 0, 74, 0
2, 223200, Note_on_c, 0, 79, 79
2, 224160, Note_off_c, 0, 79, 0
2, 224160, Note_on_c, 0, 79, 85
2, 225120, Note_off_c, 0, 79, 0
2, 225120, Note_on_c, 0, 77, 69
2, 225600, Note_off_c, 0, 77, 0
2, 225600, Note_on_c, 0, 76, 54
2, 225720, Note_off_c, 0, 76, 0
2, 226080, Note_on_c, 0, 74, 49
2, 226200, Note_off_c, 0, 74, 0
2, 226560, Note_on_c, 0, 72, 44
2, 226800, Note_off_c, 0, 72, 0
2, 227520, Note_on_c, 0, 59, 46
2, 227640, Note_off_c, 0, 59, 0
2, 228000, Note_on_c, 0, 60, 60
2, 228180, Note_off_c, 0, 60, 0
2, 228480, Note_on_c, 0, 61, 52
2, 228600, Note_off_c, 0, 61, 0
2, 228960, Note_on_c, 0, 62, 69
2, 229140, Note_off_c, 0, 62, 0
2, 229440, Note_on_c, 0, 63, 58
2, 229560, Note_off_c, 0, 63, 0
2, 229920, Note_on_c, 0, 64, 74
2, 230100, Note_off_c, 0, 64, 0
2, 230400, Note_on_c, 0, 65, 79
2, 231840, Note_off_c, 0, 65, 0
2, 231840, Note_on_c, 0, 64, 50
2, 232320, Note_off_c, 0, 64, 0
2, 232320, Note_on_c, 0, 62, 48
2, 232800, Note_off_c, 0, 62, 0
2, 232800, Note_on_c, 0, 65, 45
2, 233280, Note_off_c, 0, 65, 0
2, 233280, Note_on_c, 0, 64, 43
2, 233400, Note_off_c, 0, 64, 0
2, 233760, Note_on_c, 0, 62, 40
2, 233880, Note_off_c, 0, 62, 0
2, 234240, Note_on_c, 0, 60, 38
2, 234480, Note_off_c, 0, 60, 0
2, 235080, Control_c, 0, 64, 0
2, 235080, Note_on_c, 0, 67, 42
2, 235200, Note_on_c, 0, 79, 42
2, 235204, Note_off_c, 0, 67, 0
2, 235680, Note_off_c, 0, 79, 0
2, 235680, Note_on_c, 0, 77, 44
2, 236160, Note_off_c, 0, 77, 0
2, 236160, Note_on_c, 0, 76, 46
2, 236640, Note_off_c, 0, 76, 0
2, 236640, Note_on_c, 0, 76, 47
2, 236700, Note_off_c, 0, 76, 0
2, 236700, Note_on_c, 0, 77, 48
2, 236760, Note_off_c, 0, 77, 0
2, 236760, Note_on_c, 0, 76, 49
2, 236820, Note_off_c, 0, 76, 0
2, 236820, Note_on_c, 0, 77, 49
2, 236880, Note_off_c, 0, 77, 0
2, 236880, Note_on_c, 0, 76, 50
2, 236940, Note_on_c, 0, 74, 51
2, 237000, Note_off_c, 0, 76, 0
2, 237000, Note_on_c, 0, 76, 51
2, 237060, Note_off_c, 0, 74, 0
2, 237120, Note_off_c, 0, 76, 0
2, 237120, Note_on_c, 0, 84, 54
2, 237600, Note_off_c, 0, 84, 0
2, 237600, Note_on_c, 0, 82, 48
2, 238080, Note_off_c, 0, 82, 0
2, 238080, Note_on_c, 0, 81, 43
2, 238747, Note_off_c, 0, 81, 0
2, 238920, Note_on_c, 0, 69, 44
2, 239040, Note_off_c, 0, 69, 0
2, 239040, Note_on_c, 0, 81, 45
2, 239520, Note_off_c, 0, 81, 0
2, 239520, Note_on_c, 0, 79, 49
2, 240000, Note_off_c, 0, 79, 0
2, 240000, Note_on_c, 0, 77, 52
2, 240480, Note_off_c, 0, 77, 0
2, 240480, Note_on_c, 0, 76, 56
2, 240960, Note_off_c, 0, 76, 0
2, 240960, Note_on_c, 0, 74, 60
2, 241440, Note_off_c, 0, 74, 0
2, 241440, Note_on_c, 0, 72, 64
2, 242400, Note_off_c, 0, 72, 0
2, 242400, Note_on_c, 0, 71, 63
2, 242880, Note_off_c, 0, 71, 0
2, 242880, Note_on_c, 0, 72, 42
2, 243000, Note_off_c, 0, 72, 0
2, 243360, Note_on_c, 0, 71, 44
2, 243480, Note_off_c, 0, 71, 0
2, 243840, Note_on_c, 0, 72, 46
2, 243960, Note_off_c, 0, 72, 0
2, 244320, Note_on_c, 0, 74, 48
2, 244440, Note_off_c, 0, 74, 0
2, 244800, Note_on_c, 0, 76, 51
2, 244920, Note_off_c, 0, 76, 0
2, 245280, Note_on_c, 0, 77, 55
2, 245400, Note_off_c, 0, 77, 0
2, 245760, Note_on_c, 0, 74, 62
2, 245916, Note_off_c, 0, 74, 0
2, 246240, Note_on_c, 0, 79, 79
2, 247200, Note_off_c, 0, 79, 0
2, 247200, Note_on_c, 0, 79, 85
2, 248160, Note_off_c, 0, 79, 0
2, 248160, Note_on_c, 0, 77, 69
2, 248640, Note_off_c, 0, 77, 0
2, 248640, Note_on_c, 0, 76, 54
2, 248760, Note_off_c, 0, 76, 0
2, 249120, Note_on_c, 0, 74, 49
2, 249240, Note_off_c, 0, 74, 0
2, 249600, Note_on_c, 0, 72, 44
2, 249840, Note_off_c, 0, 72, 0
2, 250560, Note_on_c, 0, 59, 46
2, 250680, Note_off_c, 0, 59, 0
2, 251040, Note_on_c, 0, 60, 60
2, 251220, Note_off_c, 0, 60, 0
2, 251520, Note_on_c, 0, 61, 52
2, 251640, Note_off_c, 0, 61, 0
2, 252000, Note_on_c, 0, 62, 69
2, 252180, Note_off_c, 0, 62, 0
2, 252480, Note_on_c, 0, 63, 58
2, 252600, Note_off_c, 0, 63, 0
2, 252960, Note_on_c, 0, 64, 74
2, 253140, Note_off_c, 0, 64, 0
2, 253440, Note_on_c, 0, 65, 79
2, 254880, Note_off_c, 0, 65, 0
2, 254880, Note_on_c, 0, 64, 50
2, 255360, Note_off_c, 0, 64, 0
2, 255360, Note_on_c, 0, 62, 48
2, 255840, Note_off_c, 0, 62, 0
2, 255840, Note_on_c, 0, 65, 45
2, 256320, Note_off_c, 0, 65, 0
2, 256320, Note_on_c, 0, 64, 43
2, 256440, Note_off_c, 0, 64, 0
2, 256800, Note_on_c, 0, 62, 40
2, 256920, Note_off_c, 0, 62, 0
2, 257280, Note_on_c, 0, 60, 38
2, 257520, Note_off_c, 0, 60, 0
2, 258120, Control_c, 0, 64, 0
2, 258480, Note_on_c, 0, 79, 37
2, 258960, Note_off_c, 0, 79, 0
2, 258960, Note_on_c, 0, 79, 39
2, 259440, Note_off_c, 0, 79, 0
2, 259440, Note_on_c, 0, 79, 41
2, 259920, Note_off_c, 0, 79, 0
2, 259920, Note_on_c, 0, 79, 43
2, 260400, Note_off_c, 0, 79, 0
2, 260400, Note_on_c, 0, 79, 45
2, 260880, Note_off_c, 0, 79, 0
2, 260880, Note_on_c, 0, 79, 52
2, 261360, Note_off_c, 0, 79, 0
2, 261360, Note_on_c, 0, 79, 60
2, 261600, Note_off_c, 0, 79, 0
2, 261600, Note_on_c, 0, 79, 54
2, 261840, Note_off_c, 0, 79, 0
2, 261840, Note_on_c, 0, 79, 48
2, 262080, Note_off_c, 0, 79, 0
2, 262320, Note_on_c, 0, 79, 52
2, 262800, Note_off_c, 0, 79, 0
2, 262800, Note_on_c, 0, 77, 50
2, 263280, Note_off_c, 0, 77, 0
2, 263280, Note_on_c, 0, 76, 48
2, 263760, Note_off_c, 0, 76, 0
2, 263760, Note_on_c, 0, 74, 46
2, 264240, Note_off_c, 0, 74, 0
2, 264240, Note_on_c, 0, 72, 44
2, 264720, Note_off_c, 0, 72, 0
2, 264720, Note_on_c, 0, 74, 42
2, 264960, Note_off_c, 0, 74, 0
2, 264960, Note_on_c, 0, 72, 41
2, 265200, Note_off_c, 0, 72, 0
2, 265200, Note_on_c, 0, 71, 40
2, 265440, Note_off_c, 0, 71, 0
2, 265440, Note_on_c, 0, 69, 39
2, 265680, Note_off_c, 0, 69, 0
2, 265680, Note_on_c, 0, 67, 38
2, 265920, Note_off_c, 0, 67, 0
2, 265920, Note_on_c, 0, 79, 38
2, 266160, Note_off_c, 0, 79, 0
2, 266160, Note_on_c, 0, 79, 39
2, 266640, Note_off_c, 0, 79, 0
2, 266640, Note_on_c, 0, 79, 41
2, 267120, Note_off_c, 0, 79, 0
2, 267120, Note_on_c, 0, 79, 43
2, 267600, Note_off_c, 0, 79, 0
2, 267600, Note_on_c, 0, 79, 45
2, 268080, Note_off_c, 0, 79, 0
2, 268080, Note_on_c, 0, 84, 46
2, 268236, Note_off_c, 0, 84, 0
2, 268320, Note_on_c, 0, 84, 49
2, 268476, Note_off_c, 0, 84, 0
2, 268560, Note_on_c, 0, 84, 52
2, 268716, Note_off_c, 0, 84, 0
2, 268800, Note_on_c, 0, 84, 63
2, 269040, Note_off_c, 0, 84, 0
2, 269040, Note_on_c, 0, 83, 58
2, 269280, Note_off_c, 0, 83, 0
2, 269280, Note_on_c, 0, 81, 54
2, 269520, Note_off_c, 0, 81, 0
2, 269520, Note_on_c, 0, 79, 49
2, 269760, Note_off_c, 0, 79, 0
2, 270000, Note_on_c, 0, 88, 54
2, 270156, Note_off_c, 0, 88, 0
2, 270240, Note_on_c, 0, 88, 57
2, 270396, Note_off_c, 0, 88, 0
2, 270480, Note_on_c, 0, 88, 60
2, 270636, Note_off_c, 0, 88, 0
2, 270720, Note_on_c, 0, 88, 65
2, 270960, Note_off_c, 0, 88, 0
2, 270960, Note_on_c, 0, 86, 62
2, 271200, Note_off_c, 0, 86, 0
2, 271200, Note_on_c, 0, 85, 59
2, 271440, Note_off_c, 0, 85, 0
2, 271440, Note_on_c, 0, 86, 55
2, 271920, Note_off_c, 0, 86, 0
2, 271920, Note_on_c, 0, 74, 55
2, 272160, Note_off_c, 0, 74, 0
2, 272160, Note_on_c, 0, 76, 57
2, 272400, Note_off_c, 0, 76, 0
2, 272400, Note_on_c, 0, 78, 59
2, 272880, Note_off_c, 0, 78, 0
2, 272880, Note_on_c, 0, 79, 57
2, 273120, Note_off_c, 0, 79, 0
2, 273120, Note_on_c, 0, 74, 53
2, 273360, Note_off_c, 0, 74, 0
2, 273360, Note_on_c, 0, 71, 49
2, 273600, Control_c, 0, 64, 0
2, 273600, Note_off_c, 0, 71, 0
2, 273840, Note_on_c, 0, 79, 44
2, 274320, Note_off_c, 0, 79, 0
2, 274320, Note_on_c, 0, 79, 46
2, 274800, Note_off_c, 0, 79, 0
2, 274800, Note_on_c, 0, 79, 48
2, 275280, Note_off_c, 0, 79, 0
2, 275280, Note_on_c, 0, 79, 50
2, 275760, Note_off_c, 0, 79, 0
2, 275760, Note_on_c, 0, 77, 55
2, 276240, Note_off_c, 0, 77, 0
2, 276240, Note_on_c, 0, 76, 50
2, 276720, Note_off_c, 0, 76, 0
2, 276720, Note_on_c, 0, 77, 47
2, 276960, Note_off_c, 0, 77, 0
2, 276960, Note_on_c, 0, 79, 45
2, 277200, Note_off_c, 0, 79, 0
2, 277200, Note_on_c, 0, 80, 44
2, 277440, Note_off_c, 0, 80, 0
2, 277440, Note_on_c, 0, 81, 42
2, 277680, Note_off_c, 0, 81, 0
2, 277680, Note_on_c, 0, 81, 40
2, 278160, Note_off_c, 0, 81, 0
2, 278160, Note_on_c, 0, 81, 44
2, 278640, Note_off_c, 0, 81, 0
2, 278640, Note_on_c, 0, 81, 48
2, 279120, Note_off_c, 0, 81, 0
2, 279120, Note_on_c, 0, 81, 53
2, 279600, Note_off_c, 0, 81, 0
2, 279600, Note_on_c, 0, 86, 57
2, 280080, Note_off_c, 0, 86, 0
2, 280080, Note_on_c, 0, 74, 62
2, 280560, Note_off_c, 0, 74, 0
2, 280560, Note_on_c, 0, 81, 72
2, 281040, Note_off_c, 0, 81, 0
2, 281040, Note_on_c, 0, 77, 54
2, 281160, Note_off_c, 0, 77, 0
2, 281160, Note_on_c, 0, 74, 49
2, 281280, Note_off_c, 0, 74, 0
2, 281280, Note_on_c, 0, 72, 44
2, 281520, Note_off_c, 0, 72, 0
2, 281520, Note_on_c, 0, 79, 40
2, 282000, Note_off_c, 0, 79, 0
2, 282000, Note_on_c, 0, 79, 43
2, 282480, Note_off_c, 0, 79, 0
2, 282480, Note_on_c, 0, 79, 45
2, 282960, Note_off_c, 0, 79, 0
2, 282960, Note_on_c, 0, 79, 47
2, 283440, Note_off_c, 0, 79, 0
2, 283440, Note_on_c, 0, 79, 50
2, 283920, Note_off_c, 0, 79, 0
2, 283920, Note_on_c, 0, 79, 52
2, 284400, Note_off_c, 0, 79, 0
2, 284400, Note_on_c, 0, 79, 54
2, 284880, Note_off_c, 0, 79, 0
2, 284880, Note_on_c, 0, 71, 57
2, 285360, Note_off_c, 0, 71, 0
2, 285360, Note_on_c, 0, 72, 61
2, 285840, Note_off_c, 0, 72, 0
2, 285840, Note_on_c, 0, 73, 65
2, 286320, Note_off_c, 0, 73, 0
2, 286320, Note_on_c, 0, 74, 69
2, 286800, Note_off_c, 0, 74, 0
2, 286800, Note_on_c, 0, 81, 73
2, 287280, Note_off_c, 0, 81, 0
2, 287280, Note_on_c, 0, 72, 60
2, 287760, Note_off_c, 0, 72, 0
2, 287760, Note_on_c, 0, 71, 55
2, 288000, Note_off_c, 0, 71, 0
2, 288000, Note_on_c, 0, 72, 55
2, 288240, Note_off_c, 0, 72, 0
2, 288240, Note_on_c, 0, 67, 49
2, 288480, Note_off_c, 0, 67, 0
2, 288480, Note_on_c, 0, 64, 44
2, 288720, Note_off_c, 0, 64, 0
2, 288720, Note_on_c, 0, 60, 39
2, 288960, Note_off_c, 0, 60, 0
2, 289200, Note_on_c, 0, 59, 52
2, 289680, Note_off_c, 0, 59, 0
2, 289680, Note_on_c, 0, 60, 44
2, 289800, Note_off_c, 0, 60, 0
2, 290160, Note_on_c, 0, 61, 58
2, 290640, Note_off_c, 0, 61, 0
2, 290640, Note_on_c, 0, 62, 48
2, 290760, Note_off_c, 0, 62, 0
2, 291120, Note_on_c, 0, 63, 62
2, 291600, Note_off_c, 0, 63, 0
2, 291600, Note_on_c, 0, 64, 53
2, 291720, Note_off_c, 0, 64, 0
2, 292080, Note_on_c, 0, 65, 72
2, 292560, Note_off_c, 0, 65, 0
2, 292560, Note_on_c, 0, 65, 58
2, 293040, Note_off_c, 0, 65, 0
2, 293040, Note_on_c, 0, 65, 65
2, 293520, Note_off_c, 0, 65, 0
2, 293520, Note_on_c, 0, 64, 70
2, 294000, Note_off_c, 0, 64, 0
2, 294000, Note_on_c, 0, 62, 76
2, 294480, Note_off_c, 0, 62, 0
2, 294480, Note_on_c, 0, 65, 78
2, 294960, Note_off_c, 0, 65, 0
2, 294960, Note_on_c, 0, 64, 57
2, 295440, Note_off_c, 0, 64, 0
2, 295440, Note_on_c, 0, 62, 49
2, 295680, Note_off_c, 0, 62, 0
2, 295680, Note_on_c, 0, 60, 45
2, 296160, Note_off_c, 0, 60, 0
2, 296400, Note_on_c, 0, 67, 36
2, 296640, Control_c, 0, 64, 0
2, 296640, Note_off_c, 0, 67, 0
2, 296640, Note_on_c, 0, 79, 42
2, 296880, Note_off_c, 0, 79, 0
2, 296880, Note_on_c, 0, 79, 44
2, 297360, Note_off_c, 0, 79, 0
2, 297360, Note_on_c, 0, 79, 46
2, 297840, Note_off_c, 0, 79, 0
2, 297840, Note_on_c, 0, 79, 48
2, 298320, Note_off_c, 0, 79, 0
2, 298320, Note_on_c, 0, 79, 50
2, 298800, Note_off_c, 0, 79, 0
2, 298800, Note_on_c, 0, 77, 55
2, 299280, Note_off_c, 0, 77, 0
2, 299280, Note_on_c, 0, 76, 50
2, 299760, Note_off_c, 0, 76, 0
2, 299760, Note_on_c, 0, 77, 51
2, 300000, Note_off_c, 0, 77, 0
2, 300000, Note_on_c, 0, 79, 47
2, 300240, Note_off_c, 0, 79, 0
2, 300240, Note_on_c, 0, 80, 42
2, 300480, Note_off_c, 0, 80, 0
2, 300480, Note_on_c, 0, 81, 42
2, 300720, Note_off_c, 0, 81, 0
2, 300720, Note_on_c, 0, 81, 40
2, 301200, Note_off_c, 0, 81, 0
2, 301200, Note_on_c, 0, 81, 44
2, 301680, Note_off_c, 0, 81, 0
2, 301680, Note_on_c, 0, 81, 48
2, 302160, Note_off_c, 0, 81, 0
2, 302160, Note_on_c, 0, 81, 53
2, 302640, Note_off_c, 0, 81, 0
2, 302640, Note_on_c, 0, 86, 57
2, 303120, Note_off_c, 0, 86, 0
2, 303120, Note_on_c, 0, 74, 62
2, 303600, Note_off_c, 0, 74, 0
2, 303600, Note_on_c, 0, 81, 72
2, 304080, Note_off_c, 0, 81, 0
2, 304080, Note_on_c, 0, 77, 54
2, 304200, Note_off_c, 0, 77, 0
2, 304200, Note_on_c, 0, 74, 49
2, 304320, Note_off_c, 0, 74, 0
2, 304320, Note_on_c, 0, 72, 44
2, 304560, Note_off_c, 0, 72, 0
2, 304560, Note_on_c, 0, 79, 40
2, 305040, Note_off_c, 0, 79, 0
2, 305040, Note_on_c, 0, 79, 43
2, 305520, Note_off_c, 0, 79, 0
2, 305520, Note_on_c, 0, 79, 45
2, 306000, Note_off_c, 0, 79, 0
2, 306000, Note_on_c, 0, 79, 47
2, 306480, Note_off_c, 0, 79, 0
2, 306480, Note_on_c, 0, 79, 50
2, 306960, Note_off_c, 0, 79, 0
2, 306960, Note_on_c, 0, 79, 52
2, 307440, Note_off_c, 0, 79, 0
2, 307440, Note_on_c, 0, 79, 54
2, 307920, Note_off_c, 0, 79, 0
2, 307920, Note_on_c, 0, 71, 57
2, 308400, Note_off_c, 0, 71, 0
2, 308400, Note_on_c, 0, 72, 61
2, 308880, Note_off_c, 0, 72, 0
2, 308880, Note_on_c, 0, 73, 65
2, 309360, Note_off_c, 0, 73, 0
2, 309360, Note_on_c, 0, 74, 69
2, 309840, Note_off_c, 0, 74, 0
2, 309840, Note_on_c, 0, 81, 73
2, 310320, Note_off_c, 0, 81, 0
2, 310320, Note_on_c, 0, 72, 60
2, 310800, Note_off_c, 0, 72, 0
2, 310800, Note_on_c, 0, 71, 55
2, 311040, Note_off_c, 0, 71, 0
2, 311040, Note_on_c, 0, 72, 51
2, 311280, Note_off_c, 0, 72, 0
2, 311280, Note_on_c, 0, 67, 47
2, 311520, Note_off_c, 0, 67, 0
2, 311520, Note_on_c, 0, 64, 44
2, 311760, Note_off_c, 0, 64, 0
2, 311760, Note_on_c, 0, 60, 40
2, 312000, Note_off_c, 0, 60, 0
2, 312240, Note_on_c, 0, 59, 52
2, 312720, Note_off_c, 0, 59, 0
2, 312720, Note_on_c, 0, 60, 44
2, 312840, Note_off_c, 0, 60, 0
2, 313200, Note_on_c, 0, 61, 58
2, 313680, Note_off_c, 0, 61, 0
2, 313680, Note_on_c, 0, 62, 48
2, 313800, Note_off_c, 0, 62, 0
2, 314160, Note_on_c, 0, 63, 62
2, 314640, Note_off_c, 0, 63, 0
2, 314640, Note_on_c, 0, 64, 53
2, 314760, Note_off_c, 0, 64, 0
2, 315120, Note_on_c, 0, 65, 72
2, 315600, Note_off_c, 0, 65, 0
2, 315600, Note_on_c, 0, 65, 58
2, 316080, Note_off_c, 0, 65, 0
2, 316080, Note_on_c, 0, 65, 65
2, 316560, Note_off_c, 0, 65, 0
2, 316560, Note_on_c, 0, 64, 70
2, 317040, Note_off_c, 0, 64, 0
2, 317040, Note_on_c, 0, 62, 76
2, 317520, Note_off_c, 0, 62, 0
2, 317520, Note_on_c, 0, 65, 78
2, 318000, Note_off_c, 0, 65, 0
2, 318000, Note_on_c, 0, 64, 57
2, 318480, Note_off_c, 0, 64, 0
2, 318480, Note_on_c, 0, 62, 49
2, 318720, Note_off_c, 0, 62, 0
2, 318720, Note_on_c, 0, 60, 45
2, 319200, Note_off_c, 0, 60, 0
2, 319440, Note_on_c, 0, 67, 36
2, 319560, Note_off_c, 0, 67, 0
2, 319680, Control_c, 0, 64, 0
2, 319680, Note_on_c, 0, 72, 36
2, 319800, Note_off_c, 0, 72, 0
2, 319920, Note_on_c, 0, 72, 37
2, 320040, Note_off_c, 0, 72, 0
2, 320400, Note_on_c, 0, 71, 40
2, 320520, Note_off_c, 0, 71, 0
2, 320880, Note_on_c, 0, 72, 42
2, 321000, Note_off_c, 0, 72, 0
2, 321360, Note_on_c, 0, 74, 45
2, 321480, Note_off_c, 0, 74, 0
2, 321840, Note_on_c, 0, 76, 48
2, 321960, Note_off_c, 0, 76, 0
2, 322320, Note_on_c, 0, 77, 50
2, 322440, Note_off_c, 0, 77, 0
2, 322800, Note_on_c, 0, 74, 53
2, 322920, Note_off_c, 0, 74, 0
2, 323280, Note_on_c, 0, 74, 43
2, 323400, Note_off_c, 0, 74, 0
2, 323760, Note_on_c, 0, 79, 41
2, 323880, Note_off_c, 0, 79, 0
2, 324240, Note_on_c, 0, 79, 44
2, 324360, Note_off_c, 0, 79, 0
2, 324720, Note_on_c, 0, 79, 48
2, 324840, Note_off_c, 0, 79, 0
2, 325200, Note_on_c, 0, 80, 51
2, 325320, Note_off_c, 0, 80, 0
2, 325680, Note_on_c, 0, 81, 55
2, 325800, Note_off_c, 0, 81, 0
2, 326160, Note_on_c, 0, 81, 58
2, 326280, Note_off_c, 0, 81, 0
2, 326640, Note_on_c, 0, 74, 62
2, 327360, Note_off_c, 0, 74, 0
2, 327600, Note_on_c, 0, 72, 43
2, 327720, Note_off_c, 0, 72, 0
2, 328080, Note_on_c, 0, 71, 45
2, 328200, Note_off_c, 0, 71, 0
2, 328560, Note_on_c, 0, 72, 48
2, 328680, Note_off_c, 0, 72, 0
2, 329040, Note_on_c, 0, 74, 50
2, 329160, Note_off_c, 0, 74, 0
2, 329520, Note_on_c, 0, 76, 52
2, 329640, Note_off_c, 0, 76, 0
2, 330000, Note_on_c, 0, 78, 56
2, 330120, Note_off_c, 0, 78, 0
2, 330480, Note_on_c, 0, 79, 65
2, 330960, Note_off_c, 0, 79, 0
2, 330960, Note_on_c, 0, 79, 60
2, 331080, Note_off_c, 0, 79, 0
2, 331440, Note_on_c, 0, 81, 62
2, 331560, Note_off_c, 0, 81, 0
2, 331920, Note_on_c, 0, 82, 67
2, 332040, Note_off_c, 0, 82, 0
2, 332400, Note_on_c, 0, 83, 80
2, 332880, Note_off_c, 0, 83, 0
2, 332880, Note_on_c, 0, 83, 73
2, 333000, Note_off_c, 0, 83, 0
2, 333360, Note_on_c, 0, 84, 69
2, 333480, Note_off_c, 0, 84, 0
2, 333840, Note_on_c, 0, 81, 65
2, 333960, Note_off_c, 0, 81, 0
2, 334320, Note_on_c, 0, 79, 80
2, 334800, Note_off_c, 0, 79, 0
2, 334800, Note_on_c, 0, 74, 57
2, 334880, Note_off_c, 0, 74, 0
2, 334880, Note_on_c, 0, 71, 54
2, 334960, Note_off_c, 0, 71, 0
2, 334960, Note_on_c, 0, 67, 50
2, 335040, Control_c, 0, 64, 0
2, 335040, Note_off_c, 0, 67, 0
2, 335280, Note_on_c, 0, 79, 38
2, 335400, Note_off_c, 0, 79, 0
2, 335760, Note_on_c, 0, 77, 40
2, 335880, Note_off_c, 0, 77, 0
2, 336240, Note_on_c, 0, 76, 42
2, 336360, Note_off_c, 0, 76, 0
2, 336720, Note_on_c, 0, 76, 44
2, 336840, Note_off_c, 0, 76, 0
2, 337200, Note_on_c, 0, 84, 46
2, 337320, Note_off_c, 0, 84, 0
2, 337680, Note_on_c, 0, 82, 48
2, 337800, Note_off_c, 0, 82, 0
2, 338160, Note_on_c, 0, 81, 50
2, 338280, Note_off_c, 0, 81, 0
2, 338640, Note_on_c, 0, 81, 52
2, 338760, Note_off_c, 0, 81, 0
2, 339120, Note_on_c, 0, 81, 55
2, 339240, Note_off_c, 0, 81, 0
2, 339600, Note_on_c, 0, 79, 52
2, 339720, Note_off_c, 0, 79, 0
2, 340080, Note_on_c, 0, 77, 50
2, 340200, Note_off_c, 0, 77, 0
2, 340560, Note_on_c, 0, 76, 47
2, 340680, Note_off_c, 0, 76, 0
2, 341040, Note_on_c, 0, 74, 45
2, 341160, Note_off_c, 0, 74, 0
2, 341520, Note_on_c, 0, 72, 43
2, 341640, Note_off_c, 0, 72, 0
2, 342000, Note_on_c, 0, 71, 70
2, 342720, Note_off_c, 0, 71, 0
2, 342960, Note_on_c, 0, 72, 42
2, 343080, Note_off_c, 0, 72, 0
2, 343440, Note_on_c, 0, 71, 45
2, 343560, Note_off_c, 0, 71, 0
2, 343920, Note_on_c, 0, 72, 47
2, 344040, Note_off_c, 0, 72, 0
2, 344400, Note_on_c, 0, 74, 50
2, 344520, Note_off_c, 0, 74, 0
2, 344880, Note_on_c, 0, 76, 52
2, 345000, Note_off_c, 0, 76, 0
2, 345360, Note_on_c, 0, 77, 55
2, 345480, Note_off_c, 0, 77, 0
2, 345840, Note_on_c, 0, 74, 57
2, 345960, Note_off_c, 0, 74, 0
2, 346320, Note_on_c, 0, 74, 49
2, 346440, Note_off_c, 0, 74, 0
2, 346800, Note_on_c, 0, 79, 50
2, 346920, Note_off_c, 0, 79, 0
2, 347280, Note_on_c, 0, 79, 58
2, 347400, Note_off_c, 0, 79, 0
2, 347760, Note_on_c, 0, 79, 66
2, 347880, Note_off_c, 0, 79, 0
2, 348240, Note_on_c, 0, 77, 74
2, 348360, Note_off_c, 0, 77, 0
2, 348720, Note_on_c, 0, 76, 66
2, 348840, Note_off_c, 0, 76, 0
2, 349200, Note_on_c, 0, 74, 59
2, 349320, Note_off_c, 0, 74, 0
2, 349680, Note_on_c, 0, 72, 79
2, 350160, Note_off_c, 0, 72, 0
2, 350160, Note_on_c, 0, 67, 54
2, 350240, Note_off_c, 0, 67, 0
2, 350240, Note_on_c, 0, 64, 50
2, 350320, Note_off_c, 0, 64, 0
2, 350320, Note_on_c, 0, 60, 46
2, 350400, Note_off_c, 0, 60, 0
2, 350640, Note_on_c, 0, 59, 42
2, 350760, Note_off_c, 0, 59, 0
2, 351120, Note_on_c, 0, 60, 47
2, 351240, Note_off_c, 0, 60, 0
2, 351600, Note_on_c, 0, 61, 52
2, 351720, Note_off_c, 0, 61, 0
2, 352080, Note_on_c, 0, 62, 58
2, 352200, Note_off_c, 0, 62, 0
2, 352560, Note_on_c, 0, 63, 63
2, 352680, Note_off_c, 0, 63, 0
2, 353040, Note_on_c, 0, 64, 68
2, 353160, Note_off_c, 0, 64, 0
2, 353520, Note_on_c, 0, 65, 84
2, 353760, Note_off_c, 0, 65, 0
2, 353760, Note_on_c, 0, 65, 70
2, 354000, Note_off_c, 0, 65, 0
2, 354000, Note_on_c, 0, 65, 58
2, 354240, Note_off_c, 0, 65, 0
2, 354480, Note_on_c, 0, 65, 61
2, 354600, Note_off_c, 0, 65, 0
2, 354960, Note_on_c, 0, 64, 57
2, 355080, Note_off_c, 0, 64, 0
2, 355440, Note_on_c, 0, 62, 53
2, 355560, Note_off_c, 0, 62, 0
2, 355920, Note_on_c, 0, 65, 49
2, 356040, Note_off_c, 0, 65, 0
2, 356400, Note_on_c, 0, 64, 45
2, 356520, Note_off_c, 0, 64, 0
2, 356880, Note_on_c, 0, 62, 42
2, 357000, Note_off_c, 0, 62, 0
2, 357360, Note_on_c, 0, 60, 51
2, 357600, Note_off_c, 0, 60, 0
2, 357600, Note_on_c, 0, 67, 48
2, 357720, Note_off_c, 0, 67, 0
2, 357840, Note_on_c, 0, 67, 44
2, 357960, Note_off_c, 0, 67, 0
2, 358080, Control_c, 0, 64, 0
2, 358320, Note_on_c, 0, 79, 38
2, 358440, Note_off_c, 0, 79, 0
2, 358800, Note_on_c, 0, 77, 40
2, 358920, Note_off_c, 0, 77, 0
2, 359280, Note_on_c, 0, 76, 42
2, 359400, Note_off_c, 0, 76, 0
2, 359760, Note_on_c, 0, 76, 44
2, 359880, Note_off_c, 0, 76, 0
2, 360240, Note_on_c, 0, 84, 46
2, 360360, Note_off_c, 0, 84, 0
2, 360720, Note_on_c, 0, 82, 48
2, 360840, Note_off_c, 0, 82, 0
2, 361200, Note_on_c, 0, 81, 50
2, 361320, Note_off_c, 0, 81, 0
2, 361680, Note_on_c, 0, 81, 52
2, 361800, Note_off_c, 0, 81, 0
2, 362160, Note_on_c, 0, 81, 55
2, 362280, Note_off_c, 0, 81, 0
2, 362640, Note_on_c, 0, 79, 52
2, 362760, Note_off_c, 0, 79, 0
2, 363120, Note_on_c, 0, 77, 50
2, 363240, Note_off_c, 0, 77, 0
2, 363600, Note_on_c, 0, 76, 47
2, 363720, Note_off_c, 0, 76, 0
2, 364080, Note_on_c, 0, 74, 45
2, 364200, Note_off_c, 0, 74, 0
2, 364560, Note_on_c, 0, 72, 43
2, 364680, Note_off_c, 0, 72, 0
2, 365040, Note_on_c, 0, 71, 70
2, 365760, Note_off_c, 0, 71, 0
2, 366000, Note_on_c, 0, 72, 42
2, 366120, Note_off_c, 0, 72, 0
2, 366480, Note_on_c, 0, 71, 45
2, 366600, Note_off_c, 0, 71, 0
2, 366960, Note_on_c, 0, 72, 47
2, 367080, Note_off_c, 0, 72, 0
2, 367440, Note_on_c, 0, 74, 50
2, 367560, Note_off_c, 0, 74, 0
2, 367920, Note_on_c, 0, 76, 52
2, 368040, Note_off_c, 0, 76, 0
2, 368400, Note_on_c, 0, 77, 55
2, 368520, Note_off_c, 0, 77, 0
2, 368880, Note_on_c, 0, 74, 57
2, 369000, Note_off_c, 0, 74, 0
2, 369360, Note_on_c, 0, 74, 49
2, 369480, Note_off_c, 0, 74, 0
2, 369840, Note_on_c, 0, 79, 50
2, 369960, Note_off_c, 0, 79, 0
2, 370320, Note_on_c, 0, 79, 58
2, 370440, Note_off_c, 0, 79, 0
2, 370800, Note_on_c, 0, 79, 66
2, 370920, Note_off_c, 0, 79, 0
2, 371280, Note_on_c, 0, 77, 74
2, 371400, Note_off_c, 0, 77, 0
2, 371760, Note_on_c, 0, 76, 66
2, 371880, Note_off_c, 0, 76, 0
2, 372240, Note_on_c, 0, 74, 59
2, 372360, Note_off_c, 0, 74, 0
2, 372720, Note_on_c, 0, 72, 79
2, 373200, Note_off_c, 0, 72, 0
2, 373200, Note_on_c, 0, 67, 51
2, 373280, Note_off_c, 0, 67, 0
2, 373280, Note_on_c, 0, 64, 48
2, 373360, Note_off_c, 0, 64, 0
2, 373360, Note_on_c, 0, 60, 44
2, 373440, Note_off_c, 0, 60, 0
2, 373680, Note_on_c, 0, 59, 42
2, 373800, Note_off_c, 0, 59, 0
2, 374160, Note_on_c, 0, 60, 47
2, 374280, Note_off_c, 0, 60, 0
2, 374640, Note_on_c, 0, 61, 52
2, 374760, Note_off_c, 0, 61, 0
2, 375120, Note_on_c, 0, 62, 58
2, 375240, Note_off_c, 0, 62, 0
2, 375600, Note_on_c, 0, 63, 63
2, 375720, Note_off_c, 0, 63, 0
2, 376080, Note_on_c, 0, 64, 68
2, 376200, Note_off_c, 0, 64, 0
2, 376560, Note_on_c, 0, 65, 84
2, 376800, Note_off_c, 0, 65, 0
2, 376800, Note_on_c, 0, 65, 70
2, 377040, Note_off_c, 0, 65, 0
2, 377040, Note_on_c, 0, 65, 58
2, 377280, Note_off_c, 0, 65, 0
2, 377520, Note_on_c, 0, 65, 61
2, 377640, Note_off_c, 0, 65, 0
2, 378000, Note_on_c, 0, 64, 57
2, 378120, Note_off_c, 0, 64, 0
2, 378480, Note_on_c, 0, 62, 53
2, 378600, Note_off_c, 0, 62, 0
2, 378960, Note_on_c, 0, 65, 49
2, 379080, Note_off_c, 0, 65, 0
2, 379440, Note_on_c, 0, 64, 45
2, 379560, Note_off_c, 0, 64, 0
2, 379920, Note_on_c, 0, 62, 42
2, 380040, Note_off_c, 0, 62, 0
2, 380400, Note_on_c, 0, 60, 54
2, 380640, Note_off_c, 0, 60, 0
2, 380640, Note_on_c, 0, 72, 49
2, 380760, Note_off_c, 0, 72, 0
2, 380880, Note_on_c, 0, 72, 44
2, 381000, Note_off_c, 0, 72, 0
2, 381120, Control_c, 0, 64, 0
2, 381360, Note_on_c, 0, 72, 54
2, 381480, Note_off_c, 0, 72, 0
2, 381840, Note_on_c, 0, 71, 53
2, 381960, Note_off_c, 0, 71, 0
2, 382320, Note_on_c, 0, 68, 51
2, 382440, Note_off_c, 0, 68, 0
2, 382800, Note_on_c, 0, 67, 49
2, 382920, Note_off_c, 0, 67, 0
2, 383280, Note_on_c, 0, 72, 47
2, 383400, Note_off_c, 0, 72, 0
2, 383760, Note_on_c, 0, 71, 45
2, 383880, Note_off_c, 0, 71, 0
2, 384240, Note_on_c, 0, 68, 43
2, 384360, Note_off_c, 0, 68, 0
2, 384720, Note_on_c, 0, 67, 41
2, 384840, Note_off_c, 0, 67, 0
2, 385200, Note_on_c, 0, 80, 40
2, 385320, Note_off_c, 0, 80, 0
2, 385680, Note_on_c, 0, 79, 38
2, 385800, Note_off_c, 0, 79, 0
2, 386160, Note_on_c, 0, 78, 36
2, 386280, Note_off_c, 0, 78, 0
2, 386640, Note_on_c, 0, 77, 34
2, 386760, Note_off_c, 0, 77, 0
2, 387120, Note_on_c, 0, 77, 32
2, 387240, Note_off_c, 0, 77, 0
2, 387600, Note_on_c, 0, 77, 30
2, 387720, Note_off_c, 0, 77, 0
2, 388080, Note_on_c, 0, 77, 28
2, 388200, Note_off_c, 0, 77, 0
2, 388560, Note_on_c, 0, 77, 27
2, 388680, Note_off_c, 0, 77, 0
2, 389040, Note_on_c, 0, 72, 30
2, 389280, Note_off_c, 0, 72, 0
2, 389520, Note_on_c, 0, 71, 33
2, 389760, Note_off_c, 0, 71, 0
2, 390000, Note_on_c, 0, 72, 35
2, 390240, Note_off_c, 0, 72, 0
2, 390480, Note_on_c, 0, 74, 38
2, 390720, Note_off_c, 0, 74, 0
2, 390960, Note_on_c, 0, 76, 40
2, 391200, Note_off_c, 0, 76, 0
2, 391440, Note_on_c, 0, 77, 43
2, 391680, Note_off_c, 0, 77, 0
2, 391920, Note_on_c, 0, 74, 43
2, 392160, Note_off_c, 0, 74, 0
2, 392880, Note_on_c, 0, 79, 39
2, 393120, Note_off_c, 0, 79, 0
2, 393360, Note_on_c, 0, 79, 38
2, 393600, Note_off_c, 0, 79, 0
2, 393840, Note_on_c, 0, 79, 36
2, 394080, Note_off_c, 0, 79, 0
2, 394320, Note_on_c, 0, 80, 34
2, 394560, Note_off_c, 0, 80, 0
2, 394800, Note_on_c, 0, 81, 33
2, 395040, Note_off_c, 0, 81, 0
2, 395280, Note_on_c, 0, 81, 31
2, 395520, Note_off_c, 0, 81, 0
2, 395760, Note_on_c, 0, 77, 30
2, 396000, Note_off_c, 0, 77, 0
2, 396720, Note_on_c, 0, 72, 30
2, 396960, Note_off_c, 0, 72, 0
2, 397200, Note_on_c, 0, 71, 33
2, 397440, Note_off_c, 0, 71, 0
2, 397680, Note_on_c, 0, 72, 36
2, 397920, Note_off_c, 0, 72, 0
2, 398160, Note_on_c, 0, 74, 39
2, 398400, Note_off_c, 0, 74, 0
2, 398640, Note_on_c, 0, 76, 42
2, 398880, Note_off_c, 0, 76, 0
2, 399120, Note_on_c, 0, 78, 45
2, 399360, Note_off_c, 0, 78, 0
2, 399600, Note_on_c, 0, 79, 57
2, 399840, Note_off_c, 0, 79, 0
2, 400560, Note_on_c, 0, 81, 62
2, 400800, Note_off_c, 0, 81, 0
2, 401040, Note_on_c, 0, 82, 68
2, 401280, Note_off_c, 0, 82, 0
2, 401520, Note_on_c, 0, 83, 72
2, 401760, Note_off_c, 0, 83, 0
2, 404400, Note_on_c, 0, 79, 35
2, 404640, Note_off_c, 0, 79, 0
2, 404880, Note_on_c, 0, 77, 38
2, 405120, Note_off_c, 0, 77, 0
2, 405360, Note_on_c, 0, 76, 41
2, 405600, Note_off_c, 0, 76, 0
2, 405840, Note_on_c, 0, 76, 44
2, 406080, Note_off_c, 0, 76, 0
2, 406320, Note_on_c, 0, 84, 47
2, 406560, Note_off_c, 0, 84, 0
2, 406800, Note_on_c, 0, 82, 50
2, 407040, Note_off_c, 0, 82, 0
2, 407280, Note_on_c, 0, 81, 45
2, 407520, Note_off_c, 0, 81, 0
2, 408240, Note_on_c, 0, 81, 37
2, 408480, Note_off_c, 0, 81, 0
2, 408720, Note_on_c, 0, 79, 39
2, 408960, Note_off_c, 0, 79, 0
2, 409200, Note_on_c, 0, 77, 40
2, 409440, Note_off_c, 0, 77, 0
2, 409680, Note_on_c, 0, 76, 42
2, 409920, Note_off_c, 0, 76, 0
2, 410160, Note_on_c, 0, 74, 44
2, 410400, Note_off_c, 0, 74, 0
2, 410640, Note_on_c, 0, 72, 46
2, 410880, Note_off_c, 0, 72, 0
2, 411120, Note_on_c, 0, 72, 46
2, 411360, Note_off_c, 0, 72, 0
2, 412080, Note_on_c, 0, 72, 37
2, 412320, Note_off_c, 0, 72, 0
2, 412560, Note_on_c, 0, 71, 38
2, 412800, Note_off_c, 0, 71, 0
2, 413040, Note_on_c, 0, 72, 40
2, 413280, Note_off_c, 0, 72, 0
2, 413520, Note_on_c, 0, 74, 41
2, 413760, Note_off_c, 0, 74, 0
2, 414000, Note_on_c, 0, 76, 43
2, 414240, Note_off_c, 0, 76, 0
2, 414480, Note_on_c, 0, 77, 45
2, 414720, Note_off_c, 0, 77, 0
2, 414960, Note_on_c, 0, 74, 46
2, 415200, Note_off_c, 0, 74, 0
2, 415920, Note_on_c, 0, 79, 49
2, 416160, Note_off_c, 0, 79, 0
2, 416400, Note_on_c, 0, 79, 53
2, 416640, Note_off_c, 0, 79, 0
2, 416880, Note_on_c, 0, 79, 56
2, 417120, Note_off_c, 0, 79, 0
2, 417360, Note_on_c, 0, 77, 59
2, 417600, Note_off_c, 0, 77, 0
2, 417840, Note_on_c, 0, 76, 62
2, 418080, Note_off_c, 0, 76, 0
2, 418320, Note_on_c, 0, 74, 66
2, 418560, Note_off_c, 0, 74, 0
2, 418800, Note_on_c, 0, 72, 58
2, 419040, Note_off_c, 0, 72, 0
2, 419760, Note_on_c, 0, 59, 43
2, 420000, Note_off_c, 0, 59, 0
2, 420240, Note_on_c, 0, 60, 46
2, 420480, Note_off_c, 0, 60, 0
2, 420720, Note_on_c, 0, 61, 48
2, 420960, Note_off_c, 0, 61, 0
2, 421200, Note_on_c, 0, 62, 51
2, 421440, Note_off_c, 0, 62, 0
2, 421680, Note_on_c, 0, 63, 54
2, 421920, Note_off_c, 0, 63, 0
2, 422160, Note_on_c, 0, 64, 57
2, 422400, Note_off_c, 0, 64, 0
2, 422640, Note_on_c, 0, 65, 61
2, 422880, Note_off_c, 0, 65, 0
2, 423120, Note_on_c, 0, 65, 56
2, 423360, Note_off_c, 0, 65, 0
2, 423600, Note_on_c, 0, 65, 52
2, 423840, Note_off_c, 0, 65, 0
2, 424080, Note_on_c, 0, 64, 51
2, 424320, Note_off_c, 0, 64, 0
2, 424560, Note_on_c, 0, 62, 49
2, 424800, Note_off_c, 0, 62, 0
2, 425040, Note_on_c, 0, 65, 48
2, 425280, Note_off_c, 0, 65, 0
2, 425520, Note_on_c, 0, 64, 46
2, 425760, Note_off_c, 0, 64, 0
2, 426000, Note_on_c, 0, 62, 45
2, 426240, Note_off_c, 0, 62, 0
2, 427200, Note_on_c, 0, 72, 43
2, 427320, Note_off_c, 0, 72, 0
2, 427680, Note_on_c, 0, 71, 42
2, 427800, Note_off_c, 0, 71, 0
2, 428160, Note_on_c, 0, 72, 41
2, 428280, Note_off_c, 0, 72, 0
2, 428640, Note_on_c, 0, 74, 40
2, 428760, Note_off_c, 0, 74, 0
2, 429120, Note_on_c, 0, 76, 39
2, 429240, Note_off_c, 0, 76, 0
2, 429600, Note_on_c, 0, 77, 38
2, 429720, Note_off_c, 0, 77, 0
2, 430080, Note_on_c, 0, 74, 37
2, 430236, Note_off_c, 0, 74, 0
2, 431040, Note_on_c, 0, 79, 35
2, 431160, Note_off_c, 0, 79, 0
2, 431520, Note_on_c, 0, 79, 34
2, 431640, Note_off_c, 0, 79, 0
2, 432000, Note_on_c, 0, 79, 33
2, 432120, Note_off_c, 0, 79, 0
2, 432480, Note_on_c, 0, 80, 32
2, 432600, Note_off_c, 0, 80, 0
2, 432960, Note_on_c, 0, 81, 31
2, 433152, Note_off_c, 0, 81, 0
2, 433920, Note_on_c, 0, 65, 29
2, 434112, Note_off_c, 0, 65, 0
2, 434880, Note_on_c, 0, 76, 26
2, 435072, Note_off_c, 0, 76, 0
2, 435840, Note_on_c, 0, 62, 24
2, 436032, Note_off_c, 0, 62, 0
2, 436800, Note_on_c, 0, 84, 78
2, 437280, Note_off_c, 0, 84, 0
2, 438240, Control_c, 0, 64, 0
2, 438720, Control_c, 0, 7, 127
2, 438720, Pitch_bend_c, 0, 8192
2, 438720, Control_c, 0, 1, 0
2, 438720, Control_c, 0, 64, 0
2, 438720, Control_c, 0, 93, 28
2, 438720, Control_c, 0, 91, 91
2, 438720, Control_c, 0, 10, 73
2, 438720, Control_c, 0, 0, 0
2, 438720, Control_c, 0, 32, 0
2, 438720, Program_c, 0, 0
2, 439920, Note_on_c, 0, 59, 36
2, 440040, Note_off_c, 0, 59, 0
2, 440040, Note_on_c, 0, 60, 36
2, 440160, Note_off_c, 0, 60, 0
2, 440160, Note_on_c, 0, 62, 37
2, 440280, Note_off_c, 0, 62, 0
2, 440400, Note_on_c, 0, 64, 39
2, 440520, Note_off_c, 0, 64, 0
2, 440520, Note_on_c, 0, 65, 40
2, 440640, Note_off_c, 0, 65, 0
2, 440640, Note_on_c, 0, 67, 41
2, 440760, Note_off_c, 0, 67, 0
2, 440880, Note_on_c, 0, 69, 43
2, 441000, Note_off_c, 0, 69, 0
2, 441000, Note_on_c, 0, 71, 44
2, 441120, Note_off_c, 0, 71, 0
2, 441120, Note_on_c, 0, 72, 44
2, 441240, Note_off_c, 0, 72, 0
2, 441360, Note_on_c, 0, 73, 46
2, 441480, Note_off_c, 0, 73, 0
2, 441600, Note_on_c, 0, 74, 53
2, 442080, Note_off_c, 0, 74, 0
2, 442080, Note_on_c, 0, 76, 42
2, 442200, Note_off_c, 0, 76, 0
2, 442200, Note_on_c, 0, 73, 40
2, 442320, Note_off_c, 0, 73, 0
2, 442320, Note_on_c, 0, 74, 38
2, 442440, Note_off_c, 0, 74, 0
2, 442800, Note_on_c, 0, 71, 42
2, 442920, Note_off_c, 0, 71, 0
2, 442920, Note_on_c, 0, 72, 43
2, 443040, Note_off_c, 0, 72, 0
2, 443040, Note_on_c, 0, 74, 44
2, 443160, Note_off_c, 0, 74, 0
2, 443280, Note_on_c, 0, 76, 47
2, 443400, Note_off_c, 0, 76, 0
2, 443400, Note_on_c, 0, 78, 48
2, 443520, Note_off_c, 0, 78, 0
2, 443520, Note_on_c, 0, 79, 49
2, 443640, Note_off_c, 0, 79, 0
2, 443760, Note_on_c, 0, 81, 52
2, 443880, Note_off_c, 0, 81, 0
2, 443880, Note_on_c, 0, 83, 53
2, 444000, Note_off_c, 0, 83, 0
2, 444000, Note_on_c, 0, 84, 54
2, 444120, Note_off_c, 0, 84, 0
2, 444240, Note_on_c, 0, 85, 61
2, 444360, Note_off_c, 0, 85, 0
2, 444420, Note_on_c, 0, 74, 63
2, 444480, Note_off_c, 0, 74, 0
2, 444480, Note_on_c, 0, 86, 67
2, 444960, Note_off_c, 0, 86, 0
2, 444960, Note_on_c, 0, 84, 56
2, 445080, Note_off_c, 0, 84, 0
2, 445080, Note_on_c, 0, 81, 54
2, 445200, Note_off_c, 0, 81, 0
2, 445200, Note_on_c, 0, 79, 51
2, 445320, Note_off_c, 0, 79, 0
2, 445680, Note_on_c, 0, 62, 38
2, 445760, Note_off_c, 0, 62, 0
2, 445760, Note_on_c, 0, 64, 39
2, 445840, Note_off_c, 0, 64, 0
2, 445840, Note_on_c, 0, 66, 40
2, 445920, Note_off_c, 0, 66, 0
2, 445920, Note_on_c, 0, 67, 40
2, 446000, Note_off_c, 0, 67, 0
2, 446000, Note_on_c, 0, 69, 41
2, 446080, Note_off_c, 0, 69, 0
2, 446080, Note_on_c, 0, 71, 42
2, 446160, Note_off_c, 0, 71, 0
2, 446160, Note_on_c, 0, 72, 43
2, 446280, Note_off_c, 0, 72, 0
2, 446880, Note_on_c, 0, 84, 49
2, 447000, Note_off_c, 0, 84, 0
2, 447120, Note_on_c, 0, 62, 51
2, 447200, Note_off_c, 0, 62, 0
2, 447200, Note_on_c, 0, 64, 52
2, 447280, Note_off_c, 0, 64, 0
2, 447280, Note_on_c, 0, 66, 53
2, 447360, Note_off_c, 0, 66, 0
2, 447360, Note_on_c, 0, 67, 54
2, 447440, Note_off_c, 0, 67, 0
2, 447440, Note_on_c, 0, 69, 54
2, 447520, Note_off_c, 0, 69, 0
2, 447520, Note_on_c, 0, 71, 55
2, 447600, Note_off_c, 0, 71, 0
2, 447600, Note_on_c, 0, 72, 56
2, 447720, Note_off_c, 0, 72, 0
2, 448320, Note_on_c, 0, 84, 62
2, 448440, Note_off_c, 0, 84, 0
2, 448560, Note_on_c, 0, 62, 65
2, 448640, Note_off_c, 0, 62, 0
2, 448640, Note_on_c, 0, 64, 65
2, 448720, Note_off_c, 0, 64, 0
2, 448720, Note_on_c, 0, 66, 68
2, 448800, Note_off_c, 0, 66, 0
2, 448800, Note_on_c, 0, 67, 68
2, 448880, Note_off_c, 0, 67, 0
2, 448880, Note_on_c, 0, 69, 69
2, 448960, Note_off_c, 0, 69, 0
2, 448960, Note_on_c, 0, 71, 70
2, 449040, Note_off_c, 0, 71, 0
2, 449040, Note_on_c, 0, 72, 70
2, 449120, Note_off_c, 0, 72, 0
2, 449120, Note_on_c, 0, 74, 71
2, 449200, Note_off_c, 0, 74, 0
2, 449200, Note_on_c, 0, 76, 71
2, 449280, Note_off_c, 0, 76, 0
2, 449280, Note_on_c, 0, 78, 72
2, 449340, Note_off_c, 0, 78, 0
2, 449340, Note_on_c, 0, 79, 73
2, 449400, Note_off_c, 0, 79, 0
2, 449400, Note_on_c, 0, 81, 73
2, 449460, Note_off_c, 0, 81, 0
2, 449460, Note_on_c, 0, 83, 73
2, 449520, Note_off_c, 0, 83, 0
2, 449520, Note_on_c, 0, 84, 74
2, 449640, Note_off_c, 0, 84, 0
2, 449760, Note_on_c, 0, 84, 77
2, 449880, Note_off_c, 0, 84, 0
2, 450000, Note_on_c, 0, 84, 79
2, 450120, Note_off_c, 0, 84, 0
2, 450240, Note_on_c, 0, 84, 81
2, 450360, Note_off_c, 0, 84, 0
2, 450480, Note_on_c, 0, 81, 83
2, 450600, Note_off_c, 0, 81, 0
2, 450720, Note_on_c, 0, 79, 86
2, 450840, Note_off_c, 0, 79, 0
2, 450960, Note_on_c, 0, 78, 92
2, 452400, Note_off_c, 0, 78, 0
2, 452880, Note_on_c, 0, 71, 38
2, 453000, Note_off_c, 0, 71, 0
2, 453000, Note_on_c, 0, 72, 39
2, 453120, Note_off_c, 0, 72, 0
2, 453120, Note_on_c, 0, 74, 40
2, 453240, Note_off_c, 0, 74, 0
2, 453360, Note_on_c, 0, 76, 41
2, 453480, Note_off_c, 0, 76, 0
2, 453480, Note_on_c, 0, 78, 42
2, 453600, Note_off_c, 0, 78, 0
2, 453600, Note_on_c, 0, 79, 43
2, 453720, Note_off_c, 0, 79, 0
2, 453840, Note_on_c, 0, 81, 44
2, 453960, Note_off_c, 0, 81, 0
2, 453960, Note_on_c, 0, 83, 45
2, 454080, Note_off_c, 0, 83, 0
2, 454080, Note_on_c, 0, 84, 46
2, 454200, Note_off_c, 0, 84, 0
2, 454320, Note_on_c, 0, 85, 50
2, 454440, Note_off_c, 0, 85, 0
2, 454560, Note_on_c, 0, 86, 54
2, 455040, Note_off_c, 0, 86, 0
2, 455040, Note_on_c, 0, 88, 45
2, 455160, Note_off_c, 0, 88, 0
2, 455160, Note_on_c, 0, 85, 44
2, 455280, Note_off_c, 0, 85, 0
2, 455280, Note_on_c, 0, 86, 43
2, 455400, Note_off_c, 0, 86, 0
2, 455760, Note_on_c, 0, 84, 40
2, 455880, Note_off_c, 0, 84, 0
2, 455880, Note_on_c, 0, 81, 40
2, 456000, Note_off_c, 0, 81, 0
2, 456000, Note_on_c, 0, 79, 39
2, 456120, Note_off_c, 0, 79, 0
2, 456480, Note_on_c, 0, 81, 36
2, 456600, Note_off_c, 0, 81, 0
2, 456600, Note_on_c, 0, 78, 35
2, 456720, Note_off_c, 0, 78, 0
2, 456720, Note_on_c, 0, 79, 34
2, 456840, Note_off_c, 0, 79, 0
2, 457440, Note_on_c, 0, 71, 71
2, 458160, Note_off_c, 0, 71, 0
2, 458160, Note_on_c, 0, 71, 61
2, 458240, Note_off_c, 0, 71, 0
2, 458240, Note_on_c, 0, 75, 61
2, 458320, Note_off_c, 0, 75, 0
2, 458320, Note_on_c, 0, 78, 60
2, 458400, Note_off_c, 0, 78, 0
2, 458400, Note_on_c, 0, 83, 60
2, 458480, Note_off_c, 0, 83, 0
2, 458480, Note_on_c, 0, 81, 59
2, 458560, Note_off_c, 0, 81, 0
2, 458560, Note_on_c, 0, 79, 59
2, 458640, Note_off_c, 0, 79, 0
2, 458640, Note_on_c, 0, 78, 58
2, 458720, Note_off_c, 0, 78, 0
2, 458720, Note_on_c, 0, 76, 58
2, 458800, Note_off_c, 0, 76, 0
2, 458800, Note_on_c, 0, 75, 57
2, 458880, Note_off_c, 0, 75, 0
2, 458880, Note_on_c, 0, 76, 57
2, 458960, Note_on_c, 0, 71, 56
2, 459040, Note_off_c, 0, 71, 0
2, 459040, Note_on_c, 0, 79, 56
2, 459120, Note_off_c, 0, 79, 0
2, 459120, Note_off_c, 0, 76, 0
2, 459120, Note_on_c, 0, 76, 55
2, 459200, Note_on_c, 0, 71, 55
2, 459280, Note_off_c, 0, 71, 0
2, 459280, Note_on_c, 0, 79, 54
2, 459360, Note_off_c, 0, 79, 0
2, 459360, Note_off_c, 0, 76, 0
2, 459360, Note_on_c, 0, 78, 54
2, 459440, Note_on_c, 0, 71, 53
2, 459520, Note_off_c, 0, 71, 0
2, 459520, Note_on_c, 0, 81, 53
2, 459600, Note_off_c, 0, 81, 0
2, 459600, Note_off_c, 0, 78, 0
2, 459600, Note_on_c, 0, 79, 52
2, 459720, Note_off_c, 0, 79, 0
2, 460320, Note_on_c, 0, 71, 77
2, 461040, Note_off_c, 0, 71, 0
2, 461040, Note_on_c, 0, 71, 72
2, 461120, Note_off_c, 0, 71, 0
2, 461120, Note_on_c, 0, 75, 72
2, 461200, Note_off_c, 0, 75, 0
2, 461200, Note_on_c, 0, 78, 71
2, 461280, Note_off_c, 0, 78, 0
2, 461280, Note_on_c, 0, 83, 71
2, 461360, Note_off_c, 0, 83, 0
2, 461360, Note_on_c, 0, 81, 71
2, 461440, Note_off_c, 0, 81, 0
2, 461440, Note_on_c, 0, 79, 70
2, 461520, Note_off_c, 0, 79, 0
2, 461520, Note_on_c, 0, 78, 70
2, 461600, Note_off_c, 0, 78, 0
2, 461600, Note_on_c, 0, 76, 69
2, 461680, Note_off_c, 0, 76, 0
2, 461680, Note_on_c, 0, 75, 69
2, 461760, Note_off_c, 0, 75, 0
2, 461760, Note_on_c, 0, 76, 68
2, 461840, Note_on_c, 0, 79, 68
2, 461920, Note_off_c, 0, 79, 0
2, 461920, Note_on_c, 0, 73, 68
2, 462000, Note_off_c, 0, 73, 0
2, 462000, Note_off_c, 0, 76, 0
2, 462000, Note_on_c, 0, 74, 67
2, 462080, Note_on_c, 0, 78, 67
2, 462160, Note_off_c, 0, 78, 0
2, 462160, Note_on_c, 0, 71, 66
2, 462240, Note_off_c, 0, 71, 0
2, 462240, Note_off_c, 0, 74, 0
2, 462240, Note_on_c, 0, 73, 66
2, 462320, Note_on_c, 0, 76, 66
2, 462400, Note_off_c, 0, 76, 0
2, 462400, Note_on_c, 0, 70, 65
2, 462480, Note_off_c, 0, 70, 0
2, 462480, Note_off_c, 0, 73, 0
2, 462480, Note_on_c, 0, 71, 65
2, 462600, Note_off_c, 0, 71, 0
2, 463200, Note_on_c, 0, 71, 88
2, 463920, Note_off_c, 0, 71, 0
2, 463920, Note_on_c, 0, 71, 75
2, 464000, Note_off_c, 0, 71, 0
2, 464000, Note_on_c, 0, 75, 75
2, 464080, Note_off_c, 0, 75, 0
2, 464080, Note_on_c, 0, 78, 74
2, 464160, Note_off_c, 0, 78, 0
2, 464160, Note_on_c, 0, 83, 73
2, 464240, Note_off_c, 0, 83, 0
2, 464240, Note_on_c, 0, 81, 73
2, 464320, Note_off_c, 0, 81, 0
2, 464320, Note_on_c, 0, 79, 72
2, 464400, Note_off_c, 0, 79, 0
2, 464400, Note_on_c, 0, 78, 72
2, 464480, Note_off_c, 0, 78, 0
2, 464480, Note_on_c, 0, 76, 71
2, 464560, Note_off_c, 0, 76, 0
2, 464560, Note_on_c, 0, 75, 71
2, 464640, Note_off_c, 0, 75, 0
2, 464640, Note_on_c, 0, 76, 70
2, 464720, Note_on_c, 0, 82, 70
2, 464800, Note_off_c, 0, 82, 0
2, 464800, Note_on_c, 0, 83, 69
2, 464880, Note_off_c, 0, 83, 0
2, 464880, Note_off_c, 0, 76, 0
2, 464880, Note_on_c, 0, 76, 68
2, 464960, Note_on_c, 0, 82, 68
2, 465040, Note_off_c, 0, 82, 0
2, 465040, Note_on_c, 0, 83, 67
2, 465120, Note_off_c, 0, 83, 0
2, 465120, Note_off_c, 0, 76, 0
2, 465120, Note_on_c, 0, 78, 67
2, 465200, Note_on_c, 0, 82, 66
2, 465280, Note_off_c, 0, 82, 0
2, 465280, Note_on_c, 0, 83, 66
2, 465360, Note_off_c, 0, 83, 0
2, 465360, Note_off_c, 0, 78, 0
2, 465360, Note_on_c, 0, 79, 65
2, 465480, Note_off_c, 0, 79, 0
2, 466080, Note_on_c, 0, 76, 95
2, 466800, Note_off_c, 0, 76, 0
2, 466800, Note_on_c, 0, 76, 80
2, 466880, Note_off_c, 0, 76, 0
2, 466880, Note_on_c, 0, 80, 78
2, 466960, Note_off_c, 0, 80, 0
2, 466960, Note_on_c, 0, 83, 77
2, 467040, Note_off_c, 0, 83, 0
2, 467040, Note_on_c, 0, 88, 76
2, 467120, Note_off_c, 0, 88, 0
2, 467120, Note_on_c, 0, 86, 75
2, 467200, Note_off_c, 0, 86, 0
2, 467200, Note_on_c, 0, 84, 73
2, 467280, Note_off_c, 0, 84, 0
2, 467280, Note_on_c, 0, 83, 72
2, 467360, Note_off_c, 0, 83, 0
2, 467360, Note_on_c, 0, 81, 71
2, 467440, Note_off_c, 0, 81, 0
2, 467440, Note_on_c, 0, 80, 70
2, 467520, Note_off_c, 0, 80, 0
2, 467520, Note_on_c, 0, 81, 68
2, 467600, Note_on_c, 0, 87, 67
2, 467680, Note_off_c, 0, 87, 0
2, 467680, Note_on_c, 0, 88, 66
2, 467760, Note_off_c, 0, 88, 0
2, 467760, Note_off_c, 0, 81, 0
2, 467760, Note_on_c, 0, 81, 65
2, 467840, Note_on_c, 0, 87, 64
2, 467920, Note_off_c, 0, 87, 0
2, 467920, Note_on_c, 0, 88, 62
2, 468000, Note_off_c, 0, 88, 0
2, 468000, Note_off_c, 0, 81, 0
2, 468000, Note_on_c, 0, 83, 61
2, 468080, Note_on_c, 0, 87, 60
2, 468160, Note_off_c, 0, 87, 0
2, 468160, Note_on_c, 0, 88, 59
2, 468240, Note_off_c, 0, 88, 0
2, 468240, Note_off_c, 0, 83, 0
2, 468240, Note_on_c, 0, 84, 57
2, 468360, Note_off_c, 0, 84, 0
2, 468960, Note_on_c, 0, 84, 38
2, 469080, Note_off_c, 0, 84, 0
2, 469680, Note_on_c, 0, 72, 28
2, 469800, Note_off_c, 0, 72, 0
2, 470880, Note_on_c, 0, 59, 37
2, 471000, Note_off_c, 0, 59, 0
2, 471000, Note_on_c, 0, 60, 37
2, 471120, Note_off_c, 0, 60, 0
2, 471120, Note_on_c, 0, 62, 38
2, 471240, Note_off_c, 0, 62, 0
2, 471360, Note_on_c, 0, 64, 39
2, 471480, Note_off_c, 0, 64, 0
2, 471480, Note_on_c, 0, 65, 40
2, 471600, Note_off_c, 0, 65, 0
2, 471600, Note_on_c, 0, 67, 41
2, 471720, Note_off_c, 0, 67, 0
2, 471840, Note_on_c, 0, 69, 42
2, 471960, Note_off_c, 0, 69, 0
2, 471960, Note_on_c, 0, 71, 43
2, 472080, Note_off_c, 0, 71, 0
2, 472080, Note_on_c, 0, 72, 44
2, 472200, Note_off_c, 0, 72, 0
2, 472320, Note_on_c, 0, 73, 47
2, 472440, Note_off_c, 0, 73, 0
2, 472560, Note_on_c, 0, 74, 51
2, 473040, Note_off_c, 0, 74, 0
2, 473040, Note_on_c, 0, 76, 42
2, 473160, Note_off_c, 0, 76, 0
2, 473160, Note_on_c, 0, 73, 40
2, 473280, Note_off_c, 0, 73, 0
2, 473280, Note_on_c, 0, 74, 38
2, 473400, Note_off_c, 0, 74, 0
2, 473760, Note_on_c, 0, 71, 46
2, 473880, Note_off_c, 0, 71, 0
2, 473880, Note_on_c, 0, 72, 48
2, 474000, Note_off_c, 0, 72, 0
2, 474000, Note_on_c, 0, 74, 49
2, 474120, Note_off_c, 0, 74, 0
2, 474240, Note_on_c, 0, 76, 52
2, 474360, Note_off_c, 0, 76, 0
2, 474360, Note_on_c, 0, 78, 53
2, 474480, Note_off_c, 0, 78, 0
2, 474480, Note_on_c, 0, 79, 55
2, 474600, Note_off_c, 0, 79, 0
2, 474720, Note_on_c, 0, 81, 57
2, 474840, Note_off_c, 0, 81, 0
2, 474840, Note_on_c, 0, 83, 59
2, 474960, Note_off_c, 0, 83, 0
2, 474960, Note_on_c, 0, 84, 60
2, 475080, Note_off_c, 0, 84, 0
2, 475200, Note_on_c, 0, 85, 63
2, 475320, Note_off_c, 0, 85, 0
2, 475380, Note_on_c, 0, 74, 66
2, 475440, Note_off_c, 0, 74, 0
2, 475440, Note_on_c, 0, 86, 70
2, 475920, Note_off_c, 0, 86, 0
2, 475920, Note_on_c, 0, 84, 56
2, 476040, Note_off_c, 0, 84, 0
2, 476040, Note_on_c, 0, 81, 54
2, 476160, Note_off_c, 0, 81, 0
2, 476160, Note_on_c, 0, 79, 51
2, 476280, Note_off_c, 0, 79, 0
2, 476640, Note_on_c, 0, 62, 34
2, 476720, Note_off_c, 0, 62, 0
2, 476720, Note_on_c, 0, 64, 34
2, 476800, Note_off_c, 0, 64, 0
2, 476800, Note_on_c, 0, 66, 35
2, 476880, Note_off_c, 0, 66, 0
2, 476880, Note_on_c, 0, 67, 36
2, 476960, Note_off_c, 0, 67, 0
2, 476960, Note_on_c, 0, 69, 36
2, 477040, Note_off_c, 0, 69, 0
2, 477040, Note_on_c, 0, 71, 37
2, 477120, Note_off_c, 0, 71, 0
2, 477120, Note_on_c, 0, 72, 37
2, 477240, Note_off_c, 0, 72, 0
2, 477840, Note_on_c, 0, 84, 42
2, 477960, Note_off_c, 0, 84, 0
2, 478080, Note_on_c, 0, 62, 44
2, 478160, Note_off_c, 0, 62, 0
2, 478160, Note_on_c, 0, 64, 44
2, 478240, Note_off_c, 0, 64, 0
2, 478240, Note_on_c, 0, 66, 45
2, 478320, Note_off_c, 0, 66, 0
2, 478320, Note_on_c, 0, 67, 46
2, 478400, Note_off_c, 0, 67, 0
2, 478400, Note_on_c, 0, 69, 46
2, 478480, Note_off_c, 0, 69, 0
2, 478480, Note_on_c, 0, 71, 47
2, 478560, Note_off_c, 0, 71, 0
2, 478560, Note_on_c, 0, 72, 47
2, 478680, Note_off_c, 0, 72, 0
2, 479280, Note_on_c, 0, 84, 52
2, 479400, Note_off_c, 0, 84, 0
2, 479520, Note_on_c, 0, 62, 54
2, 479600, Note_off_c, 0, 62, 0
2, 479600, Note_on_c, 0, 64, 55
2, 479680, Note_off_c, 0, 64, 0
2, 479680, Note_on_c, 0, 66, 55
2, 479760, Note_off_c, 0, 66, 0
2, 479760, Note_on_c, 0, 67, 55
2, 479840, Note_off_c, 0, 67, 0
2, 479840, Note_on_c, 0, 69, 56
2, 479920, Note_off_c, 0, 69, 0
2, 479920, Note_on_c, 0, 71, 57
2, 480000, Note_off_c, 0, 71, 0
2, 480000, Note_on_c, 0, 72, 58
2, 480080, Note_off_c, 0, 72, 0
2, 480080, Note_on_c, 0, 74, 59
2, 480160, Note_off_c, 0, 74, 0
2, 480160, Note_on_c, 0, 76, 60
2, 480240, Note_off_c, 0, 76, 0
2, 480240, Note_on_c, 0, 78, 61
2, 480300, Note_off_c, 0, 78, 0
2, 480300, Note_on_c, 0, 79, 62
2, 480360, Note_off_c, 0, 79, 0
2, 480360, Note_on_c, 0, 81, 63
2, 480420, Note_off_c, 0, 81, 0
2, 480420, Note_on_c, 0, 83, 64
2, 480480, Note_off_c, 0, 83, 0
2, 480480, Note_on_c, 0, 84, 65
2, 480600, Note_off_c, 0, 84, 0
2, 480720, Note_on_c, 0, 84, 68
2, 480840, Note_off_c, 0, 84, 0
2, 480960, Note_on_c, 0, 84, 71
2, 481080, Note_off_c, 0, 84, 0
2, 481200, Note_on_c, 0, 84, 74
2, 481320, Note_off_c, 0, 84, 0
2, 481440, Note_on_c, 0, 81, 78
2, 481560, Note_off_c, 0, 81, 0
2, 481680, Note_on_c, 0, 79, 81
2, 481800, Note_off_c, 0, 79, 0
2, 481920, Note_on_c, 0, 78, 84
2, 483360, Note_off_c, 0, 78, 0
2, 483840, Note_on_c, 0, 71, 33
2, 483960, Note_off_c, 0, 71, 0
2, 483960, Note_on_c, 0, 72, 34
2, 484080, Note_off_c, 0, 72, 0
2, 484080, Note_on_c, 0, 74, 35
2, 484200, Note_off_c, 0, 74, 0
2, 484320, Note_on_c, 0, 76, 36
2, 484440, Note_off_c, 0, 76, 0
2, 484440, Note_on_c, 0, 78, 37
2, 484560, Note_off_c, 0, 78, 0
2, 484560, Note_on_c, 0, 79, 38
2, 484680, Note_off_c, 0, 79, 0
2, 484800, Note_on_c, 0, 81, 40
2, 484920, Note_off_c, 0, 81, 0
2, 484920, Note_on_c, 0, 83, 41
2, 485040, Note_off_c, 0, 83, 0
2, 485040, Note_on_c, 0, 84, 42
2, 485160, Note_off_c, 0, 84, 0
2, 485280, Note_on_c, 0, 85, 47
2, 485400, Note_off_c, 0, 85, 0
2, 485520, Note_on_c, 0, 86, 52
2, 486000, Note_off_c, 0, 86, 0
2, 486000, Note_on_c, 0, 88, 44
2, 486120, Note_off_c, 0, 88, 0
2, 486120, Note_on_c, 0, 85, 44
2, 486240, Note_off_c, 0, 85, 0
2, 486240, Note_on_c, 0, 86, 43
2, 486360, Note_off_c, 0, 86, 0
2, 486720, Note_on_c, 0, 84, 40
2, 486840, Note_off_c, 0, 84, 0
2, 486840, Note_on_c, 0, 81, 39
2, 486960, Note_off_c, 0, 81, 0
2, 486960, Note_on_c, 0, 79, 38
2, 487080, Note_off_c, 0, 79, 0
2, 487440, Note_on_c, 0, 81, 35
2, 487560, Note_off_c, 0, 81, 0
2, 487560, Note_on_c, 0, 78, 34
2, 487680, Note_off_c, 0, 78, 0
2, 487680, Note_on_c, 0, 79, 33
2, 487800, Note_off_c, 0, 79, 0
2, 488880, Note_on_c, 0, 67, 36
2, 489000, Note_off_c, 0, 67, 0
2, 489120, Note_on_c, 0, 79, 38
2, 489240, Note_off_c, 0, 79, 0
2, 490320, Note_on_c, 0, 67, 45
2, 490440, Note_off_c, 0, 67, 0
2, 490560, Note_on_c, 0, 79, 46
2, 490680, Note_off_c, 0, 79, 0
2, 491520, Note_on_c, 0, 55, 52
2, 491600, Note_off_c, 0, 55, 0
2, 491600, Note_on_c, 0, 57, 52
2, 491680, Note_off_c, 0, 57, 0
2, 491680, Note_on_c, 0, 59, 53
2, 491760, Note_off_c, 0, 59, 0
2, 491760, Note_on_c, 0, 60, 53
2, 491840, Note_off_c, 0, 60, 0
2, 491840, Note_on_c, 0, 62, 54
2, 491920, Note_off_c, 0, 62, 0
2, 491920, Note_on_c, 0, 64, 54
2, 492000, Note_off_c, 0, 64, 0
2, 492000, Note_on_c, 0, 65, 55
2, 492120, Note_off_c, 0, 65, 0
2, 492480, Note_on_c, 0, 67, 58
2, 492560, Note_off_c, 0, 67, 0
2, 492560, Note_on_c, 0, 69, 59
2, 492640, Note_off_c, 0, 69, 0
2, 492640, Note_on_c, 0, 71, 60
2, 492720, Note_off_c, 0, 71, 0
2, 492720, Note_on_c, 0, 72, 61
2, 492800, Note_off_c, 0, 72, 0
2, 492800, Note_on_c, 0, 74, 62
2, 492880, Note_off_c, 0, 74, 0
2, 492880, Note_on_c, 0, 76, 63
2, 492960, Note_off_c, 0, 76, 0
2, 492960, Note_on_c, 0, 77, 64
2, 493440, Note_off_c, 0, 77, 0
2, 493440, Note_on_c, 0, 75, 53
2, 494160, Note_off_c, 0, 75, 0
2, 494160, Note_on_c, 0, 76, 46
2, 494880, Note_off_c, 0, 76, 0
2, 494880, Note_on_c, 0, 77, 51
2, 495360, Note_off_c, 0, 77, 0
2, 495360, Note_on_c, 0, 79, 55
2, 495420, Note_off_c, 0, 79, 0
2, 495420, Note_on_c, 0, 77, 55
2, 495480, Note_off_c, 0, 77, 0
2, 495480, Note_on_c, 0, 76, 56
2, 495540, Note_off_c, 0, 76, 0
2, 495540, Note_on_c, 0, 77, 56
2, 495600, Note_off_c, 0, 77, 0
2, 495600, Note_on_c, 0, 78, 57
2, 495720, Note_off_c, 0, 78, 0
2, 495840, Note_on_c, 0, 79, 59
2, 495960, Note_off_c, 0, 79, 0
2, 496080, Note_on_c, 0, 79, 62
2, 496200, Note_off_c, 0, 79, 0
2, 496320, Note_on_c, 0, 79, 66
2, 496800, Note_off_c, 0, 79, 0
2, 496800, Note_on_c, 0, 76, 62
2, 497040, Note_off_c, 0, 76, 0
2, 497040, Note_on_c, 0, 73, 60
2, 497760, Note_off_c, 0, 73, 0
2, 497760, Note_on_c, 0, 74, 56
2, 497880, Note_off_c, 0, 74, 0
2, 497940, Note_on_c, 0, 76, 54
2, 498000, Note_off_c, 0, 76, 0
2, 498000, Note_on_c, 0, 74, 54
2, 498120, Note_off_c, 0, 74, 0
2, 498120, Note_on_c, 0, 73, 53
2, 498240, Note_off_c, 0, 73, 0
2, 498240, Note_on_c, 0, 74, 52
2, 498360, Note_off_c, 0, 74, 0
2, 498360, Note_on_c, 0, 76, 52
2, 498480, Note_off_c, 0, 76, 0
2, 498480, Note_on_c, 0, 77, 51
2, 498600, Note_off_c, 0, 77, 0
2, 498720, Note_on_c, 0, 71, 49
2, 498840, Note_off_c, 0, 71, 0
2, 498960, Note_on_c, 0, 71, 48
2, 499080, Note_off_c, 0, 71, 0
2, 499200, Note_on_c, 0, 72, 46
2, 499680, Note_off_c, 0, 72, 0
2, 499920, Note_on_c, 0, 76, 41
2, 500640, Note_off_c, 0, 76, 0
2, 500640, Note_on_c, 0, 77, 43
2, 501120, Note_off_c, 0, 77, 0
2, 501120, Note_on_c, 0, 79, 45
2, 501180, Note_off_c, 0, 79, 0
2, 501180, Note_on_c, 0, 77, 45
2, 501240, Note_off_c, 0, 77, 0
2, 501240, Note_on_c, 0, 76, 45
2, 501300, Note_off_c, 0, 76, 0
2, 501300, Note_on_c, 0, 77, 46
2, 501360, Note_off_c, 0, 77, 0
2, 501360, Note_on_c, 0, 78, 46
2, 501480, Note_off_c, 0, 78, 0
2, 501600, Note_on_c, 0, 79, 48
2, 501720, Note_off_c, 0, 79, 0
2, 501840, Note_on_c, 0, 79, 51
2, 501960, Note_off_c, 0, 79, 0
2, 502080, Note_on_c, 0, 79, 56
2, 502560, Note_off_c, 0, 79, 0
2, 502560, Note_on_c, 0, 76, 54
2, 502800, Note_off_c, 0, 76, 0
2, 502800, Note_on_c, 0, 73, 54
2, 503520, Note_off_c, 0, 73, 0
2, 503520, Note_on_c, 0, 74, 52
2, 503640, Note_off_c, 0, 74, 0
2, 503700, Note_on_c, 0, 76, 51
2, 503760, Note_off_c, 0, 76, 0
2, 503760, Note_on_c, 0, 74, 51
2, 503880, Note_off_c, 0, 74, 0
2, 503880, Note_on_c, 0, 73, 51
2, 504000, Note_off_c, 0, 73, 0
2, 504000, Note_on_c, 0, 74, 50
2, 504120, Note_off_c, 0, 74, 0
2, 504120, Note_on_c, 0, 76, 50
2, 504240, Note_off_c, 0, 76, 0
2, 504240, Note_on_c, 0, 77, 50
2, 504360, Note_off_c, 0, 77, 0
2, 504480, Note_on_c, 0, 71, 49
2, 504600, Note_off_c, 0, 71, 0
2, 504720, Note_on_c, 0, 71, 49
2, 504840, Note_off_c, 0, 71, 0
2, 504960, Note_on_c, 0, 72, 48
2, 505440, Note_off_c, 0, 72, 0
2, 505440, Note_on_c, 0, 55, 47
2, 505680, Note_off_c, 0, 55, 0
2, 505680, Note_on_c, 0, 65, 46
2, 506160, Note_off_c, 0, 65, 0
2, 506160, Note_on_c, 0, 64, 56
2, 506400, Note_off_c, 0, 64, 0
2, 506400, Note_on_c, 0, 62, 44
2, 506880, Note_off_c, 0, 62, 0
2, 506880, Note_on_c, 0, 64, 55
2, 507120, Note_off_c, 0, 64, 0
2, 507120, Note_on_c, 0, 62, 42
2, 507600, Note_off_c, 0, 62, 0
2, 507600, Note_on_c, 0, 64, 54
2, 507840, Note_off_c, 0, 64, 0
2, 507840, Note_on_c, 0, 62, 40
2, 507960, Note_off_c, 0, 62, 0
2, 507960, Note_on_c, 0, 59, 40
2, 508080, Note_off_c, 0, 59, 0
2, 508080, Note_on_c, 0, 60, 40
2, 508200, Note_off_c, 0, 60, 0
2, 508200, Note_on_c, 0, 62, 42
2, 508320, Note_off_c, 0, 62, 0
2, 508320, Note_on_c, 0, 64, 43
2, 508440, Note_off_c, 0, 64, 0
2, 508440, Note_on_c, 0, 65, 45
2, 508560, Note_off_c, 0, 65, 0
2, 508560, Note_on_c, 0, 67, 52
2, 509040, Note_off_c, 0, 67, 0
2, 509040, Note_on_c, 0, 65, 50
2, 509280, Note_off_c, 0, 65, 0
2, 509280, Note_on_c, 0, 64, 53
2, 509760, Note_off_c, 0, 64, 0
2, 509760, Note_on_c, 0, 64, 57
2, 509880, Note_off_c, 0, 64, 0
2, 510000, Note_on_c, 0, 69, 60
2, 510120, Note_off_c, 0, 69, 0
2, 510240, Note_on_c, 0, 69, 58
2, 510360, Note_off_c, 0, 69, 0
2, 510480, Note_on_c, 0, 69, 57
2, 510600, Note_off_c, 0, 69, 0
2, 510720, Note_on_c, 0, 62, 56
2, 511200, Note_off_c, 0, 62, 0
2, 511440, Control_c, 0, 64, 0
2, 511560, Note_on_c, 0, 55, 47
2, 511680, Note_off_c, 0, 55, 0
2, 511680, Note_on_c, 0, 57, 51
2, 511800, Note_off_c, 0, 57, 0
2, 511800, Note_on_c, 0, 59, 54
2, 511920, Note_off_c, 0, 59, 0
2, 511920, Note_on_c, 0, 60, 57
2, 512040, Note_off_c, 0, 60, 0
2, 512040, Note_on_c, 0, 54, 50
2, 512160, Note_off_c, 0, 54, 0
2, 512280, Note_on_c, 0, 55, 45
2, 512400, Note_off_c, 0, 55, 0
2, 512400, Note_on_c, 0, 57, 47
2, 512520, Note_off_c, 0, 57, 0
2, 512520, Note_on_c, 0, 59, 50
2, 512640, Note_off_c, 0, 59, 0
2, 512640, Note_on_c, 0, 60, 53
2, 512760, Note_off_c, 0, 60, 0
2, 512760, Note_on_c, 0, 54, 47
2, 512880, Note_off_c, 0, 54, 0
2, 513000, Note_on_c, 0, 55, 42
2, 513120, Note_off_c, 0, 55, 0
2, 513120, Note_on_c, 0, 57, 44
2, 513240, Note_off_c, 0, 57, 0
2, 513240, Note_on_c, 0, 59, 46
2, 513360, Note_off_c, 0, 59, 0
2, 513360, Note_on_c, 0, 60, 48
2, 513480, Note_off_c, 0, 60, 0
2, 513480, Note_on_c, 0, 54, 50
2, 513600, Note_off_c, 0, 54, 0
2, 513600, Note_on_c, 0, 55, 45
2, 513720, Note_off_c, 0, 55, 0
2, 513720, Note_on_c, 0, 59, 46
2, 513840, Note_off_c, 0, 59, 0
2, 513840, Note_on_c, 0, 60, 46
2, 513960, Note_off_c, 0, 60, 0
2, 513960, Note_on_c, 0, 62, 47
2, 514080, Note_off_c, 0, 62, 0
2, 514080, Note_on_c, 0, 64, 48
2, 514200, Note_off_c, 0, 64, 0
2, 514200, Note_on_c, 0, 65, 49
2, 514320, Note_off_c, 0, 65, 0
2, 514320, Note_on_c, 0, 67, 56
2, 514800, Note_off_c, 0, 67, 0
2, 514800, Note_on_c, 0, 65, 53
2, 515040, Note_off_c, 0, 65, 0
2, 515040, Note_on_c, 0, 64, 54
2, 515520, Note_off_c, 0, 64, 0
2, 515520, Note_on_c, 0, 64, 58
2, 515640, Note_off_c, 0, 64, 0
2, 515760, Note_on_c, 0, 69, 59
2, 515880, Note_off_c, 0, 69, 0
2, 516000, Note_on_c, 0, 69, 54
2, 516120, Note_off_c, 0, 69, 0
2, 516240, Note_on_c, 0, 69, 53
2, 516360, Note_off_c, 0, 69, 0
2, 516480, Note_on_c, 0, 62, 52
2, 516960, Note_off_c, 0, 62, 0
2, 517200, Note_on_c, 0, 74, 48
2, 517320, Note_off_c, 0, 74, 0
2, 517440, Note_on_c, 0, 74, 47
2, 517560, Note_off_c, 0, 74, 0
2, 517680, Note_on_c, 0, 74, 46
2, 517800, Note_off_c, 0, 74, 0
2, 517920, Note_on_c, 0, 74, 45
2, 518400, Note_off_c, 0, 74, 0
2, 518640, Note_on_c, 0, 81, 42
2, 518760, Note_off_c, 0, 81, 0
2, 518880, Note_on_c, 0, 81, 41
2, 519000, Note_off_c, 0, 81, 0
2, 519120, Note_on_c, 0, 81, 40
2, 519240, Note_off_c, 0, 81, 0
2, 519360, Note_on_c, 0, 74, 38
2, 519480, Note_off_c, 0, 74, 0
2, 519480, Note_on_c, 0, 67, 38
2, 519600, Note_off_c, 0, 67, 0
2, 519600, Note_on_c, 0, 69, 39
2, 519720, Note_off_c, 0, 69, 0
2, 519720, Note_on_c, 0, 71, 40
2, 519840, Note_off_c, 0, 71, 0
2, 519840, Note_on_c, 0, 72, 40
2, 519960, Note_off_c, 0, 72, 0
2, 519960, Note_on_c, 0, 74, 41
2, 520080, Note_off_c, 0, 74, 0
2, 520080, Note_on_c, 0, 76, 42
2, 520800, Note_off_c, 0, 76, 0
2, 520800, Note_on_c, 0, 77, 47
2, 521280, Note_off_c, 0, 77, 0
2, 521280, Note_on_c, 0, 79, 51
2, 521340, Note_off_c, 0, 79, 0
2, 521340, Note_on_c, 0, 77, 51
2, 521400, Note_off_c, 0, 77, 0
2, 521400, Note_on_c, 0, 76, 52
2, 521460, Note_off_c, 0, 76, 0
2, 521460, Note_on_c, 0, 77, 52
2, 521520, Note_off_c, 0, 77, 0
2, 521520, Note_on_c, 0, 78, 53
2, 521640, Note_off_c, 0, 78, 0
2, 521760, Note_on_c, 0, 79, 55
2, 521880, Note_off_c, 0, 79, 0
2, 522000, Note_on_c, 0, 79, 59
2, 522120, Note_off_c, 0, 79, 0
2, 522240, Note_on_c, 0, 79, 67
2, 522720, Note_off_c, 0, 79, 0
2, 522720, Note_on_c, 0, 76, 60
2, 522960, Note_off_c, 0, 76, 0
2, 522960, Note_on_c, 0, 73, 60
2, 523680, Note_off_c, 0, 73, 0
2, 523680, Note_on_c, 0, 74, 58
2, 523800, Note_off_c, 0, 74, 0
2, 523860, Note_on_c, 0, 76, 57
2, 523920, Note_off_c, 0, 76, 0
2, 523920, Note_on_c, 0, 74, 57
2, 524040, Note_off_c, 0, 74, 0
2, 524040, Note_on_c, 0, 73, 57
2, 524160, Note_off_c, 0, 73, 0
2, 524160, Note_on_c, 0, 74, 57
2, 524280, Note_off_c, 0, 74, 0
2, 524280, Note_on_c, 0, 76, 56
2, 524400, Note_off_c, 0, 76, 0
2, 524400, Note_on_c, 0, 77, 56
2, 524520, Note_off_c, 0, 77, 0
2, 524640, Note_on_c, 0, 71, 56
2, 524760, Note_off_c, 0, 71, 0
2, 524880, Note_on_c, 0, 71, 55
2, 525000, Note_off_c, 0, 71, 0
2, 525120, Note_on_c, 0, 72, 54
2, 525240, Note_off_c, 0, 72, 0
2, 525360, Note_on_c, 0, 79, 57
2, 525480, Note_off_c, 0, 79, 0
2, 525480, Note_on_c, 0, 77, 56
2, 525600, Note_off_c, 0, 77, 0
2, 525600, Note_on_c, 0, 76, 55
2, 525720, Note_off_c, 0, 76, 0
2, 525720, Note_on_c, 0, 74, 53
2, 525840, Note_off_c, 0, 74, 0
2, 525840, Note_on_c, 0, 73, 52
2, 526560, Note_off_c, 0, 73, 0
2, 526560, Note_on_c, 0, 74, 51
2, 526680, Note_off_c, 0, 74, 0
2, 526740, Note_on_c, 0, 76, 51
2, 526800, Note_off_c, 0, 76, 0
2, 526800, Note_on_c, 0, 74, 51
2, 526920, Note_off_c, 0, 74, 0
2, 526920, Note_on_c, 0, 73, 50
2, 527040, Note_off_c, 0, 73, 0
2, 527040, Note_on_c, 0, 74, 50
2, 527160, Note_off_c, 0, 74, 0
2, 527160, Note_on_c, 0, 76, 50
2, 527280, Note_off_c, 0, 76, 0
2, 527280, Note_on_c, 0, 77, 49
2, 527400, Note_off_c, 0, 77, 0
2, 527520, Note_on_c, 0, 71, 48
2, 527640, Note_off_c, 0, 71, 0
2, 527760, Note_on_c, 0, 71, 48
2, 527880, Note_off_c, 0, 71, 0
2, 528000, Note_on_c, 0, 72, 47
2, 528120, Note_off_c, 0, 72, 0
2, 528660, Note_on_c, 0, 77, 45
2, 528720, Note_off_c, 0, 77, 0
2, 528720, Note_on_c, 0, 89, 50
2, 529200, Note_off_c, 0, 89, 0
2, 529200, Note_on_c, 0, 83, 43
2, 529440, Note_off_c, 0, 83, 0
2, 529440, Note_on_c, 0, 84, 43
2, 529560, Note_off_c, 0, 84, 0
2, 530100, Note_on_c, 0, 65, 40
2, 530160, Note_off_c, 0, 65, 0
2, 530160, Note_on_c, 0, 77, 44
2, 530640, Note_off_c, 0, 77, 0
2, 530640, Note_on_c, 0, 71, 39
2, 530880, Note_off_c, 0, 71, 0
2, 530880, Note_on_c, 0, 72, 38
2, 531000, Note_off_c, 0, 72, 0
2, 531360, Note_on_c, 0, 64, 42
2, 531480, Note_off_c, 0, 64, 0
2, 531480, Note_on_c, 0, 65, 43
2, 531600, Note_off_c, 0, 65, 0
2, 531600, Note_on_c, 0, 67, 44
2, 531720, Note_off_c, 0, 67, 0
2, 531840, Note_on_c, 0, 69, 46
2, 531960, Note_off_c, 0, 69, 0
2, 531960, Note_on_c, 0, 71, 47
2, 532080, Note_off_c, 0, 71, 0
2, 532080, Note_on_c, 0, 72, 48
2, 532200, Note_off_c, 0, 72, 0
2, 532320, Note_on_c, 0, 74, 50
2, 532440, Note_off_c, 0, 74, 0
2, 532440, Note_on_c, 0, 76, 51
2, 532560, Note_off_c, 0, 76, 0
2, 532560, Note_on_c, 0, 77, 52
2, 532680, Note_off_c, 0, 77, 0
2, 532800, Note_on_c, 0, 78, 54
2, 532920, Note_off_c, 0, 78, 0
2, 532980, Note_on_c, 0, 67, 59
2, 533040, Note_off_c, 0, 67, 0
2, 533040, Note_on_c, 0, 79, 63
2, 533520, Note_off_c, 0, 79, 0
2, 533520, Note_on_c, 0, 77, 57
2, 533640, Note_off_c, 0, 77, 0
2, 533640, Note_on_c, 0, 74, 56
2, 533760, Note_off_c, 0, 74, 0
2, 533760, Note_on_c, 0, 76, 55
2, 533880, Note_off_c, 0, 76, 0
2, 534240, Note_on_c, 0, 74, 53
2, 534360, Note_off_c, 0, 74, 0
2, 534360, Note_on_c, 0, 71, 52
2, 534480, Note_off_c, 0, 71, 0
2, 534480, Note_on_c, 0, 72, 51
2, 534600, Note_off_c, 0, 72, 0
2, 534960, Note_on_c, 0, 71, 48
2, 535080, Note_off_c, 0, 71, 0
2, 535080, Note_on_c, 0, 67, 48
2, 535200, Note_off_c, 0, 67, 0
2, 535200, Note_on_c, 0, 69, 47
2, 535320, Note_off_c, 0, 69, 0
2, 535680, Note_on_c, 0, 67, 44
2, 535800, Note_off_c, 0, 67, 0
2, 535800, Note_on_c, 0, 64, 44
2, 535920, Note_off_c, 0, 64, 0
2, 535920, Note_on_c, 0, 66, 43
2, 536040, Note_off_c, 0, 66, 0
2, 540000, Note_on_c, 0, 59, 40
2, 540120, Note_off_c, 0, 59, 0
2, 540120, Note_on_c, 0, 60, 41
2, 540240, Note_off_c, 0, 60, 0
2, 540240, Note_on_c, 0, 62, 42
2, 540360, Note_off_c, 0, 62, 0
2, 540480, Note_on_c, 0, 64, 44
2, 540600, Note_off_c, 0, 64, 0
2, 540600, Note_on_c, 0, 65, 45
2, 540720, Note_off_c, 0, 65, 0
2, 540720, Note_on_c, 0, 67, 46
2, 540840, Note_off_c, 0, 67, 0
2, 540960, Note_on_c, 0, 69, 47
2, 541080, Note_off_c, 0, 69, 0
2, 541080, Note_on_c, 0, 71, 48
2, 541200, Note_off_c, 0, 71, 0
2, 541200, Note_on_c, 0, 72, 49
2, 541320, Note_off_c, 0, 72, 0
2, 541440, Note_on_c, 0, 73, 51
2, 541560, Note_off_c, 0, 73, 0
2, 541680, Note_on_c, 0, 74, 55
2, 542160, Note_off_c, 0, 74, 0
2, 542160, Note_on_c, 0, 76, 47
2, 542280, Note_off_c, 0, 76, 0
2, 542280, Note_on_c, 0, 73, 45
2, 542400, Note_off_c, 0, 73, 0
2, 542400, Note_on_c, 0, 74, 43
2, 542520, Note_off_c, 0, 74, 0
2, 542880, Note_on_c, 0, 71, 48
2, 543000, Note_off_c, 0, 71, 0
2, 543000, Note_on_c, 0, 72, 49
2, 543120, Note_off_c, 0, 72, 0
2, 543120, Note_on_c, 0, 74, 50
2, 543240, Note_off_c, 0, 74, 0
2, 543360, Note_on_c, 0, 76, 51
2, 543480, Note_off_c, 0, 76, 0
2, 543480, Note_on_c, 0, 78, 52
2, 543600, Note_off_c, 0, 78, 0
2, 543600, Note_on_c, 0, 79, 52
2, 543720, Note_off_c, 0, 79, 0
2, 543840, Note_on_c, 0, 81, 53
2, 543960, Note_off_c, 0, 81, 0
2, 543960, Note_on_c, 0, 83, 54
2, 544080, Note_off_c, 0, 83, 0
2, 544080, Note_on_c, 0, 84, 55
2, 544200, Note_off_c, 0, 84, 0
2, 544320, Note_on_c, 0, 85, 56
2, 544440, Note_off_c, 0, 85, 0
2, 544500, Note_on_c, 0, 74, 60
2, 544560, Note_off_c, 0, 74, 0
2, 544560, Note_on_c, 0, 86, 65
2, 545040, Note_off_c, 0, 86, 0
2, 545040, Note_on_c, 0, 84, 53
2, 545160, Note_off_c, 0, 84, 0
2, 545160, Note_on_c, 0, 81, 51
2, 545280, Note_off_c, 0, 81, 0
2, 545280, Note_on_c, 0, 79, 49
2, 545400, Note_off_c, 0, 79, 0
2, 545760, Note_on_c, 0, 62, 42
2, 545840, Note_off_c, 0, 62, 0
2, 545840, Note_on_c, 0, 64, 43
2, 545920, Note_off_c, 0, 64, 0
2, 545920, Note_on_c, 0, 66, 43
2, 546000, Note_off_c, 0, 66, 0
2, 546000, Note_on_c, 0, 67, 43
2, 546080, Note_off_c, 0, 67, 0
2, 546080, Note_on_c, 0, 69, 44
2, 546160, Note_off_c, 0, 69, 0
2, 546160, Note_on_c, 0, 71, 44
2, 546240, Note_off_c, 0, 71, 0
2, 546240, Note_on_c, 0, 72, 45
2, 546360, Note_off_c, 0, 72, 0
2, 546960, Note_on_c, 0, 84, 49
2, 547080, Note_off_c, 0, 84, 0
2, 547200, Note_on_c, 0, 62, 50
2, 547280, Note_off_c, 0, 62, 0
2, 547280, Note_on_c, 0, 64, 50
2, 547360, Note_off_c, 0, 64, 0
2, 547360, Note_on_c, 0, 66, 51
2, 547440, Note_off_c, 0, 66, 0
2, 547440, Note_on_c, 0, 67, 51
2, 547520, Note_off_c, 0, 67, 0
2, 547520, Note_on_c, 0, 69, 52
2, 547600, Note_off_c, 0, 69, 0
2, 547600, Note_on_c, 0, 71, 52
2, 547680, Note_off_c, 0, 71, 0
2, 547680, Note_on_c, 0, 72, 52
2, 547800, Note_off_c, 0, 72, 0
2, 548400, Note_on_c, 0, 84, 56
2, 548520, Note_off_c, 0, 84, 0
2, 548640, Note_on_c, 0, 62, 58
2, 548720, Note_off_c, 0, 62, 0
2, 548720, Note_on_c, 0, 64, 58
2, 548800, Note_off_c, 0, 64, 0
2, 548800, Note_on_c, 0, 66, 59
2, 548880, Note_off_c, 0, 66, 0
2, 548880, Note_on_c, 0, 67, 60
2, 548960, Note_off_c, 0, 67, 0
2, 548960, Note_on_c, 0, 69, 60
2, 549040, Note_off_c, 0, 69, 0
2, 549040, Note_on_c, 0, 71, 61
2, 549120, Note_off_c, 0, 71, 0
2, 549120, Note_on_c, 0, 72, 61
2, 549200, Note_off_c, 0, 72, 0
2, 549200, Note_on_c, 0, 74, 62
2, 549280, Note_off_c, 0, 74, 0
2, 549280, Note_on_c, 0, 76, 62
2, 549360, Note_off_c, 0, 76, 0
2, 549360, Note_on_c, 0, 78, 63
2, 549420, Note_off_c, 0, 78, 0
2, 549420, Note_on_c, 0, 79, 63
2, 549480, Note_off_c, 0, 79, 0
2, 549480, Note_on_c, 0, 81, 63
2, 549540, Note_off_c, 0, 81, 0
2, 549540, Note_on_c, 0, 83, 64
2, 549600, Note_off_c, 0, 83, 0
2, 549600, Note_on_c, 0, 84, 64
2, 549720, Note_off_c, 0, 84, 0
2, 549840, Note_on_c, 0, 84, 69
2, 549960, Note_off_c, 0, 84, 0
2, 550080, Note_on_c, 0, 84, 71
2, 550200, Note_off_c, 0, 84, 0
2, 550320, Note_on_c, 0, 84, 74
2, 550440, Note_off_c, 0, 84, 0
2, 550560, Note_on_c, 0, 81, 76
2, 550680, Note_off_c, 0, 81, 0
2, 550800, Note_on_c, 0, 79, 78
2, 550920, Note_off_c, 0, 79, 0
2, 551040, Note_on_c, 0, 78, 89
2, 552480, Note_off_c, 0, 78, 0
2, 552960, Note_on_c, 0, 71, 40
2, 553080, Note_off_c, 0, 71, 0
2, 553080, Note_on_c, 0, 72, 41
2, 553200, Note_off_c, 0, 72, 0
2, 553200, Note_on_c, 0, 74, 42
2, 553320, Note_off_c, 0, 74, 0
2, 553440, Note_on_c, 0, 76, 44
2, 553560, Note_off_c, 0, 76, 0
2, 553560, Note_on_c, 0, 78, 45
2, 553680, Note_off_c, 0, 78, 0
2, 553680, Note_on_c, 0, 79, 46
2, 553800, Note_off_c, 0, 79, 0
2, 553920, Note_on_c, 0, 81, 47
2, 554040, Note_off_c, 0, 81, 0
2, 554040, Note_on_c, 0, 83, 48
2, 554160, Note_off_c, 0, 83, 0
2, 554160, Note_on_c, 0, 84, 49
2, 554280, Note_off_c, 0, 84, 0
2, 554400, Note_on_c, 0, 85, 51
2, 554520, Note_off_c, 0, 85, 0
2, 554640, Note_on_c, 0, 86, 57
2, 555120, Note_off_c, 0, 86, 0
2, 555120, Note_on_c, 0, 88, 53
2, 555240, Note_off_c, 0, 88, 0
2, 555240, Note_on_c, 0, 85, 53
2, 555360, Note_off_c, 0, 85, 0
2, 555360, Note_on_c, 0, 86, 52
2, 555480, Note_off_c, 0, 86, 0
2, 555840, Note_on_c, 0, 84, 48
2, 555960, Note_off_c, 0, 84, 0
2, 555960, Note_on_c, 0, 81, 47
2, 556080, Note_off_c, 0, 81, 0
2, 556080, Note_on_c, 0, 79, 46
2, 556200, Note_off_c, 0, 79, 0
2, 556560, Note_on_c, 0, 81, 43
2, 556680, Note_off_c, 0, 81, 0
2, 556680, Note_on_c, 0, 78, 42
2, 556800, Note_off_c, 0, 78, 0
2, 556800, Note_on_c, 0, 79, 41
2, 556920, Note_off_c, 0, 79, 0
2, 558000, Note_on_c, 0, 74, 47
2, 558120, Note_off_c, 0, 74, 0
2, 558240, Note_on_c, 0, 86, 47
2, 558360, Note_off_c, 0, 86, 0
2, 559440, Note_on_c, 0, 74, 47
2, 559560, Note_off_c, 0, 74, 0
2, 559680, Note_on_c, 0, 86, 47
2, 559800, Note_off_c, 0, 86, 0
2, 560640, Note_on_c, 0, 62, 42
2, 560720, Note_off_c, 0, 62, 0
2, 560720, Note_on_c, 0, 64, 42
2, 560800, Note_off_c, 0, 64, 0
2, 560800, Note_on_c, 0, 66, 42
2, 560880, Note_off_c, 0, 66, 0
2, 560880, Note_on_c, 0, 67, 43
2, 560960, Note_off_c, 0, 67, 0
2, 560960, Note_on_c, 0, 69, 43
2, 561040, Note_off_c, 0, 69, 0
2, 561040, Note_on_c, 0, 71, 43
2, 561120, Note_off_c, 0, 71, 0
2, 561120, Note_on_c, 0, 72, 44
2, 561240, Note_off_c, 0, 72, 0
2, 561600, Note_on_c, 0, 74, 46
2, 561680, Note_off_c, 0, 74, 0
2, 561680, Note_on_c, 0, 76, 46
2, 561760, Note_off_c, 0, 76, 0
2, 561760, Note_on_c, 0, 78, 46
2, 561840, Note_off_c, 0, 78, 0
2, 561840, Note_on_c, 0, 79, 47
2, 561920, Note_off_c, 0, 79, 0
2, 561920, Note_on_c, 0, 81, 47
2, 562000, Note_off_c, 0, 81, 0
2, 562000, Note_on_c, 0, 83, 47
2, 562080, Note_off_c, 0, 83, 0
2, 562080, Note_on_c, 0, 84, 48
2, 562200, Note_off_c, 0, 84, 0
2, 564000, Note_on_c, 0, 75, 44
2, 564080, Note_off_c, 0, 75, 0
2, 564080, Note_on_c, 0, 76, 43
2, 564160, Note_off_c, 0, 76, 0
2, 564160, Note_on_c, 0, 78, 43
2, 564240, Note_off_c, 0, 78, 0
2, 564240, Note_on_c, 0, 79, 42
2, 564320, Note_off_c, 0, 79, 0
2, 564320, Note_on_c, 0, 81, 42
2, 564400, Note_off_c, 0, 81, 0
2, 564400, Note_on_c, 0, 83, 41
2, 564480, Note_off_c, 0, 83, 0
2, 564480, Note_on_c, 0, 84, 41
2, 564600, Note_off_c, 0, 84, 0
2, 565440, Note_on_c, 0, 76, 35
2, 565520, Note_off_c, 0, 76, 0
2, 565520, Note_on_c, 0, 78, 34
2, 565600, Note_off_c, 0, 78, 0
2, 565600, Note_on_c, 0, 80, 34
2, 565680, Note_off_c, 0, 80, 0
2, 565680, Note_on_c, 0, 81, 33
2, 565760, Note_off_c, 0, 81, 0
2, 565760, Note_on_c, 0, 82, 33
2, 565840, Note_off_c, 0, 82, 0
2, 565840, Note_on_c, 0, 83, 32
2, 565920, Note_off_c, 0, 83, 0
2, 565920, Note_on_c, 0, 84, 32
2, 566040, Note_off_c, 0, 84, 0
2, 567360, Note_on_c, 0, 69, 30
2, 567480, Note_off_c, 0, 69, 0
2, 567480, Note_on_c, 0, 70, 30
2, 567600, Note_off_c, 0, 70, 0
2, 567600, Note_on_c, 0, 72, 31
2, 567720, Note_off_c, 0, 72, 0
2, 567840, Note_on_c, 0, 74, 32
2, 567960, Note_off_c, 0, 74, 0
2, 567960, Note_on_c, 0, 76, 33
2, 568080, Note_off_c, 0, 76, 0
2, 568080, Note_on_c, 0, 77, 33
2, 568200, Note_off_c, 0, 77, 0
2, 568320, Note_on_c, 0, 79, 34
2, 568440, Note_off_c, 0, 79, 0
2, 568440, Note_on_c, 0, 81, 35
2, 568560, Note_off_c, 0, 81, 0
2, 568560, Note_on_c, 0, 82, 35
2, 568680, Note_off_c, 0, 82, 0
2, 568800, Note_on_c, 0, 83, 36
2, 568920, Note_off_c, 0, 83, 0
2, 569040, Note_on_c, 0, 84, 43
2, 569520, Note_off_c, 0, 84, 0
2, 569520, Note_on_c, 0, 86, 36
2, 569640, Note_off_c, 0, 86, 0
2, 569640, Note_on_c, 0, 83, 34
2, 569760, Note_off_c, 0, 83, 0
2, 569760, Note_on_c, 0, 84, 32
2, 569880, Note_off_c, 0, 84, 0
2, 570240, Note_on_c, 0, 69, 30
2, 570360, Note_off_c, 0, 69, 0
2, 570360, Note_on_c, 0, 70, 31
2, 570480, Note_off_c, 0, 70, 0
2, 570480, Note_on_c, 0, 72, 31
2, 570600, Note_off_c, 0, 72, 0
2, 570720, Note_on_c, 0, 74, 33
2, 570840, Note_off_c, 0, 74, 0
2, 570840, Note_on_c, 0, 76, 34
2, 570960, Note_off_c, 0, 76, 0
2, 570960, Note_on_c, 0, 77, 34
2, 571080, Note_off_c, 0, 77, 0
2, 571200, Note_on_c, 0, 79, 36
2, 571320, Note_off_c, 0, 79, 0
2, 571320, Note_on_c, 0, 81, 37
2, 571440, Note_off_c, 0, 81, 0
2, 571440, Note_on_c, 0, 82, 37
2, 571560, Note_off_c, 0, 82, 0
2, 571680, Note_on_c, 0, 83, 39
2, 571800, Note_off_c, 0, 83, 0
2, 571920, Note_on_c, 0, 84, 44
2, 572400, Note_off_c, 0, 84, 0
2, 572400, Note_on_c, 0, 86, 44
2, 572520, Note_off_c, 0, 86, 0
2, 572520, Note_on_c, 0, 83, 45
2, 572640, Note_off_c, 0, 83, 0
2, 572640, Note_on_c, 0, 84, 50
2, 573120, Note_off_c, 0, 84, 0
2, 573120, Note_on_c, 0, 86, 50
2, 573240, Note_off_c, 0, 86, 0
2, 573240, Note_on_c, 0, 83, 51
2, 573360, Note_off_c, 0, 83, 0
2, 573360, Note_on_c, 0, 84, 56
2, 573840, Note_off_c, 0, 84, 0
2, 573840, Note_on_c, 0, 86, 56
2, 573960, Note_off_c, 0, 86, 0
2, 573960, Note_on_c, 0, 83, 57
2, 574080, Note_off_c, 0, 83, 0
2, 574080, Note_on_c, 0, 84, 58
2, 574200, Note_off_c, 0, 84, 0
2, 574320, Note_on_c, 0, 84, 60
2, 574440, Note_off_c, 0, 84, 0
2, 574560, Note_on_c, 0, 84, 62
2, 574680, Note_off_c, 0, 84, 0
2, 574800, Note_on_c, 0, 84, 56
2, 574860, Note_off_c, 0, 84, 0
2, 574860, Note_on_c, 0, 83, 56
2, 575040, Note_off_c, 0, 83, 0
2, 575040, Note_on_c, 0, 81, 54
2, 575100, Note_off_c, 0, 81, 0
2, 575100, Note_on_c, 0, 79, 54
2, 575280, Note_off_c, 0, 79, 0
2, 575280, Note_on_c, 0, 78, 52
2, 575340, Note_off_c, 0, 78, 0
2, 575340, Note_on_c, 0, 79, 52
2, 575520, Note_off_c, 0, 79, 0
2, 575520, Note_on_c, 0, 81, 50
2, 575580, Note_off_c, 0, 81, 0
2, 575580, Note_on_c, 0, 79, 50
2, 575760, Note_off_c, 0, 79, 0
2, 575760, Note_on_c, 0, 78, 48
2, 575820, Note_off_c, 0, 78, 0
2, 575820, Note_on_c, 0, 76, 48
2, 576000, Note_off_c, 0, 76, 0
2, 576000, Note_on_c, 0, 75, 46
2, 576060, Note_off_c, 0, 75, 0
2, 576060, Note_on_c, 0, 76, 46
2, 576240, Note_off_c, 0, 76, 0
2, 576240, Note_on_c, 0, 79, 44
2, 576300, Note_off_c, 0, 79, 0
2, 576300, Note_on_c, 0, 78, 44
2, 576480, Note_off_c, 0, 78, 0
2, 576480, Note_on_c, 0, 76, 42
2, 576540, Note_off_c, 0, 76, 0
2, 576540, Note_on_c, 0, 74, 42
2, 576720, Note_off_c, 0, 74, 0
2, 576720, Note_on_c, 0, 72, 40
2, 576780, Note_off_c, 0, 72, 0
2, 576780, Note_on_c, 0, 71, 40
2, 576960, Note_off_c, 0, 71, 0
2, 576960, Note_on_c, 0, 74, 38
2, 577020, Note_off_c, 0, 74, 0
2, 577020, Note_on_c, 0, 72, 38
2, 577200, Note_off_c, 0, 72, 0
2, 577200, Note_on_c, 0, 71, 36
2, 577260, Note_off_c, 0, 71, 0
2, 577260, Note_on_c, 0, 69, 36
2, 577440, Note_off_c, 0, 69, 0
2, 577440, Note_on_c, 0, 67, 34
2, 577500, Note_off_c, 0, 67, 0
2, 577500, Note_on_c, 0, 66, 34
2, 577680, Note_off_c, 0, 66, 0
2, 577680, Note_on_c, 0, 67, 32
2, 577800, Note_off_c, 0, 67, 0
2, 577920, Note_on_c, 0, 55, 30
2, 578160, Note_off_c, 0, 55, 0
2, 578160, Note_on_c, 0, 55, 31
2, 578400, Note_off_c, 0, 55, 0
2, 578400, Note_on_c, 0, 55, 32
2, 578640, Note_off_c, 0, 55, 0
2, 578640, Note_on_c, 0, 55, 33
2, 578880, Note_off_c, 0, 55, 0
2, 578880, Note_on_c, 0, 55, 34
2, 579120, Note_off_c, 0, 55, 0
2, 579120, Note_on_c, 0, 57, 35
2, 579360, Note_off_c, 0, 57, 0
2, 579360, Note_on_c, 0, 57, 36
2, 579600, Note_off_c, 0, 57, 0
2, 579600, Note_on_c, 0, 57, 37
2, 579840, Note_off_c, 0, 57, 0
2, 579840, Note_on_c, 0, 57, 38
2, 580080, Note_off_c, 0, 57, 0
2, 580080, Note_on_c, 0, 57, 38
2, 580320, Note_off_c, 0, 57, 0
2, 580320, Note_on_c, 0, 57, 39
2, 580560, Note_off_c, 0, 57, 0
2, 580560, Note_on_c, 0, 55, 40
2, 580800, Note_off_c, 0, 55, 0
2, 580800, Note_on_c, 0, 55, 41
2, 581040, Note_off_c, 0, 55, 0
2, 581040, Note_on_c, 0, 55, 42
2, 581280, Note_off_c, 0, 55, 0
2, 581280, Note_on_c, 0, 55, 43
2, 581520, Note_off_c, 0, 55, 0
2, 581520, Note_on_c, 0, 55, 44
2, 581760, Note_off_c, 0, 55, 0
2, 581760, Note_on_c, 0, 55, 45
2, 582000, Note_off_c, 0, 55, 0
2, 582000, Note_on_c, 0, 57, 46
2, 582240, Note_off_c, 0, 57, 0
2, 582240, Note_on_c, 0, 57, 47
2, 582480, Note_off_c, 0, 57, 0
2, 582480, Note_on_c, 0, 57, 48
2, 582720, Note_off_c, 0, 57, 0
2, 582720, Note_on_c, 0, 57, 49
2, 582960, Note_off_c, 0, 57, 0
2, 582960, Note_on_c, 0, 57, 50
2, 583200, Note_off_c, 0, 57, 0
2, 583200, Note_on_c, 0, 57, 51
2, 583440, Note_off_c, 0, 57, 0
2, 583440, Note_on_c, 0, 55, 52
2, 583680, Note_off_c, 0, 55, 0
2, 583680, Note_on_c, 0, 55, 53
2, 583920, Note_off_c, 0, 55, 0
2, 583920, Note_on_c, 0, 55, 54
2, 584160, Note_off_c, 0, 55, 0
2, 584160, Note_on_c, 0, 57, 55
2, 584400, Note_off_c, 0, 57, 0
2, 584400, Note_on_c, 0, 57, 56
2, 584640, Note_off_c, 0, 57, 0
2, 584640, Note_on_c, 0, 57, 57
2, 584880, Note_off_c, 0, 57, 0
2, 584880, Note_on_c, 0, 55, 58
2, 585120, Note_off_c, 0, 55, 0
2, 585120, Note_on_c, 0, 55, 59
2, 585360, Note_off_c, 0, 55, 0
2, 585360, Note_on_c, 0, 55, 60
2, 585600, Note_off_c, 0, 55, 0
2, 585600, Note_on_c, 0, 57, 60
2, 585840, Note_off_c, 0, 57, 0
2, 585840, Note_on_c, 0, 57, 61
2, 586080, Note_off_c, 0, 57, 0
2, 586080, Note_on_c, 0, 57, 62
2, 586320, Note_off_c, 0, 57, 0
2, 586320, Note_on_c, 0, 55, 50
2, 586440, Note_off_c, 0, 55, 0
2, 586440, Note_on_c, 0, 59, 51
2, 586560, Note_off_c, 0, 59, 0
2, 586560, Note_on_c, 0, 57, 52
2, 586680, Note_off_c, 0, 57, 0
2, 586680, Note_on_c, 0, 60, 53
2, 586800, Note_off_c, 0, 60, 0
2, 586800, Note_on_c, 0, 59, 54
2, 586920, Note_off_c, 0, 59, 0
2, 586920, Note_on_c, 0, 62, 55
2, 587040, Note_off_c, 0, 62, 0
2, 587040, Note_on_c, 0, 60, 57
2, 587160, Note_off_c, 0, 60, 0
2, 587160, Note_on_c, 0, 64, 58
2, 587280, Note_off_c, 0, 64, 0
2, 587280, Note_on_c, 0, 62, 59
2, 587400, Note_off_c, 0, 62, 0
2, 587400, Note_on_c, 0, 66, 60
2, 587520, Note_off_c, 0, 66, 0
2, 587520, Note_on_c, 0, 64, 61
2, 587640, Note_off_c, 0, 64, 0
2, 587640, Note_on_c, 0, 67, 62
2, 587760, Note_off_c, 0, 67, 0
2, 587760, Note_on_c, 0, 66, 63
2, 587880, Note_off_c, 0, 66, 0
2, 587880, Note_on_c, 0, 69, 64
2, 588000, Note_off_c, 0, 69, 0
2, 588000, Note_on_c, 0, 67, 65
2, 588120, Note_off_c, 0, 67, 0
2, 588120, Note_on_c, 0, 71, 66
2, 588240, Note_off_c, 0, 71, 0
2, 588240, Note_on_c, 0, 69, 67
2, 588360, Note_off_c, 0, 69, 0
2, 588360, Note_on_c, 0, 72, 68
2, 588480, Note_off_c, 0, 72, 0
2, 588480, Note_on_c, 0, 71, 69
2, 588600, Note_off_c, 0, 71, 0
2, 588600, Note_on_c, 0, 73, 70
2, 588720, Note_off_c, 0, 73, 0
2, 588720, Note_on_c, 0, 74, 71
2, 588840, Note_off_c, 0, 74, 0
2, 588840, Note_on_c, 0, 72, 72
2, 588960, Note_off_c, 0, 72, 0
2, 588960, Note_on_c, 0, 71, 73
2, 589080, Note_off_c, 0, 71, 0
2, 589080, Note_on_c, 0, 67, 75
2, 589200, Note_off_c, 0, 67, 0
2, 589200, Note_on_c, 0, 76, 76
2, 589320, Note_off_c, 0, 76, 0
2, 589320, Note_on_c, 0, 74, 77
2, 589440, Note_off_c, 0, 74, 0
2, 589440, Note_on_c, 0, 72, 78
2, 589560, Note_off_c, 0, 72, 0
2, 589560, Note_on_c, 0, 69, 79
2, 589680, Note_off_c, 0, 69, 0
2, 589680, Note_on_c, 0, 78, 80
2, 589800, Note_off_c, 0, 78, 0
2, 589800, Note_on_c, 0, 76, 81
2, 589920, Note_off_c, 0, 76, 0
2, 589920, Note_on_c, 0, 74, 82
2, 590040, Note_off_c, 0, 74, 0
2, 590040, Note_on_c, 0, 71, 83
2, 590160, Note_off_c, 0, 71, 0
2, 590160, Note_on_c, 0, 79, 84
2, 590280, Note_off_c, 0, 79, 0
2, 590280, Note_on_c, 0, 77, 85
2, 590400, Note_off_c, 0, 77, 0
2, 590400, Note_on_c, 0, 76, 86
2, 590520, Note_off_c, 0, 76, 0
2, 590520, Note_on_c, 0, 72, 87
2, 590640, Note_off_c, 0, 72, 0
2, 590640, Note_on_c, 0, 79, 88
2, 590760, Note_off_c, 0, 79, 0
2, 590760, Note_on_c, 0, 77, 89
2, 590880, Note_off_c, 0, 77, 0
2, 590880, Note_on_c, 0, 76, 90
2, 591000, Note_off_c, 0, 76, 0
2, 591000, Note_on_c, 0, 72, 91
2, 591120, Note_off_c, 0, 72, 0
2, 591120, Note_on_c, 0, 79, 93
2, 591240, Note_off_c, 0, 79, 0
2, 591240, Note_on_c, 0, 77, 94
2, 591360, Note_off_c, 0, 77, 0
2, 591360, Note_on_c, 0, 76, 95
2, 591480, Note_off_c, 0, 76, 0
2, 591480, Note_on_c, 0, 72, 96
2, 591600, Note_off_c, 0, 72, 0
2, 591600, Note_on_c, 0, 79, 97
2, 591720, Note_off_c, 0, 79, 0
2, 591720, Note_on_c, 0, 77, 98
2, 591840, Note_off_c, 0, 77, 0
2, 591840, Note_on_c, 0, 76, 99
2, 591960, Note_off_c, 0, 76, 0
2, 591960, Note_on_c, 0, 72, 100
2, 592080, Note_off_c, 0, 72, 0
2, 592320, Note_on_c, 0, 79, 65
2, 592400, Note_off_c, 0, 79, 0
2, 592400, Note_on_c, 0, 78, 64
2, 592480, Note_off_c, 0, 78, 0
2, 592480, Note_on_c, 0, 76, 64
2, 592560, Note_off_c, 0, 76, 0
2, 592560, Note_on_c, 0, 79, 63
2, 592640, Note_off_c, 0, 79, 0
2, 592640, Note_on_c, 0, 78, 62
2, 592720, Note_off_c, 0, 78, 0
2, 592720, Note_on_c, 0, 76, 62
2, 592800, Note_off_c, 0, 76, 0
2, 593040, Note_on_c, 0, 79, 59
2, 593120, Note_off_c, 0, 79, 0
2, 593120, Note_on_c, 0, 78, 58
2, 593200, Note_off_c, 0, 78, 0
2, 593200, Note_on_c, 0, 76, 58
2, 593280, Note_off_c, 0, 76, 0
2, 593280, Note_on_c, 0, 79, 57
2, 593360, Note_off_c, 0, 79, 0
2, 593360, Note_on_c, 0, 78, 56
2, 593440, Note_off_c, 0, 78, 0
2, 593440, Note_on_c, 0, 76, 56
2, 593520, Note_off_c, 0, 76, 0
2, 593760, Note_on_c, 0, 74, 53
2, 593840, Note_off_c, 0, 74, 0
2, 593840, Note_on_c, 0, 72, 53
2, 593920, Note_off_c, 0, 72, 0
2, 593920, Note_on_c, 0, 71, 52
2, 594000, Note_off_c, 0, 71, 0
2, 594000, Note_on_c, 0, 74, 51
2, 594080, Note_off_c, 0, 74, 0
2, 594080, Note_on_c, 0, 72, 51
2, 594160, Note_off_c, 0, 72, 0
2, 594160, Note_on_c, 0, 71, 50
2, 594240, Note_off_c, 0, 71, 0
2, 594480, Note_on_c, 0, 69, 47
2, 594560, Note_off_c, 0, 69, 0
2, 594560, Note_on_c, 0, 67, 47
2, 594640, Note_off_c, 0, 67, 0
2, 594640, Note_on_c, 0, 66, 46
2, 594720, Note_off_c, 0, 66, 0
2, 594720, Note_on_c, 0, 69, 45
2, 594800, Note_off_c, 0, 69, 0
2, 594800, Note_on_c, 0, 67, 45
2, 594880, Note_off_c, 0, 67, 0
2, 594880, Note_on_c, 0, 66, 44
2, 594960, Note_off_c, 0, 66, 0
2, 594960, Note_on_c, 0, 67, 44
2, 595440, Note_off_c, 0, 67, 0
2, 595680, Control_c, 0, 10, 55
2, 595680, Note_on_c, 0, 43, 58
2, 596400, Note_off_c, 0, 43, 0
2, 596400, Note_on_c, 0, 42, 47
2, 596640, Note_off_c, 0, 42, 0
2, 596640, Note_on_c, 0, 50, 58
2, 596760, Note_off_c, 0, 50, 0
2, 596880, Note_on_c, 0, 50, 48
2, 597000, Note_off_c, 0, 50, 0
2, 597120, Control_c, 0, 10, 73
2, 597120, Note_on_c, 0, 66, 56
2, 597840, Note_off_c, 0, 66, 0
2, 597840, Note_on_c, 0, 67, 51
2, 598080, Note_off_c, 0, 67, 0
2, 598080, Note_on_c, 0, 74, 62
2, 598200, Note_off_c, 0, 74, 0
2, 598320, Note_on_c, 0, 74, 53
2, 598440, Note_off_c, 0, 74, 0
2, 598560, Control_c, 0, 10, 55
2, 598560, Note_on_c, 0, 43, 59
2, 599280, Note_off_c, 0, 43, 0
2, 599280, Note_on_c, 0, 42, 55
2, 599520, Note_off_c, 0, 42, 0
2, 599520, Note_on_c, 0, 52, 64
2, 599760, Note_off_c, 0, 52, 0
2, 599760, Note_on_c, 0, 50, 57
2, 599880, Note_off_c, 0, 50, 0
2, 600000, Control_c, 0, 10, 73
2, 600000, Note_on_c, 0, 66, 64
2, 600720, Note_off_c, 0, 66, 0
2, 600720, Note_on_c, 0, 67, 59
2, 600960, Note_off_c, 0, 67, 0
2, 600960, Note_on_c, 0, 76, 72
2, 601200, Note_off_c, 0, 76, 0
2, 601200, Note_on_c, 0, 74, 61
2, 601320, Note_off_c, 0, 74, 0
2, 601440, Control_c, 0, 10, 55
2, 601440, Note_on_c, 0, 42, 62
2, 601680, Note_off_c, 0, 42, 0
2, 601680, Note_on_c, 0, 52, 75
2, 601920, Note_on_c, 0, 50, 63
2, 601925, Note_off_c, 0, 52, 0
2, 602040, Note_off_c, 0, 50, 0
2, 602160, Control_c, 0, 10, 73
2, 602160, Note_on_c, 0, 67, 64
2, 602400, Note_on_c, 0, 76, 76
2, 602407, Note_off_c, 0, 67, 0
2, 602640, Note_off_c, 0, 76, 0
2, 602640, Note_on_c, 0, 74, 65
2, 602760, Note_off_c, 0, 74, 0
2, 602880, Control_c, 0, 10, 55
2, 602880, Note_on_c, 0, 42, 66
2, 603120, Note_off_c, 0, 42, 0
2, 603120, Note_on_c, 0, 52, 78
2, 603360, Note_off_c, 0, 52, 0
2, 603360, Note_on_c, 0, 50, 67
2, 603480, Note_off_c, 0, 50, 0
2, 603600, Control_c, 0, 10, 73
2, 603600, Note_on_c, 0, 43, 48
2, 603720, Note_off_c, 0, 43, 0
2, 603720, Note_on_c, 0, 47, 49
2, 603840, Note_off_c, 0, 47, 0
2, 603840, Note_on_c, 0, 45, 50
2, 603960, Note_off_c, 0, 45, 0
2, 603960, Note_on_c, 0, 48, 52
2, 604080, Note_off_c, 0, 48, 0
2, 604080, Note_on_c, 0, 47, 53
2, 604200, Note_off_c, 0, 47, 0
2, 604200, Note_on_c, 0, 50, 54
2, 604320, Note_off_c, 0, 50, 0
2, 604320, Note_on_c, 0, 48, 55
2, 604440, Note_off_c, 0, 48, 0
2, 604440, Note_on_c, 0, 52, 56
2, 604560, Note_off_c, 0, 52, 0
2, 604560, Note_on_c, 0, 50, 57
2, 604680, Note_off_c, 0, 50, 0
2, 604680, Note_on_c, 0, 54, 58
2, 604800, Note_off_c, 0, 54, 0
2, 604800, Note_on_c, 0, 52, 60
2, 604920, Note_off_c, 0, 52, 0
2, 604920, Note_on_c, 0, 55, 61
2, 605040, Note_off_c, 0, 55, 0
2, 605040, Note_on_c, 0, 54, 62
2, 605160, Note_off_c, 0, 54, 0
2, 605160, Note_on_c, 0, 57, 63
2, 605280, Note_off_c, 0, 57, 0
2, 605280, Note_on_c, 0, 55, 64
2, 605400, Note_off_c, 0, 55, 0
2, 605400, Note_on_c, 0, 59, 65
2, 605520, Note_off_c, 0, 59, 0
2, 605520, Note_on_c, 0, 57, 66
2, 605640, Note_off_c, 0, 57, 0
2, 605640, Note_on_c, 0, 60, 68
2, 605760, Note_off_c, 0, 60, 0
2, 605760, Note_on_c, 0, 59, 69
2, 605880, Note_off_c, 0, 59, 0
2, 605880, Note_on_c, 0, 61, 70
2, 606000, Note_off_c, 0, 61, 0
2, 606000, Note_on_c, 0, 62, 71
2, 606120, Note_off_c, 0, 62, 0
2, 606120, Note_on_c, 0, 60, 72
2, 606240, Note_off_c, 0, 60, 0
2, 606240, Note_on_c, 0, 59, 73
2, 606360, Note_off_c, 0, 59, 0
2, 606360, Note_on_c, 0, 55, 75
2, 606480, Note_off_c, 0, 55, 0
2, 606480, Note_on_c, 0, 64, 76
2, 606600, Note_off_c, 0, 64, 0
2, 606600, Note_on_c, 0, 62, 77
2, 606720, Note_off_c, 0, 62, 0
2, 606720, Note_on_c, 0, 60, 78
2, 606840, Note_off_c, 0, 60, 0
2, 606840, Note_on_c, 0, 57, 79
2, 606960, Note_off_c, 0, 57, 0
2, 606960, Note_on_c, 0, 66, 80
2, 607080, Note_off_c, 0, 66, 0
2, 607080, Note_on_c, 0, 64, 81
2, 607200, Note_off_c, 0, 64, 0
2, 607200, Note_on_c, 0, 62, 83
2, 607320, Note_off_c, 0, 62, 0
2, 607320, Note_on_c, 0, 59, 84
2, 607440, Note_off_c, 0, 59, 0
2, 607440, Note_on_c, 0, 67, 85
2, 607560, Note_off_c, 0, 67, 0
2, 607560, Note_on_c, 0, 65, 86
2, 607680, Note_off_c, 0, 65, 0
2, 607680, Note_on_c, 0, 64, 87
2, 607800, Note_off_c, 0, 64, 0
2, 607800, Note_on_c, 0, 60, 88
2, 607920, Note_off_c, 0, 60, 0
2, 607920, Note_on_c, 0, 67, 89
2, 608040, Note_off_c, 0, 67, 0
2, 608040, Note_on_c, 0, 65, 91
2, 608160, Note_off_c, 0, 65, 0
2, 608160, Note_on_c, 0, 64, 92
2, 608280, Note_off_c, 0, 64, 0
2, 608280, Note_on_c, 0, 60, 93
2, 608400, Note_off_c, 0, 60, 0
2, 608400, Note_on_c, 0, 67, 94
2, 608520, Note_off_c, 0, 67, 0
2, 608520, Note_on_c, 0, 65, 95
2, 608640, Note_off_c, 0, 65, 0
2, 608640, Note_on_c, 0, 64, 96
2, 608760, Note_off_c, 0, 64, 0
2, 608760, Note_on_c, 0, 60, 98
2, 608880, Note_off_c, 0, 60, 0
2, 608880, Note_on_c, 0, 67, 99
2, 609000, Note_off_c, 0, 67, 0
2, 609000, Note_on_c, 0, 65, 100
2, 609120, Note_off_c, 0, 65, 0
2, 609120, Note_on_c, 0, 64, 101
2, 609240, Note_off_c, 0, 64, 0
2, 609240, Note_on_c, 0, 60, 102
2, 609360, Note_off_c, 0, 60, 0
2, 609600, Note_on_c, 0, 79, 71
2, 609680, Note_off_c, 0, 79, 0
2, 609680, Note_on_c, 0, 78, 71
2, 609760, Note_off_c, 0, 78, 0
2, 609760, Note_on_c, 0, 76, 70
2, 609840, Note_off_c, 0, 76, 0
2, 609840, Note_on_c, 0, 79, 70
2, 609920, Note_off_c, 0, 79, 0
2, 609920, Note_on_c, 0, 78, 69
2, 610000, Note_off_c, 0, 78, 0
2, 610000, Note_on_c, 0, 76, 69
2, 610080, Note_off_c, 0, 76, 0
2, 610320, Note_on_c, 0, 79, 67
2, 610400, Note_off_c, 0, 79, 0
2, 610400, Note_on_c, 0, 78, 66
2, 610480, Note_off_c, 0, 78, 0
2, 610480, Note_on_c, 0, 76, 65
2, 610560, Note_off_c, 0, 76, 0
2, 610560, Note_on_c, 0, 79, 65
2, 610640, Note_off_c, 0, 79, 0
2, 610640, Note_on_c, 0, 78, 64
2, 610720, Note_off_c, 0, 78, 0
2, 610720, Note_on_c, 0, 76, 64
2, 610800, Note_off_c, 0, 76, 0
2, 611040, Note_on_c, 0, 74, 62
2, 611120, Note_off_c, 0, 74, 0
2, 611120, Note_on_c, 0, 72, 61
2, 611200, Note_off_c, 0, 72, 0
2, 611200, Note_on_c, 0, 71, 61
2, 611280, Note_off_c, 0, 71, 0
2, 611280, Note_on_c, 0, 74, 60
2, 611360, Note_off_c, 0, 74, 0
2, 611360, Note_on_c, 0, 72, 59
2, 611440, Note_off_c, 0, 72, 0
2, 611440, Note_on_c, 0, 71, 59
2, 611520, Note_off_c, 0, 71, 0
2, 611760, Note_on_c, 0, 69, 57
2, 611840, Note_off_c, 0, 69, 0
2, 611840, Note_on_c, 0, 67, 56
2, 611920, Note_off_c, 0, 67, 0
2, 611920, Note_on_c, 0, 66, 56
2, 612000, Note_off_c, 0, 66, 0
2, 612000, Note_on_c, 0, 69, 55
2, 612080, Note_off_c, 0, 69, 0
2, 612080, Note_on_c, 0, 67, 55
2, 612160, Note_off_c, 0, 67, 0
2, 612160, Note_on_c, 0, 66, 54
2, 612240, Note_off_c, 0, 66, 0
2, 612240, Note_on_c, 0, 67, 53
2, 612480, Note_off_c, 0, 67, 0
2, 612720, Note_on_c, 0, 71, 52
2, 612840, Note_off_c, 0, 71, 0
2, 612840, Note_on_c, 0, 72, 53
2, 612960, Note_off_c, 0, 72, 0
2, 612960, Note_on_c, 0, 74, 54
2, 613080, Note_off_c, 0, 74, 0
2, 613200, Note_on_c, 0, 76, 55
2, 613320, Note_off_c, 0, 76, 0
2, 613320, Note_on_c, 0, 78, 56
2, 613440, Note_off_c, 0, 78, 0
2, 613440, Note_on_c, 0, 79, 56
2, 613560, Note_off_c, 0, 79, 0
2, 613680, Note_on_c, 0, 81, 57
2, 613800, Note_off_c, 0, 81, 0
2, 613800, Note_on_c, 0, 83, 58
2, 613920, Note_off_c, 0, 83, 0
2, 613920, Note_on_c, 0, 84, 59
2, 614040, Note_off_c, 0, 84, 0
2, 614160, Note_on_c, 0, 85, 64
2, 614280, Note_off_c, 0, 85, 0
2, 614400, Note_on_c, 0, 86, 72
2, 614880, Note_off_c, 0, 86, 0
2, 614880, Note_on_c, 0, 88, 56
2, 615000, Note_off_c, 0, 88, 0
2, 615000, Note_on_c, 0, 85, 54
2, 615120, Note_off_c, 0, 85, 0
2, 615120, Note_on_c, 0, 86, 53
2, 615240, Note_off_c, 0, 86, 0
2, 615600, Note_on_c, 0, 71, 44
2, 615720, Note_off_c, 0, 71, 0
2, 615720, Note_on_c, 0, 72, 45
2, 615840, Note_off_c, 0, 72, 0
2, 615840, Note_on_c, 0, 74, 46
2, 615960, Note_off_c, 0, 74, 0
2, 616080, Note_on_c, 0, 76, 48
2, 616200, Note_off_c, 0, 76, 0
2, 616200, Note_on_c, 0, 78, 49
2, 616320, Note_off_c, 0, 78, 0
2, 616320, Note_on_c, 0, 79, 50
2, 616440, Note_off_c, 0, 79, 0
2, 616560, Note_on_c, 0, 81, 51
2, 616680, Note_off_c, 0, 81, 0
2, 616680, Note_on_c, 0, 83, 52
2, 616800, Note_off_c, 0, 83, 0
2, 616800, Note_on_c, 0, 84, 53
2, 616920, Note_off_c, 0, 84, 0
2, 617040, Note_on_c, 0, 85, 59
2, 617040, Note_on_c, 0, 73, 59
2, 617160, Note_off_c, 0, 73, 0
2, 617160, Note_off_c, 0, 85, 0
2, 617280, Note_on_c, 0, 86, 68
2, 617280, Note_on_c, 0, 74, 68
2, 617760, Note_off_c, 0, 74, 0
2, 617760, Note_off_c, 0, 86, 0
2, 617760, Note_on_c, 0, 84, 48
2, 617880, Note_off_c, 0, 84, 0
2, 617880, Note_on_c, 0, 81, 47
2, 618000, Note_off_c, 0, 81, 0
2, 618000, Note_on_c, 0, 79, 46
2, 618120, Note_off_c, 0, 79, 0
2, 618480, Note_on_c, 0, 73, 44
2, 618600, Note_off_c, 0, 73, 0
2, 618720, Note_on_c, 0, 74, 60
2, 619200, Note_off_c, 0, 74, 0
2, 619200, Note_on_c, 0, 76, 45
2, 619320, Note_off_c, 0, 76, 0
2, 619320, Note_on_c, 0, 73, 44
2, 619440, Note_off_c, 0, 73, 0
2, 619440, Note_on_c, 0, 74, 42
2, 619560, Note_off_c, 0, 74, 0
2, 619920, Note_on_c, 0, 73, 41
2, 619920, Note_on_c, 0, 85, 41
2, 620040, Note_off_c, 0, 85, 0
2, 620040, Note_off_c, 0, 73, 0
2, 620160, Note_on_c, 0, 74, 53
2, 620160, Note_on_c, 0, 86, 53
2, 620640, Note_off_c, 0, 86, 0
2, 620640, Note_off_c, 0, 74, 0
2, 620640, Note_on_c, 0, 84, 42
2, 620760, Note_off_c, 0, 84, 0
2, 620760, Note_on_c, 0, 81, 40
2, 620880, Note_off_c, 0, 81, 0
2, 620880, Note_on_c, 0, 79, 38
2, 621000, Note_off_c, 0, 79, 0
2, 621360, Note_on_c, 0, 72, 38
2, 621480, Note_off_c, 0, 72, 0
2, 621480, Note_on_c, 0, 69, 37
2, 621600, Note_off_c, 0, 69, 0
2, 621600, Note_on_c, 0, 67, 37
2, 621720, Note_off_c, 0, 67, 0
2, 622080, Note_on_c, 0, 84, 36
2, 622200, Note_off_c, 0, 84, 0
2, 622200, Note_on_c, 0, 81, 36
2, 622320, Note_off_c, 0, 81, 0
2, 622320, Note_on_c, 0, 79, 35
2, 622440, Note_off_c, 0, 79, 0
2, 622800, Note_on_c, 0, 72, 34
2, 622920, Note_off_c, 0, 72, 0
2, 622920, Note_on_c, 0, 69, 34
2, 623040, Note_off_c, 0, 69, 0
2, 623040, Note_on_c, 0, 67, 34
2, 623160, Note_off_c, 0, 67, 0
2, 623160, End_track
3, 0, Start_track
3, 0, Title_t, "No Name"
3, 0, Control_c, 1, 0, 0
3, 0, Control_c, 1, 32, 0
3, 0, Program_c, 1, 0
3, 0, Control_c, 1, 10, 64
3, 0, Control_c, 1, 91, 91
3, 0, Control_c, 1, 93, 28
3, 0, Control_c, 1, 64, 0
3, 0, Control_c, 1, 1, 0
3, 0, Pitch_bend_c, 1, 8192
3, 0, Control_c, 1, 7, 122
3, 7680, Note_on_c, 1, 59, 35
3, 8160, Note_off_c, 1, 59, 0
3, 24960, Note_on_c, 1, 78, 68
3, 25320, Note_off_c, 1, 78, 0
3, 25320, Note_on_c, 1, 77, 66
3, 25416, Note_off_c, 1, 77, 0
3, 25440, Note_on_c, 1, 78, 65
3, 25800, Note_off_c, 1, 78, 0
3, 25800, Note_on_c, 1, 77, 63
3, 25896, Note_off_c, 1, 77, 0
3, 25920, Note_on_c, 1, 78, 62
3, 26280, Note_off_c, 1, 78, 0
3, 26280, Note_on_c, 1, 76, 60
3, 26376, Note_off_c, 1, 76, 0
3, 26400, Note_on_c, 1, 76, 59
3, 26520, Note_off_c, 1, 76, 0
3, 26520, Note_on_c, 1, 74, 58
3, 26616, Note_off_c, 1, 74, 0
3, 26640, Note_on_c, 1, 74, 58
3, 26760, Note_off_c, 1, 74, 0
3, 26760, Note_on_c, 1, 73, 57
3, 26856, Note_off_c, 1, 73, 0
3, 26880, Note_on_c, 1, 73, 56
3, 27000, Note_off_c, 1, 73, 0
3, 27000, Note_on_c, 1, 71, 56
3, 27096, Note_off_c, 1, 71, 0
3, 27120, Note_on_c, 1, 71, 55
3, 27240, Note_off_c, 1, 71, 0
3, 27240, Note_on_c, 1, 69, 54
3, 27336, Note_off_c, 1, 69, 0
3, 27360, Note_on_c, 1, 69, 53
3, 27480, Note_off_c, 1, 69, 0
3, 27480, Note_on_c, 1, 67, 53
3, 27576, Note_off_c, 1, 67, 0
3, 27600, Note_on_c, 1, 67, 52
3, 27720, Note_off_c, 1, 67, 0
3, 27720, Note_on_c, 1, 66, 51
3, 27816, Note_off_c, 1, 66, 0
3, 27840, Note_on_c, 1, 63, 51
3, 28320, Note_off_c, 1, 63, 0
3, 28320, Note_on_c, 1, 64, 44
3, 28560, Note_off_c, 1, 64, 0
3, 28800, Note_on_c, 1, 76, 59
3, 29160, Note_off_c, 1, 76, 0
3, 29160, Note_on_c, 1, 75, 57
3, 29256, Note_off_c, 1, 75, 0
3, 29280, Note_on_c, 1, 76, 57
3, 29640, Note_off_c, 1, 76, 0
3, 29640, Note_on_c, 1, 75, 54
3, 29736, Note_off_c, 1, 75, 0
3, 29760, Note_on_c, 1, 76, 54
3, 30120, Note_off_c, 1, 76, 0
3, 30120, Note_on_c, 1, 74, 52
3, 30216, Note_off_c, 1, 74, 0
3, 30240, Note_on_c, 1, 74, 52
3, 30360, Note_off_c, 1, 74, 0
3, 30360, Note_on_c, 1, 73, 51
3, 30456, Note_off_c, 1, 73, 0
3, 30480, Note_on_c, 1, 73, 50
3, 30600, Note_off_c, 1, 73, 0
3, 30600, Note_on_c, 1, 71, 49
3, 30696, Note_off_c, 1, 71, 0
3, 30720, Note_on_c, 1, 71, 48
3, 30840, Note_off_c, 1, 71, 0
3, 30840, Note_on_c, 1, 69, 47
3, 30936, Note_off_c, 1, 69, 0
3, 30960, Note_on_c, 1, 69, 46
3, 31080, Note_off_c, 1, 69, 0
3, 31080, Note_on_c, 1, 67, 45
3, 31176, Note_off_c, 1, 67, 0
3, 31200, Note_on_c, 1, 67, 44
3, 31320, Note_off_c, 1, 67, 0
3, 31320, Note_on_c, 1, 66, 43
3, 31416, Note_off_c, 1, 66, 0
3, 31440, Note_on_c, 1, 66, 42
3, 31560, Note_off_c, 1, 66, 0
3, 31560, Note_on_c, 1, 64, 41
3, 31656, Note_off_c, 1, 64, 0
3, 31680, Note_on_c, 1, 62, 40
3, 31920, Note_off_c, 1, 62, 0
3, 31920, Note_on_c, 1, 66, 45
3, 32160, Note_off_c, 1, 66, 0
3, 32160, Note_on_c, 1, 64, 49
3, 32400, Note_off_c, 1, 64, 0
3, 32400, Note_on_c, 1, 61, 47
3, 32640, Note_off_c, 1, 61, 0
3, 32640, Note_on_c, 1, 62, 44
3, 32880, Note_off_c, 1, 62, 0
3, 32880, Note_on_c, 1, 66, 48
3, 33120, Note_off_c, 1, 66, 0
3, 33120, Note_on_c, 1, 64, 54
3, 33360, Note_off_c, 1, 64, 0
3, 33360, Note_on_c, 1, 61, 53
3, 33600, Note_off_c, 1, 61, 0
3, 33720, Note_on_c, 1, 62, 55
3, 33840, Note_off_c, 1, 62, 0
3, 33840, Note_on_c, 1, 66, 57
3, 33960, Note_off_c, 1, 66, 0
3, 33960, Note_on_c, 1, 62, 54
3, 34080, Note_off_c, 1, 62, 0
3, 34080, Note_on_c, 1, 61, 52
3, 34200, Note_off_c, 1, 61, 0
3, 34200, Note_on_c, 1, 64, 51
3, 34320, Note_off_c, 1, 64, 0
3, 34320, Note_on_c, 1, 59, 50
3, 34440, Note_off_c, 1, 59, 0
3, 34440, Note_on_c, 1, 62, 49
3, 34560, Note_off_c, 1, 62, 0
3, 36240, Note_on_c, 1, 73, 53
3, 36480, Note_off_c, 1, 73, 0
3, 36480, Note_on_c, 1, 74, 50
3, 36720, Note_off_c, 1, 74, 0
3, 37200, Note_on_c, 1, 73, 58
3, 37440, Note_off_c, 1, 73, 0
3, 37440, Note_on_c, 1, 74, 56
3, 37680, Note_off_c, 1, 74, 0
3, 42240, Note_on_c, 1, 74, 88
3, 42720, Note_off_c, 1, 74, 0
3, 42720, Note_on_c, 1, 73, 78
3, 43200, Note_off_c, 1, 73, 0
3, 44160, Note_on_c, 1, 62, 76
3, 44640, Note_off_c, 1, 62, 0
3, 44640, Note_on_c, 1, 61, 67
3, 45120, Note_off_c, 1, 61, 0
3, 45360, Note_on_c, 1, 62, 54
3, 45585, Note_off_c, 1, 62, 0
3, 45600, Note_on_c, 1, 64, 57
3, 45825, Note_off_c, 1, 64, 0
3, 45840, Note_on_c, 1, 65, 60
3, 46065, Note_off_c, 1, 65, 0
3, 46080, Note_on_c, 1, 66, 65
3, 47280, Note_off_c, 1, 66, 0
3, 47280, Note_on_c, 1, 62, 54
3, 47520, Note_on_c, 1, 67, 56
3, 47526, Note_off_c, 1, 62, 0
3, 47752, Note_off_c, 1, 67, 0
3, 47760, Note_on_c, 1, 66, 58
3, 47985, Note_off_c, 1, 66, 0
3, 48000, Note_on_c, 1, 64, 63
3, 49200, Note_off_c, 1, 64, 0
3, 49200, Note_on_c, 1, 64, 52
3, 49440, Note_off_c, 1, 64, 0
3, 49440, Note_on_c, 1, 66, 54
3, 49680, Note_off_c, 1, 66, 0
3, 49680, Note_on_c, 1, 64, 57
3, 49920, Note_off_c, 1, 64, 0
3, 49920, Note_on_c, 1, 62, 62
3, 51120, Note_off_c, 1, 62, 0
3, 51120, Note_on_c, 1, 62, 52
3, 51360, Note_off_c, 1, 62, 0
3, 51360, Note_on_c, 1, 62, 55
3, 51600, Note_off_c, 1, 62, 0
3, 51600, Note_on_c, 1, 61, 58
3, 51840, Note_off_c, 1, 61, 0
3, 51840, Note_on_c, 1, 62, 65
3, 53040, Note_off_c, 1, 62, 0
3, 53040, Note_on_c, 1, 62, 48
3, 53280, Note_off_c, 1, 62, 0
3, 53280, Note_on_c, 1, 62, 50
3, 53520, Note_off_c, 1, 62, 0
3, 53520, Note_on_c, 1, 61, 55
3, 53760, Note_off_c, 1, 61, 0
3, 53760, Note_on_c, 1, 62, 58
3, 54960, Note_off_c, 1, 62, 0
3, 54960, Note_on_c, 1, 64, 62
3, 55200, Note_off_c, 1, 64, 0
3, 55200, Note_on_c, 1, 62, 67
3, 55440, Note_off_c, 1, 62, 0
3, 55440, Note_on_c, 1, 61, 71
3, 55680, Note_off_c, 1, 61, 0
3, 58320, Note_on_c, 1, 64, 52
3, 58560, Note_off_c, 1, 64, 0
3, 58560, Note_on_c, 1, 66, 42
3, 58716, Note_off_c, 1, 66, 0
3, 58800, Note_on_c, 1, 64, 51
3, 59040, Note_off_c, 1, 64, 0
3, 59040, Note_on_c, 1, 66, 40
3, 59196, Note_off_c, 1, 66, 0
3, 59280, Note_on_c, 1, 64, 38
3, 59520, Note_off_c, 1, 64, 0
3, 59520, Note_on_c, 1, 67, 46
3, 60480, Note_off_c, 1, 67, 0
3, 60480, Note_on_c, 1, 66, 31
3, 60720, Note_off_c, 1, 66, 0
3, 60960, Control_c, 1, 64, 0
3, 71040, Note_on_c, 1, 74, 67
3, 71400, Note_off_c, 1, 74, 0
3, 71400, Note_on_c, 1, 73, 65
3, 71496, Note_off_c, 1, 73, 0
3, 71520, Note_on_c, 1, 74, 65
3, 71880, Note_off_c, 1, 74, 0
3, 71880, Note_on_c, 1, 73, 63
3, 71976, Note_off_c, 1, 73, 0
3, 72000, Note_on_c, 1, 74, 63
3, 72360, Note_off_c, 1, 74, 0
3, 72360, Note_on_c, 1, 72, 61
3, 72456, Note_off_c, 1, 72, 0
3, 72480, Note_on_c, 1, 72, 61
3, 72600, Note_off_c, 1, 72, 0
3, 72600, Note_on_c, 1, 70, 60
3, 72696, Note_off_c, 1, 70, 0
3, 72720, Note_on_c, 1, 70, 60
3, 72840, Note_off_c, 1, 70, 0
3, 72840, Note_on_c, 1, 69, 59
3, 72936, Note_off_c, 1, 69, 0
3, 72960, Note_on_c, 1, 69, 58
3, 73080, Note_off_c, 1, 69, 0
3, 73080, Note_on_c, 1, 67, 58
3, 73176, Note_off_c, 1, 67, 0
3, 73200, Note_on_c, 1, 67, 57
3, 73320, Note_off_c, 1, 67, 0
3, 73320, Note_on_c, 1, 65, 57
3, 73416, Note_off_c, 1, 65, 0
3, 73440, Note_on_c, 1, 65, 56
3, 73560, Note_off_c, 1, 65, 0
3, 73560, Note_on_c, 1, 63, 56
3, 73656, Note_off_c, 1, 63, 0
3, 73680, Note_on_c, 1, 63, 55
3, 73800, Note_off_c, 1, 63, 0
3, 73800, Note_on_c, 1, 62, 55
3, 73896, Note_off_c, 1, 62, 0
3, 73920, Note_on_c, 1, 59, 54
3, 74400, Note_off_c, 1, 59, 0
3, 74400, Note_on_c, 1, 60, 47
3, 74640, Note_off_c, 1, 60, 0
3, 74880, Note_on_c, 1, 72, 65
3, 75240, Note_off_c, 1, 72, 0
3, 75240, Note_on_c, 1, 71, 61
3, 75336, Note_off_c, 1, 71, 0
3, 75360, Note_on_c, 1, 72, 60
3, 75720, Note_off_c, 1, 72, 0
3, 75720, Note_on_c, 1, 71, 56
3, 75816, Note_off_c, 1, 71, 0
3, 75840, Note_on_c, 1, 72, 54
3, 76200, Note_off_c, 1, 72, 0
3, 76200, Note_on_c, 1, 71, 50
3, 76296, Note_off_c, 1, 71, 0
3, 76320, Note_on_c, 1, 72, 49
3, 76680, Note_off_c, 1, 72, 0
3, 76680, Note_on_c, 1, 71, 45
3, 76776, Note_off_c, 1, 71, 0
3, 76800, Note_on_c, 1, 72, 44
3, 77160, Note_off_c, 1, 72, 0
3, 77160, Note_on_c, 1, 71, 40
3, 77256, Note_off_c, 1, 71, 0
3, 77280, Note_on_c, 1, 72, 38
3, 77640, Note_off_c, 1, 72, 0
3, 77640, Note_on_c, 1, 71, 34
3, 77736, Note_off_c, 1, 71, 0
3, 77760, Control_c, 1, 64, 0
3, 77800, Control_c, 1, 64, 127
3, 77840, Note_on_c, 1, 72, 57
3, 77920, Note_off_c, 1, 72, 0
3, 77920, Note_on_c, 1, 63, 57
3, 78000, Note_off_c, 1, 63, 0
3, 78080, Note_on_c, 1, 72, 57
3, 78160, Note_off_c, 1, 72, 0
3, 78160, Note_on_c, 1, 63, 57
3, 78240, Note_off_c, 1, 63, 0
3, 78320, Note_on_c, 1, 72, 56
3, 78400, Note_off_c, 1, 72, 0
3, 78400, Note_on_c, 1, 63, 56
3, 78480, Note_off_c, 1, 63, 0
3, 78560, Note_on_c, 1, 72, 56
3, 78640, Note_off_c, 1, 72, 0
3, 78640, Note_on_c, 1, 63, 56
3, 78720, Note_off_c, 1, 63, 0
3, 78800, Note_on_c, 1, 72, 55
3, 78880, Note_off_c, 1, 72, 0
3, 78880, Note_on_c, 1, 63, 55
3, 78960, Note_off_c, 1, 63, 0
3, 79040, Note_on_c, 1, 72, 55
3, 79120, Note_off_c, 1, 72, 0
3, 79120, Note_on_c, 1, 63, 55
3, 79200, Note_off_c, 1, 63, 0
3, 79280, Note_on_c, 1, 72, 54
3, 79360, Note_off_c, 1, 72, 0
3, 79360, Note_on_c, 1, 63, 54
3, 79440, Note_off_c, 1, 63, 0
3, 79520, Note_on_c, 1, 72, 54
3, 79600, Note_off_c, 1, 72, 0
3, 79600, Note_on_c, 1, 63, 54
3, 79680, Note_off_c, 1, 63, 0
3, 79760, Note_on_c, 1, 72, 53
3, 79840, Note_off_c, 1, 72, 0
3, 79840, Note_on_c, 1, 63, 53
3, 79920, Note_off_c, 1, 63, 0
3, 80000, Note_on_c, 1, 72, 53
3, 80080, Note_off_c, 1, 72, 0
3, 80080, Note_on_c, 1, 63, 53
3, 80160, Note_off_c, 1, 63, 0
3, 80240, Note_on_c, 1, 72, 52
3, 80320, Note_off_c, 1, 72, 0
3, 80320, Note_on_c, 1, 63, 52
3, 80400, Note_off_c, 1, 63, 0
3, 80480, Note_on_c, 1, 72, 52
3, 80560, Note_off_c, 1, 72, 0
3, 80560, Note_on_c, 1, 63, 52
3, 80640, Control_c, 1, 64, 0
3, 80640, Note_off_c, 1, 63, 0
3, 80680, Control_c, 1, 64, 127
3, 80720, Note_on_c, 1, 72, 51
3, 80800, Note_off_c, 1, 72, 0
3, 80800, Note_on_c, 1, 62, 51
3, 80880, Note_off_c, 1, 62, 0
3, 80960, Note_on_c, 1, 72, 51
3, 81040, Note_off_c, 1, 72, 0
3, 81040, Note_on_c, 1, 62, 51
3, 81120, Note_off_c, 1, 62, 0
3, 81200, Note_on_c, 1, 72, 50
3, 81280, Note_off_c, 1, 72, 0
3, 81280, Note_on_c, 1, 62, 50
3, 81360, Note_off_c, 1, 62, 0
3, 81440, Note_on_c, 1, 72, 50
3, 81520, Note_off_c, 1, 72, 0
3, 81520, Note_on_c, 1, 62, 50
3, 81600, Note_off_c, 1, 62, 0
3, 81680, Note_on_c, 1, 72, 49
3, 81760, Note_off_c, 1, 72, 0
3, 81760, Note_on_c, 1, 62, 49
3, 81840, Note_off_c, 1, 62, 0
3, 81920, Note_on_c, 1, 72, 49
3, 82000, Note_off_c, 1, 72, 0
3, 82000, Note_on_c, 1, 62, 49
3, 82080, Note_off_c, 1, 62, 0
3, 82160, Note_on_c, 1, 72, 48
3, 82240, Note_off_c, 1, 72, 0
3, 82240, Note_on_c, 1, 62, 48
3, 82320, Note_off_c, 1, 62, 0
3, 82400, Note_on_c, 1, 72, 48
3, 82480, Note_off_c, 1, 72, 0
3, 82480, Note_on_c, 1, 62, 48
3, 82560, Control_c, 1, 64, 0
3, 82560, Note_off_c, 1, 62, 0
3, 82600, Control_c, 1, 64, 127
3, 82640, Note_on_c, 1, 70, 57
3, 82720, Note_off_c, 1, 70, 0
3, 82720, Note_on_c, 1, 62, 57
3, 82800, Note_off_c, 1, 62, 0
3, 82880, Note_on_c, 1, 70, 57
3, 82960, Note_off_c, 1, 70, 0
3, 82960, Note_on_c, 1, 67, 57
3, 83040, Note_off_c, 1, 67, 0
3, 83120, Note_on_c, 1, 70, 57
3, 83200, Note_off_c, 1, 70, 0
3, 83200, Note_on_c, 1, 67, 56
3, 83280, Note_off_c, 1, 67, 0
3, 83360, Note_on_c, 1, 70, 56
3, 83440, Note_off_c, 1, 70, 0
3, 83440, Note_on_c, 1, 67, 56
3, 83520, Note_off_c, 1, 67, 0
3, 83600, Note_on_c, 1, 70, 56
3, 83680, Note_off_c, 1, 70, 0
3, 83680, Note_on_c, 1, 67, 56
3, 83760, Note_off_c, 1, 67, 0
3, 83840, Note_on_c, 1, 70, 55
3, 83920, Note_off_c, 1, 70, 0
3, 83920, Note_on_c, 1, 67, 55
3, 84000, Note_off_c, 1, 67, 0
3, 84080, Note_on_c, 1, 70, 55
3, 84160, Note_off_c, 1, 70, 0
3, 84160, Note_on_c, 1, 67, 55
3, 84240, Note_off_c, 1, 67, 0
3, 84320, Note_on_c, 1, 70, 54
3, 84400, Note_off_c, 1, 70, 0
3, 84400, Note_on_c, 1, 67, 54
3, 84480, Note_off_c, 1, 67, 0
3, 84560, Note_on_c, 1, 70, 54
3, 84640, Note_off_c, 1, 70, 0
3, 84640, Note_on_c, 1, 67, 54
3, 84720, Note_off_c, 1, 67, 0
3, 84800, Note_on_c, 1, 70, 54
3, 84880, Note_off_c, 1, 70, 0
3, 84880, Note_on_c, 1, 67, 53
3, 84960, Note_off_c, 1, 67, 0
3, 85040, Note_on_c, 1, 70, 53
3, 85120, Note_off_c, 1, 70, 0
3, 85120, Note_on_c, 1, 67, 53
3, 85200, Note_off_c, 1, 67, 0
3, 85280, Note_on_c, 1, 70, 53
3, 85360, Note_off_c, 1, 70, 0
3, 85360, Note_on_c, 1, 67, 53
3, 85440, Control_c, 1, 64, 0
3, 85440, Note_off_c, 1, 67, 0
3, 85480, Control_c, 1, 64, 127
3, 85520, Note_on_c, 1, 70, 52
3, 85600, Note_off_c, 1, 70, 0
3, 85600, Note_on_c, 1, 67, 52
3, 85680, Note_off_c, 1, 67, 0
3, 85760, Note_on_c, 1, 70, 52
3, 85840, Note_off_c, 1, 70, 0
3, 85840, Note_on_c, 1, 67, 52
3, 85920, Note_off_c, 1, 67, 0
3, 86000, Note_on_c, 1, 70, 51
3, 86080, Note_off_c, 1, 70, 0
3, 86080, Note_on_c, 1, 67, 51
3, 86160, Note_off_c, 1, 67, 0
3, 86240, Note_on_c, 1, 70, 51
3, 86320, Note_off_c, 1, 70, 0
3, 86320, Note_on_c, 1, 67, 51
3, 86400, Note_off_c, 1, 67, 0
3, 86480, Note_on_c, 1, 70, 51
3, 86560, Note_off_c, 1, 70, 0
3, 86560, Note_on_c, 1, 67, 50
3, 86640, Note_off_c, 1, 67, 0
3, 86720, Note_on_c, 1, 70, 50
3, 86800, Note_off_c, 1, 70, 0
3, 86800, Note_on_c, 1, 67, 50
3, 86880, Note_off_c, 1, 67, 0
3, 86960, Note_on_c, 1, 70, 50
3, 87040, Note_off_c, 1, 70, 0
3, 87040, Note_on_c, 1, 67, 50
3, 87120, Note_off_c, 1, 67, 0
3, 87200, Note_on_c, 1, 70, 49
3, 87280, Note_off_c, 1, 70, 0
3, 87280, Note_on_c, 1, 67, 49
3, 87360, Control_c, 1, 64, 0
3, 87360, Note_off_c, 1, 67, 0
3, 87400, Control_c, 1, 64, 127
3, 87440, Note_on_c, 1, 68, 49
3, 87520, Note_off_c, 1, 68, 0
3, 87520, Note_on_c, 1, 65, 49
3, 87600, Note_off_c, 1, 65, 0
3, 87680, Note_on_c, 1, 68, 48
3, 87760, Note_off_c, 1, 68, 0
3, 87760, Note_on_c, 1, 65, 48
3, 87840, Note_off_c, 1, 65, 0
3, 87920, Note_on_c, 1, 68, 48
3, 88000, Note_off_c, 1, 68, 0
3, 88000, Note_on_c, 1, 65, 48
3, 88080, Note_off_c, 1, 65, 0
3, 88160, Note_on_c, 1, 68, 48
3, 88240, Note_off_c, 1, 68, 0
3, 88240, Note_on_c, 1, 65, 47
3, 88320, Note_off_c, 1, 65, 0
3, 88400, Note_on_c, 1, 69, 47
3, 88480, Note_off_c, 1, 69, 0
3, 88480, Note_on_c, 1, 65, 47
3, 88560, Note_off_c, 1, 65, 0
3, 88640, Note_on_c, 1, 69, 46
3, 88720, Note_off_c, 1, 69, 0
3, 88720, Note_on_c, 1, 65, 46
3, 88800, Note_off_c, 1, 65, 0
3, 88880, Note_on_c, 1, 69, 46
3, 88960, Note_off_c, 1, 69, 0
3, 88960, Note_on_c, 1, 65, 46
3, 89040, Note_off_c, 1, 65, 0
3, 89120, Note_on_c, 1, 69, 45
3, 89200, Note_off_c, 1, 69, 0
3, 89200, Note_on_c, 1, 65, 45
3, 89280, Note_off_c, 1, 65, 0
3, 89360, Note_on_c, 1, 70, 45
3, 89440, Note_off_c, 1, 70, 0
3, 89440, Note_on_c, 1, 65, 45
3, 89520, Note_off_c, 1, 65, 0
3, 89600, Note_on_c, 1, 70, 45
3, 89680, Note_off_c, 1, 70, 0
3, 89680, Note_on_c, 1, 65, 44
3, 89760, Note_off_c, 1, 65, 0
3, 89840, Note_on_c, 1, 70, 45
3, 89920, Note_off_c, 1, 70, 0
3, 89920, Note_on_c, 1, 65, 46
3, 90000, Note_off_c, 1, 65, 0
3, 90080, Note_on_c, 1, 70, 48
3, 90160, Note_off_c, 1, 70, 0
3, 90160, Note_on_c, 1, 65, 49
3, 90240, Note_off_c, 1, 65, 0
3, 90320, Note_on_c, 1, 70, 48
3, 90400, Note_off_c, 1, 70, 0
3, 90400, Note_on_c, 1, 65, 47
3, 90480, Note_off_c, 1, 65, 0
3, 90560, Note_on_c, 1, 70, 43
3, 90640, Note_off_c, 1, 70, 0
3, 90640, Note_on_c, 1, 65, 42
3, 90720, Note_off_c, 1, 65, 0
3, 90800, Note_on_c, 1, 70, 41
3, 90880, Note_off_c, 1, 70, 0
3, 90880, Note_on_c, 1, 65, 43
3, 90960, Note_off_c, 1, 65, 0
3, 91040, Note_on_c, 1, 70, 45
3, 91120, Note_off_c, 1, 70, 0
3, 91120, Note_on_c, 1, 65, 47
3, 91200, Note_off_c, 1, 65, 0
3, 91280, Note_on_c, 1, 70, 46
3, 91360, Note_off_c, 1, 70, 0
3, 91360, Note_on_c, 1, 65, 45
3, 91440, Note_off_c, 1, 65, 0
3, 91520, Note_on_c, 1, 74, 42
3, 91600, Note_off_c, 1, 74, 0
3, 91600, Note_on_c, 1, 70, 40
3, 91680, Note_off_c, 1, 70, 0
3, 91760, Note_on_c, 1, 74, 41
3, 91840, Note_off_c, 1, 74, 0
3, 91840, Note_on_c, 1, 70, 42
3, 91920, Note_off_c, 1, 70, 0
3, 92000, Note_on_c, 1, 74, 44
3, 92080, Note_off_c, 1, 74, 0
3, 92080, Note_on_c, 1, 70, 45
3, 92160, Note_off_c, 1, 70, 0
3, 92240, Note_on_c, 1, 74, 45
3, 92320, Note_off_c, 1, 74, 0
3, 92320, Note_on_c, 1, 70, 45
3, 92400, Note_off_c, 1, 70, 0
3, 92480, Note_on_c, 1, 74, 43
3, 92560, Note_off_c, 1, 74, 0
3, 92560, Note_on_c, 1, 70, 43
3, 92640, Note_off_c, 1, 70, 0
3, 92720, Note_on_c, 1, 74, 41
3, 92800, Note_off_c, 1, 74, 0
3, 92800, Note_on_c, 1, 70, 41
3, 92880, Note_off_c, 1, 70, 0
3, 92960, Note_on_c, 1, 74, 40
3, 93040, Note_off_c, 1, 74, 0
3, 93040, Note_on_c, 1, 70, 39
3, 93120, Note_off_c, 1, 70, 0
3, 93200, Note_on_c, 1, 74, 38
3, 93280, Note_off_c, 1, 74, 0
3, 93280, Note_on_c, 1, 70, 38
3, 93360, Note_off_c, 1, 70, 0
3, 93440, Note_on_c, 1, 74, 37
3, 93520, Note_off_c, 1, 74, 0
3, 93520, Note_on_c, 1, 70, 37
3, 93600, Note_off_c, 1, 70, 0
3, 93680, Note_on_c, 1, 74, 37
3, 93760, Note_off_c, 1, 74, 0
3, 93760, Note_on_c, 1, 70, 36
3, 93840, Note_off_c, 1, 70, 0
3, 93920, Note_on_c, 1, 74, 36
3, 94000, Note_off_c, 1, 74, 0
3, 94000, Note_on_c, 1, 70, 36
3, 94080, Note_off_c, 1, 70, 0
3, 94080, Note_on_c, 1, 74, 48
3, 94080, Note_on_c, 1, 70, 48
3, 95040, Control_c, 1, 64, 0
3, 95040, Note_off_c, 1, 70, 0
3, 95040, Note_off_c, 1, 74, 0
3, 128640, Note_on_c, 1, 59, 38
3, 129120, Note_off_c, 1, 59, 0
3, 148800, Note_on_c, 1, 83, 68
3, 149160, Note_off_c, 1, 83, 0
3, 149160, Note_on_c, 1, 82, 65
3, 149256, Note_off_c, 1, 82, 0
3, 149280, Note_on_c, 1, 83, 65
3, 149640, Note_off_c, 1, 83, 0
3, 149640, Note_on_c, 1, 82, 62
3, 149736, Note_off_c, 1, 82, 0
3, 149760, Note_on_c, 1, 83, 62
3, 150120, Note_off_c, 1, 83, 0
3, 150120, Note_on_c, 1, 81, 60
3, 150216, Note_off_c, 1, 81, 0
3, 150240, Note_on_c, 1, 81, 59
3, 150360, Note_off_c, 1, 81, 0
3, 150360, Note_on_c, 1, 79, 58
3, 150456, Note_off_c, 1, 79, 0
3, 150480, Note_on_c, 1, 79, 58
3, 150600, Note_off_c, 1, 79, 0
3, 150600, Note_on_c, 1, 78, 57
3, 150696, Note_off_c, 1, 78, 0
3, 150720, Note_on_c, 1, 78, 56
3, 150840, Note_off_c, 1, 78, 0
3, 150840, Note_on_c, 1, 76, 56
3, 150936, Note_off_c, 1, 76, 0
3, 150960, Note_on_c, 1, 76, 55
3, 151080, Note_off_c, 1, 76, 0
3, 151080, Note_on_c, 1, 74, 54
3, 151176, Note_off_c, 1, 74, 0
3, 151200, Note_on_c, 1, 74, 53
3, 151320, Note_off_c, 1, 74, 0
3, 151320, Note_on_c, 1, 72, 53
3, 151416, Note_off_c, 1, 72, 0
3, 151440, Note_on_c, 1, 72, 52
3, 151560, Note_off_c, 1, 72, 0
3, 151560, Note_on_c, 1, 71, 51
3, 151656, Note_off_c, 1, 71, 0
3, 151680, Note_on_c, 1, 68, 51
3, 152160, Note_off_c, 1, 68, 0
3, 152160, Note_on_c, 1, 69, 44
3, 152400, Note_off_c, 1, 69, 0
3, 152640, Note_on_c, 1, 81, 59
3, 153000, Note_off_c, 1, 81, 0
3, 153000, Note_on_c, 1, 80, 57
3, 153096, Note_off_c, 1, 80, 0
3, 153120, Note_on_c, 1, 81, 57
3, 153480, Note_off_c, 1, 81, 0
3, 153480, Note_on_c, 1, 80, 54
3, 153576, Note_off_c, 1, 80, 0
3, 153600, Note_on_c, 1, 81, 54
3, 153960, Note_off_c, 1, 81, 0
3, 153960, Note_on_c, 1, 79, 52
3, 154056, Note_off_c, 1, 79, 0
3, 154080, Note_on_c, 1, 79, 52
3, 154200, Note_off_c, 1, 79, 0
3, 154200, Note_on_c, 1, 78, 51
3, 154296, Note_off_c, 1, 78, 0
3, 154320, Note_on_c, 1, 78, 50
3, 154440, Note_off_c, 1, 78, 0
3, 154440, Note_on_c, 1, 76, 49
3, 154536, Note_off_c, 1, 76, 0
3, 154560, Note_on_c, 1, 76, 48
3, 154680, Note_off_c, 1, 76, 0
3, 154680, Note_on_c, 1, 74, 47
3, 154776, Note_off_c, 1, 74, 0
3, 154800, Note_on_c, 1, 74, 46
3, 154920, Note_off_c, 1, 74, 0
3, 154920, Note_on_c, 1, 72, 45
3, 155016, Note_off_c, 1, 72, 0
3, 155040, Note_on_c, 1, 72, 44
3, 155160, Note_off_c, 1, 72, 0
3, 155160, Note_on_c, 1, 71, 43
3, 155256, Note_off_c, 1, 71, 0
3, 155280, Note_on_c, 1, 71, 42
3, 155400, Note_off_c, 1, 71, 0
3, 155400, Note_on_c, 1, 69, 41
3, 155496, Note_off_c, 1, 69, 0
3, 155520, Note_on_c, 1, 67, 40
3, 155760, Note_off_c, 1, 67, 0
3, 155760, Note_on_c, 1, 71, 45
3, 156000, Note_off_c, 1, 71, 0
3, 156000, Note_on_c, 1, 69, 49
3, 156240, Note_off_c, 1, 69, 0
3, 156240, Note_on_c, 1, 66, 47
3, 156480, Note_off_c, 1, 66, 0
3, 156480, Note_on_c, 1, 67, 44
3, 156720, Note_off_c, 1, 67, 0
3, 156720, Note_on_c, 1, 71, 48
3, 156960, Note_off_c, 1, 71, 0
3, 156960, Note_on_c, 1, 69, 54
3, 157200, Note_off_c, 1, 69, 0
3, 157200, Note_on_c, 1, 66, 53
3, 157440, Note_off_c, 1, 66, 0
3, 157560, Note_on_c, 1, 67, 55
3, 157680, Note_off_c, 1, 67, 0
3, 157680, Note_on_c, 1, 71, 57
3, 157800, Note_on_c, 1, 67, 54
3, 157920, Note_off_c, 1, 67, 0
3, 157920, Note_off_c, 1, 71, 0
3, 157920, Note_on_c, 1, 66, 52
3, 158040, Note_off_c, 1, 66, 0
3, 158040, Note_on_c, 1, 69, 51
3, 158160, Note_off_c, 1, 69, 0
3, 158160, Note_on_c, 1, 64, 50
3, 158280, Note_off_c, 1, 64, 0
3, 158280, Note_on_c, 1, 67, 49
3, 158400, Note_off_c, 1, 67, 0
3, 158400, Note_on_c, 1, 66, 48
3, 158640, Note_off_c, 1, 66, 0
3, 159600, Note_on_c, 1, 76, 50
3, 159840, Note_off_c, 1, 76, 0
3, 159840, Note_on_c, 1, 74, 55
3, 160080, Note_off_c, 1, 74, 0
3, 160080, Note_on_c, 1, 78, 53
3, 160320, Note_off_c, 1, 78, 0
3, 160320, Note_on_c, 1, 79, 50
3, 160560, Note_off_c, 1, 79, 0
3, 160560, Note_on_c, 1, 76, 55
3, 160800, Note_off_c, 1, 76, 0
3, 160800, Note_on_c, 1, 74, 59
3, 161040, Note_off_c, 1, 74, 0
3, 161040, Note_on_c, 1, 78, 58
3, 161280, Note_off_c, 1, 78, 0
3, 161280, Note_on_c, 1, 79, 56
3, 161520, Note_off_c, 1, 79, 0
3, 166080, Note_on_c, 1, 67, 88
3, 166560, Note_off_c, 1, 67, 0
3, 166560, Note_on_c, 1, 66, 80
3, 167040, Note_off_c, 1, 66, 0
3, 168000, Note_on_c, 1, 55, 76
3, 168480, Note_off_c, 1, 55, 0
3, 168480, Note_on_c, 1, 54, 67
3, 168960, Note_off_c, 1, 54, 0
3, 168960, Note_on_c, 1, 55, 57
3, 169140, Note_off_c, 1, 55, 0
3, 169200, Note_on_c, 1, 55, 54
3, 169425, Note_off_c, 1, 55, 0
3, 169440, Note_on_c, 1, 57, 57
3, 169665, Note_off_c, 1, 57, 0
3, 169680, Note_on_c, 1, 58, 60
3, 169905, Note_off_c, 1, 58, 0
3, 169920, Note_on_c, 1, 59, 65
3, 171120, Note_off_c, 1, 59, 0
3, 171120, Note_on_c, 1, 55, 52
3, 171120, Note_on_c, 1, 59, 52
3, 171360, Note_off_c, 1, 59, 0
3, 171360, Note_on_c, 1, 60, 56
3, 171366, Note_off_c, 1, 55, 0
3, 171592, Note_off_c, 1, 60, 0
3, 171600, Note_on_c, 1, 59, 58
3, 171825, Note_off_c, 1, 59, 0
3, 171840, Note_on_c, 1, 57, 63
3, 173040, Note_off_c, 1, 57, 0
3, 173040, Note_on_c, 1, 57, 52
3, 173280, Note_off_c, 1, 57, 0
3, 173280, Note_on_c, 1, 59, 54
3, 173520, Note_off_c, 1, 59, 0
3, 173520, Note_on_c, 1, 57, 57
3, 173760, Note_off_c, 1, 57, 0
3, 173760, Note_on_c, 1, 55, 62
3, 174960, Note_off_c, 1, 55, 0
3, 174960, Note_on_c, 1, 55, 51
3, 175200, Note_off_c, 1, 55, 0
3, 175200, Note_on_c, 1, 55, 52
3, 175440, Note_off_c, 1, 55, 0
3, 175440, Note_on_c, 1, 54, 54
3, 175680, Note_off_c, 1, 54, 0
3, 175680, Note_on_c, 1, 55, 61
3, 176880, Note_off_c, 1, 55, 0
3, 176880, Note_on_c, 1, 55, 48
3, 177120, Note_off_c, 1, 55, 0
3, 177120, Note_on_c, 1, 55, 50
3, 177360, Note_off_c, 1, 55, 0
3, 177360, Note_on_c, 1, 54, 53
3, 177600, Note_off_c, 1, 54, 0
3, 177600, Note_on_c, 1, 55, 58
3, 178800, Note_off_c, 1, 55, 0
3, 178800, Note_on_c, 1, 55, 59
3, 179040, Note_off_c, 1, 55, 0
3, 179040, Note_on_c, 1, 57, 62
3, 179280, Note_off_c, 1, 57, 0
3, 179280, Note_on_c, 1, 59, 66
3, 179520, Note_off_c, 1, 59, 0
3, 194880, Pitch_bend_c, 1, 8192
3, 194880, Control_c, 1, 1, 0
3, 194880, Control_c, 1, 64, 0
3, 194880, Control_c, 1, 93, 28
3, 194880, Control_c, 1, 91, 91
3, 194880, Control_c, 1, 7, 122
3, 194880, Control_c, 1, 10, 64
3, 194880, Control_c, 1, 0, 0
3, 194880, Control_c, 1, 32, 0
3, 194880, Program_c, 1, 0
3, 196800, Note_on_c, 1, 52, 40
3, 196800, Note_on_c, 1, 55, 40
3, 196920, Note_off_c, 1, 55, 0
3, 196920, Note_off_c, 1, 52, 0
3, 197280, Note_on_c, 1, 55, 41
3, 197280, Note_on_c, 1, 53, 41
3, 197400, Note_off_c, 1, 53, 0
3, 197400, Note_off_c, 1, 55, 0
3, 197760, Note_on_c, 1, 55, 42
3, 197880, Note_off_c, 1, 55, 0
3, 198240, Note_on_c, 1, 55, 43
3, 198360, Note_off_c, 1, 55, 0
3, 198720, Note_on_c, 1, 55, 44
3, 198720, Note_on_c, 1, 60, 44
3, 198840, Note_off_c, 1, 60, 0
3, 198840, Note_off_c, 1, 55, 0
3, 199200, Note_on_c, 1, 62, 47
3, 199200, Note_on_c, 1, 57, 47
3, 199320, Note_off_c, 1, 57, 0
3, 199320, Note_off_c, 1, 62, 0
3, 199680, Note_on_c, 1, 59, 52
3, 200640, Note_off_c, 1, 59, 0
3, 200640, Note_on_c, 1, 60, 47
3, 200760, Note_off_c, 1, 60, 0
3, 201120, Note_on_c, 1, 59, 46
3, 201120, Note_on_c, 1, 65, 46
3, 201240, Note_off_c, 1, 65, 0
3, 201240, Note_off_c, 1, 59, 0
3, 201600, Note_on_c, 1, 60, 44
3, 201600, Note_on_c, 1, 64, 44
3, 201720, Note_off_c, 1, 64, 0
3, 201720, Note_off_c, 1, 60, 0
3, 202080, Note_on_c, 1, 62, 43
3, 202080, Note_on_c, 1, 64, 43
3, 202200, Note_off_c, 1, 64, 0
3, 202200, Note_off_c, 1, 62, 0
3, 202560, Note_on_c, 1, 60, 41
3, 202560, Note_on_c, 1, 64, 41
3, 202680, Note_off_c, 1, 64, 0
3, 202680, Note_off_c, 1, 60, 0
3, 203040, Note_on_c, 1, 60, 40
3, 203040, Note_on_c, 1, 65, 40
3, 203160, Note_off_c, 1, 65, 0
3, 203160, Note_off_c, 1, 60, 0
3, 203520, Note_on_c, 1, 59, 38
3, 204360, Note_off_c, 1, 59, 0
3, 204480, Note_on_c, 1, 52, 42
3, 204480, Note_on_c, 1, 55, 42
3, 204600, Note_off_c, 1, 55, 0
3, 204600, Note_off_c, 1, 52, 0
3, 204960, Note_on_c, 1, 55, 46
3, 204960, Note_on_c, 1, 53, 46
3, 205080, Note_off_c, 1, 53, 0
3, 205080, Note_off_c, 1, 55, 0
3, 205440, Note_on_c, 1, 55, 50
3, 205560, Note_off_c, 1, 55, 0
3, 205920, Note_on_c, 1, 55, 53
3, 206040, Note_off_c, 1, 55, 0
3, 206400, Note_on_c, 1, 55, 57
3, 206520, Note_off_c, 1, 55, 0
3, 206880, Note_on_c, 1, 60, 61
3, 207000, Note_off_c, 1, 60, 0
3, 207360, Note_on_c, 1, 62, 72
3, 208320, Note_off_c, 1, 62, 0
3, 208320, Note_on_c, 1, 64, 72
3, 208440, Note_off_c, 1, 64, 0
3, 208800, Note_on_c, 1, 64, 76
3, 208920, Note_off_c, 1, 64, 0
3, 209280, Note_on_c, 1, 62, 85
3, 210240, Note_off_c, 1, 62, 0
3, 210240, Note_on_c, 1, 66, 53
3, 210360, Note_off_c, 1, 66, 0
3, 210720, Note_on_c, 1, 66, 49
3, 210840, Note_off_c, 1, 66, 0
3, 212040, Control_c, 1, 64, 0
3, 212160, Note_on_c, 1, 72, 42
3, 212640, Note_off_c, 1, 72, 0
3, 212640, Note_on_c, 1, 71, 44
3, 213120, Note_off_c, 1, 71, 0
3, 213120, Note_on_c, 1, 72, 46
3, 213600, Note_off_c, 1, 72, 0
3, 213600, Note_on_c, 1, 72, 48
3, 214080, Note_off_c, 1, 72, 0
3, 214080, Note_on_c, 1, 72, 53
3, 214560, Note_off_c, 1, 72, 0
3, 214560, Note_on_c, 1, 72, 48
3, 215040, Note_off_c, 1, 72, 0
3, 215040, Note_on_c, 1, 72, 43
3, 215707, Note_off_c, 1, 72, 0
3, 216000, Note_on_c, 1, 69, 45
3, 216480, Note_off_c, 1, 69, 0
3, 216480, Note_on_c, 1, 69, 49
3, 216960, Note_off_c, 1, 69, 0
3, 216960, Note_on_c, 1, 69, 52
3, 217440, Note_off_c, 1, 69, 0
3, 217440, Note_on_c, 1, 67, 56
3, 217440, Note_on_c, 1, 73, 56
3, 217920, Note_off_c, 1, 73, 0
3, 217920, Note_off_c, 1, 67, 0
3, 217920, Note_on_c, 1, 69, 60
3, 217920, Note_on_c, 1, 65, 60
3, 218400, Note_off_c, 1, 65, 0
3, 218400, Note_off_c, 1, 69, 0
3, 218400, Note_on_c, 1, 63, 64
3, 218400, Note_on_c, 1, 69, 64
3, 218880, Note_off_c, 1, 69, 0
3, 218880, Note_off_c, 1, 63, 0
3, 218880, Note_on_c, 1, 62, 71
3, 218880, Note_on_c, 1, 67, 71
3, 219360, Note_off_c, 1, 67, 0
3, 219360, Note_off_c, 1, 62, 0
3, 219840, Note_on_c, 1, 67, 42
3, 219960, Note_off_c, 1, 67, 0
3, 220320, Note_on_c, 1, 67, 44
3, 220320, Note_on_c, 1, 65, 44
3, 220440, Note_off_c, 1, 65, 0
3, 220440, Note_off_c, 1, 67, 0
3, 220800, Note_on_c, 1, 67, 46
3, 220800, Note_on_c, 1, 64, 46
3, 220920, Note_off_c, 1, 64, 0
3, 220920, Note_off_c, 1, 67, 0
3, 221280, Note_on_c, 1, 62, 48
3, 221280, Note_on_c, 1, 67, 48
3, 221400, Note_off_c, 1, 67, 0
3, 221400, Note_off_c, 1, 62, 0
3, 221760, Note_on_c, 1, 72, 51
3, 221760, Note_on_c, 1, 67, 51
3, 221760, Note_on_c, 1, 64, 51
3, 221880, Note_off_c, 1, 64, 0
3, 221880, Note_off_c, 1, 67, 0
3, 221880, Note_off_c, 1, 72, 0
3, 222240, Note_on_c, 1, 74, 55
3, 222240, Note_on_c, 1, 69, 55
3, 222240, Note_on_c, 1, 65, 55
3, 222360, Note_off_c, 1, 65, 0
3, 222360, Note_off_c, 1, 69, 0
3, 222360, Note_off_c, 1, 74, 0
3, 222720, Note_on_c, 1, 71, 62
3, 222720, Note_on_c, 1, 62, 62
3, 222720, Note_on_c, 1, 67, 62
3, 222876, Note_off_c, 1, 67, 0
3, 222876, Note_off_c, 1, 62, 0
3, 222876, Note_off_c, 1, 71, 0
3, 223200, Note_on_c, 1, 67, 79
3, 224160, Note_off_c, 1, 67, 0
3, 224160, Note_on_c, 1, 70, 85
3, 224640, Note_off_c, 1, 70, 0
3, 224640, Note_on_c, 1, 69, 77
3, 225600, Note_off_c, 1, 69, 0
3, 225600, Note_on_c, 1, 72, 54
3, 225600, Note_on_c, 1, 67, 54
3, 225720, Note_off_c, 1, 67, 0
3, 225720, Note_off_c, 1, 72, 0
3, 226080, Note_on_c, 1, 71, 49
3, 226080, Note_on_c, 1, 65, 49
3, 226200, Note_off_c, 1, 65, 0
3, 226200, Note_off_c, 1, 71, 0
3, 226560, Note_on_c, 1, 67, 44
3, 226560, Note_on_c, 1, 64, 44
3, 226800, Note_off_c, 1, 64, 0
3, 226800, Note_off_c, 1, 67, 0
3, 227520, Note_on_c, 1, 53, 46
3, 227520, Note_on_c, 1, 50, 46
3, 227640, Note_off_c, 1, 50, 0
3, 227640, Note_off_c, 1, 53, 0
3, 228000, Note_on_c, 1, 55, 60
3, 228000, Note_on_c, 1, 52, 60
3, 228180, Note_off_c, 1, 52, 0
3, 228180, Note_off_c, 1, 55, 0
3, 228480, Note_on_c, 1, 52, 52
3, 228480, Note_on_c, 1, 55, 52
3, 228600, Note_off_c, 1, 55, 0
3, 228600, Note_off_c, 1, 52, 0
3, 228960, Note_on_c, 1, 57, 69
3, 228960, Note_on_c, 1, 53, 69
3, 229140, Note_off_c, 1, 53, 0
3, 229140, Note_off_c, 1, 57, 0
3, 229440, Note_on_c, 1, 54, 58
3, 229440, Note_on_c, 1, 57, 58
3, 229560, Note_off_c, 1, 57, 0
3, 229560, Note_off_c, 1, 54, 0
3, 229920, Note_on_c, 1, 59, 74
3, 229920, Note_on_c, 1, 55, 74
3, 230100, Note_off_c, 1, 55, 0
3, 230100, Note_off_c, 1, 59, 0
3, 230400, Note_on_c, 1, 55, 79
3, 230400, Note_on_c, 1, 59, 79
3, 231840, Note_off_c, 1, 59, 0
3, 231840, Note_off_c, 1, 55, 0
3, 231840, Note_on_c, 1, 60, 50
3, 231840, Note_on_c, 1, 55, 50
3, 232320, Note_off_c, 1, 55, 0
3, 232320, Note_off_c, 1, 60, 0
3, 232320, Note_on_c, 1, 60, 48
3, 232320, Note_on_c, 1, 53, 48
3, 232800, Note_off_c, 1, 53, 0
3, 232800, Note_off_c, 1, 60, 0
3, 232800, Note_on_c, 1, 60, 45
3, 232800, Note_on_c, 1, 57, 45
3, 233280, Note_off_c, 1, 57, 0
3, 233280, Note_off_c, 1, 60, 0
3, 233280, Note_on_c, 1, 60, 43
3, 233280, Note_on_c, 1, 55, 43
3, 233400, Note_off_c, 1, 55, 0
3, 233400, Note_off_c, 1, 60, 0
3, 233760, Note_on_c, 1, 53, 40
3, 233760, Note_on_c, 1, 59, 40
3, 233880, Note_off_c, 1, 59, 0
3, 233880, Note_off_c, 1, 53, 0
3, 234240, Note_on_c, 1, 55, 38
3, 234240, Note_on_c, 1, 52, 38
3, 234480, Note_off_c, 1, 52, 0
3, 234480, Note_off_c, 1, 55, 0
3, 235080, Control_c, 1, 64, 0
3, 235200, Note_on_c, 1, 72, 42
3, 235680, Note_off_c, 1, 72, 0
3, 235680, Note_on_c, 1, 71, 44
3, 236160, Note_off_c, 1, 71, 0
3, 236160, Note_on_c, 1, 72, 46
3, 236640, Note_off_c, 1, 72, 0
3, 236640, Note_on_c, 1, 72, 48
3, 237120, Note_off_c, 1, 72, 0
3, 237120, Note_on_c, 1, 72, 53
3, 237600, Note_off_c, 1, 72, 0
3, 237600, Note_on_c, 1, 72, 48
3, 238080, Note_off_c, 1, 72, 0
3, 238080, Note_on_c, 1, 72, 43
3, 238747, Note_off_c, 1, 72, 0
3, 239040, Note_on_c, 1, 69, 45
3, 239520, Note_off_c, 1, 69, 0
3, 239520, Note_on_c, 1, 69, 49
3, 240000, Note_off_c, 1, 69, 0
3, 240000, Note_on_c, 1, 69, 52
3, 240480, Note_off_c, 1, 69, 0
3, 240480, Note_on_c, 1, 73, 56
3, 240480, Note_on_c, 1, 67, 56
3, 240960, Note_off_c, 1, 67, 0
3, 240960, Note_off_c, 1, 73, 0
3, 240960, Note_on_c, 1, 65, 60
3, 240960, Note_on_c, 1, 69, 60
3, 241440, Note_off_c, 1, 69, 0
3, 241440, Note_off_c, 1, 65, 0
3, 241440, Note_on_c, 1, 69, 64
3, 241440, Note_on_c, 1, 63, 64
3, 241920, Note_off_c, 1, 63, 0
3, 241920, Note_off_c, 1, 69, 0
3, 241920, Note_on_c, 1, 67, 71
3, 241920, Note_on_c, 1, 62, 71
3, 242400, Note_off_c, 1, 62, 0
3, 242400, Note_off_c, 1, 67, 0
3, 242880, Note_on_c, 1, 67, 42
3, 243000, Note_off_c, 1, 67, 0
3, 243360, Note_on_c, 1, 65, 44
3, 243360, Note_on_c, 1, 67, 44
3, 243480, Note_off_c, 1, 67, 0
3, 243480, Note_off_c, 1, 65, 0
3, 243840, Note_on_c, 1, 64, 46
3, 243840, Note_on_c, 1, 67, 46
3, 243960, Note_off_c, 1, 67, 0
3, 243960, Note_off_c, 1, 64, 0
3, 244320, Note_on_c, 1, 67, 48
3, 244320, Note_on_c, 1, 62, 48
3, 244440, Note_off_c, 1, 62, 0
3, 244440, Note_off_c, 1, 67, 0
3, 244800, Note_on_c, 1, 64, 51
3, 244800, Note_on_c, 1, 67, 51
3, 244800, Note_on_c, 1, 72, 51
3, 244920, Note_off_c, 1, 72, 0
3, 244920, Note_off_c, 1, 67, 0
3, 244920, Note_off_c, 1, 64, 0
3, 245280, Note_on_c, 1, 65, 55
3, 245280, Note_on_c, 1, 69, 55
3, 245280, Note_on_c, 1, 74, 55
3, 245400, Note_off_c, 1, 74, 0
3, 245400, Note_off_c, 1, 69, 0
3, 245400, Note_off_c, 1, 65, 0
3, 245760, Note_on_c, 1, 67, 62
3, 245760, Note_on_c, 1, 62, 62
3, 245760, Note_on_c, 1, 71, 62
3, 245916, Note_off_c, 1, 71, 0
3, 245916, Note_off_c, 1, 62, 0
3, 245916, Note_off_c, 1, 67, 0
3, 246240, Note_on_c, 1, 67, 79
3, 247200, Note_off_c, 1, 67, 0
3, 247200, Note_on_c, 1, 70, 85
3, 247680, Note_off_c, 1, 70, 0
3, 247680, Note_on_c, 1, 69, 77
3, 248640, Note_off_c, 1, 69, 0
3, 248640, Note_on_c, 1, 67, 54
3, 248640, Note_on_c, 1, 72, 54
3, 248760, Note_off_c, 1, 72, 0
3, 248760, Note_off_c, 1, 67, 0
3, 249120, Note_on_c, 1, 65, 49
3, 249120, Note_on_c, 1, 71, 49
3, 249240, Note_off_c, 1, 71, 0
3, 249240, Note_off_c, 1, 65, 0
3, 249600, Note_on_c, 1, 64, 44
3, 249600, Note_on_c, 1, 67, 44
3, 249840, Note_off_c, 1, 67, 0
3, 249840, Note_off_c, 1, 64, 0
3, 250560, Note_on_c, 1, 50, 46
3, 250560, Note_on_c, 1, 53, 46
3, 250680, Note_off_c, 1, 53, 0
3, 250680, Note_off_c, 1, 50, 0
3, 251040, Note_on_c, 1, 52, 60
3, 251040, Note_on_c, 1, 55, 60
3, 251220, Note_off_c, 1, 55, 0
3, 251220, Note_off_c, 1, 52, 0
3, 251520, Note_on_c, 1, 55, 52
3, 251520, Note_on_c, 1, 52, 52
3, 251640, Note_off_c, 1, 52, 0
3, 251640, Note_off_c, 1, 55, 0
3, 252000, Note_on_c, 1, 53, 69
3, 252000, Note_on_c, 1, 57, 69
3, 252180, Note_off_c, 1, 57, 0
3, 252180, Note_off_c, 1, 53, 0
3, 252480, Note_on_c, 1, 57, 58
3, 252480, Note_on_c, 1, 54, 58
3, 252600, Note_off_c, 1, 54, 0
3, 252600, Note_off_c, 1, 57, 0
3, 252960, Note_on_c, 1, 55, 74
3, 252960, Note_on_c, 1, 59, 74
3, 253140, Note_off_c, 1, 59, 0
3, 253140, Note_off_c, 1, 55, 0
3, 253440, Note_on_c, 1, 59, 79
3, 253440, Note_on_c, 1, 55, 79
3, 254880, Note_off_c, 1, 55, 0
3, 254880, Note_off_c, 1, 59, 0
3, 254880, Note_on_c, 1, 55, 50
3, 254880, Note_on_c, 1, 60, 50
3, 255360, Note_off_c, 1, 60, 0
3, 255360, Note_off_c, 1, 55, 0
3, 255360, Note_on_c, 1, 53, 48
3, 255360, Note_on_c, 1, 60, 48
3, 255840, Note_off_c, 1, 60, 0
3, 255840, Note_off_c, 1, 53, 0
3, 255840, Note_on_c, 1, 57, 45
3, 255840, Note_on_c, 1, 60, 45
3, 256320, Note_off_c, 1, 60, 0
3, 256320, Note_off_c, 1, 57, 0
3, 256320, Note_on_c, 1, 55, 43
3, 256320, Note_on_c, 1, 60, 43
3, 256440, Note_off_c, 1, 60, 0
3, 256440, Note_off_c, 1, 55, 0
3, 256800, Note_on_c, 1, 59, 40
3, 256800, Note_on_c, 1, 53, 40
3, 256920, Note_off_c, 1, 53, 0
3, 256920, Note_off_c, 1, 59, 0
3, 257280, Note_on_c, 1, 52, 38
3, 257280, Note_on_c, 1, 55, 38
3, 257520, Note_off_c, 1, 55, 0
3, 257520, Note_off_c, 1, 52, 0
3, 258120, Control_c, 1, 64, 0
3, 273600, Control_c, 1, 64, 0
3, 289200, Note_on_c, 1, 53, 52
3, 289200, Note_on_c, 1, 50, 52
3, 289680, Note_off_c, 1, 50, 0
3, 289680, Note_off_c, 1, 53, 0
3, 289680, Note_on_c, 1, 52, 44
3, 289680, Note_on_c, 1, 55, 44
3, 289800, Note_off_c, 1, 55, 0
3, 289800, Note_off_c, 1, 52, 0
3, 290160, Note_on_c, 1, 52, 58
3, 290160, Note_on_c, 1, 55, 58
3, 290640, Note_off_c, 1, 55, 0
3, 290640, Note_off_c, 1, 52, 0
3, 290640, Note_on_c, 1, 57, 48
3, 290640, Note_on_c, 1, 53, 48
3, 290760, Note_off_c, 1, 53, 0
3, 290760, Note_off_c, 1, 57, 0
3, 291120, Note_on_c, 1, 57, 62
3, 291120, Note_on_c, 1, 53, 62
3, 291600, Note_off_c, 1, 53, 0
3, 291600, Note_off_c, 1, 57, 0
3, 291600, Note_on_c, 1, 59, 53
3, 291600, Note_on_c, 1, 55, 53
3, 291720, Note_off_c, 1, 55, 0
3, 291720, Note_off_c, 1, 59, 0
3, 292080, Note_on_c, 1, 59, 72
3, 292080, Note_on_c, 1, 55, 72
3, 292560, Note_off_c, 1, 55, 0
3, 292560, Note_off_c, 1, 59, 0
3, 292560, Note_on_c, 1, 59, 58
3, 292560, Note_on_c, 1, 55, 58
3, 293040, Note_off_c, 1, 55, 0
3, 293040, Note_off_c, 1, 59, 0
3, 293040, Note_on_c, 1, 59, 65
3, 293040, Note_on_c, 1, 55, 65
3, 293520, Note_off_c, 1, 55, 0
3, 293520, Note_off_c, 1, 59, 0
3, 293520, Note_on_c, 1, 60, 70
3, 293520, Note_on_c, 1, 55, 70
3, 294000, Note_off_c, 1, 55, 0
3, 294000, Note_off_c, 1, 60, 0
3, 294000, Note_on_c, 1, 60, 76
3, 294000, Note_on_c, 1, 53, 76
3, 294480, Note_off_c, 1, 53, 0
3, 294480, Note_off_c, 1, 60, 0
3, 294480, Note_on_c, 1, 60, 80
3, 294480, Note_on_c, 1, 57, 80
3, 294960, Note_off_c, 1, 57, 0
3, 294960, Note_off_c, 1, 60, 0
3, 294960, Note_on_c, 1, 60, 57
3, 294960, Note_on_c, 1, 55, 57
3, 295440, Note_off_c, 1, 55, 0
3, 295440, Note_off_c, 1, 60, 0
3, 295440, Note_on_c, 1, 59, 49
3, 295440, Note_on_c, 1, 53, 49
3, 295680, Note_off_c, 1, 53, 0
3, 295680, Note_off_c, 1, 59, 0
3, 295680, Note_on_c, 1, 55, 45
3, 295680, Note_on_c, 1, 52, 45
3, 296160, Note_off_c, 1, 52, 0
3, 296160, Note_off_c, 1, 55, 0
3, 296640, Control_c, 1, 64, 0
3, 312240, Note_on_c, 1, 50, 52
3, 312240, Note_on_c, 1, 53, 52
3, 312720, Note_off_c, 1, 53, 0
3, 312720, Note_off_c, 1, 50, 0
3, 312720, Note_on_c, 1, 55, 44
3, 312720, Note_on_c, 1, 52, 44
3, 312840, Note_off_c, 1, 52, 0
3, 312840, Note_off_c, 1, 55, 0
3, 313200, Note_on_c, 1, 55, 58
3, 313200, Note_on_c, 1, 52, 58
3, 313680, Note_off_c, 1, 52, 0
3, 313680, Note_off_c, 1, 55, 0
3, 313680, Note_on_c, 1, 53, 48
3, 313680, Note_on_c, 1, 57, 48
3, 313800, Note_off_c, 1, 57, 0
3, 313800, Note_off_c, 1, 53, 0
3, 314160, Note_on_c, 1, 53, 62
3, 314160, Note_on_c, 1, 57, 62
3, 314640, Note_off_c, 1, 57, 0
3, 314640, Note_off_c, 1, 53, 0
3, 314640, Note_on_c, 1, 55, 53
3, 314640, Note_on_c, 1, 59, 53
3, 314760, Note_off_c, 1, 59, 0
3, 314760, Note_off_c, 1, 55, 0
3, 315120, Note_on_c, 1, 55, 72
3, 315120, Note_on_c, 1, 59, 72
3, 315600, Note_off_c, 1, 59, 0
3, 315600, Note_off_c, 1, 55, 0
3, 315600, Note_on_c, 1, 55, 58
3, 315600, Note_on_c, 1, 59, 58
3, 316080, Note_off_c, 1, 59, 0
3, 316080, Note_off_c, 1, 55, 0
3, 316080, Note_on_c, 1, 55, 65
3, 316080, Note_on_c, 1, 59, 65
3, 316560, Note_off_c, 1, 59, 0
3, 316560, Note_off_c, 1, 55, 0
3, 316560, Note_on_c, 1, 55, 70
3, 316560, Note_on_c, 1, 60, 70
3, 317040, Note_off_c, 1, 60, 0
3, 317040, Note_off_c, 1, 55, 0
3, 317040, Note_on_c, 1, 53, 76
3, 317040, Note_on_c, 1, 60, 76
3, 317520, Note_off_c, 1, 60, 0
3, 317520, Note_off_c, 1, 53, 0
3, 317520, Note_on_c, 1, 57, 80
3, 317520, Note_on_c, 1, 60, 80
3, 318000, Note_off_c, 1, 60, 0
3, 318000, Note_off_c, 1, 57, 0
3, 318000, Note_on_c, 1, 55, 57
3, 318000, Note_on_c, 1, 60, 57
3, 318480, Note_off_c, 1, 60, 0
3, 318480, Note_off_c, 1, 55, 0
3, 318480, Note_on_c, 1, 53, 49
3, 318480, Note_on_c, 1, 59, 49
3, 318720, Note_off_c, 1, 59, 0
3, 318720, Note_off_c, 1, 53, 0
3, 318720, Note_on_c, 1, 52, 45
3, 318720, Note_on_c, 1, 55, 45
3, 319200, Note_off_c, 1, 55, 0
3, 319200, Note_off_c, 1, 52, 0
3, 319680, Control_c, 1, 64, 0
3, 319920, Note_on_c, 1, 67, 37
3, 320040, Note_off_c, 1, 67, 0
3, 320400, Note_on_c, 1, 67, 40
3, 320400, Note_on_c, 1, 65, 40
3, 320520, Note_off_c, 1, 65, 0
3, 320520, Note_off_c, 1, 67, 0
3, 320880, Note_on_c, 1, 67, 42
3, 320880, Note_on_c, 1, 64, 42
3, 321000, Note_off_c, 1, 64, 0
3, 321000, Note_off_c, 1, 67, 0
3, 321360, Note_on_c, 1, 65, 45
3, 321360, Note_on_c, 1, 67, 45
3, 321480, Note_off_c, 1, 67, 0
3, 321480, Note_off_c, 1, 65, 0
3, 321840, Note_on_c, 1, 67, 48
3, 321840, Note_on_c, 1, 72, 48
3, 321960, Note_off_c, 1, 72, 0
3, 321960, Note_off_c, 1, 67, 0
3, 322320, Note_on_c, 1, 65, 50
3, 322320, Note_on_c, 1, 72, 50
3, 322440, Note_off_c, 1, 72, 0
3, 322440, Note_off_c, 1, 65, 0
3, 322800, Note_on_c, 1, 65, 53
3, 322800, Note_on_c, 1, 72, 53
3, 322920, Note_off_c, 1, 72, 0
3, 322920, Note_off_c, 1, 65, 0
3, 323280, Note_on_c, 1, 65, 43
3, 323280, Note_on_c, 1, 71, 43
3, 323400, Note_off_c, 1, 71, 0
3, 323400, Note_off_c, 1, 65, 0
3, 323760, Note_on_c, 1, 67, 38
3, 323760, Note_on_c, 1, 71, 38
3, 323760, Note_on_c, 1, 74, 38
3, 323880, Note_off_c, 1, 74, 0
3, 323880, Note_off_c, 1, 71, 0
3, 323880, Note_off_c, 1, 67, 0
3, 324240, Note_on_c, 1, 67, 41
3, 324240, Note_on_c, 1, 72, 41
3, 324360, Note_off_c, 1, 72, 0
3, 324360, Note_off_c, 1, 67, 0
3, 324720, Note_on_c, 1, 71, 45
3, 324720, Note_on_c, 1, 77, 45
3, 324840, Note_off_c, 1, 77, 0
3, 324840, Note_off_c, 1, 71, 0
3, 325200, Note_on_c, 1, 70, 49
3, 325200, Note_on_c, 1, 76, 49
3, 325320, Note_off_c, 1, 76, 0
3, 325320, Note_off_c, 1, 70, 0
3, 325680, Note_on_c, 1, 69, 53
3, 325680, Note_on_c, 1, 77, 53
3, 325800, Note_off_c, 1, 77, 0
3, 325800, Note_off_c, 1, 69, 0
3, 326160, Note_on_c, 1, 69, 57
3, 326160, Note_on_c, 1, 77, 57
3, 326280, Note_off_c, 1, 77, 0
3, 326280, Note_off_c, 1, 69, 0
3, 326640, Note_on_c, 1, 68, 62
3, 326640, Note_on_c, 1, 71, 62
3, 327120, Note_off_c, 1, 68, 0
3, 327120, Note_on_c, 1, 67, 43
3, 327240, Note_off_c, 1, 67, 0
3, 327240, Note_on_c, 1, 65, 40
3, 327360, Note_off_c, 1, 65, 0
3, 327360, Note_off_c, 1, 71, 0
3, 327600, Note_on_c, 1, 67, 43
3, 327720, Note_off_c, 1, 67, 0
3, 328080, Note_on_c, 1, 65, 45
3, 328080, Note_on_c, 1, 67, 45
3, 328200, Note_off_c, 1, 67, 0
3, 328200, Note_off_c, 1, 65, 0
3, 328560, Note_on_c, 1, 67, 48
3, 328560, Note_on_c, 1, 64, 48
3, 328680, Note_off_c, 1, 64, 0
3, 328680, Note_off_c, 1, 67, 0
3, 329040, Note_on_c, 1, 62, 50
3, 329040, Note_on_c, 1, 67, 50
3, 329160, Note_off_c, 1, 67, 0
3, 329160, Note_off_c, 1, 62, 0
3, 329520, Note_on_c, 1, 67, 52
3, 329520, Note_on_c, 1, 64, 52
3, 329520, Note_on_c, 1, 72, 52
3, 329640, Note_off_c, 1, 72, 0
3, 329640, Note_off_c, 1, 64, 0
3, 329640, Note_off_c, 1, 67, 0
3, 330000, Note_on_c, 1, 66, 56
3, 330000, Note_on_c, 1, 72, 56
3, 330000, Note_on_c, 1, 75, 56
3, 330120, Note_off_c, 1, 75, 0
3, 330120, Note_off_c, 1, 72, 0
3, 330120, Note_off_c, 1, 66, 0
3, 330480, Note_on_c, 1, 67, 65
3, 330480, Note_on_c, 1, 74, 65
3, 330960, Note_off_c, 1, 74, 0
3, 330960, Note_off_c, 1, 67, 0
3, 330960, Note_on_c, 1, 67, 60
3, 330960, Note_on_c, 1, 74, 60
3, 331080, Note_off_c, 1, 74, 0
3, 331080, Note_off_c, 1, 67, 0
3, 331440, Note_on_c, 1, 69, 62
3, 331440, Note_on_c, 1, 76, 62
3, 331440, Note_on_c, 1, 79, 62
3, 331560, Note_off_c, 1, 79, 0
3, 331560, Note_off_c, 1, 76, 0
3, 331560, Note_off_c, 1, 69, 0
3, 331920, Note_on_c, 1, 70, 67
3, 331920, Note_on_c, 1, 76, 67
3, 331920, Note_on_c, 1, 79, 67
3, 332040, Note_off_c, 1, 79, 0
3, 332040, Note_off_c, 1, 76, 0
3, 332040, Note_off_c, 1, 70, 0
3, 332400, Note_on_c, 1, 71, 80
3, 332400, Note_on_c, 1, 74, 80
3, 332400, Note_on_c, 1, 79, 80
3, 332880, Note_off_c, 1, 79, 0
3, 332880, Note_off_c, 1, 74, 0
3, 332880, Note_off_c, 1, 71, 0
3, 332880, Note_on_c, 1, 71, 73
3, 332880, Note_on_c, 1, 74, 73
3, 332880, Note_on_c, 1, 79, 73
3, 333000, Note_off_c, 1, 79, 0
3, 333000, Note_off_c, 1, 74, 0
3, 333000, Note_off_c, 1, 71, 0
3, 333360, Note_on_c, 1, 72, 69
3, 333360, Note_on_c, 1, 78, 69
3, 333480, Note_off_c, 1, 78, 0
3, 333480, Note_off_c, 1, 72, 0
3, 333840, Note_on_c, 1, 72, 65
3, 333840, Note_on_c, 1, 78, 65
3, 333960, Note_off_c, 1, 78, 0
3, 333960, Note_off_c, 1, 72, 0
3, 335040, Control_c, 1, 64, 0
3, 335280, Note_on_c, 1, 70, 38
3, 335280, Note_on_c, 1, 73, 38
3, 335280, Note_on_c, 1, 67, 38
3, 335400, Note_off_c, 1, 67, 0
3, 335400, Note_off_c, 1, 73, 0
3, 335400, Note_off_c, 1, 70, 0
3, 335760, Note_on_c, 1, 70, 40
3, 335760, Note_on_c, 1, 73, 40
3, 335760, Note_on_c, 1, 67, 40
3, 335880, Note_off_c, 1, 67, 0
3, 335880, Note_off_c, 1, 73, 0
3, 335880, Note_off_c, 1, 70, 0
3, 336240, Note_on_c, 1, 70, 42
3, 336240, Note_on_c, 1, 73, 42
3, 336240, Note_on_c, 1, 67, 42
3, 336360, Note_off_c, 1, 67, 0
3, 336360, Note_off_c, 1, 73, 0
3, 336360, Note_off_c, 1, 70, 0
3, 336720, Note_on_c, 1, 70, 44
3, 336720, Note_on_c, 1, 67, 44
3, 336720, Note_on_c, 1, 72, 44
3, 336840, Note_off_c, 1, 72, 0
3, 336840, Note_off_c, 1, 67, 0
3, 336840, Note_off_c, 1, 70, 0
3, 337200, Note_on_c, 1, 77, 46
3, 337200, Note_on_c, 1, 72, 46
3, 337320, Note_off_c, 1, 72, 0
3, 337320, Note_off_c, 1, 77, 0
3, 337680, Note_on_c, 1, 76, 48
3, 337680, Note_on_c, 1, 72, 48
3, 337680, Note_on_c, 1, 70, 48
3, 337800, Note_off_c, 1, 70, 0
3, 337800, Note_off_c, 1, 72, 0
3, 337800, Note_off_c, 1, 76, 0
3, 338160, Note_on_c, 1, 77, 50
3, 338160, Note_on_c, 1, 72, 50
3, 338160, Note_on_c, 1, 69, 50
3, 338280, Note_off_c, 1, 69, 0
3, 338280, Note_off_c, 1, 72, 0
3, 338280, Note_off_c, 1, 77, 0
3, 338640, Note_on_c, 1, 77, 52
3, 338640, Note_on_c, 1, 73, 52
3, 338640, Note_on_c, 1, 69, 52
3, 338760, Note_off_c, 1, 69, 0
3, 338760, Note_off_c, 1, 73, 0
3, 338760, Note_off_c, 1, 77, 0
3, 339120, Note_on_c, 1, 74, 55
3, 339120, Note_on_c, 1, 77, 55
3, 339120, Note_on_c, 1, 69, 55
3, 339240, Note_off_c, 1, 69, 0
3, 339240, Note_off_c, 1, 77, 0
3, 339240, Note_off_c, 1, 74, 0
3, 339600, Note_on_c, 1, 76, 52
3, 339600, Note_on_c, 1, 67, 52
3, 339600, Note_on_c, 1, 70, 52
3, 339600, Note_on_c, 1, 73, 52
3, 339720, Note_off_c, 1, 73, 0
3, 339720, Note_off_c, 1, 70, 0
3, 339720, Note_off_c, 1, 67, 0
3, 339720, Note_off_c, 1, 76, 0
3, 340080, Note_on_c, 1, 74, 50
3, 340080, Note_on_c, 1, 69, 50
3, 340080, Note_on_c, 1, 65, 50
3, 340200, Note_off_c, 1, 65, 0
3, 340200, Note_off_c, 1, 69, 0
3, 340200, Note_off_c, 1, 74, 0
3, 340560, Note_on_c, 1, 73, 47
3, 340560, Note_on_c, 1, 70, 47
3, 340560, Note_on_c, 1, 67, 47
3, 340560, Note_on_c, 1, 64, 47
3, 340680, Note_off_c, 1, 64, 0
3, 340680, Note_off_c, 1, 67, 0
3, 340680, Note_off_c, 1, 70, 0
3, 340680, Note_off_c, 1, 73, 0
3, 341040, Note_on_c, 1, 65, 45
3, 341040, Note_on_c, 1, 69, 45
3, 341040, Note_on_c, 1, 62, 45
3, 341160, Note_off_c, 1, 62, 0
3, 341160, Note_off_c, 1, 69, 0
3, 341160, Note_off_c, 1, 65, 0
3, 341520, Note_on_c, 1, 63, 43
3, 341520, Note_on_c, 1, 66, 43
3, 341520, Note_on_c, 1, 69, 43
3, 341640, Note_off_c, 1, 69, 0
3, 341640, Note_off_c, 1, 66, 0
3, 341640, Note_off_c, 1, 63, 0
3, 342000, Note_on_c, 1, 62, 70
3, 342000, Note_on_c, 1, 59, 70
3, 342000, Note_on_c, 1, 67, 70
3, 342720, Note_off_c, 1, 67, 0
3, 342720, Note_off_c, 1, 59, 0
3, 342720, Note_off_c, 1, 62, 0
3, 342960, Note_on_c, 1, 64, 42
3, 342960, Note_on_c, 1, 67, 42
3, 343080, Note_off_c, 1, 67, 0
3, 343080, Note_off_c, 1, 64, 0
3, 343440, Note_on_c, 1, 65, 45
3, 343440, Note_on_c, 1, 67, 45
3, 343560, Note_off_c, 1, 67, 0
3, 343560, Note_off_c, 1, 65, 0
3, 343920, Note_on_c, 1, 64, 47
3, 343920, Note_on_c, 1, 67, 47
3, 344040, Note_off_c, 1, 67, 0
3, 344040, Note_off_c, 1, 64, 0
3, 344400, Note_on_c, 1, 67, 50
3, 344400, Note_on_c, 1, 65, 50
3, 344520, Note_off_c, 1, 65, 0
3, 344520, Note_off_c, 1, 67, 0
3, 344880, Note_on_c, 1, 72, 52
3, 344880, Note_on_c, 1, 67, 52
3, 345000, Note_off_c, 1, 67, 0
3, 345000, Note_off_c, 1, 72, 0
3, 345360, Note_on_c, 1, 72, 55
3, 345360, Note_on_c, 1, 65, 55
3, 345480, Note_off_c, 1, 65, 0
3, 345480, Note_off_c, 1, 72, 0
3, 345840, Note_on_c, 1, 72, 57
3, 345840, Note_on_c, 1, 65, 57
3, 345960, Note_off_c, 1, 65, 0
3, 345960, Note_off_c, 1, 72, 0
3, 346320, Note_on_c, 1, 71, 49
3, 346320, Note_on_c, 1, 65, 49
3, 346440, Note_off_c, 1, 65, 0
3, 346440, Note_off_c, 1, 71, 0
3, 346800, Note_on_c, 1, 74, 50
3, 346800, Note_on_c, 1, 71, 50
3, 346800, Note_on_c, 1, 67, 50
3, 346920, Note_off_c, 1, 67, 0
3, 346920, Note_off_c, 1, 71, 0
3, 346920, Note_off_c, 1, 74, 0
3, 347280, Note_on_c, 1, 73, 58
3, 347280, Note_on_c, 1, 67, 58
3, 347280, Note_on_c, 1, 70, 58
3, 347400, Note_off_c, 1, 70, 0
3, 347400, Note_off_c, 1, 67, 0
3, 347400, Note_off_c, 1, 73, 0
3, 347760, Note_on_c, 1, 73, 66
3, 347760, Note_on_c, 1, 70, 66
3, 347760, Note_on_c, 1, 67, 66
3, 347880, Note_off_c, 1, 67, 0
3, 347880, Note_off_c, 1, 70, 0
3, 347880, Note_off_c, 1, 73, 0
3, 348240, Note_on_c, 1, 74, 74
3, 348240, Note_on_c, 1, 69, 74
3, 348240, Note_on_c, 1, 65, 74
3, 348360, Note_off_c, 1, 65, 0
3, 348360, Note_off_c, 1, 69, 0
3, 348360, Note_off_c, 1, 74, 0
3, 348720, Note_on_c, 1, 72, 66
3, 348720, Note_on_c, 1, 67, 66
3, 348720, Note_on_c, 1, 64, 66
3, 348840, Note_off_c, 1, 64, 0
3, 348840, Note_off_c, 1, 67, 0
3, 348840, Note_off_c, 1, 72, 0
3, 349200, Note_on_c, 1, 65, 59
3, 349200, Note_on_c, 1, 67, 59
3, 349320, Note_off_c, 1, 67, 0
3, 349320, Note_off_c, 1, 65, 0
3, 350640, Note_on_c, 1, 50, 42
3, 350640, Note_on_c, 1, 53, 42
3, 350760, Note_off_c, 1, 53, 0
3, 350760, Note_off_c, 1, 50, 0
3, 351120, Note_on_c, 1, 55, 47
3, 351120, Note_on_c, 1, 52, 47
3, 351240, Note_off_c, 1, 52, 0
3, 351240, Note_off_c, 1, 55, 0
3, 351600, Note_on_c, 1, 52, 52
3, 351600, Note_on_c, 1, 55, 52
3, 351720, Note_off_c, 1, 55, 0
3, 351720, Note_off_c, 1, 52, 0
3, 352080, Note_on_c, 1, 57, 58
3, 352080, Note_on_c, 1, 53, 58
3, 352200, Note_off_c, 1, 53, 0
3, 352200, Note_off_c, 1, 57, 0
3, 352560, Note_on_c, 1, 54, 63
3, 352560, Note_on_c, 1, 57, 63
3, 352680, Note_off_c, 1, 57, 0
3, 352680, Note_off_c, 1, 54, 0
3, 353040, Note_on_c, 1, 59, 68
3, 353040, Note_on_c, 1, 55, 68
3, 353160, Note_off_c, 1, 55, 0
3, 353160, Note_off_c, 1, 59, 0
3, 353520, Note_on_c, 1, 59, 84
3, 353520, Note_on_c, 1, 55, 84
3, 353760, Note_off_c, 1, 55, 0
3, 353760, Note_off_c, 1, 59, 0
3, 353760, Note_on_c, 1, 59, 70
3, 353760, Note_on_c, 1, 55, 70
3, 354000, Note_off_c, 1, 55, 0
3, 354000, Note_off_c, 1, 59, 0
3, 354000, Note_on_c, 1, 59, 58
3, 354000, Note_on_c, 1, 55, 58
3, 354240, Note_off_c, 1, 55, 0
3, 354240, Note_off_c, 1, 59, 0
3, 354480, Note_on_c, 1, 59, 61
3, 354480, Note_on_c, 1, 55, 61
3, 354600, Note_off_c, 1, 55, 0
3, 354600, Note_off_c, 1, 59, 0
3, 354960, Note_on_c, 1, 60, 57
3, 354960, Note_on_c, 1, 55, 57
3, 355080, Note_off_c, 1, 55, 0
3, 355080, Note_off_c, 1, 60, 0
3, 355440, Note_on_c, 1, 60, 53
3, 355440, Note_on_c, 1, 53, 53
3, 355560, Note_off_c, 1, 53, 0
3, 355560, Note_off_c, 1, 60, 0
3, 355920, Note_on_c, 1, 60, 49
3, 355920, Note_on_c, 1, 57, 49
3, 356040, Note_off_c, 1, 57, 0
3, 356040, Note_off_c, 1, 60, 0
3, 356400, Note_on_c, 1, 60, 45
3, 356400, Note_on_c, 1, 55, 45
3, 356520, Note_off_c, 1, 55, 0
3, 356520, Note_off_c, 1, 60, 0
3, 356880, Note_on_c, 1, 59, 42
3, 356880, Note_on_c, 1, 53, 42
3, 357000, Note_off_c, 1, 53, 0
3, 357000, Note_off_c, 1, 59, 0
3, 358080, Control_c, 1, 64, 0
3, 358320, Note_on_c, 1, 67, 38
3, 358320, Note_on_c, 1, 73, 38
3, 358320, Note_on_c, 1, 70, 38
3, 358440, Note_off_c, 1, 70, 0
3, 358440, Note_off_c, 1, 73, 0
3, 358440, Note_off_c, 1, 67, 0
3, 358800, Note_on_c, 1, 67, 40
3, 358800, Note_on_c, 1, 73, 40
3, 358800, Note_on_c, 1, 70, 40
3, 358920, Note_off_c, 1, 70, 0
3, 358920, Note_off_c, 1, 73, 0
3, 358920, Note_off_c, 1, 67, 0
3, 359280, Note_on_c, 1, 67, 42
3, 359280, Note_on_c, 1, 73, 42
3, 359280, Note_on_c, 1, 70, 42
3, 359400, Note_off_c, 1, 70, 0
3, 359400, Note_off_c, 1, 73, 0
3, 359400, Note_off_c, 1, 67, 0
3, 359760, Note_on_c, 1, 72, 44
3, 359760, Note_on_c, 1, 67, 44
3, 359760, Note_on_c, 1, 70, 44
3, 359880, Note_off_c, 1, 70, 0
3, 359880, Note_off_c, 1, 67, 0
3, 359880, Note_off_c, 1, 72, 0
3, 360240, Note_on_c, 1, 72, 46
3, 360240, Note_on_c, 1, 77, 46
3, 360360, Note_off_c, 1, 77, 0
3, 360360, Note_off_c, 1, 72, 0
3, 360720, Note_on_c, 1, 70, 48
3, 360720, Note_on_c, 1, 72, 48
3, 360720, Note_on_c, 1, 76, 48
3, 360840, Note_off_c, 1, 76, 0
3, 360840, Note_off_c, 1, 72, 0
3, 360840, Note_off_c, 1, 70, 0
3, 361200, Note_on_c, 1, 69, 50
3, 361200, Note_on_c, 1, 72, 50
3, 361200, Note_on_c, 1, 77, 50
3, 361320, Note_off_c, 1, 77, 0
3, 361320, Note_off_c, 1, 72, 0
3, 361320, Note_off_c, 1, 69, 0
3, 361680, Note_on_c, 1, 69, 52
3, 361680, Note_on_c, 1, 73, 52
3, 361680, Note_on_c, 1, 77, 52
3, 361800, Note_off_c, 1, 77, 0
3, 361800, Note_off_c, 1, 73, 0
3, 361800, Note_off_c, 1, 69, 0
3, 362160, Note_on_c, 1, 69, 55
3, 362160, Note_on_c, 1, 77, 55
3, 362160, Note_on_c, 1, 74, 55
3, 362280, Note_off_c, 1, 74, 0
3, 362280, Note_off_c, 1, 77, 0
3, 362280, Note_off_c, 1, 69, 0
3, 362640, Note_on_c, 1, 73, 52
3, 362640, Note_on_c, 1, 70, 52
3, 362640, Note_on_c, 1, 67, 52
3, 362640, Note_on_c, 1, 76, 52
3, 362760, Note_off_c, 1, 76, 0
3, 362760, Note_off_c, 1, 67, 0
3, 362760, Note_off_c, 1, 70, 0
3, 362760, Note_off_c, 1, 73, 0
3, 363120, Note_on_c, 1, 65, 50
3, 363120, Note_on_c, 1, 69, 50
3, 363120, Note_on_c, 1, 74, 50
3, 363240, Note_off_c, 1, 74, 0
3, 363240, Note_off_c, 1, 69, 0
3, 363240, Note_off_c, 1, 65, 0
3, 363600, Note_on_c, 1, 64, 47
3, 363600, Note_on_c, 1, 67, 47
3, 363600, Note_on_c, 1, 70, 47
3, 363600, Note_on_c, 1, 73, 47
3, 363720, Note_off_c, 1, 73, 0
3, 363720, Note_off_c, 1, 70, 0
3, 363720, Note_off_c, 1, 67, 0
3, 363720, Note_off_c, 1, 64, 0
3, 364080, Note_on_c, 1, 62, 45
3, 364080, Note_on_c, 1, 69, 45
3, 364080, Note_on_c, 1, 65, 45
3, 364200, Note_off_c, 1, 65, 0
3, 364200, Note_off_c, 1, 69, 0
3, 364200, Note_off_c, 1, 62, 0
3, 364560, Note_on_c, 1, 69, 43
3, 364560, Note_on_c, 1, 66, 43
3, 364560, Note_on_c, 1, 63, 43
3, 364680, Note_off_c, 1, 63, 0
3, 364680, Note_off_c, 1, 66, 0
3, 364680, Note_off_c, 1, 69, 0
3, 365040, Note_on_c, 1, 67, 70
3, 365040, Note_on_c, 1, 59, 70
3, 365040, Note_on_c, 1, 62, 70
3, 365760, Note_off_c, 1, 62, 0
3, 365760, Note_off_c, 1, 59, 0
3, 365760, Note_off_c, 1, 67, 0
3, 366000, Note_on_c, 1, 67, 42
3, 366000, Note_on_c, 1, 64, 42
3, 366120, Note_off_c, 1, 64, 0
3, 366120, Note_off_c, 1, 67, 0
3, 366480, Note_on_c, 1, 67, 45
3, 366480, Note_on_c, 1, 65, 45
3, 366600, Note_off_c, 1, 65, 0
3, 366600, Note_off_c, 1, 67, 0
3, 366960, Note_on_c, 1, 67, 47
3, 366960, Note_on_c, 1, 64, 47
3, 367080, Note_off_c, 1, 64, 0
3, 367080, Note_off_c, 1, 67, 0
3, 367440, Note_on_c, 1, 65, 50
3, 367440, Note_on_c, 1, 67, 50
3, 367560, Note_off_c, 1, 67, 0
3, 367560, Note_off_c, 1, 65, 0
3, 367920, Note_on_c, 1, 67, 52
3, 367920, Note_on_c, 1, 72, 52
3, 368040, Note_off_c, 1, 72, 0
3, 368040, Note_off_c, 1, 67, 0
3, 368400, Note_on_c, 1, 65, 55
3, 368400, Note_on_c, 1, 72, 55
3, 368520, Note_off_c, 1, 72, 0
3, 368520, Note_off_c, 1, 65, 0
3, 368880, Note_on_c, 1, 65, 57
3, 368880, Note_on_c, 1, 72, 57
3, 369000, Note_off_c, 1, 72, 0
3, 369000, Note_off_c, 1, 65, 0
3, 369360, Note_on_c, 1, 65, 49
3, 369360, Note_on_c, 1, 71, 49
3, 369480, Note_off_c, 1, 71, 0
3, 369480, Note_off_c, 1, 65, 0
3, 369840, Note_on_c, 1, 67, 50
3, 369840, Note_on_c, 1, 71, 50
3, 369840, Note_on_c, 1, 74, 50
3, 369960, Note_off_c, 1, 74, 0
3, 369960, Note_off_c, 1, 71, 0
3, 369960, Note_off_c, 1, 67, 0
3, 370320, Note_on_c, 1, 70, 58
3, 370320, Note_on_c, 1, 67, 58
3, 370320, Note_on_c, 1, 73, 58
3, 370440, Note_off_c, 1, 73, 0
3, 370440, Note_off_c, 1, 67, 0
3, 370440, Note_off_c, 1, 70, 0
3, 370800, Note_on_c, 1, 67, 66
3, 370800, Note_on_c, 1, 70, 66
3, 370800, Note_on_c, 1, 73, 66
3, 370920, Note_off_c, 1, 73, 0
3, 370920, Note_off_c, 1, 70, 0
3, 370920, Note_off_c, 1, 67, 0
3, 371280, Note_on_c, 1, 65, 74
3, 371280, Note_on_c, 1, 69, 74
3, 371280, Note_on_c, 1, 74, 74
3, 371400, Note_off_c, 1, 74, 0
3, 371400, Note_off_c, 1, 69, 0
3, 371400, Note_off_c, 1, 65, 0
3, 371760, Note_on_c, 1, 64, 66
3, 371760, Note_on_c, 1, 67, 66
3, 371760, Note_on_c, 1, 72, 66
3, 371880, Note_off_c, 1, 72, 0
3, 371880, Note_off_c, 1, 67, 0
3, 371880, Note_off_c, 1, 64, 0
3, 372240, Note_on_c, 1, 67, 59
3, 372240, Note_on_c, 1, 65, 59
3, 372360, Note_off_c, 1, 65, 0
3, 372360, Note_off_c, 1, 67, 0
3, 373680, Note_on_c, 1, 53, 42
3, 373680, Note_on_c, 1, 50, 42
3, 373800, Note_off_c, 1, 50, 0
3, 373800, Note_off_c, 1, 53, 0
3, 374160, Note_on_c, 1, 52, 47
3, 374160, Note_on_c, 1, 55, 47
3, 374280, Note_off_c, 1, 55, 0
3, 374280, Note_off_c, 1, 52, 0
3, 374640, Note_on_c, 1, 55, 52
3, 374640, Note_on_c, 1, 52, 52
3, 374760, Note_off_c, 1, 52, 0
3, 374760, Note_off_c, 1, 55, 0
3, 375120, Note_on_c, 1, 53, 58
3, 375120, Note_on_c, 1, 57, 58
3, 375240, Note_off_c, 1, 57, 0
3, 375240, Note_off_c, 1, 53, 0
3, 375600, Note_on_c, 1, 57, 63
3, 375600, Note_on_c, 1, 54, 63
3, 375720, Note_off_c, 1, 54, 0
3, 375720, Note_off_c, 1, 57, 0
3, 376080, Note_on_c, 1, 55, 68
3, 376080, Note_on_c, 1, 59, 68
3, 376200, Note_off_c, 1, 59, 0
3, 376200, Note_off_c, 1, 55, 0
3, 376560, Note_on_c, 1, 55, 84
3, 376560, Note_on_c, 1, 59, 84
3, 376800, Note_off_c, 1, 59, 0
3, 376800, Note_off_c, 1, 55, 0
3, 376800, Note_on_c, 1, 55, 70
3, 376800, Note_on_c, 1, 59, 70
3, 377040, Note_off_c, 1, 59, 0
3, 377040, Note_off_c, 1, 55, 0
3, 377040, Note_on_c, 1, 55, 58
3, 377040, Note_on_c, 1, 59, 58
3, 377280, Note_off_c, 1, 59, 0
3, 377280, Note_off_c, 1, 55, 0
3, 377520, Note_on_c, 1, 55, 61
3, 377520, Note_on_c, 1, 59, 61
3, 377640, Note_off_c, 1, 59, 0
3, 377640, Note_off_c, 1, 55, 0
3, 378000, Note_on_c, 1, 55, 57
3, 378000, Note_on_c, 1, 60, 57
3, 378120, Note_off_c, 1, 60, 0
3, 378120, Note_off_c, 1, 55, 0
3, 378480, Note_on_c, 1, 53, 53
3, 378480, Note_on_c, 1, 60, 53
3, 378600, Note_off_c, 1, 60, 0
3, 378600, Note_off_c, 1, 53, 0
3, 378960, Note_on_c, 1, 57, 49
3, 378960, Note_on_c, 1, 60, 49
3, 379080, Note_off_c, 1, 60, 0
3, 379080, Note_off_c, 1, 57, 0
3, 379440, Note_on_c, 1, 55, 45
3, 379440, Note_on_c, 1, 60, 45
3, 379560, Note_off_c, 1, 60, 0
3, 379560, Note_off_c, 1, 55, 0
3, 379920, Note_on_c, 1, 53, 42
3, 379920, Note_on_c, 1, 59, 42
3, 380040, Note_off_c, 1, 59, 0
3, 380040, Note_off_c, 1, 53, 0
3, 381120, Control_c, 1, 64, 0
3, 381360, Note_on_c, 1, 62, 54
3, 381360, Note_on_c, 1, 65, 54
3, 381480, Note_off_c, 1, 65, 0
3, 381480, Note_off_c, 1, 62, 0
3, 381840, Note_on_c, 1, 65, 53
3, 381840, Note_on_c, 1, 62, 53
3, 381960, Note_off_c, 1, 62, 0
3, 381960, Note_off_c, 1, 65, 0
3, 382320, Note_on_c, 1, 62, 51
3, 382320, Note_on_c, 1, 65, 51
3, 382440, Note_off_c, 1, 65, 0
3, 382440, Note_off_c, 1, 62, 0
3, 382800, Note_on_c, 1, 65, 49
3, 382800, Note_on_c, 1, 62, 49
3, 382920, Note_off_c, 1, 62, 0
3, 382920, Note_off_c, 1, 65, 0
3, 383280, Note_on_c, 1, 74, 47
3, 383280, Note_on_c, 1, 77, 47
3, 383400, Note_off_c, 1, 77, 0
3, 383400, Note_off_c, 1, 74, 0
3, 383760, Note_on_c, 1, 74, 45
3, 383760, Note_on_c, 1, 77, 45
3, 383880, Note_off_c, 1, 77, 0
3, 383880, Note_off_c, 1, 74, 0
3, 384240, Note_on_c, 1, 74, 43
3, 384240, Note_on_c, 1, 77, 43
3, 384360, Note_off_c, 1, 77, 0
3, 384360, Note_off_c, 1, 74, 0
3, 384720, Note_on_c, 1, 74, 41
3, 384720, Note_on_c, 1, 77, 41
3, 384840, Note_off_c, 1, 77, 0
3, 384840, Note_off_c, 1, 74, 0
3, 385200, Note_on_c, 1, 71, 40
3, 385200, Note_on_c, 1, 74, 40
3, 385320, Note_off_c, 1, 74, 0
3, 385320, Note_off_c, 1, 71, 0
3, 385680, Note_on_c, 1, 71, 38
3, 385680, Note_on_c, 1, 74, 38
3, 385800, Note_off_c, 1, 74, 0
3, 385800, Note_off_c, 1, 71, 0
3, 386160, Note_on_c, 1, 74, 36
3, 386160, Note_on_c, 1, 71, 36
3, 386280, Note_off_c, 1, 71, 0
3, 386280, Note_off_c, 1, 74, 0
3, 386640, Note_on_c, 1, 71, 34
3, 386640, Note_on_c, 1, 74, 34
3, 386760, Note_off_c, 1, 74, 0
3, 386760, Note_off_c, 1, 71, 0
3, 387120, Note_on_c, 1, 74, 32
3, 387120, Note_on_c, 1, 70, 32
3, 387240, Note_off_c, 1, 70, 0
3, 387240, Note_off_c, 1, 74, 0
3, 387600, Note_on_c, 1, 74, 30
3, 387600, Note_on_c, 1, 69, 30
3, 387720, Note_off_c, 1, 69, 0
3, 387720, Note_off_c, 1, 74, 0
3, 388080, Note_on_c, 1, 74, 28
3, 388080, Note_on_c, 1, 68, 28
3, 388200, Note_off_c, 1, 68, 0
3, 388200, Note_off_c, 1, 74, 0
3, 388560, Note_on_c, 1, 74, 27
3, 388560, Note_on_c, 1, 67, 27
3, 388680, Note_off_c, 1, 67, 0
3, 388680, Note_off_c, 1, 74, 0
3, 426360, Note_on_c, 1, 60, 44
3, 426480, Note_off_c, 1, 60, 0
3, 426480, Note_on_c, 1, 62, 43
3, 426600, Note_off_c, 1, 62, 0
3, 426600, Note_on_c, 1, 64, 43
3, 426720, Note_off_c, 1, 64, 0
3, 426720, Note_on_c, 1, 65, 43
3, 426840, Note_off_c, 1, 65, 0
3, 426840, Note_on_c, 1, 67, 42
3, 426960, Note_off_c, 1, 67, 0
3, 426960, Note_on_c, 1, 69, 42
3, 427080, Note_off_c, 1, 69, 0
3, 427080, Note_on_c, 1, 71, 42
3, 427200, Note_off_c, 1, 71, 0
3, 427200, Note_on_c, 1, 67, 43
3, 427320, Note_off_c, 1, 67, 0
3, 427680, Note_on_c, 1, 67, 42
3, 427800, Note_off_c, 1, 67, 0
3, 428160, Note_on_c, 1, 67, 41
3, 428280, Note_off_c, 1, 67, 0
3, 428640, Note_on_c, 1, 67, 40
3, 428760, Note_off_c, 1, 67, 0
3, 429120, Note_on_c, 1, 67, 39
3, 429240, Note_off_c, 1, 67, 0
3, 429600, Note_on_c, 1, 69, 38
3, 429720, Note_off_c, 1, 69, 0
3, 430080, Note_on_c, 1, 67, 37
3, 430236, Note_off_c, 1, 67, 0
3, 431520, Note_on_c, 1, 77, 34
3, 431640, Note_off_c, 1, 77, 0
3, 432000, Note_on_c, 1, 76, 33
3, 432120, Note_off_c, 1, 76, 0
3, 432480, Note_on_c, 1, 74, 32
3, 432600, Note_off_c, 1, 74, 0
3, 432960, Note_on_c, 1, 72, 31
3, 433152, Note_off_c, 1, 72, 0
3, 433920, Note_on_c, 1, 62, 29
3, 433920, Note_on_c, 1, 57, 29
3, 434112, Note_off_c, 1, 57, 0
3, 434112, Note_off_c, 1, 62, 0
3, 434880, Note_on_c, 1, 72, 26
3, 434880, Note_on_c, 1, 67, 26
3, 435072, Note_off_c, 1, 67, 0
3, 435072, Note_off_c, 1, 72, 0
3, 435840, Note_on_c, 1, 59, 24
3, 435840, Note_on_c, 1, 53, 24
3, 436032, Note_off_c, 1, 53, 0
3, 436032, Note_off_c, 1, 59, 0
3, 436800, Note_on_c, 1, 79, 78
3, 436800, Note_on_c, 1, 72, 78
3, 436800, Note_on_c, 1, 76, 78
3, 437280, Note_off_c, 1, 76, 0
3, 437280, Note_off_c, 1, 72, 0
3, 437280, Note_off_c, 1, 79, 0
3, 438240, Control_c, 1, 64, 0
3, 438720, Control_c, 1, 7, 122
3, 438720, Pitch_bend_c, 1, 8192
3, 438720, Control_c, 1, 1, 0
3, 438720, Control_c, 1, 64, 0
3, 438720, Control_c, 1, 93, 28
3, 438720, Control_c, 1, 91, 91
3, 438720, Control_c, 1, 10, 64
3, 438720, Control_c, 1, 0, 0
3, 438720, Control_c, 1, 32, 0
3, 438720, Program_c, 1, 0
3, 450960, Note_on_c, 1, 69, 92
3, 452400, Note_off_c, 1, 69, 0
3, 455760, Note_on_c, 1, 76, 40
3, 455880, Note_off_c, 1, 76, 0
3, 456000, Note_on_c, 1, 71, 39
3, 456120, Note_off_c, 1, 71, 0
3, 456480, Note_on_c, 1, 72, 36
3, 456600, Note_off_c, 1, 72, 0
3, 456720, Note_on_c, 1, 71, 34
3, 456840, Note_off_c, 1, 71, 0
3, 457440, Note_on_c, 1, 59, 71
3, 457440, Note_on_c, 1, 63, 71
3, 457440, Note_on_c, 1, 66, 71
3, 458160, Note_off_c, 1, 66, 0
3, 458160, Note_off_c, 1, 63, 0
3, 458160, Note_off_c, 1, 59, 0
3, 460320, Note_on_c, 1, 66, 77
3, 460320, Note_on_c, 1, 63, 77
3, 460320, Note_on_c, 1, 59, 77
3, 461040, Note_off_c, 1, 59, 0
3, 461040, Note_off_c, 1, 63, 0
3, 461040, Note_off_c, 1, 66, 0
3, 463200, Note_on_c, 1, 59, 88
3, 463200, Note_on_c, 1, 63, 88
3, 463200, Note_on_c, 1, 66, 88
3, 463920, Note_off_c, 1, 66, 0
3, 463920, Note_off_c, 1, 63, 0
3, 463920, Note_off_c, 1, 59, 0
3, 466080, Note_on_c, 1, 64, 95
3, 466080, Note_on_c, 1, 71, 95
3, 466080, Note_on_c, 1, 68, 95
3, 466800, Note_off_c, 1, 68, 0
3, 466800, Note_off_c, 1, 71, 0
3, 466800, Note_off_c, 1, 64, 0
3, 468960, Note_on_c, 1, 78, 38
3, 469080, Note_off_c, 1, 78, 0
3, 469680, Note_on_c, 1, 66, 28
3, 469800, Note_off_c, 1, 66, 0
3, 481920, Note_on_c, 1, 69, 84
3, 483360, Note_off_c, 1, 69, 0
3, 486720, Note_on_c, 1, 76, 40
3, 486840, Note_off_c, 1, 76, 0
3, 486960, Note_on_c, 1, 71, 38
3, 487080, Note_off_c, 1, 71, 0
3, 487440, Note_on_c, 1, 72, 35
3, 487560, Note_off_c, 1, 72, 0
3, 487680, Note_on_c, 1, 71, 33
3, 487800, Note_off_c, 1, 71, 0
3, 488880, Note_on_c, 1, 59, 36
3, 488880, Note_on_c, 1, 62, 36
3, 489000, Note_off_c, 1, 62, 0
3, 489000, Note_off_c, 1, 59, 0
3, 489120, Note_on_c, 1, 71, 38
3, 489120, Note_on_c, 1, 74, 38
3, 489240, Note_off_c, 1, 74, 0
3, 489240, Note_off_c, 1, 71, 0
3, 490320, Note_on_c, 1, 59, 45
3, 490320, Note_on_c, 1, 62, 45
3, 490440, Note_off_c, 1, 62, 0
3, 490440, Note_off_c, 1, 59, 0
3, 490560, Note_on_c, 1, 74, 46
3, 490560, Note_on_c, 1, 71, 46
3, 490680, Note_off_c, 1, 71, 0
3, 490680, Note_off_c, 1, 74, 0
3, 505680, Note_on_c, 1, 55, 46
3, 506160, Note_off_c, 1, 55, 0
3, 506160, Note_on_c, 1, 55, 56
3, 506880, Note_off_c, 1, 55, 0
3, 506880, Note_on_c, 1, 55, 55
3, 507600, Note_off_c, 1, 55, 0
3, 507600, Note_on_c, 1, 55, 54
3, 507840, Note_off_c, 1, 55, 0
3, 507840, Note_on_c, 1, 55, 40
3, 507960, Note_off_c, 1, 55, 0
3, 508560, Note_on_c, 1, 64, 52
3, 509040, Note_off_c, 1, 64, 0
3, 509040, Note_on_c, 1, 62, 50
3, 509280, Note_off_c, 1, 62, 0
3, 509280, Note_on_c, 1, 60, 53
3, 509760, Note_off_c, 1, 60, 0
3, 509760, Note_on_c, 1, 60, 57
3, 509880, Note_off_c, 1, 60, 0
3, 510000, Note_on_c, 1, 60, 60
3, 510120, Note_off_c, 1, 60, 0
3, 510240, Note_on_c, 1, 60, 58
3, 510360, Note_off_c, 1, 60, 0
3, 510480, Note_on_c, 1, 60, 57
3, 510600, Note_off_c, 1, 60, 0
3, 510720, Note_on_c, 1, 59, 56
3, 511200, Note_off_c, 1, 59, 0
3, 514320, Note_on_c, 1, 64, 56
3, 514800, Note_off_c, 1, 64, 0
3, 514800, Note_on_c, 1, 62, 53
3, 515040, Note_off_c, 1, 62, 0
3, 515040, Note_on_c, 1, 60, 54
3, 515520, Note_off_c, 1, 60, 0
3, 515520, Note_on_c, 1, 60, 58
3, 515640, Note_off_c, 1, 60, 0
3, 515760, Note_on_c, 1, 60, 59
3, 515880, Note_off_c, 1, 60, 0
3, 516000, Note_on_c, 1, 60, 54
3, 516120, Note_off_c, 1, 60, 0
3, 516240, Note_on_c, 1, 60, 53
3, 516360, Note_off_c, 1, 60, 0
3, 516480, Note_on_c, 1, 59, 52
3, 516960, Note_off_c, 1, 59, 0
3, 517200, Note_on_c, 1, 72, 48
3, 517200, Note_on_c, 1, 69, 48
3, 517320, Note_off_c, 1, 69, 0
3, 517320, Note_off_c, 1, 72, 0
3, 517440, Note_on_c, 1, 72, 47
3, 517440, Note_on_c, 1, 69, 47
3, 517560, Note_off_c, 1, 69, 0
3, 517560, Note_off_c, 1, 72, 0
3, 517680, Note_on_c, 1, 72, 46
3, 517680, Note_on_c, 1, 69, 46
3, 517800, Note_off_c, 1, 69, 0
3, 517800, Note_off_c, 1, 72, 0
3, 517920, Note_on_c, 1, 67, 45
3, 517920, Note_on_c, 1, 71, 45
3, 518400, Note_off_c, 1, 71, 0
3, 518400, Note_off_c, 1, 67, 0
3, 518640, Note_on_c, 1, 72, 42
3, 518760, Note_off_c, 1, 72, 0
3, 518880, Note_on_c, 1, 72, 41
3, 519000, Note_off_c, 1, 72, 0
3, 519120, Note_on_c, 1, 72, 40
3, 519240, Note_off_c, 1, 72, 0
3, 519360, Note_on_c, 1, 71, 38
3, 519480, Note_off_c, 1, 71, 0
3, 551040, Note_on_c, 1, 69, 89
3, 552480, Note_off_c, 1, 69, 0
3, 555840, Note_on_c, 1, 76, 48
3, 555960, Note_off_c, 1, 76, 0
3, 556080, Note_on_c, 1, 71, 46
3, 556200, Note_off_c, 1, 71, 0
3, 556560, Note_on_c, 1, 72, 43
3, 556680, Note_off_c, 1, 72, 0
3, 556800, Note_on_c, 1, 71, 41
3, 556920, Note_off_c, 1, 71, 0
3, 558000, Note_on_c, 1, 66, 47
3, 558000, Note_on_c, 1, 69, 47
3, 558120, Note_off_c, 1, 69, 0
3, 558120, Note_off_c, 1, 66, 0
3, 558240, Note_on_c, 1, 78, 47
3, 558240, Note_on_c, 1, 81, 47
3, 558360, Note_off_c, 1, 81, 0
3, 558360, Note_off_c, 1, 78, 0
3, 559440, Note_on_c, 1, 66, 47
3, 559440, Note_on_c, 1, 69, 47
3, 559560, Note_off_c, 1, 69, 0
3, 559560, Note_off_c, 1, 66, 0
3, 559680, Note_on_c, 1, 78, 47
3, 559680, Note_on_c, 1, 81, 47
3, 559800, Note_off_c, 1, 81, 0
3, 559800, Note_off_c, 1, 78, 0
3, 577680, Control_c, 1, 64, 0
3, 577740, Control_c, 1, 64, 127
3, 578000, Note_on_c, 1, 59, 30
3, 578080, Note_off_c, 1, 59, 0
3, 578080, Note_on_c, 1, 62, 31
3, 578160, Note_off_c, 1, 62, 0
3, 578240, Note_on_c, 1, 59, 31
3, 578320, Note_off_c, 1, 59, 0
3, 578320, Note_on_c, 1, 62, 31
3, 578400, Note_off_c, 1, 62, 0
3, 578480, Note_on_c, 1, 59, 32
3, 578560, Note_off_c, 1, 59, 0
3, 578560, Note_on_c, 1, 62, 32
3, 578640, Note_off_c, 1, 62, 0
3, 578720, Note_on_c, 1, 59, 33
3, 578800, Note_off_c, 1, 59, 0
3, 578800, Note_on_c, 1, 62, 33
3, 578880, Note_off_c, 1, 62, 0
3, 578960, Note_on_c, 1, 59, 34
3, 579040, Note_off_c, 1, 59, 0
3, 579040, Note_on_c, 1, 62, 34
3, 579120, Control_c, 1, 64, 0
3, 579120, Note_off_c, 1, 62, 0
3, 579180, Control_c, 1, 64, 127
3, 579200, Note_on_c, 1, 60, 35
3, 579280, Note_off_c, 1, 60, 0
3, 579280, Note_on_c, 1, 62, 35
3, 579360, Note_off_c, 1, 62, 0
3, 579440, Note_on_c, 1, 60, 36
3, 579520, Note_off_c, 1, 60, 0
3, 579520, Note_on_c, 1, 62, 36
3, 579600, Note_off_c, 1, 62, 0
3, 579680, Note_on_c, 1, 60, 37
3, 579760, Note_off_c, 1, 60, 0
3, 579760, Note_on_c, 1, 62, 37
3, 579840, Note_off_c, 1, 62, 0
3, 579920, Note_on_c, 1, 60, 38
3, 580000, Note_off_c, 1, 60, 0
3, 580000, Note_on_c, 1, 62, 38
3, 580080, Note_off_c, 1, 62, 0
3, 580160, Note_on_c, 1, 60, 39
3, 580240, Note_off_c, 1, 60, 0
3, 580240, Note_on_c, 1, 62, 39
3, 580320, Note_off_c, 1, 62, 0
3, 580400, Note_on_c, 1, 60, 40
3, 580480, Note_off_c, 1, 60, 0
3, 580480, Note_on_c, 1, 62, 40
3, 580560, Control_c, 1, 64, 0
3, 580560, Note_off_c, 1, 62, 0
3, 580620, Control_c, 1, 64, 127
3, 580640, Note_on_c, 1, 59, 41
3, 580720, Note_off_c, 1, 59, 0
3, 580720, Note_on_c, 1, 62, 41
3, 580800, Note_off_c, 1, 62, 0
3, 580880, Note_on_c, 1, 59, 42
3, 580960, Note_off_c, 1, 59, 0
3, 580960, Note_on_c, 1, 62, 42
3, 581040, Note_off_c, 1, 62, 0
3, 581120, Note_on_c, 1, 59, 43
3, 581200, Note_off_c, 1, 59, 0
3, 581200, Note_on_c, 1, 62, 43
3, 581280, Note_off_c, 1, 62, 0
3, 581360, Note_on_c, 1, 59, 44
3, 581440, Note_off_c, 1, 59, 0
3, 581440, Note_on_c, 1, 62, 44
3, 581520, Note_off_c, 1, 62, 0
3, 581600, Note_on_c, 1, 59, 45
3, 581680, Note_off_c, 1, 59, 0
3, 581680, Note_on_c, 1, 62, 45
3, 581760, Note_off_c, 1, 62, 0
3, 581840, Note_on_c, 1, 59, 45
3, 581920, Note_off_c, 1, 59, 0
3, 581920, Note_on_c, 1, 62, 46
3, 582000, Control_c, 1, 64, 0
3, 582000, Note_off_c, 1, 62, 0
3, 582060, Control_c, 1, 64, 127
3, 582080, Note_on_c, 1, 60, 46
3, 582160, Note_off_c, 1, 60, 0
3, 582160, Note_on_c, 1, 62, 47
3, 582240, Note_off_c, 1, 62, 0
3, 582320, Note_on_c, 1, 60, 47
3, 582400, Note_off_c, 1, 60, 0
3, 582400, Note_on_c, 1, 62, 48
3, 582480, Note_off_c, 1, 62, 0
3, 582560, Note_on_c, 1, 60, 48
3, 582640, Note_off_c, 1, 60, 0
3, 582640, Note_on_c, 1, 62, 49
3, 582720, Note_off_c, 1, 62, 0
3, 582800, Note_on_c, 1, 60, 49
3, 582880, Note_off_c, 1, 60, 0
3, 582880, Note_on_c, 1, 62, 50
3, 582960, Note_off_c, 1, 62, 0
3, 583040, Note_on_c, 1, 60, 50
3, 583120, Note_off_c, 1, 60, 0
3, 583120, Note_on_c, 1, 62, 51
3, 583200, Note_off_c, 1, 62, 0
3, 583280, Note_on_c, 1, 60, 51
3, 583360, Note_off_c, 1, 60, 0
3, 583360, Note_on_c, 1, 62, 52
3, 583440, Control_c, 1, 64, 0
3, 583440, Note_off_c, 1, 62, 0
3, 583500, Control_c, 1, 64, 127
3, 583520, Note_on_c, 1, 59, 52
3, 583600, Note_off_c, 1, 59, 0
3, 583600, Note_on_c, 1, 62, 53
3, 583680, Note_off_c, 1, 62, 0
3, 583760, Note_on_c, 1, 59, 53
3, 583840, Note_off_c, 1, 59, 0
3, 583840, Note_on_c, 1, 62, 53
3, 583920, Note_off_c, 1, 62, 0
3, 584000, Note_on_c, 1, 59, 54
3, 584080, Note_off_c, 1, 59, 0
3, 584080, Note_on_c, 1, 62, 54
3, 584160, Control_c, 1, 64, 0
3, 584160, Note_off_c, 1, 62, 0
3, 584220, Control_c, 1, 64, 127
3, 584240, Note_on_c, 1, 60, 55
3, 584320, Note_off_c, 1, 60, 0
3, 584320, Note_on_c, 1, 62, 55
3, 584400, Note_off_c, 1, 62, 0
3, 584480, Note_on_c, 1, 60, 56
3, 584560, Note_off_c, 1, 60, 0
3, 584560, Note_on_c, 1, 62, 56
3, 584640, Note_off_c, 1, 62, 0
3, 584720, Note_on_c, 1, 60, 57
3, 584800, Note_off_c, 1, 60, 0
3, 584800, Note_on_c, 1, 62, 57
3, 584880, Control_c, 1, 64, 0
3, 584880, Note_off_c, 1, 62, 0
3, 584940, Control_c, 1, 64, 127
3, 584960, Note_on_c, 1, 59, 58
3, 585040, Note_off_c, 1, 59, 0
3, 585040, Note_on_c, 1, 62, 58
3, 585120, Note_off_c, 1, 62, 0
3, 585200, Note_on_c, 1, 59, 59
3, 585280, Note_off_c, 1, 59, 0
3, 585280, Note_on_c, 1, 62, 59
3, 585360, Note_off_c, 1, 62, 0
3, 585440, Note_on_c, 1, 59, 60
3, 585520, Note_off_c, 1, 59, 0
3, 585520, Note_on_c, 1, 62, 60
3, 585600, Control_c, 1, 64, 0
3, 585600, Note_off_c, 1, 62, 0
3, 585660, Control_c, 1, 64, 127
3, 585680, Note_on_c, 1, 60, 61
3, 585760, Note_off_c, 1, 60, 0
3, 585760, Note_on_c, 1, 62, 61
3, 585840, Note_off_c, 1, 62, 0
3, 585920, Note_on_c, 1, 60, 62
3, 586000, Note_off_c, 1, 60, 0
3, 586000, Note_on_c, 1, 62, 62
3, 586080, Note_off_c, 1, 62, 0
3, 586160, Note_on_c, 1, 60, 63
3, 586240, Note_off_c, 1, 60, 0
3, 586240, Note_on_c, 1, 62, 63
3, 586320, Control_c, 1, 64, 0
3, 586320, Note_off_c, 1, 62, 0
3, 614160, Note_on_c, 1, 73, 60
3, 614280, Note_off_c, 1, 73, 0
3, 614400, Note_on_c, 1, 74, 72
3, 614880, Note_off_c, 1, 74, 0
3, 618480, Note_on_c, 1, 61, 44
3, 618600, Note_off_c, 1, 61, 0
3, 618720, Note_on_c, 1, 62, 60
3, 619200, Note_off_c, 1, 62, 0
3, 619200, End_track
4, 0, Start_track
4, 0, Title_t, "No Name"
4, 0, Control_c, 2, 0, 0
4, 0, Control_c, 2, 32, 0
4, 0, Program_c, 2, 0
4, 0, Control_c, 2, 10, 64
4, 0, Control_c, 2, 91, 91
4, 0, Control_c, 2, 93, 28
4, 0, Control_c, 2, 64, 0
4, 0, Control_c, 2, 1, 0
4, 0, Pitch_bend_c, 2, 8192
4, 0, Control_c, 2, 7, 117
4, 7680, Control_c, 2, 64, 0
4, 7720, Control_c, 2, 64, 127
4, 7800, Note_on_c, 2, 47, 34
4, 7920, Note_off_c, 2, 47, 0
4, 7920, Note_on_c, 2, 50, 34
4, 8040, Note_off_c, 2, 50, 0
4, 8040, Note_on_c, 2, 47, 34
4, 8160, Note_off_c, 2, 47, 0
4, 8280, Note_on_c, 2, 47, 35
4, 8400, Note_off_c, 2, 47, 0
4, 8400, Note_on_c, 2, 50, 35
4, 8520, Note_off_c, 2, 50, 0
4, 8520, Note_on_c, 2, 47, 36
4, 8640, Note_off_c, 2, 47, 0
4, 8760, Note_on_c, 2, 47, 36
4, 8880, Note_off_c, 2, 47, 0
4, 8880, Note_on_c, 2, 50, 37
4, 9000, Note_off_c, 2, 50, 0
4, 9000, Note_on_c, 2, 47, 37
4, 9120, Note_off_c, 2, 47, 0
4, 9240, Note_on_c, 2, 47, 38
4, 9360, Note_off_c, 2, 47, 0
4, 9360, Note_on_c, 2, 50, 38
4, 9480, Note_off_c, 2, 50, 0
4, 9480, Note_on_c, 2, 47, 38
4, 9600, Control_c, 2, 64, 0
4, 9600, Note_off_c, 2, 47, 0
4, 9640, Control_c, 2, 64, 127
4, 9720, Note_on_c, 2, 48, 39
4, 9840, Note_off_c, 2, 48, 0
4, 9840, Note_on_c, 2, 54, 39
4, 9960, Note_off_c, 2, 54, 0
4, 9960, Note_on_c, 2, 48, 40
4, 10080, Note_off_c, 2, 48, 0
4, 10200, Note_on_c, 2, 48, 40
4, 10320, Note_off_c, 2, 48, 0
4, 10320, Note_on_c, 2, 54, 41
4, 10440, Note_off_c, 2, 54, 0
4, 10440, Note_on_c, 2, 48, 41
4, 10560, Note_off_c, 2, 48, 0
4, 10680, Note_on_c, 2, 48, 42
4, 10800, Note_off_c, 2, 48, 0
4, 10800, Note_on_c, 2, 54, 42
4, 10920, Note_off_c, 2, 54, 0
4, 10920, Note_on_c, 2, 48, 42
4, 11040, Note_off_c, 2, 48, 0
4, 11160, Note_on_c, 2, 48, 43
4, 11280, Note_off_c, 2, 48, 0
4, 11280, Note_on_c, 2, 54, 43
4, 11400, Note_off_c, 2, 54, 0
4, 11400, Note_on_c, 2, 48, 43
4, 11520, Control_c, 2, 64, 0
4, 11520, Note_off_c, 2, 48, 0
4, 11560, Control_c, 2, 64, 127
4, 11640, Note_on_c, 2, 50, 44
4, 11760, Note_off_c, 2, 50, 0
4, 11760, Note_on_c, 2, 55, 44
4, 11880, Note_off_c, 2, 55, 0
4, 11880, Note_on_c, 2, 50, 45
4, 12000, Note_off_c, 2, 50, 0
4, 12120, Note_on_c, 2, 50, 45
4, 12240, Note_off_c, 2, 50, 0
4, 12240, Note_on_c, 2, 55, 46
4, 12360, Note_off_c, 2, 55, 0
4, 12360, Note_on_c, 2, 50, 46
4, 12480, Note_off_c, 2, 50, 0
4, 12600, Note_on_c, 2, 50, 47
4, 12720, Note_off_c, 2, 50, 0
4, 12720, Note_on_c, 2, 55, 47
4, 12840, Note_off_c, 2, 55, 0
4, 12840, Note_on_c, 2, 50, 47
4, 12960, Note_off_c, 2, 50, 0
4, 13080, Note_on_c, 2, 50, 48
4, 13200, Note_off_c, 2, 50, 0
4, 13200, Note_on_c, 2, 55, 48
4, 13320, Note_off_c, 2, 55, 0
4, 13320, Note_on_c, 2, 50, 49
4, 13440, Control_c, 2, 64, 0
4, 13440, Note_off_c, 2, 50, 0
4, 13480, Control_c, 2, 64, 127
4, 13560, Note_on_c, 2, 52, 49
4, 13680, Note_off_c, 2, 52, 0
4, 13680, Note_on_c, 2, 57, 50
4, 13800, Note_off_c, 2, 57, 0
4, 13800, Note_on_c, 2, 52, 50
4, 13920, Control_c, 2, 64, 0
4, 13920, Note_off_c, 2, 52, 0
4, 13960, Control_c, 2, 64, 127
4, 14040, Note_on_c, 2, 52, 50
4, 14160, Note_off_c, 2, 52, 0
4, 14160, Note_on_c, 2, 57, 51
4, 14280, Note_off_c, 2, 57, 0
4, 14280, Note_on_c, 2, 52, 51
4, 14400, Control_c, 2, 64, 0
4, 14400, Note_off_c, 2, 52, 0
4, 14440, Control_c, 2, 64, 127
4, 14520, Note_on_c, 2, 54, 52
4, 14640, Note_off_c, 2, 54, 0
4, 14640, Note_on_c, 2, 57, 52
4, 14760, Note_off_c, 2, 57, 0
4, 14760, Note_on_c, 2, 54, 52
4, 14880, Note_off_c, 2, 54, 0
4, 15000, Note_on_c, 2, 54, 53
4, 15120, Note_off_c, 2, 54, 0
4, 15120, Note_on_c, 2, 59, 53
4, 15240, Note_off_c, 2, 59, 0
4, 15240, Note_on_c, 2, 54, 54
4, 15360, Control_c, 2, 64, 0
4, 15360, Note_off_c, 2, 54, 0
4, 15400, Control_c, 2, 64, 127
4, 15480, Note_on_c, 2, 55, 54
4, 15600, Note_off_c, 2, 55, 0
4, 15600, Note_on_c, 2, 59, 55
4, 15720, Note_off_c, 2, 59, 0
4, 15720, Note_on_c, 2, 55, 55
4, 15840, Control_c, 2, 64, 0
4, 15840, Note_off_c, 2, 55, 0
4, 15880, Control_c, 2, 64, 127
4, 15960, Note_on_c, 2, 55, 56
4, 16080, Note_off_c, 2, 55, 0
4, 16080, Note_on_c, 2, 61, 56
4, 16200, Note_off_c, 2, 61, 0
4, 16200, Note_on_c, 2, 55, 56
4, 16320, Control_c, 2, 64, 0
4, 16320, Note_off_c, 2, 55, 0
4, 16360, Control_c, 2, 64, 127
4, 16440, Note_on_c, 2, 57, 57
4, 16560, Note_off_c, 2, 57, 0
4, 16560, Note_on_c, 2, 61, 57
4, 16680, Note_off_c, 2, 61, 0
4, 16680, Note_on_c, 2, 57, 58
4, 16800, Note_off_c, 2, 57, 0
4, 16920, Note_on_c, 2, 57, 58
4, 17040, Note_off_c, 2, 57, 0
4, 17040, Note_on_c, 2, 62, 58
4, 17160, Note_off_c, 2, 62, 0
4, 17160, Note_on_c, 2, 57, 59
4, 17280, Control_c, 2, 64, 0
4, 17280, Note_off_c, 2, 57, 0
4, 17320, Control_c, 2, 64, 127
4, 17400, Note_on_c, 2, 59, 59
4, 17520, Note_off_c, 2, 59, 0
4, 17520, Note_on_c, 2, 64, 60
4, 17640, Note_off_c, 2, 64, 0
4, 17640, Note_on_c, 2, 59, 60
4, 17760, Control_c, 2, 64, 0
4, 17760, Note_off_c, 2, 59, 0
4, 17800, Control_c, 2, 64, 127
4, 17880, Note_on_c, 2, 59, 61
4, 18000, Note_off_c, 2, 59, 0
4, 18000, Note_on_c, 2, 64, 61
4, 18120, Note_off_c, 2, 64, 0
4, 18120, Note_on_c, 2, 59, 61
4, 18240, Control_c, 2, 64, 0
4, 18240, Note_off_c, 2, 59, 0
4, 18280, Control_c, 2, 64, 127
4, 18360, Note_on_c, 2, 64, 60
4, 18480, Note_off_c, 2, 64, 0
4, 18480, Note_on_c, 2, 69, 59
4, 18600, Note_off_c, 2, 69, 0
4, 18600, Note_on_c, 2, 64, 59
4, 18720, Control_c, 2, 64, 0
4, 18720, Note_off_c, 2, 64, 0
4, 18760, Control_c, 2, 64, 127
4, 18840, Note_on_c, 2, 62, 57
4, 18960, Note_off_c, 2, 62, 0
4, 18960, Note_on_c, 2, 68, 56
4, 19080, Note_off_c, 2, 68, 0
4, 19080, Note_on_c, 2, 62, 56
4, 19200, Control_c, 2, 64, 0
4, 19200, Note_off_c, 2, 62, 0
4, 19240, Control_c, 2, 64, 127
4, 19320, Note_on_c, 2, 61, 54
4, 19440, Note_off_c, 2, 61, 0
4, 19440, Note_on_c, 2, 64, 53
4, 19560, Note_off_c, 2, 64, 0
4, 19560, Note_on_c, 2, 61, 53
4, 19680, Control_c, 2, 64, 0
4, 19680, Note_off_c, 2, 61, 0
4, 19720, Control_c, 2, 64, 127
4, 19800, Note_on_c, 2, 64, 51
4, 19920, Note_off_c, 2, 64, 0
4, 19920, Note_on_c, 2, 68, 50
4, 20040, Note_off_c, 2, 68, 0
4, 20040, Note_on_c, 2, 64, 50
4, 20160, Control_c, 2, 64, 0
4, 20160, Note_off_c, 2, 64, 0
4, 20200, Control_c, 2, 64, 127
4, 20280, Note_on_c, 2, 64, 48
4, 20400, Note_off_c, 2, 64, 0
4, 20400, Note_on_c, 2, 69, 47
4, 20520, Note_off_c, 2, 69, 0
4, 20520, Note_on_c, 2, 64, 47
4, 20640, Control_c, 2, 64, 0
4, 20640, Note_off_c, 2, 64, 0
4, 20680, Control_c, 2, 64, 127
4, 20760, Note_on_c, 2, 62, 45
4, 20880, Note_off_c, 2, 62, 0
4, 20880, Note_on_c, 2, 68, 44
4, 21000, Note_off_c, 2, 68, 0
4, 21000, Note_on_c, 2, 62, 44
4, 21120, Control_c, 2, 64, 0
4, 21120, Note_off_c, 2, 62, 0
4, 21160, Control_c, 2, 64, 127
4, 21240, Note_on_c, 2, 61, 42
4, 21360, Note_off_c, 2, 61, 0
4, 21360, Note_on_c, 2, 64, 42
4, 21480, Note_off_c, 2, 64, 0
4, 21480, Note_on_c, 2, 61, 41
4, 21600, Control_c, 2, 64, 0
4, 21600, Note_off_c, 2, 61, 0
4, 21640, Control_c, 2, 64, 127
4, 21720, Note_on_c, 2, 64, 39
4, 21840, Note_off_c, 2, 64, 0
4, 21840, Note_on_c, 2, 68, 39
4, 21960, Note_off_c, 2, 68, 0
4, 21960, Note_on_c, 2, 64, 38
4, 22080, Control_c, 2, 64, 0
4, 22080, Note_off_c, 2, 64, 0
4, 22120, Control_c, 2, 64, 127
4, 22200, Note_on_c, 2, 64, 36
4, 22320, Note_off_c, 2, 64, 0
4, 22320, Note_on_c, 2, 69, 36
4, 22440, Note_off_c, 2, 69, 0
4, 22440, Note_on_c, 2, 64, 35
4, 22560, Control_c, 2, 64, 0
4, 22560, Note_off_c, 2, 64, 0
4, 22600, Control_c, 2, 64, 127
4, 22680, Note_on_c, 2, 62, 33
4, 22800, Note_off_c, 2, 62, 0
4, 22800, Note_on_c, 2, 68, 33
4, 22920, Note_off_c, 2, 68, 0
4, 22920, Note_on_c, 2, 62, 32
4, 23040, Control_c, 2, 64, 0
4, 23040, Note_off_c, 2, 62, 0
4, 23040, Note_on_c, 2, 61, 31
4, 23040, Note_on_c, 2, 64, 31
4, 23280, Note_off_c, 2, 64, 0
4, 23280, Note_off_c, 2, 61, 0
4, 31800, Note_on_c, 2, 57, 48
4, 32032, Note_off_c, 2, 57, 0
4, 32040, Note_on_c, 2, 57, 50
4, 32272, Note_off_c, 2, 57, 0
4, 32280, Note_on_c, 2, 57, 54
4, 32512, Note_off_c, 2, 57, 0
4, 32520, Note_on_c, 2, 57, 51
4, 32752, Note_off_c, 2, 57, 0
4, 32760, Note_on_c, 2, 57, 47
4, 32992, Note_off_c, 2, 57, 0
4, 33000, Note_on_c, 2, 57, 53
4, 33232, Note_off_c, 2, 57, 0
4, 33240, Note_on_c, 2, 57, 60
4, 33472, Note_off_c, 2, 57, 0
4, 33480, Note_on_c, 2, 57, 58
4, 33600, Note_off_c, 2, 57, 0
4, 34680, Note_on_c, 2, 69, 54
4, 34905, Note_off_c, 2, 69, 0
4, 34920, Note_on_c, 2, 69, 50
4, 35145, Note_off_c, 2, 69, 0
4, 35160, Note_on_c, 2, 69, 46
4, 35385, Note_off_c, 2, 69, 0
4, 35400, Note_on_c, 2, 69, 42
4, 35625, Note_off_c, 2, 69, 0
4, 35640, Note_on_c, 2, 69, 46
4, 35865, Note_off_c, 2, 69, 0
4, 35880, Note_on_c, 2, 69, 53
4, 36105, Note_off_c, 2, 69, 0
4, 36120, Note_on_c, 2, 69, 54
4, 36345, Note_off_c, 2, 69, 0
4, 36360, Note_on_c, 2, 69, 51
4, 36585, Note_off_c, 2, 69, 0
4, 36600, Note_on_c, 2, 69, 52
4, 36825, Note_off_c, 2, 69, 0
4, 36840, Note_on_c, 2, 69, 56
4, 37065, Note_off_c, 2, 69, 0
4, 37080, Note_on_c, 2, 69, 60
4, 37305, Note_off_c, 2, 69, 0
4, 37320, Note_on_c, 2, 69, 57
4, 37440, Note_off_c, 2, 69, 0
4, 37560, Note_on_c, 2, 74, 57
4, 37792, Note_off_c, 2, 74, 0
4, 37800, Note_on_c, 2, 74, 60
4, 38032, Note_off_c, 2, 74, 0
4, 38040, Note_on_c, 2, 74, 63
4, 38272, Note_off_c, 2, 74, 0
4, 38280, Note_on_c, 2, 74, 66
4, 38512, Note_off_c, 2, 74, 0
4, 38520, Note_on_c, 2, 74, 72
4, 38752, Note_off_c, 2, 74, 0
4, 38760, Note_on_c, 2, 74, 76
4, 38992, Note_off_c, 2, 74, 0
4, 39000, Note_on_c, 2, 74, 81
4, 39232, Note_off_c, 2, 74, 0
4, 39240, Note_on_c, 2, 74, 85
4, 39360, Note_off_c, 2, 74, 0
4, 39360, Note_on_c, 2, 71, 50
4, 39600, Note_off_c, 2, 71, 0
4, 39840, Note_on_c, 2, 71, 57
4, 39840, Note_on_c, 2, 74, 57
4, 40080, Note_off_c, 2, 74, 0
4, 40080, Note_off_c, 2, 71, 0
4, 40320, Note_on_c, 2, 77, 63
4, 40320, Note_on_c, 2, 74, 63
4, 40320, Note_on_c, 2, 71, 63
4, 40560, Note_off_c, 2, 71, 0
4, 40560, Note_off_c, 2, 74, 0
4, 40560, Note_off_c, 2, 77, 0
4, 40800, Note_on_c, 2, 77, 70
4, 40800, Note_on_c, 2, 74, 70
4, 40800, Note_on_c, 2, 71, 70
4, 41040, Note_off_c, 2, 71, 0
4, 41040, Note_off_c, 2, 74, 0
4, 41040, Note_off_c, 2, 77, 0
4, 41280, Note_on_c, 2, 78, 80
4, 41280, Note_on_c, 2, 74, 80
4, 41520, Note_off_c, 2, 74, 0
4, 41520, Note_off_c, 2, 78, 0
4, 42240, Note_on_c, 2, 69, 77
4, 42720, Note_off_c, 2, 69, 0
4, 42720, Note_on_c, 2, 67, 61
4, 43200, Note_off_c, 2, 67, 0
4, 43200, Note_on_c, 2, 66, 57
4, 43440, Note_off_c, 2, 66, 0
4, 44160, Note_on_c, 2, 57, 64
4, 44640, Note_off_c, 2, 57, 0
4, 44640, Note_on_c, 2, 55, 52
4, 45120, Note_off_c, 2, 55, 0
4, 45120, Note_on_c, 2, 54, 50
4, 45240, Note_on_c, 2, 57, 44
4, 45360, Note_off_c, 2, 54, 0
4, 45472, Note_off_c, 2, 57, 0
4, 45480, Note_on_c, 2, 57, 45
4, 45712, Note_off_c, 2, 57, 0
4, 45720, Note_on_c, 2, 57, 47
4, 45952, Note_off_c, 2, 57, 0
4, 45960, Note_on_c, 2, 57, 49
4, 46192, Note_off_c, 2, 57, 0
4, 46200, Note_on_c, 2, 57, 51
4, 46440, Note_off_c, 2, 57, 0
4, 46440, Note_on_c, 2, 57, 52
4, 46680, Note_off_c, 2, 57, 0
4, 46680, Note_on_c, 2, 57, 56
4, 46920, Note_off_c, 2, 57, 0
4, 46920, Note_on_c, 2, 57, 60
4, 47160, Note_off_c, 2, 57, 0
4, 47160, Note_on_c, 2, 57, 59
4, 47400, Note_off_c, 2, 57, 0
4, 47400, Note_on_c, 2, 57, 57
4, 47640, Note_off_c, 2, 57, 0
4, 47640, Note_on_c, 2, 57, 55
4, 47880, Note_off_c, 2, 57, 0
4, 47880, Note_on_c, 2, 57, 54
4, 48120, Note_off_c, 2, 57, 0
4, 48120, Note_on_c, 2, 57, 52
4, 48360, Note_off_c, 2, 57, 0
4, 48360, Note_on_c, 2, 57, 54
4, 48600, Note_off_c, 2, 57, 0
4, 48600, Note_on_c, 2, 57, 57
4, 48840, Note_off_c, 2, 57, 0
4, 48840, Note_on_c, 2, 57, 60
4, 49080, Note_off_c, 2, 57, 0
4, 49080, Note_on_c, 2, 57, 57
4, 49320, Note_off_c, 2, 57, 0
4, 49320, Note_on_c, 2, 57, 55
4, 49560, Note_off_c, 2, 57, 0
4, 49560, Note_on_c, 2, 57, 52
4, 49800, Note_off_c, 2, 57, 0
4, 49800, Note_on_c, 2, 57, 50
4, 50040, Note_off_c, 2, 57, 0
4, 50040, Note_on_c, 2, 57, 51
4, 50280, Note_off_c, 2, 57, 0
4, 50280, Note_on_c, 2, 58, 56
4, 50520, Note_off_c, 2, 58, 0
4, 50520, Note_on_c, 2, 59, 62
4, 50760, Note_off_c, 2, 59, 0
4, 50760, Note_on_c, 2, 54, 59
4, 51000, Note_off_c, 2, 54, 0
4, 51000, Note_on_c, 2, 55, 56
4, 51240, Note_off_c, 2, 55, 0
4, 51240, Note_on_c, 2, 56, 53
4, 51480, Note_off_c, 2, 56, 0
4, 51480, Note_on_c, 2, 57, 49
4, 51720, Note_off_c, 2, 57, 0
4, 51720, Note_on_c, 2, 57, 46
4, 51960, Note_off_c, 2, 57, 0
4, 51960, Note_on_c, 2, 57, 50
4, 52200, Note_off_c, 2, 57, 0
4, 52200, Note_on_c, 2, 58, 54
4, 52440, Note_off_c, 2, 58, 0
4, 52440, Note_on_c, 2, 59, 62
4, 52680, Note_off_c, 2, 59, 0
4, 52680, Note_on_c, 2, 54, 58
4, 52920, Note_off_c, 2, 54, 0
4, 52920, Note_on_c, 2, 55, 56
4, 53160, Note_off_c, 2, 55, 0
4, 53160, Note_on_c, 2, 56, 54
4, 53400, Note_off_c, 2, 56, 0
4, 53400, Note_on_c, 2, 57, 52
4, 53640, Note_off_c, 2, 57, 0
4, 53640, Note_on_c, 2, 57, 50
4, 53880, Note_off_c, 2, 57, 0
4, 53880, Note_on_c, 2, 57, 47
4, 54120, Note_off_c, 2, 57, 0
4, 54120, Note_on_c, 2, 58, 49
4, 54360, Note_off_c, 2, 58, 0
4, 54360, Note_on_c, 2, 59, 53
4, 54600, Note_off_c, 2, 59, 0
4, 54600, Note_on_c, 2, 60, 57
4, 54840, Note_off_c, 2, 60, 0
4, 54840, Note_on_c, 2, 59, 61
4, 55080, Note_off_c, 2, 59, 0
4, 55080, Note_on_c, 2, 59, 65
4, 55320, Note_off_c, 2, 59, 0
4, 55320, Note_on_c, 2, 57, 69
4, 55560, Note_off_c, 2, 57, 0
4, 55560, Note_on_c, 2, 55, 73
4, 55680, Note_off_c, 2, 55, 0
4, 55680, Note_on_c, 2, 54, 63
4, 55800, Note_on_c, 2, 57, 62
4, 55905, Note_off_c, 2, 54, 0
4, 55920, Note_on_c, 2, 54, 61
4, 56032, Note_off_c, 2, 57, 0
4, 56040, Note_on_c, 2, 57, 60
4, 56152, Note_off_c, 2, 54, 0
4, 56160, Note_on_c, 2, 54, 59
4, 56272, Note_off_c, 2, 57, 0
4, 56280, Note_on_c, 2, 57, 58
4, 56392, Note_off_c, 2, 54, 0
4, 56400, Note_on_c, 2, 55, 57
4, 56512, Note_off_c, 2, 57, 0
4, 56520, Note_on_c, 2, 61, 57
4, 56632, Note_off_c, 2, 55, 0
4, 56640, Note_on_c, 2, 57, 56
4, 56647, Note_off_c, 2, 61, 0
4, 56760, Note_on_c, 2, 62, 55
4, 56872, Note_off_c, 2, 57, 0
4, 56880, Note_on_c, 2, 57, 54
4, 56985, Note_off_c, 2, 62, 0
4, 57000, Note_on_c, 2, 62, 53
4, 57112, Note_off_c, 2, 57, 0
4, 57120, Note_on_c, 2, 57, 52
4, 57225, Note_off_c, 2, 62, 0
4, 57240, Note_on_c, 2, 62, 51
4, 57352, Note_off_c, 2, 57, 0
4, 57360, Note_on_c, 2, 55, 50
4, 57465, Note_off_c, 2, 62, 0
4, 57480, Note_on_c, 2, 61, 49
4, 57592, Note_off_c, 2, 55, 0
4, 57600, Note_off_c, 2, 61, 0
4, 57600, Note_on_c, 2, 54, 49
4, 57720, Note_on_c, 2, 57, 48
4, 57832, Note_off_c, 2, 54, 0
4, 57840, Note_on_c, 2, 54, 47
4, 57952, Note_off_c, 2, 57, 0
4, 57960, Note_on_c, 2, 57, 46
4, 58072, Note_off_c, 2, 54, 0
4, 58080, Note_on_c, 2, 54, 45
4, 58192, Note_off_c, 2, 57, 0
4, 58200, Note_on_c, 2, 57, 44
4, 58312, Note_off_c, 2, 54, 0
4, 58320, Note_on_c, 2, 55, 52
4, 58432, Note_off_c, 2, 57, 0
4, 58440, Note_on_c, 2, 57, 42
4, 58552, Note_off_c, 2, 55, 0
4, 58560, Note_on_c, 2, 54, 42
4, 58672, Note_off_c, 2, 57, 0
4, 58680, Note_on_c, 2, 57, 41
4, 58792, Note_off_c, 2, 54, 0
4, 58800, Note_on_c, 2, 55, 51
4, 58912, Note_off_c, 2, 57, 0
4, 58920, Note_on_c, 2, 57, 40
4, 59032, Note_off_c, 2, 55, 0
4, 59040, Note_on_c, 2, 54, 40
4, 59152, Note_off_c, 2, 57, 0
4, 59160, Note_on_c, 2, 57, 40
4, 59272, Note_off_c, 2, 54, 0
4, 59280, Note_on_c, 2, 55, 38
4, 59392, Note_off_c, 2, 57, 0
4, 59400, Note_on_c, 2, 57, 41
4, 59512, Note_off_c, 2, 55, 0
4, 59520, Note_off_c, 2, 57, 0
4, 59520, Note_on_c, 2, 61, 46
4, 59520, Note_on_c, 2, 57, 46
4, 60480, Note_off_c, 2, 57, 0
4, 60480, Note_off_c, 2, 61, 0
4, 60480, Note_on_c, 2, 62, 29
4, 60480, Note_on_c, 2, 57, 29
4, 60720, Note_off_c, 2, 57, 0
4, 60720, Note_off_c, 2, 62, 0
4, 60960, Control_c, 2, 64, 0
4, 111360, Control_c, 2, 64, 127
4, 111440, Note_on_c, 2, 66, 24
4, 111520, Note_off_c, 2, 66, 0
4, 111520, Note_on_c, 2, 69, 25
4, 111600, Note_off_c, 2, 69, 0
4, 111680, Note_on_c, 2, 66, 25
4, 111760, Note_off_c, 2, 66, 0
4, 111760, Note_on_c, 2, 69, 26
4, 111840, Note_off_c, 2, 69, 0
4, 111920, Note_on_c, 2, 66, 27
4, 112000, Note_off_c, 2, 66, 0
4, 112000, Note_on_c, 2, 69, 27
4, 112080, Note_off_c, 2, 69, 0
4, 112160, Note_on_c, 2, 66, 28
4, 112240, Note_off_c, 2, 66, 0
4, 112240, Note_on_c, 2, 69, 29
4, 112320, Note_off_c, 2, 69, 0
4, 112400, Note_on_c, 2, 66, 29
4, 112480, Note_off_c, 2, 66, 0
4, 112480, Note_on_c, 2, 69, 30
4, 112560, Note_off_c, 2, 69, 0
4, 112640, Note_on_c, 2, 66, 31
4, 112720, Note_off_c, 2, 66, 0
4, 112720, Note_on_c, 2, 69, 31
4, 112800, Note_off_c, 2, 69, 0
4, 112880, Note_on_c, 2, 66, 32
4, 112960, Note_off_c, 2, 66, 0
4, 112960, Note_on_c, 2, 69, 33
4, 113040, Note_off_c, 2, 69, 0
4, 113120, Note_on_c, 2, 66, 34
4, 113200, Note_off_c, 2, 66, 0
4, 113200, Note_on_c, 2, 69, 34
4, 113280, Note_off_c, 2, 69, 0
4, 113360, Note_on_c, 2, 69, 35
4, 113440, Note_off_c, 2, 69, 0
4, 113440, Note_on_c, 2, 72, 35
4, 113520, Note_off_c, 2, 72, 0
4, 113600, Note_on_c, 2, 69, 36
4, 113680, Note_off_c, 2, 69, 0
4, 113680, Note_on_c, 2, 72, 37
4, 113760, Note_off_c, 2, 72, 0
4, 113840, Note_on_c, 2, 69, 38
4, 113920, Note_off_c, 2, 69, 0
4, 113920, Note_on_c, 2, 72, 38
4, 114000, Note_off_c, 2, 72, 0
4, 114080, Note_on_c, 2, 69, 39
4, 114160, Note_off_c, 2, 69, 0
4, 114160, Note_on_c, 2, 72, 39
4, 114240, Note_off_c, 2, 72, 0
4, 114320, Note_on_c, 2, 69, 40
4, 114400, Note_off_c, 2, 69, 0
4, 114400, Note_on_c, 2, 72, 41
4, 114480, Note_off_c, 2, 72, 0
4, 114560, Note_on_c, 2, 69, 42
4, 114640, Note_off_c, 2, 69, 0
4, 114640, Note_on_c, 2, 72, 42
4, 114720, Note_off_c, 2, 72, 0
4, 114800, Note_on_c, 2, 69, 43
4, 114880, Note_off_c, 2, 69, 0
4, 114880, Note_on_c, 2, 72, 44
4, 114960, Note_off_c, 2, 72, 0
4, 115040, Note_on_c, 2, 69, 46
4, 115120, Note_off_c, 2, 69, 0
4, 115120, Note_on_c, 2, 72, 48
4, 115200, Note_off_c, 2, 72, 0
4, 115280, Note_on_c, 2, 69, 50
4, 115360, Note_off_c, 2, 69, 0
4, 115360, Note_on_c, 2, 72, 51
4, 115440, Note_off_c, 2, 72, 0
4, 115520, Note_on_c, 2, 69, 53
4, 115600, Note_off_c, 2, 69, 0
4, 115600, Note_on_c, 2, 72, 54
4, 115680, Note_off_c, 2, 72, 0
4, 115760, Note_on_c, 2, 69, 56
4, 115840, Note_off_c, 2, 69, 0
4, 115840, Note_on_c, 2, 72, 57
4, 115920, Note_off_c, 2, 72, 0
4, 116000, Note_on_c, 2, 69, 59
4, 116080, Note_off_c, 2, 69, 0
4, 116080, Note_on_c, 2, 72, 61
4, 116160, Note_off_c, 2, 72, 0
4, 116240, Note_on_c, 2, 69, 63
4, 116320, Note_off_c, 2, 69, 0
4, 116320, Note_on_c, 2, 72, 64
4, 116400, Note_off_c, 2, 72, 0
4, 116480, Note_on_c, 2, 69, 66
4, 116560, Note_off_c, 2, 69, 0
4, 116560, Note_on_c, 2, 72, 67
4, 116640, Note_off_c, 2, 72, 0
4, 116720, Note_on_c, 2, 69, 69
4, 116800, Note_off_c, 2, 69, 0
4, 116800, Note_on_c, 2, 72, 70
4, 116880, Note_off_c, 2, 72, 0
4, 116960, Note_on_c, 2, 69, 72
4, 117040, Note_off_c, 2, 69, 0
4, 117040, Note_on_c, 2, 72, 74
4, 117120, Note_off_c, 2, 72, 0
4, 117120, Note_on_c, 2, 72, 75
4, 117120, Note_on_c, 2, 69, 75
4, 117360, Note_off_c, 2, 69, 0
4, 117360, Note_off_c, 2, 72, 0
4, 118080, Control_c, 2, 64, 0
4, 128640, Control_c, 2, 64, 0
4, 128680, Control_c, 2, 64, 127
4, 128760, Note_on_c, 2, 47, 34
4, 128880, Note_off_c, 2, 47, 0
4, 128880, Note_on_c, 2, 50, 34
4, 129000, Note_off_c, 2, 50, 0
4, 129000, Note_on_c, 2, 47, 34
4, 129120, Note_off_c, 2, 47, 0
4, 129240, Note_on_c, 2, 47, 35
4, 129360, Note_off_c, 2, 47, 0
4, 129360, Note_on_c, 2, 50, 35
4, 129480, Note_off_c, 2, 50, 0
4, 129480, Note_on_c, 2, 47, 36
4, 129600, Note_off_c, 2, 47, 0
4, 129720, Note_on_c, 2, 47, 36
4, 129840, Note_off_c, 2, 47, 0
4, 129840, Note_on_c, 2, 50, 37
4, 129960, Note_off_c, 2, 50, 0
4, 129960, Note_on_c, 2, 47, 37
4, 130080, Note_off_c, 2, 47, 0
4, 130200, Note_on_c, 2, 47, 38
4, 130320, Note_off_c, 2, 47, 0
4, 130320, Note_on_c, 2, 50, 38
4, 130440, Note_off_c, 2, 50, 0
4, 130440, Note_on_c, 2, 47, 38
4, 130560, Control_c, 2, 64, 0
4, 130560, Note_off_c, 2, 47, 0
4, 130600, Control_c, 2, 64, 127
4, 130680, Note_on_c, 2, 48, 39
4, 130800, Note_off_c, 2, 48, 0
4, 130800, Note_on_c, 2, 54, 39
4, 130920, Note_off_c, 2, 54, 0
4, 130920, Note_on_c, 2, 48, 40
4, 131040, Note_off_c, 2, 48, 0
4, 131160, Note_on_c, 2, 48, 40
4, 131280, Note_off_c, 2, 48, 0
4, 131280, Note_on_c, 2, 54, 41
4, 131400, Note_off_c, 2, 54, 0
4, 131400, Note_on_c, 2, 48, 41
4, 131520, Note_off_c, 2, 48, 0
4, 131640, Note_on_c, 2, 48, 42
4, 131760, Note_off_c, 2, 48, 0
4, 131760, Note_on_c, 2, 54, 42
4, 131880, Note_off_c, 2, 54, 0
4, 131880, Note_on_c, 2, 48, 42
4, 132000, Note_off_c, 2, 48, 0
4, 132120, Note_on_c, 2, 48, 43
4, 132240, Note_off_c, 2, 48, 0
4, 132240, Note_on_c, 2, 54, 43
4, 132360, Note_off_c, 2, 54, 0
4, 132360, Note_on_c, 2, 48, 43
4, 132480, Control_c, 2, 64, 0
4, 132480, Note_off_c, 2, 48, 0
4, 132520, Control_c, 2, 64, 127
4, 132600, Note_on_c, 2, 50, 44
4, 132720, Note_off_c, 2, 50, 0
4, 132720, Note_on_c, 2, 55, 44
4, 132840, Note_off_c, 2, 55, 0
4, 132840, Note_on_c, 2, 50, 45
4, 132960, Note_off_c, 2, 50, 0
4, 133080, Note_on_c, 2, 50, 45
4, 133200, Note_off_c, 2, 50, 0
4, 133200, Note_on_c, 2, 55, 46
4, 133320, Note_off_c, 2, 55, 0
4, 133320, Note_on_c, 2, 50, 46
4, 133440, Note_off_c, 2, 50, 0
4, 133560, Note_on_c, 2, 53, 28
4, 133680, Note_off_c, 2, 53, 0
4, 133680, Note_on_c, 2, 55, 28
4, 133800, Note_off_c, 2, 55, 0
4, 133800, Note_on_c, 2, 53, 29
4, 133920, Note_off_c, 2, 53, 0
4, 134040, Note_on_c, 2, 53, 30
4, 134160, Note_off_c, 2, 53, 0
4, 134160, Note_on_c, 2, 55, 31
4, 134280, Note_off_c, 2, 55, 0
4, 134280, Note_on_c, 2, 53, 31
4, 134400, Control_c, 2, 64, 0
4, 134400, Note_off_c, 2, 53, 0
4, 134440, Control_c, 2, 64, 127
4, 134520, Note_on_c, 2, 52, 32
4, 134640, Note_off_c, 2, 52, 0
4, 134640, Note_on_c, 2, 55, 33
4, 134760, Note_off_c, 2, 55, 0
4, 134760, Note_on_c, 2, 52, 33
4, 134880, Note_off_c, 2, 52, 0
4, 135000, Note_on_c, 2, 52, 35
4, 135120, Note_off_c, 2, 52, 0
4, 135120, Note_on_c, 2, 55, 35
4, 135240, Note_off_c, 2, 55, 0
4, 135240, Note_on_c, 2, 52, 36
4, 135360, Control_c, 2, 64, 0
4, 135360, Note_off_c, 2, 52, 0
4, 135400, Control_c, 2, 64, 127
4, 135480, Note_on_c, 2, 53, 37
4, 135600, Note_off_c, 2, 53, 0
4, 135600, Note_on_c, 2, 59, 38
4, 135720, Note_off_c, 2, 59, 0
4, 135720, Note_on_c, 2, 53, 38
4, 135840, Note_off_c, 2, 53, 0
4, 135960, Note_on_c, 2, 53, 39
4, 136080, Note_off_c, 2, 53, 0
4, 136080, Note_on_c, 2, 59, 40
4, 136200, Note_off_c, 2, 59, 0
4, 136200, Note_on_c, 2, 53, 40
4, 136320, Control_c, 2, 64, 127
4, 136320, Note_off_c, 2, 53, 0
4, 136440, Note_on_c, 2, 55, 42
4, 136560, Note_off_c, 2, 55, 0
4, 136560, Note_on_c, 2, 60, 42
4, 136680, Note_off_c, 2, 60, 0
4, 136680, Note_on_c, 2, 55, 43
4, 136800, Note_off_c, 2, 55, 0
4, 136920, Note_on_c, 2, 55, 44
4, 137040, Note_off_c, 2, 55, 0
4, 137040, Note_on_c, 2, 60, 44
4, 137160, Note_off_c, 2, 60, 0
4, 137160, Note_on_c, 2, 55, 45
4, 137280, Control_c, 2, 64, 0
4, 137280, Note_off_c, 2, 55, 0
4, 137320, Control_c, 2, 64, 127
4, 137400, Note_on_c, 2, 57, 46
4, 137520, Note_off_c, 2, 57, 0
4, 137520, Note_on_c, 2, 62, 47
4, 137640, Note_off_c, 2, 62, 0
4, 137640, Note_on_c, 2, 57, 47
4, 137760, Control_c, 2, 64, 0
4, 137760, Note_off_c, 2, 57, 0
4, 137800, Control_c, 2, 64, 127
4, 137880, Note_on_c, 2, 57, 49
4, 138000, Note_off_c, 2, 57, 0
4, 138000, Note_on_c, 2, 62, 49
4, 138120, Note_off_c, 2, 62, 0
4, 138120, Note_on_c, 2, 57, 50
4, 138240, Control_c, 2, 64, 0
4, 138240, Note_off_c, 2, 57, 0
4, 138280, Control_c, 2, 64, 127
4, 138360, Note_on_c, 2, 59, 51
4, 138480, Note_off_c, 2, 59, 0
4, 138480, Note_on_c, 2, 62, 51
4, 138600, Note_off_c, 2, 62, 0
4, 138600, Note_on_c, 2, 59, 51
4, 138720, Note_off_c, 2, 59, 0
4, 138840, Note_on_c, 2, 59, 52
4, 138960, Note_off_c, 2, 59, 0
4, 138960, Note_on_c, 2, 64, 53
4, 139080, Note_off_c, 2, 64, 0
4, 139080, Note_on_c, 2, 59, 53
4, 139200, Control_c, 2, 64, 0
4, 139200, Note_off_c, 2, 59, 0
4, 139240, Control_c, 2, 64, 127
4, 139320, Note_on_c, 2, 60, 54
4, 139440, Note_off_c, 2, 60, 0
4, 139440, Note_on_c, 2, 64, 54
4, 139560, Note_off_c, 2, 64, 0
4, 139560, Note_on_c, 2, 60, 55
4, 139680, Control_c, 2, 64, 0
4, 139680, Note_off_c, 2, 60, 0
4, 139720, Control_c, 2, 64, 127
4, 139800, Note_on_c, 2, 60, 56
4, 139920, Note_off_c, 2, 60, 0
4, 139920, Note_on_c, 2, 66, 56
4, 140040, Note_off_c, 2, 66, 0
4, 140040, Note_on_c, 2, 60, 57
4, 140160, Control_c, 2, 64, 0
4, 140160, Note_off_c, 2, 60, 0
4, 140200, Control_c, 2, 64, 127
4, 140280, Note_on_c, 2, 62, 57
4, 140400, Note_off_c, 2, 62, 0
4, 140400, Note_on_c, 2, 66, 57
4, 140520, Note_off_c, 2, 66, 0
4, 140520, Note_on_c, 2, 62, 58
4, 140640, Note_off_c, 2, 62, 0
4, 140760, Note_on_c, 2, 62, 58
4, 140880, Note_off_c, 2, 62, 0
4, 140880, Note_on_c, 2, 67, 58
4, 141000, Note_off_c, 2, 67, 0
4, 141000, Note_on_c, 2, 62, 59
4, 141120, Control_c, 2, 64, 0
4, 141120, Note_off_c, 2, 62, 0
4, 141160, Control_c, 2, 64, 127
4, 141240, Note_on_c, 2, 64, 59
4, 141360, Note_off_c, 2, 64, 0
4, 141360, Note_on_c, 2, 69, 60
4, 141480, Note_off_c, 2, 69, 0
4, 141480, Note_on_c, 2, 64, 60
4, 141600, Control_c, 2, 64, 0
4, 141600, Note_off_c, 2, 64, 0
4, 141640, Control_c, 2, 64, 127
4, 141720, Note_on_c, 2, 64, 61
4, 141840, Note_off_c, 2, 64, 0
4, 141840, Note_on_c, 2, 69, 61
4, 141960, Note_off_c, 2, 69, 0
4, 141960, Note_on_c, 2, 64, 61
4, 142080, Control_c, 2, 64, 0
4, 142080, Note_off_c, 2, 64, 0
4, 142120, Control_c, 2, 64, 127
4, 142200, Note_on_c, 2, 69, 60
4, 142320, Note_off_c, 2, 69, 0
4, 142320, Note_on_c, 2, 74, 59
4, 142440, Note_off_c, 2, 74, 0
4, 142440, Note_on_c, 2, 69, 59
4, 142560, Control_c, 2, 64, 0
4, 142560, Note_off_c, 2, 69, 0
4, 142600, Control_c, 2, 64, 127
4, 142680, Note_on_c, 2, 67, 57
4, 142800, Note_off_c, 2, 67, 0
4, 142800, Note_on_c, 2, 73, 56
4, 142920, Note_off_c, 2, 73, 0
4, 142920, Note_on_c, 2, 67, 56
4, 143040, Control_c, 2, 64, 0
4, 143040, Note_off_c, 2, 67, 0
4, 143080, Control_c, 2, 64, 127
4, 143160, Note_on_c, 2, 66, 54
4, 143280, Note_off_c, 2, 66, 0
4, 143280, Note_on_c, 2, 69, 53
4, 143400, Note_off_c, 2, 69, 0
4, 143400, Note_on_c, 2, 66, 53
4, 143520, Control_c, 2, 64, 0
4, 143520, Note_off_c, 2, 66, 0
4, 143560, Control_c, 2, 64, 127
4, 143640, Note_on_c, 2, 69, 51
4, 143760, Note_off_c, 2, 69, 0
4, 143760, Note_on_c, 2, 73, 50
4, 143880, Note_off_c, 2, 73, 0
4, 143880, Note_on_c, 2, 69, 50
4, 144000, Control_c, 2, 64, 0
4, 144000, Note_off_c, 2, 69, 0
4, 144040, Control_c, 2, 64, 127
4, 144120, Note_on_c, 2, 69, 48
4, 144240, Note_off_c, 2, 69, 0
4, 144240, Note_on_c, 2, 74, 47
4, 144360, Note_off_c, 2, 74, 0
4, 144360, Note_on_c, 2, 69, 47
4, 144480, Control_c, 2, 64, 0
4, 144480, Note_off_c, 2, 69, 0
4, 144520, Control_c, 2, 64, 127
4, 144600, Note_on_c, 2, 67, 45
4, 144720, Note_off_c, 2, 67, 0
4, 144720, Note_on_c, 2, 73, 44
4, 144840, Note_off_c, 2, 73, 0
4, 144840, Note_on_c, 2, 67, 44
4, 144960, Control_c, 2, 64, 0
4, 144960, Note_off_c, 2, 67, 0
4, 145000, Control_c, 2, 64, 127
4, 145080, Note_on_c, 2, 66, 42
4, 145200, Note_off_c, 2, 66, 0
4, 145200, Note_on_c, 2, 69, 42
4, 145320, Note_off_c, 2, 69, 0
4, 145320, Note_on_c, 2, 66, 41
4, 145440, Control_c, 2, 64, 0
4, 145440, Note_off_c, 2, 66, 0
4, 145480, Control_c, 2, 64, 127
4, 145560, Note_on_c, 2, 69, 39
4, 145680, Note_off_c, 2, 69, 0
4, 145680, Note_on_c, 2, 73, 39
4, 145800, Note_off_c, 2, 73, 0
4, 145800, Note_on_c, 2, 69, 38
4, 145920, Control_c, 2, 64, 0
4, 145920, Note_off_c, 2, 69, 0
4, 145960, Control_c, 2, 64, 127
4, 146040, Note_on_c, 2, 69, 36
4, 146160, Note_off_c, 2, 69, 0
4, 146160, Note_on_c, 2, 74, 36
4, 146280, Note_off_c, 2, 74, 0
4, 146280, Note_on_c, 2, 69, 35
4, 146400, Control_c, 2, 64, 0
4, 146400, Note_off_c, 2, 69, 0
4, 146440, Control_c, 2, 64, 127
4, 146520, Note_on_c, 2, 67, 33
4, 146640, Note_off_c, 2, 67, 0
4, 146640, Note_on_c, 2, 73, 33
4, 146760, Note_off_c, 2, 73, 0
4, 146760, Note_on_c, 2, 67, 32
4, 146880, Control_c, 2, 64, 0
4, 146880, Note_off_c, 2, 67, 0
4, 146880, Note_on_c, 2, 66, 31
4, 146880, Note_on_c, 2, 69, 31
4, 147120, Note_off_c, 2, 69, 0
4, 147120, Note_off_c, 2, 66, 0
4, 155640, Note_on_c, 2, 62, 47
4, 155872, Note_off_c, 2, 62, 0
4, 155880, Note_on_c, 2, 62, 50
4, 156112, Note_off_c, 2, 62, 0
4, 156120, Note_on_c, 2, 62, 54
4, 156352, Note_off_c, 2, 62, 0
4, 156360, Note_on_c, 2, 62, 51
4, 156592, Note_off_c, 2, 62, 0
4, 156600, Note_on_c, 2, 62, 47
4, 156832, Note_off_c, 2, 62, 0
4, 156840, Note_on_c, 2, 62, 53
4, 157072, Note_off_c, 2, 62, 0
4, 157080, Note_on_c, 2, 62, 60
4, 157312, Note_off_c, 2, 62, 0
4, 157320, Note_on_c, 2, 62, 58
4, 157440, Note_off_c, 2, 62, 0
4, 158520, Note_on_c, 2, 62, 54
4, 158745, Note_off_c, 2, 62, 0
4, 158760, Note_on_c, 2, 62, 50
4, 158985, Note_off_c, 2, 62, 0
4, 159000, Note_on_c, 2, 62, 46
4, 159225, Note_off_c, 2, 62, 0
4, 159240, Note_on_c, 2, 62, 42
4, 159465, Note_off_c, 2, 62, 0
4, 159480, Note_on_c, 2, 62, 46
4, 159705, Note_off_c, 2, 62, 0
4, 159720, Note_on_c, 2, 62, 53
4, 159945, Note_off_c, 2, 62, 0
4, 159960, Note_on_c, 2, 62, 54
4, 160185, Note_off_c, 2, 62, 0
4, 160200, Note_on_c, 2, 62, 51
4, 160305, Note_off_c, 2, 62, 0
4, 160440, Note_on_c, 2, 62, 52
4, 160665, Note_off_c, 2, 62, 0
4, 160680, Note_on_c, 2, 62, 56
4, 160905, Note_off_c, 2, 62, 0
4, 160920, Note_on_c, 2, 62, 60
4, 161145, Note_off_c, 2, 62, 0
4, 161160, Note_on_c, 2, 62, 57
4, 161265, Note_off_c, 2, 62, 0
4, 163680, Note_on_c, 2, 67, 53
4, 163680, Note_on_c, 2, 64, 53
4, 163920, Note_off_c, 2, 64, 0
4, 163920, Note_off_c, 2, 67, 0
4, 164160, Note_on_c, 2, 64, 60
4, 164160, Note_on_c, 2, 67, 60
4, 164160, Note_on_c, 2, 70, 60
4, 164400, Note_off_c, 2, 70, 0
4, 164400, Note_off_c, 2, 67, 0
4, 164400, Note_off_c, 2, 64, 0
4, 164640, Note_on_c, 2, 64, 70
4, 164640, Note_on_c, 2, 67, 70
4, 164640, Note_on_c, 2, 70, 70
4, 164880, Note_off_c, 2, 70, 0
4, 164880, Note_off_c, 2, 67, 0
4, 164880, Note_off_c, 2, 64, 0
4, 165120, Note_on_c, 2, 67, 80
4, 165120, Note_on_c, 2, 71, 80
4, 165360, Note_off_c, 2, 71, 0
4, 165360, Note_off_c, 2, 67, 0
4, 166080, Note_on_c, 2, 62, 70
4, 166560, Note_off_c, 2, 62, 0
4, 166560, Note_on_c, 2, 60, 61
4, 167040, Note_off_c, 2, 60, 0
4, 167040, Note_on_c, 2, 59, 55
4, 167280, Note_off_c, 2, 59, 0
4, 168000, Note_on_c, 2, 50, 64
4, 168480, Note_off_c, 2, 50, 0
4, 168480, Note_on_c, 2, 48, 52
4, 168960, Note_off_c, 2, 48, 0
4, 168960, Note_on_c, 2, 47, 50
4, 169080, Note_on_c, 2, 50, 46
4, 169200, Note_off_c, 2, 47, 0
4, 169312, Note_off_c, 2, 50, 0
4, 169320, Note_on_c, 2, 50, 47
4, 169552, Note_off_c, 2, 50, 0
4, 169560, Note_on_c, 2, 50, 48
4, 169792, Note_off_c, 2, 50, 0
4, 169800, Note_on_c, 2, 50, 49
4, 170032, Note_off_c, 2, 50, 0
4, 170040, Note_on_c, 2, 50, 50
4, 170280, Note_off_c, 2, 50, 0
4, 170280, Note_on_c, 2, 50, 52
4, 170520, Note_off_c, 2, 50, 0
4, 170520, Note_on_c, 2, 50, 56
4, 170760, Note_off_c, 2, 50, 0
4, 170760, Note_on_c, 2, 50, 61
4, 171000, Note_off_c, 2, 50, 0
4, 171000, Note_on_c, 2, 50, 57
4, 171240, Note_off_c, 2, 50, 0
4, 171240, Note_on_c, 2, 50, 55
4, 171480, Note_off_c, 2, 50, 0
4, 171480, Note_on_c, 2, 50, 54
4, 171720, Note_off_c, 2, 50, 0
4, 171720, Note_on_c, 2, 50, 52
4, 171960, Note_off_c, 2, 50, 0
4, 171960, Note_on_c, 2, 50, 50
4, 172200, Note_off_c, 2, 50, 0
4, 172200, Note_on_c, 2, 50, 52
4, 172440, Note_off_c, 2, 50, 0
4, 172440, Note_on_c, 2, 50, 56
4, 172680, Note_off_c, 2, 50, 0
4, 172680, Note_on_c, 2, 50, 59
4, 172920, Note_off_c, 2, 50, 0
4, 172920, Note_on_c, 2, 50, 57
4, 173160, Note_off_c, 2, 50, 0
4, 173160, Note_on_c, 2, 50, 55
4, 173400, Note_off_c, 2, 50, 0
4, 173400, Note_on_c, 2, 50, 53
4, 173640, Note_off_c, 2, 50, 0
4, 173640, Note_on_c, 2, 50, 51
4, 173880, Note_off_c, 2, 50, 0
4, 173880, Note_on_c, 2, 50, 51
4, 174120, Note_off_c, 2, 50, 0
4, 174120, Note_on_c, 2, 51, 55
4, 174360, Note_off_c, 2, 51, 0
4, 174360, Note_on_c, 2, 52, 60
4, 174600, Note_off_c, 2, 52, 0
4, 174600, Note_on_c, 2, 47, 57
4, 174840, Note_off_c, 2, 47, 0
4, 174840, Note_on_c, 2, 48, 54
4, 175080, Note_off_c, 2, 48, 0
4, 175080, Note_on_c, 2, 49, 51
4, 175320, Note_off_c, 2, 49, 0
4, 175320, Note_on_c, 2, 50, 48
4, 175560, Note_off_c, 2, 50, 0
4, 175560, Note_on_c, 2, 50, 45
4, 175800, Note_off_c, 2, 50, 0
4, 175800, Note_on_c, 2, 50, 46
4, 176040, Note_off_c, 2, 50, 0
4, 176040, Note_on_c, 2, 51, 50
4, 176280, Note_off_c, 2, 51, 0
4, 176280, Note_on_c, 2, 52, 56
4, 176520, Note_off_c, 2, 52, 0
4, 176520, Note_on_c, 2, 47, 54
4, 176760, Note_off_c, 2, 47, 0
4, 176760, Note_on_c, 2, 48, 51
4, 177000, Note_off_c, 2, 48, 0
4, 177000, Note_on_c, 2, 49, 48
4, 177240, Note_off_c, 2, 49, 0
4, 177240, Note_on_c, 2, 50, 45
4, 177480, Note_off_c, 2, 50, 0
4, 177480, Note_on_c, 2, 50, 45
4, 177720, Note_off_c, 2, 50, 0
4, 177720, Note_on_c, 2, 50, 45
4, 177960, Note_off_c, 2, 50, 0
4, 177960, Note_on_c, 2, 51, 48
4, 178200, Note_off_c, 2, 51, 0
4, 178200, Note_on_c, 2, 52, 52
4, 178440, Note_off_c, 2, 52, 0
4, 178440, Note_on_c, 2, 53, 56
4, 178680, Note_off_c, 2, 53, 0
4, 178680, Note_on_c, 2, 52, 59
4, 178920, Note_off_c, 2, 52, 0
4, 178920, Note_on_c, 2, 50, 63
4, 179160, Note_off_c, 2, 50, 0
4, 179160, Note_on_c, 2, 52, 67
4, 179400, Note_off_c, 2, 52, 0
4, 179400, Note_on_c, 2, 53, 71
4, 179520, Note_off_c, 2, 53, 0
4, 179520, Note_on_c, 2, 55, 67
4, 179640, Note_off_c, 2, 55, 0
4, 179640, Note_on_c, 2, 52, 66
4, 179760, Note_off_c, 2, 52, 0
4, 179760, Note_on_c, 2, 55, 65
4, 179880, Note_off_c, 2, 55, 0
4, 179880, Note_on_c, 2, 52, 64
4, 180000, Note_off_c, 2, 52, 0
4, 180000, Note_on_c, 2, 55, 64
4, 180120, Note_off_c, 2, 55, 0
4, 180120, Note_on_c, 2, 52, 63
4, 180240, Note_off_c, 2, 52, 0
4, 180240, Note_on_c, 2, 55, 62
4, 180360, Note_off_c, 2, 55, 0
4, 180360, Note_on_c, 2, 52, 61
4, 180480, Note_off_c, 2, 52, 0
4, 180480, Note_on_c, 2, 55, 60
4, 180600, Note_off_c, 2, 55, 0
4, 180600, Note_on_c, 2, 50, 59
4, 180720, Note_off_c, 2, 50, 0
4, 180720, Note_on_c, 2, 55, 58
4, 180840, Note_off_c, 2, 55, 0
4, 180840, Note_on_c, 2, 50, 57
4, 180960, Note_off_c, 2, 50, 0
4, 180960, Note_on_c, 2, 54, 56
4, 181080, Note_off_c, 2, 54, 0
4, 181080, Note_on_c, 2, 50, 56
4, 181200, Note_off_c, 2, 50, 0
4, 181200, Note_on_c, 2, 54, 55
4, 181320, Note_off_c, 2, 54, 0
4, 181320, Note_on_c, 2, 50, 54
4, 181440, Note_off_c, 2, 50, 0
4, 191040, Note_on_c, 2, 55, 35
4, 191040, Note_on_c, 2, 50, 35
4, 191040, Note_on_c, 2, 47, 35
4, 191280, Note_off_c, 2, 47, 0
4, 191280, Note_off_c, 2, 50, 0
4, 191280, Note_off_c, 2, 55, 0
4, 191520, Note_on_c, 2, 66, 43
4, 192000, Note_off_c, 2, 66, 0
4, 192000, Note_on_c, 2, 67, 36
4, 192240, Note_off_c, 2, 67, 0
4, 192480, Note_on_c, 2, 69, 38
4, 192960, Note_off_c, 2, 69, 0
4, 192960, Note_on_c, 2, 69, 35
4, 193920, Note_off_c, 2, 69, 0
4, 193920, Note_on_c, 2, 79, 29
4, 194160, Note_off_c, 2, 79, 0
4, 194880, Pitch_bend_c, 2, 8192
4, 194880, Control_c, 2, 1, 0
4, 194880, Control_c, 2, 64, 0
4, 194880, Control_c, 2, 93, 28
4, 194880, Control_c, 2, 91, 91
4, 194880, Control_c, 2, 7, 117
4, 194880, Control_c, 2, 10, 64
4, 194880, Control_c, 2, 0, 0
4, 194880, Control_c, 2, 32, 0
4, 194880, Program_c, 2, 0
4, 206880, Note_on_c, 2, 50, 59
4, 207000, Note_off_c, 2, 50, 0
4, 207360, Note_on_c, 2, 50, 68
4, 208320, Note_off_c, 2, 50, 0
4, 208320, Note_on_c, 2, 55, 67
4, 208440, Note_off_c, 2, 55, 0
4, 208800, Note_on_c, 2, 55, 71
4, 208920, Note_off_c, 2, 55, 0
4, 209280, Note_on_c, 2, 55, 84
4, 210240, Note_off_c, 2, 55, 0
4, 210240, Note_on_c, 2, 57, 52
4, 210360, Note_off_c, 2, 57, 0
4, 210720, Note_on_c, 2, 60, 48
4, 210840, Note_off_c, 2, 60, 0
4, 211200, Note_on_c, 2, 59, 44
4, 211356, Note_off_c, 2, 59, 0
4, 212040, Control_c, 2, 64, 0
4, 212160, Note_on_c, 2, 67, 42
4, 212640, Note_off_c, 2, 67, 0
4, 212640, Note_on_c, 2, 67, 44
4, 213120, Note_off_c, 2, 67, 0
4, 213120, Note_on_c, 2, 67, 46
4, 213600, Note_off_c, 2, 67, 0
4, 213600, Note_on_c, 2, 67, 48
4, 214080, Note_off_c, 2, 67, 0
4, 214080, Note_on_c, 2, 65, 52
4, 214560, Note_off_c, 2, 65, 0
4, 214560, Note_on_c, 2, 64, 47
4, 215040, Note_off_c, 2, 64, 0
4, 215040, Note_on_c, 2, 65, 42
4, 215700, Note_off_c, 2, 65, 0
4, 216000, Note_on_c, 2, 60, 44
4, 216480, Note_off_c, 2, 60, 0
4, 216480, Note_on_c, 2, 61, 47
4, 216960, Note_off_c, 2, 61, 0
4, 216960, Note_on_c, 2, 62, 50
4, 217440, Note_off_c, 2, 62, 0
4, 221280, Note_on_c, 2, 50, 46
4, 221280, Note_on_c, 2, 59, 46
4, 221280, Note_on_c, 2, 55, 46
4, 221400, Note_off_c, 2, 55, 0
4, 221400, Note_off_c, 2, 59, 0
4, 221400, Note_off_c, 2, 50, 0
4, 221760, Note_on_c, 2, 60, 49
4, 221760, Note_on_c, 2, 55, 49
4, 221760, Note_on_c, 2, 52, 49
4, 221880, Note_off_c, 2, 52, 0
4, 221880, Note_off_c, 2, 55, 0
4, 221880, Note_off_c, 2, 60, 0
4, 222240, Note_on_c, 2, 45, 52
4, 222240, Note_on_c, 2, 53, 52
4, 222240, Note_on_c, 2, 50, 52
4, 222360, Note_off_c, 2, 50, 0
4, 222360, Note_off_c, 2, 53, 0
4, 222360, Note_off_c, 2, 45, 0
4, 222720, Note_on_c, 2, 47, 60
4, 222720, Note_on_c, 2, 50, 60
4, 222720, Note_on_c, 2, 55, 60
4, 222876, Note_off_c, 2, 55, 0
4, 222876, Note_off_c, 2, 50, 0
4, 222876, Note_off_c, 2, 47, 0
4, 223440, Note_on_c, 2, 59, 75
4, 223680, Note_off_c, 2, 59, 0
4, 223680, Note_on_c, 2, 60, 79
4, 224160, Note_off_c, 2, 60, 0
4, 224160, Note_on_c, 2, 61, 84
4, 225120, Note_off_c, 2, 61, 0
4, 225120, Note_on_c, 2, 62, 68
4, 225600, Note_off_c, 2, 62, 0
4, 230400, Note_on_c, 2, 50, 78
4, 231360, Note_off_c, 2, 50, 0
4, 235080, Control_c, 2, 64, 0
4, 235200, Note_on_c, 2, 67, 42
4, 235680, Note_off_c, 2, 67, 0
4, 235680, Note_on_c, 2, 67, 44
4, 236160, Note_off_c, 2, 67, 0
4, 236160, Note_on_c, 2, 67, 46
4, 236640, Note_off_c, 2, 67, 0
4, 236640, Note_on_c, 2, 67, 48
4, 237120, Note_off_c, 2, 67, 0
4, 237120, Note_on_c, 2, 65, 52
4, 237600, Note_off_c, 2, 65, 0
4, 237600, Note_on_c, 2, 64, 47
4, 238080, Note_off_c, 2, 64, 0
4, 238080, Note_on_c, 2, 65, 42
4, 238740, Note_off_c, 2, 65, 0
4, 239040, Note_on_c, 2, 60, 44
4, 239520, Note_off_c, 2, 60, 0
4, 239520, Note_on_c, 2, 61, 47
4, 240000, Note_off_c, 2, 61, 0
4, 240000, Note_on_c, 2, 62, 50
4, 240480, Note_off_c, 2, 62, 0
4, 244320, Note_on_c, 2, 55, 40
4, 244320, Note_on_c, 2, 59, 40
4, 244320, Note_on_c, 2, 50, 40
4, 244440, Note_off_c, 2, 50, 0
4, 244440, Note_off_c, 2, 59, 0
4, 244440, Note_off_c, 2, 55, 0
4, 244800, Note_on_c, 2, 52, 44
4, 244800, Note_on_c, 2, 55, 44
4, 244800, Note_on_c, 2, 60, 44
4, 244920, Note_off_c, 2, 60, 0
4, 244920, Note_off_c, 2, 55, 0
4, 244920, Note_off_c, 2, 52, 0
4, 245280, Note_on_c, 2, 50, 47
4, 245280, Note_on_c, 2, 53, 47
4, 245280, Note_on_c, 2, 45, 47
4, 245400, Note_off_c, 2, 45, 0
4, 245400, Note_off_c, 2, 53, 0
4, 245400, Note_off_c, 2, 50, 0
4, 245760, Note_on_c, 2, 55, 50
4, 245760, Note_on_c, 2, 50, 50
4, 245760, Note_on_c, 2, 47, 50
4, 245916, Note_off_c, 2, 47, 0
4, 245916, Note_off_c, 2, 50, 0
4, 245916, Note_off_c, 2, 55, 0
4, 246480, Note_on_c, 2, 59, 75
4, 246720, Note_off_c, 2, 59, 0
4, 246720, Note_on_c, 2, 60, 79
4, 247200, Note_off_c, 2, 60, 0
4, 247200, Note_on_c, 2, 61, 84
4, 248160, Note_off_c, 2, 61, 0
4, 248160, Note_on_c, 2, 62, 68
4, 248640, Note_off_c, 2, 62, 0
4, 253440, Note_on_c, 2, 50, 78
4, 254400, Note_off_c, 2, 50, 0
4, 258120, Control_c, 2, 64, 0
4, 273600, Control_c, 2, 64, 0
4, 296640, Control_c, 2, 64, 0
4, 319680, Control_c, 2, 64, 0
4, 319920, Note_on_c, 2, 64, 37
4, 320040, Note_off_c, 2, 64, 0
4, 320400, Note_on_c, 2, 62, 39
4, 320520, Note_off_c, 2, 62, 0
4, 320880, Note_on_c, 2, 60, 41
4, 321000, Note_off_c, 2, 60, 0
4, 321360, Note_on_c, 2, 59, 43
4, 321480, Note_off_c, 2, 59, 0
4, 321840, Note_on_c, 2, 58, 46
4, 321960, Note_off_c, 2, 58, 0
4, 322320, Note_on_c, 2, 57, 48
4, 322440, Note_off_c, 2, 57, 0
4, 322800, Note_on_c, 2, 56, 44
4, 322920, Note_off_c, 2, 56, 0
4, 323280, Note_on_c, 2, 55, 41
4, 323400, Note_off_c, 2, 55, 0
4, 323760, Note_on_c, 2, 53, 42
4, 323880, Note_off_c, 2, 53, 0
4, 324240, Note_on_c, 2, 52, 45
4, 324360, Note_off_c, 2, 52, 0
4, 324720, Note_on_c, 2, 50, 49
4, 324840, Note_off_c, 2, 50, 0
4, 325200, Note_on_c, 2, 48, 52
4, 325320, Note_off_c, 2, 48, 0
4, 325680, Note_on_c, 2, 53, 57
4, 325800, Note_off_c, 2, 53, 0
4, 326160, Note_on_c, 2, 50, 63
4, 326280, Note_off_c, 2, 50, 0
4, 327600, Note_on_c, 2, 64, 44
4, 327720, Note_off_c, 2, 64, 0
4, 328080, Note_on_c, 2, 62, 46
4, 328200, Note_off_c, 2, 62, 0
4, 328560, Note_on_c, 2, 60, 49
4, 328680, Note_off_c, 2, 60, 0
4, 329040, Note_on_c, 2, 59, 52
4, 329160, Note_off_c, 2, 59, 0
4, 329520, Note_on_c, 2, 60, 55
4, 329640, Note_off_c, 2, 60, 0
4, 330000, Note_on_c, 2, 57, 57
4, 330120, Note_off_c, 2, 57, 0
4, 330480, Note_on_c, 2, 62, 73
4, 330480, Note_on_c, 2, 59, 73
4, 330960, Note_off_c, 2, 59, 0
4, 330960, Note_off_c, 2, 62, 0
4, 330960, Note_on_c, 2, 59, 63
4, 330960, Note_on_c, 2, 62, 63
4, 331080, Note_off_c, 2, 62, 0
4, 331080, Note_off_c, 2, 59, 0
4, 331440, Note_on_c, 2, 60, 66
4, 331560, Note_off_c, 2, 60, 0
4, 331920, Note_on_c, 2, 61, 68
4, 332040, Note_off_c, 2, 61, 0
4, 332400, Note_on_c, 2, 62, 80
4, 332400, Note_on_c, 2, 67, 80
4, 332880, Note_off_c, 2, 67, 0
4, 332880, Note_off_c, 2, 62, 0
4, 332880, Note_on_c, 2, 67, 76
4, 332880, Note_on_c, 2, 62, 76
4, 333000, Note_off_c, 2, 62, 0
4, 333000, Note_off_c, 2, 67, 0
4, 333360, Note_on_c, 2, 62, 72
4, 333480, Note_off_c, 2, 62, 0
4, 333840, Note_on_c, 2, 62, 67
4, 333960, Note_off_c, 2, 62, 0
4, 334080, Note_on_c, 2, 55, 82
4, 334560, Note_off_c, 2, 55, 0
4, 335040, Control_c, 2, 64, 0
4, 335280, Note_on_c, 2, 58, 37
4, 335280, Note_on_c, 2, 64, 37
4, 335280, Note_on_c, 2, 61, 37
4, 335400, Note_off_c, 2, 61, 0
4, 335400, Note_off_c, 2, 64, 0
4, 335400, Note_off_c, 2, 58, 0
4, 335760, Note_on_c, 2, 58, 39
4, 335760, Note_on_c, 2, 64, 39
4, 335760, Note_on_c, 2, 61, 39
4, 335880, Note_off_c, 2, 61, 0
4, 335880, Note_off_c, 2, 64, 0
4, 335880, Note_off_c, 2, 58, 0
4, 336240, Note_on_c, 2, 61, 41
4, 336240, Note_on_c, 2, 64, 41
4, 336240, Note_on_c, 2, 58, 41
4, 336360, Note_off_c, 2, 58, 0
4, 336360, Note_off_c, 2, 64, 0
4, 336360, Note_off_c, 2, 61, 0
4, 336720, Note_on_c, 2, 58, 43
4, 336720, Note_on_c, 2, 64, 43
4, 336720, Note_on_c, 2, 60, 43
4, 336840, Note_off_c, 2, 60, 0
4, 336840, Note_off_c, 2, 64, 0
4, 336840, Note_off_c, 2, 58, 0
4, 336960, Note_on_c, 2, 57, 44
4, 337080, Note_off_c, 2, 57, 0
4, 337200, Note_on_c, 2, 60, 45
4, 337200, Note_on_c, 2, 65, 45
4, 337320, Note_off_c, 2, 65, 0
4, 337320, Note_off_c, 2, 60, 0
4, 337680, Note_on_c, 2, 64, 47
4, 337680, Note_on_c, 2, 60, 47
4, 337800, Note_off_c, 2, 60, 0
4, 337800, Note_off_c, 2, 64, 0
4, 338160, Note_on_c, 2, 65, 49
4, 338160, Note_on_c, 2, 60, 49
4, 338280, Note_off_c, 2, 60, 0
4, 338280, Note_off_c, 2, 65, 0
4, 338640, Note_on_c, 2, 61, 51
4, 338640, Note_on_c, 2, 65, 51
4, 338760, Note_off_c, 2, 65, 0
4, 338760, Note_off_c, 2, 61, 0
4, 339120, Note_on_c, 2, 65, 52
4, 339120, Note_on_c, 2, 62, 52
4, 339240, Note_off_c, 2, 62, 0
4, 339240, Note_off_c, 2, 65, 0
4, 339600, Note_on_c, 2, 58, 51
4, 339600, Note_on_c, 2, 64, 51
4, 339600, Note_on_c, 2, 61, 51
4, 339720, Note_off_c, 2, 61, 0
4, 339720, Note_off_c, 2, 64, 0
4, 339720, Note_off_c, 2, 58, 0
4, 340080, Note_on_c, 2, 62, 49
4, 340080, Note_on_c, 2, 57, 49
4, 340200, Note_off_c, 2, 57, 0
4, 340200, Note_off_c, 2, 62, 0
4, 340560, Note_on_c, 2, 55, 47
4, 340560, Note_on_c, 2, 58, 47
4, 340680, Note_off_c, 2, 58, 0
4, 340680, Note_off_c, 2, 55, 0
4, 341040, Note_on_c, 2, 53, 45
4, 341040, Note_on_c, 2, 57, 45
4, 341160, Note_off_c, 2, 57, 0
4, 341160, Note_off_c, 2, 53, 0
4, 341520, Note_on_c, 2, 54, 43
4, 341520, Note_on_c, 2, 57, 43
4, 341640, Note_off_c, 2, 57, 0
4, 341640, Note_off_c, 2, 54, 0
4, 342960, Note_on_c, 2, 60, 40
4, 343080, Note_off_c, 2, 60, 0
4, 343440, Note_on_c, 2, 62, 41
4, 343560, Note_off_c, 2, 62, 0
4, 343920, Note_on_c, 2, 60, 43
4, 344040, Note_off_c, 2, 60, 0
4, 344400, Note_on_c, 2, 59, 44
4, 344520, Note_off_c, 2, 59, 0
4, 344880, Note_on_c, 2, 58, 46
4, 345000, Note_off_c, 2, 58, 0
4, 345360, Note_on_c, 2, 57, 47
4, 345480, Note_off_c, 2, 57, 0
4, 345840, Note_on_c, 2, 56, 47
4, 345960, Note_off_c, 2, 56, 0
4, 346320, Note_on_c, 2, 55, 43
4, 346440, Note_off_c, 2, 55, 0
4, 346800, Note_on_c, 2, 62, 46
4, 346800, Note_on_c, 2, 59, 46
4, 346920, Note_off_c, 2, 59, 0
4, 346920, Note_off_c, 2, 62, 0
4, 347280, Note_on_c, 2, 58, 54
4, 347280, Note_on_c, 2, 61, 54
4, 347280, Note_on_c, 2, 64, 54
4, 347400, Note_off_c, 2, 64, 0
4, 347400, Note_off_c, 2, 61, 0
4, 347400, Note_off_c, 2, 58, 0
4, 347760, Note_on_c, 2, 58, 61
4, 347760, Note_on_c, 2, 64, 61
4, 347760, Note_on_c, 2, 61, 61
4, 347880, Note_off_c, 2, 61, 0
4, 347880, Note_off_c, 2, 64, 0
4, 347880, Note_off_c, 2, 58, 0
4, 348240, Note_on_c, 2, 62, 68
4, 348240, Note_on_c, 2, 57, 68
4, 348360, Note_off_c, 2, 57, 0
4, 348360, Note_off_c, 2, 62, 0
4, 348720, Note_on_c, 2, 55, 57
4, 348720, Note_on_c, 2, 60, 57
4, 348840, Note_off_c, 2, 60, 0
4, 348840, Note_off_c, 2, 55, 0
4, 349200, Note_on_c, 2, 59, 49
4, 349200, Note_on_c, 2, 55, 49
4, 349320, Note_off_c, 2, 55, 0
4, 349320, Note_off_c, 2, 59, 0
4, 358080, Control_c, 2, 64, 0
4, 358320, Note_on_c, 2, 61, 37
4, 358320, Note_on_c, 2, 64, 37
4, 358320, Note_on_c, 2, 58, 37
4, 358440, Note_off_c, 2, 58, 0
4, 358440, Note_off_c, 2, 64, 0
4, 358440, Note_off_c, 2, 61, 0
4, 358800, Note_on_c, 2, 61, 39
4, 358800, Note_on_c, 2, 64, 39
4, 358800, Note_on_c, 2, 58, 39
4, 358920, Note_off_c, 2, 58, 0
4, 358920, Note_off_c, 2, 64, 0
4, 358920, Note_off_c, 2, 61, 0
4, 359280, Note_on_c, 2, 58, 41
4, 359280, Note_on_c, 2, 64, 41
4, 359280, Note_on_c, 2, 61, 41
4, 359400, Note_off_c, 2, 61, 0
4, 359400, Note_off_c, 2, 64, 0
4, 359400, Note_off_c, 2, 58, 0
4, 359760, Note_on_c, 2, 60, 43
4, 359760, Note_on_c, 2, 64, 43
4, 359760, Note_on_c, 2, 58, 43
4, 359880, Note_off_c, 2, 58, 0
4, 359880, Note_off_c, 2, 64, 0
4, 359880, Note_off_c, 2, 60, 0
4, 360000, Note_on_c, 2, 57, 44
4, 360120, Note_off_c, 2, 57, 0
4, 360240, Note_on_c, 2, 65, 45
4, 360240, Note_on_c, 2, 60, 45
4, 360360, Note_off_c, 2, 60, 0
4, 360360, Note_off_c, 2, 65, 0
4, 360720, Note_on_c, 2, 60, 47
4, 360720, Note_on_c, 2, 64, 47
4, 360840, Note_off_c, 2, 64, 0
4, 360840, Note_off_c, 2, 60, 0
4, 361200, Note_on_c, 2, 60, 49
4, 361200, Note_on_c, 2, 65, 49
4, 361320, Note_off_c, 2, 65, 0
4, 361320, Note_off_c, 2, 60, 0
4, 361680, Note_on_c, 2, 65, 51
4, 361680, Note_on_c, 2, 61, 51
4, 361800, Note_off_c, 2, 61, 0
4, 361800, Note_off_c, 2, 65, 0
4, 362160, Note_on_c, 2, 62, 52
4, 362160, Note_on_c, 2, 65, 52
4, 362280, Note_off_c, 2, 65, 0
4, 362280, Note_off_c, 2, 62, 0
4, 362640, Note_on_c, 2, 61, 51
4, 362640, Note_on_c, 2, 64, 51
4, 362640, Note_on_c, 2, 58, 51
4, 362760, Note_off_c, 2, 58, 0
4, 362760, Note_off_c, 2, 64, 0
4, 362760, Note_off_c, 2, 61, 0
4, 363120, Note_on_c, 2, 57, 49
4, 363120, Note_on_c, 2, 62, 49
4, 363240, Note_off_c, 2, 62, 0
4, 363240, Note_off_c, 2, 57, 0
4, 363600, Note_on_c, 2, 58, 47
4, 363600, Note_on_c, 2, 55, 47
4, 363720, Note_off_c, 2, 55, 0
4, 363720, Note_off_c, 2, 58, 0
4, 364080, Note_on_c, 2, 57, 45
4, 364080, Note_on_c, 2, 53, 45
4, 364200, Note_off_c, 2, 53, 0
4, 364200, Note_off_c, 2, 57, 0
4, 364560, Note_on_c, 2, 57, 43
4, 364560, Note_on_c, 2, 54, 43
4, 364680, Note_off_c, 2, 54, 0
4, 364680, Note_off_c, 2, 57, 0
4, 366000, Note_on_c, 2, 60, 40
4, 366120, Note_off_c, 2, 60, 0
4, 366480, Note_on_c, 2, 62, 41
4, 366600, Note_off_c, 2, 62, 0
4, 366960, Note_on_c, 2, 60, 43
4, 367080, Note_off_c, 2, 60, 0
4, 367440, Note_on_c, 2, 59, 44
4, 367560, Note_off_c, 2, 59, 0
4, 367920, Note_on_c, 2, 58, 46
4, 368040, Note_off_c, 2, 58, 0
4, 368400, Note_on_c, 2, 57, 47
4, 368520, Note_off_c, 2, 57, 0
4, 368880, Note_on_c, 2, 56, 47
4, 369000, Note_off_c, 2, 56, 0
4, 369360, Note_on_c, 2, 55, 43
4, 369480, Note_off_c, 2, 55, 0
4, 369840, Note_on_c, 2, 59, 46
4, 369840, Note_on_c, 2, 62, 46
4, 369960, Note_off_c, 2, 62, 0
4, 369960, Note_off_c, 2, 59, 0
4, 370320, Note_on_c, 2, 64, 54
4, 370320, Note_on_c, 2, 61, 54
4, 370320, Note_on_c, 2, 58, 54
4, 370440, Note_off_c, 2, 58, 0
4, 370440, Note_off_c, 2, 61, 0
4, 370440, Note_off_c, 2, 64, 0
4, 370800, Note_on_c, 2, 61, 61
4, 370800, Note_on_c, 2, 64, 61
4, 370800, Note_on_c, 2, 58, 61
4, 370920, Note_off_c, 2, 58, 0
4, 370920, Note_off_c, 2, 64, 0
4, 370920, Note_off_c, 2, 61, 0
4, 371280, Note_on_c, 2, 57, 68
4, 371280, Note_on_c, 2, 62, 68
4, 371400, Note_off_c, 2, 62, 0
4, 371400, Note_off_c, 2, 57, 0
4, 371760, Note_on_c, 2, 60, 57
4, 371760, Note_on_c, 2, 55, 57
4, 371880, Note_off_c, 2, 55, 0
4, 371880, Note_off_c, 2, 60, 0
4, 372240, Note_on_c, 2, 55, 49
4, 372240, Note_on_c, 2, 59, 49
4, 372360, Note_off_c, 2, 59, 0
4, 372360, Note_off_c, 2, 55, 0
4, 381120, Control_c, 2, 64, 0
4, 388920, Note_on_c, 2, 64, 30
4, 389040, Note_off_c, 2, 64, 0
4, 389160, Note_on_c, 2, 67, 31
4, 389280, Note_off_c, 2, 67, 0
4, 389400, Note_on_c, 2, 65, 32
4, 389520, Note_off_c, 2, 65, 0
4, 389640, Note_on_c, 2, 67, 33
4, 389760, Note_off_c, 2, 67, 0
4, 389880, Note_on_c, 2, 66, 35
4, 390000, Note_off_c, 2, 66, 0
4, 390120, Note_on_c, 2, 67, 36
4, 390240, Note_off_c, 2, 67, 0
4, 390360, Note_on_c, 2, 67, 37
4, 390480, Note_off_c, 2, 67, 0
4, 390600, Note_on_c, 2, 67, 38
4, 390720, Note_off_c, 2, 67, 0
4, 390840, Note_on_c, 2, 67, 40
4, 390960, Note_off_c, 2, 67, 0
4, 391080, Note_on_c, 2, 72, 41
4, 391200, Note_off_c, 2, 72, 0
4, 391320, Note_on_c, 2, 69, 42
4, 391440, Note_off_c, 2, 69, 0
4, 391560, Note_on_c, 2, 74, 43
4, 391680, Note_off_c, 2, 74, 0
4, 391800, Note_on_c, 2, 67, 44
4, 391920, Note_off_c, 2, 67, 0
4, 392040, Note_on_c, 2, 71, 42
4, 392160, Note_off_c, 2, 71, 0
4, 392160, Note_on_c, 2, 74, 43
4, 392280, Note_off_c, 2, 74, 0
4, 392280, Note_on_c, 2, 71, 39
4, 392400, Note_off_c, 2, 71, 0
4, 392400, Note_on_c, 2, 74, 38
4, 392520, Note_off_c, 2, 74, 0
4, 392520, Note_on_c, 2, 71, 37
4, 392640, Note_off_c, 2, 71, 0
4, 392760, Note_on_c, 2, 67, 39
4, 392880, Note_off_c, 2, 67, 0
4, 393000, Note_on_c, 2, 72, 39
4, 393120, Note_off_c, 2, 72, 0
4, 393240, Note_on_c, 2, 67, 38
4, 393360, Note_off_c, 2, 67, 0
4, 393480, Note_on_c, 2, 77, 37
4, 393600, Note_off_c, 2, 77, 0
4, 393720, Note_on_c, 2, 67, 36
4, 393840, Note_off_c, 2, 67, 0
4, 393960, Note_on_c, 2, 76, 36
4, 394080, Note_off_c, 2, 76, 0
4, 394200, Note_on_c, 2, 68, 35
4, 394320, Note_off_c, 2, 68, 0
4, 394440, Note_on_c, 2, 74, 34
4, 394560, Note_off_c, 2, 74, 0
4, 394680, Note_on_c, 2, 69, 33
4, 394800, Note_off_c, 2, 69, 0
4, 394920, Note_on_c, 2, 72, 33
4, 395040, Note_off_c, 2, 72, 0
4, 395160, Note_on_c, 2, 69, 32
4, 395280, Note_off_c, 2, 69, 0
4, 395400, Note_on_c, 2, 77, 31
4, 395520, Note_off_c, 2, 77, 0
4, 395520, Note_on_c, 2, 74, 31
4, 395640, Note_off_c, 2, 74, 0
4, 395640, Note_on_c, 2, 71, 30
4, 395760, Note_off_c, 2, 71, 0
4, 395880, Note_on_c, 2, 74, 29
4, 396000, Note_off_c, 2, 74, 0
4, 396000, Note_on_c, 2, 71, 29
4, 396120, Note_off_c, 2, 71, 0
4, 396120, Note_on_c, 2, 67, 29
4, 396240, Note_off_c, 2, 67, 0
4, 396240, Note_on_c, 2, 65, 28
4, 396360, Note_off_c, 2, 65, 0
4, 396360, Note_on_c, 2, 62, 28
4, 396480, Note_off_c, 2, 62, 0
4, 396600, Note_on_c, 2, 64, 29
4, 396720, Note_off_c, 2, 64, 0
4, 396840, Note_on_c, 2, 67, 30
4, 396960, Note_off_c, 2, 67, 0
4, 397080, Note_on_c, 2, 65, 32
4, 397200, Note_off_c, 2, 65, 0
4, 397320, Note_on_c, 2, 67, 33
4, 397440, Note_off_c, 2, 67, 0
4, 397560, Note_on_c, 2, 66, 35
4, 397680, Note_off_c, 2, 66, 0
4, 397800, Note_on_c, 2, 67, 36
4, 397920, Note_off_c, 2, 67, 0
4, 398040, Note_on_c, 2, 62, 38
4, 398160, Note_off_c, 2, 62, 0
4, 398280, Note_on_c, 2, 67, 40
4, 398400, Note_off_c, 2, 67, 0
4, 398520, Note_on_c, 2, 64, 41
4, 398640, Note_off_c, 2, 64, 0
4, 398760, Note_on_c, 2, 67, 43
4, 398880, Note_off_c, 2, 67, 0
4, 399000, Note_on_c, 2, 66, 44
4, 399120, Note_off_c, 2, 66, 0
4, 399240, Note_on_c, 2, 72, 46
4, 399360, Note_off_c, 2, 72, 0
4, 399480, Note_on_c, 2, 74, 47
4, 399600, Note_off_c, 2, 74, 0
4, 399720, Note_on_c, 2, 78, 56
4, 399840, Note_off_c, 2, 78, 0
4, 399840, Note_on_c, 2, 79, 55
4, 399960, Note_off_c, 2, 79, 0
4, 399960, Note_on_c, 2, 74, 53
4, 400080, Note_off_c, 2, 74, 0
4, 400080, Note_on_c, 2, 71, 52
4, 400200, Note_off_c, 2, 71, 0
4, 400200, Note_on_c, 2, 67, 51
4, 400320, Note_off_c, 2, 67, 0
4, 400440, Note_on_c, 2, 76, 56
4, 400560, Note_off_c, 2, 76, 0
4, 400680, Note_on_c, 2, 79, 57
4, 400800, Note_off_c, 2, 79, 0
4, 400920, Note_on_c, 2, 76, 61
4, 401040, Note_off_c, 2, 76, 0
4, 401160, Note_on_c, 2, 79, 61
4, 401280, Note_off_c, 2, 79, 0
4, 401400, Note_on_c, 2, 79, 66
4, 401520, Note_off_c, 2, 79, 0
4, 401640, Note_on_c, 2, 82, 67
4, 401760, Note_off_c, 2, 82, 0
4, 401760, Note_on_c, 2, 83, 64
4, 401880, Note_off_c, 2, 83, 0
4, 401880, Note_on_c, 2, 79, 62
4, 402000, Note_off_c, 2, 79, 0
4, 402000, Note_on_c, 2, 74, 59
4, 402120, Note_off_c, 2, 74, 0
4, 402120, Note_on_c, 2, 71, 57
4, 402240, Note_off_c, 2, 71, 0
4, 402240, Note_on_c, 2, 74, 55
4, 402360, Note_off_c, 2, 74, 0
4, 402360, Note_on_c, 2, 72, 54
4, 402480, Note_off_c, 2, 72, 0
4, 402480, Note_on_c, 2, 76, 53
4, 402600, Note_off_c, 2, 76, 0
4, 402600, Note_on_c, 2, 72, 52
4, 402720, Note_off_c, 2, 72, 0
4, 402720, Note_on_c, 2, 71, 50
4, 402840, Note_off_c, 2, 71, 0
4, 402840, Note_on_c, 2, 69, 49
4, 402960, Note_off_c, 2, 69, 0
4, 402960, Note_on_c, 2, 67, 48
4, 403080, Note_off_c, 2, 67, 0
4, 403080, Note_on_c, 2, 66, 47
4, 403200, Note_off_c, 2, 66, 0
4, 403200, Note_on_c, 2, 67, 45
4, 403320, Note_off_c, 2, 67, 0
4, 403320, Note_on_c, 2, 69, 44
4, 403440, Note_off_c, 2, 69, 0
4, 403440, Note_on_c, 2, 71, 43
4, 403560, Note_off_c, 2, 71, 0
4, 403560, Note_on_c, 2, 72, 42
4, 403680, Note_off_c, 2, 72, 0
4, 403680, Note_on_c, 2, 74, 40
4, 403800, Note_off_c, 2, 74, 0
4, 403800, Note_on_c, 2, 76, 39
4, 403920, Note_off_c, 2, 76, 0
4, 403920, Note_on_c, 2, 77, 38
4, 404040, Note_off_c, 2, 77, 0
4, 404040, Note_on_c, 2, 78, 37
4, 404160, Note_off_c, 2, 78, 0
4, 404280, Note_on_c, 2, 67, 34
4, 404400, Note_off_c, 2, 67, 0
4, 404520, Note_on_c, 2, 72, 36
4, 404640, Note_off_c, 2, 72, 0
4, 404760, Note_on_c, 2, 67, 37
4, 404880, Note_off_c, 2, 67, 0
4, 405000, Note_on_c, 2, 71, 39
4, 405120, Note_off_c, 2, 71, 0
4, 405240, Note_on_c, 2, 67, 40
4, 405360, Note_off_c, 2, 67, 0
4, 405480, Note_on_c, 2, 72, 42
4, 405600, Note_off_c, 2, 72, 0
4, 405720, Note_on_c, 2, 67, 43
4, 405840, Note_off_c, 2, 67, 0
4, 405960, Note_on_c, 2, 72, 45
4, 406080, Note_off_c, 2, 72, 0
4, 406200, Note_on_c, 2, 72, 46
4, 406320, Note_off_c, 2, 72, 0
4, 406440, Note_on_c, 2, 77, 48
4, 406560, Note_off_c, 2, 77, 0
4, 406680, Note_on_c, 2, 72, 49
4, 406800, Note_off_c, 2, 72, 0
4, 406920, Note_on_c, 2, 76, 51
4, 407040, Note_off_c, 2, 76, 0
4, 407160, Note_on_c, 2, 72, 47
4, 407280, Note_off_c, 2, 72, 0
4, 407400, Note_on_c, 2, 77, 43
4, 407520, Note_off_c, 2, 77, 0
4, 407520, Note_on_c, 2, 81, 42
4, 407640, Note_off_c, 2, 81, 0
4, 407640, Note_on_c, 2, 77, 40
4, 407760, Note_off_c, 2, 77, 0
4, 407760, Note_on_c, 2, 81, 38
4, 407880, Note_off_c, 2, 81, 0
4, 407880, Note_on_c, 2, 77, 36
4, 408000, Note_off_c, 2, 77, 0
4, 408120, Note_on_c, 2, 69, 36
4, 408240, Note_off_c, 2, 69, 0
4, 408360, Note_on_c, 2, 72, 37
4, 408480, Note_off_c, 2, 72, 0
4, 408600, Note_on_c, 2, 69, 38
4, 408720, Note_off_c, 2, 69, 0
4, 408840, Note_on_c, 2, 73, 39
4, 408960, Note_off_c, 2, 73, 0
4, 409080, Note_on_c, 2, 69, 40
4, 409200, Note_off_c, 2, 69, 0
4, 409320, Note_on_c, 2, 74, 41
4, 409440, Note_off_c, 2, 74, 0
4, 409560, Note_on_c, 2, 67, 42
4, 409680, Note_off_c, 2, 67, 0
4, 409800, Note_on_c, 2, 73, 43
4, 409920, Note_off_c, 2, 73, 0
4, 410040, Note_on_c, 2, 65, 44
4, 410160, Note_off_c, 2, 65, 0
4, 410280, Note_on_c, 2, 69, 44
4, 410400, Note_off_c, 2, 69, 0
4, 410520, Note_on_c, 2, 63, 45
4, 410640, Note_off_c, 2, 63, 0
4, 410760, Note_on_c, 2, 69, 46
4, 410880, Note_off_c, 2, 69, 0
4, 411000, Note_on_c, 2, 62, 47
4, 411120, Note_off_c, 2, 62, 0
4, 411240, Note_on_c, 2, 67, 44
4, 411360, Note_off_c, 2, 67, 0
4, 411360, Note_on_c, 2, 71, 43
4, 411480, Note_off_c, 2, 71, 0
4, 411480, Note_on_c, 2, 67, 42
4, 411600, Note_off_c, 2, 67, 0
4, 411600, Note_on_c, 2, 62, 40
4, 411720, Note_off_c, 2, 62, 0
4, 411720, Note_on_c, 2, 67, 39
4, 411840, Note_off_c, 2, 67, 0
4, 411960, Note_on_c, 2, 60, 36
4, 412080, Note_off_c, 2, 60, 0
4, 412200, Note_on_c, 2, 67, 37
4, 412320, Note_off_c, 2, 67, 0
4, 412440, Note_on_c, 2, 65, 38
4, 412560, Note_off_c, 2, 65, 0
4, 412680, Note_on_c, 2, 67, 39
4, 412800, Note_off_c, 2, 67, 0
4, 412920, Note_on_c, 2, 64, 39
4, 413040, Note_off_c, 2, 64, 0
4, 413160, Note_on_c, 2, 67, 40
4, 413280, Note_off_c, 2, 67, 0
4, 413400, Note_on_c, 2, 62, 41
4, 413520, Note_off_c, 2, 62, 0
4, 413640, Note_on_c, 2, 67, 42
4, 413760, Note_off_c, 2, 67, 0
4, 413880, Note_on_c, 2, 67, 43
4, 414000, Note_off_c, 2, 67, 0
4, 414120, Note_on_c, 2, 72, 43
4, 414240, Note_off_c, 2, 72, 0
4, 414360, Note_on_c, 2, 69, 44
4, 414480, Note_off_c, 2, 69, 0
4, 414600, Note_on_c, 2, 74, 45
4, 414720, Note_off_c, 2, 74, 0
4, 414840, Note_on_c, 2, 67, 46
4, 414960, Note_off_c, 2, 67, 0
4, 415080, Note_on_c, 2, 71, 47
4, 415200, Note_off_c, 2, 71, 0
4, 415200, Note_on_c, 2, 74, 47
4, 415320, Note_off_c, 2, 74, 0
4, 415320, Note_on_c, 2, 71, 48
4, 415440, Note_off_c, 2, 71, 0
4, 415440, Note_on_c, 2, 74, 48
4, 415560, Note_off_c, 2, 74, 0
4, 415560, Note_on_c, 2, 71, 48
4, 415680, Note_off_c, 2, 71, 0
4, 415800, Note_on_c, 2, 67, 49
4, 415920, Note_off_c, 2, 67, 0
4, 416040, Note_on_c, 2, 72, 50
4, 416160, Note_off_c, 2, 72, 0
4, 416280, Note_on_c, 2, 70, 52
4, 416400, Note_off_c, 2, 70, 0
4, 416520, Note_on_c, 2, 73, 53
4, 416640, Note_off_c, 2, 73, 0
4, 416760, Note_on_c, 2, 69, 55
4, 416880, Note_off_c, 2, 69, 0
4, 417000, Note_on_c, 2, 73, 57
4, 417120, Note_off_c, 2, 73, 0
4, 417240, Note_on_c, 2, 69, 58
4, 417360, Note_off_c, 2, 69, 0
4, 417480, Note_on_c, 2, 74, 60
4, 417600, Note_off_c, 2, 74, 0
4, 417720, Note_on_c, 2, 67, 62
4, 417840, Note_off_c, 2, 67, 0
4, 417960, Note_on_c, 2, 72, 63
4, 418080, Note_off_c, 2, 72, 0
4, 418200, Note_on_c, 2, 65, 65
4, 418320, Note_off_c, 2, 65, 0
4, 418440, Note_on_c, 2, 71, 67
4, 418560, Note_off_c, 2, 71, 0
4, 418680, Note_on_c, 2, 64, 61
4, 418800, Note_off_c, 2, 64, 0
4, 418920, Note_on_c, 2, 67, 55
4, 419040, Note_off_c, 2, 67, 0
4, 419040, Note_on_c, 2, 65, 52
4, 419160, Note_off_c, 2, 65, 0
4, 419160, Note_on_c, 2, 64, 49
4, 419280, Note_off_c, 2, 64, 0
4, 419280, Note_on_c, 2, 62, 46
4, 419400, Note_off_c, 2, 62, 0
4, 419400, Note_on_c, 2, 60, 43
4, 419520, Note_off_c, 2, 60, 0
4, 419640, Note_on_c, 2, 50, 42
4, 419760, Note_off_c, 2, 50, 0
4, 419880, Note_on_c, 2, 53, 43
4, 420000, Note_off_c, 2, 53, 0
4, 420120, Note_on_c, 2, 52, 45
4, 420240, Note_off_c, 2, 52, 0
4, 420360, Note_on_c, 2, 55, 46
4, 420480, Note_off_c, 2, 55, 0
4, 420600, Note_on_c, 2, 52, 48
4, 420720, Note_off_c, 2, 52, 0
4, 420840, Note_on_c, 2, 55, 49
4, 420960, Note_off_c, 2, 55, 0
4, 421080, Note_on_c, 2, 53, 50
4, 421200, Note_off_c, 2, 53, 0
4, 421320, Note_on_c, 2, 57, 52
4, 421440, Note_off_c, 2, 57, 0
4, 421560, Note_on_c, 2, 54, 53
4, 421680, Note_off_c, 2, 54, 0
4, 421800, Note_on_c, 2, 57, 55
4, 421920, Note_off_c, 2, 57, 0
4, 422040, Note_on_c, 2, 55, 56
4, 422160, Note_off_c, 2, 55, 0
4, 422280, Note_on_c, 2, 59, 58
4, 422400, Note_off_c, 2, 59, 0
4, 422520, Note_on_c, 2, 55, 63
4, 422640, Note_off_c, 2, 55, 0
4, 422760, Note_on_c, 2, 59, 60
4, 422880, Note_off_c, 2, 59, 0
4, 422880, Note_on_c, 2, 65, 59
4, 423000, Note_off_c, 2, 65, 0
4, 423000, Note_on_c, 2, 59, 57
4, 423120, Note_off_c, 2, 59, 0
4, 423240, Note_on_c, 2, 59, 53
4, 423360, Note_off_c, 2, 59, 0
4, 423480, Note_on_c, 2, 55, 53
4, 423600, Note_off_c, 2, 55, 0
4, 423720, Note_on_c, 2, 59, 52
4, 423840, Note_off_c, 2, 59, 0
4, 423960, Note_on_c, 2, 55, 51
4, 424080, Note_off_c, 2, 55, 0
4, 424200, Note_on_c, 2, 60, 50
4, 424320, Note_off_c, 2, 60, 0
4, 424440, Note_on_c, 2, 55, 50
4, 424560, Note_off_c, 2, 55, 0
4, 424680, Note_on_c, 2, 60, 49
4, 424800, Note_off_c, 2, 60, 0
4, 424920, Note_on_c, 2, 57, 48
4, 425040, Note_off_c, 2, 57, 0
4, 425160, Note_on_c, 2, 60, 48
4, 425280, Note_off_c, 2, 60, 0
4, 425400, Note_on_c, 2, 55, 47
4, 425520, Note_off_c, 2, 55, 0
4, 425640, Note_on_c, 2, 60, 46
4, 425760, Note_off_c, 2, 60, 0
4, 425880, Note_on_c, 2, 53, 45
4, 426000, Note_off_c, 2, 53, 0
4, 426120, Note_on_c, 2, 59, 45
4, 426240, Note_off_c, 2, 59, 0
4, 427200, Note_on_c, 2, 64, 43
4, 427320, Note_off_c, 2, 64, 0
4, 427680, Note_on_c, 2, 65, 42
4, 427800, Note_off_c, 2, 65, 0
4, 428640, Note_on_c, 2, 65, 40
4, 428760, Note_off_c, 2, 65, 0
4, 429120, Note_on_c, 2, 64, 39
4, 429240, Note_off_c, 2, 64, 0
4, 429600, Note_on_c, 2, 62, 39
4, 429720, Note_off_c, 2, 62, 0
4, 430080, Note_on_c, 2, 59, 38
4, 430236, Note_off_c, 2, 59, 0
4, 431040, Note_on_c, 2, 67, 36
4, 431160, Note_off_c, 2, 67, 0
4, 431520, Note_on_c, 2, 67, 35
4, 431640, Note_off_c, 2, 67, 0
4, 432000, Note_on_c, 2, 67, 34
4, 432120, Note_off_c, 2, 67, 0
4, 432480, Note_on_c, 2, 64, 33
4, 432600, Note_off_c, 2, 64, 0
4, 432960, Note_on_c, 2, 64, 32
4, 433056, Note_off_c, 2, 64, 0
4, 433920, Note_on_c, 2, 50, 30
4, 433920, Note_on_c, 2, 45, 30
4, 433920, Note_on_c, 2, 53, 30
4, 434112, Note_off_c, 2, 53, 0
4, 434112, Note_off_c, 2, 45, 0
4, 434112, Note_off_c, 2, 50, 0
4, 434880, Note_on_c, 2, 60, 28
4, 434880, Note_on_c, 2, 64, 28
4, 435072, Note_off_c, 2, 64, 0
4, 435072, Note_off_c, 2, 60, 0
4, 435840, Note_on_c, 2, 50, 26
4, 435840, Note_on_c, 2, 47, 26
4, 436032, Note_off_c, 2, 47, 0
4, 436032, Note_off_c, 2, 50, 0
4, 436800, Note_on_c, 2, 48, 77
4, 436800, Note_on_c, 2, 43, 77
4, 436800, Note_on_c, 2, 40, 77
4, 437280, Note_off_c, 2, 40, 0
4, 437280, Note_off_c, 2, 43, 0
4, 437280, Note_off_c, 2, 48, 0
4, 438240, Control_c, 2, 64, 0
4, 438720, Control_c, 2, 7, 117
4, 438720, Pitch_bend_c, 2, 8192
4, 438720, Control_c, 2, 1, 0
4, 438720, Control_c, 2, 64, 0
4, 438720, Control_c, 2, 93, 28
4, 438720, Control_c, 2, 91, 91
4, 438720, Control_c, 2, 10, 64
4, 438720, Control_c, 2, 0, 0
4, 438720, Control_c, 2, 32, 0
4, 438720, Program_c, 2, 0
4, 441600, Note_on_c, 2, 59, 44
4, 442080, Note_off_c, 2, 59, 0
4, 442080, Note_on_c, 2, 60, 36
4, 442200, Note_off_c, 2, 60, 0
4, 442200, Note_on_c, 2, 58, 34
4, 442320, Note_off_c, 2, 58, 0
4, 442320, Note_on_c, 2, 59, 33
4, 442440, Note_off_c, 2, 59, 0
4, 444480, Note_on_c, 2, 71, 56
4, 444960, Note_off_c, 2, 71, 0
4, 444960, Note_on_c, 2, 69, 46
4, 445080, Note_off_c, 2, 69, 0
4, 445080, Note_on_c, 2, 66, 45
4, 445200, Note_off_c, 2, 66, 0
4, 445200, Note_on_c, 2, 67, 43
4, 445320, Note_off_c, 2, 67, 0
4, 446400, Note_on_c, 2, 57, 43
4, 446400, Note_on_c, 2, 60, 43
4, 446520, Note_off_c, 2, 60, 0
4, 446520, Note_off_c, 2, 57, 0
4, 446640, Note_on_c, 2, 72, 44
4, 446640, Note_on_c, 2, 69, 44
4, 446760, Note_off_c, 2, 69, 0
4, 446760, Note_off_c, 2, 72, 0
4, 447840, Note_on_c, 2, 60, 53
4, 447840, Note_on_c, 2, 57, 53
4, 447960, Note_off_c, 2, 57, 0
4, 447960, Note_off_c, 2, 60, 0
4, 448080, Note_on_c, 2, 69, 55
4, 448080, Note_on_c, 2, 72, 55
4, 448200, Note_off_c, 2, 72, 0
4, 448200, Note_off_c, 2, 69, 0
4, 450960, Note_on_c, 2, 62, 82
4, 452400, Note_off_c, 2, 62, 0
4, 454560, Note_on_c, 2, 71, 48
4, 455040, Note_off_c, 2, 71, 0
4, 455040, Note_on_c, 2, 72, 43
4, 455160, Note_off_c, 2, 72, 0
4, 455160, Note_on_c, 2, 70, 42
4, 455280, Note_off_c, 2, 70, 0
4, 455280, Note_on_c, 2, 71, 41
4, 455400, Note_off_c, 2, 71, 0
4, 461520, Note_on_c, 2, 69, 59
4, 461640, Note_off_c, 2, 69, 0
4, 461760, Note_on_c, 2, 67, 57
4, 461880, Note_off_c, 2, 67, 0
4, 468960, Note_on_c, 2, 69, 38
4, 469080, Note_off_c, 2, 69, 0
4, 469680, Note_on_c, 2, 57, 33
4, 469800, Note_off_c, 2, 57, 0
4, 472560, Note_on_c, 2, 59, 45
4, 473040, Note_off_c, 2, 59, 0
4, 473040, Note_on_c, 2, 60, 40
4, 473160, Note_off_c, 2, 60, 0
4, 473160, Note_on_c, 2, 58, 38
4, 473280, Note_off_c, 2, 58, 0
4, 473280, Note_on_c, 2, 59, 37
4, 473400, Note_off_c, 2, 59, 0
4, 475440, Note_on_c, 2, 71, 64
4, 475920, Note_off_c, 2, 71, 0
4, 475920, Note_on_c, 2, 69, 50
4, 476040, Note_off_c, 2, 69, 0
4, 476040, Note_on_c, 2, 66, 46
4, 476160, Note_off_c, 2, 66, 0
4, 476160, Note_on_c, 2, 67, 42
4, 476280, Note_off_c, 2, 67, 0
4, 477360, Note_on_c, 2, 60, 40
4, 477360, Note_on_c, 2, 57, 40
4, 477480, Note_off_c, 2, 57, 0
4, 477480, Note_off_c, 2, 60, 0
4, 477600, Note_on_c, 2, 69, 41
4, 477600, Note_on_c, 2, 72, 41
4, 477720, Note_off_c, 2, 72, 0
4, 477720, Note_off_c, 2, 69, 0
4, 478800, Note_on_c, 2, 57, 47
4, 478800, Note_on_c, 2, 60, 47
4, 478920, Note_off_c, 2, 60, 0
4, 478920, Note_off_c, 2, 57, 0
4, 479040, Note_on_c, 2, 72, 49
4, 479040, Note_on_c, 2, 69, 49
4, 479160, Note_off_c, 2, 69, 0
4, 479160, Note_off_c, 2, 72, 0
4, 481920, Note_on_c, 2, 62, 79
4, 483360, Note_off_c, 2, 62, 0
4, 485520, Note_on_c, 2, 71, 45
4, 486000, Note_off_c, 2, 71, 0
4, 486000, Note_on_c, 2, 72, 42
4, 486120, Note_off_c, 2, 72, 0
4, 486120, Note_on_c, 2, 70, 41
4, 486240, Note_off_c, 2, 70, 0
4, 486240, Note_on_c, 2, 71, 40
4, 486360, Note_off_c, 2, 71, 0
4, 494280, Note_on_c, 2, 55, 49
4, 494400, Note_off_c, 2, 55, 0
4, 494400, Note_on_c, 2, 60, 49
4, 494520, Note_off_c, 2, 60, 0
4, 494520, Note_on_c, 2, 55, 50
4, 494640, Note_off_c, 2, 55, 0
4, 494760, Note_on_c, 2, 55, 51
4, 494880, Note_off_c, 2, 55, 0
4, 495000, Note_on_c, 2, 57, 52
4, 495120, Note_off_c, 2, 57, 0
4, 495120, Note_on_c, 2, 60, 53
4, 495240, Note_off_c, 2, 60, 0
4, 495240, Note_on_c, 2, 57, 53
4, 495360, Note_off_c, 2, 57, 0
4, 495480, Note_on_c, 2, 57, 55
4, 495600, Note_off_c, 2, 57, 0
4, 495720, Note_on_c, 2, 53, 56
4, 495840, Note_off_c, 2, 53, 0
4, 495840, Note_on_c, 2, 59, 57
4, 495960, Note_off_c, 2, 59, 0
4, 495960, Note_on_c, 2, 53, 57
4, 496080, Note_off_c, 2, 53, 0
4, 496200, Note_on_c, 2, 53, 59
4, 496320, Note_off_c, 2, 53, 0
4, 496440, Note_on_c, 2, 52, 59
4, 496560, Note_off_c, 2, 52, 0
4, 496560, Note_on_c, 2, 60, 58
4, 496680, Note_off_c, 2, 60, 0
4, 496680, Note_on_c, 2, 52, 58
4, 496800, Note_off_c, 2, 52, 0
4, 496920, Note_on_c, 2, 52, 57
4, 497040, Note_off_c, 2, 52, 0
4, 497160, Note_on_c, 2, 52, 55
4, 497280, Note_off_c, 2, 52, 0
4, 497280, Note_on_c, 2, 55, 55
4, 497400, Note_off_c, 2, 55, 0
4, 497400, Note_on_c, 2, 52, 54
4, 497520, Note_off_c, 2, 52, 0
4, 497640, Note_on_c, 2, 52, 53
4, 497760, Note_off_c, 2, 52, 0
4, 497880, Note_on_c, 2, 50, 52
4, 498000, Note_off_c, 2, 50, 0
4, 498000, Note_on_c, 2, 53, 52
4, 498120, Note_off_c, 2, 53, 0
4, 498120, Note_on_c, 2, 50, 51
4, 498240, Note_off_c, 2, 50, 0
4, 498360, Note_on_c, 2, 50, 50
4, 498480, Note_off_c, 2, 50, 0
4, 498600, Note_on_c, 2, 50, 49
4, 498720, Note_off_c, 2, 50, 0
4, 498720, Note_on_c, 2, 53, 48
4, 498840, Note_off_c, 2, 53, 0
4, 498840, Note_on_c, 2, 50, 48
4, 498960, Note_off_c, 2, 50, 0
4, 499080, Note_on_c, 2, 50, 47
4, 499200, Note_off_c, 2, 50, 0
4, 499320, Note_on_c, 2, 52, 45
4, 499440, Note_off_c, 2, 52, 0
4, 499440, Note_on_c, 2, 55, 45
4, 499560, Note_off_c, 2, 55, 0
4, 499560, Note_on_c, 2, 53, 44
4, 499680, Note_off_c, 2, 53, 0
4, 499680, Note_on_c, 2, 52, 44
4, 499800, Note_off_c, 2, 52, 0
4, 499800, Note_on_c, 2, 50, 43
4, 499920, Note_off_c, 2, 50, 0
4, 500040, Note_on_c, 2, 55, 40
4, 500160, Note_off_c, 2, 55, 0
4, 500160, Note_on_c, 2, 60, 40
4, 500280, Note_off_c, 2, 60, 0
4, 500280, Note_on_c, 2, 55, 41
4, 500400, Note_off_c, 2, 55, 0
4, 500520, Note_on_c, 2, 55, 42
4, 500640, Note_off_c, 2, 55, 0
4, 500760, Note_on_c, 2, 57, 43
4, 500880, Note_off_c, 2, 57, 0
4, 500880, Note_on_c, 2, 60, 44
4, 501000, Note_off_c, 2, 60, 0
4, 501000, Note_on_c, 2, 57, 44
4, 501120, Note_off_c, 2, 57, 0
4, 501240, Note_on_c, 2, 57, 45
4, 501360, Note_off_c, 2, 57, 0
4, 501480, Note_on_c, 2, 53, 47
4, 501600, Note_off_c, 2, 53, 0
4, 501600, Note_on_c, 2, 59, 47
4, 501720, Note_off_c, 2, 59, 0
4, 501720, Note_on_c, 2, 53, 48
4, 501840, Note_off_c, 2, 53, 0
4, 501960, Note_on_c, 2, 53, 49
4, 502080, Note_off_c, 2, 53, 0
4, 502200, Note_on_c, 2, 52, 49
4, 502320, Note_off_c, 2, 52, 0
4, 502320, Note_on_c, 2, 60, 49
4, 502440, Note_off_c, 2, 60, 0
4, 502440, Note_on_c, 2, 52, 48
4, 502560, Note_off_c, 2, 52, 0
4, 502680, Note_on_c, 2, 52, 48
4, 502800, Note_off_c, 2, 52, 0
4, 502920, Note_on_c, 2, 52, 47
4, 503040, Note_off_c, 2, 52, 0
4, 503040, Note_on_c, 2, 55, 47
4, 503160, Note_off_c, 2, 55, 0
4, 503160, Note_on_c, 2, 52, 47
4, 503280, Note_off_c, 2, 52, 0
4, 503400, Note_on_c, 2, 52, 46
4, 503520, Note_off_c, 2, 52, 0
4, 503640, Note_on_c, 2, 50, 46
4, 503760, Note_off_c, 2, 50, 0
4, 503760, Note_on_c, 2, 53, 45
4, 503880, Note_off_c, 2, 53, 0
4, 503880, Note_on_c, 2, 50, 45
4, 504000, Note_off_c, 2, 50, 0
4, 504120, Note_on_c, 2, 50, 45
4, 504240, Note_off_c, 2, 50, 0
4, 504360, Note_on_c, 2, 50, 44
4, 504480, Note_off_c, 2, 50, 0
4, 504480, Note_on_c, 2, 53, 44
4, 504600, Note_off_c, 2, 53, 0
4, 504600, Note_on_c, 2, 50, 43
4, 504720, Note_off_c, 2, 50, 0
4, 504840, Note_on_c, 2, 50, 43
4, 504960, Note_off_c, 2, 50, 0
4, 505080, Note_on_c, 2, 52, 42
4, 505200, Note_off_c, 2, 52, 0
4, 505200, Note_on_c, 2, 55, 42
4, 505320, Note_off_c, 2, 55, 0
4, 505320, Note_on_c, 2, 53, 42
4, 505440, Note_off_c, 2, 53, 0
4, 505440, Note_on_c, 2, 52, 42
4, 505560, Note_off_c, 2, 52, 0
4, 505560, Note_on_c, 2, 50, 41
4, 505680, Note_off_c, 2, 50, 0
4, 520200, Note_on_c, 2, 55, 42
4, 520320, Note_off_c, 2, 55, 0
4, 520320, Note_on_c, 2, 60, 43
4, 520440, Note_off_c, 2, 60, 0
4, 520440, Note_on_c, 2, 55, 44
4, 520560, Note_off_c, 2, 55, 0
4, 520680, Note_on_c, 2, 55, 45
4, 520800, Note_off_c, 2, 55, 0
4, 520920, Note_on_c, 2, 57, 47
4, 521040, Note_off_c, 2, 57, 0
4, 521040, Note_on_c, 2, 60, 48
4, 521160, Note_off_c, 2, 60, 0
4, 521160, Note_on_c, 2, 57, 49
4, 521280, Note_off_c, 2, 57, 0
4, 521400, Note_on_c, 2, 57, 50
4, 521520, Note_off_c, 2, 57, 0
4, 521640, Note_on_c, 2, 53, 52
4, 521760, Note_off_c, 2, 53, 0
4, 521760, Note_on_c, 2, 59, 52
4, 521880, Note_off_c, 2, 59, 0
4, 521880, Note_on_c, 2, 53, 53
4, 522000, Note_off_c, 2, 53, 0
4, 522120, Note_on_c, 2, 53, 55
4, 522240, Note_off_c, 2, 53, 0
4, 522360, Note_on_c, 2, 52, 55
4, 522480, Note_off_c, 2, 52, 0
4, 522480, Note_on_c, 2, 60, 55
4, 522600, Note_off_c, 2, 60, 0
4, 522600, Note_on_c, 2, 52, 55
4, 522720, Note_off_c, 2, 52, 0
4, 522840, Note_on_c, 2, 52, 54
4, 522960, Note_off_c, 2, 52, 0
4, 523080, Note_on_c, 2, 52, 54
4, 523200, Note_off_c, 2, 52, 0
4, 523200, Note_on_c, 2, 55, 54
4, 523320, Note_off_c, 2, 55, 0
4, 523320, Note_on_c, 2, 52, 53
4, 523440, Note_off_c, 2, 52, 0
4, 523560, Note_on_c, 2, 52, 53
4, 523680, Note_off_c, 2, 52, 0
4, 523800, Note_on_c, 2, 50, 52
4, 523920, Note_off_c, 2, 50, 0
4, 523920, Note_on_c, 2, 53, 52
4, 524040, Note_off_c, 2, 53, 0
4, 524040, Note_on_c, 2, 50, 52
4, 524160, Note_off_c, 2, 50, 0
4, 524280, Note_on_c, 2, 50, 51
4, 524400, Note_off_c, 2, 50, 0
4, 524520, Note_on_c, 2, 50, 51
4, 524640, Note_off_c, 2, 50, 0
4, 524640, Note_on_c, 2, 53, 51
4, 524760, Note_off_c, 2, 53, 0
4, 524760, Note_on_c, 2, 50, 50
4, 524880, Note_off_c, 2, 50, 0
4, 525000, Note_on_c, 2, 50, 50
4, 525120, Note_off_c, 2, 50, 0
4, 525240, Note_on_c, 2, 52, 49
4, 525360, Note_off_c, 2, 52, 0
4, 525360, Note_on_c, 2, 55, 49
4, 525480, Note_off_c, 2, 55, 0
4, 525480, Note_on_c, 2, 52, 49
4, 525600, Note_off_c, 2, 52, 0
4, 525600, Note_on_c, 2, 55, 49
4, 525720, Note_off_c, 2, 55, 0
4, 525720, Note_on_c, 2, 52, 48
4, 525840, Note_off_c, 2, 52, 0
4, 525960, Note_on_c, 2, 52, 48
4, 526080, Note_off_c, 2, 52, 0
4, 526080, Note_on_c, 2, 55, 48
4, 526200, Note_off_c, 2, 55, 0
4, 526200, Note_on_c, 2, 52, 47
4, 526320, Note_off_c, 2, 52, 0
4, 526440, Note_on_c, 2, 52, 47
4, 526560, Note_off_c, 2, 52, 0
4, 526680, Note_on_c, 2, 50, 46
4, 526800, Note_off_c, 2, 50, 0
4, 526800, Note_on_c, 2, 53, 46
4, 526920, Note_off_c, 2, 53, 0
4, 526920, Note_on_c, 2, 50, 46
4, 527040, Note_off_c, 2, 50, 0
4, 527160, Note_on_c, 2, 50, 45
4, 527280, Note_off_c, 2, 50, 0
4, 527400, Note_on_c, 2, 50, 45
4, 527520, Note_off_c, 2, 50, 0
4, 527520, Note_on_c, 2, 53, 45
4, 527640, Note_off_c, 2, 53, 0
4, 527640, Note_on_c, 2, 50, 44
4, 527760, Note_off_c, 2, 50, 0
4, 527880, Note_on_c, 2, 50, 44
4, 528000, Note_off_c, 2, 50, 0
4, 528120, Note_on_c, 2, 52, 43
4, 528240, Note_off_c, 2, 52, 0
4, 528240, Note_on_c, 2, 55, 43
4, 528360, Note_off_c, 2, 55, 0
4, 528360, Note_on_c, 2, 53, 43
4, 528480, Note_off_c, 2, 53, 0
4, 528480, Note_on_c, 2, 52, 43
4, 528600, Note_off_c, 2, 52, 0
4, 528600, Note_on_c, 2, 50, 42
4, 528720, Note_off_c, 2, 50, 0
4, 528840, Note_on_c, 2, 50, 42
4, 528960, Note_off_c, 2, 50, 0
4, 528960, Note_on_c, 2, 53, 42
4, 529080, Note_off_c, 2, 53, 0
4, 529080, Note_on_c, 2, 50, 41
4, 529200, Note_off_c, 2, 50, 0
4, 529320, Note_on_c, 2, 50, 41
4, 529440, Note_off_c, 2, 50, 0
4, 529560, Note_on_c, 2, 52, 40
4, 529680, Note_off_c, 2, 52, 0
4, 529680, Note_on_c, 2, 55, 40
4, 529800, Note_off_c, 2, 55, 0
4, 529800, Note_on_c, 2, 53, 40
4, 529920, Note_off_c, 2, 53, 0
4, 529920, Note_on_c, 2, 52, 40
4, 530040, Note_off_c, 2, 52, 0
4, 530040, Note_on_c, 2, 50, 39
4, 530160, Note_off_c, 2, 50, 0
4, 530280, Note_on_c, 2, 50, 39
4, 530400, Note_off_c, 2, 50, 0
4, 530400, Note_on_c, 2, 53, 39
4, 530520, Note_off_c, 2, 53, 0
4, 530520, Note_on_c, 2, 50, 39
4, 530640, Note_off_c, 2, 50, 0
4, 530760, Note_on_c, 2, 50, 38
4, 530880, Note_off_c, 2, 50, 0
4, 530880, Note_on_c, 2, 52, 38
4, 531120, Note_off_c, 2, 52, 0
4, 541680, Note_on_c, 2, 59, 49
4, 542160, Note_off_c, 2, 59, 0
4, 542160, Note_on_c, 2, 60, 45
4, 542280, Note_off_c, 2, 60, 0
4, 542280, Note_on_c, 2, 58, 44
4, 542400, Note_off_c, 2, 58, 0
4, 542400, Note_on_c, 2, 59, 42
4, 542520, Note_off_c, 2, 59, 0
4, 544560, Note_on_c, 2, 71, 56
4, 545040, Note_off_c, 2, 71, 0
4, 545040, Note_on_c, 2, 69, 49
4, 545160, Note_off_c, 2, 69, 0
4, 545160, Note_on_c, 2, 66, 48
4, 545280, Note_off_c, 2, 66, 0
4, 545280, Note_on_c, 2, 67, 46
4, 545400, Note_off_c, 2, 67, 0
4, 546480, Note_on_c, 2, 60, 44
4, 546480, Note_on_c, 2, 57, 44
4, 546600, Note_off_c, 2, 57, 0
4, 546600, Note_off_c, 2, 60, 0
4, 546720, Note_on_c, 2, 69, 45
4, 546720, Note_on_c, 2, 72, 45
4, 546840, Note_off_c, 2, 72, 0
4, 546840, Note_off_c, 2, 69, 0
4, 547920, Note_on_c, 2, 57, 52
4, 547920, Note_on_c, 2, 60, 52
4, 548040, Note_off_c, 2, 60, 0
4, 548040, Note_off_c, 2, 57, 0
4, 548160, Note_on_c, 2, 72, 53
4, 548160, Note_on_c, 2, 69, 53
4, 548280, Note_off_c, 2, 69, 0
4, 548280, Note_off_c, 2, 72, 0
4, 551040, Note_on_c, 2, 62, 74
4, 552480, Note_off_c, 2, 62, 0
4, 554640, Note_on_c, 2, 71, 53
4, 555120, Note_off_c, 2, 71, 0
4, 555120, Note_on_c, 2, 72, 50
4, 555240, Note_off_c, 2, 72, 0
4, 555240, Note_on_c, 2, 70, 49
4, 555360, Note_off_c, 2, 70, 0
4, 555360, Note_on_c, 2, 71, 48
4, 555480, Note_off_c, 2, 71, 0
4, 569040, Note_on_c, 2, 69, 41
4, 569520, Note_off_c, 2, 69, 0
4, 569520, Note_on_c, 2, 70, 36
4, 569640, Note_off_c, 2, 70, 0
4, 569640, Note_on_c, 2, 68, 34
4, 569760, Note_off_c, 2, 68, 0
4, 569760, Note_on_c, 2, 69, 33
4, 569880, Note_off_c, 2, 69, 0
4, 571920, Note_on_c, 2, 69, 42
4, 572400, Note_off_c, 2, 69, 0
4, 572400, Note_on_c, 2, 70, 46
4, 572520, Note_off_c, 2, 70, 0
4, 572520, Note_on_c, 2, 68, 47
4, 572640, Note_off_c, 2, 68, 0
4, 572640, Note_on_c, 2, 69, 48
4, 573120, Note_off_c, 2, 69, 0
4, 573120, Note_on_c, 2, 70, 51
4, 573240, Note_off_c, 2, 70, 0
4, 573240, Note_on_c, 2, 68, 52
4, 573360, Note_off_c, 2, 68, 0
4, 573360, Note_on_c, 2, 69, 53
4, 573840, Note_off_c, 2, 69, 0
4, 573840, Note_on_c, 2, 70, 57
4, 573960, Note_off_c, 2, 70, 0
4, 573960, Note_on_c, 2, 68, 58
4, 574080, Note_off_c, 2, 68, 0
4, 574080, Note_on_c, 2, 69, 59
4, 574200, Note_off_c, 2, 69, 0
4, 574320, Note_on_c, 2, 69, 60
4, 574440, Note_off_c, 2, 69, 0
4, 574560, Note_on_c, 2, 69, 62
4, 574680, Note_off_c, 2, 69, 0
4, 574800, Note_on_c, 2, 71, 51
4, 575040, Note_off_c, 2, 71, 0
4, 575520, Note_on_c, 2, 61, 46
4, 575760, Note_off_c, 2, 61, 0
4, 576240, Note_on_c, 2, 62, 42
4, 576480, Note_off_c, 2, 62, 0
4, 576960, Note_on_c, 2, 50, 37
4, 577200, Note_off_c, 2, 50, 0
4, 577680, Note_on_c, 2, 43, 33
4, 577920, Note_off_c, 2, 43, 0
4, 590160, Note_on_c, 2, 67, 84
4, 590280, Note_off_c, 2, 67, 0
4, 590400, Note_on_c, 2, 67, 86
4, 590520, Note_off_c, 2, 67, 0
4, 590640, Note_on_c, 2, 67, 88
4, 590760, Note_off_c, 2, 67, 0
4, 590880, Note_on_c, 2, 67, 90
4, 591000, Note_off_c, 2, 67, 0
4, 591120, Note_on_c, 2, 67, 92
4, 591240, Note_off_c, 2, 67, 0
4, 591360, Note_on_c, 2, 67, 94
4, 591480, Note_off_c, 2, 67, 0
4, 591600, Note_on_c, 2, 67, 96
4, 591720, Note_off_c, 2, 67, 0
4, 591840, Note_on_c, 2, 67, 99
4, 591960, Note_off_c, 2, 67, 0
4, 592080, Note_on_c, 2, 67, 60
4, 592200, Note_off_c, 2, 67, 0
4, 592800, Note_on_c, 2, 69, 55
4, 592800, Note_on_c, 2, 67, 55
4, 592920, Note_off_c, 2, 67, 0
4, 592920, Note_off_c, 2, 69, 0
4, 593520, Note_on_c, 2, 71, 50
4, 593520, Note_on_c, 2, 67, 50
4, 593640, Note_off_c, 2, 67, 0
4, 593640, Note_off_c, 2, 71, 0
4, 594960, Control_c, 2, 64, 0
4, 595000, Control_c, 2, 64, 127
4, 595040, Note_on_c, 2, 59, 43
4, 595120, Note_off_c, 2, 59, 0
4, 595120, Note_on_c, 2, 62, 43
4, 595200, Note_off_c, 2, 62, 0
4, 595280, Note_on_c, 2, 59, 43
4, 595360, Note_off_c, 2, 59, 0
4, 595360, Note_on_c, 2, 62, 43
4, 595440, Note_off_c, 2, 62, 0
4, 595520, Note_on_c, 2, 59, 44
4, 595600, Note_off_c, 2, 59, 0
4, 595600, Note_on_c, 2, 62, 44
4, 595680, Note_off_c, 2, 62, 0
4, 595760, Note_on_c, 2, 59, 44
4, 595840, Note_off_c, 2, 59, 0
4, 595840, Note_on_c, 2, 62, 45
4, 595920, Note_off_c, 2, 62, 0
4, 596000, Note_on_c, 2, 59, 45
4, 596080, Note_off_c, 2, 59, 0
4, 596080, Note_on_c, 2, 62, 45
4, 596160, Note_off_c, 2, 62, 0
4, 596240, Note_on_c, 2, 59, 46
4, 596320, Note_off_c, 2, 59, 0
4, 596320, Note_on_c, 2, 62, 46
4, 596400, Control_c, 2, 64, 0
4, 596400, Note_off_c, 2, 62, 0
4, 596440, Control_c, 2, 64, 127
4, 596480, Note_on_c, 2, 60, 46
4, 596560, Note_off_c, 2, 60, 0
4, 596560, Note_on_c, 2, 62, 47
4, 596640, Note_off_c, 2, 62, 0
4, 596720, Note_on_c, 2, 60, 47
4, 596800, Note_off_c, 2, 60, 0
4, 596800, Note_on_c, 2, 62, 47
4, 596880, Note_off_c, 2, 62, 0
4, 596960, Note_on_c, 2, 60, 48
4, 597040, Note_off_c, 2, 60, 0
4, 597040, Note_on_c, 2, 62, 48
4, 597120, Note_off_c, 2, 62, 0
4, 597200, Note_on_c, 2, 60, 48
4, 597280, Note_off_c, 2, 60, 0
4, 597280, Note_on_c, 2, 62, 49
4, 597360, Note_off_c, 2, 62, 0
4, 597440, Note_on_c, 2, 60, 49
4, 597520, Note_off_c, 2, 60, 0
4, 597520, Note_on_c, 2, 62, 49
4, 597600, Note_off_c, 2, 62, 0
4, 597680, Note_on_c, 2, 60, 50
4, 597760, Note_off_c, 2, 60, 0
4, 597760, Note_on_c, 2, 62, 50
4, 597840, Control_c, 2, 64, 0
4, 597840, Note_off_c, 2, 62, 0
4, 597880, Control_c, 2, 64, 127
4, 597920, Note_on_c, 2, 59, 50
4, 598000, Note_off_c, 2, 59, 0
4, 598000, Note_on_c, 2, 62, 50
4, 598080, Note_off_c, 2, 62, 0
4, 598160, Note_on_c, 2, 59, 51
4, 598240, Note_off_c, 2, 59, 0
4, 598240, Note_on_c, 2, 62, 51
4, 598320, Note_off_c, 2, 62, 0
4, 598400, Note_on_c, 2, 59, 51
4, 598480, Note_off_c, 2, 59, 0
4, 598480, Note_on_c, 2, 62, 52
4, 598560, Note_off_c, 2, 62, 0
4, 598640, Note_on_c, 2, 59, 52
4, 598720, Note_off_c, 2, 59, 0
4, 598720, Note_on_c, 2, 62, 52
4, 598800, Note_off_c, 2, 62, 0
4, 598880, Note_on_c, 2, 59, 53
4, 598960, Note_off_c, 2, 59, 0
4, 598960, Note_on_c, 2, 62, 53
4, 599040, Note_off_c, 2, 62, 0
4, 599120, Note_on_c, 2, 59, 53
4, 599200, Note_off_c, 2, 59, 0
4, 599200, Note_on_c, 2, 62, 54
4, 599280, Control_c, 2, 64, 0
4, 599280, Note_off_c, 2, 62, 0
4, 599320, Control_c, 2, 64, 127
4, 599360, Note_on_c, 2, 60, 54
4, 599440, Note_off_c, 2, 60, 0
4, 599440, Note_on_c, 2, 62, 54
4, 599520, Note_off_c, 2, 62, 0
4, 599600, Note_on_c, 2, 60, 55
4, 599680, Note_off_c, 2, 60, 0
4, 599680, Note_on_c, 2, 62, 55
4, 599760, Note_off_c, 2, 62, 0
4, 599840, Note_on_c, 2, 60, 55
4, 599920, Note_off_c, 2, 60, 0
4, 599920, Note_on_c, 2, 62, 56
4, 600000, Note_off_c, 2, 62, 0
4, 600080, Note_on_c, 2, 60, 56
4, 600160, Note_off_c, 2, 60, 0
4, 600160, Note_on_c, 2, 62, 56
4, 600240, Note_off_c, 2, 62, 0
4, 600320, Note_on_c, 2, 60, 57
4, 600400, Note_off_c, 2, 60, 0
4, 600400, Note_on_c, 2, 62, 57
4, 600480, Note_off_c, 2, 62, 0
4, 600560, Note_on_c, 2, 60, 57
4, 600640, Note_off_c, 2, 60, 0
4, 600640, Note_on_c, 2, 62, 57
4, 600720, Control_c, 2, 64, 0
4, 600720, Note_off_c, 2, 62, 0
4, 600760, Control_c, 2, 64, 127
4, 600800, Note_on_c, 2, 59, 58
4, 600880, Note_off_c, 2, 59, 0
4, 600880, Note_on_c, 2, 62, 58
4, 600960, Note_off_c, 2, 62, 0
4, 601040, Note_on_c, 2, 59, 59
4, 601120, Note_off_c, 2, 59, 0
4, 601120, Note_on_c, 2, 62, 59
4, 601200, Note_off_c, 2, 62, 0
4, 601280, Note_on_c, 2, 59, 59
4, 601360, Note_off_c, 2, 59, 0
4, 601360, Note_on_c, 2, 62, 59
4, 601440, Control_c, 2, 64, 0
4, 601440, Note_off_c, 2, 62, 0
4, 601480, Control_c, 2, 64, 127
4, 601520, Note_on_c, 2, 60, 60
4, 601600, Note_off_c, 2, 60, 0
4, 601600, Note_on_c, 2, 62, 60
4, 601680, Note_off_c, 2, 62, 0
4, 601760, Note_on_c, 2, 60, 60
4, 601840, Note_off_c, 2, 60, 0
4, 601840, Note_on_c, 2, 62, 61
4, 601920, Note_off_c, 2, 62, 0
4, 602000, Note_on_c, 2, 60, 61
4, 602080, Note_off_c, 2, 60, 0
4, 602080, Note_on_c, 2, 62, 61
4, 602160, Control_c, 2, 64, 0
4, 602160, Note_off_c, 2, 62, 0
4, 602200, Control_c, 2, 64, 127
4, 602240, Note_on_c, 2, 59, 62
4, 602320, Note_off_c, 2, 59, 0
4, 602320, Note_on_c, 2, 62, 62
4, 602400, Note_off_c, 2, 62, 0
4, 602480, Note_on_c, 2, 59, 62
4, 602560, Note_off_c, 2, 59, 0
4, 602560, Note_on_c, 2, 62, 63
4, 602640, Note_off_c, 2, 62, 0
4, 602720, Note_on_c, 2, 59, 63
4, 602800, Note_off_c, 2, 59, 0
4, 602800, Note_on_c, 2, 62, 63
4, 602880, Control_c, 2, 64, 0
4, 602880, Note_off_c, 2, 62, 0
4, 602920, Control_c, 2, 64, 127
4, 602960, Note_on_c, 2, 60, 64
4, 603040, Note_off_c, 2, 60, 0
4, 603040, Note_on_c, 2, 62, 64
4, 603120, Note_off_c, 2, 62, 0
4, 603200, Note_on_c, 2, 60, 64
4, 603280, Note_off_c, 2, 60, 0
4, 603280, Note_on_c, 2, 62, 64
4, 603360, Note_off_c, 2, 62, 0
4, 603440, Note_on_c, 2, 60, 65
4, 603520, Note_off_c, 2, 60, 0
4, 603520, Note_on_c, 2, 62, 65
4, 603600, Control_c, 2, 64, 0
4, 603600, Note_off_c, 2, 62, 0
4, 604080, Note_on_c, 2, 43, 51
4, 604200, Note_off_c, 2, 43, 0
4, 604320, Note_on_c, 2, 45, 53
4, 604440, Note_off_c, 2, 45, 0
4, 604560, Note_on_c, 2, 47, 55
4, 604680, Note_off_c, 2, 47, 0
4, 604800, Note_on_c, 2, 48, 57
4, 604920, Note_off_c, 2, 48, 0
4, 605040, Note_on_c, 2, 50, 59
4, 605160, Note_off_c, 2, 50, 0
4, 605280, Note_on_c, 2, 52, 61
4, 605400, Note_off_c, 2, 52, 0
4, 605520, Note_on_c, 2, 54, 63
4, 605640, Note_off_c, 2, 54, 0
4, 605760, Note_on_c, 2, 55, 65
4, 605880, Note_off_c, 2, 55, 0
4, 607440, Note_on_c, 2, 55, 80
4, 607560, Note_off_c, 2, 55, 0
4, 607680, Note_on_c, 2, 55, 82
4, 607800, Note_off_c, 2, 55, 0
4, 607920, Note_on_c, 2, 55, 84
4, 608040, Note_off_c, 2, 55, 0
4, 608160, Note_on_c, 2, 55, 86
4, 608280, Note_off_c, 2, 55, 0
4, 608400, Note_on_c, 2, 55, 88
4, 608520, Note_off_c, 2, 55, 0
4, 608640, Note_on_c, 2, 55, 91
4, 608760, Note_off_c, 2, 55, 0
4, 608880, Note_on_c, 2, 55, 93
4, 609000, Note_off_c, 2, 55, 0
4, 609120, Note_on_c, 2, 55, 95
4, 609240, Note_off_c, 2, 55, 0
4, 609360, Note_on_c, 2, 55, 61
4, 609480, Note_off_c, 2, 55, 0
4, 610080, Note_on_c, 2, 57, 58
4, 610080, Note_on_c, 2, 55, 58
4, 610200, Note_off_c, 2, 55, 0
4, 610200, Note_off_c, 2, 57, 0
4, 610800, Note_on_c, 2, 55, 54
4, 610800, Note_on_c, 2, 59, 54
4, 610920, Note_off_c, 2, 59, 0
4, 610920, Note_off_c, 2, 55, 0
4, 611520, Note_on_c, 2, 57, 51
4, 611520, Note_on_c, 2, 60, 51
4, 611640, Note_off_c, 2, 60, 0
4, 611640, Note_off_c, 2, 57, 0
4, 612320, Note_on_c, 2, 50, 49
4, 612400, Note_on_c, 2, 55, 49
4, 612512, Note_off_c, 2, 50, 0
4, 612560, Note_on_c, 2, 50, 49
4, 612592, Note_off_c, 2, 55, 0
4, 612640, Note_on_c, 2, 55, 49
4, 612752, Note_off_c, 2, 50, 0
4, 612800, Note_on_c, 2, 50, 49
4, 612832, Note_off_c, 2, 55, 0
4, 612880, Note_on_c, 2, 55, 49
4, 612992, Note_off_c, 2, 50, 0
4, 613040, Note_on_c, 2, 50, 48
4, 613072, Note_off_c, 2, 55, 0
4, 613120, Note_on_c, 2, 55, 48
4, 613232, Note_off_c, 2, 50, 0
4, 613280, Note_on_c, 2, 50, 48
4, 613312, Note_off_c, 2, 55, 0
4, 613360, Note_on_c, 2, 55, 48
4, 613472, Note_off_c, 2, 50, 0
4, 613520, Note_on_c, 2, 50, 48
4, 613552, Note_off_c, 2, 55, 0
4, 613600, Note_on_c, 2, 55, 48
4, 613712, Note_off_c, 2, 50, 0
4, 613760, Note_on_c, 2, 50, 47
4, 613792, Note_off_c, 2, 55, 0
4, 613840, Note_on_c, 2, 55, 47
4, 613952, Note_off_c, 2, 50, 0
4, 614000, Note_on_c, 2, 50, 47
4, 614032, Note_off_c, 2, 55, 0
4, 614080, Note_on_c, 2, 55, 47
4, 614192, Note_off_c, 2, 50, 0
4, 614240, Note_on_c, 2, 50, 47
4, 614272, Note_off_c, 2, 55, 0
4, 614320, Note_on_c, 2, 55, 47
4, 614432, Note_off_c, 2, 50, 0
4, 614480, Note_on_c, 2, 50, 46
4, 614512, Note_off_c, 2, 55, 0
4, 614560, Note_on_c, 2, 55, 46
4, 614672, Note_off_c, 2, 50, 0
4, 614720, Note_on_c, 2, 50, 46
4, 614752, Note_off_c, 2, 55, 0
4, 614800, Note_on_c, 2, 55, 46
4, 614912, Note_off_c, 2, 50, 0
4, 614960, Note_on_c, 2, 50, 46
4, 614992, Note_off_c, 2, 55, 0
4, 615040, Note_on_c, 2, 55, 46
4, 615152, Note_off_c, 2, 50, 0
4, 615200, Note_on_c, 2, 50, 45
4, 615232, Note_off_c, 2, 55, 0
4, 615280, Note_on_c, 2, 55, 45
4, 615392, Note_off_c, 2, 50, 0
4, 615440, Note_on_c, 2, 50, 45
4, 615472, Note_off_c, 2, 55, 0
4, 615520, Note_on_c, 2, 55, 45
4, 615632, Note_off_c, 2, 50, 0
4, 615680, Note_on_c, 2, 50, 45
4, 615712, Note_off_c, 2, 55, 0
4, 615760, Note_on_c, 2, 55, 45
4, 615872, Note_off_c, 2, 50, 0
4, 615920, Note_on_c, 2, 50, 44
4, 615952, Note_off_c, 2, 55, 0
4, 616000, Note_on_c, 2, 55, 44
4, 616112, Note_off_c, 2, 50, 0
4, 616160, Note_on_c, 2, 50, 44
4, 616192, Note_off_c, 2, 55, 0
4, 616240, Note_on_c, 2, 55, 44
4, 616352, Note_off_c, 2, 50, 0
4, 616400, Note_on_c, 2, 50, 44
4, 616432, Note_off_c, 2, 55, 0
4, 616480, Note_on_c, 2, 55, 44
4, 616592, Note_off_c, 2, 50, 0
4, 616640, Note_on_c, 2, 50, 43
4, 616672, Note_off_c, 2, 55, 0
4, 616720, Note_on_c, 2, 55, 43
4, 616832, Note_off_c, 2, 50, 0
4, 616880, Note_on_c, 2, 50, 43
4, 616912, Note_off_c, 2, 55, 0
4, 616960, Note_on_c, 2, 55, 43
4, 617072, Note_off_c, 2, 50, 0
4, 617120, Note_on_c, 2, 50, 43
4, 617152, Note_off_c, 2, 55, 0
4, 617200, Note_on_c, 2, 55, 43
4, 617312, Note_off_c, 2, 50, 0
4, 617360, Note_on_c, 2, 50, 42
4, 617392, Note_off_c, 2, 55, 0
4, 617440, Note_on_c, 2, 55, 42
4, 617552, Note_off_c, 2, 50, 0
4, 617600, Note_on_c, 2, 50, 42
4, 617632, Note_off_c, 2, 55, 0
4, 617680, Note_on_c, 2, 55, 42
4, 617792, Note_off_c, 2, 50, 0
4, 617840, Note_on_c, 2, 50, 42
4, 617872, Note_off_c, 2, 55, 0
4, 617920, Note_on_c, 2, 55, 42
4, 618032, Note_off_c, 2, 50, 0
4, 618080, Note_on_c, 2, 50, 42
4, 618112, Note_off_c, 2, 55, 0
4, 618160, Note_on_c, 2, 55, 41
4, 618272, Note_off_c, 2, 50, 0
4, 618320, Note_on_c, 2, 50, 41
4, 618352, Note_off_c, 2, 55, 0
4, 618400, Note_on_c, 2, 55, 41
4, 618512, Note_off_c, 2, 50, 0
4, 618560, Note_on_c, 2, 50, 41
4, 618592, Note_off_c, 2, 55, 0
4, 618640, Note_on_c, 2, 55, 41
4, 618752, Note_off_c, 2, 50, 0
4, 618800, Note_on_c, 2, 50, 41
4, 618832, Note_off_c, 2, 55, 0
4, 618880, Note_on_c, 2, 55, 40
4, 618992, Note_off_c, 2, 50, 0
4, 619040, Note_on_c, 2, 50, 40
4, 619072, Note_off_c, 2, 55, 0
4, 619120, Note_on_c, 2, 55, 40
4, 619232, Note_off_c, 2, 50, 0
4, 619280, Note_on_c, 2, 50, 40
4, 619312, Note_off_c, 2, 55, 0
4, 619360, Note_on_c, 2, 55, 40
4, 619472, Note_off_c, 2, 50, 0
4, 619520, Note_on_c, 2, 50, 40
4, 619552, Note_off_c, 2, 55, 0
4, 619600, Note_on_c, 2, 55, 39
4, 619712, Note_off_c, 2, 50, 0
4, 619760, Note_on_c, 2, 50, 39
4, 619792, Note_off_c, 2, 55, 0
4, 619840, Note_on_c, 2, 55, 39
4, 619952, Note_off_c, 2, 50, 0
4, 620000, Note_on_c, 2, 50, 39
4, 620032, Note_off_c, 2, 55, 0
4, 620080, Note_on_c, 2, 55, 39
4, 620192, Note_off_c, 2, 50, 0
4, 620240, Note_on_c, 2, 50, 39
4, 620272, Note_off_c, 2, 55, 0
4, 620320, Note_on_c, 2, 55, 38
4, 620432, Note_off_c, 2, 50, 0
4, 620480, Note_on_c, 2, 50, 38
4, 620512, Note_off_c, 2, 55, 0
4, 620560, Note_on_c, 2, 55, 38
4, 620672, Note_off_c, 2, 50, 0
4, 620720, Note_on_c, 2, 50, 38
4, 620752, Note_off_c, 2, 55, 0
4, 620800, Note_on_c, 2, 55, 38
4, 620912, Note_off_c, 2, 50, 0
4, 620960, Note_on_c, 2, 50, 38
4, 620992, Note_off_c, 2, 55, 0
4, 621040, Note_on_c, 2, 55, 37
4, 621152, Note_off_c, 2, 50, 0
4, 621200, Note_on_c, 2, 50, 37
4, 621232, Note_off_c, 2, 55, 0
4, 621280, Note_on_c, 2, 55, 37
4, 621392, Note_off_c, 2, 50, 0
4, 621440, Note_on_c, 2, 50, 37
4, 621472, Note_off_c, 2, 55, 0
4, 621520, Note_on_c, 2, 55, 37
4, 621632, Note_off_c, 2, 50, 0
4, 621680, Note_on_c, 2, 50, 37
4, 621712, Note_off_c, 2, 55, 0
4, 621760, Note_on_c, 2, 55, 37
4, 621872, Note_off_c, 2, 50, 0
4, 621920, Note_on_c, 2, 50, 36
4, 621952, Note_off_c, 2, 55, 0
4, 622000, Note_on_c, 2, 55, 36
4, 622112, Note_off_c, 2, 50, 0
4, 622160, Note_on_c, 2, 50, 36
4, 622192, Note_off_c, 2, 55, 0
4, 622240, Note_on_c, 2, 55, 36
4, 622352, Note_off_c, 2, 50, 0
4, 622400, Note_on_c, 2, 50, 36
4, 622432, Note_off_c, 2, 55, 0
4, 622480, Note_on_c, 2, 55, 36
4, 622592, Note_off_c, 2, 50, 0
4, 622640, Note_on_c, 2, 50, 35
4, 622672, Note_off_c, 2, 55, 0
4, 622720, Note_on_c, 2, 55, 35
4, 622832, Note_off_c, 2, 50, 0
4, 622880, Note_on_c, 2, 50, 35
4, 622912, Note_off_c, 2, 55, 0
4, 622960, Note_on_c, 2, 55, 35
4, 623024, Note_off_c, 2, 50, 0
4, 623040, Note_off_c, 2, 55, 0
4, 623040, End_track
5, 0, Start_track
5, 0, Title_t, "No Name"
5, 0, Control_c, 3, 0, 0
5, 0, Control_c, 3, 32, 0
5, 0, Program_c, 3, 0
5, 0, Control_c, 3, 10, 55
5, 0, Control_c, 3, 7, 122
5, 0, Control_c, 3, 91, 91
5, 0, Control_c, 3, 93, 28
5, 0, Control_c, 3, 64, 0
5, 0, Control_c, 3, 1, 0
5, 0, Pitch_bend_c, 3, 8192
5, 1200, Control_c, 3, 64, 127
5, 1200, Note_on_c, 3, 43, 35
5, 1320, Note_off_c, 3, 43, 0
5, 1320, Note_on_c, 3, 47, 32
5, 1440, Note_off_c, 3, 47, 0
5, 1440, Note_on_c, 3, 50, 29
5, 1560, Note_off_c, 3, 50, 0
5, 1920, Control_c, 3, 64, 0
5, 2160, Control_c, 3, 64, 127
5, 2160, Note_on_c, 3, 55, 39
5, 2280, Note_off_c, 3, 55, 0
5, 2280, Note_on_c, 3, 59, 37
5, 2400, Note_off_c, 3, 59, 0
5, 2400, Note_on_c, 3, 62, 36
5, 2520, Note_off_c, 3, 62, 0
5, 2880, Control_c, 3, 64, 0
5, 3120, Control_c, 3, 64, 127
5, 3120, Note_on_c, 3, 43, 43
5, 3240, Note_off_c, 3, 43, 0
5, 3240, Note_on_c, 3, 48, 40
5, 3360, Note_off_c, 3, 48, 0
5, 3360, Note_on_c, 3, 52, 37
5, 3480, Note_off_c, 3, 52, 0
5, 3840, Control_c, 3, 64, 0
5, 4080, Control_c, 3, 64, 127
5, 4080, Note_on_c, 3, 55, 47
5, 4200, Note_off_c, 3, 55, 0
5, 4200, Note_on_c, 3, 60, 44
5, 4320, Note_off_c, 3, 60, 0
5, 4320, Note_on_c, 3, 64, 42
5, 4440, Note_off_c, 3, 64, 0
5, 4800, Control_c, 3, 64, 0
5, 4920, Control_c, 3, 64, 127
5, 4920, Note_on_c, 3, 54, 57
5, 5040, Note_off_c, 3, 54, 0
5, 5040, Note_on_c, 3, 57, 55
5, 5160, Note_off_c, 3, 57, 0
5, 5160, Note_on_c, 3, 62, 53
5, 5280, Control_c, 3, 64, 0
5, 5280, Note_off_c, 3, 62, 0
5, 5400, Control_c, 3, 64, 127
5, 5400, Note_on_c, 3, 50, 53
5, 5520, Note_off_c, 3, 50, 0
5, 5520, Note_on_c, 3, 57, 52
5, 5640, Note_off_c, 3, 57, 0
5, 5640, Note_on_c, 3, 60, 51
5, 5760, Control_c, 3, 64, 0
5, 5760, Note_off_c, 3, 60, 0
5, 5880, Control_c, 3, 64, 127
5, 5880, Note_on_c, 3, 55, 49
5, 6000, Note_off_c, 3, 55, 0
5, 6000, Note_on_c, 3, 59, 48
5, 6120, Note_off_c, 3, 59, 0
5, 6120, Note_on_c, 3, 62, 47
5, 6240, Control_c, 3, 64, 0
5, 6240, Note_off_c, 3, 62, 0
5, 6360, Control_c, 3, 64, 127
5, 6360, Note_on_c, 3, 48, 45
5, 6480, Note_off_c, 3, 48, 0
5, 6480, Note_on_c, 3, 52, 45
5, 6600, Note_off_c, 3, 52, 0
5, 6600, Note_on_c, 3, 57, 44
5, 6720, Control_c, 3, 64, 0
5, 6720, Note_off_c, 3, 57, 0
5, 6840, Control_c, 3, 64, 127
5, 6840, Note_on_c, 3, 50, 42
5, 6960, Note_off_c, 3, 50, 0
5, 6960, Note_on_c, 3, 55, 41
5, 7080, Note_off_c, 3, 55, 0
5, 7080, Note_on_c, 3, 59, 40
5, 7200, Control_c, 3, 64, 0
5, 7200, Note_off_c, 3, 59, 0
5, 7320, Control_c, 3, 64, 127
5, 7320, Note_on_c, 3, 38, 38
5, 7440, Note_off_c, 3, 38, 0
5, 7440, Note_on_c, 3, 45, 37
5, 7560, Note_off_c, 3, 45, 0
5, 7560, Note_on_c, 3, 50, 36
5, 7680, Control_c, 3, 64, 0
5, 7680, Note_off_c, 3, 50, 0
5, 7680, Note_on_c, 3, 43, 34
5, 8141, Note_off_c, 3, 43, 0
5, 8160, Note_on_c, 3, 43, 35
5, 8621, Note_off_c, 3, 43, 0
5, 8640, Note_on_c, 3, 43, 36
5, 9101, Note_off_c, 3, 43, 0
5, 9120, Note_on_c, 3, 43, 37
5, 9581, Note_off_c, 3, 43, 0
5, 9600, Note_on_c, 3, 45, 39
5, 10072, Note_off_c, 3, 45, 0
5, 10080, Note_on_c, 3, 45, 40
5, 10552, Note_off_c, 3, 45, 0
5, 10560, Note_on_c, 3, 45, 41
5, 11032, Note_off_c, 3, 45, 0
5, 11040, Note_on_c, 3, 45, 42
5, 11512, Note_off_c, 3, 45, 0
5, 11520, Note_on_c, 3, 47, 44
5, 11992, Note_off_c, 3, 47, 0
5, 12000, Note_on_c, 3, 47, 45
5, 12472, Note_off_c, 3, 47, 0
5, 12480, Note_on_c, 3, 47, 46
5, 12952, Note_off_c, 3, 47, 0
5, 12960, Note_on_c, 3, 47, 48
5, 13432, Note_off_c, 3, 47, 0
5, 13440, Note_on_c, 3, 48, 49
5, 13912, Note_off_c, 3, 48, 0
5, 13920, Note_on_c, 3, 49, 50
5, 14370, Note_off_c, 3, 49, 0
5, 14400, Note_on_c, 3, 50, 51
5, 14861, Note_off_c, 3, 50, 0
5, 14880, Note_on_c, 3, 50, 53
5, 15330, Note_off_c, 3, 50, 0
5, 15360, Note_on_c, 3, 52, 54
5, 15832, Note_off_c, 3, 52, 0
5, 15840, Note_on_c, 3, 52, 55
5, 16312, Note_off_c, 3, 52, 0
5, 16320, Note_on_c, 3, 54, 57
5, 16792, Note_off_c, 3, 54, 0
5, 16800, Note_on_c, 3, 54, 58
5, 17272, Note_off_c, 3, 54, 0
5, 17280, Note_on_c, 3, 55, 59
5, 17752, Note_off_c, 3, 55, 0
5, 17760, Note_on_c, 3, 56, 60
5, 18221, Note_off_c, 3, 56, 0
5, 18240, Note_on_c, 3, 57, 61
5, 18690, Note_off_c, 3, 57, 0
5, 18720, Note_on_c, 3, 57, 58
5, 19170, Note_off_c, 3, 57, 0
5, 19200, Note_on_c, 3, 57, 55
5, 19650, Note_off_c, 3, 57, 0
5, 19680, Note_on_c, 3, 57, 52
5, 20130, Note_off_c, 3, 57, 0
5, 20160, Note_on_c, 3, 57, 49
5, 20610, Note_off_c, 3, 57, 0
5, 20640, Note_on_c, 3, 57, 46
5, 21090, Note_off_c, 3, 57, 0
5, 21120, Note_on_c, 3, 57, 43
5, 21570, Note_off_c, 3, 57, 0
5, 21600, Note_on_c, 3, 57, 40
5, 22050, Note_off_c, 3, 57, 0
5, 22080, Note_on_c, 3, 57, 37
5, 22552, Note_off_c, 3, 57, 0
5, 22560, Note_on_c, 3, 57, 34
5, 23032, Note_off_c, 3, 57, 0
5, 23040, Note_on_c, 3, 57, 31
5, 23280, Note_off_c, 3, 57, 0
5, 25080, Note_on_c, 3, 38, 65
5, 25200, Note_off_c, 3, 38, 0
5, 25200, Note_on_c, 3, 50, 64
5, 25320, Note_off_c, 3, 50, 0
5, 25560, Note_on_c, 3, 50, 61
5, 25680, Note_off_c, 3, 50, 0
5, 25680, Note_on_c, 3, 62, 60
5, 25800, Note_off_c, 3, 62, 0
5, 26040, Note_on_c, 3, 62, 57
5, 26160, Note_off_c, 3, 62, 0
5, 26160, Note_on_c, 3, 74, 56
5, 26280, Note_off_c, 3, 74, 0
5, 28080, Note_on_c, 3, 33, 59
5, 28236, Note_off_c, 3, 33, 0
5, 28320, Note_on_c, 3, 33, 56
5, 28476, Note_off_c, 3, 33, 0
5, 28560, Note_on_c, 3, 33, 54
5, 28716, Note_off_c, 3, 33, 0
5, 28920, Note_on_c, 3, 33, 63
5, 29040, Note_off_c, 3, 33, 0
5, 29040, Note_on_c, 3, 45, 63
5, 29160, Note_off_c, 3, 45, 0
5, 29400, Note_on_c, 3, 45, 61
5, 29520, Note_off_c, 3, 45, 0
5, 29520, Note_on_c, 3, 57, 60
5, 29640, Note_off_c, 3, 57, 0
5, 29880, Note_on_c, 3, 57, 58
5, 30000, Note_off_c, 3, 57, 0
5, 30000, Note_on_c, 3, 69, 57
5, 30120, Note_off_c, 3, 69, 0
5, 31920, Note_on_c, 3, 50, 49
5, 32152, Note_off_c, 3, 50, 0
5, 32160, Note_on_c, 3, 49, 51
5, 32392, Note_off_c, 3, 49, 0
5, 32400, Note_on_c, 3, 45, 52
5, 32632, Note_off_c, 3, 45, 0
5, 32880, Note_on_c, 3, 50, 50
5, 33112, Note_off_c, 3, 50, 0
5, 33120, Note_on_c, 3, 49, 57
5, 33352, Note_off_c, 3, 49, 0
5, 33360, Note_on_c, 3, 45, 59
5, 33592, Note_off_c, 3, 45, 0
5, 33600, Note_on_c, 3, 50, 56
5, 34080, Note_off_c, 3, 50, 0
5, 34080, Note_on_c, 3, 52, 57
5, 34560, Note_off_c, 3, 52, 0
5, 34560, Note_on_c, 3, 57, 56
5, 34740, Note_off_c, 3, 57, 0
5, 34800, Note_on_c, 3, 64, 52
5, 34800, Note_on_c, 3, 67, 52
5, 35025, Note_off_c, 3, 64, 0
5, 35030, Note_off_c, 3, 67, 0
5, 35040, Note_on_c, 3, 66, 48
5, 35040, Note_on_c, 3, 62, 48
5, 35265, Note_off_c, 3, 62, 0
5, 35265, Note_off_c, 3, 66, 0
5, 35280, Note_on_c, 3, 61, 44
5, 35280, Note_on_c, 3, 64, 44
5, 35505, Note_off_c, 3, 64, 0
5, 35505, Note_off_c, 3, 61, 0
5, 35520, Note_on_c, 3, 62, 43
5, 35520, Note_on_c, 3, 66, 43
5, 35745, Note_off_c, 3, 66, 0
5, 35745, Note_off_c, 3, 62, 0
5, 35760, Note_on_c, 3, 62, 49
5, 35760, Note_on_c, 3, 66, 49
5, 35985, Note_off_c, 3, 66, 0
5, 35985, Note_off_c, 3, 62, 0
5, 36000, Note_on_c, 3, 64, 55
5, 36000, Note_on_c, 3, 61, 55
5, 36225, Note_off_c, 3, 61, 0
5, 36225, Note_off_c, 3, 64, 0
5, 36240, Note_on_c, 3, 64, 53
5, 36240, Note_on_c, 3, 57, 53
5, 36465, Note_off_c, 3, 57, 0
5, 36465, Note_off_c, 3, 64, 0
5, 36480, Note_on_c, 3, 62, 50
5, 36480, Note_on_c, 3, 66, 50
5, 36705, Note_off_c, 3, 66, 0
5, 36705, Note_off_c, 3, 62, 0
5, 36720, Note_on_c, 3, 66, 54
5, 36720, Note_on_c, 3, 62, 54
5, 36945, Note_off_c, 3, 62, 0
5, 36945, Note_off_c, 3, 66, 0
5, 36960, Note_on_c, 3, 64, 61
5, 36960, Note_on_c, 3, 61, 61
5, 37185, Note_off_c, 3, 61, 0
5, 37185, Note_off_c, 3, 64, 0
5, 37200, Note_on_c, 3, 64, 59
5, 37200, Note_on_c, 3, 57, 59
5, 37425, Note_off_c, 3, 57, 0
5, 37425, Note_off_c, 3, 64, 0
5, 37440, Note_on_c, 3, 66, 56
5, 37440, Note_on_c, 3, 62, 56
5, 37665, Note_off_c, 3, 62, 0
5, 37665, Note_off_c, 3, 66, 0
5, 37680, Note_on_c, 3, 64, 59
5, 37680, Note_on_c, 3, 67, 59
5, 37912, Note_off_c, 3, 67, 0
5, 37912, Note_off_c, 3, 64, 0
5, 37920, Note_on_c, 3, 69, 62
5, 37920, Note_on_c, 3, 66, 62
5, 38145, Note_off_c, 3, 66, 0
5, 38145, Note_off_c, 3, 69, 0
5, 38160, Note_on_c, 3, 71, 65
5, 38160, Note_on_c, 3, 67, 65
5, 38385, Note_off_c, 3, 67, 0
5, 38385, Note_off_c, 3, 71, 0
5, 38400, Note_on_c, 3, 72, 70
5, 38400, Note_on_c, 3, 69, 70
5, 38625, Note_off_c, 3, 69, 0
5, 38625, Note_off_c, 3, 72, 0
5, 38640, Note_on_c, 3, 71, 74
5, 38640, Note_on_c, 3, 68, 74
5, 38865, Note_off_c, 3, 68, 0
5, 38865, Note_off_c, 3, 71, 0
5, 38880, Note_on_c, 3, 72, 78
5, 38880, Note_on_c, 3, 69, 78
5, 39105, Note_off_c, 3, 69, 0
5, 39105, Note_off_c, 3, 72, 0
5, 39120, Note_on_c, 3, 70, 83
5, 39120, Note_on_c, 3, 66, 83
5, 39345, Note_off_c, 3, 66, 0
5, 39345, Note_off_c, 3, 70, 0
5, 39360, Note_on_c, 3, 67, 50
5, 39600, Note_off_c, 3, 67, 0
5, 39840, Note_on_c, 3, 67, 57
5, 40080, Note_off_c, 3, 67, 0
5, 40320, Note_on_c, 3, 68, 63
5, 40560, Note_off_c, 3, 68, 0
5, 40800, Note_on_c, 3, 68, 70
5, 41040, Note_off_c, 3, 68, 0
5, 41280, Note_on_c, 3, 69, 80
5, 41520, Note_off_c, 3, 69, 0
5, 42240, Note_on_c, 3, 57, 82
5, 43200, Note_off_c, 3, 57, 0
5, 43200, Note_on_c, 3, 62, 57
5, 43440, Note_off_c, 3, 62, 0
5, 44160, Note_on_c, 3, 45, 71
5, 45120, Note_off_c, 3, 45, 0
5, 45120, Note_on_c, 3, 50, 50
5, 45360, Note_off_c, 3, 50, 0
5, 46320, Note_on_c, 3, 38, 50
5, 46560, Note_off_c, 3, 38, 0
5, 46560, Note_on_c, 3, 42, 54
5, 46800, Note_off_c, 3, 42, 0
5, 46800, Note_on_c, 3, 45, 58
5, 47040, Note_off_c, 3, 45, 0
5, 47040, Note_on_c, 3, 50, 67
5, 48240, Note_off_c, 3, 50, 0
5, 48240, Note_on_c, 3, 50, 53
5, 48480, Note_off_c, 3, 50, 0
5, 48480, Note_on_c, 3, 49, 55
5, 48720, Note_off_c, 3, 49, 0
5, 48720, Note_on_c, 3, 47, 58
5, 48960, Note_off_c, 3, 47, 0
5, 48960, Note_on_c, 3, 49, 64
5, 49440, Note_off_c, 3, 49, 0
5, 49440, Note_on_c, 3, 45, 54
5, 50160, Note_off_c, 3, 45, 0
5, 50160, Note_on_c, 3, 46, 53
5, 50400, Note_off_c, 3, 46, 0
5, 50400, Note_on_c, 3, 47, 58
5, 50640, Note_off_c, 3, 47, 0
5, 50640, Note_on_c, 3, 42, 64
5, 50880, Note_off_c, 3, 42, 0
5, 50880, Note_on_c, 3, 43, 58
5, 51120, Note_off_c, 3, 43, 0
5, 51120, Note_on_c, 3, 44, 54
5, 51360, Note_off_c, 3, 44, 0
5, 51360, Note_on_c, 3, 45, 51
5, 52080, Note_off_c, 3, 45, 0
5, 52080, Note_on_c, 3, 46, 52
5, 52320, Note_off_c, 3, 46, 0
5, 52320, Note_on_c, 3, 47, 56
5, 52560, Note_off_c, 3, 47, 0
5, 52560, Note_on_c, 3, 42, 60
5, 52800, Note_off_c, 3, 42, 0
5, 52800, Note_on_c, 3, 43, 57
5, 53040, Note_off_c, 3, 43, 0
5, 53040, Note_on_c, 3, 44, 55
5, 53280, Note_off_c, 3, 44, 0
5, 53280, Note_on_c, 3, 45, 53
5, 54000, Note_off_c, 3, 45, 0
5, 54000, Note_on_c, 3, 46, 46
5, 54240, Note_off_c, 3, 46, 0
5, 54240, Note_on_c, 3, 47, 50
5, 54480, Note_off_c, 3, 47, 0
5, 54480, Note_on_c, 3, 48, 54
5, 54720, Note_off_c, 3, 48, 0
5, 54720, Note_on_c, 3, 47, 58
5, 54960, Note_off_c, 3, 47, 0
5, 54960, Note_on_c, 3, 43, 62
5, 55200, Note_off_c, 3, 43, 0
5, 55200, Note_on_c, 3, 45, 66
5, 55440, Note_off_c, 3, 45, 0
5, 55440, Note_on_c, 3, 33, 70
5, 55680, Note_off_c, 3, 33, 0
5, 55680, Note_on_c, 3, 38, 63
5, 56400, Note_on_c, 3, 50, 57
5, 56640, Note_off_c, 3, 50, 0
5, 56640, Note_on_c, 3, 50, 56
5, 57360, Note_off_c, 3, 50, 0
5, 57360, Note_on_c, 3, 50, 50
5, 57600, Note_off_c, 3, 50, 0
5, 57600, Note_off_c, 3, 38, 0
5, 57600, Note_on_c, 3, 50, 49
5, 58320, Note_off_c, 3, 50, 0
5, 58320, Note_on_c, 3, 50, 52
5, 58800, Note_off_c, 3, 50, 0
5, 58800, Note_on_c, 3, 50, 52
5, 59280, Note_off_c, 3, 50, 0
5, 59280, Note_on_c, 3, 50, 39
5, 59520, Note_off_c, 3, 50, 0
5, 59520, Note_on_c, 3, 50, 46
5, 60480, Note_off_c, 3, 50, 0
5, 60480, Note_on_c, 3, 50, 29
5, 60720, Note_off_c, 3, 50, 0
5, 60960, Control_c, 3, 64, 0
5, 61680, Control_c, 3, 64, 127
5, 61680, Note_on_c, 3, 43, 50
5, 61800, Note_off_c, 3, 43, 0
5, 61800, Note_on_c, 3, 46, 49
5, 61920, Note_off_c, 3, 46, 0
5, 61920, Note_on_c, 3, 50, 46
5, 62040, Note_off_c, 3, 50, 0
5, 62400, Control_c, 3, 64, 0
5, 62640, Note_on_c, 3, 55, 46
5, 62760, Note_off_c, 3, 55, 0
5, 62760, Note_on_c, 3, 58, 45
5, 62880, Note_off_c, 3, 58, 0
5, 62880, Note_on_c, 3, 62, 43
5, 63000, Note_off_c, 3, 62, 0
5, 63600, Control_c, 3, 64, 127
5, 63600, Note_on_c, 3, 43, 41
5, 63720, Note_off_c, 3, 43, 0
5, 63720, Note_on_c, 3, 48, 39
5, 63840, Note_off_c, 3, 48, 0
5, 63840, Note_on_c, 3, 51, 36
5, 63960, Note_off_c, 3, 51, 0
5, 64320, Control_c, 3, 64, 0
5, 64560, Control_c, 3, 64, 127
5, 64560, Note_on_c, 3, 55, 37
5, 64680, Note_off_c, 3, 55, 0
5, 64680, Note_on_c, 3, 60, 36
5, 64800, Note_off_c, 3, 60, 0
5, 64800, Note_on_c, 3, 63, 35
5, 64920, Note_off_c, 3, 63, 0
5, 65280, Control_c, 3, 64, 0
5, 65520, Control_c, 3, 64, 127
5, 65520, Note_on_c, 3, 54, 33
5, 65640, Note_off_c, 3, 54, 0
5, 65640, Note_on_c, 3, 60, 33
5, 65760, Note_off_c, 3, 60, 0
5, 65760, Note_on_c, 3, 63, 32
5, 65880, Note_off_c, 3, 63, 0
5, 66240, Control_c, 3, 64, 0
5, 66480, Control_c, 3, 64, 127
5, 66480, Note_on_c, 3, 53, 29
5, 66600, Note_off_c, 3, 53, 0
5, 66600, Note_on_c, 3, 60, 29
5, 66720, Note_off_c, 3, 60, 0
5, 66720, Note_on_c, 3, 63, 28
5, 66840, Note_off_c, 3, 63, 0
5, 67200, Control_c, 3, 64, 0
5, 67320, Note_on_c, 3, 53, 33
5, 67440, Note_off_c, 3, 53, 0
5, 67440, Note_on_c, 3, 63, 36
5, 67560, Note_off_c, 3, 63, 0
5, 67560, Note_on_c, 3, 59, 39
5, 67680, Note_off_c, 3, 59, 0
5, 67680, Note_on_c, 3, 60, 42
5, 67800, Note_off_c, 3, 60, 0
5, 67800, Note_on_c, 3, 56, 44
5, 67920, Note_off_c, 3, 56, 0
5, 67920, Note_on_c, 3, 57, 47
5, 68280, Note_off_c, 3, 57, 0
5, 68280, Note_on_c, 3, 53, 56
5, 68400, Note_off_c, 3, 53, 0
5, 68400, Note_on_c, 3, 63, 59
5, 68520, Note_off_c, 3, 63, 0
5, 68520, Note_on_c, 3, 59, 61
5, 68640, Note_off_c, 3, 59, 0
5, 68640, Note_on_c, 3, 60, 64
5, 68760, Note_off_c, 3, 60, 0
5, 68760, Note_on_c, 3, 56, 67
5, 68880, Note_off_c, 3, 56, 0
5, 68880, Note_on_c, 3, 57, 70
5, 69240, Note_off_c, 3, 57, 0
5, 69240, Note_on_c, 3, 53, 81
5, 69360, Note_off_c, 3, 53, 0
5, 69360, Note_on_c, 3, 63, 79
5, 69480, Note_off_c, 3, 63, 0
5, 69480, Note_on_c, 3, 59, 77
5, 69600, Note_off_c, 3, 59, 0
5, 69600, Note_on_c, 3, 60, 75
5, 69720, Note_off_c, 3, 60, 0
5, 69720, Note_on_c, 3, 56, 73
5, 69840, Note_off_c, 3, 56, 0
5, 69840, Note_on_c, 3, 57, 71
5, 69960, Note_off_c, 3, 57, 0
5, 69960, Note_on_c, 3, 52, 68
5, 70080, Note_off_c, 3, 52, 0
5, 70080, Note_on_c, 3, 53, 66
5, 70200, Note_off_c, 3, 53, 0
5, 70200, Note_on_c, 3, 54, 64
5, 70320, Note_off_c, 3, 54, 0
5, 70320, Note_on_c, 3, 55, 62
5, 70440, Note_off_c, 3, 55, 0
5, 70440, Note_on_c, 3, 51, 60
5, 70560, Note_off_c, 3, 51, 0
5, 70560, Note_on_c, 3, 53, 58
5, 70680, Note_off_c, 3, 53, 0
5, 70680, Note_on_c, 3, 50, 56
5, 70800, Note_off_c, 3, 50, 0
5, 70800, Note_on_c, 3, 51, 54
5, 70920, Note_off_c, 3, 51, 0
5, 70920, Note_on_c, 3, 48, 52
5, 71040, Note_off_c, 3, 48, 0
5, 71160, Note_on_c, 3, 46, 63
5, 71280, Note_off_c, 3, 46, 0
5, 71280, Note_on_c, 3, 58, 63
5, 71400, Note_off_c, 3, 58, 0
5, 71640, Note_on_c, 3, 58, 62
5, 71760, Note_off_c, 3, 58, 0
5, 71760, Note_on_c, 3, 70, 61
5, 71880, Note_off_c, 3, 70, 0
5, 72120, Note_on_c, 3, 70, 60
5, 72240, Note_off_c, 3, 70, 0
5, 72240, Note_on_c, 3, 82, 60
5, 72360, Note_off_c, 3, 82, 0
5, 74160, Note_on_c, 3, 41, 57
5, 74280, Note_off_c, 3, 41, 0
5, 74400, Note_on_c, 3, 41, 55
5, 74520, Note_off_c, 3, 41, 0
5, 74640, Note_on_c, 3, 41, 53
5, 74760, Note_off_c, 3, 41, 0
5, 75000, Note_on_c, 3, 41, 63
5, 75120, Note_off_c, 3, 41, 0
5, 75120, Note_on_c, 3, 53, 61
5, 75240, Note_off_c, 3, 53, 0
5, 75480, Note_on_c, 3, 53, 57
5, 75600, Note_off_c, 3, 53, 0
5, 75600, Note_on_c, 3, 65, 56
5, 75720, Note_off_c, 3, 65, 0
5, 75960, Note_on_c, 3, 54, 51
5, 76080, Note_off_c, 3, 54, 0
5, 76080, Note_on_c, 3, 66, 50
5, 76200, Note_off_c, 3, 66, 0
5, 76440, Note_on_c, 3, 54, 46
5, 76560, Note_off_c, 3, 54, 0
5, 76560, Note_on_c, 3, 66, 44
5, 76680, Note_off_c, 3, 66, 0
5, 76920, Note_on_c, 3, 55, 40
5, 77040, Note_off_c, 3, 55, 0
5, 77040, Note_on_c, 3, 67, 39
5, 77160, Note_off_c, 3, 67, 0
5, 77400, Note_on_c, 3, 55, 34
5, 77520, Note_off_c, 3, 55, 0
5, 77520, Note_on_c, 3, 67, 33
5, 77640, Note_off_c, 3, 67, 0
5, 77760, Note_on_c, 3, 56, 90
5, 77760, Note_on_c, 3, 44, 90
5, 78360, Note_off_c, 3, 44, 0
5, 78360, Note_off_c, 3, 56, 0
5, 78360, Note_on_c, 3, 50, 80
5, 78480, Note_off_c, 3, 50, 0
5, 78480, Note_on_c, 3, 51, 80
5, 78600, Note_off_c, 3, 51, 0
5, 78600, Note_on_c, 3, 47, 79
5, 78720, Note_off_c, 3, 47, 0
5, 78720, Note_on_c, 3, 48, 79
5, 78840, Note_off_c, 3, 48, 0
5, 78840, Note_on_c, 3, 43, 78
5, 78960, Note_off_c, 3, 43, 0
5, 78960, Note_on_c, 3, 44, 84
5, 79320, Note_off_c, 3, 44, 0
5, 79320, Note_on_c, 3, 50, 76
5, 79440, Note_off_c, 3, 50, 0
5, 79440, Note_on_c, 3, 51, 75
5, 79560, Note_off_c, 3, 51, 0
5, 79560, Note_on_c, 3, 47, 75
5, 79680, Note_off_c, 3, 47, 0
5, 79680, Note_on_c, 3, 48, 74
5, 79800, Note_off_c, 3, 48, 0
5, 79800, Note_on_c, 3, 43, 74
5, 79920, Note_off_c, 3, 43, 0
5, 79920, Note_on_c, 3, 44, 82
5, 80280, Note_off_c, 3, 44, 0
5, 80280, Note_on_c, 3, 48, 72
5, 80400, Note_off_c, 3, 48, 0
5, 80400, Note_on_c, 3, 44, 71
5, 80520, Note_off_c, 3, 44, 0
5, 80520, Note_on_c, 3, 43, 70
5, 80640, Note_off_c, 3, 43, 0
5, 80640, Note_on_c, 3, 42, 70
5, 80718, Note_off_c, 3, 42, 0
5, 80760, Note_on_c, 3, 38, 70
5, 80838, Note_off_c, 3, 38, 0
5, 80880, Note_on_c, 3, 42, 70
5, 80958, Note_off_c, 3, 42, 0
5, 81000, Note_on_c, 3, 45, 71
5, 81078, Note_off_c, 3, 45, 0
5, 81120, Note_on_c, 3, 50, 71
5, 81198, Note_off_c, 3, 50, 0
5, 81240, Note_on_c, 3, 52, 72
5, 81318, Note_off_c, 3, 52, 0
5, 81360, Note_on_c, 3, 54, 72
5, 81438, Note_off_c, 3, 54, 0
5, 81480, Note_on_c, 3, 55, 73
5, 81558, Note_off_c, 3, 55, 0
5, 81600, Note_on_c, 3, 57, 75
5, 81678, Note_off_c, 3, 57, 0
5, 81720, Note_on_c, 3, 55, 74
5, 81798, Note_off_c, 3, 55, 0
5, 81840, Note_on_c, 3, 54, 72
5, 81918, Note_off_c, 3, 54, 0
5, 81960, Note_on_c, 3, 51, 71
5, 82038, Note_off_c, 3, 51, 0
5, 82080, Note_on_c, 3, 50, 69
5, 82158, Note_off_c, 3, 50, 0
5, 82200, Note_on_c, 3, 48, 67
5, 82278, Note_off_c, 3, 48, 0
5, 82320, Note_on_c, 3, 46, 66
5, 82398, Note_off_c, 3, 46, 0
5, 82440, Note_on_c, 3, 45, 64
5, 82518, Note_off_c, 3, 45, 0
5, 82560, Note_on_c, 3, 55, 88
5, 82560, Note_on_c, 3, 43, 88
5, 83111, Note_off_c, 3, 55, 0
5, 83160, Note_off_c, 3, 43, 0
5, 83160, Note_on_c, 3, 61, 81
5, 83280, Note_off_c, 3, 61, 0
5, 83280, Note_on_c, 3, 62, 81
5, 83400, Note_off_c, 3, 62, 0
5, 83400, Note_on_c, 3, 57, 80
5, 83520, Note_off_c, 3, 57, 0
5, 83520, Note_on_c, 3, 58, 80
5, 83640, Note_off_c, 3, 58, 0
5, 83640, Note_on_c, 3, 54, 79
5, 83760, Note_off_c, 3, 54, 0
5, 83760, Note_on_c, 3, 55, 85
5, 84120, Note_off_c, 3, 55, 0
5, 84120, Note_on_c, 3, 61, 77
5, 84240, Note_off_c, 3, 61, 0
5, 84240, Note_on_c, 3, 62, 77
5, 84360, Note_off_c, 3, 62, 0
5, 84360, Note_on_c, 3, 57, 77
5, 84480, Note_off_c, 3, 57, 0
5, 84480, Note_on_c, 3, 58, 76
5, 84600, Note_off_c, 3, 58, 0
5, 84600, Note_on_c, 3, 54, 76
5, 84720, Note_off_c, 3, 54, 0
5, 84720, Note_on_c, 3, 55, 82
5, 85080, Note_off_c, 3, 55, 0
5, 85080, Note_on_c, 3, 58, 74
5, 85200, Note_off_c, 3, 58, 0
5, 85200, Note_on_c, 3, 55, 73
5, 85320, Note_off_c, 3, 55, 0
5, 85320, Note_on_c, 3, 53, 73
5, 85440, Note_off_c, 3, 53, 0
5, 85440, Note_on_c, 3, 52, 72
5, 85518, Note_off_c, 3, 52, 0
5, 85560, Note_on_c, 3, 48, 72
5, 85638, Note_off_c, 3, 48, 0
5, 85680, Note_on_c, 3, 52, 73
5, 85758, Note_off_c, 3, 52, 0
5, 85800, Note_on_c, 3, 55, 74
5, 85878, Note_off_c, 3, 55, 0
5, 85920, Note_on_c, 3, 60, 74
5, 85998, Note_off_c, 3, 60, 0
5, 86040, Note_on_c, 3, 62, 75
5, 86118, Note_off_c, 3, 62, 0
5, 86160, Note_on_c, 3, 64, 76
5, 86238, Note_off_c, 3, 64, 0
5, 86280, Note_on_c, 3, 65, 76
5, 86358, Note_off_c, 3, 65, 0
5, 86400, Note_on_c, 3, 67, 78
5, 86478, Note_off_c, 3, 67, 0
5, 86520, Note_on_c, 3, 65, 76
5, 86598, Note_off_c, 3, 65, 0
5, 86640, Note_on_c, 3, 64, 74
5, 86718, Note_off_c, 3, 64, 0
5, 86760, Note_on_c, 3, 61, 73
5, 86838, Note_off_c, 3, 61, 0
5, 86880, Note_on_c, 3, 60, 71
5, 86958, Note_off_c, 3, 60, 0
5, 87000, Note_on_c, 3, 58, 70
5, 87078, Note_off_c, 3, 58, 0
5, 87120, Note_on_c, 3, 56, 69
5, 87198, Note_off_c, 3, 56, 0
5, 87240, Note_on_c, 3, 55, 67
5, 87318, Note_off_c, 3, 55, 0
5, 87360, Note_on_c, 3, 53, 66
5, 87438, Note_off_c, 3, 53, 0
5, 87480, Note_on_c, 3, 41, 64
5, 87558, Note_off_c, 3, 41, 0
5, 87600, Note_on_c, 3, 44, 65
5, 87678, Note_off_c, 3, 44, 0
5, 87720, Note_on_c, 3, 48, 66
5, 87798, Note_off_c, 3, 48, 0
5, 87840, Note_on_c, 3, 53, 67
5, 87918, Note_off_c, 3, 53, 0
5, 87960, Note_on_c, 3, 55, 68
5, 88038, Note_off_c, 3, 55, 0
5, 88080, Note_on_c, 3, 56, 69
5, 88158, Note_off_c, 3, 56, 0
5, 88200, Note_on_c, 3, 58, 70
5, 88278, Note_off_c, 3, 58, 0
5, 88320, Note_on_c, 3, 60, 73
5, 88398, Note_off_c, 3, 60, 0
5, 88440, Note_on_c, 3, 58, 71
5, 88518, Note_off_c, 3, 58, 0
5, 88560, Note_on_c, 3, 57, 70
5, 88638, Note_off_c, 3, 57, 0
5, 88680, Note_on_c, 3, 55, 68
5, 88758, Note_off_c, 3, 55, 0
5, 88800, Note_on_c, 3, 53, 66
5, 88878, Note_off_c, 3, 53, 0
5, 88920, Note_on_c, 3, 51, 64
5, 88998, Note_off_c, 3, 51, 0
5, 89040, Note_on_c, 3, 50, 63
5, 89118, Note_off_c, 3, 50, 0
5, 89160, Note_on_c, 3, 48, 61
5, 89238, Note_off_c, 3, 48, 0
5, 89280, Note_on_c, 3, 46, 59
5, 89358, Note_off_c, 3, 46, 0
5, 89400, Note_on_c, 3, 34, 56
5, 89478, Note_off_c, 3, 34, 0
5, 89520, Note_on_c, 3, 38, 57
5, 89598, Note_off_c, 3, 38, 0
5, 89640, Note_on_c, 3, 41, 58
5, 89718, Note_off_c, 3, 41, 0
5, 89760, Note_on_c, 3, 46, 60
5, 89838, Note_off_c, 3, 46, 0
5, 89880, Note_on_c, 3, 48, 61
5, 89958, Note_off_c, 3, 48, 0
5, 90000, Note_on_c, 3, 50, 62
5, 90078, Note_off_c, 3, 50, 0
5, 90120, Note_on_c, 3, 51, 63
5, 90198, Note_off_c, 3, 51, 0
5, 90240, Note_on_c, 3, 53, 72
5, 90318, Note_off_c, 3, 53, 0
5, 90360, Note_on_c, 3, 51, 62
5, 90438, Note_off_c, 3, 51, 0
5, 90480, Note_on_c, 3, 50, 59
5, 90558, Note_off_c, 3, 50, 0
5, 90600, Note_on_c, 3, 48, 55
5, 90678, Note_off_c, 3, 48, 0
5, 90720, Note_on_c, 3, 46, 50
5, 90798, Note_off_c, 3, 46, 0
5, 90840, Note_on_c, 3, 48, 53
5, 90918, Note_off_c, 3, 48, 0
5, 90960, Note_on_c, 3, 50, 55
5, 91038, Note_off_c, 3, 50, 0
5, 91080, Note_on_c, 3, 51, 58
5, 91158, Note_off_c, 3, 51, 0
5, 91200, Note_on_c, 3, 53, 69
5, 91278, Note_off_c, 3, 53, 0
5, 91320, Note_on_c, 3, 51, 56
5, 91398, Note_off_c, 3, 51, 0
5, 91440, Note_on_c, 3, 50, 53
5, 91518, Note_off_c, 3, 50, 0
5, 91560, Note_on_c, 3, 48, 50
5, 91638, Note_off_c, 3, 48, 0
5, 91680, Note_on_c, 3, 46, 48
5, 91758, Note_off_c, 3, 46, 0
5, 91800, Note_on_c, 3, 48, 50
5, 91878, Note_off_c, 3, 48, 0
5, 91920, Note_on_c, 3, 50, 52
5, 91998, Note_off_c, 3, 50, 0
5, 92040, Note_on_c, 3, 51, 54
5, 92118, Note_off_c, 3, 51, 0
5, 92160, Note_on_c, 3, 53, 66
5, 92238, Note_off_c, 3, 53, 0
5, 92280, Note_on_c, 3, 51, 54
5, 92358, Note_off_c, 3, 51, 0
5, 92400, Note_on_c, 3, 50, 51
5, 92478, Note_off_c, 3, 50, 0
5, 92520, Note_on_c, 3, 48, 49
5, 92598, Note_off_c, 3, 48, 0
5, 92640, Note_on_c, 3, 46, 46
5, 92718, Note_off_c, 3, 46, 0
5, 92760, Note_on_c, 3, 48, 45
5, 92838, Note_off_c, 3, 48, 0
5, 92880, Note_on_c, 3, 50, 45
5, 92958, Note_off_c, 3, 50, 0
5, 93000, Note_on_c, 3, 51, 44
5, 93078, Note_off_c, 3, 51, 0
5, 93120, Note_on_c, 3, 53, 44
5, 93240, Note_off_c, 3, 53, 0
5, 93240, Note_on_c, 3, 55, 43
5, 93360, Note_off_c, 3, 55, 0
5, 93360, Note_on_c, 3, 46, 53
5, 93360, Note_on_c, 3, 56, 43
5, 93480, Note_off_c, 3, 56, 0
5, 93480, Note_on_c, 3, 55, 43
5, 93600, Note_off_c, 3, 55, 0
5, 93600, Note_off_c, 3, 46, 0
5, 93600, Note_on_c, 3, 46, 52
5, 93600, Note_on_c, 3, 56, 42
5, 93720, Note_off_c, 3, 56, 0
5, 93720, Note_on_c, 3, 55, 42
5, 93840, Note_off_c, 3, 55, 0
5, 93840, Note_off_c, 3, 46, 0
5, 93840, Note_on_c, 3, 46, 51
5, 93840, Note_on_c, 3, 56, 41
5, 93960, Note_off_c, 3, 56, 0
5, 93960, Note_on_c, 3, 55, 41
5, 94080, Note_off_c, 3, 55, 0
5, 94080, Note_off_c, 3, 46, 0
5, 94080, Note_on_c, 3, 56, 40
5, 94080, Note_on_c, 3, 46, 48
5, 95040, Note_off_c, 3, 46, 0
5, 95040, Note_off_c, 3, 56, 0
5, 96240, Control_c, 3, 64, 127
5, 96240, Note_on_c, 3, 51, 37
5, 96360, Note_off_c, 3, 51, 0
5, 96360, Note_on_c, 3, 55, 35
5, 96480, Note_off_c, 3, 55, 0
5, 96480, Note_on_c, 3, 58, 32
5, 96600, Note_off_c, 3, 58, 0
5, 96960, Control_c, 3, 64, 0
5, 97200, Control_c, 3, 64, 127
5, 97200, Note_on_c, 3, 63, 41
5, 97320, Note_off_c, 3, 63, 0
5, 97320, Note_on_c, 3, 67, 39
5, 97440, Note_off_c, 3, 67, 0
5, 97440, Note_on_c, 3, 70, 37
5, 97560, Note_off_c, 3, 70, 0
5, 97920, Control_c, 3, 64, 0
5, 98160, Control_c, 3, 64, 127
5, 98160, Note_on_c, 3, 51, 43
5, 98280, Note_off_c, 3, 51, 0
5, 98280, Note_on_c, 3, 56, 41
5, 98400, Note_off_c, 3, 56, 0
5, 98400, Note_on_c, 3, 60, 38
5, 98520, Note_off_c, 3, 60, 0
5, 98880, Control_c, 3, 64, 0
5, 99120, Control_c, 3, 64, 127
5, 99120, Note_on_c, 3, 63, 47
5, 99240, Note_off_c, 3, 63, 0
5, 99240, Note_on_c, 3, 68, 45
5, 99360, Note_off_c, 3, 68, 0
5, 99360, Note_on_c, 3, 72, 43
5, 99480, Note_off_c, 3, 72, 0
5, 99840, Control_c, 3, 64, 0
5, 99960, Control_c, 3, 64, 127
5, 99960, Note_on_c, 3, 62, 56
5, 100080, Note_off_c, 3, 62, 0
5, 100080, Note_on_c, 3, 65, 54
5, 100200, Note_off_c, 3, 65, 0
5, 100200, Note_on_c, 3, 70, 53
5, 100320, Control_c, 3, 64, 0
5, 100320, Note_off_c, 3, 70, 0
5, 100440, Control_c, 3, 64, 127
5, 100440, Note_on_c, 3, 58, 50
5, 100560, Note_off_c, 3, 58, 0
5, 100560, Note_on_c, 3, 62, 48
5, 100680, Note_off_c, 3, 62, 0
5, 100680, Note_on_c, 3, 65, 47
5, 100800, Control_c, 3, 64, 0
5, 100800, Note_off_c, 3, 65, 0
5, 100920, Control_c, 3, 64, 127
5, 100920, Note_on_c, 3, 59, 51
5, 101040, Note_off_c, 3, 59, 0
5, 101040, Note_on_c, 3, 62, 49
5, 101160, Note_off_c, 3, 62, 0
5, 101160, Note_on_c, 3, 67, 47
5, 101280, Control_c, 3, 64, 0
5, 101280, Note_off_c, 3, 67, 0
5, 101400, Control_c, 3, 64, 127
5, 101400, Note_on_c, 3, 60, 55
5, 101520, Note_off_c, 3, 60, 0
5, 101520, Note_on_c, 3, 63, 52
5, 101640, Note_off_c, 3, 63, 0
5, 101640, Note_on_c, 3, 55, 49
5, 101760, Control_c, 3, 64, 0
5, 101760, Note_off_c, 3, 55, 0
5, 101880, Control_c, 3, 64, 127
5, 101880, Note_on_c, 3, 54, 61
5, 102000, Note_off_c, 3, 54, 0
5, 102000, Note_on_c, 3, 57, 58
5, 102120, Note_off_c, 3, 57, 0
5, 102120, Note_on_c, 3, 62, 56
5, 102240, Control_c, 3, 64, 0
5, 102240, Note_off_c, 3, 62, 0
5, 102360, Control_c, 3, 64, 127
5, 102360, Note_on_c, 3, 50, 66
5, 102480, Note_off_c, 3, 50, 0
5, 102480, Note_on_c, 3, 54, 64
5, 102600, Note_off_c, 3, 54, 0
5, 102600, Note_on_c, 3, 57, 61
5, 102720, Control_c, 3, 64, 0
5, 102720, Note_off_c, 3, 57, 0
5, 102840, Control_c, 3, 64, 127
5, 102840, Note_on_c, 3, 43, 73
5, 102960, Note_off_c, 3, 43, 0
5, 102960, Note_on_c, 3, 46, 70
5, 103080, Note_off_c, 3, 46, 0
5, 103080, Note_on_c, 3, 50, 67
5, 103200, Control_c, 3, 64, 0
5, 103200, Note_off_c, 3, 50, 0
5, 103320, Note_on_c, 3, 39, 71
5, 103440, Note_off_c, 3, 39, 0
5, 103440, Note_on_c, 3, 51, 75
5, 103518, Note_off_c, 3, 51, 0
5, 103560, Note_on_c, 3, 51, 78
5, 103638, Note_off_c, 3, 51, 0
5, 103680, Note_on_c, 3, 38, 84
5, 103920, Note_off_c, 3, 38, 0
5, 103920, Note_on_c, 3, 50, 94
5, 104400, Note_on_c, 3, 60, 79
5, 104640, Note_off_c, 3, 60, 0
5, 104640, Note_on_c, 3, 58, 77
5, 104880, Note_off_c, 3, 58, 0
5, 104880, Note_on_c, 3, 54, 75
5, 105120, Note_off_c, 3, 54, 0
5, 105120, Note_on_c, 3, 55, 74
5, 105360, Note_off_c, 3, 55, 0
5, 105360, Note_on_c, 3, 61, 72
5, 105600, Note_off_c, 3, 61, 0
5, 105600, Note_off_c, 3, 50, 0
5, 105600, Note_on_c, 3, 50, 71
5, 105840, Note_on_c, 3, 62, 82
5, 106320, Note_off_c, 3, 62, 0
5, 106320, Note_on_c, 3, 60, 75
5, 106560, Note_off_c, 3, 60, 0
5, 106560, Note_on_c, 3, 58, 73
5, 106800, Note_off_c, 3, 58, 0
5, 106800, Note_on_c, 3, 54, 71
5, 107040, Note_off_c, 3, 54, 0
5, 107040, Note_on_c, 3, 55, 70
5, 107280, Note_off_c, 3, 55, 0
5, 107280, Note_on_c, 3, 61, 68
5, 107520, Note_off_c, 3, 61, 0
5, 107520, Note_off_c, 3, 50, 0
5, 107520, Note_on_c, 3, 50, 66
5, 107760, Note_on_c, 3, 62, 74
5, 108240, Note_off_c, 3, 62, 0
5, 108240, Note_on_c, 3, 60, 63
5, 108480, Note_off_c, 3, 60, 0
5, 108480, Note_on_c, 3, 58, 61
5, 108720, Note_off_c, 3, 58, 0
5, 108720, Note_on_c, 3, 54, 59
5, 108960, Note_off_c, 3, 54, 0
5, 108960, Note_on_c, 3, 55, 57
5, 109200, Note_off_c, 3, 55, 0
5, 109200, Note_on_c, 3, 61, 55
5, 109440, Note_off_c, 3, 61, 0
5, 109440, Note_off_c, 3, 50, 0
5, 109440, Note_on_c, 3, 50, 53
5, 109440, Note_on_c, 3, 62, 53
5, 109680, Note_off_c, 3, 62, 0
5, 109680, Note_on_c, 3, 61, 51
5, 109920, Note_off_c, 3, 61, 0
5, 109920, Note_on_c, 3, 62, 49
5, 110160, Note_off_c, 3, 62, 0
5, 110160, Note_on_c, 3, 61, 47
5, 110400, Note_off_c, 3, 61, 0
5, 110400, Note_on_c, 3, 62, 45
5, 110640, Note_off_c, 3, 62, 0
5, 110640, Note_on_c, 3, 61, 43
5, 110880, Note_off_c, 3, 61, 0
5, 110880, Note_on_c, 3, 62, 41
5, 111120, Note_off_c, 3, 62, 0
5, 111120, Note_on_c, 3, 61, 39
5, 111360, Control_c, 3, 64, 127
5, 111360, Note_off_c, 3, 61, 0
5, 111360, Note_off_c, 3, 50, 0
5, 111360, Note_on_c, 3, 62, 24
5, 111587, Note_off_c, 3, 62, 0
5, 111600, Note_on_c, 3, 62, 25
5, 111827, Note_off_c, 3, 62, 0
5, 111840, Note_on_c, 3, 62, 26
5, 112067, Note_off_c, 3, 62, 0
5, 112080, Note_on_c, 3, 62, 28
5, 112307, Note_off_c, 3, 62, 0
5, 112320, Note_on_c, 3, 62, 29
5, 112547, Note_off_c, 3, 62, 0
5, 112560, Note_on_c, 3, 62, 30
5, 112787, Note_off_c, 3, 62, 0
5, 112800, Note_on_c, 3, 62, 32
5, 113027, Note_off_c, 3, 62, 0
5, 113040, Note_on_c, 3, 62, 33
5, 113267, Note_off_c, 3, 62, 0
5, 113280, Note_on_c, 3, 62, 34
5, 113507, Note_off_c, 3, 62, 0
5, 113520, Note_on_c, 3, 62, 36
5, 113747, Note_off_c, 3, 62, 0
5, 113760, Note_on_c, 3, 62, 37
5, 113987, Note_off_c, 3, 62, 0
5, 114000, Note_on_c, 3, 62, 38
5, 114227, Note_off_c, 3, 62, 0
5, 114240, Note_on_c, 3, 62, 40
5, 114467, Note_off_c, 3, 62, 0
5, 114480, Note_on_c, 3, 62, 41
5, 114707, Note_off_c, 3, 62, 0
5, 114720, Note_on_c, 3, 62, 42
5, 114947, Note_off_c, 3, 62, 0
5, 114960, Note_on_c, 3, 62, 45
5, 115187, Note_off_c, 3, 62, 0
5, 115200, Note_on_c, 3, 62, 49
5, 115427, Note_off_c, 3, 62, 0
5, 115440, Note_on_c, 3, 62, 52
5, 115667, Note_off_c, 3, 62, 0
5, 115680, Note_on_c, 3, 62, 55
5, 115907, Note_off_c, 3, 62, 0
5, 115920, Note_on_c, 3, 62, 58
5, 116147, Note_off_c, 3, 62, 0
5, 116160, Note_on_c, 3, 62, 62
5, 116387, Note_off_c, 3, 62, 0
5, 116400, Note_on_c, 3, 62, 65
5, 116620, Note_off_c, 3, 62, 0
5, 116640, Note_on_c, 3, 62, 68
5, 116853, Note_off_c, 3, 62, 0
5, 116880, Note_on_c, 3, 62, 71
5, 117093, Note_off_c, 3, 62, 0
5, 117120, Note_on_c, 3, 62, 75
5, 117360, Note_off_c, 3, 62, 0
5, 118080, Control_c, 3, 64, 0
5, 122160, Control_c, 3, 64, 127
5, 122160, Note_on_c, 3, 43, 35
5, 122280, Note_off_c, 3, 43, 0
5, 122280, Note_on_c, 3, 47, 33
5, 122400, Note_off_c, 3, 47, 0
5, 122400, Note_on_c, 3, 50, 31
5, 122520, Note_off_c, 3, 50, 0
5, 122880, Control_c, 3, 64, 0
5, 123120, Control_c, 3, 64, 127
5, 123120, Note_on_c, 3, 55, 37
5, 123240, Note_off_c, 3, 55, 0
5, 123240, Note_on_c, 3, 59, 36
5, 123360, Note_off_c, 3, 59, 0
5, 123360, Note_on_c, 3, 62, 35
5, 123480, Note_off_c, 3, 62, 0
5, 123840, Control_c, 3, 64, 0
5, 124080, Control_c, 3, 64, 127
5, 124080, Note_on_c, 3, 43, 41
5, 124200, Note_off_c, 3, 43, 0
5, 124200, Note_on_c, 3, 48, 38
5, 124320, Note_off_c, 3, 48, 0
5, 124320, Note_on_c, 3, 52, 35
5, 124440, Note_off_c, 3, 52, 0
5, 124800, Control_c, 3, 64, 0
5, 125040, Control_c, 3, 64, 127
5, 125040, Note_on_c, 3, 55, 44
5, 125160, Note_off_c, 3, 55, 0
5, 125160, Note_on_c, 3, 60, 42
5, 125280, Note_off_c, 3, 60, 0
5, 125280, Note_on_c, 3, 64, 39
5, 125400, Note_off_c, 3, 64, 0
5, 125760, Control_c, 3, 64, 0
5, 125880, Control_c, 3, 64, 127
5, 125880, Note_on_c, 3, 54, 57
5, 126000, Note_off_c, 3, 54, 0
5, 126000, Note_on_c, 3, 57, 56
5, 126120, Note_off_c, 3, 57, 0
5, 126120, Note_on_c, 3, 62, 55
5, 126240, Control_c, 3, 64, 0
5, 126240, Note_off_c, 3, 62, 0
5, 126360, Control_c, 3, 64, 127
5, 126360, Note_on_c, 3, 50, 53
5, 126480, Note_off_c, 3, 50, 0
5, 126480, Note_on_c, 3, 57, 52
5, 126600, Note_off_c, 3, 57, 0
5, 126600, Note_on_c, 3, 60, 51
5, 126720, Control_c, 3, 64, 0
5, 126720, Note_off_c, 3, 60, 0
5, 126840, Control_c, 3, 64, 127
5, 126840, Note_on_c, 3, 55, 49
5, 126960, Note_off_c, 3, 55, 0
5, 126960, Note_on_c, 3, 59, 48
5, 127080, Note_off_c, 3, 59, 0
5, 127080, Note_on_c, 3, 62, 47
5, 127200, Control_c, 3, 64, 0
5, 127200, Note_off_c, 3, 62, 0
5, 127320, Control_c, 3, 64, 127
5, 127320, Note_on_c, 3, 48, 45
5, 127440, Note_off_c, 3, 48, 0
5, 127440, Note_on_c, 3, 52, 45
5, 127560, Note_off_c, 3, 52, 0
5, 127560, Note_on_c, 3, 57, 44
5, 127680, Control_c, 3, 64, 0
5, 127680, Note_off_c, 3, 57, 0
5, 127800, Control_c, 3, 64, 127
5, 127800, Note_on_c, 3, 50, 42
5, 127920, Note_off_c, 3, 50, 0
5, 127920, Note_on_c, 3, 55, 41
5, 128040, Note_off_c, 3, 55, 0
5, 128040, Note_on_c, 3, 59, 40
5, 128160, Control_c, 3, 64, 0
5, 128160, Note_off_c, 3, 59, 0
5, 128280, Control_c, 3, 64, 127
5, 128280, Note_on_c, 3, 38, 38
5, 128400, Note_off_c, 3, 38, 0
5, 128400, Note_on_c, 3, 45, 37
5, 128520, Note_off_c, 3, 45, 0
5, 128520, Note_on_c, 3, 50, 36
5, 128640, Control_c, 3, 64, 0
5, 128640, Note_off_c, 3, 50, 0
5, 128640, Note_on_c, 3, 43, 34
5, 129120, Note_off_c, 3, 43, 0
5, 129120, Note_on_c, 3, 43, 35
5, 129600, Note_off_c, 3, 43, 0
5, 129600, Note_on_c, 3, 43, 36
5, 130080, Note_off_c, 3, 43, 0
5, 130080, Note_on_c, 3, 43, 37
5, 130560, Note_off_c, 3, 43, 0
5, 130560, Note_on_c, 3, 45, 39
5, 131040, Note_off_c, 3, 45, 0
5, 131040, Note_on_c, 3, 45, 40
5, 131520, Note_off_c, 3, 45, 0
5, 131520, Note_on_c, 3, 45, 41
5, 132000, Note_off_c, 3, 45, 0
5, 132000, Note_on_c, 3, 45, 42
5, 132480, Note_off_c, 3, 45, 0
5, 132480, Note_on_c, 3, 47, 44
5, 132960, Note_off_c, 3, 47, 0
5, 132960, Note_on_c, 3, 47, 45
5, 133440, Note_off_c, 3, 47, 0
5, 133440, Note_on_c, 3, 47, 44
5, 133920, Note_off_c, 3, 47, 0
5, 133920, Note_on_c, 3, 47, 29
5, 134400, Note_off_c, 3, 47, 0
5, 134400, Note_on_c, 3, 48, 32
5, 134880, Note_off_c, 3, 48, 0
5, 134880, Note_on_c, 3, 48, 34
5, 135360, Note_off_c, 3, 48, 0
5, 135360, Note_on_c, 3, 50, 36
5, 135840, Note_off_c, 3, 50, 0
5, 135840, Note_on_c, 3, 50, 39
5, 136320, Note_off_c, 3, 50, 0
5, 136320, Note_on_c, 3, 52, 41
5, 136800, Note_off_c, 3, 52, 0
5, 136800, Note_on_c, 3, 52, 43
5, 137280, Note_off_c, 3, 52, 0
5, 137280, Note_on_c, 3, 53, 46
5, 137760, Note_off_c, 3, 53, 0
5, 137760, Note_on_c, 3, 54, 48
5, 138240, Note_off_c, 3, 54, 0
5, 138240, Note_on_c, 3, 55, 50
5, 138720, Note_off_c, 3, 55, 0
5, 138720, Note_on_c, 3, 55, 52
5, 139200, Note_off_c, 3, 55, 0
5, 139200, Note_on_c, 3, 57, 53
5, 139680, Note_off_c, 3, 57, 0
5, 139680, Note_on_c, 3, 57, 55
5, 140160, Note_off_c, 3, 57, 0
5, 140160, Note_on_c, 3, 59, 57
5, 140640, Note_off_c, 3, 59, 0
5, 140640, Note_on_c, 3, 59, 58
5, 141120, Note_off_c, 3, 59, 0
5, 141120, Note_on_c, 3, 60, 59
5, 141600, Note_off_c, 3, 60, 0
5, 141600, Note_on_c, 3, 61, 60
5, 142080, Note_off_c, 3, 61, 0
5, 142080, Note_on_c, 3, 62, 61
5, 142560, Note_off_c, 3, 62, 0
5, 142560, Note_on_c, 3, 62, 58
5, 143040, Note_off_c, 3, 62, 0
5, 143040, Note_on_c, 3, 62, 55
5, 143520, Note_off_c, 3, 62, 0
5, 143520, Note_on_c, 3, 62, 52
5, 144000, Note_off_c, 3, 62, 0
5, 144000, Note_on_c, 3, 62, 49
5, 144480, Note_off_c, 3, 62, 0
5, 144480, Note_on_c, 3, 62, 46
5, 144960, Note_off_c, 3, 62, 0
5, 144960, Note_on_c, 3, 62, 43
5, 145440, Note_off_c, 3, 62, 0
5, 145440, Note_on_c, 3, 62, 40
5, 145920, Note_off_c, 3, 62, 0
5, 145920, Note_on_c, 3, 62, 37
5, 146400, Note_off_c, 3, 62, 0
5, 146400, Note_on_c, 3, 62, 34
5, 146880, Note_off_c, 3, 62, 0
5, 146880, Note_on_c, 3, 62, 31
5, 147120, Note_off_c, 3, 62, 0
5, 148920, Note_on_c, 3, 43, 65
5, 149040, Note_off_c, 3, 43, 0
5, 149040, Note_on_c, 3, 55, 64
5, 149160, Note_off_c, 3, 55, 0
5, 149400, Note_on_c, 3, 55, 61
5, 149520, Note_off_c, 3, 55, 0
5, 149520, Note_on_c, 3, 67, 60
5, 149640, Note_off_c, 3, 67, 0
5, 149880, Note_on_c, 3, 67, 57
5, 150000, Note_off_c, 3, 67, 0
5, 150000, Note_on_c, 3, 79, 56
5, 150120, Note_off_c, 3, 79, 0
5, 151920, Note_on_c, 3, 38, 59
5, 152076, Note_off_c, 3, 38, 0
5, 152160, Note_on_c, 3, 38, 56
5, 152316, Note_off_c, 3, 38, 0
5, 152400, Note_on_c, 3, 38, 54
5, 152556, Note_off_c, 3, 38, 0
5, 152760, Note_on_c, 3, 38, 63
5, 152880, Note_off_c, 3, 38, 0
5, 152880, Note_on_c, 3, 50, 63
5, 153000, Note_off_c, 3, 50, 0
5, 153240, Note_on_c, 3, 50, 61
5, 153360, Note_off_c, 3, 50, 0
5, 153360, Note_on_c, 3, 62, 60
5, 153480, Note_off_c, 3, 62, 0
5, 153720, Note_on_c, 3, 62, 58
5, 153840, Note_off_c, 3, 62, 0
5, 153840, Note_on_c, 3, 74, 57
5, 153960, Note_off_c, 3, 74, 0
5, 155760, Note_on_c, 3, 55, 49
5, 155992, Note_off_c, 3, 55, 0
5, 156000, Note_on_c, 3, 54, 52
5, 156232, Note_off_c, 3, 54, 0
5, 156240, Note_on_c, 3, 50, 52
5, 156472, Note_off_c, 3, 50, 0
5, 156720, Note_on_c, 3, 55, 50
5, 156952, Note_off_c, 3, 55, 0
5, 156960, Note_on_c, 3, 54, 57
5, 157192, Note_off_c, 3, 54, 0
5, 157200, Note_on_c, 3, 50, 59
5, 157432, Note_off_c, 3, 50, 0
5, 157440, Note_on_c, 3, 55, 56
5, 157920, Note_off_c, 3, 55, 0
5, 157920, Note_on_c, 3, 57, 57
5, 158400, Note_off_c, 3, 57, 0
5, 158400, Note_on_c, 3, 62, 56
5, 158580, Note_off_c, 3, 62, 0
5, 158640, Note_on_c, 3, 72, 52
5, 158640, Note_on_c, 3, 69, 52
5, 158865, Note_off_c, 3, 69, 0
5, 158872, Note_off_c, 3, 72, 0
5, 158880, Note_on_c, 3, 67, 48
5, 158880, Note_on_c, 3, 71, 48
5, 159105, Note_off_c, 3, 71, 0
5, 159105, Note_off_c, 3, 67, 0
5, 159120, Note_on_c, 3, 69, 44
5, 159120, Note_on_c, 3, 66, 44
5, 159345, Note_off_c, 3, 66, 0
5, 159345, Note_off_c, 3, 69, 0
5, 159360, Note_on_c, 3, 71, 43
5, 159360, Note_on_c, 3, 67, 43
5, 159585, Note_off_c, 3, 67, 0
5, 159585, Note_off_c, 3, 71, 0
5, 159600, Note_on_c, 3, 71, 49
5, 159600, Note_on_c, 3, 67, 49
5, 159825, Note_off_c, 3, 67, 0
5, 159825, Note_off_c, 3, 71, 0
5, 159840, Note_on_c, 3, 66, 55
5, 159840, Note_on_c, 3, 69, 55
5, 160065, Note_off_c, 3, 69, 0
5, 160065, Note_off_c, 3, 66, 0
5, 160080, Note_on_c, 3, 72, 53
5, 160080, Note_on_c, 3, 69, 53
5, 160305, Note_off_c, 3, 69, 0
5, 160306, Note_off_c, 3, 72, 0
5, 160320, Note_on_c, 3, 71, 50
5, 160320, Note_on_c, 3, 67, 50
5, 160545, Note_off_c, 3, 67, 0
5, 160545, Note_off_c, 3, 71, 0
5, 160560, Note_on_c, 3, 67, 54
5, 160560, Note_on_c, 3, 71, 54
5, 160785, Note_off_c, 3, 71, 0
5, 160785, Note_off_c, 3, 67, 0
5, 160800, Note_on_c, 3, 66, 61
5, 160800, Note_on_c, 3, 69, 61
5, 161025, Note_off_c, 3, 69, 0
5, 161025, Note_off_c, 3, 66, 0
5, 161040, Note_on_c, 3, 72, 59
5, 161040, Note_on_c, 3, 69, 59
5, 161265, Note_off_c, 3, 69, 0
5, 161266, Note_off_c, 3, 72, 0
5, 161280, Note_on_c, 3, 67, 56
5, 161393, Note_off_c, 3, 67, 0
5, 161400, Note_on_c, 3, 71, 56
5, 161513, Note_off_c, 3, 71, 0
5, 161520, Note_on_c, 3, 69, 59
5, 161636, Note_off_c, 3, 69, 0
5, 161640, Note_on_c, 3, 72, 59
5, 161756, Note_off_c, 3, 72, 0
5, 161760, Note_on_c, 3, 71, 62
5, 161873, Note_off_c, 3, 71, 0
5, 161880, Note_on_c, 3, 74, 62
5, 161993, Note_off_c, 3, 74, 0
5, 162000, Note_on_c, 3, 72, 65
5, 162113, Note_off_c, 3, 72, 0
5, 162120, Note_on_c, 3, 76, 65
5, 162233, Note_off_c, 3, 76, 0
5, 162240, Note_on_c, 3, 74, 70
5, 162353, Note_off_c, 3, 74, 0
5, 162360, Note_on_c, 3, 77, 70
5, 162473, Note_off_c, 3, 77, 0
5, 162480, Note_on_c, 3, 73, 74
5, 162593, Note_off_c, 3, 73, 0
5, 162600, Note_on_c, 3, 76, 74
5, 162713, Note_off_c, 3, 76, 0
5, 162720, Note_on_c, 3, 74, 78
5, 162833, Note_off_c, 3, 74, 0
5, 162840, Note_on_c, 3, 77, 78
5, 162953, Note_off_c, 3, 77, 0
5, 162960, Note_on_c, 3, 71, 83
5, 163073, Note_off_c, 3, 71, 0
5, 163080, Note_on_c, 3, 75, 83
5, 163193, Note_off_c, 3, 75, 0
5, 163200, Note_on_c, 3, 60, 46
5, 163440, Note_off_c, 3, 60, 0
5, 163680, Note_on_c, 3, 60, 53
5, 163920, Note_off_c, 3, 60, 0
5, 164160, Note_on_c, 3, 61, 60
5, 164400, Note_off_c, 3, 61, 0
5, 164640, Note_on_c, 3, 61, 70
5, 164880, Note_off_c, 3, 61, 0
5, 165120, Note_on_c, 3, 62, 80
5, 165360, Note_off_c, 3, 62, 0
5, 166080, Note_on_c, 3, 50, 70
5, 167040, Note_off_c, 3, 50, 0
5, 167040, Note_on_c, 3, 55, 55
5, 167280, Note_off_c, 3, 55, 0
5, 168000, Note_on_c, 3, 38, 64
5, 168960, Note_off_c, 3, 38, 0
5, 168960, Note_on_c, 3, 43, 50
5, 169200, Note_off_c, 3, 43, 0
5, 170160, Note_on_c, 3, 31, 50
5, 170400, Note_off_c, 3, 31, 0
5, 170400, Note_on_c, 3, 35, 54
5, 170640, Note_off_c, 3, 35, 0
5, 170640, Note_on_c, 3, 38, 59
5, 170880, Note_off_c, 3, 38, 0
5, 170880, Note_on_c, 3, 43, 63
5, 172080, Note_off_c, 3, 43, 0
5, 172080, Note_on_c, 3, 43, 50
5, 172320, Note_off_c, 3, 43, 0
5, 172320, Note_on_c, 3, 42, 54
5, 172560, Note_off_c, 3, 42, 0
5, 172560, Note_on_c, 3, 40, 57
5, 172800, Note_off_c, 3, 40, 0
5, 172800, Note_on_c, 3, 42, 63
5, 173280, Note_off_c, 3, 42, 0
5, 173280, Note_on_c, 3, 38, 54
5, 174000, Note_off_c, 3, 38, 0
5, 174000, Note_on_c, 3, 39, 51
5, 174240, Note_off_c, 3, 39, 0
5, 174240, Note_on_c, 3, 40, 57
5, 174480, Note_off_c, 3, 40, 0
5, 174480, Note_on_c, 3, 35, 62
5, 174720, Note_off_c, 3, 35, 0
5, 174720, Note_on_c, 3, 36, 55
5, 174960, Note_off_c, 3, 36, 0
5, 174960, Note_on_c, 3, 37, 52
5, 175200, Note_off_c, 3, 37, 0
5, 175200, Note_on_c, 3, 38, 49
5, 175920, Note_off_c, 3, 38, 0
5, 175920, Note_on_c, 3, 39, 48
5, 176160, Note_off_c, 3, 39, 0
5, 176160, Note_on_c, 3, 40, 53
5, 176400, Note_off_c, 3, 40, 0
5, 176400, Note_on_c, 3, 35, 57
5, 176640, Note_off_c, 3, 35, 0
5, 176640, Note_on_c, 3, 36, 52
5, 176880, Note_off_c, 3, 36, 0
5, 176880, Note_on_c, 3, 37, 50
5, 177120, Note_off_c, 3, 37, 0
5, 177120, Note_on_c, 3, 38, 47
5, 177840, Note_off_c, 3, 38, 0
5, 177840, Note_on_c, 3, 39, 46
5, 178080, Note_off_c, 3, 39, 0
5, 178080, Note_on_c, 3, 40, 50
5, 178320, Note_off_c, 3, 40, 0
5, 178320, Note_on_c, 3, 41, 54
5, 178560, Note_off_c, 3, 41, 0
5, 178560, Note_on_c, 3, 40, 58
5, 178800, Note_off_c, 3, 40, 0
5, 178800, Note_on_c, 3, 41, 61
5, 179040, Note_off_c, 3, 41, 0
5, 179040, Note_on_c, 3, 40, 65
5, 179280, Note_off_c, 3, 40, 0
5, 179280, Note_on_c, 3, 38, 69
5, 179520, Note_off_c, 3, 38, 0
5, 179520, Note_on_c, 3, 36, 67
5, 180000, Note_off_c, 3, 36, 0
5, 180000, Note_on_c, 3, 37, 64
5, 180480, Note_off_c, 3, 37, 0
5, 180480, Note_on_c, 3, 38, 60
5, 180960, Note_off_c, 3, 38, 0
5, 180960, Note_on_c, 3, 38, 56
5, 181440, Note_off_c, 3, 38, 0
5, 181680, Control_c, 3, 64, 127
5, 181680, Note_on_c, 3, 43, 41
5, 181800, Note_off_c, 3, 43, 0
5, 181800, Note_on_c, 3, 47, 39
5, 181920, Note_off_c, 3, 47, 0
5, 181920, Note_on_c, 3, 50, 37
5, 182040, Note_off_c, 3, 50, 0
5, 182400, Control_c, 3, 64, 0
5, 182640, Control_c, 3, 64, 127
5, 182640, Note_on_c, 3, 43, 42
5, 182760, Note_off_c, 3, 43, 0
5, 182760, Note_on_c, 3, 50, 40
5, 182880, Note_off_c, 3, 50, 0
5, 182880, Note_on_c, 3, 53, 38
5, 183000, Note_off_c, 3, 53, 0
5, 183360, Control_c, 3, 64, 0
5, 183600, Control_c, 3, 64, 127
5, 183600, Note_on_c, 3, 43, 47
5, 183720, Note_off_c, 3, 43, 0
5, 183720, Note_on_c, 3, 48, 44
5, 183840, Note_off_c, 3, 48, 0
5, 183840, Note_on_c, 3, 52, 41
5, 183960, Note_off_c, 3, 52, 0
5, 184320, Control_c, 3, 64, 0
5, 184560, Control_c, 3, 64, 127
5, 184560, Note_on_c, 3, 43, 57
5, 184680, Note_off_c, 3, 43, 0
5, 184680, Note_on_c, 3, 50, 54
5, 184800, Note_off_c, 3, 50, 0
5, 184800, Note_on_c, 3, 54, 50
5, 184920, Note_off_c, 3, 54, 0
5, 185280, Control_c, 3, 64, 0
5, 185520, Control_c, 3, 64, 127
5, 185520, Note_on_c, 3, 43, 41
5, 185640, Note_off_c, 3, 43, 0
5, 185640, Note_on_c, 3, 50, 39
5, 185760, Note_off_c, 3, 50, 0
5, 185760, Note_on_c, 3, 55, 36
5, 185880, Note_off_c, 3, 55, 0
5, 186240, Control_c, 3, 64, 0
5, 186480, Control_c, 3, 64, 127
5, 186480, Note_on_c, 3, 43, 51
5, 186600, Note_off_c, 3, 43, 0
5, 186600, Note_on_c, 3, 50, 48
5, 186720, Note_off_c, 3, 50, 0
5, 186720, Note_on_c, 3, 53, 45
5, 186840, Note_off_c, 3, 53, 0
5, 187200, Control_c, 3, 64, 0
5, 187440, Control_c, 3, 64, 127
5, 187440, Note_on_c, 3, 43, 61
5, 187560, Note_off_c, 3, 43, 0
5, 187560, Note_on_c, 3, 48, 58
5, 187680, Note_off_c, 3, 48, 0
5, 187680, Note_on_c, 3, 52, 56
5, 187800, Note_off_c, 3, 52, 0
5, 188160, Control_c, 3, 64, 0
5, 188400, Control_c, 3, 64, 127
5, 188400, Note_on_c, 3, 43, 76
5, 188520, Note_off_c, 3, 43, 0
5, 188520, Note_on_c, 3, 45, 73
5, 188640, Note_off_c, 3, 45, 0
5, 188640, Note_on_c, 3, 54, 71
5, 188760, Note_off_c, 3, 54, 0
5, 191040, Control_c, 3, 64, 0
5, 191040, Note_on_c, 3, 43, 41
5, 191280, Note_off_c, 3, 43, 0
5, 191520, Note_on_c, 3, 62, 43
5, 192000, Note_off_c, 3, 62, 0
5, 192000, Note_on_c, 3, 55, 36
5, 192240, Note_off_c, 3, 55, 0
5, 192480, Note_on_c, 3, 66, 38
5, 192960, Note_off_c, 3, 66, 0
5, 192960, Note_on_c, 3, 66, 35
5, 193920, Note_off_c, 3, 66, 0
5, 193920, Note_on_c, 3, 67, 29
5, 194160, Note_off_c, 3, 67, 0
5, 194880, Control_c, 3, 10, 55
5, 194880, Control_c, 3, 7, 122
5, 194880, Control_c, 3, 91, 91
5, 194880, Control_c, 3, 93, 28
5, 194880, Control_c, 3, 64, 0
5, 194880, Control_c, 3, 1, 0
5, 194880, Pitch_bend_c, 3, 8192
5, 194880, Control_c, 3, 0, 0
5, 194880, Control_c, 3, 32, 0
5, 194880, Program_c, 3, 0
5, 196800, Note_on_c, 3, 48, 38
5, 196920, Note_off_c, 3, 48, 0
5, 197280, Note_on_c, 3, 50, 39
5, 197400, Note_off_c, 3, 50, 0
5, 197760, Note_on_c, 3, 52, 41
5, 197880, Note_off_c, 3, 52, 0
5, 198240, Note_on_c, 3, 47, 42
5, 198360, Note_off_c, 3, 47, 0
5, 198720, Note_on_c, 3, 48, 44
5, 198840, Note_off_c, 3, 48, 0
5, 199200, Note_on_c, 3, 41, 47
5, 199320, Note_off_c, 3, 41, 0
5, 199680, Note_on_c, 3, 43, 55
5, 200160, Note_off_c, 3, 43, 0
5, 200160, Note_on_c, 3, 55, 52
5, 200520, Note_off_c, 3, 55, 0
5, 200520, Note_on_c, 3, 53, 48
5, 200640, Note_off_c, 3, 53, 0
5, 200640, Note_on_c, 3, 52, 48
5, 200760, Note_off_c, 3, 52, 0
5, 201120, Note_on_c, 3, 50, 46
5, 201240, Note_off_c, 3, 50, 0
5, 201600, Note_on_c, 3, 48, 45
5, 201720, Note_off_c, 3, 48, 0
5, 202080, Note_on_c, 3, 47, 43
5, 202200, Note_off_c, 3, 47, 0
5, 202560, Note_on_c, 3, 45, 42
5, 202680, Note_off_c, 3, 45, 0
5, 203040, Note_on_c, 3, 41, 41
5, 203160, Note_off_c, 3, 41, 0
5, 203520, Note_on_c, 3, 43, 39
5, 204480, Note_off_c, 3, 43, 0
5, 204480, Note_on_c, 3, 48, 39
5, 204600, Note_off_c, 3, 48, 0
5, 204960, Note_on_c, 3, 50, 43
5, 205080, Note_off_c, 3, 50, 0
5, 205440, Note_on_c, 3, 52, 46
5, 205560, Note_off_c, 3, 52, 0
5, 205920, Note_on_c, 3, 47, 50
5, 206040, Note_off_c, 3, 47, 0
5, 206400, Note_on_c, 3, 48, 53
5, 206520, Note_off_c, 3, 48, 0
5, 206880, Note_on_c, 3, 45, 59
5, 207000, Note_off_c, 3, 45, 0
5, 207360, Note_on_c, 3, 47, 68
5, 208320, Note_off_c, 3, 47, 0
5, 208320, Note_on_c, 3, 48, 67
5, 208440, Note_off_c, 3, 48, 0
5, 208800, Note_on_c, 3, 49, 71
5, 208920, Note_off_c, 3, 49, 0
5, 209280, Note_on_c, 3, 50, 84
5, 210240, Note_off_c, 3, 50, 0
5, 210240, Note_on_c, 3, 50, 52
5, 210360, Note_off_c, 3, 50, 0
5, 210720, Note_on_c, 3, 50, 48
5, 210840, Note_off_c, 3, 50, 0
5, 211200, Note_on_c, 3, 55, 44
5, 211356, Note_off_c, 3, 55, 0
5, 212040, Control_c, 3, 64, 0
5, 212160, Note_on_c, 3, 64, 42
5, 212640, Note_off_c, 3, 64, 0
5, 212640, Note_on_c, 3, 62, 44
5, 213120, Note_off_c, 3, 62, 0
5, 213120, Note_on_c, 3, 60, 46
5, 213600, Note_off_c, 3, 60, 0
5, 213600, Note_on_c, 3, 58, 48
5, 214080, Note_off_c, 3, 58, 0
5, 214080, Note_on_c, 3, 57, 52
5, 214560, Note_off_c, 3, 57, 0
5, 214560, Note_on_c, 3, 55, 47
5, 215040, Note_off_c, 3, 55, 0
5, 215040, Note_on_c, 3, 53, 42
5, 215700, Note_off_c, 3, 53, 0
5, 216000, Note_on_c, 3, 53, 44
5, 216480, Note_off_c, 3, 53, 0
5, 216480, Note_on_c, 3, 52, 47
5, 216960, Note_off_c, 3, 52, 0
5, 216960, Note_on_c, 3, 50, 50
5, 217440, Note_off_c, 3, 50, 0
5, 217440, Note_on_c, 3, 52, 53
5, 217920, Note_off_c, 3, 52, 0
5, 217920, Note_on_c, 3, 53, 55
5, 218400, Note_off_c, 3, 53, 0
5, 218400, Note_on_c, 3, 54, 58
5, 218880, Note_off_c, 3, 54, 0
5, 218880, Note_on_c, 3, 55, 61
5, 219360, Note_off_c, 3, 55, 0
5, 219360, Note_on_c, 3, 67, 66
5, 219720, Note_off_c, 3, 67, 0
5, 219720, Note_on_c, 3, 65, 55
5, 219840, Note_off_c, 3, 65, 0
5, 219840, Note_on_c, 3, 64, 47
5, 219960, Note_off_c, 3, 64, 0
5, 220320, Note_on_c, 3, 62, 43
5, 220440, Note_off_c, 3, 62, 0
5, 220800, Note_on_c, 3, 60, 44
5, 220920, Note_off_c, 3, 60, 0
5, 221280, Note_on_c, 3, 47, 46
5, 221400, Note_off_c, 3, 47, 0
5, 221760, Note_on_c, 3, 48, 49
5, 221880, Note_off_c, 3, 48, 0
5, 222240, Note_on_c, 3, 41, 52
5, 222360, Note_off_c, 3, 41, 0
5, 222720, Note_on_c, 3, 43, 60
5, 222876, Note_off_c, 3, 43, 0
5, 223440, Note_on_c, 3, 53, 75
5, 223680, Note_off_c, 3, 53, 0
5, 223680, Note_on_c, 3, 52, 79
5, 224160, Note_off_c, 3, 52, 0
5, 224160, Note_on_c, 3, 52, 84
5, 224640, Note_off_c, 3, 52, 0
5, 224640, Note_on_c, 3, 53, 76
5, 225600, Note_off_c, 3, 53, 0
5, 225600, Note_on_c, 3, 55, 55
5, 225720, Note_off_c, 3, 55, 0
5, 226080, Note_on_c, 3, 43, 49
5, 226200, Note_off_c, 3, 43, 0
5, 226560, Note_on_c, 3, 48, 43
5, 226800, Note_off_c, 3, 48, 0
5, 227520, Note_on_c, 3, 43, 42
5, 227640, Note_off_c, 3, 43, 0
5, 228000, Note_on_c, 3, 36, 59
5, 228180, Note_off_c, 3, 36, 0
5, 228480, Note_on_c, 3, 45, 49
5, 228600, Note_off_c, 3, 45, 0
5, 228960, Note_on_c, 3, 38, 68
5, 229140, Note_off_c, 3, 38, 0
5, 229440, Note_on_c, 3, 47, 57
5, 229560, Note_off_c, 3, 47, 0
5, 229920, Note_on_c, 3, 40, 75
5, 230100, Note_off_c, 3, 40, 0
5, 230400, Note_on_c, 3, 38, 78
5, 231360, Note_off_c, 3, 38, 0
5, 231360, Note_on_c, 3, 36, 56
5, 231840, Note_on_c, 3, 48, 48
5, 232305, Note_off_c, 3, 36, 0
5, 232320, Note_off_c, 3, 48, 0
5, 232320, Note_on_c, 3, 45, 46
5, 232800, Note_off_c, 3, 45, 0
5, 232800, Note_on_c, 3, 41, 44
5, 233280, Note_off_c, 3, 41, 0
5, 233280, Note_on_c, 3, 43, 42
5, 233400, Note_off_c, 3, 43, 0
5, 233760, Note_on_c, 3, 31, 40
5, 233880, Note_off_c, 3, 31, 0
5, 234240, Note_on_c, 3, 36, 38
5, 234396, Note_off_c, 3, 36, 0
5, 235080, Control_c, 3, 64, 0
5, 235200, Note_on_c, 3, 64, 42
5, 235680, Note_off_c, 3, 64, 0
5, 235680, Note_on_c, 3, 62, 44
5, 236160, Note_off_c, 3, 62, 0
5, 236160, Note_on_c, 3, 60, 46
5, 236640, Note_off_c, 3, 60, 0
5, 236640, Note_on_c, 3, 58, 48
5, 237120, Note_off_c, 3, 58, 0
5, 237120, Note_on_c, 3, 57, 52
5, 237600, Note_off_c, 3, 57, 0
5, 237600, Note_on_c, 3, 55, 47
5, 238080, Note_off_c, 3, 55, 0
5, 238080, Note_on_c, 3, 53, 42
5, 238740, Note_off_c, 3, 53, 0
5, 239040, Note_on_c, 3, 53, 44
5, 239520, Note_off_c, 3, 53, 0
5, 239520, Note_on_c, 3, 52, 47
5, 240000, Note_off_c, 3, 52, 0
5, 240000, Note_on_c, 3, 50, 50
5, 240480, Note_off_c, 3, 50, 0
5, 240480, Note_on_c, 3, 52, 53
5, 240960, Note_off_c, 3, 52, 0
5, 240960, Note_on_c, 3, 53, 55
5, 241440, Note_off_c, 3, 53, 0
5, 241440, Note_on_c, 3, 54, 58
5, 241920, Note_off_c, 3, 54, 0
5, 241920, Note_on_c, 3, 55, 61
5, 242400, Note_off_c, 3, 55, 0
5, 242400, Note_on_c, 3, 67, 66
5, 242760, Note_off_c, 3, 67, 0
5, 242760, Note_on_c, 3, 65, 55
5, 242880, Note_off_c, 3, 65, 0
5, 242880, Note_on_c, 3, 64, 47
5, 243000, Note_off_c, 3, 64, 0
5, 243360, Note_on_c, 3, 62, 43
5, 243480, Note_off_c, 3, 62, 0
5, 243840, Note_on_c, 3, 60, 44
5, 243960, Note_off_c, 3, 60, 0
5, 244320, Note_on_c, 3, 47, 46
5, 244440, Note_off_c, 3, 47, 0
5, 244800, Note_on_c, 3, 48, 49
5, 244920, Note_off_c, 3, 48, 0
5, 245280, Note_on_c, 3, 41, 52
5, 245400, Note_off_c, 3, 41, 0
5, 245760, Note_on_c, 3, 43, 60
5, 245916, Note_off_c, 3, 43, 0
5, 246480, Note_on_c, 3, 53, 75
5, 246720, Note_off_c, 3, 53, 0
5, 246720, Note_on_c, 3, 52, 79
5, 247200, Note_off_c, 3, 52, 0
5, 247200, Note_on_c, 3, 52, 84
5, 247680, Note_off_c, 3, 52, 0
5, 247680, Note_on_c, 3, 53, 76
5, 248640, Note_off_c, 3, 53, 0
5, 248640, Note_on_c, 3, 55, 55
5, 248760, Note_off_c, 3, 55, 0
5, 249120, Note_on_c, 3, 43, 49
5, 249240, Note_off_c, 3, 43, 0
5, 249600, Note_on_c, 3, 48, 43
5, 249840, Note_off_c, 3, 48, 0
5, 250560, Note_on_c, 3, 43, 42
5, 250680, Note_off_c, 3, 43, 0
5, 251040, Note_on_c, 3, 36, 59
5, 251220, Note_off_c, 3, 36, 0
5, 251520, Note_on_c, 3, 45, 49
5, 251640, Note_off_c, 3, 45, 0
5, 252000, Note_on_c, 3, 38, 68
5, 252180, Note_off_c, 3, 38, 0
5, 252480, Note_on_c, 3, 47, 57
5, 252600, Note_off_c, 3, 47, 0
5, 252960, Note_on_c, 3, 40, 75
5, 253140, Note_off_c, 3, 40, 0
5, 253440, Note_on_c, 3, 38, 78
5, 254400, Note_off_c, 3, 38, 0
5, 254400, Note_on_c, 3, 36, 56
5, 254880, Note_on_c, 3, 48, 48
5, 255345, Note_off_c, 3, 36, 0
5, 255360, Note_off_c, 3, 48, 0
5, 255360, Note_on_c, 3, 45, 46
5, 255840, Note_off_c, 3, 45, 0
5, 255840, Note_on_c, 3, 41, 44
5, 256320, Note_off_c, 3, 41, 0
5, 256320, Note_on_c, 3, 43, 42
5, 256440, Note_off_c, 3, 43, 0
5, 256800, Note_on_c, 3, 31, 40
5, 256920, Note_off_c, 3, 31, 0
5, 257280, Note_on_c, 3, 36, 38
5, 257436, Note_off_c, 3, 36, 0
5, 258120, Control_c, 3, 64, 0
5, 258120, Note_on_c, 3, 55, 38
5, 258240, Note_on_c, 3, 52, 38
5, 258240, Note_on_c, 3, 60, 38
5, 258244, Note_off_c, 3, 55, 0
5, 258720, Note_off_c, 3, 60, 0
5, 258720, Note_off_c, 3, 52, 0
5, 258720, Note_on_c, 3, 53, 41
5, 258720, Note_on_c, 3, 59, 41
5, 259200, Note_off_c, 3, 59, 0
5, 259200, Note_off_c, 3, 53, 0
5, 259200, Note_on_c, 3, 52, 44
5, 259200, Note_on_c, 3, 60, 44
5, 259680, Note_off_c, 3, 60, 0
5, 259680, Note_off_c, 3, 52, 0
5, 259680, Note_on_c, 3, 59, 47
5, 259680, Note_on_c, 3, 62, 47
5, 260160, Note_off_c, 3, 62, 0
5, 260160, Note_off_c, 3, 59, 0
5, 260160, Note_on_c, 3, 60, 51
5, 260160, Note_on_c, 3, 64, 51
5, 260640, Note_off_c, 3, 64, 0
5, 260640, Note_off_c, 3, 60, 0
5, 260640, Note_on_c, 3, 62, 57
5, 260640, Note_on_c, 3, 65, 57
5, 261120, Note_off_c, 3, 65, 0
5, 261120, Note_off_c, 3, 62, 0
5, 261120, Note_on_c, 3, 62, 66
5, 261120, Note_on_c, 3, 59, 66
5, 262080, Note_off_c, 3, 59, 0
5, 262080, Note_off_c, 3, 62, 0
5, 262080, Note_on_c, 3, 64, 55
5, 262080, Note_on_c, 3, 67, 55
5, 262560, Note_off_c, 3, 67, 0
5, 262560, Note_off_c, 3, 64, 0
5, 262560, Note_on_c, 3, 62, 52
5, 262560, Note_on_c, 3, 67, 52
5, 263040, Note_off_c, 3, 67, 0
5, 263040, Note_off_c, 3, 62, 0
5, 263040, Note_on_c, 3, 60, 49
5, 263040, Note_on_c, 3, 67, 49
5, 263520, Note_off_c, 3, 67, 0
5, 263520, Note_off_c, 3, 60, 0
5, 263520, Note_on_c, 3, 59, 46
5, 263520, Note_on_c, 3, 68, 46
5, 264000, Note_off_c, 3, 68, 0
5, 264000, Note_off_c, 3, 59, 0
5, 264000, Note_on_c, 3, 57, 44
5, 264000, Note_on_c, 3, 69, 44
5, 264480, Note_off_c, 3, 69, 0
5, 264480, Note_off_c, 3, 57, 0
5, 264480, Note_on_c, 3, 53, 41
5, 264480, Note_on_c, 3, 69, 41
5, 264960, Note_off_c, 3, 69, 0
5, 264960, Note_off_c, 3, 53, 0
5, 264960, Note_on_c, 3, 55, 38
5, 264960, Note_on_c, 3, 62, 38
5, 265920, Note_off_c, 3, 62, 0
5, 265920, Note_off_c, 3, 55, 0
5, 265920, Note_on_c, 3, 52, 38
5, 265920, Note_on_c, 3, 60, 38
5, 266400, Note_off_c, 3, 60, 0
5, 266400, Note_off_c, 3, 52, 0
5, 266400, Note_on_c, 3, 53, 41
5, 266400, Note_on_c, 3, 59, 41
5, 266880, Note_off_c, 3, 59, 0
5, 266880, Note_off_c, 3, 53, 0
5, 266880, Note_on_c, 3, 52, 44
5, 266880, Note_on_c, 3, 60, 44
5, 267360, Note_off_c, 3, 60, 0
5, 267360, Note_off_c, 3, 52, 0
5, 267360, Note_on_c, 3, 62, 46
5, 267360, Note_on_c, 3, 59, 46
5, 267840, Note_off_c, 3, 59, 0
5, 267840, Note_off_c, 3, 62, 0
5, 267840, Note_on_c, 3, 60, 49
5, 267840, Note_on_c, 3, 64, 49
5, 268320, Note_off_c, 3, 64, 0
5, 268320, Note_off_c, 3, 60, 0
5, 268320, Note_on_c, 3, 57, 53
5, 268320, Note_on_c, 3, 66, 53
5, 268800, Note_off_c, 3, 66, 0
5, 268800, Note_off_c, 3, 57, 0
5, 268800, Note_on_c, 3, 59, 65
5, 268800, Note_on_c, 3, 67, 65
5, 269760, Note_off_c, 3, 67, 0
5, 269760, Note_off_c, 3, 59, 0
5, 269760, Note_on_c, 3, 60, 59
5, 269760, Note_on_c, 3, 69, 59
5, 270240, Note_off_c, 3, 69, 0
5, 270240, Note_off_c, 3, 60, 0
5, 270240, Note_on_c, 3, 61, 61
5, 270240, Note_on_c, 3, 70, 61
5, 270720, Note_off_c, 3, 70, 0
5, 270720, Note_off_c, 3, 61, 0
5, 270720, Note_on_c, 3, 62, 70
5, 270720, Note_on_c, 3, 71, 70
5, 271680, Note_off_c, 3, 71, 0
5, 271680, Note_off_c, 3, 62, 0
5, 271680, Note_on_c, 3, 62, 71
5, 271680, Note_on_c, 3, 72, 71
5, 272160, Note_off_c, 3, 72, 0
5, 272160, Note_off_c, 3, 62, 0
5, 272160, Note_on_c, 3, 62, 66
5, 272160, Note_on_c, 3, 69, 66
5, 272640, Note_off_c, 3, 69, 0
5, 272640, Note_off_c, 3, 62, 0
5, 272640, Note_on_c, 3, 67, 61
5, 272640, Note_on_c, 3, 55, 61
5, 273600, Control_c, 3, 64, 0
5, 273600, Note_off_c, 3, 55, 0
5, 273600, Note_off_c, 3, 67, 0
5, 273600, Note_on_c, 3, 64, 44
5, 273600, Note_on_c, 3, 67, 44
5, 274080, Note_off_c, 3, 67, 0
5, 274080, Note_off_c, 3, 64, 0
5, 274080, Note_on_c, 3, 65, 46
5, 274080, Note_on_c, 3, 62, 46
5, 274560, Note_off_c, 3, 62, 0
5, 274560, Note_off_c, 3, 65, 0
5, 274560, Note_on_c, 3, 60, 48
5, 274560, Note_on_c, 3, 64, 48
5, 275040, Note_off_c, 3, 64, 0
5, 275040, Note_off_c, 3, 60, 0
5, 275040, Note_on_c, 3, 64, 52
5, 275040, Note_on_c, 3, 58, 52
5, 275520, Note_off_c, 3, 58, 0
5, 275520, Note_off_c, 3, 64, 0
5, 275520, Note_on_c, 3, 72, 60
5, 275520, Note_on_c, 3, 60, 58
5, 275520, Note_on_c, 3, 57, 58
5, 276000, Note_off_c, 3, 57, 0
5, 276000, Note_off_c, 3, 60, 0
5, 276000, Note_off_c, 3, 72, 0
5, 276000, Note_on_c, 3, 70, 51
5, 276000, Note_on_c, 3, 60, 51
5, 276000, Note_on_c, 3, 55, 51
5, 276480, Note_off_c, 3, 55, 0
5, 276480, Note_off_c, 3, 60, 0
5, 276480, Note_off_c, 3, 70, 0
5, 276480, Note_on_c, 3, 69, 46
5, 276480, Note_on_c, 3, 60, 46
5, 276480, Note_on_c, 3, 53, 46
5, 277440, Note_off_c, 3, 53, 0
5, 277440, Note_off_c, 3, 60, 0
5, 277440, Note_off_c, 3, 69, 0
5, 277440, Note_on_c, 3, 69, 42
5, 277440, Note_on_c, 3, 65, 42
5, 277920, Note_off_c, 3, 65, 0
5, 277920, Note_off_c, 3, 69, 0
5, 277920, Note_on_c, 3, 67, 46
5, 277920, Note_on_c, 3, 61, 46
5, 278400, Note_off_c, 3, 61, 0
5, 278400, Note_off_c, 3, 67, 0
5, 278400, Note_on_c, 3, 65, 50
5, 278400, Note_on_c, 3, 62, 50
5, 278880, Note_off_c, 3, 62, 0
5, 278880, Note_off_c, 3, 65, 0
5, 278880, Note_on_c, 3, 64, 54
5, 278880, Note_on_c, 3, 55, 54
5, 279360, Note_off_c, 3, 55, 0
5, 279360, Note_off_c, 3, 64, 0
5, 279360, Note_on_c, 3, 62, 58
5, 279360, Note_on_c, 3, 53, 58
5, 279840, Note_off_c, 3, 53, 0
5, 279840, Note_off_c, 3, 62, 0
5, 279840, Note_on_c, 3, 60, 62
5, 279840, Note_on_c, 3, 54, 62
5, 280320, Note_off_c, 3, 54, 0
5, 280320, Note_off_c, 3, 60, 0
5, 280320, Note_on_c, 3, 55, 72
5, 280320, Note_on_c, 3, 60, 72
5, 280800, Note_off_c, 3, 60, 0
5, 280800, Note_on_c, 3, 59, 59
5, 281280, Note_off_c, 3, 59, 0
5, 281280, Note_off_c, 3, 55, 0
5, 281280, Note_on_c, 3, 60, 44
5, 281280, Note_on_c, 3, 52, 44
5, 281760, Note_off_c, 3, 52, 0
5, 281760, Note_off_c, 3, 60, 0
5, 281760, Note_on_c, 3, 53, 46
5, 281760, Note_on_c, 3, 59, 46
5, 282240, Note_off_c, 3, 59, 0
5, 282240, Note_off_c, 3, 53, 0
5, 282240, Note_on_c, 3, 60, 48
5, 282240, Note_on_c, 3, 52, 48
5, 282720, Note_off_c, 3, 52, 0
5, 282720, Note_off_c, 3, 60, 0
5, 282720, Note_on_c, 3, 59, 50
5, 282720, Note_on_c, 3, 62, 50
5, 283200, Note_off_c, 3, 62, 0
5, 283200, Note_off_c, 3, 59, 0
5, 283200, Note_on_c, 3, 64, 52
5, 283200, Note_on_c, 3, 60, 52
5, 283680, Note_off_c, 3, 60, 0
5, 283680, Note_off_c, 3, 64, 0
5, 283680, Note_on_c, 3, 65, 54
5, 283680, Note_on_c, 3, 62, 54
5, 284160, Note_off_c, 3, 62, 0
5, 284160, Note_off_c, 3, 65, 0
5, 284160, Note_on_c, 3, 59, 56
5, 284160, Note_on_c, 3, 62, 56
5, 284640, Note_off_c, 3, 62, 0
5, 284640, Note_off_c, 3, 59, 0
5, 284640, Note_on_c, 3, 67, 58
5, 284640, Note_on_c, 3, 65, 58
5, 285120, Note_off_c, 3, 65, 0
5, 285120, Note_off_c, 3, 67, 0
5, 285120, Note_on_c, 3, 67, 63
5, 285120, Note_on_c, 3, 64, 63
5, 285600, Note_off_c, 3, 64, 0
5, 285600, Note_off_c, 3, 67, 0
5, 285600, Note_on_c, 3, 67, 67
5, 285600, Note_on_c, 3, 58, 67
5, 286080, Note_off_c, 3, 58, 0
5, 286080, Note_off_c, 3, 67, 0
5, 286080, Note_on_c, 3, 67, 71
5, 286080, Note_on_c, 3, 57, 71
5, 286560, Note_off_c, 3, 57, 0
5, 286560, Note_off_c, 3, 67, 0
5, 286560, Note_on_c, 3, 65, 76
5, 286560, Note_on_c, 3, 57, 76
5, 287040, Note_off_c, 3, 57, 0
5, 287040, Note_off_c, 3, 65, 0
5, 287040, Note_on_c, 3, 64, 61
5, 287040, Note_on_c, 3, 55, 61
5, 287520, Note_off_c, 3, 55, 0
5, 287520, Note_off_c, 3, 64, 0
5, 287520, Note_on_c, 3, 62, 56
5, 287520, Note_on_c, 3, 55, 56
5, 288000, Note_off_c, 3, 55, 0
5, 288000, Note_off_c, 3, 62, 0
5, 288000, Note_on_c, 3, 60, 49
5, 288000, Note_on_c, 3, 48, 49
5, 288480, Note_off_c, 3, 48, 0
5, 288480, Note_off_c, 3, 60, 0
5, 288960, Note_on_c, 3, 43, 55
5, 289440, Note_off_c, 3, 43, 0
5, 289440, Note_on_c, 3, 36, 41
5, 289560, Note_off_c, 3, 36, 0
5, 289920, Note_on_c, 3, 45, 60
5, 290400, Note_off_c, 3, 45, 0
5, 290400, Note_on_c, 3, 38, 46
5, 290520, Note_off_c, 3, 38, 0
5, 290880, Note_on_c, 3, 47, 68
5, 291360, Note_off_c, 3, 47, 0
5, 291360, Note_on_c, 3, 40, 52
5, 291480, Note_off_c, 3, 40, 0
5, 291840, Note_on_c, 3, 50, 75
5, 291840, Note_on_c, 3, 38, 75
5, 292800, Note_off_c, 3, 38, 0
5, 292800, Note_off_c, 3, 50, 0
5, 292800, Note_on_c, 3, 36, 61
5, 293280, Note_on_c, 3, 48, 66
5, 293745, Note_off_c, 3, 36, 0
5, 293760, Note_off_c, 3, 48, 0
5, 293760, Note_on_c, 3, 45, 70
5, 294240, Note_off_c, 3, 45, 0
5, 294240, Note_on_c, 3, 41, 74
5, 294720, Note_off_c, 3, 41, 0
5, 294720, Note_on_c, 3, 43, 58
5, 295200, Note_off_c, 3, 43, 0
5, 295200, Note_on_c, 3, 31, 50
5, 295680, Note_off_c, 3, 31, 0
5, 295680, Note_on_c, 3, 36, 42
5, 296160, Note_off_c, 3, 36, 0
5, 296640, Control_c, 3, 64, 0
5, 296640, Note_on_c, 3, 67, 44
5, 296640, Note_on_c, 3, 64, 44
5, 297120, Note_off_c, 3, 64, 0
5, 297120, Note_off_c, 3, 67, 0
5, 297120, Note_on_c, 3, 62, 46
5, 297120, Note_on_c, 3, 65, 46
5, 297600, Note_off_c, 3, 65, 0
5, 297600, Note_off_c, 3, 62, 0
5, 297600, Note_on_c, 3, 64, 48
5, 297600, Note_on_c, 3, 60, 48
5, 298080, Note_off_c, 3, 60, 0
5, 298080, Note_off_c, 3, 64, 0
5, 298080, Note_on_c, 3, 58, 54
5, 298080, Note_on_c, 3, 64, 54
5, 298560, Note_off_c, 3, 64, 0
5, 298560, Note_off_c, 3, 58, 0
5, 298560, Note_on_c, 3, 57, 58
5, 298560, Note_on_c, 3, 60, 58
5, 298560, Note_on_c, 3, 72, 60
5, 299040, Note_off_c, 3, 72, 0
5, 299040, Note_off_c, 3, 60, 0
5, 299040, Note_off_c, 3, 57, 0
5, 299040, Note_on_c, 3, 55, 51
5, 299040, Note_on_c, 3, 60, 51
5, 299040, Note_on_c, 3, 70, 52
5, 299520, Note_off_c, 3, 70, 0
5, 299520, Note_off_c, 3, 60, 0
5, 299520, Note_off_c, 3, 55, 0
5, 299520, Note_on_c, 3, 53, 46
5, 299520, Note_on_c, 3, 60, 46
5, 299520, Note_on_c, 3, 69, 46
5, 300480, Note_off_c, 3, 69, 0
5, 300480, Note_off_c, 3, 60, 0
5, 300480, Note_off_c, 3, 53, 0
5, 300480, Note_on_c, 3, 65, 42
5, 300480, Note_on_c, 3, 69, 42
5, 300960, Note_off_c, 3, 69, 0
5, 300960, Note_off_c, 3, 65, 0
5, 300960, Note_on_c, 3, 61, 46
5, 300960, Note_on_c, 3, 67, 46
5, 301440, Note_off_c, 3, 67, 0
5, 301440, Note_off_c, 3, 61, 0
5, 301440, Note_on_c, 3, 62, 50
5, 301440, Note_on_c, 3, 65, 50
5, 301920, Note_off_c, 3, 65, 0
5, 301920, Note_off_c, 3, 62, 0
5, 301920, Note_on_c, 3, 55, 54
5, 301920, Note_on_c, 3, 64, 54
5, 302400, Note_off_c, 3, 64, 0
5, 302400, Note_off_c, 3, 55, 0
5, 302400, Note_on_c, 3, 53, 58
5, 302400, Note_on_c, 3, 62, 58
5, 302880, Note_off_c, 3, 62, 0
5, 302880, Note_off_c, 3, 53, 0
5, 302880, Note_on_c, 3, 54, 62
5, 302880, Note_on_c, 3, 60, 62
5, 303360, Note_off_c, 3, 60, 0
5, 303360, Note_off_c, 3, 54, 0
5, 303360, Note_on_c, 3, 60, 72
5, 303360, Note_on_c, 3, 55, 72
5, 303840, Note_off_c, 3, 60, 0
5, 303840, Note_on_c, 3, 59, 59
5, 304320, Note_off_c, 3, 59, 0
5, 304320, Note_off_c, 3, 55, 0
5, 304320, Note_on_c, 3, 52, 44
5, 304320, Note_on_c, 3, 60, 44
5, 304800, Note_off_c, 3, 60, 0
5, 304800, Note_off_c, 3, 52, 0
5, 304800, Note_on_c, 3, 59, 46
5, 304800, Note_on_c, 3, 53, 46
5, 305280, Note_off_c, 3, 53, 0
5, 305280, Note_off_c, 3, 59, 0
5, 305280, Note_on_c, 3, 52, 48
5, 305280, Note_on_c, 3, 60, 48
5, 305760, Note_off_c, 3, 60, 0
5, 305760, Note_off_c, 3, 52, 0
5, 305760, Note_on_c, 3, 62, 50
5, 305760, Note_on_c, 3, 59, 50
5, 306240, Note_off_c, 3, 59, 0
5, 306240, Note_off_c, 3, 62, 0
5, 306240, Note_on_c, 3, 60, 52
5, 306240, Note_on_c, 3, 64, 52
5, 306720, Note_off_c, 3, 64, 0
5, 306720, Note_off_c, 3, 60, 0
5, 306720, Note_on_c, 3, 62, 54
5, 306720, Note_on_c, 3, 65, 54
5, 307200, Note_off_c, 3, 65, 0
5, 307200, Note_off_c, 3, 62, 0
5, 307200, Note_on_c, 3, 62, 56
5, 307200, Note_on_c, 3, 59, 56
5, 307680, Note_off_c, 3, 59, 0
5, 307680, Note_off_c, 3, 62, 0
5, 307680, Note_on_c, 3, 65, 58
5, 307680, Note_on_c, 3, 67, 58
5, 308160, Note_off_c, 3, 67, 0
5, 308160, Note_off_c, 3, 65, 0
5, 308160, Note_on_c, 3, 64, 63
5, 308160, Note_on_c, 3, 67, 63
5, 308640, Note_off_c, 3, 67, 0
5, 308640, Note_off_c, 3, 64, 0
5, 308640, Note_on_c, 3, 58, 67
5, 308640, Note_on_c, 3, 67, 67
5, 309120, Note_off_c, 3, 67, 0
5, 309120, Note_off_c, 3, 58, 0
5, 309120, Note_on_c, 3, 57, 71
5, 309120, Note_on_c, 3, 67, 71
5, 309600, Note_off_c, 3, 67, 0
5, 309600, Note_off_c, 3, 57, 0
5, 309600, Note_on_c, 3, 57, 76
5, 309600, Note_on_c, 3, 65, 76
5, 310080, Note_off_c, 3, 65, 0
5, 310080, Note_off_c, 3, 57, 0
5, 310080, Note_on_c, 3, 55, 61
5, 310080, Note_on_c, 3, 64, 61
5, 310560, Note_off_c, 3, 64, 0
5, 310560, Note_off_c, 3, 55, 0
5, 310560, Note_on_c, 3, 55, 56
5, 310560, Note_on_c, 3, 62, 56
5, 311040, Note_off_c, 3, 62, 0
5, 311040, Note_off_c, 3, 55, 0
5, 311040, Note_on_c, 3, 48, 49
5, 311040, Note_on_c, 3, 60, 49
5, 311520, Note_off_c, 3, 60, 0
5, 311520, Note_off_c, 3, 48, 0
5, 312000, Note_on_c, 3, 43, 55
5, 312480, Note_off_c, 3, 43, 0
5, 312480, Note_on_c, 3, 36, 41
5, 312600, Note_off_c, 3, 36, 0
5, 312960, Note_on_c, 3, 45, 60
5, 313440, Note_off_c, 3, 45, 0
5, 313440, Note_on_c, 3, 38, 46
5, 313560, Note_off_c, 3, 38, 0
5, 313920, Note_on_c, 3, 47, 68
5, 314400, Note_off_c, 3, 47, 0
5, 314400, Note_on_c, 3, 40, 52
5, 314520, Note_off_c, 3, 40, 0
5, 314880, Note_on_c, 3, 38, 75
5, 314880, Note_on_c, 3, 50, 75
5, 315840, Note_off_c, 3, 50, 0
5, 315840, Note_off_c, 3, 38, 0
5, 315840, Note_on_c, 3, 36, 61
5, 316320, Note_on_c, 3, 48, 66
5, 316785, Note_off_c, 3, 36, 0
5, 316800, Note_off_c, 3, 48, 0
5, 316800, Note_on_c, 3, 45, 70
5, 317280, Note_off_c, 3, 45, 0
5, 317280, Note_on_c, 3, 41, 74
5, 317760, Note_off_c, 3, 41, 0
5, 317760, Note_on_c, 3, 43, 58
5, 318240, Note_off_c, 3, 43, 0
5, 318240, Note_on_c, 3, 31, 50
5, 318720, Note_off_c, 3, 31, 0
5, 318720, Note_on_c, 3, 36, 42
5, 319200, Note_off_c, 3, 36, 0
5, 319680, Control_c, 3, 64, 0
5, 319680, Note_on_c, 3, 48, 36
5, 319800, Note_off_c, 3, 48, 0
5, 320160, Note_on_c, 3, 48, 38
5, 320280, Note_off_c, 3, 48, 0
5, 320640, Note_on_c, 3, 48, 40
5, 320760, Note_off_c, 3, 48, 0
5, 321120, Note_on_c, 3, 48, 42
5, 321240, Note_off_c, 3, 48, 0
5, 321600, Note_on_c, 3, 48, 45
5, 321720, Note_off_c, 3, 48, 0
5, 322080, Note_on_c, 3, 48, 47
5, 322200, Note_off_c, 3, 48, 0
5, 322560, Note_on_c, 3, 48, 49
5, 322680, Note_off_c, 3, 48, 0
5, 323040, Note_on_c, 3, 48, 42
5, 323160, Note_off_c, 3, 48, 0
5, 323520, Note_on_c, 3, 36, 40
5, 323640, Note_off_c, 3, 36, 0
5, 324000, Note_on_c, 3, 36, 43
5, 324120, Note_off_c, 3, 36, 0
5, 324480, Note_on_c, 3, 36, 47
5, 324600, Note_off_c, 3, 36, 0
5, 324960, Note_on_c, 3, 36, 50
5, 325080, Note_off_c, 3, 36, 0
5, 325440, Note_on_c, 3, 41, 54
5, 325560, Note_off_c, 3, 41, 0
5, 325920, Note_on_c, 3, 38, 60
5, 326040, Note_off_c, 3, 38, 0
5, 326400, Note_on_c, 3, 43, 66
5, 326520, Note_off_c, 3, 43, 0
5, 326640, Note_on_c, 3, 55, 79
5, 327360, Note_off_c, 3, 55, 0
5, 327360, Note_on_c, 3, 48, 42
5, 327480, Note_off_c, 3, 48, 0
5, 327840, Note_on_c, 3, 48, 45
5, 327960, Note_off_c, 3, 48, 0
5, 328320, Note_on_c, 3, 48, 48
5, 328440, Note_off_c, 3, 48, 0
5, 328800, Note_on_c, 3, 47, 51
5, 328920, Note_off_c, 3, 47, 0
5, 329280, Note_on_c, 3, 48, 53
5, 329400, Note_off_c, 3, 48, 0
5, 329760, Note_on_c, 3, 45, 56
5, 329880, Note_off_c, 3, 45, 0
5, 330240, Note_on_c, 3, 47, 63
5, 330960, Note_off_c, 3, 47, 0
5, 331200, Note_on_c, 3, 48, 64
5, 331320, Note_off_c, 3, 48, 0
5, 331680, Note_on_c, 3, 49, 67
5, 331800, Note_off_c, 3, 49, 0
5, 332160, Note_on_c, 3, 50, 79
5, 332880, Note_off_c, 3, 50, 0
5, 333120, Note_on_c, 3, 50, 72
5, 333240, Note_off_c, 3, 50, 0
5, 333600, Note_on_c, 3, 50, 69
5, 333720, Note_off_c, 3, 50, 0
5, 334080, Note_on_c, 3, 43, 82
5, 334560, Note_off_c, 3, 43, 0
5, 335040, Control_c, 3, 64, 0
5, 335040, Note_on_c, 3, 55, 36
5, 335160, Note_off_c, 3, 55, 0
5, 335520, Note_on_c, 3, 55, 38
5, 335640, Note_off_c, 3, 55, 0
5, 336000, Note_on_c, 3, 55, 40
5, 336120, Note_off_c, 3, 55, 0
5, 336480, Note_on_c, 3, 55, 42
5, 336600, Note_off_c, 3, 55, 0
5, 336960, Note_on_c, 3, 57, 44
5, 337080, Note_off_c, 3, 57, 0
5, 337440, Note_on_c, 3, 55, 46
5, 337560, Note_off_c, 3, 55, 0
5, 337920, Note_on_c, 3, 53, 48
5, 338040, Note_off_c, 3, 53, 0
5, 338400, Note_on_c, 3, 53, 50
5, 338520, Note_off_c, 3, 53, 0
5, 338880, Note_on_c, 3, 53, 53
5, 339000, Note_off_c, 3, 53, 0
5, 339360, Note_on_c, 3, 53, 52
5, 339480, Note_off_c, 3, 53, 0
5, 339840, Note_on_c, 3, 53, 50
5, 339960, Note_off_c, 3, 53, 0
5, 340320, Note_on_c, 3, 41, 48
5, 340440, Note_off_c, 3, 41, 0
5, 340800, Note_on_c, 3, 41, 46
5, 340920, Note_off_c, 3, 41, 0
5, 341280, Note_on_c, 3, 42, 44
5, 341400, Note_off_c, 3, 42, 0
5, 341760, Note_on_c, 3, 43, 42
5, 342000, Note_off_c, 3, 43, 0
5, 342000, Note_on_c, 3, 55, 70
5, 342480, Note_off_c, 3, 55, 0
5, 342480, Note_on_c, 3, 53, 57
5, 342560, Note_off_c, 3, 53, 0
5, 342560, Note_on_c, 3, 52, 53
5, 342640, Note_off_c, 3, 52, 0
5, 342640, Note_on_c, 3, 50, 49
5, 342720, Note_off_c, 3, 50, 0
5, 342720, Note_on_c, 3, 48, 45
5, 342840, Note_off_c, 3, 48, 0
5, 343200, Note_on_c, 3, 48, 41
5, 343320, Note_off_c, 3, 48, 0
5, 343680, Note_on_c, 3, 48, 42
5, 343800, Note_off_c, 3, 48, 0
5, 344160, Note_on_c, 3, 48, 44
5, 344280, Note_off_c, 3, 48, 0
5, 344640, Note_on_c, 3, 48, 45
5, 344760, Note_off_c, 3, 48, 0
5, 345120, Note_on_c, 3, 48, 47
5, 345240, Note_off_c, 3, 48, 0
5, 345600, Note_on_c, 3, 48, 48
5, 345720, Note_off_c, 3, 48, 0
5, 346080, Note_on_c, 3, 48, 45
5, 346200, Note_off_c, 3, 48, 0
5, 346560, Note_on_c, 3, 53, 43
5, 346680, Note_off_c, 3, 53, 0
5, 347040, Note_on_c, 3, 52, 50
5, 347160, Note_off_c, 3, 52, 0
5, 347520, Note_on_c, 3, 53, 57
5, 347640, Note_off_c, 3, 53, 0
5, 348000, Note_on_c, 3, 53, 65
5, 348120, Note_off_c, 3, 53, 0
5, 348480, Note_on_c, 3, 43, 61
5, 348600, Note_off_c, 3, 43, 0
5, 348960, Note_on_c, 3, 43, 53
5, 349080, Note_off_c, 3, 43, 0
5, 349440, Note_on_c, 3, 48, 45
5, 349560, Note_off_c, 3, 48, 0
5, 350400, Note_on_c, 3, 43, 48
5, 350520, Note_off_c, 3, 43, 0
5, 350880, Note_on_c, 3, 36, 43
5, 351000, Note_off_c, 3, 36, 0
5, 351360, Note_on_c, 3, 45, 58
5, 351480, Note_off_c, 3, 45, 0
5, 351840, Note_on_c, 3, 38, 52
5, 351960, Note_off_c, 3, 38, 0
5, 352320, Note_on_c, 3, 47, 68
5, 352440, Note_off_c, 3, 47, 0
5, 352800, Note_on_c, 3, 40, 61
5, 352920, Note_off_c, 3, 40, 0
5, 353280, Note_on_c, 3, 50, 84
5, 353280, Note_on_c, 3, 38, 84
5, 354240, Note_off_c, 3, 38, 0
5, 354240, Note_off_c, 3, 50, 0
5, 354240, Note_on_c, 3, 36, 68
5, 354360, Note_off_c, 3, 36, 0
5, 354720, Note_on_c, 3, 48, 64
5, 354840, Note_off_c, 3, 48, 0
5, 355200, Note_on_c, 3, 45, 60
5, 355320, Note_off_c, 3, 45, 0
5, 355680, Note_on_c, 3, 41, 56
5, 355800, Note_off_c, 3, 41, 0
5, 356160, Note_on_c, 3, 43, 52
5, 356280, Note_off_c, 3, 43, 0
5, 356640, Note_on_c, 3, 31, 47
5, 356760, Note_off_c, 3, 31, 0
5, 357120, Note_on_c, 3, 36, 43
5, 357240, Note_off_c, 3, 36, 0
5, 358080, Control_c, 3, 64, 0
5, 358080, Note_on_c, 3, 55, 36
5, 358200, Note_off_c, 3, 55, 0
5, 358560, Note_on_c, 3, 55, 38
5, 358680, Note_off_c, 3, 55, 0
5, 359040, Note_on_c, 3, 55, 40
5, 359160, Note_off_c, 3, 55, 0
5, 359520, Note_on_c, 3, 55, 42
5, 359640, Note_off_c, 3, 55, 0
5, 360000, Note_on_c, 3, 57, 44
5, 360120, Note_off_c, 3, 57, 0
5, 360480, Note_on_c, 3, 55, 46
5, 360600, Note_off_c, 3, 55, 0
5, 360960, Note_on_c, 3, 53, 48
5, 361080, Note_off_c, 3, 53, 0
5, 361440, Note_on_c, 3, 53, 50
5, 361560, Note_off_c, 3, 53, 0
5, 361920, Note_on_c, 3, 53, 53
5, 362040, Note_off_c, 3, 53, 0
5, 362400, Note_on_c, 3, 53, 52
5, 362520, Note_off_c, 3, 53, 0
5, 362880, Note_on_c, 3, 53, 50
5, 363000, Note_off_c, 3, 53, 0
5, 363360, Note_on_c, 3, 41, 48
5, 363480, Note_off_c, 3, 41, 0
5, 363840, Note_on_c, 3, 41, 46
5, 363960, Note_off_c, 3, 41, 0
5, 364320, Note_on_c, 3, 42, 44
5, 364440, Note_off_c, 3, 42, 0
5, 364800, Note_on_c, 3, 43, 42
5, 365040, Note_off_c, 3, 43, 0
5, 365040, Note_on_c, 3, 55, 70
5, 365520, Note_off_c, 3, 55, 0
5, 365520, Note_on_c, 3, 53, 57
5, 365600, Note_off_c, 3, 53, 0
5, 365600, Note_on_c, 3, 52, 53
5, 365680, Note_off_c, 3, 52, 0
5, 365680, Note_on_c, 3, 50, 49
5, 365760, Note_off_c, 3, 50, 0
5, 365760, Note_on_c, 3, 48, 45
5, 365880, Note_off_c, 3, 48, 0
5, 366240, Note_on_c, 3, 48, 41
5, 366360, Note_off_c, 3, 48, 0
5, 366720, Note_on_c, 3, 48, 42
5, 366840, Note_off_c, 3, 48, 0
5, 367200, Note_on_c, 3, 48, 44
5, 367320, Note_off_c, 3, 48, 0
5, 367680, Note_on_c, 3, 48, 45
5, 367800, Note_off_c, 3, 48, 0
5, 368160, Note_on_c, 3, 48, 47
5, 368280, Note_off_c, 3, 48, 0
5, 368640, Note_on_c, 3, 48, 48
5, 368760, Note_off_c, 3, 48, 0
5, 369120, Note_on_c, 3, 48, 45
5, 369240, Note_off_c, 3, 48, 0
5, 369600, Note_on_c, 3, 53, 43
5, 369720, Note_off_c, 3, 53, 0
5, 370080, Note_on_c, 3, 52, 50
5, 370200, Note_off_c, 3, 52, 0
5, 370560, Note_on_c, 3, 53, 57
5, 370680, Note_off_c, 3, 53, 0
5, 371040, Note_on_c, 3, 53, 65
5, 371160, Note_off_c, 3, 53, 0
5, 371520, Note_on_c, 3, 43, 61
5, 371640, Note_off_c, 3, 43, 0
5, 372000, Note_on_c, 3, 43, 53
5, 372120, Note_off_c, 3, 43, 0
5, 372480, Note_on_c, 3, 48, 45
5, 372600, Note_off_c, 3, 48, 0
5, 373440, Note_on_c, 3, 43, 50
5, 373560, Note_off_c, 3, 43, 0
5, 373920, Note_on_c, 3, 36, 43
5, 374040, Note_off_c, 3, 36, 0
5, 374400, Note_on_c, 3, 45, 59
5, 374520, Note_off_c, 3, 45, 0
5, 374880, Note_on_c, 3, 38, 52
5, 375000, Note_off_c, 3, 38, 0
5, 375360, Note_on_c, 3, 47, 72
5, 375480, Note_off_c, 3, 47, 0
5, 375840, Note_on_c, 3, 40, 61
5, 375960, Note_off_c, 3, 40, 0
5, 376320, Note_on_c, 3, 38, 88
5, 376320, Note_on_c, 3, 50, 88
5, 377280, Note_off_c, 3, 50, 0
5, 377280, Note_off_c, 3, 38, 0
5, 377280, Note_on_c, 3, 36, 68
5, 377400, Note_off_c, 3, 36, 0
5, 377760, Note_on_c, 3, 48, 64
5, 377880, Note_off_c, 3, 48, 0
5, 378240, Note_on_c, 3, 45, 60
5, 378360, Note_off_c, 3, 45, 0
5, 378720, Note_on_c, 3, 41, 56
5, 378840, Note_off_c, 3, 41, 0
5, 379200, Note_on_c, 3, 43, 52
5, 379320, Note_off_c, 3, 43, 0
5, 379680, Note_on_c, 3, 31, 47
5, 379800, Note_off_c, 3, 31, 0
5, 380160, Note_on_c, 3, 36, 43
5, 380280, Note_off_c, 3, 36, 0
5, 381120, Control_c, 3, 64, 0
5, 381120, Note_on_c, 3, 43, 55
5, 381240, Note_off_c, 3, 43, 0
5, 381600, Note_on_c, 3, 55, 54
5, 381720, Note_off_c, 3, 55, 0
5, 382080, Note_on_c, 3, 55, 52
5, 382200, Note_off_c, 3, 55, 0
5, 382560, Note_on_c, 3, 55, 50
5, 382680, Note_off_c, 3, 55, 0
5, 383040, Note_on_c, 3, 43, 48
5, 383160, Note_off_c, 3, 43, 0
5, 383520, Note_on_c, 3, 55, 47
5, 383640, Note_off_c, 3, 55, 0
5, 384000, Note_on_c, 3, 55, 45
5, 384120, Note_off_c, 3, 55, 0
5, 384480, Note_on_c, 3, 55, 43
5, 384600, Note_off_c, 3, 55, 0
5, 384960, Note_on_c, 3, 43, 41
5, 385080, Note_off_c, 3, 43, 0
5, 385440, Note_on_c, 3, 55, 40
5, 385560, Note_off_c, 3, 55, 0
5, 385920, Note_on_c, 3, 55, 38
5, 386040, Note_off_c, 3, 55, 0
5, 386400, Note_on_c, 3, 55, 36
5, 386520, Note_off_c, 3, 55, 0
5, 386880, Note_on_c, 3, 55, 34
5, 387000, Note_off_c, 3, 55, 0
5, 387360, Note_on_c, 3, 55, 32
5, 387480, Note_off_c, 3, 55, 0
5, 387840, Note_on_c, 3, 55, 31
5, 387960, Note_off_c, 3, 55, 0
5, 388320, Note_on_c, 3, 55, 29
5, 388440, Note_off_c, 3, 55, 0
5, 388800, Note_on_c, 3, 60, 38
5, 389280, Note_off_c, 3, 60, 0
5, 389280, Note_on_c, 3, 62, 40
5, 389760, Note_off_c, 3, 62, 0
5, 389760, Note_on_c, 3, 64, 43
5, 390240, Note_off_c, 3, 64, 0
5, 390240, Note_on_c, 3, 59, 45
5, 390720, Note_off_c, 3, 59, 0
5, 390720, Note_on_c, 3, 60, 48
5, 391200, Note_off_c, 3, 60, 0
5, 391200, Note_on_c, 3, 53, 50
5, 391680, Note_off_c, 3, 53, 0
5, 391680, Note_on_c, 3, 55, 58
5, 392400, Note_off_c, 3, 55, 0
5, 392400, Note_on_c, 3, 53, 51
5, 392640, Note_off_c, 3, 53, 0
5, 392640, Note_on_c, 3, 52, 51
5, 393120, Note_off_c, 3, 52, 0
5, 393120, Note_on_c, 3, 50, 49
5, 393600, Note_off_c, 3, 50, 0
5, 393600, Note_on_c, 3, 48, 48
5, 394080, Note_off_c, 3, 48, 0
5, 394080, Note_on_c, 3, 47, 46
5, 394560, Note_off_c, 3, 47, 0
5, 394560, Note_on_c, 3, 45, 45
5, 395040, Note_off_c, 3, 45, 0
5, 395040, Note_on_c, 3, 41, 43
5, 395520, Note_off_c, 3, 41, 0
5, 395520, Note_on_c, 3, 43, 42
5, 396480, Note_off_c, 3, 43, 0
5, 396480, Note_on_c, 3, 48, 41
5, 396960, Note_off_c, 3, 48, 0
5, 396960, Note_on_c, 3, 50, 45
5, 397440, Note_off_c, 3, 50, 0
5, 397440, Note_on_c, 3, 52, 48
5, 397920, Note_off_c, 3, 52, 0
5, 397920, Note_on_c, 3, 47, 52
5, 398400, Note_off_c, 3, 47, 0
5, 398400, Note_on_c, 3, 48, 55
5, 398880, Note_off_c, 3, 48, 0
5, 398880, Note_on_c, 3, 45, 59
5, 399360, Note_off_c, 3, 45, 0
5, 399360, Note_on_c, 3, 47, 72
5, 400320, Note_off_c, 3, 47, 0
5, 400320, Note_on_c, 3, 48, 60
5, 400800, Note_off_c, 3, 48, 0
5, 400800, Note_on_c, 3, 49, 63
5, 401280, Note_off_c, 3, 49, 0
5, 401280, Note_on_c, 3, 50, 84
5, 402240, Note_off_c, 3, 50, 0
5, 402240, Note_on_c, 3, 38, 59
5, 402720, Note_on_c, 3, 50, 55
5, 403185, Note_off_c, 3, 38, 0
5, 403200, Note_off_c, 3, 50, 0
5, 403200, Note_on_c, 3, 43, 51
5, 404160, Note_off_c, 3, 43, 0
5, 404160, Note_on_c, 3, 64, 42
5, 404640, Note_off_c, 3, 64, 0
5, 404640, Note_on_c, 3, 62, 44
5, 405120, Note_off_c, 3, 62, 0
5, 405120, Note_on_c, 3, 60, 46
5, 405600, Note_off_c, 3, 60, 0
5, 405600, Note_on_c, 3, 58, 48
5, 406080, Note_off_c, 3, 58, 0
5, 406080, Note_on_c, 3, 57, 50
5, 406560, Note_off_c, 3, 57, 0
5, 406560, Note_on_c, 3, 55, 57
5, 407040, Note_off_c, 3, 55, 0
5, 407040, Note_on_c, 3, 53, 49
5, 408000, Note_off_c, 3, 53, 0
5, 408000, Note_on_c, 3, 53, 48
5, 408480, Note_off_c, 3, 53, 0
5, 408480, Note_on_c, 3, 52, 47
5, 408960, Note_off_c, 3, 52, 0
5, 408960, Note_on_c, 3, 50, 45
5, 409440, Note_off_c, 3, 50, 0
5, 409440, Note_on_c, 3, 52, 43
5, 409920, Note_off_c, 3, 52, 0
5, 409920, Note_on_c, 3, 53, 42
5, 410400, Note_off_c, 3, 53, 0
5, 410400, Note_on_c, 3, 54, 48
5, 410880, Note_off_c, 3, 54, 0
5, 410880, Note_on_c, 3, 55, 58
5, 411600, Note_off_c, 3, 55, 0
5, 411600, Note_on_c, 3, 53, 47
5, 411840, Note_off_c, 3, 53, 0
5, 411840, Note_on_c, 3, 52, 44
5, 412320, Note_off_c, 3, 52, 0
5, 412320, Note_on_c, 3, 50, 46
5, 412800, Note_off_c, 3, 50, 0
5, 412800, Note_on_c, 3, 48, 48
5, 413280, Note_off_c, 3, 48, 0
5, 413280, Note_on_c, 3, 47, 49
5, 413760, Note_off_c, 3, 47, 0
5, 413760, Note_on_c, 3, 48, 51
5, 414240, Note_off_c, 3, 48, 0
5, 414240, Note_on_c, 3, 41, 53
5, 414720, Note_off_c, 3, 41, 0
5, 414720, Note_on_c, 3, 43, 57
5, 415440, Note_off_c, 3, 43, 0
5, 415440, Note_on_c, 3, 41, 57
5, 415680, Note_off_c, 3, 41, 0
5, 415680, Note_on_c, 3, 40, 64
5, 416160, Note_on_c, 3, 52, 59
5, 416640, Note_off_c, 3, 52, 0
5, 416640, Note_off_c, 3, 40, 0
5, 416640, Note_on_c, 3, 41, 68
5, 417120, Note_on_c, 3, 53, 63
5, 417600, Note_off_c, 3, 53, 0
5, 417600, Note_off_c, 3, 41, 0
5, 417600, Note_on_c, 3, 43, 76
5, 418080, Note_on_c, 3, 55, 66
5, 418560, Note_off_c, 3, 55, 0
5, 418560, Note_off_c, 3, 43, 0
5, 418560, Note_on_c, 3, 48, 68
5, 419040, Note_off_c, 3, 48, 0
5, 419520, Note_on_c, 3, 43, 64
5, 420000, Note_off_c, 3, 43, 0
5, 420000, Note_on_c, 3, 36, 53
5, 420240, Note_off_c, 3, 36, 0
5, 420480, Note_on_c, 3, 45, 71
5, 420960, Note_off_c, 3, 45, 0
5, 420960, Note_on_c, 3, 38, 62
5, 421200, Note_off_c, 3, 38, 0
5, 421440, Note_on_c, 3, 47, 79
5, 421920, Note_off_c, 3, 47, 0
5, 421920, Note_on_c, 3, 40, 70
5, 422160, Note_off_c, 3, 40, 0
5, 422400, Note_on_c, 3, 38, 85
5, 422400, Note_on_c, 3, 50, 85
5, 423360, Note_off_c, 3, 50, 0
5, 423360, Note_off_c, 3, 38, 0
5, 423360, Note_on_c, 3, 36, 73
5, 423840, Note_off_c, 3, 36, 0
5, 423840, Note_on_c, 3, 48, 67
5, 424320, Note_off_c, 3, 48, 0
5, 424320, Note_on_c, 3, 45, 65
5, 424800, Note_off_c, 3, 45, 0
5, 424800, Note_on_c, 3, 41, 63
5, 425280, Note_off_c, 3, 41, 0
5, 425280, Note_on_c, 3, 43, 62
5, 425760, Note_off_c, 3, 43, 0
5, 425760, Note_on_c, 3, 31, 60
5, 426240, Note_off_c, 3, 31, 0
5, 426240, Note_on_c, 3, 36, 58
5, 426480, Note_off_c, 3, 36, 0
5, 427200, Note_on_c, 3, 60, 43
5, 427320, Note_off_c, 3, 60, 0
5, 427680, Note_on_c, 3, 62, 42
5, 427800, Note_off_c, 3, 62, 0
5, 428160, Note_on_c, 3, 64, 41
5, 428280, Note_off_c, 3, 64, 0
5, 428640, Note_on_c, 3, 59, 40
5, 428760, Note_off_c, 3, 59, 0
5, 429120, Note_on_c, 3, 60, 39
5, 429240, Note_off_c, 3, 60, 0
5, 429600, Note_on_c, 3, 53, 39
5, 429720, Note_off_c, 3, 53, 0
5, 430080, Note_on_c, 3, 55, 38
5, 430236, Note_off_c, 3, 55, 0
5, 431040, Note_on_c, 3, 64, 36
5, 431160, Note_off_c, 3, 64, 0
5, 431520, Note_on_c, 3, 62, 35
5, 431640, Note_off_c, 3, 62, 0
5, 432000, Note_on_c, 3, 60, 34
5, 432120, Note_off_c, 3, 60, 0
5, 432480, Note_on_c, 3, 59, 33
5, 432600, Note_off_c, 3, 59, 0
5, 432960, Note_on_c, 3, 57, 32
5, 433056, Note_off_c, 3, 57, 0
5, 433920, Note_on_c, 3, 41, 30
5, 434112, Note_off_c, 3, 41, 0
5, 434880, Note_on_c, 3, 55, 28
5, 435072, Note_off_c, 3, 55, 0
5, 435840, Note_on_c, 3, 43, 26
5, 436032, Note_off_c, 3, 43, 0
5, 436800, Note_on_c, 3, 36, 77
5, 437280, Note_off_c, 3, 36, 0
5, 438240, Control_c, 3, 64, 0
5, 438720, Control_c, 3, 10, 55
5, 438720, Control_c, 3, 7, 122
5, 438720, Control_c, 3, 91, 91
5, 438720, Control_c, 3, 93, 28
5, 438720, Control_c, 3, 64, 0
5, 438720, Control_c, 3, 1, 0
5, 438720, Pitch_bend_c, 3, 8192
5, 438720, Control_c, 3, 0, 0
5, 438720, Control_c, 3, 32, 0
5, 438720, Program_c, 3, 0
5, 441600, Note_on_c, 3, 55, 44
5, 442440, Note_off_c, 3, 55, 0
5, 444480, Note_on_c, 3, 62, 56
5, 445200, Note_off_c, 3, 62, 0
5, 446400, Note_on_c, 3, 50, 43
5, 446520, Note_off_c, 3, 50, 0
5, 446640, Note_on_c, 3, 62, 44
5, 446760, Note_off_c, 3, 62, 0
5, 447840, Note_on_c, 3, 50, 53
5, 447960, Note_off_c, 3, 50, 0
5, 448080, Note_on_c, 3, 62, 55
5, 448200, Note_off_c, 3, 62, 0
5, 450000, Note_on_c, 3, 38, 64
5, 450060, Note_off_c, 3, 38, 0
5, 450060, Note_on_c, 3, 40, 65
5, 450120, Note_off_c, 3, 40, 0
5, 450120, Note_on_c, 3, 42, 66
5, 450180, Note_off_c, 3, 42, 0
5, 450180, Note_on_c, 3, 43, 66
5, 450240, Note_off_c, 3, 43, 0
5, 450240, Note_on_c, 3, 45, 67
5, 450320, Note_off_c, 3, 45, 0
5, 450320, Note_on_c, 3, 47, 69
5, 450400, Note_off_c, 3, 47, 0
5, 450400, Note_on_c, 3, 48, 70
5, 450480, Note_off_c, 3, 48, 0
5, 450480, Note_on_c, 3, 50, 71
5, 450560, Note_off_c, 3, 50, 0
5, 450560, Note_on_c, 3, 52, 72
5, 450640, Note_off_c, 3, 52, 0
5, 450640, Note_on_c, 3, 54, 73
5, 450720, Note_off_c, 3, 54, 0
5, 450720, Note_on_c, 3, 55, 75
5, 450800, Note_off_c, 3, 55, 0
5, 450800, Note_on_c, 3, 57, 76
5, 450880, Note_off_c, 3, 57, 0
5, 450880, Note_on_c, 3, 59, 77
5, 450960, Note_off_c, 3, 59, 0
5, 450960, Note_on_c, 3, 60, 82
5, 452400, Note_off_c, 3, 60, 0
5, 454560, Note_on_c, 3, 67, 48
5, 455400, Note_off_c, 3, 67, 0
5, 455760, Note_on_c, 3, 60, 38
5, 455880, Note_off_c, 3, 60, 0
5, 456000, Note_on_c, 3, 62, 37
5, 456120, Note_off_c, 3, 62, 0
5, 456480, Note_on_c, 3, 50, 34
5, 456600, Note_off_c, 3, 50, 0
5, 456720, Note_on_c, 3, 55, 32
5, 456840, Note_off_c, 3, 55, 0
5, 457440, Note_on_c, 3, 35, 71
5, 457440, Note_on_c, 3, 47, 71
5, 458160, Note_off_c, 3, 47, 0
5, 458160, Note_off_c, 3, 35, 0
5, 458640, Note_on_c, 3, 69, 57
5, 458760, Note_off_c, 3, 69, 0
5, 458880, Note_on_c, 3, 67, 55
5, 459000, Note_off_c, 3, 67, 0
5, 459120, Note_on_c, 3, 67, 53
5, 459240, Note_off_c, 3, 67, 0
5, 459360, Note_on_c, 3, 63, 51
5, 459480, Note_off_c, 3, 63, 0
5, 459600, Note_on_c, 3, 64, 49
5, 459720, Note_off_c, 3, 64, 0
5, 460320, Note_on_c, 3, 35, 76
5, 460320, Note_on_c, 3, 47, 76
5, 461040, Note_off_c, 3, 47, 0
5, 461040, Note_off_c, 3, 35, 0
5, 461520, Note_on_c, 3, 59, 59
5, 461640, Note_off_c, 3, 59, 0
5, 461760, Note_on_c, 3, 64, 57
5, 461880, Note_off_c, 3, 64, 0
5, 462000, Note_on_c, 3, 66, 55
5, 462120, Note_off_c, 3, 66, 0
5, 462240, Note_on_c, 3, 54, 53
5, 462360, Note_off_c, 3, 54, 0
5, 462480, Note_on_c, 3, 59, 51
5, 462600, Note_off_c, 3, 59, 0
5, 463200, Note_on_c, 3, 35, 81
5, 463200, Note_on_c, 3, 47, 81
5, 463920, Note_off_c, 3, 47, 0
5, 463920, Note_off_c, 3, 35, 0
5, 464400, Note_on_c, 3, 69, 65
5, 464520, Note_off_c, 3, 69, 0
5, 464640, Note_on_c, 3, 67, 63
5, 464760, Note_off_c, 3, 67, 0
5, 464880, Note_on_c, 3, 67, 61
5, 465000, Note_off_c, 3, 67, 0
5, 465120, Note_on_c, 3, 63, 59
5, 465240, Note_off_c, 3, 63, 0
5, 465360, Note_on_c, 3, 64, 57
5, 465480, Note_off_c, 3, 64, 0
5, 466080, Note_on_c, 3, 40, 96
5, 466080, Note_on_c, 3, 52, 96
5, 466800, Note_off_c, 3, 52, 0
5, 466800, Note_off_c, 3, 40, 0
5, 467280, Note_on_c, 3, 74, 69
5, 467400, Note_off_c, 3, 74, 0
5, 467520, Note_on_c, 3, 72, 67
5, 467640, Note_off_c, 3, 72, 0
5, 467760, Note_on_c, 3, 72, 65
5, 467880, Note_off_c, 3, 72, 0
5, 468000, Note_on_c, 3, 68, 64
5, 468120, Note_off_c, 3, 68, 0
5, 468240, Note_on_c, 3, 69, 62
5, 468360, Note_off_c, 3, 69, 0
5, 468960, Note_on_c, 3, 62, 38
5, 469080, Note_off_c, 3, 62, 0
5, 469680, Note_on_c, 3, 50, 33
5, 469800, Note_off_c, 3, 50, 0
5, 472560, Note_on_c, 3, 55, 45
5, 473400, Note_off_c, 3, 55, 0
5, 475440, Note_on_c, 3, 62, 64
5, 476160, Note_off_c, 3, 62, 0
5, 477360, Note_on_c, 3, 50, 40
5, 477480, Note_off_c, 3, 50, 0
5, 477600, Note_on_c, 3, 62, 41
5, 477720, Note_off_c, 3, 62, 0
5, 478800, Note_on_c, 3, 50, 47
5, 478920, Note_off_c, 3, 50, 0
5, 479040, Note_on_c, 3, 62, 49
5, 479160, Note_off_c, 3, 62, 0
5, 480960, Note_on_c, 3, 38, 53
5, 481020, Note_off_c, 3, 38, 0
5, 481020, Note_on_c, 3, 40, 55
5, 481080, Note_off_c, 3, 40, 0
5, 481080, Note_on_c, 3, 42, 56
5, 481140, Note_off_c, 3, 42, 0
5, 481140, Note_on_c, 3, 43, 58
5, 481200, Note_off_c, 3, 43, 0
5, 481200, Note_on_c, 3, 45, 59
5, 481280, Note_off_c, 3, 45, 0
5, 481280, Note_on_c, 3, 47, 62
5, 481360, Note_off_c, 3, 47, 0
5, 481360, Note_on_c, 3, 48, 64
5, 481440, Note_off_c, 3, 48, 0
5, 481440, Note_on_c, 3, 50, 66
5, 481520, Note_off_c, 3, 50, 0
5, 481520, Note_on_c, 3, 52, 68
5, 481600, Note_off_c, 3, 52, 0
5, 481600, Note_on_c, 3, 54, 70
5, 481680, Note_off_c, 3, 54, 0
5, 481680, Note_on_c, 3, 55, 72
5, 481760, Note_off_c, 3, 55, 0
5, 481760, Note_on_c, 3, 57, 74
5, 481840, Note_off_c, 3, 57, 0
5, 481840, Note_on_c, 3, 59, 76
5, 481920, Note_off_c, 3, 59, 0
5, 481920, Note_on_c, 3, 60, 79
5, 483360, Note_off_c, 3, 60, 0
5, 485520, Note_on_c, 3, 67, 45
5, 486360, Note_off_c, 3, 67, 0
5, 486720, Note_on_c, 3, 60, 37
5, 486840, Note_off_c, 3, 60, 0
5, 486960, Note_on_c, 3, 62, 35
5, 487080, Note_off_c, 3, 62, 0
5, 487440, Note_on_c, 3, 50, 32
5, 487560, Note_off_c, 3, 50, 0
5, 487680, Note_on_c, 3, 55, 30
5, 487800, Note_off_c, 3, 55, 0
5, 488160, Note_on_c, 3, 43, 30
5, 488240, Note_off_c, 3, 43, 0
5, 488240, Note_on_c, 3, 45, 30
5, 488320, Note_off_c, 3, 45, 0
5, 488320, Note_on_c, 3, 47, 31
5, 488400, Note_off_c, 3, 47, 0
5, 488400, Note_on_c, 3, 48, 31
5, 488480, Note_off_c, 3, 48, 0
5, 488480, Note_on_c, 3, 50, 32
5, 488560, Note_off_c, 3, 50, 0
5, 488560, Note_on_c, 3, 52, 32
5, 488640, Note_off_c, 3, 52, 0
5, 488640, Note_on_c, 3, 53, 33
5, 488760, Note_off_c, 3, 53, 0
5, 489360, Note_on_c, 3, 65, 49
5, 489480, Note_off_c, 3, 65, 0
5, 489600, Note_on_c, 3, 43, 38
5, 489680, Note_off_c, 3, 43, 0
5, 489680, Note_on_c, 3, 45, 39
5, 489760, Note_off_c, 3, 45, 0
5, 489760, Note_on_c, 3, 47, 39
5, 489840, Note_off_c, 3, 47, 0
5, 489840, Note_on_c, 3, 48, 40
5, 489920, Note_off_c, 3, 48, 0
5, 489920, Note_on_c, 3, 50, 40
5, 490000, Note_off_c, 3, 50, 0
5, 490000, Note_on_c, 3, 52, 41
5, 490080, Note_off_c, 3, 52, 0
5, 490080, Note_on_c, 3, 53, 41
5, 490200, Note_off_c, 3, 53, 0
5, 490800, Note_on_c, 3, 65, 57
5, 490920, Note_off_c, 3, 65, 0
5, 491040, Note_on_c, 3, 43, 47
5, 491120, Note_off_c, 3, 43, 0
5, 491120, Note_on_c, 3, 45, 47
5, 491200, Note_off_c, 3, 45, 0
5, 491200, Note_on_c, 3, 47, 48
5, 491280, Note_off_c, 3, 47, 0
5, 491280, Note_on_c, 3, 48, 48
5, 491360, Note_off_c, 3, 48, 0
5, 491360, Note_on_c, 3, 50, 49
5, 491440, Note_off_c, 3, 50, 0
5, 491440, Note_on_c, 3, 52, 49
5, 491520, Note_off_c, 3, 52, 0
5, 491520, Note_on_c, 3, 53, 50
5, 491640, Note_off_c, 3, 53, 0
5, 492000, Note_on_c, 3, 55, 55
5, 492080, Note_off_c, 3, 55, 0
5, 492080, Note_on_c, 3, 57, 56
5, 492160, Note_off_c, 3, 57, 0
5, 492160, Note_on_c, 3, 59, 56
5, 492240, Note_off_c, 3, 59, 0
5, 492240, Note_on_c, 3, 60, 57
5, 492320, Note_off_c, 3, 60, 0
5, 492320, Note_on_c, 3, 62, 57
5, 492400, Note_off_c, 3, 62, 0
5, 492400, Note_on_c, 3, 64, 58
5, 492480, Note_off_c, 3, 64, 0
5, 492480, Note_on_c, 3, 65, 58
5, 492600, Note_off_c, 3, 65, 0
5, 494160, Note_on_c, 3, 48, 49
5, 494640, Note_off_c, 3, 48, 0
5, 494640, Note_on_c, 3, 48, 50
5, 494880, Note_off_c, 3, 48, 0
5, 494880, Note_on_c, 3, 48, 51
5, 495360, Note_off_c, 3, 48, 0
5, 495360, Note_on_c, 3, 48, 54
5, 495600, Note_off_c, 3, 48, 0
5, 495600, Note_on_c, 3, 48, 55
5, 496080, Note_off_c, 3, 48, 0
5, 496080, Note_on_c, 3, 48, 58
5, 496320, Note_off_c, 3, 48, 0
5, 496320, Note_on_c, 3, 48, 59
5, 496800, Note_off_c, 3, 48, 0
5, 496800, Note_on_c, 3, 48, 57
5, 497040, Note_off_c, 3, 48, 0
5, 497040, Note_on_c, 3, 46, 56
5, 497520, Note_on_c, 3, 45, 54
5, 497532, Note_off_c, 3, 46, 0
5, 497760, Note_off_c, 3, 45, 0
5, 497760, Note_on_c, 3, 45, 53
5, 498240, Note_off_c, 3, 45, 0
5, 498240, Note_on_c, 3, 45, 51
5, 498480, Note_off_c, 3, 45, 0
5, 498480, Note_on_c, 3, 44, 49
5, 498960, Note_on_c, 3, 43, 47
5, 498968, Note_off_c, 3, 44, 0
5, 499200, Note_off_c, 3, 43, 0
5, 499200, Note_on_c, 3, 48, 46
5, 499680, Note_off_c, 3, 48, 0
5, 499920, Note_on_c, 3, 48, 43
5, 500400, Note_off_c, 3, 48, 0
5, 500400, Note_on_c, 3, 48, 41
5, 500640, Note_off_c, 3, 48, 0
5, 500640, Note_on_c, 3, 48, 42
5, 501120, Note_off_c, 3, 48, 0
5, 501120, Note_on_c, 3, 48, 45
5, 501360, Note_off_c, 3, 48, 0
5, 501360, Note_on_c, 3, 48, 46
5, 501840, Note_off_c, 3, 48, 0
5, 501840, Note_on_c, 3, 48, 48
5, 502080, Note_off_c, 3, 48, 0
5, 502080, Note_on_c, 3, 48, 49
5, 502560, Note_off_c, 3, 48, 0
5, 502560, Note_on_c, 3, 48, 48
5, 502800, Note_off_c, 3, 48, 0
5, 502800, Note_on_c, 3, 46, 47
5, 503280, Note_on_c, 3, 45, 46
5, 503304, Note_off_c, 3, 46, 0
5, 503520, Note_off_c, 3, 45, 0
5, 503520, Note_on_c, 3, 45, 46
5, 504000, Note_off_c, 3, 45, 0
5, 504000, Note_on_c, 3, 45, 45
5, 504240, Note_off_c, 3, 45, 0
5, 504240, Note_on_c, 3, 44, 44
5, 504720, Note_on_c, 3, 43, 43
5, 504760, Note_off_c, 3, 44, 0
5, 504960, Note_off_c, 3, 43, 0
5, 504960, Note_on_c, 3, 48, 43
5, 505440, Note_off_c, 3, 48, 0
5, 505800, Note_on_c, 3, 43, 38
5, 505920, Note_off_c, 3, 43, 0
5, 505920, Note_on_c, 3, 45, 40
5, 506040, Note_off_c, 3, 45, 0
5, 506040, Note_on_c, 3, 47, 43
5, 506160, Note_off_c, 3, 47, 0
5, 506160, Note_on_c, 3, 48, 46
5, 506280, Note_off_c, 3, 48, 0
5, 506280, Note_on_c, 3, 42, 40
5, 506400, Note_off_c, 3, 42, 0
5, 506520, Note_on_c, 3, 43, 36
5, 506640, Note_off_c, 3, 43, 0
5, 506640, Note_on_c, 3, 45, 39
5, 506760, Note_off_c, 3, 45, 0
5, 506760, Note_on_c, 3, 47, 42
5, 506880, Note_off_c, 3, 47, 0
5, 506880, Note_on_c, 3, 48, 45
5, 507000, Note_off_c, 3, 48, 0
5, 507000, Note_on_c, 3, 42, 38
5, 507120, Note_off_c, 3, 42, 0
5, 507240, Note_on_c, 3, 43, 36
5, 507360, Note_off_c, 3, 43, 0
5, 507360, Note_on_c, 3, 45, 38
5, 507480, Note_off_c, 3, 45, 0
5, 507480, Note_on_c, 3, 47, 40
5, 507600, Note_off_c, 3, 47, 0
5, 507600, Note_on_c, 3, 48, 42
5, 507720, Note_off_c, 3, 48, 0
5, 507720, Note_on_c, 3, 42, 37
5, 507840, Note_off_c, 3, 42, 0
5, 507840, Note_on_c, 3, 43, 36
5, 508680, Note_off_c, 3, 43, 0
5, 508680, Note_on_c, 3, 42, 44
5, 508800, Note_off_c, 3, 42, 0
5, 508800, Note_on_c, 3, 43, 45
5, 508920, Note_off_c, 3, 43, 0
5, 508920, Note_on_c, 3, 42, 46
5, 509040, Note_off_c, 3, 42, 0
5, 509040, Note_on_c, 3, 43, 47
5, 509160, Note_off_c, 3, 43, 0
5, 509160, Note_on_c, 3, 44, 48
5, 509280, Note_off_c, 3, 44, 0
5, 509280, Note_on_c, 3, 45, 49
5, 509400, Note_off_c, 3, 45, 0
5, 509400, Note_on_c, 3, 44, 50
5, 509520, Note_off_c, 3, 44, 0
5, 509520, Note_on_c, 3, 45, 52
5, 509640, Note_off_c, 3, 45, 0
5, 509640, Note_on_c, 3, 44, 53
5, 509760, Note_off_c, 3, 44, 0
5, 509760, Note_on_c, 3, 45, 54
5, 509880, Note_off_c, 3, 45, 0
5, 509880, Note_on_c, 3, 43, 55
5, 510000, Note_off_c, 3, 43, 0
5, 510000, Note_on_c, 3, 42, 55
5, 510120, Note_off_c, 3, 42, 0
5, 510120, Note_on_c, 3, 40, 55
5, 510240, Note_off_c, 3, 40, 0
5, 510240, Note_on_c, 3, 42, 54
5, 510360, Note_off_c, 3, 42, 0
5, 510360, Note_on_c, 3, 38, 54
5, 510480, Note_off_c, 3, 38, 0
5, 510480, Note_on_c, 3, 40, 54
5, 510600, Note_off_c, 3, 40, 0
5, 510600, Note_on_c, 3, 42, 53
5, 510720, Note_off_c, 3, 42, 0
5, 510720, Note_on_c, 3, 43, 53
5, 510840, Note_off_c, 3, 43, 0
5, 510840, Note_on_c, 3, 45, 52
5, 510960, Note_off_c, 3, 45, 0
5, 510960, Note_on_c, 3, 47, 52
5, 511080, Note_off_c, 3, 47, 0
5, 511080, Note_on_c, 3, 48, 52
5, 511200, Note_off_c, 3, 48, 0
5, 511200, Note_on_c, 3, 50, 51
5, 511320, Note_off_c, 3, 50, 0
5, 511320, Note_on_c, 3, 52, 51
5, 511440, Note_off_c, 3, 52, 0
5, 511440, Note_on_c, 3, 43, 51
5, 511440, Note_on_c, 3, 53, 56
5, 511920, Note_off_c, 3, 53, 0
5, 511920, Note_on_c, 3, 51, 54
5, 512160, Note_off_c, 3, 51, 0
5, 512160, Note_off_c, 3, 43, 0
5, 512160, Note_on_c, 3, 43, 56
5, 512160, Note_on_c, 3, 50, 60
5, 512640, Note_off_c, 3, 50, 0
5, 512640, Note_on_c, 3, 51, 52
5, 512880, Note_off_c, 3, 51, 0
5, 512880, Note_off_c, 3, 43, 0
5, 512880, Note_on_c, 3, 43, 55
5, 512880, Note_on_c, 3, 50, 60
5, 513360, Note_off_c, 3, 50, 0
5, 513360, Note_on_c, 3, 51, 49
5, 513600, Note_off_c, 3, 51, 0
5, 513600, Note_off_c, 3, 43, 0
5, 513600, Note_on_c, 3, 43, 54
5, 513600, Note_on_c, 3, 50, 59
5, 514080, Note_off_c, 3, 50, 0
5, 514440, Note_off_c, 3, 43, 0
5, 514440, Note_on_c, 3, 42, 48
5, 514560, Note_off_c, 3, 42, 0
5, 514560, Note_on_c, 3, 43, 49
5, 514680, Note_off_c, 3, 43, 0
5, 514680, Note_on_c, 3, 42, 50
5, 514800, Note_off_c, 3, 42, 0
5, 514800, Note_on_c, 3, 43, 51
5, 514920, Note_off_c, 3, 43, 0
5, 514920, Note_on_c, 3, 44, 52
5, 515040, Note_off_c, 3, 44, 0
5, 515040, Note_on_c, 3, 45, 53
5, 515160, Note_off_c, 3, 45, 0
5, 515160, Note_on_c, 3, 44, 54
5, 515280, Note_off_c, 3, 44, 0
5, 515280, Note_on_c, 3, 45, 55
5, 515400, Note_off_c, 3, 45, 0
5, 515400, Note_on_c, 3, 44, 56
5, 515520, Note_off_c, 3, 44, 0
5, 515520, Note_on_c, 3, 45, 57
5, 515640, Note_off_c, 3, 45, 0
5, 515640, Note_on_c, 3, 43, 58
5, 515760, Note_off_c, 3, 43, 0
5, 515760, Note_on_c, 3, 42, 59
5, 515880, Note_off_c, 3, 42, 0
5, 515880, Note_on_c, 3, 40, 59
5, 516000, Note_off_c, 3, 40, 0
5, 516000, Note_on_c, 3, 42, 58
5, 516120, Note_off_c, 3, 42, 0
5, 516120, Note_on_c, 3, 38, 57
5, 516240, Note_off_c, 3, 38, 0
5, 516240, Note_on_c, 3, 40, 57
5, 516360, Note_off_c, 3, 40, 0
5, 516360, Note_on_c, 3, 42, 56
5, 516480, Note_off_c, 3, 42, 0
5, 516480, Note_on_c, 3, 43, 55
5, 516600, Note_off_c, 3, 43, 0
5, 516600, Note_on_c, 3, 45, 55
5, 516720, Note_off_c, 3, 45, 0
5, 516720, Note_on_c, 3, 47, 54
5, 516840, Note_off_c, 3, 47, 0
5, 516840, Note_on_c, 3, 48, 53
5, 516960, Note_off_c, 3, 48, 0
5, 516960, Note_on_c, 3, 50, 53
5, 517080, Note_off_c, 3, 50, 0
5, 517080, Note_on_c, 3, 52, 52
5, 517200, Note_off_c, 3, 52, 0
5, 517200, Note_on_c, 3, 54, 51
5, 517320, Note_off_c, 3, 54, 0
5, 517320, Note_on_c, 3, 52, 51
5, 517440, Note_off_c, 3, 52, 0
5, 517440, Note_on_c, 3, 54, 50
5, 517560, Note_off_c, 3, 54, 0
5, 517560, Note_on_c, 3, 50, 50
5, 517680, Note_off_c, 3, 50, 0
5, 517680, Note_on_c, 3, 52, 49
5, 517800, Note_off_c, 3, 52, 0
5, 517800, Note_on_c, 3, 54, 48
5, 517920, Note_off_c, 3, 54, 0
5, 517920, Note_on_c, 3, 55, 48
5, 518040, Note_off_c, 3, 55, 0
5, 518040, Note_on_c, 3, 57, 47
5, 518160, Note_off_c, 3, 57, 0
5, 518160, Note_on_c, 3, 59, 46
5, 518280, Note_off_c, 3, 59, 0
5, 518280, Note_on_c, 3, 60, 46
5, 518400, Note_off_c, 3, 60, 0
5, 518400, Note_on_c, 3, 62, 45
5, 518520, Note_off_c, 3, 62, 0
5, 518520, Note_on_c, 3, 64, 44
5, 518640, Note_off_c, 3, 64, 0
5, 518640, Note_on_c, 3, 66, 44
5, 518760, Note_off_c, 3, 66, 0
5, 518760, Note_on_c, 3, 64, 43
5, 518880, Note_off_c, 3, 64, 0
5, 518880, Note_on_c, 3, 66, 42
5, 519000, Note_off_c, 3, 66, 0
5, 519000, Note_on_c, 3, 62, 42
5, 519120, Note_off_c, 3, 62, 0
5, 519120, Note_on_c, 3, 64, 41
5, 519240, Note_off_c, 3, 64, 0
5, 519240, Note_on_c, 3, 66, 41
5, 519360, Note_off_c, 3, 66, 0
5, 519360, Note_on_c, 3, 67, 40
5, 519840, Note_off_c, 3, 67, 0
5, 520080, Note_on_c, 3, 48, 42
5, 520560, Note_off_c, 3, 48, 0
5, 520560, Note_on_c, 3, 48, 45
5, 520800, Note_off_c, 3, 48, 0
5, 520800, Note_on_c, 3, 48, 46
5, 521280, Note_off_c, 3, 48, 0
5, 521280, Note_on_c, 3, 48, 49
5, 521520, Note_off_c, 3, 48, 0
5, 521520, Note_on_c, 3, 48, 51
5, 522000, Note_off_c, 3, 48, 0
5, 522000, Note_on_c, 3, 48, 54
5, 522240, Note_off_c, 3, 48, 0
5, 522240, Note_on_c, 3, 48, 57
5, 522720, Note_off_c, 3, 48, 0
5, 522720, Note_on_c, 3, 48, 55
5, 522960, Note_off_c, 3, 48, 0
5, 522960, Note_on_c, 3, 46, 54
5, 523440, Note_off_c, 3, 46, 0
5, 523440, Note_on_c, 3, 45, 53
5, 523680, Note_off_c, 3, 45, 0
5, 523680, Note_on_c, 3, 45, 53
5, 524160, Note_off_c, 3, 45, 0
5, 524160, Note_on_c, 3, 45, 52
5, 524400, Note_off_c, 3, 45, 0
5, 524400, Note_on_c, 3, 44, 51
5, 524880, Note_off_c, 3, 44, 0
5, 524880, Note_on_c, 3, 43, 50
5, 525120, Note_off_c, 3, 43, 0
5, 525120, Note_on_c, 3, 48, 50
5, 525600, Note_off_c, 3, 48, 0
5, 525840, Note_on_c, 3, 46, 48
5, 526320, Note_off_c, 3, 46, 0
5, 526320, Note_on_c, 3, 45, 47
5, 526560, Note_off_c, 3, 45, 0
5, 526560, Note_on_c, 3, 45, 47
5, 527040, Note_off_c, 3, 45, 0
5, 527040, Note_on_c, 3, 45, 46
5, 527280, Note_off_c, 3, 45, 0
5, 527280, Note_on_c, 3, 44, 45
5, 527760, Note_off_c, 3, 44, 0
5, 527760, Note_on_c, 3, 43, 44
5, 528000, Note_off_c, 3, 43, 0
5, 528000, Note_on_c, 3, 48, 44
5, 528480, Note_off_c, 3, 48, 0
5, 528720, Note_on_c, 3, 43, 42
5, 529200, Note_off_c, 3, 43, 0
5, 529200, Note_on_c, 3, 43, 41
5, 529440, Note_off_c, 3, 43, 0
5, 529440, Note_on_c, 3, 48, 41
5, 529920, Note_off_c, 3, 48, 0
5, 530160, Note_on_c, 3, 43, 39
5, 530640, Note_off_c, 3, 43, 0
5, 530640, Note_on_c, 3, 43, 38
5, 530880, Note_off_c, 3, 43, 0
5, 530880, Note_on_c, 3, 48, 38
5, 531120, Note_off_c, 3, 48, 0
5, 533040, Note_on_c, 3, 64, 53
5, 533520, Note_off_c, 3, 64, 0
5, 533520, Note_on_c, 3, 62, 49
5, 533640, Note_off_c, 3, 62, 0
5, 533640, Note_on_c, 3, 59, 49
5, 533760, Note_off_c, 3, 59, 0
5, 533760, Note_on_c, 3, 60, 48
5, 533880, Note_off_c, 3, 60, 0
5, 534240, Note_on_c, 3, 59, 46
5, 534360, Note_off_c, 3, 59, 0
5, 534360, Note_on_c, 3, 56, 45
5, 534480, Note_off_c, 3, 56, 0
5, 534480, Note_on_c, 3, 57, 45
5, 534600, Note_off_c, 3, 57, 0
5, 534960, Note_on_c, 3, 55, 43
5, 535080, Note_off_c, 3, 55, 0
5, 535080, Note_on_c, 3, 52, 42
5, 535200, Note_off_c, 3, 52, 0
5, 535200, Note_on_c, 3, 54, 42
5, 535320, Note_off_c, 3, 54, 0
5, 535680, Note_on_c, 3, 52, 40
5, 535800, Note_off_c, 3, 52, 0
5, 535800, Note_on_c, 3, 49, 39
5, 535920, Note_off_c, 3, 49, 0
5, 535920, Note_on_c, 3, 50, 39
5, 536040, Note_off_c, 3, 50, 0
5, 536400, Note_on_c, 3, 40, 36
5, 536520, Note_off_c, 3, 40, 0
5, 536520, Note_on_c, 3, 37, 36
5, 536640, Note_off_c, 3, 37, 0
5, 536640, Note_on_c, 3, 38, 35
5, 536760, Note_off_c, 3, 38, 0
5, 537120, Note_on_c, 3, 40, 33
5, 537240, Note_off_c, 3, 40, 0
5, 537240, Note_on_c, 3, 37, 33
5, 537360, Note_off_c, 3, 37, 0
5, 537360, Note_on_c, 3, 38, 32
5, 539540, Note_off_c, 3, 38, 0
5, 541680, Note_on_c, 3, 55, 49
5, 542520, Note_off_c, 3, 55, 0
5, 544560, Note_on_c, 3, 62, 56
5, 545280, Note_off_c, 3, 62, 0
5, 546480, Note_on_c, 3, 50, 44
5, 546600, Note_off_c, 3, 50, 0
5, 546720, Note_on_c, 3, 62, 45
5, 546840, Note_off_c, 3, 62, 0
5, 547920, Note_on_c, 3, 50, 52
5, 548040, Note_off_c, 3, 50, 0
5, 548160, Note_on_c, 3, 62, 53
5, 548280, Note_off_c, 3, 62, 0
5, 550080, Note_on_c, 3, 38, 58
5, 550140, Note_off_c, 3, 38, 0
5, 550140, Note_on_c, 3, 40, 59
5, 550200, Note_off_c, 3, 40, 0
5, 550200, Note_on_c, 3, 42, 60
5, 550260, Note_off_c, 3, 42, 0
5, 550260, Note_on_c, 3, 43, 60
5, 550320, Note_off_c, 3, 43, 0
5, 550320, Note_on_c, 3, 45, 61
5, 550400, Note_off_c, 3, 45, 0
5, 550400, Note_on_c, 3, 47, 62
5, 550480, Note_off_c, 3, 47, 0
5, 550480, Note_on_c, 3, 48, 63
5, 550560, Note_off_c, 3, 48, 0
5, 550560, Note_on_c, 3, 50, 64
5, 550640, Note_off_c, 3, 50, 0
5, 550640, Note_on_c, 3, 52, 65
5, 550720, Note_off_c, 3, 52, 0
5, 550720, Note_on_c, 3, 54, 66
5, 550800, Note_off_c, 3, 54, 0
5, 550800, Note_on_c, 3, 55, 67
5, 550880, Note_off_c, 3, 55, 0
5, 550880, Note_on_c, 3, 57, 68
5, 550960, Note_off_c, 3, 57, 0
5, 550960, Note_on_c, 3, 59, 69
5, 551040, Note_off_c, 3, 59, 0
5, 551040, Note_on_c, 3, 60, 74
5, 552480, Note_off_c, 3, 60, 0
5, 554640, Note_on_c, 3, 67, 53
5, 555480, Note_off_c, 3, 67, 0
5, 555840, Note_on_c, 3, 60, 45
5, 555960, Note_off_c, 3, 60, 0
5, 556080, Note_on_c, 3, 62, 43
5, 556200, Note_off_c, 3, 62, 0
5, 556560, Note_on_c, 3, 50, 40
5, 556680, Note_off_c, 3, 50, 0
5, 556800, Note_on_c, 3, 55, 38
5, 556920, Note_off_c, 3, 55, 0
5, 557280, Note_on_c, 3, 50, 47
5, 557360, Note_off_c, 3, 50, 0
5, 557360, Note_on_c, 3, 52, 47
5, 557440, Note_off_c, 3, 52, 0
5, 557440, Note_on_c, 3, 54, 47
5, 557520, Note_off_c, 3, 54, 0
5, 557520, Note_on_c, 3, 55, 47
5, 557600, Note_off_c, 3, 55, 0
5, 557600, Note_on_c, 3, 57, 47
5, 557680, Note_off_c, 3, 57, 0
5, 557680, Note_on_c, 3, 59, 47
5, 557760, Note_off_c, 3, 59, 0
5, 557760, Note_on_c, 3, 60, 47
5, 557880, Note_off_c, 3, 60, 0
5, 558480, Note_on_c, 3, 72, 52
5, 558600, Note_off_c, 3, 72, 0
5, 558720, Note_on_c, 3, 50, 47
5, 558800, Note_off_c, 3, 50, 0
5, 558800, Note_on_c, 3, 52, 47
5, 558880, Note_off_c, 3, 52, 0
5, 558880, Note_on_c, 3, 54, 47
5, 558960, Note_off_c, 3, 54, 0
5, 558960, Note_on_c, 3, 55, 47
5, 559040, Note_off_c, 3, 55, 0
5, 559040, Note_on_c, 3, 57, 47
5, 559120, Note_off_c, 3, 57, 0
5, 559120, Note_on_c, 3, 59, 47
5, 559200, Note_off_c, 3, 59, 0
5, 559200, Note_on_c, 3, 60, 47
5, 559320, Note_off_c, 3, 60, 0
5, 559920, Note_on_c, 3, 72, 49
5, 560040, Note_off_c, 3, 72, 0
5, 560160, Note_on_c, 3, 50, 41
5, 560240, Note_off_c, 3, 50, 0
5, 560240, Note_on_c, 3, 52, 42
5, 560320, Note_off_c, 3, 52, 0
5, 560320, Note_on_c, 3, 54, 42
5, 560400, Note_off_c, 3, 54, 0
5, 560400, Note_on_c, 3, 55, 42
5, 560480, Note_off_c, 3, 55, 0
5, 560480, Note_on_c, 3, 57, 42
5, 560560, Note_off_c, 3, 57, 0
5, 560560, Note_on_c, 3, 59, 43
5, 560640, Note_off_c, 3, 59, 0
5, 560640, Note_on_c, 3, 60, 43
5, 560760, Note_off_c, 3, 60, 0
5, 561120, Note_on_c, 3, 62, 45
5, 561200, Note_off_c, 3, 62, 0
5, 561200, Note_on_c, 3, 64, 45
5, 561280, Note_off_c, 3, 64, 0
5, 561280, Note_on_c, 3, 66, 45
5, 561360, Note_off_c, 3, 66, 0
5, 561360, Note_on_c, 3, 67, 45
5, 561440, Note_off_c, 3, 67, 0
5, 561440, Note_on_c, 3, 69, 46
5, 561520, Note_off_c, 3, 69, 0
5, 561520, Note_on_c, 3, 71, 46
5, 561600, Note_off_c, 3, 71, 0
5, 561600, Note_on_c, 3, 72, 46
5, 561720, Note_off_c, 3, 72, 0
5, 563280, Note_on_c, 3, 63, 46
5, 563360, Note_off_c, 3, 63, 0
5, 563360, Note_on_c, 3, 64, 45
5, 563440, Note_off_c, 3, 64, 0
5, 563440, Note_on_c, 3, 66, 45
5, 563520, Note_off_c, 3, 66, 0
5, 563520, Note_on_c, 3, 67, 44
5, 563600, Note_off_c, 3, 67, 0
5, 563600, Note_on_c, 3, 69, 44
5, 563680, Note_off_c, 3, 69, 0
5, 563680, Note_on_c, 3, 71, 44
5, 563760, Note_off_c, 3, 71, 0
5, 563760, Note_on_c, 3, 72, 43
5, 563880, Note_off_c, 3, 72, 0
5, 564720, Note_on_c, 3, 64, 38
5, 564800, Note_off_c, 3, 64, 0
5, 564800, Note_on_c, 3, 66, 38
5, 564880, Note_off_c, 3, 66, 0
5, 564880, Note_on_c, 3, 68, 38
5, 564960, Note_off_c, 3, 68, 0
5, 564960, Note_on_c, 3, 69, 37
5, 565040, Note_off_c, 3, 69, 0
5, 565040, Note_on_c, 3, 70, 37
5, 565120, Note_off_c, 3, 70, 0
5, 565120, Note_on_c, 3, 71, 36
5, 565200, Note_off_c, 3, 71, 0
5, 565200, Note_on_c, 3, 72, 36
5, 565320, Note_off_c, 3, 72, 0
5, 569040, Note_on_c, 3, 65, 41
5, 569880, Note_off_c, 3, 65, 0
5, 571920, Note_on_c, 3, 65, 42
5, 572640, Note_off_c, 3, 65, 0
5, 572640, Note_on_c, 3, 63, 48
5, 573360, Note_off_c, 3, 63, 0
5, 573360, Note_on_c, 3, 63, 53
5, 574080, Note_off_c, 3, 63, 0
5, 575520, Note_on_c, 3, 69, 46
5, 575520, Note_on_c, 3, 67, 46
5, 575760, Note_off_c, 3, 67, 0
5, 575760, Note_off_c, 3, 69, 0
5, 576240, Note_on_c, 3, 67, 42
5, 576240, Note_on_c, 3, 71, 42
5, 576480, Note_off_c, 3, 71, 0
5, 576480, Note_off_c, 3, 67, 0
5, 576960, Note_on_c, 3, 60, 37
5, 576960, Note_on_c, 3, 57, 37
5, 577200, Note_off_c, 3, 57, 0
5, 577200, Note_off_c, 3, 60, 0
5, 578400, Control_c, 3, 10, 73
5, 578400, Note_on_c, 3, 67, 47
5, 579120, Note_off_c, 3, 67, 0
5, 579120, Note_on_c, 3, 66, 36
5, 579360, Note_off_c, 3, 66, 0
5, 579360, Note_on_c, 3, 74, 48
5, 579480, Note_off_c, 3, 74, 0
5, 579600, Note_on_c, 3, 74, 39
5, 579720, Note_off_c, 3, 74, 0
5, 579840, Control_c, 3, 10, 55
5, 579840, Note_on_c, 3, 42, 49
5, 580560, Note_off_c, 3, 42, 0
5, 580560, Note_on_c, 3, 43, 42
5, 580800, Note_off_c, 3, 43, 0
5, 580800, Note_on_c, 3, 50, 52
5, 580920, Note_off_c, 3, 50, 0
5, 581040, Note_on_c, 3, 50, 44
5, 581160, Note_off_c, 3, 50, 0
5, 581280, Control_c, 3, 10, 73
5, 581280, Note_on_c, 3, 67, 52
5, 582000, Note_off_c, 3, 67, 0
5, 582000, Note_on_c, 3, 66, 48
5, 582120, Note_off_c, 3, 66, 0
5, 582240, Note_on_c, 3, 76, 62
5, 582480, Note_off_c, 3, 76, 0
5, 582480, Note_on_c, 3, 74, 50
5, 582600, Note_off_c, 3, 74, 0
5, 582720, Control_c, 3, 10, 55
5, 582720, Note_on_c, 3, 42, 56
5, 583440, Note_off_c, 3, 42, 0
5, 583440, Note_on_c, 3, 43, 54
5, 583560, Note_off_c, 3, 43, 0
5, 583680, Note_on_c, 3, 52, 69
5, 583920, Note_off_c, 3, 52, 0
5, 583920, Note_on_c, 3, 50, 55
5, 584040, Note_off_c, 3, 50, 0
5, 584160, Control_c, 3, 10, 73
5, 584160, Note_on_c, 3, 66, 56
5, 584280, Note_off_c, 3, 66, 0
5, 584400, Note_on_c, 3, 76, 73
5, 584640, Note_off_c, 3, 76, 0
5, 584640, Note_on_c, 3, 74, 58
5, 584760, Note_off_c, 3, 74, 0
5, 584880, Control_c, 3, 10, 55
5, 584880, Note_on_c, 3, 43, 59
5, 585000, Note_off_c, 3, 43, 0
5, 585120, Note_on_c, 3, 52, 74
5, 585360, Note_off_c, 3, 52, 0
5, 585360, Note_on_c, 3, 50, 61
5, 585480, Note_off_c, 3, 50, 0
5, 585600, Control_c, 3, 10, 73
5, 585600, Note_on_c, 3, 66, 62
5, 585720, Note_off_c, 3, 66, 0
5, 585840, Note_on_c, 3, 76, 76
5, 586080, Note_off_c, 3, 76, 0
5, 586080, Note_on_c, 3, 74, 64
5, 586200, Note_off_c, 3, 74, 0
5, 586800, Control_c, 3, 10, 55
5, 586800, Note_on_c, 3, 55, 56
5, 586920, Note_off_c, 3, 55, 0
5, 587040, Note_on_c, 3, 57, 58
5, 587160, Note_off_c, 3, 57, 0
5, 587280, Note_on_c, 3, 59, 60
5, 587400, Note_off_c, 3, 59, 0
5, 587520, Note_on_c, 3, 60, 62
5, 587640, Note_off_c, 3, 60, 0
5, 587760, Note_on_c, 3, 62, 64
5, 587880, Note_off_c, 3, 62, 0
5, 588000, Note_on_c, 3, 64, 66
5, 588120, Note_off_c, 3, 64, 0
5, 588240, Note_on_c, 3, 66, 68
5, 588360, Note_off_c, 3, 66, 0
5, 588480, Note_on_c, 3, 67, 70
5, 588600, Note_off_c, 3, 67, 0
5, 588720, Note_on_c, 3, 54, 72
5, 588840, Note_off_c, 3, 54, 0
5, 588960, Note_on_c, 3, 55, 74
5, 589080, Note_off_c, 3, 55, 0
5, 589200, Note_on_c, 3, 56, 77
5, 589320, Note_off_c, 3, 56, 0
5, 589440, Note_on_c, 3, 57, 79
5, 589560, Note_off_c, 3, 57, 0
5, 589680, Note_on_c, 3, 58, 81
5, 589800, Note_off_c, 3, 58, 0
5, 589920, Note_on_c, 3, 59, 83
5, 590040, Note_off_c, 3, 59, 0
5, 590160, Note_on_c, 3, 59, 85
5, 590280, Note_off_c, 3, 59, 0
5, 590400, Note_on_c, 3, 60, 87
5, 590520, Note_off_c, 3, 60, 0
5, 590640, Note_on_c, 3, 59, 89
5, 590760, Note_off_c, 3, 59, 0
5, 590880, Note_on_c, 3, 60, 91
5, 591000, Note_off_c, 3, 60, 0
5, 591120, Note_on_c, 3, 59, 93
5, 591240, Note_off_c, 3, 59, 0
5, 591360, Note_on_c, 3, 60, 95
5, 591480, Note_off_c, 3, 60, 0
5, 591600, Note_on_c, 3, 59, 97
5, 591720, Note_off_c, 3, 59, 0
5, 591840, Note_on_c, 3, 60, 99
5, 591960, Note_off_c, 3, 60, 0
5, 592080, Note_on_c, 3, 60, 65
5, 592200, Note_off_c, 3, 60, 0
5, 592800, Note_on_c, 3, 61, 59
5, 592920, Note_off_c, 3, 61, 0
5, 593520, Note_on_c, 3, 62, 54
5, 593640, Note_off_c, 3, 62, 0
5, 594240, Note_on_c, 3, 57, 49
5, 594240, Note_on_c, 3, 60, 49
5, 594240, Note_on_c, 3, 50, 49
5, 594360, Note_off_c, 3, 50, 0
5, 594360, Note_off_c, 3, 60, 0
5, 594360, Note_off_c, 3, 57, 0
5, 594960, Note_on_c, 3, 55, 42
5, 595121, Note_off_c, 3, 55, 0
5, 595200, Note_on_c, 3, 55, 43
5, 595361, Note_off_c, 3, 55, 0
5, 595440, Note_on_c, 3, 55, 44
5, 595601, Note_off_c, 3, 55, 0
5, 595680, Note_on_c, 3, 55, 44
5, 595841, Note_off_c, 3, 55, 0
5, 595920, Note_on_c, 3, 55, 45
5, 596081, Note_off_c, 3, 55, 0
5, 596160, Note_on_c, 3, 55, 46
5, 596321, Note_off_c, 3, 55, 0
5, 596400, Note_on_c, 3, 57, 46
5, 596561, Note_off_c, 3, 57, 0
5, 596640, Note_on_c, 3, 57, 47
5, 596801, Note_off_c, 3, 57, 0
5, 596880, Note_on_c, 3, 57, 47
5, 597041, Note_off_c, 3, 57, 0
5, 597120, Note_on_c, 3, 57, 48
5, 597281, Note_off_c, 3, 57, 0
5, 597360, Note_on_c, 3, 57, 49
5, 597521, Note_off_c, 3, 57, 0
5, 597600, Note_on_c, 3, 57, 49
5, 597761, Note_off_c, 3, 57, 0
5, 597840, Note_on_c, 3, 55, 50
5, 598001, Note_off_c, 3, 55, 0
5, 598080, Note_on_c, 3, 55, 51
5, 598241, Note_off_c, 3, 55, 0
5, 598320, Note_on_c, 3, 55, 51
5, 598481, Note_off_c, 3, 55, 0
5, 598560, Note_on_c, 3, 55, 52
5, 598721, Note_off_c, 3, 55, 0
5, 598800, Note_on_c, 3, 55, 53
5, 598961, Note_off_c, 3, 55, 0
5, 599040, Note_on_c, 3, 55, 53
5, 599201, Note_off_c, 3, 55, 0
5, 599280, Note_on_c, 3, 57, 54
5, 599441, Note_off_c, 3, 57, 0
5, 599520, Note_on_c, 3, 57, 54
5, 599681, Note_off_c, 3, 57, 0
5, 599760, Note_on_c, 3, 57, 55
5, 599921, Note_off_c, 3, 57, 0
5, 600000, Note_on_c, 3, 57, 56
5, 600161, Note_off_c, 3, 57, 0
5, 600240, Note_on_c, 3, 57, 56
5, 600401, Note_off_c, 3, 57, 0
5, 600480, Note_on_c, 3, 57, 57
5, 600641, Note_off_c, 3, 57, 0
5, 600720, Note_on_c, 3, 55, 58
5, 600881, Note_off_c, 3, 55, 0
5, 600960, Note_on_c, 3, 55, 58
5, 601121, Note_off_c, 3, 55, 0
5, 601200, Note_on_c, 3, 55, 59
5, 601361, Note_off_c, 3, 55, 0
5, 601440, Note_on_c, 3, 57, 60
5, 601601, Note_off_c, 3, 57, 0
5, 601680, Note_on_c, 3, 57, 60
5, 601841, Note_off_c, 3, 57, 0
5, 601920, Note_on_c, 3, 57, 61
5, 602081, Note_off_c, 3, 57, 0
5, 602160, Note_on_c, 3, 55, 61
5, 602321, Note_off_c, 3, 55, 0
5, 602400, Note_on_c, 3, 55, 62
5, 602561, Note_off_c, 3, 55, 0
5, 602640, Note_on_c, 3, 55, 63
5, 602801, Note_off_c, 3, 55, 0
5, 602880, Note_on_c, 3, 57, 63
5, 603041, Note_off_c, 3, 57, 0
5, 603120, Note_on_c, 3, 57, 64
5, 603281, Note_off_c, 3, 57, 0
5, 603360, Note_on_c, 3, 57, 65
5, 603521, Note_off_c, 3, 57, 0
5, 604080, Note_on_c, 3, 31, 52
5, 604200, Note_off_c, 3, 31, 0
5, 604320, Note_on_c, 3, 33, 55
5, 604440, Note_off_c, 3, 33, 0
5, 604560, Note_on_c, 3, 35, 57
5, 604680, Note_off_c, 3, 35, 0
5, 604800, Note_on_c, 3, 36, 59
5, 604920, Note_off_c, 3, 36, 0
5, 605040, Note_on_c, 3, 38, 61
5, 605160, Note_off_c, 3, 38, 0
5, 605280, Note_on_c, 3, 40, 64
5, 605400, Note_off_c, 3, 40, 0
5, 605520, Note_on_c, 3, 42, 66
5, 605640, Note_off_c, 3, 42, 0
5, 605760, Note_on_c, 3, 43, 68
5, 605880, Note_off_c, 3, 43, 0
5, 606000, Note_on_c, 3, 42, 71
5, 606120, Note_off_c, 3, 42, 0
5, 606240, Note_on_c, 3, 43, 73
5, 606360, Note_off_c, 3, 43, 0
5, 606480, Note_on_c, 3, 44, 75
5, 606600, Note_off_c, 3, 44, 0
5, 606720, Note_on_c, 3, 45, 78
5, 606840, Note_off_c, 3, 45, 0
5, 606960, Note_on_c, 3, 46, 80
5, 607080, Note_off_c, 3, 46, 0
5, 607200, Note_on_c, 3, 47, 82
5, 607320, Note_off_c, 3, 47, 0
5, 607440, Note_on_c, 3, 47, 85
5, 607560, Note_off_c, 3, 47, 0
5, 607680, Note_on_c, 3, 48, 87
5, 607800, Note_off_c, 3, 48, 0
5, 607920, Note_on_c, 3, 47, 89
5, 608040, Note_off_c, 3, 47, 0
5, 608160, Note_on_c, 3, 48, 92
5, 608280, Note_off_c, 3, 48, 0
5, 608400, Note_on_c, 3, 47, 94
5, 608520, Note_off_c, 3, 47, 0
5, 608640, Note_on_c, 3, 48, 96
5, 608760, Note_off_c, 3, 48, 0
5, 608880, Note_on_c, 3, 47, 99
5, 609000, Note_off_c, 3, 47, 0
5, 609120, Note_on_c, 3, 48, 101
5, 609240, Note_off_c, 3, 48, 0
5, 609360, Note_on_c, 3, 48, 61
5, 609480, Note_off_c, 3, 48, 0
5, 610080, Note_on_c, 3, 49, 58
5, 610200, Note_off_c, 3, 49, 0
5, 610800, Note_on_c, 3, 50, 54
5, 610920, Note_off_c, 3, 50, 0
5, 611520, Note_on_c, 3, 50, 51
5, 611640, Note_off_c, 3, 50, 0
5, 612240, Note_on_c, 3, 43, 49
5, 612448, Note_off_c, 3, 43, 0
5, 612480, Note_on_c, 3, 43, 49
5, 612688, Note_off_c, 3, 43, 0
5, 612720, Note_on_c, 3, 43, 49
5, 612928, Note_off_c, 3, 43, 0
5, 612960, Note_on_c, 3, 43, 48
5, 613168, Note_off_c, 3, 43, 0
5, 613200, Note_on_c, 3, 43, 48
5, 613408, Note_off_c, 3, 43, 0
5, 613440, Note_on_c, 3, 43, 48
5, 613648, Note_off_c, 3, 43, 0
5, 613680, Note_on_c, 3, 43, 47
5, 613888, Note_off_c, 3, 43, 0
5, 613920, Note_on_c, 3, 43, 47
5, 614128, Note_off_c, 3, 43, 0
5, 614160, Note_on_c, 3, 43, 47
5, 614368, Note_off_c, 3, 43, 0
5, 614400, Note_on_c, 3, 43, 47
5, 614608, Note_off_c, 3, 43, 0
5, 614640, Note_on_c, 3, 43, 46
5, 614848, Note_off_c, 3, 43, 0
5, 614880, Note_on_c, 3, 43, 46
5, 615088, Note_off_c, 3, 43, 0
5, 615120, Note_on_c, 3, 43, 46
5, 615328, Note_off_c, 3, 43, 0
5, 615360, Note_on_c, 3, 43, 45
5, 615568, Note_off_c, 3, 43, 0
5, 615600, Note_on_c, 3, 43, 45
5, 615808, Note_off_c, 3, 43, 0
5, 615840, Note_on_c, 3, 43, 45
5, 616048, Note_off_c, 3, 43, 0
5, 616080, Note_on_c, 3, 43, 44
5, 616288, Note_off_c, 3, 43, 0
5, 616320, Note_on_c, 3, 43, 44
5, 616528, Note_off_c, 3, 43, 0
5, 616560, Note_on_c, 3, 43, 44
5, 616768, Note_off_c, 3, 43, 0
5, 616800, Note_on_c, 3, 43, 43
5, 617008, Note_off_c, 3, 43, 0
5, 617040, Note_on_c, 3, 43, 43
5, 617248, Note_off_c, 3, 43, 0
5, 617280, Note_on_c, 3, 43, 43
5, 617488, Note_off_c, 3, 43, 0
5, 617520, Note_on_c, 3, 43, 42
5, 617728, Note_off_c, 3, 43, 0
5, 617760, Note_on_c, 3, 43, 42
5, 617968, Note_off_c, 3, 43, 0
5, 618000, Note_on_c, 3, 43, 42
5, 618208, Note_off_c, 3, 43, 0
5, 618240, Note_on_c, 3, 43, 41
5, 618448, Note_off_c, 3, 43, 0
5, 618480, Note_on_c, 3, 43, 41
5, 618688, Note_off_c, 3, 43, 0
5, 618720, Note_on_c, 3, 43, 41
5, 618928, Note_off_c, 3, 43, 0
5, 618960, Note_on_c, 3, 43, 40
5, 619168, Note_off_c, 3, 43, 0
5, 619200, Note_on_c, 3, 43, 40
5, 619408, Note_off_c, 3, 43, 0
5, 619440, Note_on_c, 3, 43, 40
5, 619648, Note_off_c, 3, 43, 0
5, 619680, Note_on_c, 3, 43, 39
5, 619888, Note_off_c, 3, 43, 0
5, 619920, Note_on_c, 3, 43, 39
5, 620128, Note_off_c, 3, 43, 0
5, 620160, Note_on_c, 3, 43, 39
5, 620368, Note_off_c, 3, 43, 0
5, 620400, Note_on_c, 3, 43, 38
5, 620608, Note_off_c, 3, 43, 0
5, 620640, Note_on_c, 3, 43, 38
5, 620848, Note_off_c, 3, 43, 0
5, 620880, Note_on_c, 3, 43, 38
5, 621088, Note_off_c, 3, 43, 0
5, 621120, Note_on_c, 3, 43, 37
5, 621328, Note_off_c, 3, 43, 0
5, 621360, Note_on_c, 3, 43, 37
5, 621568, Note_off_c, 3, 43, 0
5, 621600, Note_on_c, 3, 43, 37
5, 621808, Note_off_c, 3, 43, 0
5, 621840, Note_on_c, 3, 43, 36
5, 622048, Note_off_c, 3, 43, 0
5, 622080, Note_on_c, 3, 43, 36
5, 622288, Note_off_c, 3, 43, 0
5, 622320, Note_on_c, 3, 43, 36
5, 622528, Note_off_c, 3, 43, 0
5, 622560, Note_on_c, 3, 43, 35
5, 622768, Note_off_c, 3, 43, 0
5, 622800, Note_on_c, 3, 43, 35
5, 623008, Note_off_c, 3, 43, 0
5, 623040, Note_on_c, 3, 43, 35
5, 623160, Note_off_c, 3, 43, 0
5, 623520, Note_on_c, 3, 33, 34
5, 623640, Note_off_c, 3, 33, 0
5, 623640, Note_on_c, 3, 30, 34
5, 623760, Note_off_c, 3, 30, 0
5, 623760, Note_on_c, 3, 31, 34
5, 623880, Note_off_c, 3, 31, 0
5, 623880, End_track
6, 0, Start_track
6, 1, Copyright_t, "___________________________________________________\012\012KUNSTDERFUGE.COM LARGE CLASSICAL MIDI COLLECTION\012ONCLASSICAL BY ALESSANDRO SIMONETTO, PROPRIETOR\012___________________________________________________\012\012! Attention: this file is under copyright !\012\012(c)onclassical, (c)hisamori, 2010\012___________________________________________________\012\012NO ONE MAY REPUBLISH THIS FILE WITHOUT PERMISSION\012COMMERCIAL USES OF THIS FILE IS STRICTLY PROHIBITED\012___________________________________________________\012\012Files & contributor's list: http://kunstderfuge.com/\012Terms and conditions: http://kunstderfuge.com/notes.htm"
6, 1, End_track
0, 0, End_of_file
