0, 0, Header, 1, 6, 480
1, 0, Start_track
1, 0, Title_t, "Untitled"
1, 0, Time_signature, 2, 2, 24, 8
1, 0, Key_signature, 0, "major"
1, 0, Tempo, 508474
1, 0, Marker_t, "Beethoven"
1, 900, Tempo, 517241
1, 960, Tempo, 508474
1, 960, Marker_t, "Piano Sonata No.6"
1, 1860, Tempo, 517241
1, 1920, Tempo, 508474
1, 1920, Marker_t, "hisamori@bekkoame.or.jp"
1, 2820, Tempo, 517241
1, 2880, Tempo, 508474
1, 2880, Marker_t, "Mail in English onjy"
1, 3787, Tempo, 517241
1, 3840, Marker_t, "Than you!"
1, 4560, Tempo, 517241
1, 4680, Tempo, 526315
1, 4800, Tempo, 517241
1, 5760, Marker_t, "Nov. 1997"
1, 7640, Tempo, 526315
1, 8640, Tempo, 517241
1, 9600, Tempo, 508474
1, 9840, Tempo, 526315
1, 10200, Tempo, 517241
1, 11470, Tempo, 526315
1, 12240, Tempo, 508474
1, 12420, Tempo, 517241
1, 12480, Tempo, 508474
1, 13380, Tempo, 517241
1, 13440, Tempo, 508474
1, 14280, Tempo, 517241
1, 14340, Tempo, 517241
1, 14400, Tempo, 508474
1, 15315, Tempo, 517241
1, 15360, Tempo, 508474
1, 16260, Tempo, 517241
1, 16320, Tempo, 508474
1, 16717, Tempo, 517241
1, 16800, Tempo, 508474
1, 17220, Tempo, 517241
1, 17760, Tempo, 600000
1, 18000, Tempo, 517241
1, 18120, Tempo, 526315
1, 18240, Tempo, 517241
1, 19140, Tempo, 526315
1, 19200, Tempo, 517241
1, 20340, Tempo, 526315
1, 20400, Tempo, 517241
1, 21960, Tempo, 535714
1, 22080, Tempo, 517241
1, 22980, Tempo, 526315
1, 23040, Tempo, 517241
1, 24180, Tempo, 526315
1, 24240, Tempo, 517241
1, 25800, Tempo, 535714
1, 25920, Tempo, 517241
1, 26820, Tempo, 526315
1, 26880, Tempo, 517241
1, 28020, Tempo, 517241
1, 28080, Tempo, 508474
1, 29460, Tempo, 526315
1, 29520, Tempo, 517241
1, 30420, Tempo, 526315
1, 30480, Tempo, 517241
1, 31380, Tempo, 526315
1, 31440, Tempo, 517241
1, 32340, Tempo, 526315
1, 32400, Tempo, 517241
1, 33300, Tempo, 526315
1, 33360, Tempo, 517241
1, 34260, Tempo, 526315
1, 34320, Tempo, 517241
1, 34500, Tempo, 526315
1, 35940, Tempo, 535714
1, 36240, Tempo, 540540
1, 36360, Tempo, 600000
1, 36480, Tempo, 526315
1, 37380, Tempo, 540540
1, 37440, Tempo, 526315
1, 38340, Tempo, 535714
1, 39300, Tempo, 540540
1, 39840, Tempo, 560747
1, 40020, Tempo, 517241
1, 41280, Tempo, 517241
1, 42180, Tempo, 535714
1, 43140, Tempo, 550458
1, 43690, Tempo, 560747
1, 45120, Tempo, 517241
1, 46980, Tempo, 526315
1, 47040, Tempo, 517241
1, 48840, Tempo, 526315
1, 48960, Tempo, 517241
1, 49380, Tempo, 526315
1, 49440, Tempo, 517241
1, 49860, Tempo, 526315
1, 49920, Tempo, 517241
1, 50340, Tempo, 526315
1, 50400, Tempo, 517241
1, 50820, Tempo, 526315
1, 50880, Tempo, 526315
1, 51060, Tempo, 526315
1, 51120, Tempo, 517241
1, 51780, Tempo, 526315
1, 52080, Tempo, 517241
1, 52680, Tempo, 535714
1, 52800, Tempo, 508474
1, 55620, Tempo, 517241
1, 55680, Tempo, 508474
1, 56580, Tempo, 517241
1, 56640, Tempo, 508474
1, 59460, Tempo, 517241
1, 59520, Tempo, 508474
1, 60420, Tempo, 517241
1, 60480, Tempo, 508474
1, 61380, Tempo, 517241
1, 61440, Tempo, 508474
1, 62340, Tempo, 517241
1, 63300, Tempo, 526315
1, 63840, Tempo, 750000
1, 64080, Tempo, 508474
1, 64260, Tempo, 517241
1, 64320, Tempo, 508474
1, 65220, Tempo, 517241
1, 65280, Tempo, 508474
1, 66180, Tempo, 517241
1, 66240, Tempo, 508474
1, 67147, Tempo, 517241
1, 67920, Tempo, 517241
1, 68040, Tempo, 526315
1, 68160, Tempo, 517241
1, 71000, Tempo, 526315
1, 72000, Tempo, 517241
1, 72960, Tempo, 508474
1, 73200, Tempo, 526315
1, 73560, Tempo, 517241
1, 74830, Tempo, 526315
1, 75600, Tempo, 508474
1, 75780, Tempo, 517241
1, 75840, Tempo, 508474
1, 76740, Tempo, 517241
1, 76800, Tempo, 508474
1, 77640, Tempo, 517241
1, 77700, Tempo, 517241
1, 77760, Tempo, 508474
1, 78675, Tempo, 517241
1, 78720, Tempo, 508474
1, 79620, Tempo, 517241
1, 79680, Tempo, 508474
1, 80077, Tempo, 517241
1, 80160, Tempo, 508474
1, 80580, Tempo, 517241
1, 81120, Tempo, 600000
1, 81360, Tempo, 517241
1, 81480, Tempo, 526315
1, 81600, Tempo, 517241
1, 82500, Tempo, 526315
1, 82560, Tempo, 517241
1, 83700, Tempo, 526315
1, 83760, Tempo, 517241
1, 85320, Tempo, 535714
1, 85440, Tempo, 517241
1, 86340, Tempo, 526315
1, 86400, Tempo, 517241
1, 87540, Tempo, 526315
1, 87600, Tempo, 517241
1, 89160, Tempo, 535714
1, 89280, Tempo, 517241
1, 91380, Tempo, 517241
1, 91440, Tempo, 508474
1, 92820, Tempo, 526315
1, 92880, Tempo, 517241
1, 93780, Tempo, 526315
1, 93840, Tempo, 517241
1, 94740, Tempo, 526315
1, 94800, Tempo, 517241
1, 95700, Tempo, 526315
1, 95760, Tempo, 517241
1, 96660, Tempo, 526315
1, 96720, Tempo, 517241
1, 97620, Tempo, 526315
1, 97680, Tempo, 517241
1, 97860, Tempo, 526315
1, 99300, Tempo, 535714
1, 99600, Tempo, 540540
1, 99720, Tempo, 600000
1, 99840, Tempo, 526315
1, 100740, Tempo, 540540
1, 100800, Tempo, 526315
1, 101700, Tempo, 535714
1, 102660, Tempo, 540540
1, 103200, Tempo, 560747
1, 103380, Tempo, 517241
1, 104640, Tempo, 517241
1, 105540, Tempo, 535714
1, 106500, Tempo, 550458
1, 107050, Tempo, 560747
1, 108480, Tempo, 517241
1, 110340, Tempo, 526315
1, 110400, Tempo, 517241
1, 112200, Tempo, 526315
1, 112320, Tempo, 517241
1, 112740, Tempo, 526315
1, 112800, Tempo, 517241
1, 113220, Tempo, 526315
1, 113280, Tempo, 517241
1, 113700, Tempo, 526315
1, 113760, Tempo, 517241
1, 114180, Tempo, 526315
1, 114240, Tempo, 526315
1, 114480, Tempo, 517241
1, 115140, Tempo, 526315
1, 115440, Tempo, 517241
1, 116040, Tempo, 535714
1, 116160, Tempo, 508474
1, 118980, Tempo, 517241
1, 119040, Tempo, 508474
1, 119940, Tempo, 517241
1, 120000, Tempo, 508474
1, 122820, Tempo, 517241
1, 122880, Tempo, 508474
1, 123780, Tempo, 517241
1, 123840, Tempo, 508474
1, 124740, Tempo, 517241
1, 124800, Tempo, 508474
1, 125700, Tempo, 517241
1, 126660, Tempo, 526315
1, 127190, Tempo, 535714
1, 127680, Tempo, 526315
1, 128580, Tempo, 535714
1, 129120, Tempo, 600000
1, 129600, Tempo, 508474
1, 131460, Tempo, 517241
1, 131520, Tempo, 508474
1, 133320, Tempo, 526315
1, 133440, Tempo, 508474
1, 135240, Tempo, 526315
1, 135360, Tempo, 508474
1, 136980, Tempo, 517241
1, 137050, Tempo, 526315
1, 137160, Tempo, 612244
1, 137280, Tempo, 508474
1, 141060, Tempo, 517241
1, 141120, Tempo, 508474
1, 142920, Tempo, 517241
1, 142980, Tempo, 571428
1, 143040, Tempo, 508474
1, 146820, Tempo, 517241
1, 146880, Tempo, 508474
1, 148680, Tempo, 517241
1, 148740, Tempo, 526315
1, 148800, Tempo, 508474
1, 150600, Tempo, 526315
1, 150660, Tempo, 540540
1, 150720, Tempo, 508474
1, 154440, Tempo, 517241
1, 154500, Tempo, 526315
1, 154560, Tempo, 508474
1, 156360, Tempo, 526315
1, 156480, Tempo, 508474
1, 158280, Tempo, 526315
1, 158400, Tempo, 508474
1, 160200, Tempo, 526315
1, 160320, Tempo, 508474
1, 162120, Tempo, 526315
1, 162240, Tempo, 508474
1, 164040, Tempo, 526315
1, 164160, Tempo, 508474
1, 165960, Tempo, 526315
1, 166080, Tempo, 508474
1, 167880, Tempo, 526315
1, 168000, Tempo, 508474
1, 169800, Tempo, 526315
1, 169920, Tempo, 508474
1, 170760, Tempo, 526315
1, 170880, Tempo, 508474
1, 171720, Tempo, 526315
1, 171840, Tempo, 508474
1, 173640, Tempo, 517241
1, 174600, Tempo, 526315
1, 175560, Tempo, 535714
1, 175680, Tempo, 1071428
1, 176400, Tempo, 508474
1, 176580, Tempo, 517241
1, 176640, Tempo, 508474
1, 177547, Tempo, 517241
1, 177600, Tempo, 508474
1, 178500, Tempo, 517241
1, 178560, Tempo, 508474
1, 179460, Tempo, 517241
1, 180232, Tempo, 517241
1, 180360, Tempo, 526315
1, 180480, Tempo, 517241
1, 183310, Tempo, 526315
1, 184320, Tempo, 517241
1, 185280, Tempo, 508474
1, 185520, Tempo, 526315
1, 185880, Tempo, 517241
1, 187140, Tempo, 526315
1, 188880, Tempo, 508474
1, 189060, Tempo, 517241
1, 189120, Tempo, 508474
1, 190020, Tempo, 517241
1, 190080, Tempo, 508474
1, 190980, Tempo, 517241
1, 191040, Tempo, 508474
1, 191962, Tempo, 517241
1, 192000, Tempo, 508474
1, 192900, Tempo, 517241
1, 193387, Tempo, 526315
1, 193760, Tempo, 535714
1, 193875, Tempo, 582524
1, 193920, Tempo, 1071428
1, 194640, Tempo, 517241
1, 194760, Tempo, 526315
1, 194880, Tempo, 517241
1, 197700, Tempo, 526315
1, 198720, Tempo, 517241
1, 199680, Tempo, 508474
1, 199920, Tempo, 526315
1, 200280, Tempo, 517241
1, 201540, Tempo, 526315
1, 201600, Tempo, 517241
1, 202440, Tempo, 526315
1, 202560, Tempo, 517241
1, 203460, Tempo, 526315
1, 203520, Tempo, 517241
1, 204660, Tempo, 526315
1, 204720, Tempo, 517241
1, 206280, Tempo, 526315
1, 206400, Tempo, 517241
1, 207300, Tempo, 526315
1, 207360, Tempo, 517241
1, 208500, Tempo, 526315
1, 208560, Tempo, 517241
1, 210120, Tempo, 540540
1, 210240, Tempo, 517241
1, 211140, Tempo, 526315
1, 211200, Tempo, 517241
1, 213960, Tempo, 526315
1, 214080, Tempo, 517241
1, 214980, Tempo, 526315
1, 215040, Tempo, 517241
1, 218760, Tempo, 526315
1, 218880, Tempo, 517241
1, 221460, Tempo, 526315
1, 221520, Tempo, 517241
1, 222420, Tempo, 526315
1, 222480, Tempo, 517241
1, 223380, Tempo, 526315
1, 223440, Tempo, 517241
1, 224340, Tempo, 526315
1, 224400, Tempo, 517241
1, 224580, Tempo, 517241
1, 226000, Tempo, 526315
1, 226370, Tempo, 535714
1, 226440, Tempo, 600000
1, 226560, Tempo, 526315
1, 227460, Tempo, 540540
1, 227520, Tempo, 526315
1, 228420, Tempo, 526315
1, 229380, Tempo, 540540
1, 229920, Tempo, 571428
1, 230100, Tempo, 517241
1, 230340, Tempo, 526315
1, 230400, Tempo, 517241
1, 231360, Tempo, 517241
1, 232260, Tempo, 535714
1, 233130, Tempo, 550458
1, 233220, Tempo, 571428
1, 234720, Tempo, 600000
1, 235200, Tempo, 517241
1, 237060, Tempo, 526315
1, 237120, Tempo, 517241
1, 238920, Tempo, 526315
1, 239040, Tempo, 517241
1, 239460, Tempo, 526315
1, 239520, Tempo, 517241
1, 239940, Tempo, 526315
1, 240000, Tempo, 517241
1, 240420, Tempo, 526315
1, 240480, Tempo, 517241
1, 240900, Tempo, 526315
1, 240960, Tempo, 526315
1, 241200, Tempo, 517241
1, 241860, Tempo, 526315
1, 242170, Tempo, 517241
1, 242760, Tempo, 535714
1, 242880, Tempo, 535714
1, 243320, Tempo, 508474
1, 243780, Tempo, 517241
1, 244740, Tempo, 526315
1, 244800, Tempo, 508474
1, 247620, Tempo, 517241
1, 247680, Tempo, 508474
1, 248580, Tempo, 517241
1, 248640, Tempo, 508474
1, 251460, Tempo, 517241
1, 251520, Tempo, 508474
1, 252420, Tempo, 517241
1, 252480, Tempo, 508474
1, 254340, Tempo, 517241
1, 254400, Tempo, 508474
1, 256200, Tempo, 517241
1, 256260, Tempo, 526315
1, 257040, Tempo, 535714
1, 257760, Tempo, 1071428
1, 258240, Time_signature, 3, 2, 24, 8
1, 258720, Marker_t, "Allegretto"
1, 259200, Tempo, 253164
1, 259680, Tempo, 253164
1, 269640, Tempo, 255319
1, 270480, Tempo, 258620
1, 270720, Tempo, 253164
1, 281160, Tempo, 255319
1, 282000, Tempo, 258620
1, 282240, Tempo, 253164
1, 291120, Tempo, 255319
1, 292200, Tempo, 256410
1, 292560, Tempo, 258620
1, 293280, Tempo, 287081
1, 293760, Tempo, 253164
1, 302840, Tempo, 255319
1, 302880, Tempo, 253164
1, 304260, Tempo, 255319
1, 304320, Tempo, 253164
1, 307920, Tempo, 255319
1, 308160, Tempo, 253164
1, 308590, Tempo, 255319
1, 308640, Tempo, 253164
1, 310030, Tempo, 255319
1, 310080, Tempo, 253164
1, 312720, Tempo, 255319
1, 313680, Tempo, 258620
1, 313920, Tempo, 253164
1, 317160, Tempo, 255319
1, 317400, Tempo, 253164
1, 320100, Tempo, 255319
1, 320175, Tempo, 253164
1, 322080, Tempo, 255319
1, 322920, Tempo, 258620
1, 323040, Tempo, 384615
1, 324000, Tempo, 265486
1, 324360, Tempo, 266666
1, 324480, Tempo, 265486
1, 327120, Tempo, 266666
1, 327360, Tempo, 265486
1, 330000, Tempo, 266666
1, 330120, Tempo, 269058
1, 330240, Tempo, 265486
1, 332880, Tempo, 266666
1, 333120, Tempo, 265486
1, 335880, Tempo, 266666
1, 336000, Tempo, 265486
1, 338640, Tempo, 269058
1, 338880, Tempo, 265486
1, 344400, Tempo, 266666
1, 346080, Tempo, 269058
1, 347040, Tempo, 265486
1, 347400, Tempo, 266666
1, 347520, Tempo, 265486
1, 350160, Tempo, 266666
1, 350400, Tempo, 265486
1, 353160, Tempo, 266666
1, 353280, Tempo, 265486
1, 355920, Tempo, 266666
1, 356160, Tempo, 265486
1, 358920, Tempo, 266666
1, 359040, Tempo, 265486
1, 361680, Tempo, 266666
1, 361920, Tempo, 265486
1, 367560, Tempo, 266666
1, 367800, Tempo, 265486
1, 369840, Tempo, 269058
1, 370080, Tempo, 265486
1, 370440, Tempo, 266666
1, 370560, Tempo, 265486
1, 373200, Tempo, 266666
1, 373440, Tempo, 265486
1, 376200, Tempo, 266666
1, 376320, Tempo, 265486
1, 378960, Tempo, 266666
1, 379200, Tempo, 265486
1, 381960, Tempo, 266666
1, 382200, Tempo, 265486
1, 384720, Tempo, 266666
1, 384960, Tempo, 265486
1, 387720, Tempo, 266666
1, 387840, Tempo, 265486
1, 390480, Tempo, 266666
1, 390720, Tempo, 265486
1, 393360, Tempo, 266666
1, 393600, Tempo, 265486
1, 396240, Tempo, 266666
1, 396480, Tempo, 265486
1, 399120, Tempo, 266666
1, 399360, Tempo, 265486
1, 402120, Tempo, 266666
1, 402360, Tempo, 265486
1, 404400, Tempo, 266666
1, 404640, Tempo, 265486
1, 405000, Tempo, 266666
1, 405120, Tempo, 265486
1, 407760, Tempo, 266666
1, 408000, Tempo, 265486
1, 410760, Tempo, 266666
1, 410880, Tempo, 265486
1, 413520, Tempo, 266666
1, 413760, Tempo, 265486
1, 416520, Tempo, 266666
1, 416640, Tempo, 265486
1, 419280, Tempo, 266666
1, 419520, Tempo, 265486
1, 422280, Tempo, 266666
1, 422520, Tempo, 265486
1, 425040, Tempo, 266666
1, 425280, Tempo, 265486
1, 428040, Tempo, 266666
1, 428160, Tempo, 265486
1, 430800, Tempo, 266666
1, 431040, Tempo, 265486
1, 433680, Tempo, 266666
1, 433920, Tempo, 265486
1, 436680, Tempo, 266666
1, 438000, Tempo, 269058
1, 438240, Tempo, 266666
1, 440880, Tempo, 269058
1, 441120, Tempo, 266666
1, 443760, Tempo, 269058
1, 444915, Tempo, 275229
1, 445440, Tempo, 279069
1, 446400, Tempo, 301507
1, 446880, Tempo, 253164
1, 456720, Tempo, 255319
1, 457680, Tempo, 258620
1, 457920, Tempo, 253164
1, 468240, Tempo, 255319
1, 469200, Tempo, 258620
1, 469440, Tempo, 253164
1, 478320, Tempo, 255319
1, 479760, Tempo, 258620
1, 480000, Tempo, 428571
1, 480960, Tempo, 253164
1, 490030, Tempo, 255319
1, 490080, Tempo, 253164
1, 491480, Tempo, 255319
1, 491520, Tempo, 253164
1, 495600, Tempo, 255319
1, 495840, Tempo, 253164
1, 497220, Tempo, 255319
1, 497280, Tempo, 253164
1, 500040, Tempo, 255319
1, 501105, Tempo, 253164
1, 504375, Tempo, 255319
1, 504585, Tempo, 253164
1, 507240, Tempo, 255319
1, 507480, Tempo, 253164
1, 508560, Tempo, 255319
1, 509280, Tempo, 258620
1, 510015, Tempo, 384615
1, 510720, Tempo, 722891
1, 511680, Time_signature, 2, 2, 24, 8
1, 511680, Tempo, 338983
1, 511680, Marker_t, "Presto"
1, 512580, Tempo, 355029
1, 512640, Tempo, 352941
1, 516420, Tempo, 355029
1, 516480, Tempo, 352941
1, 520260, Tempo, 355029
1, 520320, Tempo, 352941
1, 526020, Tempo, 355029
1, 526080, Tempo, 352941
1, 526980, Tempo, 355029
1, 527040, Tempo, 352941
1, 527940, Tempo, 355029
1, 528000, Tempo, 352941
1, 529860, Tempo, 355029
1, 529920, Tempo, 352941
1, 530820, Tempo, 355029
1, 530880, Tempo, 352941
1, 531780, Tempo, 355029
1, 531840, Tempo, 352941
1, 533520, Tempo, 355029
1, 533700, Tempo, 359281
1, 533760, Tempo, 352941
1, 534660, Tempo, 355029
1, 534720, Tempo, 352941
1, 535620, Tempo, 355029
1, 535680, Tempo, 352941
1, 537540, Tempo, 355029
1, 537600, Tempo, 352941
1, 538500, Tempo, 355029
1, 538560, Tempo, 352941
1, 539460, Tempo, 355029
1, 539520, Tempo, 352941
1, 541380, Tempo, 355029
1, 542370, Tempo, 359281
1, 542655, Tempo, 500000
1, 543060, Tempo, 352941
1, 543300, Tempo, 355029
1, 543360, Tempo, 352941
1, 547140, Tempo, 355029
1, 547200, Tempo, 352941
1, 550980, Tempo, 355029
1, 551040, Tempo, 352941
1, 556740, Tempo, 355029
1, 556800, Tempo, 352941
1, 557700, Tempo, 355029
1, 557760, Tempo, 352941
1, 558660, Tempo, 355029
1, 558720, Tempo, 352941
1, 560580, Tempo, 355029
1, 560640, Tempo, 352941
1, 561540, Tempo, 355029
1, 561600, Tempo, 352941
1, 562500, Tempo, 355029
1, 562560, Tempo, 352941
1, 564240, Tempo, 355029
1, 564420, Tempo, 359281
1, 564480, Tempo, 352941
1, 565380, Tempo, 355029
1, 565440, Tempo, 352941
1, 566340, Tempo, 355029
1, 566400, Tempo, 352941
1, 568260, Tempo, 355029
1, 568320, Tempo, 352941
1, 569220, Tempo, 355029
1, 569280, Tempo, 352941
1, 570180, Tempo, 355029
1, 570240, Tempo, 352941
1, 572100, Tempo, 355029
1, 573090, Tempo, 359281
1, 573360, Tempo, 500000
1, 573780, Tempo, 352941
1, 574980, Tempo, 355029
1, 575040, Tempo, 352941
1, 575940, Tempo, 355029
1, 576000, Tempo, 352941
1, 576900, Tempo, 355029
1, 576960, Tempo, 352941
1, 577860, Tempo, 355029
1, 577920, Tempo, 352941
1, 581700, Tempo, 355029
1, 581760, Tempo, 352941
1, 591300, Tempo, 355029
1, 591360, Tempo, 352941
1, 592260, Tempo, 355029
1, 592320, Tempo, 352941
1, 593220, Tempo, 355029
1, 593280, Tempo, 352941
1, 594180, Tempo, 355029
1, 594240, Tempo, 352941
1, 595140, Tempo, 355029
1, 595200, Tempo, 352941
1, 596100, Tempo, 355029
1, 596160, Tempo, 352941
1, 597060, Tempo, 355029
1, 597120, Tempo, 352941
1, 598020, Tempo, 355029
1, 598080, Tempo, 352941
1, 598980, Tempo, 355029
1, 599040, Tempo, 352941
1, 599940, Tempo, 355029
1, 600000, Tempo, 352941
1, 600900, Tempo, 355029
1, 600960, Tempo, 352941
1, 601860, Tempo, 355029
1, 601920, Tempo, 352941
1, 602820, Tempo, 355029
1, 602880, Tempo, 352941
1, 603780, Tempo, 355029
1, 603840, Tempo, 352941
1, 604740, Tempo, 355029
1, 604800, Tempo, 352941
1, 605700, Tempo, 355029
1, 605760, Tempo, 352941
1, 606660, Tempo, 355029
1, 606720, Tempo, 447761
1, 606960, Tempo, 359281
1, 608400, Tempo, 363636
1, 608580, Tempo, 372670
1, 608640, Tempo, 352941
1, 609540, Tempo, 355029
1, 609600, Tempo, 352941
1, 610530, Tempo, 355029
1, 610560, Tempo, 352941
1, 612420, Tempo, 355029
1, 612480, Tempo, 352941
1, 613380, Tempo, 355029
1, 613440, Tempo, 352941
1, 614340, Tempo, 355029
1, 614400, Tempo, 352941
1, 616260, Tempo, 355029
1, 616320, Tempo, 352941
1, 623940, Tempo, 355029
1, 624000, Tempo, 352941
1, 625680, Tempo, 355029
1, 625860, Tempo, 359281
1, 625920, Tempo, 352941
1, 629700, Tempo, 355029
1, 629760, Tempo, 352941
1, 633540, Tempo, 355029
1, 633600, Tempo, 352941
1, 637380, Tempo, 355029
1, 637440, Tempo, 352941
1, 641220, Tempo, 355029
1, 641280, Tempo, 352941
1, 645060, Tempo, 355029
1, 645120, Tempo, 352941
1, 657300, Tempo, 355029
1, 657360, Tempo, 352941
1, 658260, Tempo, 355029
1, 658320, Tempo, 352941
1, 659220, Tempo, 355029
1, 659280, Tempo, 352941
1, 660180, Tempo, 355029
1, 660240, Tempo, 352941
1, 660420, Tempo, 355029
1, 660480, Tempo, 352941
1, 662160, Tempo, 355029
1, 662340, Tempo, 359281
1, 662400, Tempo, 352941
1, 663300, Tempo, 355029
1, 663360, Tempo, 352941
1, 664260, Tempo, 355029
1, 664320, Tempo, 352941
1, 665220, Tempo, 355029
1, 665280, Tempo, 352941
1, 666180, Tempo, 355029
1, 666240, Tempo, 352941
1, 667140, Tempo, 355029
1, 667200, Tempo, 352941
1, 668100, Tempo, 355029
1, 668160, Tempo, 352941
1, 670020, Tempo, 355029
1, 670080, Tempo, 352941
1, 670980, Tempo, 355029
1, 671040, Tempo, 352941
1, 671940, Tempo, 355029
1, 672000, Tempo, 352941
1, 673860, Tempo, 355029
1, 673920, Tempo, 352941
1, 674820, Tempo, 355029
1, 674880, Tempo, 352941
1, 675780, Tempo, 355029
1, 675840, Tempo, 352941
1, 677700, Tempo, 355029
1, 677760, Tempo, 352941
1, 679620, Tempo, 355029
1, 679680, Tempo, 352941
1, 681540, Tempo, 355029
1, 681600, Tempo, 352941
1, 683460, Tempo, 355029
1, 683520, Tempo, 352941
1, 685080, Tempo, 355029
1, 685365, Tempo, 625000
1, 685440, Tempo, 480000
1, 685440, End_track
2, 0, Start_track
2, 0, Title_t, "No Name"
2, 0, Control_c, 0, 0, 0
2, 0, Control_c, 0, 32, 0
2, 0, Program_c, 0, 0
2, 0, Control_c, 0, 7, 127
2, 0, Pitch_bend_c, 0, 8192
2, 0, Control_c, 0, 1, 0
2, 0, Control_c, 0, 64, 0
2, 0, Control_c, 0, 93, 28
2, 0, Control_c, 0, 91, 91
2, 0, Control_c, 0, 10, 73
2, 720, Note_on_c, 0, 69, 48
2, 840, Note_off_c, 0, 69, 0
2, 960, Note_on_c, 0, 72, 49
2, 1152, Note_off_c, 0, 72, 0
2, 1680, Note_on_c, 0, 72, 42
2, 1760, Note_off_c, 0, 72, 0
2, 1760, Note_on_c, 0, 71, 42
2, 1840, Note_off_c, 0, 71, 0
2, 1840, Note_on_c, 0, 74, 41
2, 1920, Note_off_c, 0, 74, 0
2, 1920, Note_on_c, 0, 72, 40
2, 2112, Note_off_c, 0, 72, 0
2, 2640, Note_on_c, 0, 69, 46
2, 2760, Note_off_c, 0, 69, 0
2, 2880, Note_on_c, 0, 70, 46
2, 3072, Note_off_c, 0, 70, 0
2, 3600, Note_on_c, 0, 70, 42
2, 3680, Note_off_c, 0, 70, 0
2, 3680, Note_on_c, 0, 69, 42
2, 3760, Note_off_c, 0, 69, 0
2, 3760, Note_on_c, 0, 72, 41
2, 3840, Note_off_c, 0, 72, 0
2, 3840, Note_on_c, 0, 70, 41
2, 4032, Note_off_c, 0, 70, 0
2, 4560, Note_on_c, 0, 70, 47
2, 4716, Note_off_c, 0, 70, 0
2, 4800, Note_on_c, 0, 69, 46
2, 4980, Note_off_c, 0, 69, 0
2, 4980, Note_on_c, 0, 72, 48
2, 5040, Note_off_c, 0, 72, 0
2, 5040, Note_on_c, 0, 77, 48
2, 5520, Note_off_c, 0, 77, 0
2, 5520, Note_on_c, 0, 76, 52
2, 5760, Note_off_c, 0, 76, 0
2, 5760, Note_on_c, 0, 77, 54
2, 6000, Note_off_c, 0, 77, 0
2, 6000, Note_on_c, 0, 81, 56
2, 6480, Note_off_c, 0, 81, 0
2, 6480, Note_on_c, 0, 79, 61
2, 6960, Note_off_c, 0, 79, 0
2, 6960, Note_on_c, 0, 81, 58
2, 7440, Note_off_c, 0, 81, 0
2, 7440, Note_on_c, 0, 82, 56
2, 7560, Note_off_c, 0, 82, 0
2, 7560, Note_on_c, 0, 84, 56
2, 7680, Note_off_c, 0, 84, 0
2, 7680, Note_on_c, 0, 84, 55
2, 7920, Note_off_c, 0, 84, 0
2, 7920, Note_on_c, 0, 82, 54
2, 8040, Note_off_c, 0, 82, 0
2, 8640, Note_on_c, 0, 82, 51
2, 8680, Note_off_c, 0, 82, 0
2, 8680, Note_on_c, 0, 84, 51
2, 8720, Note_off_c, 0, 84, 0
2, 8720, Note_on_c, 0, 82, 51
2, 8760, Note_off_c, 0, 82, 0
2, 8760, Note_on_c, 0, 81, 51
2, 8820, Note_off_c, 0, 81, 0
2, 8820, Note_on_c, 0, 82, 50
2, 8880, Note_off_c, 0, 82, 0
2, 8880, Note_on_c, 0, 86, 50
2, 9360, Note_off_c, 0, 86, 0
2, 9360, Note_on_c, 0, 84, 48
2, 9480, Note_off_c, 0, 84, 0
2, 9480, Note_on_c, 0, 82, 48
2, 9600, Note_off_c, 0, 82, 0
2, 9600, Note_on_c, 0, 81, 47
2, 9640, Note_off_c, 0, 81, 0
2, 9640, Note_on_c, 0, 82, 47
2, 9680, Note_off_c, 0, 82, 0
2, 9680, Note_on_c, 0, 84, 47
2, 9720, Note_off_c, 0, 84, 0
2, 9720, Note_on_c, 0, 82, 47
2, 9840, Note_off_c, 0, 82, 0
2, 9840, Note_on_c, 0, 81, 46
2, 10260, Note_off_c, 0, 81, 0
2, 10260, Note_on_c, 0, 79, 44
2, 10320, Note_off_c, 0, 79, 0
2, 10320, Note_on_c, 0, 82, 44
2, 10500, Note_off_c, 0, 82, 0
2, 10500, Note_on_c, 0, 79, 43
2, 10560, Note_off_c, 0, 79, 0
2, 10560, Note_on_c, 0, 79, 43
2, 10800, Note_off_c, 0, 79, 0
2, 10800, Note_on_c, 0, 77, 42
2, 11220, Note_off_c, 0, 77, 0
2, 11220, Note_on_c, 0, 76, 40
2, 11280, Note_off_c, 0, 76, 0
2, 11280, Note_on_c, 0, 79, 40
2, 11460, Note_off_c, 0, 79, 0
2, 11460, Note_on_c, 0, 76, 39
2, 11520, Note_off_c, 0, 76, 0
2, 11520, Note_on_c, 0, 77, 39
2, 11880, Note_off_c, 0, 77, 0
2, 12240, Note_on_c, 0, 69, 47
2, 12360, Note_off_c, 0, 69, 0
2, 12480, Note_on_c, 0, 72, 49
2, 12672, Note_off_c, 0, 72, 0
2, 13200, Note_on_c, 0, 72, 44
2, 13280, Note_off_c, 0, 72, 0
2, 13280, Note_on_c, 0, 71, 44
2, 13360, Note_off_c, 0, 71, 0
2, 13360, Note_on_c, 0, 74, 43
2, 13440, Note_off_c, 0, 74, 0
2, 13440, Note_on_c, 0, 72, 43
2, 13632, Note_off_c, 0, 72, 0
2, 14160, Note_on_c, 0, 69, 56
2, 14280, Note_off_c, 0, 69, 0
2, 14400, Note_on_c, 0, 72, 58
2, 14592, Note_off_c, 0, 72, 0
2, 15120, Note_on_c, 0, 72, 56
2, 15200, Note_off_c, 0, 72, 0
2, 15200, Note_on_c, 0, 71, 55
2, 15280, Note_off_c, 0, 71, 0
2, 15280, Note_on_c, 0, 74, 55
2, 15360, Note_off_c, 0, 74, 0
2, 15360, Note_on_c, 0, 72, 54
2, 15600, Note_off_c, 0, 72, 0
2, 16080, Note_on_c, 0, 72, 76
2, 16160, Note_off_c, 0, 72, 0
2, 16160, Note_on_c, 0, 71, 76
2, 16240, Note_off_c, 0, 71, 0
2, 16240, Note_on_c, 0, 69, 77
2, 16320, Note_off_c, 0, 69, 0
2, 16320, Note_on_c, 0, 76, 77
2, 16440, Note_off_c, 0, 76, 0
2, 16560, Note_on_c, 0, 72, 79
2, 16640, Note_off_c, 0, 72, 0
2, 16640, Note_on_c, 0, 71, 80
2, 16720, Note_off_c, 0, 71, 0
2, 16720, Note_on_c, 0, 69, 80
2, 16800, Note_off_c, 0, 69, 0
2, 16800, Note_on_c, 0, 76, 81
2, 16920, Note_off_c, 0, 76, 0
2, 17040, Note_on_c, 0, 72, 82
2, 17120, Note_off_c, 0, 72, 0
2, 17120, Note_on_c, 0, 71, 83
2, 17200, Note_off_c, 0, 71, 0
2, 17200, Note_on_c, 0, 69, 83
2, 17280, Note_off_c, 0, 69, 0
2, 17280, Note_on_c, 0, 76, 79
2, 17520, Note_off_c, 0, 76, 0
2, 18000, Note_on_c, 0, 67, 44
2, 18000, Note_on_c, 0, 55, 44
2, 18240, Note_off_c, 0, 55, 0
2, 18240, Note_off_c, 0, 67, 0
2, 18240, Note_on_c, 0, 64, 46
2, 18240, Note_on_c, 0, 52, 46
2, 18720, Note_off_c, 0, 52, 0
2, 18720, Note_off_c, 0, 64, 0
2, 18720, Note_on_c, 0, 67, 50
2, 18720, Note_on_c, 0, 55, 50
2, 19200, Note_off_c, 0, 55, 0
2, 19200, Note_off_c, 0, 67, 0
2, 19200, Note_on_c, 0, 60, 54
2, 19200, Note_on_c, 0, 72, 54
2, 19920, Note_off_c, 0, 72, 0
2, 19920, Note_off_c, 0, 60, 0
2, 19920, Note_on_c, 0, 76, 60
2, 19920, Note_on_c, 0, 64, 60
2, 20160, Note_off_c, 0, 64, 0
2, 20160, Note_off_c, 0, 76, 0
2, 20160, Note_on_c, 0, 79, 62
2, 20160, Note_on_c, 0, 67, 62
2, 20400, Note_off_c, 0, 67, 0
2, 20400, Note_off_c, 0, 79, 0
2, 20400, Note_on_c, 0, 84, 74
2, 20400, Note_on_c, 0, 72, 74
2, 20880, Note_off_c, 0, 72, 0
2, 20880, Note_off_c, 0, 84, 0
2, 20880, Note_on_c, 0, 88, 66
2, 20880, Note_on_c, 0, 76, 66
2, 21000, Note_off_c, 0, 76, 0
2, 21000, Note_off_c, 0, 88, 0
2, 21000, Note_on_c, 0, 86, 62
2, 21000, Note_on_c, 0, 74, 62
2, 21120, Note_off_c, 0, 74, 0
2, 21120, Note_off_c, 0, 86, 0
2, 21120, Note_on_c, 0, 84, 59
2, 21120, Note_on_c, 0, 72, 59
2, 21600, Note_off_c, 0, 72, 0
2, 21600, Note_off_c, 0, 84, 0
2, 21600, Note_on_c, 0, 83, 48
2, 21600, Note_on_c, 0, 71, 48
2, 21840, Note_off_c, 0, 71, 0
2, 21840, Note_off_c, 0, 83, 0
2, 22080, Note_on_c, 0, 71, 44
2, 22080, Note_on_c, 0, 59, 44
2, 22560, Note_off_c, 0, 59, 0
2, 22560, Note_off_c, 0, 71, 0
2, 22560, Note_on_c, 0, 74, 47
2, 22560, Note_on_c, 0, 62, 47
2, 23040, Note_off_c, 0, 62, 0
2, 23040, Note_off_c, 0, 74, 0
2, 23040, Note_on_c, 0, 77, 49
2, 23040, Note_on_c, 0, 65, 49
2, 23760, Note_off_c, 0, 65, 0
2, 23760, Note_off_c, 0, 77, 0
2, 23760, Note_on_c, 0, 83, 53
2, 23760, Note_on_c, 0, 71, 53
2, 24000, Note_off_c, 0, 71, 0
2, 24000, Note_off_c, 0, 83, 0
2, 24000, Note_on_c, 0, 86, 56
2, 24000, Note_on_c, 0, 74, 56
2, 24240, Note_off_c, 0, 74, 0
2, 24240, Note_off_c, 0, 86, 0
2, 24240, Note_on_c, 0, 89, 68
2, 24240, Note_on_c, 0, 77, 68
2, 24720, Note_off_c, 0, 77, 0
2, 24720, Note_off_c, 0, 89, 0
2, 24720, Note_on_c, 0, 88, 57
2, 24720, Note_on_c, 0, 76, 57
2, 24960, Note_off_c, 0, 76, 0
2, 24960, Note_off_c, 0, 88, 0
2, 24960, Note_on_c, 0, 86, 51
2, 24960, Note_on_c, 0, 74, 51
2, 25440, Note_off_c, 0, 74, 0
2, 25440, Note_off_c, 0, 86, 0
2, 25440, Note_on_c, 0, 84, 46
2, 25440, Note_on_c, 0, 72, 46
2, 25680, Note_off_c, 0, 72, 0
2, 25680, Note_off_c, 0, 84, 0
2, 25920, Note_on_c, 0, 76, 82
2, 25920, Note_on_c, 0, 64, 82
2, 26400, Note_off_c, 0, 64, 0
2, 26400, Note_off_c, 0, 76, 0
2, 26400, Note_on_c, 0, 67, 85
2, 26400, Note_on_c, 0, 79, 85
2, 26880, Note_off_c, 0, 79, 0
2, 26880, Note_off_c, 0, 67, 0
2, 26880, Note_on_c, 0, 84, 89
2, 26880, Note_on_c, 0, 72, 89
2, 27600, Note_off_c, 0, 72, 0
2, 27600, Note_off_c, 0, 84, 0
2, 27600, Note_on_c, 0, 85, 96
2, 27600, Note_on_c, 0, 73, 96
2, 28080, Note_off_c, 0, 73, 0
2, 28080, Note_off_c, 0, 85, 0
2, 28080, Note_on_c, 0, 86, 102
2, 28080, Note_on_c, 0, 74, 102
2, 28560, Note_off_c, 0, 74, 0
2, 28560, Note_off_c, 0, 86, 0
2, 28560, Note_on_c, 0, 84, 92
2, 28560, Note_on_c, 0, 72, 92
2, 28680, Note_off_c, 0, 72, 0
2, 28680, Note_off_c, 0, 84, 0
2, 28800, Note_on_c, 0, 84, 89
2, 28800, Note_on_c, 0, 72, 89
2, 29040, Note_off_c, 0, 72, 0
2, 29040, Note_off_c, 0, 84, 0
2, 29040, Note_on_c, 0, 83, 86
2, 29040, Note_on_c, 0, 71, 86
2, 29160, Note_off_c, 0, 71, 0
2, 29160, Note_off_c, 0, 83, 0
2, 29520, Note_on_c, 0, 78, 63
2, 29640, Note_off_c, 0, 78, 0
2, 29760, Note_on_c, 0, 79, 68
2, 30120, Note_off_c, 0, 79, 0
2, 30480, Note_on_c, 0, 84, 60
2, 30600, Note_off_c, 0, 84, 0
2, 30720, Note_on_c, 0, 84, 66
2, 30840, Note_off_c, 0, 84, 0
2, 30840, Note_on_c, 0, 83, 60
2, 30960, Note_off_c, 0, 83, 0
2, 30960, Note_on_c, 0, 81, 59
2, 31080, Note_off_c, 0, 81, 0
2, 31080, Note_on_c, 0, 79, 59
2, 31200, Note_off_c, 0, 79, 0
2, 31440, Note_on_c, 0, 78, 58
2, 31560, Note_off_c, 0, 78, 0
2, 31680, Note_on_c, 0, 79, 64
2, 32040, Note_off_c, 0, 79, 0
2, 32400, Note_on_c, 0, 84, 56
2, 32520, Note_off_c, 0, 84, 0
2, 32640, Note_on_c, 0, 84, 60
2, 32760, Note_off_c, 0, 84, 0
2, 32760, Note_on_c, 0, 83, 55
2, 32880, Note_off_c, 0, 83, 0
2, 32880, Note_on_c, 0, 81, 55
2, 33000, Note_off_c, 0, 81, 0
2, 33000, Note_on_c, 0, 79, 54
2, 33120, Note_off_c, 0, 79, 0
2, 33360, Note_on_c, 0, 84, 53
2, 33480, Note_off_c, 0, 84, 0
2, 33600, Note_on_c, 0, 84, 58
2, 33720, Note_off_c, 0, 84, 0
2, 33720, Note_on_c, 0, 83, 52
2, 33840, Note_off_c, 0, 83, 0
2, 33840, Note_on_c, 0, 81, 52
2, 33960, Note_off_c, 0, 81, 0
2, 33960, Note_on_c, 0, 79, 52
2, 34080, Note_off_c, 0, 79, 0
2, 34320, Note_on_c, 0, 84, 51
2, 34440, Note_off_c, 0, 84, 0
2, 34560, Note_on_c, 0, 84, 55
2, 34680, Note_off_c, 0, 84, 0
2, 34680, Note_on_c, 0, 83, 50
2, 34800, Note_off_c, 0, 83, 0
2, 34800, Note_on_c, 0, 81, 50
2, 34920, Note_off_c, 0, 81, 0
2, 34920, Note_on_c, 0, 79, 50
2, 35040, Note_off_c, 0, 79, 0
2, 35040, Note_on_c, 0, 78, 49
2, 35160, Note_off_c, 0, 78, 0
2, 35160, Note_on_c, 0, 79, 49
2, 35280, Note_off_c, 0, 79, 0
2, 35280, Note_on_c, 0, 81, 49
2, 35400, Note_off_c, 0, 81, 0
2, 35400, Note_on_c, 0, 79, 48
2, 35520, Note_off_c, 0, 79, 0
2, 35520, Note_on_c, 0, 78, 48
2, 35640, Note_off_c, 0, 78, 0
2, 35640, Note_on_c, 0, 79, 48
2, 35760, Note_off_c, 0, 79, 0
2, 35760, Note_on_c, 0, 81, 47
2, 35880, Note_off_c, 0, 81, 0
2, 35880, Note_on_c, 0, 79, 47
2, 36000, Note_off_c, 0, 79, 0
2, 36000, Note_on_c, 0, 78, 47
2, 36120, Note_off_c, 0, 78, 0
2, 36120, Note_on_c, 0, 79, 47
2, 36240, Note_off_c, 0, 79, 0
2, 36240, Note_on_c, 0, 80, 46
2, 36360, Note_off_c, 0, 80, 0
2, 36360, Note_on_c, 0, 81, 46
2, 36480, Note_off_c, 0, 81, 0
2, 36480, Note_on_c, 0, 81, 55
2, 36720, Note_off_c, 0, 81, 0
2, 36720, Note_on_c, 0, 77, 51
2, 36840, Note_off_c, 0, 77, 0
2, 36960, Note_on_c, 0, 74, 50
2, 37080, Note_off_c, 0, 74, 0
2, 37200, Note_on_c, 0, 76, 49
2, 37240, Note_off_c, 0, 76, 0
2, 37240, Note_on_c, 0, 77, 49
2, 37280, Note_off_c, 0, 77, 0
2, 37280, Note_on_c, 0, 76, 49
2, 37320, Note_off_c, 0, 76, 0
2, 37320, Note_on_c, 0, 74, 49
2, 37380, Note_off_c, 0, 74, 0
2, 37380, Note_on_c, 0, 76, 48
2, 37440, Note_off_c, 0, 76, 0
2, 37440, Note_on_c, 0, 81, 52
2, 37680, Note_off_c, 0, 81, 0
2, 37680, Note_on_c, 0, 77, 47
2, 37800, Note_off_c, 0, 77, 0
2, 37920, Note_on_c, 0, 74, 47
2, 38040, Note_off_c, 0, 74, 0
2, 38160, Note_on_c, 0, 76, 46
2, 38200, Note_off_c, 0, 76, 0
2, 38200, Note_on_c, 0, 77, 46
2, 38240, Note_off_c, 0, 77, 0
2, 38240, Note_on_c, 0, 76, 46
2, 38280, Note_off_c, 0, 76, 0
2, 38280, Note_on_c, 0, 74, 45
2, 38340, Note_off_c, 0, 74, 0
2, 38340, Note_on_c, 0, 76, 45
2, 38400, Note_off_c, 0, 76, 0
2, 38400, Note_on_c, 0, 77, 49
2, 38520, Note_off_c, 0, 77, 0
2, 38880, Note_on_c, 0, 74, 46
2, 39000, Note_off_c, 0, 74, 0
2, 39360, Note_on_c, 0, 76, 43
2, 39516, Note_off_c, 0, 76, 0
2, 40140, Note_on_c, 0, 79, 85
2, 40200, Note_off_c, 0, 79, 0
2, 40380, Note_on_c, 0, 80, 84
2, 40440, Note_off_c, 0, 80, 0
2, 40620, Note_on_c, 0, 77, 83
2, 40680, Note_off_c, 0, 77, 0
2, 40860, Note_on_c, 0, 74, 83
2, 40920, Note_off_c, 0, 74, 0
2, 41100, Note_on_c, 0, 75, 82
2, 41160, Note_off_c, 0, 75, 0
2, 41340, Note_on_c, 0, 80, 81
2, 41400, Note_off_c, 0, 80, 0
2, 41580, Note_on_c, 0, 77, 80
2, 41640, Note_off_c, 0, 77, 0
2, 41820, Note_on_c, 0, 74, 79
2, 41880, Note_off_c, 0, 74, 0
2, 42060, Note_on_c, 0, 75, 78
2, 42120, Note_off_c, 0, 75, 0
2, 42240, Note_on_c, 0, 77, 82
2, 42360, Note_off_c, 0, 77, 0
2, 42720, Note_on_c, 0, 74, 80
2, 42840, Note_off_c, 0, 74, 0
2, 43200, Note_on_c, 0, 72, 78
2, 43320, Note_off_c, 0, 72, 0
2, 44160, Note_on_c, 0, 72, 52
2, 44280, Note_off_c, 0, 72, 0
2, 45240, Note_on_c, 0, 71, 49
2, 45240, Note_on_c, 0, 62, 49
2, 45360, Note_off_c, 0, 62, 0
2, 45360, Note_off_c, 0, 71, 0
2, 45480, Note_on_c, 0, 65, 51
2, 45480, Note_on_c, 0, 74, 51
2, 45600, Note_off_c, 0, 74, 0
2, 45600, Note_off_c, 0, 65, 0
2, 45720, Note_on_c, 0, 72, 53
2, 45720, Note_on_c, 0, 64, 53
2, 45840, Note_off_c, 0, 64, 0
2, 45840, Note_off_c, 0, 72, 0
2, 45960, Note_on_c, 0, 76, 55
2, 45960, Note_on_c, 0, 72, 55
2, 46080, Note_off_c, 0, 72, 0
2, 46080, Note_off_c, 0, 76, 0
2, 46200, Note_on_c, 0, 71, 57
2, 46200, Note_on_c, 0, 77, 57
2, 46320, Note_off_c, 0, 77, 0
2, 46320, Note_off_c, 0, 71, 0
2, 46440, Note_on_c, 0, 83, 60
2, 46440, Note_on_c, 0, 77, 60
2, 46560, Note_off_c, 0, 77, 0
2, 46560, Note_off_c, 0, 83, 0
2, 46680, Note_on_c, 0, 84, 62
2, 46680, Note_on_c, 0, 76, 62
2, 46800, Note_off_c, 0, 76, 0
2, 46800, Note_off_c, 0, 84, 0
2, 46920, Note_on_c, 0, 84, 64
2, 46920, Note_on_c, 0, 88, 64
2, 47040, Note_off_c, 0, 88, 0
2, 47040, Note_off_c, 0, 84, 0
2, 47160, Note_on_c, 0, 83, 66
2, 47160, Note_on_c, 0, 89, 66
2, 47280, Note_off_c, 0, 89, 0
2, 47280, Note_off_c, 0, 83, 0
2, 47400, Note_on_c, 0, 83, 68
2, 47400, Note_on_c, 0, 74, 68
2, 47520, Note_off_c, 0, 74, 0
2, 47520, Note_off_c, 0, 83, 0
2, 47640, Note_on_c, 0, 84, 70
2, 47640, Note_on_c, 0, 76, 70
2, 47760, Note_off_c, 0, 76, 0
2, 47760, Note_off_c, 0, 84, 0
2, 47880, Note_on_c, 0, 88, 72
2, 47880, Note_on_c, 0, 79, 72
2, 48000, Note_off_c, 0, 79, 0
2, 48000, Note_off_c, 0, 88, 0
2, 48120, Note_on_c, 0, 89, 74
2, 48120, Note_on_c, 0, 81, 74
2, 48240, Note_off_c, 0, 81, 0
2, 48240, Note_off_c, 0, 89, 0
2, 48360, Note_on_c, 0, 83, 76
2, 48360, Note_on_c, 0, 74, 76
2, 48480, Note_off_c, 0, 74, 0
2, 48480, Note_off_c, 0, 83, 0
2, 48600, Note_on_c, 0, 84, 78
2, 48600, Note_on_c, 0, 76, 78
2, 48720, Note_off_c, 0, 76, 0
2, 48720, Note_off_c, 0, 84, 0
2, 48840, Note_on_c, 0, 88, 80
2, 48840, Note_on_c, 0, 79, 80
2, 48960, Note_off_c, 0, 79, 0
2, 48960, Note_off_c, 0, 88, 0
2, 49200, Note_on_c, 0, 86, 84
2, 49280, Note_off_c, 0, 86, 0
2, 49280, Note_on_c, 0, 85, 83
2, 49360, Note_off_c, 0, 85, 0
2, 49360, Note_on_c, 0, 88, 82
2, 49440, Note_off_c, 0, 88, 0
2, 49440, Note_on_c, 0, 86, 82
2, 49560, Note_off_c, 0, 86, 0
2, 49680, Note_on_c, 0, 81, 80
2, 49760, Note_off_c, 0, 81, 0
2, 49760, Note_on_c, 0, 80, 80
2, 49840, Note_off_c, 0, 80, 0
2, 49840, Note_on_c, 0, 83, 79
2, 49920, Note_off_c, 0, 83, 0
2, 49920, Note_on_c, 0, 81, 79
2, 50040, Note_off_c, 0, 81, 0
2, 50160, Note_on_c, 0, 77, 77
2, 50240, Note_off_c, 0, 77, 0
2, 50240, Note_on_c, 0, 76, 76
2, 50320, Note_off_c, 0, 76, 0
2, 50320, Note_on_c, 0, 79, 76
2, 50400, Note_off_c, 0, 79, 0
2, 50400, Note_on_c, 0, 77, 75
2, 50520, Note_off_c, 0, 77, 0
2, 50640, Note_on_c, 0, 74, 73
2, 50720, Note_off_c, 0, 74, 0
2, 50720, Note_on_c, 0, 73, 73
2, 50800, Note_off_c, 0, 73, 0
2, 50800, Note_on_c, 0, 76, 72
2, 50880, Note_off_c, 0, 76, 0
2, 50880, Note_on_c, 0, 74, 72
2, 51000, Note_off_c, 0, 74, 0
2, 51120, Note_on_c, 0, 74, 86
2, 51600, Note_on_c, 0, 76, 79
2, 51622, Note_off_c, 0, 74, 0
2, 51720, Note_off_c, 0, 76, 0
2, 51720, Note_on_c, 0, 77, 79
2, 51840, Note_off_c, 0, 77, 0
2, 51840, Note_on_c, 0, 79, 85
2, 52320, Note_off_c, 0, 79, 0
2, 52320, Note_on_c, 0, 79, 77
2, 52400, Note_off_c, 0, 79, 0
2, 52400, Note_on_c, 0, 81, 75
2, 52480, Note_off_c, 0, 81, 0
2, 52480, Note_on_c, 0, 79, 74
2, 52560, Note_off_c, 0, 79, 0
2, 52560, Note_on_c, 0, 77, 72
2, 52640, Note_off_c, 0, 77, 0
2, 52640, Note_on_c, 0, 76, 71
2, 52720, Note_off_c, 0, 76, 0
2, 52720, Note_on_c, 0, 74, 69
2, 52800, Note_off_c, 0, 74, 0
2, 52800, Note_on_c, 0, 72, 68
2, 53040, Note_off_c, 0, 72, 0
2, 53280, Note_on_c, 0, 79, 50
2, 53400, Note_off_c, 0, 79, 0
2, 53520, Note_on_c, 0, 79, 47
2, 53640, Note_off_c, 0, 79, 0
2, 53760, Note_on_c, 0, 76, 47
2, 53880, Note_off_c, 0, 76, 0
2, 54240, Note_on_c, 0, 84, 55
2, 54240, Note_on_c, 0, 72, 55
2, 54360, Note_off_c, 0, 72, 0
2, 54360, Note_off_c, 0, 84, 0
2, 54480, Note_on_c, 0, 84, 50
2, 54480, Note_on_c, 0, 72, 50
2, 54600, Note_off_c, 0, 72, 0
2, 54600, Note_off_c, 0, 84, 0
2, 54720, Note_on_c, 0, 81, 50
2, 54720, Note_on_c, 0, 69, 50
2, 54840, Note_off_c, 0, 69, 0
2, 54840, Note_off_c, 0, 81, 0
2, 55200, Note_on_c, 0, 42, 79
2, 55320, Note_off_c, 0, 42, 0
2, 55440, Note_on_c, 0, 42, 77
2, 55560, Note_off_c, 0, 42, 0
2, 55680, Note_on_c, 0, 42, 75
2, 55740, Note_off_c, 0, 42, 0
2, 55740, Note_on_c, 0, 43, 74
2, 55800, Note_off_c, 0, 43, 0
2, 55800, Note_on_c, 0, 45, 74
2, 55860, Note_off_c, 0, 45, 0
2, 55860, Note_on_c, 0, 43, 73
2, 55920, Note_off_c, 0, 43, 0
2, 55920, Note_on_c, 0, 45, 72
2, 55980, Note_off_c, 0, 45, 0
2, 55980, Note_on_c, 0, 43, 72
2, 56040, Note_off_c, 0, 43, 0
2, 56040, Note_on_c, 0, 45, 71
2, 56100, Note_off_c, 0, 45, 0
2, 56100, Note_on_c, 0, 43, 71
2, 56160, Note_off_c, 0, 43, 0
2, 56160, Note_on_c, 0, 45, 70
2, 56220, Note_off_c, 0, 45, 0
2, 56220, Note_on_c, 0, 43, 70
2, 56280, Note_off_c, 0, 43, 0
2, 56280, Note_on_c, 0, 45, 69
2, 56340, Note_off_c, 0, 45, 0
2, 56340, Note_on_c, 0, 43, 69
2, 56400, Note_off_c, 0, 43, 0
2, 56400, Note_on_c, 0, 45, 68
2, 56460, Note_off_c, 0, 45, 0
2, 56460, Note_on_c, 0, 43, 67
2, 56520, Note_off_c, 0, 43, 0
2, 56520, Note_on_c, 0, 42, 67
2, 56580, Note_off_c, 0, 42, 0
2, 56580, Note_on_c, 0, 43, 66
2, 56640, Note_off_c, 0, 43, 0
2, 56640, Note_on_c, 0, 36, 66
2, 57060, Note_on_c, 0, 67, 49
2, 57120, Note_off_c, 0, 36, 0
2, 57120, Note_on_c, 0, 79, 51
2, 57157, Note_off_c, 0, 67, 0
2, 57240, Note_off_c, 0, 79, 0
2, 57300, Note_on_c, 0, 67, 48
2, 57360, Note_on_c, 0, 79, 48
2, 57390, Note_off_c, 0, 67, 0
2, 57480, Note_off_c, 0, 79, 0
2, 57540, Note_on_c, 0, 64, 49
2, 57600, Note_on_c, 0, 76, 49
2, 57637, Note_off_c, 0, 64, 0
2, 57720, Note_off_c, 0, 76, 0
2, 58020, Note_on_c, 0, 72, 53
2, 58080, Note_on_c, 0, 84, 55
2, 58140, Note_off_c, 0, 72, 0
2, 58200, Note_off_c, 0, 84, 0
2, 58260, Note_on_c, 0, 72, 53
2, 58320, Note_on_c, 0, 84, 53
2, 58380, Note_off_c, 0, 72, 0
2, 58440, Note_off_c, 0, 84, 0
2, 58500, Note_on_c, 0, 69, 54
2, 58560, Note_on_c, 0, 81, 54
2, 58620, Note_off_c, 0, 69, 0
2, 58680, Note_off_c, 0, 81, 0
2, 59040, Note_on_c, 0, 42, 77
2, 59160, Note_off_c, 0, 42, 0
2, 59280, Note_on_c, 0, 42, 75
2, 59400, Note_off_c, 0, 42, 0
2, 59520, Note_on_c, 0, 42, 74
2, 59580, Note_off_c, 0, 42, 0
2, 59580, Note_on_c, 0, 43, 73
2, 59640, Note_off_c, 0, 43, 0
2, 59640, Note_on_c, 0, 45, 73
2, 59700, Note_off_c, 0, 45, 0
2, 59700, Note_on_c, 0, 43, 72
2, 59760, Note_off_c, 0, 43, 0
2, 59760, Note_on_c, 0, 45, 72
2, 59820, Note_off_c, 0, 45, 0
2, 59820, Note_on_c, 0, 43, 71
2, 59880, Note_off_c, 0, 43, 0
2, 59880, Note_on_c, 0, 45, 71
2, 59940, Note_off_c, 0, 45, 0
2, 59940, Note_on_c, 0, 43, 71
2, 60000, Note_off_c, 0, 43, 0
2, 60000, Note_on_c, 0, 45, 70
2, 60060, Note_off_c, 0, 45, 0
2, 60060, Note_on_c, 0, 43, 70
2, 60120, Note_off_c, 0, 43, 0
2, 60120, Note_on_c, 0, 45, 69
2, 60180, Note_off_c, 0, 45, 0
2, 60180, Note_on_c, 0, 43, 69
2, 60240, Note_off_c, 0, 43, 0
2, 60240, Note_on_c, 0, 45, 68
2, 60300, Note_off_c, 0, 45, 0
2, 60300, Note_on_c, 0, 43, 68
2, 60360, Note_off_c, 0, 43, 0
2, 60360, Note_on_c, 0, 42, 67
2, 60420, Note_off_c, 0, 42, 0
2, 60420, Note_on_c, 0, 43, 67
2, 60480, Note_off_c, 0, 43, 0
2, 60480, Note_on_c, 0, 36, 67
2, 60960, Note_off_c, 0, 36, 0
2, 60960, Note_on_c, 0, 78, 83
2, 61080, Note_off_c, 0, 78, 0
2, 61200, Note_on_c, 0, 78, 79
2, 61320, Note_off_c, 0, 78, 0
2, 61440, Note_on_c, 0, 78, 68
2, 61500, Note_off_c, 0, 78, 0
2, 61500, Note_on_c, 0, 79, 70
2, 61560, Note_off_c, 0, 79, 0
2, 61560, Note_on_c, 0, 81, 71
2, 61620, Note_off_c, 0, 81, 0
2, 61620, Note_on_c, 0, 79, 72
2, 61680, Note_off_c, 0, 79, 0
2, 61680, Note_on_c, 0, 81, 73
2, 61740, Note_off_c, 0, 81, 0
2, 61740, Note_on_c, 0, 79, 74
2, 61800, Note_off_c, 0, 79, 0
2, 61800, Note_on_c, 0, 81, 75
2, 61860, Note_off_c, 0, 81, 0
2, 61860, Note_on_c, 0, 79, 76
2, 61920, Note_off_c, 0, 79, 0
2, 61920, Note_on_c, 0, 81, 77
2, 61980, Note_off_c, 0, 81, 0
2, 61980, Note_on_c, 0, 79, 78
2, 62040, Note_off_c, 0, 79, 0
2, 62040, Note_on_c, 0, 81, 79
2, 62100, Note_off_c, 0, 81, 0
2, 62100, Note_on_c, 0, 79, 80
2, 62160, Note_off_c, 0, 79, 0
2, 62160, Note_on_c, 0, 81, 82
2, 62220, Note_off_c, 0, 81, 0
2, 62220, Note_on_c, 0, 79, 84
2, 62280, Note_off_c, 0, 79, 0
2, 62280, Note_on_c, 0, 78, 87
2, 62340, Note_off_c, 0, 78, 0
2, 62340, Note_on_c, 0, 79, 90
2, 62400, Note_off_c, 0, 79, 0
2, 62400, Note_on_c, 0, 72, 95
2, 62400, Note_on_c, 0, 84, 95
2, 62520, Note_off_c, 0, 84, 0
2, 62520, Note_off_c, 0, 72, 0
2, 62880, Note_on_c, 0, 79, 95
2, 62880, Note_on_c, 0, 67, 95
2, 63000, Note_off_c, 0, 67, 0
2, 63000, Note_off_c, 0, 79, 0
2, 63360, Note_on_c, 0, 72, 95
2, 63360, Note_on_c, 0, 60, 95
2, 63552, Note_off_c, 0, 60, 0
2, 63552, Note_off_c, 0, 72, 0
2, 64080, Note_on_c, 0, 69, 48
2, 64200, Note_off_c, 0, 69, 0
2, 64320, Note_on_c, 0, 72, 49
2, 64512, Note_off_c, 0, 72, 0
2, 65040, Note_on_c, 0, 72, 42
2, 65120, Note_off_c, 0, 72, 0
2, 65120, Note_on_c, 0, 71, 42
2, 65200, Note_off_c, 0, 71, 0
2, 65200, Note_on_c, 0, 74, 41
2, 65280, Note_off_c, 0, 74, 0
2, 65280, Note_on_c, 0, 72, 40
2, 65472, Note_off_c, 0, 72, 0
2, 66000, Note_on_c, 0, 69, 46
2, 66120, Note_off_c, 0, 69, 0
2, 66240, Note_on_c, 0, 70, 46
2, 66432, Note_off_c, 0, 70, 0
2, 66960, Note_on_c, 0, 70, 42
2, 67040, Note_off_c, 0, 70, 0
2, 67040, Note_on_c, 0, 69, 42
2, 67120, Note_off_c, 0, 69, 0
2, 67120, Note_on_c, 0, 72, 41
2, 67200, Note_off_c, 0, 72, 0
2, 67200, Note_on_c, 0, 70, 41
2, 67392, Note_off_c, 0, 70, 0
2, 67920, Note_on_c, 0, 70, 47
2, 68076, Note_off_c, 0, 70, 0
2, 68160, Note_on_c, 0, 69, 46
2, 68340, Note_off_c, 0, 69, 0
2, 68340, Note_on_c, 0, 72, 48
2, 68400, Note_off_c, 0, 72, 0
2, 68400, Note_on_c, 0, 77, 48
2, 68880, Note_off_c, 0, 77, 0
2, 68880, Note_on_c, 0, 76, 52
2, 69120, Note_off_c, 0, 76, 0
2, 69120, Note_on_c, 0, 77, 54
2, 69360, Note_off_c, 0, 77, 0
2, 69360, Note_on_c, 0, 81, 56
2, 69840, Note_off_c, 0, 81, 0
2, 69840, Note_on_c, 0, 79, 61
2, 70320, Note_off_c, 0, 79, 0
2, 70320, Note_on_c, 0, 81, 58
2, 70800, Note_off_c, 0, 81, 0
2, 70800, Note_on_c, 0, 82, 56
2, 70920, Note_off_c, 0, 82, 0
2, 70920, Note_on_c, 0, 84, 56
2, 71040, Note_off_c, 0, 84, 0
2, 71040, Note_on_c, 0, 84, 55
2, 71280, Note_off_c, 0, 84, 0
2, 71280, Note_on_c, 0, 82, 54
2, 71400, Note_off_c, 0, 82, 0
2, 72000, Note_on_c, 0, 82, 51
2, 72040, Note_off_c, 0, 82, 0
2, 72040, Note_on_c, 0, 84, 51
2, 72080, Note_off_c, 0, 84, 0
2, 72080, Note_on_c, 0, 82, 51
2, 72120, Note_off_c, 0, 82, 0
2, 72120, Note_on_c, 0, 81, 51
2, 72180, Note_off_c, 0, 81, 0
2, 72180, Note_on_c, 0, 82, 50
2, 72240, Note_off_c, 0, 82, 0
2, 72240, Note_on_c, 0, 86, 50
2, 72720, Note_off_c, 0, 86, 0
2, 72720, Note_on_c, 0, 84, 48
2, 72840, Note_off_c, 0, 84, 0
2, 72840, Note_on_c, 0, 82, 48
2, 72960, Note_off_c, 0, 82, 0
2, 72960, Note_on_c, 0, 81, 47
2, 73000, Note_off_c, 0, 81, 0
2, 73000, Note_on_c, 0, 82, 47
2, 73040, Note_off_c, 0, 82, 0
2, 73040, Note_on_c, 0, 84, 47
2, 73080, Note_off_c, 0, 84, 0
2, 73080, Note_on_c, 0, 82, 47
2, 73200, Note_off_c, 0, 82, 0
2, 73200, Note_on_c, 0, 81, 46
2, 73620, Note_off_c, 0, 81, 0
2, 73620, Note_on_c, 0, 79, 44
2, 73680, Note_off_c, 0, 79, 0
2, 73680, Note_on_c, 0, 82, 44
2, 73860, Note_off_c, 0, 82, 0
2, 73860, Note_on_c, 0, 79, 43
2, 73920, Note_off_c, 0, 79, 0
2, 73920, Note_on_c, 0, 79, 43
2, 74160, Note_off_c, 0, 79, 0
2, 74160, Note_on_c, 0, 77, 42
2, 74580, Note_off_c, 0, 77, 0
2, 74580, Note_on_c, 0, 76, 40
2, 74640, Note_off_c, 0, 76, 0
2, 74640, Note_on_c, 0, 79, 40
2, 74820, Note_off_c, 0, 79, 0
2, 74820, Note_on_c, 0, 76, 39
2, 74880, Note_off_c, 0, 76, 0
2, 74880, Note_on_c, 0, 77, 39
2, 75240, Note_off_c, 0, 77, 0
2, 75600, Note_on_c, 0, 69, 47
2, 75720, Note_off_c, 0, 69, 0
2, 75840, Note_on_c, 0, 72, 49
2, 76032, Note_off_c, 0, 72, 0
2, 76560, Note_on_c, 0, 72, 44
2, 76640, Note_off_c, 0, 72, 0
2, 76640, Note_on_c, 0, 71, 44
2, 76720, Note_off_c, 0, 71, 0
2, 76720, Note_on_c, 0, 74, 43
2, 76800, Note_off_c, 0, 74, 0
2, 76800, Note_on_c, 0, 72, 43
2, 76992, Note_off_c, 0, 72, 0
2, 77520, Note_on_c, 0, 69, 56
2, 77640, Note_off_c, 0, 69, 0
2, 77760, Note_on_c, 0, 72, 58
2, 77952, Note_off_c, 0, 72, 0
2, 78480, Note_on_c, 0, 72, 56
2, 78560, Note_off_c, 0, 72, 0
2, 78560, Note_on_c, 0, 71, 55
2, 78640, Note_off_c, 0, 71, 0
2, 78640, Note_on_c, 0, 74, 55
2, 78720, Note_off_c, 0, 74, 0
2, 78720, Note_on_c, 0, 72, 54
2, 78960, Note_off_c, 0, 72, 0
2, 79440, Note_on_c, 0, 72, 76
2, 79520, Note_off_c, 0, 72, 0
2, 79520, Note_on_c, 0, 71, 76
2, 79600, Note_off_c, 0, 71, 0
2, 79600, Note_on_c, 0, 69, 77
2, 79680, Note_off_c, 0, 69, 0
2, 79680, Note_on_c, 0, 76, 77
2, 79800, Note_off_c, 0, 76, 0
2, 79920, Note_on_c, 0, 72, 79
2, 80000, Note_off_c, 0, 72, 0
2, 80000, Note_on_c, 0, 71, 80
2, 80080, Note_off_c, 0, 71, 0
2, 80080, Note_on_c, 0, 69, 80
2, 80160, Note_off_c, 0, 69, 0
2, 80160, Note_on_c, 0, 76, 81
2, 80280, Note_off_c, 0, 76, 0
2, 80400, Note_on_c, 0, 72, 82
2, 80480, Note_off_c, 0, 72, 0
2, 80480, Note_on_c, 0, 71, 83
2, 80560, Note_off_c, 0, 71, 0
2, 80560, Note_on_c, 0, 69, 83
2, 80640, Note_off_c, 0, 69, 0
2, 80640, Note_on_c, 0, 76, 79
2, 80880, Note_off_c, 0, 76, 0
2, 81360, Note_on_c, 0, 55, 44
2, 81360, Note_on_c, 0, 67, 44
2, 81600, Note_off_c, 0, 67, 0
2, 81600, Note_off_c, 0, 55, 0
2, 81600, Note_on_c, 0, 52, 46
2, 81600, Note_on_c, 0, 64, 46
2, 82080, Note_off_c, 0, 64, 0
2, 82080, Note_off_c, 0, 52, 0
2, 82080, Note_on_c, 0, 55, 50
2, 82080, Note_on_c, 0, 67, 50
2, 82560, Note_off_c, 0, 67, 0
2, 82560, Note_off_c, 0, 55, 0
2, 82560, Note_on_c, 0, 72, 54
2, 82560, Note_on_c, 0, 60, 54
2, 83280, Note_off_c, 0, 60, 0
2, 83280, Note_off_c, 0, 72, 0
2, 83280, Note_on_c, 0, 64, 60
2, 83280, Note_on_c, 0, 76, 60
2, 83520, Note_off_c, 0, 76, 0
2, 83520, Note_off_c, 0, 64, 0
2, 83520, Note_on_c, 0, 67, 62
2, 83520, Note_on_c, 0, 79, 62
2, 83760, Note_off_c, 0, 79, 0
2, 83760, Note_off_c, 0, 67, 0
2, 83760, Note_on_c, 0, 72, 74
2, 83760, Note_on_c, 0, 84, 74
2, 84240, Note_off_c, 0, 84, 0
2, 84240, Note_off_c, 0, 72, 0
2, 84240, Note_on_c, 0, 76, 66
2, 84240, Note_on_c, 0, 88, 66
2, 84360, Note_off_c, 0, 88, 0
2, 84360, Note_off_c, 0, 76, 0
2, 84360, Note_on_c, 0, 74, 62
2, 84360, Note_on_c, 0, 86, 62
2, 84480, Note_off_c, 0, 86, 0
2, 84480, Note_off_c, 0, 74, 0
2, 84480, Note_on_c, 0, 72, 59
2, 84480, Note_on_c, 0, 84, 59
2, 84960, Note_off_c, 0, 84, 0
2, 84960, Note_off_c, 0, 72, 0
2, 84960, Note_on_c, 0, 71, 48
2, 84960, Note_on_c, 0, 83, 48
2, 85200, Note_off_c, 0, 83, 0
2, 85200, Note_off_c, 0, 71, 0
2, 85440, Note_on_c, 0, 59, 44
2, 85440, Note_on_c, 0, 71, 44
2, 85920, Note_off_c, 0, 71, 0
2, 85920, Note_off_c, 0, 59, 0
2, 85920, Note_on_c, 0, 62, 47
2, 85920, Note_on_c, 0, 74, 47
2, 86400, Note_off_c, 0, 74, 0
2, 86400, Note_off_c, 0, 62, 0
2, 86400, Note_on_c, 0, 65, 49
2, 86400, Note_on_c, 0, 77, 49
2, 87120, Note_off_c, 0, 77, 0
2, 87120, Note_off_c, 0, 65, 0
2, 87120, Note_on_c, 0, 71, 53
2, 87120, Note_on_c, 0, 83, 53
2, 87360, Note_off_c, 0, 83, 0
2, 87360, Note_off_c, 0, 71, 0
2, 87360, Note_on_c, 0, 74, 56
2, 87360, Note_on_c, 0, 86, 56
2, 87600, Note_off_c, 0, 86, 0
2, 87600, Note_off_c, 0, 74, 0
2, 87600, Note_on_c, 0, 77, 68
2, 87600, Note_on_c, 0, 89, 68
2, 88080, Note_off_c, 0, 89, 0
2, 88080, Note_off_c, 0, 77, 0
2, 88080, Note_on_c, 0, 76, 57
2, 88080, Note_on_c, 0, 88, 57
2, 88320, Note_off_c, 0, 88, 0
2, 88320, Note_off_c, 0, 76, 0
2, 88320, Note_on_c, 0, 74, 51
2, 88320, Note_on_c, 0, 86, 51
2, 88800, Note_off_c, 0, 86, 0
2, 88800, Note_off_c, 0, 74, 0
2, 88800, Note_on_c, 0, 72, 46
2, 88800, Note_on_c, 0, 84, 46
2, 89040, Note_off_c, 0, 84, 0
2, 89040, Note_off_c, 0, 72, 0
2, 89280, Note_on_c, 0, 64, 82
2, 89280, Note_on_c, 0, 76, 82
2, 89760, Note_off_c, 0, 76, 0
2, 89760, Note_off_c, 0, 64, 0
2, 89760, Note_on_c, 0, 79, 85
2, 89760, Note_on_c, 0, 67, 85
2, 90240, Note_off_c, 0, 67, 0
2, 90240, Note_off_c, 0, 79, 0
2, 90240, Note_on_c, 0, 72, 89
2, 90240, Note_on_c, 0, 84, 89
2, 90960, Note_off_c, 0, 84, 0
2, 90960, Note_off_c, 0, 72, 0
2, 90960, Note_on_c, 0, 73, 96
2, 90960, Note_on_c, 0, 85, 96
2, 91440, Note_off_c, 0, 85, 0
2, 91440, Note_off_c, 0, 73, 0
2, 91440, Note_on_c, 0, 74, 102
2, 91440, Note_on_c, 0, 86, 102
2, 91920, Note_off_c, 0, 86, 0
2, 91920, Note_off_c, 0, 74, 0
2, 91920, Note_on_c, 0, 72, 92
2, 91920, Note_on_c, 0, 84, 92
2, 92040, Note_off_c, 0, 84, 0
2, 92040, Note_off_c, 0, 72, 0
2, 92160, Note_on_c, 0, 72, 89
2, 92160, Note_on_c, 0, 84, 89
2, 92400, Note_off_c, 0, 84, 0
2, 92400, Note_off_c, 0, 72, 0
2, 92400, Note_on_c, 0, 71, 86
2, 92400, Note_on_c, 0, 83, 86
2, 92520, Note_off_c, 0, 83, 0
2, 92520, Note_off_c, 0, 71, 0
2, 92880, Note_on_c, 0, 78, 63
2, 93000, Note_off_c, 0, 78, 0
2, 93120, Note_on_c, 0, 79, 68
2, 93480, Note_off_c, 0, 79, 0
2, 93840, Note_on_c, 0, 84, 60
2, 93960, Note_off_c, 0, 84, 0
2, 94080, Note_on_c, 0, 84, 66
2, 94200, Note_off_c, 0, 84, 0
2, 94200, Note_on_c, 0, 83, 60
2, 94320, Note_off_c, 0, 83, 0
2, 94320, Note_on_c, 0, 81, 59
2, 94440, Note_off_c, 0, 81, 0
2, 94440, Note_on_c, 0, 79, 59
2, 94560, Note_off_c, 0, 79, 0
2, 94800, Note_on_c, 0, 78, 58
2, 94920, Note_off_c, 0, 78, 0
2, 95040, Note_on_c, 0, 79, 64
2, 95400, Note_off_c, 0, 79, 0
2, 95760, Note_on_c, 0, 84, 56
2, 95880, Note_off_c, 0, 84, 0
2, 96000, Note_on_c, 0, 84, 60
2, 96120, Note_off_c, 0, 84, 0
2, 96120, Note_on_c, 0, 83, 55
2, 96240, Note_off_c, 0, 83, 0
2, 96240, Note_on_c, 0, 81, 55
2, 96360, Note_off_c, 0, 81, 0
2, 96360, Note_on_c, 0, 79, 54
2, 96480, Note_off_c, 0, 79, 0
2, 96720, Note_on_c, 0, 84, 53
2, 96840, Note_off_c, 0, 84, 0
2, 96960, Note_on_c, 0, 84, 58
2, 97080, Note_off_c, 0, 84, 0
2, 97080, Note_on_c, 0, 83, 52
2, 97200, Note_off_c, 0, 83, 0
2, 97200, Note_on_c, 0, 81, 52
2, 97320, Note_off_c, 0, 81, 0
2, 97320, Note_on_c, 0, 79, 52
2, 97440, Note_off_c, 0, 79, 0
2, 97680, Note_on_c, 0, 84, 51
2, 97800, Note_off_c, 0, 84, 0
2, 97920, Note_on_c, 0, 84, 55
2, 98040, Note_off_c, 0, 84, 0
2, 98040, Note_on_c, 0, 83, 50
2, 98160, Note_off_c, 0, 83, 0
2, 98160, Note_on_c, 0, 81, 50
2, 98280, Note_off_c, 0, 81, 0
2, 98280, Note_on_c, 0, 79, 50
2, 98400, Note_off_c, 0, 79, 0
2, 98400, Note_on_c, 0, 78, 49
2, 98520, Note_off_c, 0, 78, 0
2, 98520, Note_on_c, 0, 79, 49
2, 98640, Note_off_c, 0, 79, 0
2, 98640, Note_on_c, 0, 81, 49
2, 98760, Note_off_c, 0, 81, 0
2, 98760, Note_on_c, 0, 79, 48
2, 98880, Note_off_c, 0, 79, 0
2, 98880, Note_on_c, 0, 78, 48
2, 99000, Note_off_c, 0, 78, 0
2, 99000, Note_on_c, 0, 79, 48
2, 99120, Note_off_c, 0, 79, 0
2, 99120, Note_on_c, 0, 81, 47
2, 99240, Note_off_c, 0, 81, 0
2, 99240, Note_on_c, 0, 79, 47
2, 99360, Note_off_c, 0, 79, 0
2, 99360, Note_on_c, 0, 78, 47
2, 99480, Note_off_c, 0, 78, 0
2, 99480, Note_on_c, 0, 79, 47
2, 99600, Note_off_c, 0, 79, 0
2, 99600, Note_on_c, 0, 80, 46
2, 99720, Note_off_c, 0, 80, 0
2, 99720, Note_on_c, 0, 81, 46
2, 99840, Note_off_c, 0, 81, 0
2, 99840, Note_on_c, 0, 81, 55
2, 100080, Note_off_c, 0, 81, 0
2, 100080, Note_on_c, 0, 77, 51
2, 100200, Note_off_c, 0, 77, 0
2, 100320, Note_on_c, 0, 74, 50
2, 100440, Note_off_c, 0, 74, 0
2, 100560, Note_on_c, 0, 76, 49
2, 100600, Note_off_c, 0, 76, 0
2, 100600, Note_on_c, 0, 77, 49
2, 100640, Note_off_c, 0, 77, 0
2, 100640, Note_on_c, 0, 76, 49
2, 100680, Note_off_c, 0, 76, 0
2, 100680, Note_on_c, 0, 74, 49
2, 100740, Note_off_c, 0, 74, 0
2, 100740, Note_on_c, 0, 76, 48
2, 100800, Note_off_c, 0, 76, 0
2, 100800, Note_on_c, 0, 81, 52
2, 101040, Note_off_c, 0, 81, 0
2, 101040, Note_on_c, 0, 77, 47
2, 101160, Note_off_c, 0, 77, 0
2, 101280, Note_on_c, 0, 74, 47
2, 101400, Note_off_c, 0, 74, 0
2, 101520, Note_on_c, 0, 76, 46
2, 101560, Note_off_c, 0, 76, 0
2, 101560, Note_on_c, 0, 77, 46
2, 101600, Note_off_c, 0, 77, 0
2, 101600, Note_on_c, 0, 76, 46
2, 101640, Note_off_c, 0, 76, 0
2, 101640, Note_on_c, 0, 74, 45
2, 101700, Note_off_c, 0, 74, 0
2, 101700, Note_on_c, 0, 76, 45
2, 101760, Note_off_c, 0, 76, 0
2, 101760, Note_on_c, 0, 77, 49
2, 101880, Note_off_c, 0, 77, 0
2, 102240, Note_on_c, 0, 74, 46
2, 102360, Note_off_c, 0, 74, 0
2, 102720, Note_on_c, 0, 76, 43
2, 102876, Note_off_c, 0, 76, 0
2, 103500, Note_on_c, 0, 79, 85
2, 103560, Note_off_c, 0, 79, 0
2, 103740, Note_on_c, 0, 80, 84
2, 103800, Note_off_c, 0, 80, 0
2, 103980, Note_on_c, 0, 77, 83
2, 104040, Note_off_c, 0, 77, 0
2, 104220, Note_on_c, 0, 74, 83
2, 104280, Note_off_c, 0, 74, 0
2, 104460, Note_on_c, 0, 75, 82
2, 104520, Note_off_c, 0, 75, 0
2, 104700, Note_on_c, 0, 80, 81
2, 104760, Note_off_c, 0, 80, 0
2, 104940, Note_on_c, 0, 77, 80
2, 105000, Note_off_c, 0, 77, 0
2, 105180, Note_on_c, 0, 74, 79
2, 105240, Note_off_c, 0, 74, 0
2, 105420, Note_on_c, 0, 75, 78
2, 105480, Note_off_c, 0, 75, 0
2, 105600, Note_on_c, 0, 77, 82
2, 105720, Note_off_c, 0, 77, 0
2, 106080, Note_on_c, 0, 74, 80
2, 106200, Note_off_c, 0, 74, 0
2, 106560, Note_on_c, 0, 72, 78
2, 106680, Note_off_c, 0, 72, 0
2, 107520, Note_on_c, 0, 72, 52
2, 107640, Note_off_c, 0, 72, 0
2, 108600, Note_on_c, 0, 62, 49
2, 108600, Note_on_c, 0, 71, 49
2, 108720, Note_off_c, 0, 71, 0
2, 108720, Note_off_c, 0, 62, 0
2, 108840, Note_on_c, 0, 74, 51
2, 108840, Note_on_c, 0, 65, 51
2, 108960, Note_off_c, 0, 65, 0
2, 108960, Note_off_c, 0, 74, 0
2, 109080, Note_on_c, 0, 64, 53
2, 109080, Note_on_c, 0, 72, 53
2, 109200, Note_off_c, 0, 72, 0
2, 109200, Note_off_c, 0, 64, 0
2, 109320, Note_on_c, 0, 72, 55
2, 109320, Note_on_c, 0, 76, 55
2, 109440, Note_off_c, 0, 76, 0
2, 109440, Note_off_c, 0, 72, 0
2, 109560, Note_on_c, 0, 77, 57
2, 109560, Note_on_c, 0, 71, 57
2, 109680, Note_off_c, 0, 71, 0
2, 109680, Note_off_c, 0, 77, 0
2, 109800, Note_on_c, 0, 77, 60
2, 109800, Note_on_c, 0, 83, 60
2, 109920, Note_off_c, 0, 83, 0
2, 109920, Note_off_c, 0, 77, 0
2, 110040, Note_on_c, 0, 76, 62
2, 110040, Note_on_c, 0, 84, 62
2, 110160, Note_off_c, 0, 84, 0
2, 110160, Note_off_c, 0, 76, 0
2, 110280, Note_on_c, 0, 88, 64
2, 110280, Note_on_c, 0, 84, 64
2, 110400, Note_off_c, 0, 84, 0
2, 110400, Note_off_c, 0, 88, 0
2, 110520, Note_on_c, 0, 89, 66
2, 110520, Note_on_c, 0, 83, 66
2, 110640, Note_off_c, 0, 83, 0
2, 110640, Note_off_c, 0, 89, 0
2, 110760, Note_on_c, 0, 74, 68
2, 110760, Note_on_c, 0, 83, 68
2, 110880, Note_off_c, 0, 83, 0
2, 110880, Note_off_c, 0, 74, 0
2, 111000, Note_on_c, 0, 76, 70
2, 111000, Note_on_c, 0, 84, 70
2, 111120, Note_off_c, 0, 84, 0
2, 111120, Note_off_c, 0, 76, 0
2, 111240, Note_on_c, 0, 79, 72
2, 111240, Note_on_c, 0, 88, 72
2, 111360, Note_off_c, 0, 88, 0
2, 111360, Note_off_c, 0, 79, 0
2, 111480, Note_on_c, 0, 81, 74
2, 111480, Note_on_c, 0, 89, 74
2, 111600, Note_off_c, 0, 89, 0
2, 111600, Note_off_c, 0, 81, 0
2, 111720, Note_on_c, 0, 74, 76
2, 111720, Note_on_c, 0, 83, 76
2, 111840, Note_off_c, 0, 83, 0
2, 111840, Note_off_c, 0, 74, 0
2, 111960, Note_on_c, 0, 76, 78
2, 111960, Note_on_c, 0, 84, 78
2, 112080, Note_off_c, 0, 84, 0
2, 112080, Note_off_c, 0, 76, 0
2, 112200, Note_on_c, 0, 79, 80
2, 112200, Note_on_c, 0, 88, 80
2, 112320, Note_off_c, 0, 88, 0
2, 112320, Note_off_c, 0, 79, 0
2, 112560, Note_on_c, 0, 86, 84
2, 112640, Note_off_c, 0, 86, 0
2, 112640, Note_on_c, 0, 85, 83
2, 112720, Note_off_c, 0, 85, 0
2, 112720, Note_on_c, 0, 88, 82
2, 112800, Note_off_c, 0, 88, 0
2, 112800, Note_on_c, 0, 86, 82
2, 112920, Note_off_c, 0, 86, 0
2, 113040, Note_on_c, 0, 81, 80
2, 113120, Note_off_c, 0, 81, 0
2, 113120, Note_on_c, 0, 80, 80
2, 113200, Note_off_c, 0, 80, 0
2, 113200, Note_on_c, 0, 83, 79
2, 113280, Note_off_c, 0, 83, 0
2, 113280, Note_on_c, 0, 81, 79
2, 113400, Note_off_c, 0, 81, 0
2, 113520, Note_on_c, 0, 77, 77
2, 113600, Note_off_c, 0, 77, 0
2, 113600, Note_on_c, 0, 76, 76
2, 113680, Note_off_c, 0, 76, 0
2, 113680, Note_on_c, 0, 79, 76
2, 113760, Note_off_c, 0, 79, 0
2, 113760, Note_on_c, 0, 77, 75
2, 113880, Note_off_c, 0, 77, 0
2, 114000, Note_on_c, 0, 74, 73
2, 114080, Note_off_c, 0, 74, 0
2, 114080, Note_on_c, 0, 73, 73
2, 114160, Note_off_c, 0, 73, 0
2, 114160, Note_on_c, 0, 76, 72
2, 114240, Note_off_c, 0, 76, 0
2, 114240, Note_on_c, 0, 74, 72
2, 114360, Note_off_c, 0, 74, 0
2, 114480, Note_on_c, 0, 74, 86
2, 114960, Note_on_c, 0, 76, 79
2, 114982, Note_off_c, 0, 74, 0
2, 115080, Note_off_c, 0, 76, 0
2, 115080, Note_on_c, 0, 77, 79
2, 115200, Note_off_c, 0, 77, 0
2, 115200, Note_on_c, 0, 79, 85
2, 115680, Note_off_c, 0, 79, 0
2, 115680, Note_on_c, 0, 79, 77
2, 115760, Note_off_c, 0, 79, 0
2, 115760, Note_on_c, 0, 81, 75
2, 115840, Note_off_c, 0, 81, 0
2, 115840, Note_on_c, 0, 79, 74
2, 115920, Note_off_c, 0, 79, 0
2, 115920, Note_on_c, 0, 77, 72
2, 116000, Note_off_c, 0, 77, 0
2, 116000, Note_on_c, 0, 76, 71
2, 116080, Note_off_c, 0, 76, 0
2, 116080, Note_on_c, 0, 74, 69
2, 116160, Note_off_c, 0, 74, 0
2, 116160, Note_on_c, 0, 72, 68
2, 116400, Note_off_c, 0, 72, 0
2, 116640, Note_on_c, 0, 79, 50
2, 116760, Note_off_c, 0, 79, 0
2, 116880, Note_on_c, 0, 79, 47
2, 117000, Note_off_c, 0, 79, 0
2, 117120, Note_on_c, 0, 76, 47
2, 117240, Note_off_c, 0, 76, 0
2, 117600, Note_on_c, 0, 72, 55
2, 117600, Note_on_c, 0, 84, 55
2, 117720, Note_off_c, 0, 84, 0
2, 117720, Note_off_c, 0, 72, 0
2, 117840, Note_on_c, 0, 72, 50
2, 117840, Note_on_c, 0, 84, 50
2, 117960, Note_off_c, 0, 84, 0
2, 117960, Note_off_c, 0, 72, 0
2, 118080, Note_on_c, 0, 69, 50
2, 118080, Note_on_c, 0, 81, 50
2, 118200, Note_off_c, 0, 81, 0
2, 118200, Note_off_c, 0, 69, 0
2, 118560, Note_on_c, 0, 42, 79
2, 118680, Note_off_c, 0, 42, 0
2, 118800, Note_on_c, 0, 42, 77
2, 118920, Note_off_c, 0, 42, 0
2, 119040, Note_on_c, 0, 42, 75
2, 119100, Note_off_c, 0, 42, 0
2, 119100, Note_on_c, 0, 43, 74
2, 119160, Note_off_c, 0, 43, 0
2, 119160, Note_on_c, 0, 45, 74
2, 119220, Note_off_c, 0, 45, 0
2, 119220, Note_on_c, 0, 43, 73
2, 119280, Note_off_c, 0, 43, 0
2, 119280, Note_on_c, 0, 45, 72
2, 119340, Note_off_c, 0, 45, 0
2, 119340, Note_on_c, 0, 43, 72
2, 119400, Note_off_c, 0, 43, 0
2, 119400, Note_on_c, 0, 45, 71
2, 119460, Note_off_c, 0, 45, 0
2, 119460, Note_on_c, 0, 43, 71
2, 119520, Note_off_c, 0, 43, 0
2, 119520, Note_on_c, 0, 45, 70
2, 119580, Note_off_c, 0, 45, 0
2, 119580, Note_on_c, 0, 43, 70
2, 119640, Note_off_c, 0, 43, 0
2, 119640, Note_on_c, 0, 45, 69
2, 119700, Note_off_c, 0, 45, 0
2, 119700, Note_on_c, 0, 43, 69
2, 119760, Note_off_c, 0, 43, 0
2, 119760, Note_on_c, 0, 45, 68
2, 119820, Note_off_c, 0, 45, 0
2, 119820, Note_on_c, 0, 43, 67
2, 119880, Note_off_c, 0, 43, 0
2, 119880, Note_on_c, 0, 42, 67
2, 119940, Note_off_c, 0, 42, 0
2, 119940, Note_on_c, 0, 43, 66
2, 120000, Note_off_c, 0, 43, 0
2, 120000, Note_on_c, 0, 36, 66
2, 120420, Note_on_c, 0, 67, 49
2, 120480, Note_off_c, 0, 36, 0
2, 120480, Note_on_c, 0, 79, 51
2, 120517, Note_off_c, 0, 67, 0
2, 120600, Note_off_c, 0, 79, 0
2, 120660, Note_on_c, 0, 67, 48
2, 120720, Note_on_c, 0, 79, 48
2, 120750, Note_off_c, 0, 67, 0
2, 120840, Note_off_c, 0, 79, 0
2, 120900, Note_on_c, 0, 64, 49
2, 120960, Note_on_c, 0, 76, 49
2, 120997, Note_off_c, 0, 64, 0
2, 121080, Note_off_c, 0, 76, 0
2, 121380, Note_on_c, 0, 72, 53
2, 121440, Note_on_c, 0, 84, 55
2, 121500, Note_off_c, 0, 72, 0
2, 121560, Note_off_c, 0, 84, 0
2, 121620, Note_on_c, 0, 72, 53
2, 121680, Note_on_c, 0, 84, 53
2, 121740, Note_off_c, 0, 72, 0
2, 121800, Note_off_c, 0, 84, 0
2, 121860, Note_on_c, 0, 69, 54
2, 121920, Note_on_c, 0, 81, 54
2, 121980, Note_off_c, 0, 69, 0
2, 122040, Note_off_c, 0, 81, 0
2, 122400, Note_on_c, 0, 42, 77
2, 122520, Note_off_c, 0, 42, 0
2, 122640, Note_on_c, 0, 42, 75
2, 122760, Note_off_c, 0, 42, 0
2, 122880, Note_on_c, 0, 42, 74
2, 122940, Note_off_c, 0, 42, 0
2, 122940, Note_on_c, 0, 43, 73
2, 123000, Note_off_c, 0, 43, 0
2, 123000, Note_on_c, 0, 45, 73
2, 123060, Note_off_c, 0, 45, 0
2, 123060, Note_on_c, 0, 43, 72
2, 123120, Note_off_c, 0, 43, 0
2, 123120, Note_on_c, 0, 45, 72
2, 123180, Note_off_c, 0, 45, 0
2, 123180, Note_on_c, 0, 43, 71
2, 123240, Note_off_c, 0, 43, 0
2, 123240, Note_on_c, 0, 45, 71
2, 123300, Note_off_c, 0, 45, 0
2, 123300, Note_on_c, 0, 43, 71
2, 123360, Note_off_c, 0, 43, 0
2, 123360, Note_on_c, 0, 45, 70
2, 123420, Note_off_c, 0, 45, 0
2, 123420, Note_on_c, 0, 43, 70
2, 123480, Note_off_c, 0, 43, 0
2, 123480, Note_on_c, 0, 45, 69
2, 123540, Note_off_c, 0, 45, 0
2, 123540, Note_on_c, 0, 43, 69
2, 123600, Note_off_c, 0, 43, 0
2, 123600, Note_on_c, 0, 45, 68
2, 123660, Note_off_c, 0, 45, 0
2, 123660, Note_on_c, 0, 43, 68
2, 123720, Note_off_c, 0, 43, 0
2, 123720, Note_on_c, 0, 42, 67
2, 123780, Note_off_c, 0, 42, 0
2, 123780, Note_on_c, 0, 43, 67
2, 123840, Note_off_c, 0, 43, 0
2, 123840, Note_on_c, 0, 36, 67
2, 124320, Note_off_c, 0, 36, 0
2, 124320, Note_on_c, 0, 78, 83
2, 124440, Note_off_c, 0, 78, 0
2, 124560, Note_on_c, 0, 78, 79
2, 124680, Note_off_c, 0, 78, 0
2, 124800, Note_on_c, 0, 78, 68
2, 124860, Note_off_c, 0, 78, 0
2, 124860, Note_on_c, 0, 79, 70
2, 124920, Note_off_c, 0, 79, 0
2, 124920, Note_on_c, 0, 81, 71
2, 124980, Note_off_c, 0, 81, 0
2, 124980, Note_on_c, 0, 79, 72
2, 125040, Note_off_c, 0, 79, 0
2, 125040, Note_on_c, 0, 81, 73
2, 125100, Note_off_c, 0, 81, 0
2, 125100, Note_on_c, 0, 79, 74
2, 125160, Note_off_c, 0, 79, 0
2, 125160, Note_on_c, 0, 81, 75
2, 125220, Note_off_c, 0, 81, 0
2, 125220, Note_on_c, 0, 79, 76
2, 125280, Note_off_c, 0, 79, 0
2, 125280, Note_on_c, 0, 81, 77
2, 125340, Note_off_c, 0, 81, 0
2, 125340, Note_on_c, 0, 79, 78
2, 125400, Note_off_c, 0, 79, 0
2, 125400, Note_on_c, 0, 81, 79
2, 125460, Note_off_c, 0, 81, 0
2, 125460, Note_on_c, 0, 79, 80
2, 125520, Note_off_c, 0, 79, 0
2, 125520, Note_on_c, 0, 81, 82
2, 125580, Note_off_c, 0, 81, 0
2, 125580, Note_on_c, 0, 79, 84
2, 125640, Note_off_c, 0, 79, 0
2, 125640, Note_on_c, 0, 78, 87
2, 125700, Note_off_c, 0, 78, 0
2, 125700, Note_on_c, 0, 79, 90
2, 125760, Note_off_c, 0, 79, 0
2, 125760, Note_on_c, 0, 84, 95
2, 125760, Note_on_c, 0, 72, 95
2, 125880, Note_off_c, 0, 72, 0
2, 125880, Note_off_c, 0, 84, 0
2, 126240, Note_on_c, 0, 67, 95
2, 126240, Note_on_c, 0, 79, 95
2, 126360, Note_off_c, 0, 79, 0
2, 126360, Note_off_c, 0, 67, 0
2, 126720, Note_on_c, 0, 60, 95
2, 126720, Note_on_c, 0, 72, 95
2, 126912, Note_off_c, 0, 72, 0
2, 126912, Note_off_c, 0, 60, 0
2, 127680, Control_c, 0, 64, 0
2, 127680, Note_on_c, 0, 81, 51
2, 127680, Note_on_c, 0, 69, 51
2, 127800, Note_off_c, 0, 69, 0
2, 127800, Note_off_c, 0, 81, 0
2, 128160, Note_on_c, 0, 64, 49
2, 128160, Note_on_c, 0, 76, 49
2, 128280, Note_off_c, 0, 76, 0
2, 128280, Note_off_c, 0, 64, 0
2, 128640, Note_on_c, 0, 69, 47
2, 128640, Note_on_c, 0, 57, 47
2, 128832, Note_off_c, 0, 57, 0
2, 128832, Note_off_c, 0, 69, 0
2, 129680, Note_on_c, 0, 74, 53
2, 129760, Note_off_c, 0, 74, 0
2, 129760, Note_on_c, 0, 76, 53
2, 129840, Note_off_c, 0, 76, 0
2, 129840, Note_on_c, 0, 77, 53
2, 129920, Note_off_c, 0, 77, 0
2, 129920, Note_on_c, 0, 76, 53
2, 130000, Note_off_c, 0, 76, 0
2, 130000, Note_on_c, 0, 74, 53
2, 130080, Note_off_c, 0, 74, 0
2, 130160, Note_on_c, 0, 81, 53
2, 130240, Note_off_c, 0, 81, 0
2, 130240, Note_on_c, 0, 83, 52
2, 130320, Note_off_c, 0, 83, 0
2, 130320, Note_on_c, 0, 85, 52
2, 130400, Note_off_c, 0, 85, 0
2, 130400, Note_on_c, 0, 83, 52
2, 130480, Note_off_c, 0, 83, 0
2, 130480, Note_on_c, 0, 81, 52
2, 130560, Note_off_c, 0, 81, 0
2, 130680, Note_on_c, 0, 86, 52
2, 130800, Note_off_c, 0, 86, 0
2, 130800, Note_on_c, 0, 85, 52
2, 130920, Note_off_c, 0, 85, 0
2, 130920, Note_on_c, 0, 86, 51
2, 131040, Note_off_c, 0, 86, 0
2, 131040, Note_on_c, 0, 88, 51
2, 131160, Note_off_c, 0, 88, 0
2, 131160, Note_on_c, 0, 86, 51
2, 131280, Note_off_c, 0, 86, 0
2, 131280, Note_on_c, 0, 89, 51
2, 131400, Note_off_c, 0, 89, 0
2, 131400, Note_on_c, 0, 86, 51
2, 131520, Note_off_c, 0, 86, 0
2, 131600, Note_on_c, 0, 85, 50
2, 131680, Note_off_c, 0, 85, 0
2, 131680, Note_on_c, 0, 86, 50
2, 131760, Note_off_c, 0, 86, 0
2, 131760, Note_on_c, 0, 88, 50
2, 131840, Note_off_c, 0, 88, 0
2, 131840, Note_on_c, 0, 86, 50
2, 131920, Note_off_c, 0, 86, 0
2, 131920, Note_on_c, 0, 85, 50
2, 132000, Note_off_c, 0, 85, 0
2, 132000, Note_on_c, 0, 85, 50
2, 132080, Note_off_c, 0, 85, 0
2, 132160, Note_on_c, 0, 86, 49
2, 132240, Note_off_c, 0, 86, 0
2, 132240, Note_on_c, 0, 88, 49
2, 132320, Note_off_c, 0, 88, 0
2, 132320, Note_on_c, 0, 86, 49
2, 132400, Note_off_c, 0, 86, 0
2, 132400, Note_on_c, 0, 85, 49
2, 132480, Note_off_c, 0, 85, 0
2, 132600, Note_on_c, 0, 88, 49
2, 132630, Note_on_c, 0, 86, 49
2, 132660, Note_off_c, 0, 88, 0
2, 132660, Note_on_c, 0, 85, 49
2, 132690, Note_off_c, 0, 86, 0
2, 132690, Note_on_c, 0, 86, 49
2, 132720, Note_off_c, 0, 85, 0
2, 132720, Note_on_c, 0, 88, 49
2, 132750, Note_off_c, 0, 86, 0
2, 132840, Note_off_c, 0, 88, 0
2, 132840, Note_on_c, 0, 86, 48
2, 132960, Note_off_c, 0, 86, 0
2, 132960, Note_on_c, 0, 84, 48
2, 133080, Note_off_c, 0, 84, 0
2, 133080, Note_on_c, 0, 82, 48
2, 133200, Note_off_c, 0, 82, 0
2, 133200, Note_on_c, 0, 81, 48
2, 133320, Note_off_c, 0, 81, 0
2, 133320, Note_on_c, 0, 79, 48
2, 133440, Note_off_c, 0, 79, 0
2, 133440, Note_on_c, 0, 86, 83
2, 133560, Note_off_c, 0, 86, 0
2, 133920, Note_on_c, 0, 81, 82
2, 134040, Note_off_c, 0, 81, 0
2, 134400, Note_on_c, 0, 74, 80
2, 134520, Note_off_c, 0, 74, 0
2, 135360, Note_on_c, 0, 81, 77
2, 135480, Note_off_c, 0, 81, 0
2, 135840, Note_on_c, 0, 76, 75
2, 135960, Note_off_c, 0, 76, 0
2, 136320, Note_on_c, 0, 69, 74
2, 136440, Note_off_c, 0, 69, 0
2, 137360, Control_c, 0, 64, 127
2, 137360, Note_on_c, 0, 65, 46
2, 137440, Note_off_c, 0, 65, 0
2, 137440, Note_on_c, 0, 77, 46
2, 137520, Control_c, 0, 64, 0
2, 137520, Note_off_c, 0, 77, 0
2, 137600, Control_c, 0, 64, 127
2, 137600, Note_on_c, 0, 68, 47
2, 137680, Note_off_c, 0, 68, 0
2, 137680, Note_on_c, 0, 80, 47
2, 137760, Control_c, 0, 64, 0
2, 137760, Note_off_c, 0, 80, 0
2, 137840, Control_c, 0, 64, 127
2, 137840, Note_on_c, 0, 69, 48
2, 137920, Note_off_c, 0, 69, 0
2, 137920, Note_on_c, 0, 81, 49
2, 138000, Control_c, 0, 64, 0
2, 138000, Note_off_c, 0, 81, 0
2, 138080, Control_c, 0, 64, 127
2, 138080, Note_on_c, 0, 62, 49
2, 138160, Note_off_c, 0, 62, 0
2, 138160, Note_on_c, 0, 74, 50
2, 138240, Control_c, 0, 64, 0
2, 138240, Note_off_c, 0, 74, 0
2, 138320, Control_c, 0, 64, 127
2, 138320, Note_on_c, 0, 62, 50
2, 138400, Note_off_c, 0, 62, 0
2, 138400, Note_on_c, 0, 74, 51
2, 138480, Control_c, 0, 64, 0
2, 138480, Note_off_c, 0, 74, 0
2, 138560, Control_c, 0, 64, 127
2, 138560, Note_on_c, 0, 61, 51
2, 138640, Note_off_c, 0, 61, 0
2, 138640, Note_on_c, 0, 73, 52
2, 138720, Control_c, 0, 64, 0
2, 138720, Note_off_c, 0, 73, 0
2, 138800, Control_c, 0, 64, 127
2, 138800, Note_on_c, 0, 61, 52
2, 138880, Note_off_c, 0, 61, 0
2, 138880, Note_on_c, 0, 73, 53
2, 138960, Control_c, 0, 64, 0
2, 138960, Note_off_c, 0, 73, 0
2, 139040, Control_c, 0, 64, 127
2, 139040, Note_on_c, 0, 64, 54
2, 139120, Note_off_c, 0, 64, 0
2, 139120, Note_on_c, 0, 76, 54
2, 139200, Control_c, 0, 64, 0
2, 139200, Note_off_c, 0, 76, 0
2, 139280, Control_c, 0, 64, 127
2, 139280, Note_on_c, 0, 64, 55
2, 139360, Note_off_c, 0, 64, 0
2, 139360, Note_on_c, 0, 76, 55
2, 139440, Control_c, 0, 64, 0
2, 139440, Note_off_c, 0, 76, 0
2, 139520, Control_c, 0, 64, 127
2, 139520, Note_on_c, 0, 62, 56
2, 139600, Note_off_c, 0, 62, 0
2, 139600, Note_on_c, 0, 74, 56
2, 139680, Control_c, 0, 64, 0
2, 139680, Note_off_c, 0, 74, 0
2, 139760, Control_c, 0, 64, 127
2, 139760, Note_on_c, 0, 62, 57
2, 139840, Note_off_c, 0, 62, 0
2, 139840, Note_on_c, 0, 74, 57
2, 139920, Control_c, 0, 64, 0
2, 139920, Note_off_c, 0, 74, 0
2, 140000, Control_c, 0, 64, 127
2, 140000, Note_on_c, 0, 65, 58
2, 140080, Note_off_c, 0, 65, 0
2, 140080, Note_on_c, 0, 77, 58
2, 140160, Control_c, 0, 64, 0
2, 140160, Note_off_c, 0, 77, 0
2, 140240, Control_c, 0, 64, 127
2, 140240, Note_on_c, 0, 65, 59
2, 140320, Note_off_c, 0, 65, 0
2, 140320, Note_on_c, 0, 77, 59
2, 140400, Control_c, 0, 64, 0
2, 140400, Note_off_c, 0, 77, 0
2, 140480, Control_c, 0, 64, 127
2, 140480, Note_on_c, 0, 64, 60
2, 140560, Note_off_c, 0, 64, 0
2, 140560, Note_on_c, 0, 76, 60
2, 140640, Control_c, 0, 64, 0
2, 140640, Note_off_c, 0, 76, 0
2, 140720, Control_c, 0, 64, 127
2, 140720, Note_on_c, 0, 64, 61
2, 140800, Note_off_c, 0, 64, 0
2, 140800, Note_on_c, 0, 76, 61
2, 140880, Control_c, 0, 64, 0
2, 140880, Note_off_c, 0, 76, 0
2, 140960, Control_c, 0, 64, 127
2, 140960, Note_on_c, 0, 67, 62
2, 141040, Note_off_c, 0, 67, 0
2, 141040, Note_on_c, 0, 79, 62
2, 141120, Note_off_c, 0, 79, 0
2, 141200, Control_c, 0, 64, 127
2, 141200, Note_on_c, 0, 67, 64
2, 141280, Note_off_c, 0, 67, 0
2, 141280, Note_on_c, 0, 79, 65
2, 141360, Control_c, 0, 64, 0
2, 141360, Note_off_c, 0, 79, 0
2, 141440, Control_c, 0, 64, 127
2, 141440, Note_on_c, 0, 65, 66
2, 141520, Note_off_c, 0, 65, 0
2, 141520, Note_on_c, 0, 77, 67
2, 141600, Control_c, 0, 64, 0
2, 141600, Note_off_c, 0, 77, 0
2, 141680, Control_c, 0, 64, 127
2, 141680, Note_on_c, 0, 67, 68
2, 141760, Note_off_c, 0, 67, 0
2, 141760, Note_on_c, 0, 79, 69
2, 141840, Control_c, 0, 64, 0
2, 141840, Note_off_c, 0, 79, 0
2, 141920, Control_c, 0, 64, 127
2, 141920, Note_on_c, 0, 66, 70
2, 142000, Note_off_c, 0, 66, 0
2, 142000, Note_on_c, 0, 78, 70
2, 142080, Control_c, 0, 64, 0
2, 142080, Note_off_c, 0, 78, 0
2, 142160, Control_c, 0, 64, 127
2, 142160, Note_on_c, 0, 69, 71
2, 142240, Note_off_c, 0, 69, 0
2, 142240, Note_on_c, 0, 81, 72
2, 142320, Control_c, 0, 64, 0
2, 142320, Note_off_c, 0, 81, 0
2, 142400, Control_c, 0, 64, 127
2, 142400, Note_on_c, 0, 67, 73
2, 142480, Note_off_c, 0, 67, 0
2, 142480, Note_on_c, 0, 79, 74
2, 142560, Control_c, 0, 64, 0
2, 142560, Note_off_c, 0, 79, 0
2, 142640, Control_c, 0, 64, 127
2, 142640, Note_on_c, 0, 70, 75
2, 142720, Note_off_c, 0, 70, 0
2, 142720, Note_on_c, 0, 82, 76
2, 142800, Control_c, 0, 64, 0
2, 142800, Note_off_c, 0, 82, 0
2, 142880, Control_c, 0, 64, 127
2, 142880, Note_on_c, 0, 69, 77
2, 142960, Note_off_c, 0, 69, 0
2, 142960, Note_on_c, 0, 81, 77
2, 143040, Note_off_c, 0, 81, 0
2, 143120, Control_c, 0, 64, 127
2, 143120, Note_on_c, 0, 72, 40
2, 143200, Note_off_c, 0, 72, 0
2, 143200, Note_on_c, 0, 84, 40
2, 143280, Control_c, 0, 64, 0
2, 143280, Note_off_c, 0, 84, 0
2, 143360, Control_c, 0, 64, 127
2, 143360, Note_on_c, 0, 70, 40
2, 143440, Note_off_c, 0, 70, 0
2, 143440, Note_on_c, 0, 82, 41
2, 143520, Control_c, 0, 64, 0
2, 143520, Note_off_c, 0, 82, 0
2, 143600, Control_c, 0, 64, 127
2, 143600, Note_on_c, 0, 74, 41
2, 143680, Note_off_c, 0, 74, 0
2, 143680, Note_on_c, 0, 86, 41
2, 143760, Control_c, 0, 64, 0
2, 143760, Note_off_c, 0, 86, 0
2, 143840, Control_c, 0, 64, 127
2, 143840, Note_on_c, 0, 67, 42
2, 143920, Note_off_c, 0, 67, 0
2, 143920, Note_on_c, 0, 79, 42
2, 144000, Control_c, 0, 64, 0
2, 144000, Note_off_c, 0, 79, 0
2, 144080, Control_c, 0, 64, 127
2, 144080, Note_on_c, 0, 67, 42
2, 144160, Note_off_c, 0, 67, 0
2, 144160, Note_on_c, 0, 79, 42
2, 144240, Control_c, 0, 64, 0
2, 144240, Note_off_c, 0, 79, 0
2, 144320, Control_c, 0, 64, 127
2, 144320, Note_on_c, 0, 64, 43
2, 144400, Note_off_c, 0, 64, 0
2, 144400, Note_on_c, 0, 76, 43
2, 144480, Control_c, 0, 64, 0
2, 144480, Note_off_c, 0, 76, 0
2, 144560, Control_c, 0, 64, 127
2, 144560, Note_on_c, 0, 66, 44
2, 144640, Note_off_c, 0, 66, 0
2, 144640, Note_on_c, 0, 78, 44
2, 144720, Control_c, 0, 64, 0
2, 144720, Note_off_c, 0, 78, 0
2, 144800, Control_c, 0, 64, 127
2, 144800, Note_on_c, 0, 69, 44
2, 144880, Note_off_c, 0, 69, 0
2, 144880, Note_on_c, 0, 81, 44
2, 144960, Note_off_c, 0, 81, 0
2, 145040, Control_c, 0, 64, 127
2, 145040, Note_on_c, 0, 69, 45
2, 145120, Note_off_c, 0, 69, 0
2, 145120, Note_on_c, 0, 81, 45
2, 145200, Control_c, 0, 64, 0
2, 145200, Note_off_c, 0, 81, 0
2, 145280, Control_c, 0, 64, 127
2, 145280, Note_on_c, 0, 66, 45
2, 145360, Note_off_c, 0, 66, 0
2, 145360, Note_on_c, 0, 78, 46
2, 145440, Control_c, 0, 64, 0
2, 145440, Note_off_c, 0, 78, 0
2, 145520, Control_c, 0, 64, 127
2, 145520, Note_on_c, 0, 67, 46
2, 145600, Note_off_c, 0, 67, 0
2, 145600, Note_on_c, 0, 79, 46
2, 145680, Control_c, 0, 64, 0
2, 145680, Note_off_c, 0, 79, 0
2, 145760, Control_c, 0, 64, 127
2, 145760, Note_on_c, 0, 70, 47
2, 145840, Note_off_c, 0, 70, 0
2, 145840, Note_on_c, 0, 82, 47
2, 145920, Control_c, 0, 64, 0
2, 145920, Note_off_c, 0, 82, 0
2, 145980, Note_on_c, 0, 70, 47
2, 146000, Control_c, 0, 64, 127
2, 146060, Note_off_c, 0, 70, 0
2, 146080, Note_on_c, 0, 82, 48
2, 146160, Control_c, 0, 64, 0
2, 146160, Note_off_c, 0, 82, 0
2, 146240, Control_c, 0, 64, 127
2, 146240, Note_on_c, 0, 68, 48
2, 146320, Note_off_c, 0, 68, 0
2, 146320, Note_on_c, 0, 80, 48
2, 146400, Control_c, 0, 64, 0
2, 146400, Note_off_c, 0, 80, 0
2, 146480, Control_c, 0, 64, 127
2, 146480, Note_on_c, 0, 69, 49
2, 146560, Note_off_c, 0, 69, 0
2, 146560, Note_on_c, 0, 81, 49
2, 146640, Control_c, 0, 64, 0
2, 146640, Note_off_c, 0, 81, 0
2, 146720, Control_c, 0, 64, 127
2, 146720, Note_on_c, 0, 72, 49
2, 146800, Note_off_c, 0, 72, 0
2, 146800, Note_on_c, 0, 84, 49
2, 146880, Note_off_c, 0, 84, 0
2, 146960, Control_c, 0, 64, 127
2, 146960, Note_on_c, 0, 72, 50
2, 147040, Note_off_c, 0, 72, 0
2, 147040, Note_on_c, 0, 84, 51
2, 147120, Control_c, 0, 64, 0
2, 147120, Note_off_c, 0, 84, 0
2, 147200, Control_c, 0, 64, 127
2, 147200, Note_on_c, 0, 70, 54
2, 147280, Note_off_c, 0, 70, 0
2, 147280, Note_on_c, 0, 82, 55
2, 147360, Control_c, 0, 64, 0
2, 147360, Note_off_c, 0, 82, 0
2, 147440, Control_c, 0, 64, 127
2, 147440, Note_on_c, 0, 72, 58
2, 147520, Note_off_c, 0, 72, 0
2, 147520, Note_on_c, 0, 84, 60
2, 147600, Control_c, 0, 64, 0
2, 147600, Note_off_c, 0, 84, 0
2, 147680, Control_c, 0, 64, 127
2, 147680, Note_on_c, 0, 71, 62
2, 147760, Note_off_c, 0, 71, 0
2, 147760, Note_on_c, 0, 83, 64
2, 147840, Control_c, 0, 64, 0
2, 147840, Note_off_c, 0, 83, 0
2, 147920, Control_c, 0, 64, 127
2, 147920, Note_on_c, 0, 74, 67
2, 148000, Note_off_c, 0, 74, 0
2, 148000, Note_on_c, 0, 86, 68
2, 148080, Control_c, 0, 64, 0
2, 148080, Note_off_c, 0, 86, 0
2, 148160, Control_c, 0, 64, 127
2, 148160, Note_on_c, 0, 72, 71
2, 148240, Note_off_c, 0, 72, 0
2, 148240, Note_on_c, 0, 84, 72
2, 148320, Control_c, 0, 64, 0
2, 148320, Note_off_c, 0, 84, 0
2, 148400, Control_c, 0, 64, 127
2, 148400, Note_on_c, 0, 75, 75
2, 148480, Note_off_c, 0, 75, 0
2, 148480, Note_on_c, 0, 87, 77
2, 148560, Control_c, 0, 64, 0
2, 148560, Note_off_c, 0, 87, 0
2, 148640, Control_c, 0, 64, 127
2, 148640, Note_on_c, 0, 74, 80
2, 148720, Note_off_c, 0, 74, 0
2, 148720, Note_on_c, 0, 86, 81
2, 148800, Note_off_c, 0, 86, 0
2, 148880, Control_c, 0, 64, 127
2, 148880, Note_on_c, 0, 77, 93
2, 148960, Note_off_c, 0, 77, 0
2, 148960, Note_on_c, 0, 89, 92
2, 149040, Control_c, 0, 64, 0
2, 149040, Note_off_c, 0, 89, 0
2, 149120, Control_c, 0, 64, 127
2, 149120, Note_on_c, 0, 75, 90
2, 149200, Note_off_c, 0, 75, 0
2, 149200, Note_on_c, 0, 87, 89
2, 149280, Control_c, 0, 64, 0
2, 149280, Note_off_c, 0, 87, 0
2, 149360, Control_c, 0, 64, 127
2, 149360, Note_on_c, 0, 77, 87
2, 149440, Note_off_c, 0, 77, 0
2, 149440, Note_on_c, 0, 89, 86
2, 149520, Control_c, 0, 64, 0
2, 149520, Note_off_c, 0, 89, 0
2, 149600, Control_c, 0, 64, 127
2, 149600, Note_on_c, 0, 76, 84
2, 149680, Note_off_c, 0, 76, 0
2, 149680, Note_on_c, 0, 88, 83
2, 149760, Control_c, 0, 64, 0
2, 149760, Note_off_c, 0, 88, 0
2, 149840, Control_c, 0, 64, 127
2, 149840, Note_on_c, 0, 77, 81
2, 149920, Note_off_c, 0, 77, 0
2, 149920, Note_on_c, 0, 89, 80
2, 150000, Control_c, 0, 64, 0
2, 150000, Note_off_c, 0, 89, 0
2, 150080, Control_c, 0, 64, 127
2, 150080, Note_on_c, 0, 72, 77
2, 150160, Note_off_c, 0, 72, 0
2, 150160, Note_on_c, 0, 84, 76
2, 150240, Control_c, 0, 64, 0
2, 150240, Note_off_c, 0, 84, 0
2, 150320, Control_c, 0, 64, 127
2, 150320, Note_on_c, 0, 77, 74
2, 150400, Note_off_c, 0, 77, 0
2, 150400, Note_on_c, 0, 89, 73
2, 150480, Control_c, 0, 64, 0
2, 150480, Note_off_c, 0, 89, 0
2, 150560, Control_c, 0, 64, 127
2, 150560, Note_on_c, 0, 75, 71
2, 150640, Note_off_c, 0, 75, 0
2, 150640, Note_on_c, 0, 87, 70
2, 150720, Note_off_c, 0, 87, 0
2, 150800, Control_c, 0, 64, 127
2, 150800, Control_c, 0, 64, 127
2, 150800, Note_on_c, 0, 75, 42
2, 150880, Note_off_c, 0, 75, 0
2, 150880, Note_on_c, 0, 87, 42
2, 150960, Control_c, 0, 64, 0
2, 150960, Control_c, 0, 64, 0
2, 150960, Note_off_c, 0, 87, 0
2, 151040, Control_c, 0, 64, 127
2, 151040, Control_c, 0, 64, 127
2, 151040, Note_on_c, 0, 74, 43
2, 151120, Note_off_c, 0, 74, 0
2, 151120, Note_on_c, 0, 86, 43
2, 151200, Control_c, 0, 64, 0
2, 151200, Control_c, 0, 64, 0
2, 151200, Note_off_c, 0, 86, 0
2, 151280, Control_c, 0, 64, 127
2, 151280, Control_c, 0, 64, 127
2, 151280, Note_on_c, 0, 77, 44
2, 151360, Note_off_c, 0, 77, 0
2, 151360, Note_on_c, 0, 89, 44
2, 151440, Control_c, 0, 64, 0
2, 151440, Control_c, 0, 64, 0
2, 151440, Note_off_c, 0, 89, 0
2, 151520, Control_c, 0, 64, 127
2, 151520, Control_c, 0, 64, 127
2, 151520, Note_on_c, 0, 70, 45
2, 151600, Note_off_c, 0, 70, 0
2, 151600, Note_on_c, 0, 82, 45
2, 151680, Control_c, 0, 64, 0
2, 151680, Control_c, 0, 64, 0
2, 151680, Note_off_c, 0, 82, 0
2, 151760, Control_c, 0, 64, 127
2, 151760, Control_c, 0, 64, 127
2, 151760, Note_on_c, 0, 70, 46
2, 151840, Note_off_c, 0, 70, 0
2, 151840, Note_on_c, 0, 82, 46
2, 151920, Control_c, 0, 64, 0
2, 151920, Control_c, 0, 64, 0
2, 151920, Note_off_c, 0, 82, 0
2, 152000, Control_c, 0, 64, 127
2, 152000, Control_c, 0, 64, 127
2, 152000, Note_on_c, 0, 68, 47
2, 152080, Note_off_c, 0, 68, 0
2, 152080, Note_on_c, 0, 80, 47
2, 152160, Control_c, 0, 64, 0
2, 152160, Control_c, 0, 64, 0
2, 152160, Note_off_c, 0, 80, 0
2, 152240, Control_c, 0, 64, 127
2, 152240, Control_c, 0, 64, 127
2, 152240, Note_on_c, 0, 69, 48
2, 152320, Note_off_c, 0, 69, 0
2, 152320, Note_on_c, 0, 81, 48
2, 152400, Control_c, 0, 64, 0
2, 152400, Control_c, 0, 64, 0
2, 152400, Note_off_c, 0, 81, 0
2, 152480, Control_c, 0, 64, 127
2, 152480, Control_c, 0, 64, 127
2, 152480, Note_on_c, 0, 72, 49
2, 152560, Note_off_c, 0, 72, 0
2, 152560, Note_on_c, 0, 84, 49
2, 152640, Note_off_c, 0, 84, 0
2, 152720, Control_c, 0, 64, 127
2, 152720, Note_on_c, 0, 72, 48
2, 152800, Note_off_c, 0, 72, 0
2, 152800, Note_on_c, 0, 84, 49
2, 152880, Control_c, 0, 64, 0
2, 152880, Note_off_c, 0, 84, 0
2, 152960, Control_c, 0, 64, 127
2, 152960, Note_on_c, 0, 69, 50
2, 153040, Note_off_c, 0, 69, 0
2, 153040, Note_on_c, 0, 81, 51
2, 153120, Control_c, 0, 64, 0
2, 153120, Note_off_c, 0, 81, 0
2, 153200, Control_c, 0, 64, 127
2, 153200, Note_on_c, 0, 70, 52
2, 153280, Note_off_c, 0, 70, 0
2, 153280, Note_on_c, 0, 82, 52
2, 153360, Control_c, 0, 64, 0
2, 153360, Note_off_c, 0, 82, 0
2, 153440, Control_c, 0, 64, 127
2, 153440, Note_on_c, 0, 74, 54
2, 153520, Note_off_c, 0, 74, 0
2, 153520, Note_on_c, 0, 86, 54
2, 153600, Control_c, 0, 64, 0
2, 153600, Note_off_c, 0, 86, 0
2, 153680, Control_c, 0, 64, 127
2, 153680, Note_on_c, 0, 74, 55
2, 153760, Note_off_c, 0, 74, 0
2, 153760, Note_on_c, 0, 86, 56
2, 153840, Control_c, 0, 64, 0
2, 153840, Note_off_c, 0, 86, 0
2, 153920, Control_c, 0, 64, 127
2, 153920, Note_on_c, 0, 71, 57
2, 154000, Note_off_c, 0, 71, 0
2, 154000, Note_on_c, 0, 83, 58
2, 154080, Control_c, 0, 64, 0
2, 154080, Note_off_c, 0, 83, 0
2, 154160, Control_c, 0, 64, 127
2, 154160, Note_on_c, 0, 72, 59
2, 154240, Note_off_c, 0, 72, 0
2, 154240, Note_on_c, 0, 84, 59
2, 154320, Control_c, 0, 64, 0
2, 154320, Note_off_c, 0, 84, 0
2, 154400, Control_c, 0, 64, 127
2, 154400, Note_on_c, 0, 75, 61
2, 154480, Note_off_c, 0, 75, 0
2, 154480, Note_on_c, 0, 87, 61
2, 154560, Control_c, 0, 64, 0
2, 154560, Note_off_c, 0, 87, 0
2, 154640, Note_on_c, 0, 86, 55
2, 154720, Note_off_c, 0, 86, 0
2, 154720, Note_on_c, 0, 87, 54
2, 154800, Note_off_c, 0, 87, 0
2, 154800, Note_on_c, 0, 89, 54
2, 154880, Note_off_c, 0, 89, 0
2, 154880, Note_on_c, 0, 87, 53
2, 154960, Note_off_c, 0, 87, 0
2, 154960, Note_on_c, 0, 86, 53
2, 155040, Note_off_c, 0, 86, 0
2, 155120, Note_on_c, 0, 86, 52
2, 155200, Note_off_c, 0, 86, 0
2, 155200, Note_on_c, 0, 87, 51
2, 155280, Note_off_c, 0, 87, 0
2, 155280, Note_on_c, 0, 89, 51
2, 155360, Note_off_c, 0, 89, 0
2, 155360, Note_on_c, 0, 87, 50
2, 155440, Note_off_c, 0, 87, 0
2, 155440, Note_on_c, 0, 86, 50
2, 155520, Note_off_c, 0, 86, 0
2, 155600, Note_on_c, 0, 86, 49
2, 155680, Note_off_c, 0, 86, 0
2, 155680, Note_on_c, 0, 87, 48
2, 155760, Note_off_c, 0, 87, 0
2, 155760, Note_on_c, 0, 89, 48
2, 155840, Note_off_c, 0, 89, 0
2, 155840, Note_on_c, 0, 87, 47
2, 155920, Note_off_c, 0, 87, 0
2, 155920, Note_on_c, 0, 86, 47
2, 156000, Note_off_c, 0, 86, 0
2, 156000, Note_on_c, 0, 88, 46
2, 156120, Note_off_c, 0, 88, 0
2, 156120, Note_on_c, 0, 89, 47
2, 156240, Note_off_c, 0, 89, 0
2, 156240, Note_on_c, 0, 86, 47
2, 156360, Note_off_c, 0, 86, 0
2, 156360, Note_on_c, 0, 82, 47
2, 156480, Note_off_c, 0, 82, 0
2, 156560, Note_on_c, 0, 81, 47
2, 156640, Note_off_c, 0, 81, 0
2, 156640, Note_on_c, 0, 82, 47
2, 156720, Note_off_c, 0, 82, 0
2, 156720, Note_on_c, 0, 84, 47
2, 156800, Note_off_c, 0, 84, 0
2, 156800, Note_on_c, 0, 82, 47
2, 156880, Note_off_c, 0, 82, 0
2, 156880, Note_on_c, 0, 81, 47
2, 156960, Note_off_c, 0, 81, 0
2, 157040, Note_on_c, 0, 81, 47
2, 157120, Note_off_c, 0, 81, 0
2, 157120, Note_on_c, 0, 82, 47
2, 157200, Note_off_c, 0, 82, 0
2, 157200, Note_on_c, 0, 84, 47
2, 157280, Note_off_c, 0, 84, 0
2, 157280, Note_on_c, 0, 82, 47
2, 157360, Note_off_c, 0, 82, 0
2, 157360, Note_on_c, 0, 81, 47
2, 157440, Note_off_c, 0, 81, 0
2, 157520, Note_on_c, 0, 81, 47
2, 157600, Note_off_c, 0, 81, 0
2, 157600, Note_on_c, 0, 82, 47
2, 157680, Note_off_c, 0, 82, 0
2, 157680, Note_on_c, 0, 84, 47
2, 157760, Note_off_c, 0, 84, 0
2, 157760, Note_on_c, 0, 82, 47
2, 157840, Note_off_c, 0, 82, 0
2, 157840, Note_on_c, 0, 81, 47
2, 157920, Note_off_c, 0, 81, 0
2, 157920, Note_on_c, 0, 87, 47
2, 158040, Note_off_c, 0, 87, 0
2, 158040, Note_on_c, 0, 84, 47
2, 158160, Note_off_c, 0, 84, 0
2, 158160, Note_on_c, 0, 81, 47
2, 158280, Note_off_c, 0, 81, 0
2, 158280, Note_on_c, 0, 75, 47
2, 158400, Note_off_c, 0, 75, 0
2, 158400, Note_on_c, 0, 82, 49
2, 158520, Note_off_c, 0, 82, 0
2, 158880, Note_on_c, 0, 77, 60
2, 159000, Note_off_c, 0, 77, 0
2, 159360, Note_on_c, 0, 73, 70
2, 159480, Note_off_c, 0, 73, 0
2, 160320, Note_on_c, 0, 75, 88
2, 160440, Note_off_c, 0, 75, 0
2, 160800, Note_on_c, 0, 72, 80
2, 160920, Note_off_c, 0, 72, 0
2, 161280, Note_on_c, 0, 69, 71
2, 161400, Note_off_c, 0, 69, 0
2, 162320, Note_on_c, 0, 70, 40
2, 162400, Note_off_c, 0, 70, 0
2, 162400, Note_on_c, 0, 72, 40
2, 162480, Note_off_c, 0, 72, 0
2, 162480, Note_on_c, 0, 73, 40
2, 162560, Note_off_c, 0, 73, 0
2, 162560, Note_on_c, 0, 72, 40
2, 162640, Note_off_c, 0, 72, 0
2, 162640, Note_on_c, 0, 70, 40
2, 162720, Note_off_c, 0, 70, 0
2, 162800, Note_on_c, 0, 70, 41
2, 162880, Note_off_c, 0, 70, 0
2, 162880, Note_on_c, 0, 72, 41
2, 162960, Note_off_c, 0, 72, 0
2, 162960, Note_on_c, 0, 73, 41
2, 163040, Note_off_c, 0, 73, 0
2, 163040, Note_on_c, 0, 72, 41
2, 163120, Note_off_c, 0, 72, 0
2, 163120, Note_on_c, 0, 70, 41
2, 163200, Note_off_c, 0, 70, 0
2, 163280, Note_on_c, 0, 70, 42
2, 163360, Note_off_c, 0, 70, 0
2, 163360, Note_on_c, 0, 72, 42
2, 163440, Note_off_c, 0, 72, 0
2, 163440, Note_on_c, 0, 73, 42
2, 163520, Note_off_c, 0, 73, 0
2, 163520, Note_on_c, 0, 72, 42
2, 163600, Note_off_c, 0, 72, 0
2, 163600, Note_on_c, 0, 70, 42
2, 163680, Note_off_c, 0, 70, 0
2, 163680, Note_on_c, 0, 82, 43
2, 163800, Note_off_c, 0, 82, 0
2, 163800, Note_on_c, 0, 77, 43
2, 163920, Note_off_c, 0, 77, 0
2, 163920, Note_on_c, 0, 85, 43
2, 164040, Note_off_c, 0, 85, 0
2, 164040, Note_on_c, 0, 77, 43
2, 164160, Note_off_c, 0, 77, 0
2, 164240, Note_on_c, 0, 76, 44
2, 164320, Note_off_c, 0, 76, 0
2, 164320, Note_on_c, 0, 77, 44
2, 164400, Note_off_c, 0, 77, 0
2, 164400, Note_on_c, 0, 79, 44
2, 164480, Note_off_c, 0, 79, 0
2, 164480, Note_on_c, 0, 77, 44
2, 164560, Note_off_c, 0, 77, 0
2, 164560, Note_on_c, 0, 76, 44
2, 164640, Note_off_c, 0, 76, 0
2, 164720, Note_on_c, 0, 76, 45
2, 164800, Note_off_c, 0, 76, 0
2, 164800, Note_on_c, 0, 77, 45
2, 164880, Note_off_c, 0, 77, 0
2, 164880, Note_on_c, 0, 79, 45
2, 164960, Note_off_c, 0, 79, 0
2, 164960, Note_on_c, 0, 77, 45
2, 165040, Note_off_c, 0, 77, 0
2, 165040, Note_on_c, 0, 76, 45
2, 165120, Note_off_c, 0, 76, 0
2, 165200, Note_on_c, 0, 76, 46
2, 165280, Note_off_c, 0, 76, 0
2, 165280, Note_on_c, 0, 77, 46
2, 165360, Note_off_c, 0, 77, 0
2, 165360, Note_on_c, 0, 79, 46
2, 165440, Note_off_c, 0, 79, 0
2, 165440, Note_on_c, 0, 77, 46
2, 165520, Note_off_c, 0, 77, 0
2, 165520, Note_on_c, 0, 76, 46
2, 165600, Note_off_c, 0, 76, 0
2, 165600, Note_on_c, 0, 82, 46
2, 165720, Note_off_c, 0, 82, 0
2, 165720, Note_on_c, 0, 79, 47
2, 165840, Note_off_c, 0, 79, 0
2, 165840, Note_on_c, 0, 76, 47
2, 165960, Note_off_c, 0, 76, 0
2, 165960, Note_on_c, 0, 70, 47
2, 166080, Note_off_c, 0, 70, 0
2, 166160, Note_on_c, 0, 68, 47
2, 166240, Note_off_c, 0, 68, 0
2, 166240, Note_on_c, 0, 70, 48
2, 166320, Note_off_c, 0, 70, 0
2, 166320, Note_on_c, 0, 72, 49
2, 166400, Note_off_c, 0, 72, 0
2, 166400, Note_on_c, 0, 70, 50
2, 166480, Note_off_c, 0, 70, 0
2, 166480, Note_on_c, 0, 68, 52
2, 166560, Note_off_c, 0, 68, 0
2, 166640, Note_on_c, 0, 68, 54
2, 166720, Note_off_c, 0, 68, 0
2, 166720, Note_on_c, 0, 70, 55
2, 166800, Note_off_c, 0, 70, 0
2, 166800, Note_on_c, 0, 72, 56
2, 166880, Note_off_c, 0, 72, 0
2, 166880, Note_on_c, 0, 70, 57
2, 166960, Note_off_c, 0, 70, 0
2, 166960, Note_on_c, 0, 68, 58
2, 167040, Note_off_c, 0, 68, 0
2, 167120, Note_on_c, 0, 68, 61
2, 167200, Note_off_c, 0, 68, 0
2, 167200, Note_on_c, 0, 70, 62
2, 167280, Note_off_c, 0, 70, 0
2, 167280, Note_on_c, 0, 72, 63
2, 167360, Note_off_c, 0, 72, 0
2, 167360, Note_on_c, 0, 70, 64
2, 167440, Note_off_c, 0, 70, 0
2, 167440, Note_on_c, 0, 68, 65
2, 167520, Note_off_c, 0, 68, 0
2, 167520, Note_on_c, 0, 77, 66
2, 167640, Note_off_c, 0, 77, 0
2, 167640, Note_on_c, 0, 68, 68
2, 167760, Note_off_c, 0, 68, 0
2, 167760, Note_on_c, 0, 80, 70
2, 167880, Note_off_c, 0, 80, 0
2, 167880, Note_on_c, 0, 68, 71
2, 168000, Note_off_c, 0, 68, 0
2, 168080, Note_on_c, 0, 77, 78
2, 168160, Note_off_c, 0, 77, 0
2, 168160, Note_on_c, 0, 79, 78
2, 168240, Note_off_c, 0, 79, 0
2, 168240, Note_on_c, 0, 80, 79
2, 168320, Note_off_c, 0, 80, 0
2, 168320, Note_on_c, 0, 79, 79
2, 168400, Note_off_c, 0, 79, 0
2, 168400, Note_on_c, 0, 77, 80
2, 168480, Note_off_c, 0, 77, 0
2, 168560, Note_on_c, 0, 77, 80
2, 168640, Note_off_c, 0, 77, 0
2, 168640, Note_on_c, 0, 79, 81
2, 168720, Note_off_c, 0, 79, 0
2, 168720, Note_on_c, 0, 80, 81
2, 168800, Note_off_c, 0, 80, 0
2, 168800, Note_on_c, 0, 79, 82
2, 168880, Note_off_c, 0, 79, 0
2, 168880, Note_on_c, 0, 77, 82
2, 168960, Note_off_c, 0, 77, 0
2, 169040, Note_on_c, 0, 77, 83
2, 169120, Note_off_c, 0, 77, 0
2, 169120, Note_on_c, 0, 79, 83
2, 169200, Note_off_c, 0, 79, 0
2, 169200, Note_on_c, 0, 80, 84
2, 169280, Note_off_c, 0, 80, 0
2, 169280, Note_on_c, 0, 79, 84
2, 169360, Note_off_c, 0, 79, 0
2, 169360, Note_on_c, 0, 77, 85
2, 169440, Note_off_c, 0, 77, 0
2, 169440, Note_on_c, 0, 80, 85
2, 169560, Note_off_c, 0, 80, 0
2, 169560, Note_on_c, 0, 77, 86
2, 169680, Note_off_c, 0, 77, 0
2, 169680, Note_on_c, 0, 89, 86
2, 169800, Note_off_c, 0, 89, 0
2, 169800, Note_on_c, 0, 77, 87
2, 169920, Note_off_c, 0, 77, 0
2, 170000, Note_on_c, 0, 77, 90
2, 170080, Note_off_c, 0, 77, 0
2, 170080, Note_on_c, 0, 79, 90
2, 170160, Note_off_c, 0, 79, 0
2, 170160, Note_on_c, 0, 80, 90
2, 170240, Note_off_c, 0, 80, 0
2, 170240, Note_on_c, 0, 79, 90
2, 170320, Note_off_c, 0, 79, 0
2, 170320, Note_on_c, 0, 77, 91
2, 170400, Note_off_c, 0, 77, 0
2, 170400, Note_on_c, 0, 86, 91
2, 170520, Note_off_c, 0, 86, 0
2, 170520, Note_on_c, 0, 77, 91
2, 170640, Note_off_c, 0, 77, 0
2, 170640, Note_on_c, 0, 86, 92
2, 170760, Note_off_c, 0, 86, 0
2, 170760, Note_on_c, 0, 77, 92
2, 170880, Note_off_c, 0, 77, 0
2, 170960, Note_on_c, 0, 77, 92
2, 171040, Note_off_c, 0, 77, 0
2, 171040, Note_on_c, 0, 79, 93
2, 171120, Note_off_c, 0, 79, 0
2, 171120, Note_on_c, 0, 80, 93
2, 171200, Note_off_c, 0, 80, 0
2, 171200, Note_on_c, 0, 79, 93
2, 171280, Note_off_c, 0, 79, 0
2, 171280, Note_on_c, 0, 77, 93
2, 171360, Note_off_c, 0, 77, 0
2, 171360, Note_on_c, 0, 86, 94
2, 171480, Note_off_c, 0, 86, 0
2, 171480, Note_on_c, 0, 77, 94
2, 171600, Note_off_c, 0, 77, 0
2, 171600, Note_on_c, 0, 86, 94
2, 171720, Note_off_c, 0, 86, 0
2, 171720, Note_on_c, 0, 77, 95
2, 171840, Note_off_c, 0, 77, 0
2, 171920, Note_on_c, 0, 77, 95
2, 172000, Note_off_c, 0, 77, 0
2, 172000, Note_on_c, 0, 79, 95
2, 172080, Note_off_c, 0, 79, 0
2, 172080, Note_on_c, 0, 81, 96
2, 172160, Note_off_c, 0, 81, 0
2, 172160, Note_on_c, 0, 79, 96
2, 172240, Note_off_c, 0, 79, 0
2, 172240, Note_on_c, 0, 77, 96
2, 172320, Note_off_c, 0, 77, 0
2, 172320, Note_on_c, 0, 86, 96
2, 172440, Note_off_c, 0, 86, 0
2, 172440, Note_on_c, 0, 77, 97
2, 172560, Note_off_c, 0, 77, 0
2, 172560, Note_on_c, 0, 86, 97
2, 172680, Note_off_c, 0, 86, 0
2, 172680, Note_on_c, 0, 77, 97
2, 172800, Note_off_c, 0, 77, 0
2, 172800, Note_on_c, 0, 86, 90
2, 172920, Note_off_c, 0, 86, 0
2, 172920, Note_on_c, 0, 77, 87
2, 173040, Note_off_c, 0, 77, 0
2, 173040, Note_on_c, 0, 86, 84
2, 173160, Note_off_c, 0, 86, 0
2, 173160, Note_on_c, 0, 77, 82
2, 173280, Note_off_c, 0, 77, 0
2, 173280, Note_on_c, 0, 86, 79
2, 173400, Note_off_c, 0, 86, 0
2, 173400, Note_on_c, 0, 77, 76
2, 173520, Note_off_c, 0, 77, 0
2, 173520, Note_on_c, 0, 86, 73
2, 173640, Note_off_c, 0, 86, 0
2, 173640, Note_on_c, 0, 77, 71
2, 173760, Note_off_c, 0, 77, 0
2, 173880, Note_on_c, 0, 76, 65
2, 174000, Note_off_c, 0, 76, 0
2, 174000, Note_on_c, 0, 86, 62
2, 174120, Note_off_c, 0, 86, 0
2, 174120, Note_on_c, 0, 76, 60
2, 174240, Note_off_c, 0, 76, 0
2, 174240, Note_on_c, 0, 86, 57
2, 174360, Note_off_c, 0, 86, 0
2, 174360, Note_on_c, 0, 76, 54
2, 174480, Note_off_c, 0, 76, 0
2, 174480, Note_on_c, 0, 86, 52
2, 174600, Note_off_c, 0, 86, 0
2, 174600, Note_on_c, 0, 76, 49
2, 174720, Note_off_c, 0, 76, 0
2, 174840, Note_on_c, 0, 76, 43
2, 174960, Note_off_c, 0, 76, 0
2, 174960, Note_on_c, 0, 85, 41
2, 175080, Note_off_c, 0, 85, 0
2, 175080, Note_on_c, 0, 76, 38
2, 175200, Note_off_c, 0, 76, 0
2, 175200, Note_on_c, 0, 85, 35
2, 175320, Note_off_c, 0, 85, 0
2, 175320, Note_on_c, 0, 76, 32
2, 175440, Note_off_c, 0, 76, 0
2, 175440, Note_on_c, 0, 85, 30
2, 175560, Note_off_c, 0, 85, 0
2, 175560, Note_on_c, 0, 76, 27
2, 175800, Note_off_c, 0, 76, 0
2, 176400, Note_on_c, 0, 66, 47
2, 176520, Note_off_c, 0, 66, 0
2, 176640, Note_on_c, 0, 69, 47
2, 176832, Note_off_c, 0, 69, 0
2, 177360, Note_on_c, 0, 81, 45
2, 177440, Note_off_c, 0, 81, 0
2, 177440, Note_on_c, 0, 80, 45
2, 177520, Note_off_c, 0, 80, 0
2, 177520, Note_on_c, 0, 83, 44
2, 177600, Note_off_c, 0, 83, 0
2, 177600, Note_on_c, 0, 81, 44
2, 177756, Note_off_c, 0, 81, 0
2, 178320, Note_on_c, 0, 66, 42
2, 178440, Note_off_c, 0, 66, 0
2, 178560, Note_on_c, 0, 67, 45
2, 178752, Note_off_c, 0, 67, 0
2, 179280, Note_on_c, 0, 79, 41
2, 179360, Note_off_c, 0, 79, 0
2, 179360, Note_on_c, 0, 78, 41
2, 179440, Note_off_c, 0, 78, 0
2, 179440, Note_on_c, 0, 81, 40
2, 179520, Note_off_c, 0, 81, 0
2, 179520, Note_on_c, 0, 79, 40
2, 179712, Note_off_c, 0, 79, 0
2, 180240, Note_on_c, 0, 67, 42
2, 180396, Note_off_c, 0, 67, 0
2, 180480, Note_on_c, 0, 66, 44
2, 180660, Note_off_c, 0, 66, 0
2, 180660, Note_on_c, 0, 69, 45
2, 180720, Note_off_c, 0, 69, 0
2, 180720, Note_on_c, 0, 74, 46
2, 181200, Note_off_c, 0, 74, 0
2, 181200, Note_on_c, 0, 73, 49
2, 181440, Note_off_c, 0, 73, 0
2, 181440, Note_on_c, 0, 74, 51
2, 181680, Note_off_c, 0, 74, 0
2, 181680, Note_on_c, 0, 78, 53
2, 182160, Note_off_c, 0, 78, 0
2, 182160, Note_on_c, 0, 76, 56
2, 182640, Note_off_c, 0, 76, 0
2, 182640, Note_on_c, 0, 78, 64
2, 183120, Note_off_c, 0, 78, 0
2, 183120, Note_on_c, 0, 79, 56
2, 183240, Note_off_c, 0, 79, 0
2, 183240, Note_on_c, 0, 81, 56
2, 183360, Note_off_c, 0, 81, 0
2, 183360, Note_on_c, 0, 81, 55
2, 183600, Note_off_c, 0, 81, 0
2, 183600, Note_on_c, 0, 79, 54
2, 183720, Note_off_c, 0, 79, 0
2, 184320, Note_on_c, 0, 79, 52
2, 184360, Note_off_c, 0, 79, 0
2, 184360, Note_on_c, 0, 81, 52
2, 184400, Note_off_c, 0, 81, 0
2, 184400, Note_on_c, 0, 79, 51
2, 184440, Note_off_c, 0, 79, 0
2, 184440, Note_on_c, 0, 78, 51
2, 184500, Note_off_c, 0, 78, 0
2, 184500, Note_on_c, 0, 79, 51
2, 184560, Note_off_c, 0, 79, 0
2, 184560, Note_on_c, 0, 83, 51
2, 185040, Note_off_c, 0, 83, 0
2, 185040, Note_on_c, 0, 81, 49
2, 185160, Note_off_c, 0, 81, 0
2, 185160, Note_on_c, 0, 79, 49
2, 185280, Note_off_c, 0, 79, 0
2, 185280, Note_on_c, 0, 78, 48
2, 185320, Note_off_c, 0, 78, 0
2, 185320, Note_on_c, 0, 79, 48
2, 185360, Note_off_c, 0, 79, 0
2, 185360, Note_on_c, 0, 81, 48
2, 185400, Note_off_c, 0, 81, 0
2, 185400, Note_on_c, 0, 79, 48
2, 185520, Note_off_c, 0, 79, 0
2, 185520, Note_on_c, 0, 78, 47
2, 185940, Note_off_c, 0, 78, 0
2, 185940, Note_on_c, 0, 76, 46
2, 186000, Note_off_c, 0, 76, 0
2, 186000, Note_on_c, 0, 79, 45
2, 186180, Note_off_c, 0, 79, 0
2, 186180, Note_on_c, 0, 76, 45
2, 186240, Note_off_c, 0, 76, 0
2, 186240, Note_on_c, 0, 76, 45
2, 186480, Note_off_c, 0, 76, 0
2, 186480, Note_on_c, 0, 74, 44
2, 186900, Note_off_c, 0, 74, 0
2, 186900, Note_on_c, 0, 73, 42
2, 186960, Note_off_c, 0, 73, 0
2, 186960, Note_on_c, 0, 76, 42
2, 187140, Note_off_c, 0, 76, 0
2, 187140, Note_on_c, 0, 73, 41
2, 187200, Note_off_c, 0, 73, 0
2, 187200, Note_on_c, 0, 74, 41
2, 187560, Note_off_c, 0, 74, 0
2, 188880, Note_on_c, 0, 69, 39
2, 189000, Note_off_c, 0, 69, 0
2, 189120, Note_on_c, 0, 70, 39
2, 189312, Note_off_c, 0, 70, 0
2, 189840, Note_on_c, 0, 82, 37
2, 189920, Note_off_c, 0, 82, 0
2, 189920, Note_on_c, 0, 81, 37
2, 190000, Note_off_c, 0, 81, 0
2, 190000, Note_on_c, 0, 84, 37
2, 190080, Note_off_c, 0, 84, 0
2, 190080, Note_on_c, 0, 82, 37
2, 190272, Note_off_c, 0, 82, 0
2, 190800, Note_on_c, 0, 70, 35
2, 190920, Note_off_c, 0, 70, 0
2, 191040, Note_on_c, 0, 70, 35
2, 191232, Note_off_c, 0, 70, 0
2, 191760, Note_on_c, 0, 82, 33
2, 191840, Note_off_c, 0, 82, 0
2, 191840, Note_on_c, 0, 81, 33
2, 191920, Note_off_c, 0, 81, 0
2, 191920, Note_on_c, 0, 84, 33
2, 192000, Note_off_c, 0, 84, 0
2, 192000, Note_on_c, 0, 82, 32
2, 192192, Note_off_c, 0, 82, 0
2, 192720, Note_on_c, 0, 82, 31
2, 192800, Note_off_c, 0, 82, 0
2, 192800, Note_on_c, 0, 81, 31
2, 192880, Note_off_c, 0, 81, 0
2, 192880, Note_on_c, 0, 84, 30
2, 192960, Note_off_c, 0, 84, 0
2, 192960, Note_on_c, 0, 82, 30
2, 193080, Note_off_c, 0, 82, 0
2, 193200, Note_on_c, 0, 82, 30
2, 193280, Note_off_c, 0, 82, 0
2, 193280, Note_on_c, 0, 81, 30
2, 193360, Note_off_c, 0, 81, 0
2, 193360, Note_on_c, 0, 84, 29
2, 193440, Note_off_c, 0, 84, 0
2, 193440, Note_on_c, 0, 82, 29
2, 193560, Note_off_c, 0, 82, 0
2, 193680, Note_on_c, 0, 82, 29
2, 193760, Note_off_c, 0, 82, 0
2, 193760, Note_on_c, 0, 81, 28
2, 193840, Note_off_c, 0, 81, 0
2, 193840, Note_on_c, 0, 84, 28
2, 193920, Note_off_c, 0, 84, 0
2, 193920, Note_on_c, 0, 82, 28
2, 194160, Note_off_c, 0, 82, 0
2, 194640, Note_on_c, 0, 70, 40
2, 194796, Note_off_c, 0, 70, 0
2, 194880, Note_on_c, 0, 69, 43
2, 195060, Note_off_c, 0, 69, 0
2, 195060, Note_on_c, 0, 72, 44
2, 195120, Note_off_c, 0, 72, 0
2, 195120, Note_on_c, 0, 77, 45
2, 195600, Note_off_c, 0, 77, 0
2, 195600, Note_on_c, 0, 76, 49
2, 195840, Note_off_c, 0, 76, 0
2, 195840, Note_on_c, 0, 77, 51
2, 196080, Note_off_c, 0, 77, 0
2, 196080, Note_on_c, 0, 81, 53
2, 196560, Note_off_c, 0, 81, 0
2, 196560, Note_on_c, 0, 79, 57
2, 197040, Note_off_c, 0, 79, 0
2, 197040, Note_on_c, 0, 81, 66
2, 197520, Note_off_c, 0, 81, 0
2, 197520, Note_on_c, 0, 82, 62
2, 197640, Note_off_c, 0, 82, 0
2, 197640, Note_on_c, 0, 84, 61
2, 197760, Note_off_c, 0, 84, 0
2, 197760, Note_on_c, 0, 84, 59
2, 198000, Note_off_c, 0, 84, 0
2, 198000, Note_on_c, 0, 82, 56
2, 198120, Note_off_c, 0, 82, 0
2, 198720, Note_on_c, 0, 82, 54
2, 198760, Note_off_c, 0, 82, 0
2, 198760, Note_on_c, 0, 84, 54
2, 198800, Note_off_c, 0, 84, 0
2, 198800, Note_on_c, 0, 82, 54
2, 198840, Note_off_c, 0, 82, 0
2, 198840, Note_on_c, 0, 81, 54
2, 198900, Note_off_c, 0, 81, 0
2, 198900, Note_on_c, 0, 82, 54
2, 198960, Note_off_c, 0, 82, 0
2, 198960, Note_on_c, 0, 86, 54
2, 199440, Note_off_c, 0, 86, 0
2, 199440, Note_on_c, 0, 84, 52
2, 199560, Note_off_c, 0, 84, 0
2, 199560, Note_on_c, 0, 82, 51
2, 199680, Note_off_c, 0, 82, 0
2, 199680, Note_on_c, 0, 81, 51
2, 199720, Note_off_c, 0, 81, 0
2, 199720, Note_on_c, 0, 82, 51
2, 199760, Note_off_c, 0, 82, 0
2, 199760, Note_on_c, 0, 84, 51
2, 199800, Note_off_c, 0, 84, 0
2, 199800, Note_on_c, 0, 82, 51
2, 199920, Note_off_c, 0, 82, 0
2, 199920, Note_on_c, 0, 81, 50
2, 200340, Note_off_c, 0, 81, 0
2, 200340, Note_on_c, 0, 79, 49
2, 200400, Note_off_c, 0, 79, 0
2, 200400, Note_on_c, 0, 82, 48
2, 200580, Note_off_c, 0, 82, 0
2, 200580, Note_on_c, 0, 79, 48
2, 200640, Note_off_c, 0, 79, 0
2, 200640, Note_on_c, 0, 79, 47
2, 200880, Note_off_c, 0, 79, 0
2, 200880, Note_on_c, 0, 77, 47
2, 201300, Note_off_c, 0, 77, 0
2, 201300, Note_on_c, 0, 76, 45
2, 201360, Note_off_c, 0, 76, 0
2, 201360, Note_on_c, 0, 79, 45
2, 201540, Note_off_c, 0, 79, 0
2, 201540, Note_on_c, 0, 76, 44
2, 201600, Note_off_c, 0, 76, 0
2, 201600, Note_on_c, 0, 77, 44
2, 201960, Note_off_c, 0, 77, 0
2, 202320, Note_on_c, 0, 53, 49
2, 202320, Note_on_c, 0, 65, 49
2, 202560, Note_off_c, 0, 65, 0
2, 202560, Note_off_c, 0, 53, 0
2, 202560, Note_on_c, 0, 57, 51
2, 202560, Note_on_c, 0, 69, 51
2, 203040, Note_off_c, 0, 69, 0
2, 203040, Note_off_c, 0, 57, 0
2, 203040, Note_on_c, 0, 60, 54
2, 203040, Note_on_c, 0, 72, 54
2, 203520, Note_off_c, 0, 72, 0
2, 203520, Note_off_c, 0, 60, 0
2, 203520, Note_on_c, 0, 77, 58
2, 203520, Note_on_c, 0, 65, 58
2, 204240, Note_off_c, 0, 65, 0
2, 204240, Note_off_c, 0, 77, 0
2, 204240, Note_on_c, 0, 69, 64
2, 204240, Note_on_c, 0, 81, 64
2, 204480, Note_off_c, 0, 81, 0
2, 204480, Note_off_c, 0, 69, 0
2, 204480, Note_on_c, 0, 72, 66
2, 204480, Note_on_c, 0, 84, 66
2, 204720, Note_off_c, 0, 84, 0
2, 204720, Note_off_c, 0, 72, 0
2, 204720, Note_on_c, 0, 77, 76
2, 204720, Note_on_c, 0, 89, 76
2, 205200, Note_off_c, 0, 89, 0
2, 205200, Note_off_c, 0, 77, 0
2, 205200, Note_on_c, 0, 89, 65
2, 205200, Note_on_c, 0, 77, 65
2, 205440, Note_off_c, 0, 77, 0
2, 205440, Note_off_c, 0, 89, 0
2, 205440, Note_on_c, 0, 77, 62
2, 205440, Note_on_c, 0, 89, 62
2, 205920, Note_off_c, 0, 89, 0
2, 205920, Note_off_c, 0, 77, 0
2, 205920, Note_on_c, 0, 76, 57
2, 205920, Note_on_c, 0, 88, 57
2, 206160, Note_off_c, 0, 88, 0
2, 206160, Note_off_c, 0, 76, 0
2, 206400, Note_on_c, 0, 52, 45
2, 206400, Note_on_c, 0, 64, 45
2, 206880, Note_off_c, 0, 64, 0
2, 206880, Note_off_c, 0, 52, 0
2, 206880, Note_on_c, 0, 55, 48
2, 206880, Note_on_c, 0, 67, 48
2, 207360, Note_off_c, 0, 67, 0
2, 207360, Note_off_c, 0, 55, 0
2, 207360, Note_on_c, 0, 58, 52
2, 207360, Note_on_c, 0, 70, 52
2, 208080, Note_off_c, 0, 70, 0
2, 208080, Note_off_c, 0, 58, 0
2, 208080, Note_on_c, 0, 64, 57
2, 208080, Note_on_c, 0, 76, 57
2, 208320, Note_off_c, 0, 76, 0
2, 208320, Note_off_c, 0, 64, 0
2, 208320, Note_on_c, 0, 67, 59
2, 208320, Note_on_c, 0, 79, 59
2, 208560, Note_off_c, 0, 79, 0
2, 208560, Note_off_c, 0, 67, 0
2, 208560, Note_on_c, 0, 70, 68
2, 208560, Note_on_c, 0, 82, 68
2, 209040, Note_off_c, 0, 82, 0
2, 209040, Note_off_c, 0, 70, 0
2, 209040, Note_on_c, 0, 69, 59
2, 209040, Note_on_c, 0, 81, 59
2, 209280, Note_off_c, 0, 81, 0
2, 209280, Note_off_c, 0, 69, 0
2, 209280, Note_on_c, 0, 67, 56
2, 209280, Note_on_c, 0, 79, 56
2, 209760, Note_off_c, 0, 79, 0
2, 209760, Note_off_c, 0, 67, 0
2, 209760, Note_on_c, 0, 65, 51
2, 209760, Note_on_c, 0, 77, 51
2, 210000, Note_off_c, 0, 77, 0
2, 210000, Note_off_c, 0, 65, 0
2, 210240, Note_on_c, 0, 65, 42
2, 210360, Note_off_c, 0, 65, 0
2, 210360, Note_on_c, 0, 68, 43
2, 210480, Note_off_c, 0, 68, 0
2, 210480, Note_on_c, 0, 60, 44
2, 210600, Note_off_c, 0, 60, 0
2, 210600, Note_on_c, 0, 64, 46
2, 210720, Note_off_c, 0, 64, 0
2, 210720, Note_on_c, 0, 65, 47
2, 210840, Note_off_c, 0, 65, 0
2, 210840, Note_on_c, 0, 68, 48
2, 210960, Note_off_c, 0, 68, 0
2, 210960, Note_on_c, 0, 60, 49
2, 211080, Note_off_c, 0, 60, 0
2, 211080, Note_on_c, 0, 64, 50
2, 211200, Note_off_c, 0, 64, 0
2, 211200, Note_on_c, 0, 65, 53
2, 211320, Note_off_c, 0, 65, 0
2, 211320, Note_on_c, 0, 68, 51
2, 211440, Note_off_c, 0, 68, 0
2, 211440, Note_on_c, 0, 60, 50
2, 211560, Note_off_c, 0, 60, 0
2, 211560, Note_on_c, 0, 64, 50
2, 211680, Note_off_c, 0, 64, 0
2, 211680, Note_on_c, 0, 65, 49
2, 211800, Note_off_c, 0, 65, 0
2, 211800, Note_on_c, 0, 68, 48
2, 211920, Note_off_c, 0, 68, 0
2, 211920, Note_on_c, 0, 60, 48
2, 212040, Note_off_c, 0, 60, 0
2, 212040, Note_on_c, 0, 64, 47
2, 212160, Note_off_c, 0, 64, 0
2, 212160, Note_on_c, 0, 65, 46
2, 212280, Note_off_c, 0, 65, 0
2, 212280, Note_on_c, 0, 68, 45
2, 212400, Note_off_c, 0, 68, 0
2, 212400, Note_on_c, 0, 60, 45
2, 212520, Note_off_c, 0, 60, 0
2, 212520, Note_on_c, 0, 64, 44
2, 212640, Note_off_c, 0, 64, 0
2, 212640, Note_on_c, 0, 65, 43
2, 212760, Note_off_c, 0, 65, 0
2, 212760, Note_on_c, 0, 67, 43
2, 212880, Note_off_c, 0, 67, 0
2, 212880, Note_on_c, 0, 68, 42
2, 213000, Note_off_c, 0, 68, 0
2, 213000, Note_on_c, 0, 65, 41
2, 213120, Note_off_c, 0, 65, 0
2, 213120, Note_on_c, 0, 67, 41
2, 213240, Note_off_c, 0, 67, 0
2, 213240, Note_on_c, 0, 70, 40
2, 213360, Note_off_c, 0, 70, 0
2, 213360, Note_on_c, 0, 63, 39
2, 213480, Note_off_c, 0, 63, 0
2, 213480, Note_on_c, 0, 66, 38
2, 213600, Note_off_c, 0, 66, 0
2, 213600, Note_on_c, 0, 67, 38
2, 213720, Note_off_c, 0, 67, 0
2, 213720, Note_on_c, 0, 70, 37
2, 213840, Note_off_c, 0, 70, 0
2, 213840, Note_on_c, 0, 63, 36
2, 213960, Note_off_c, 0, 63, 0
2, 213960, Note_on_c, 0, 66, 36
2, 214080, Note_off_c, 0, 66, 0
2, 214080, Note_on_c, 0, 67, 38
2, 214200, Note_off_c, 0, 67, 0
2, 214200, Note_on_c, 0, 70, 39
2, 214320, Note_off_c, 0, 70, 0
2, 214320, Note_on_c, 0, 63, 40
2, 214440, Note_off_c, 0, 63, 0
2, 214440, Note_on_c, 0, 66, 42
2, 214560, Note_off_c, 0, 66, 0
2, 214560, Note_on_c, 0, 67, 43
2, 214680, Note_off_c, 0, 67, 0
2, 214680, Note_on_c, 0, 70, 44
2, 214800, Note_off_c, 0, 70, 0
2, 214800, Note_on_c, 0, 63, 45
2, 214920, Note_off_c, 0, 63, 0
2, 214920, Note_on_c, 0, 66, 46
2, 215040, Note_off_c, 0, 66, 0
2, 215040, Note_on_c, 0, 67, 48
2, 215160, Note_off_c, 0, 67, 0
2, 215160, Note_on_c, 0, 70, 47
2, 215280, Note_off_c, 0, 70, 0
2, 215280, Note_on_c, 0, 63, 47
2, 215400, Note_off_c, 0, 63, 0
2, 215400, Note_on_c, 0, 66, 46
2, 215520, Note_off_c, 0, 66, 0
2, 215520, Note_on_c, 0, 67, 46
2, 215640, Note_off_c, 0, 67, 0
2, 215640, Note_on_c, 0, 70, 45
2, 215760, Note_off_c, 0, 70, 0
2, 215760, Note_on_c, 0, 63, 45
2, 215880, Note_off_c, 0, 63, 0
2, 215880, Note_on_c, 0, 66, 44
2, 216000, Note_off_c, 0, 66, 0
2, 216000, Note_on_c, 0, 67, 44
2, 216120, Note_off_c, 0, 67, 0
2, 216120, Note_on_c, 0, 70, 43
2, 216240, Note_off_c, 0, 70, 0
2, 216240, Note_on_c, 0, 63, 43
2, 216360, Note_off_c, 0, 63, 0
2, 216360, Note_on_c, 0, 66, 42
2, 216480, Note_off_c, 0, 66, 0
2, 216480, Note_on_c, 0, 67, 42
2, 216600, Note_off_c, 0, 67, 0
2, 216600, Note_on_c, 0, 70, 41
2, 216720, Note_off_c, 0, 70, 0
2, 216720, Note_on_c, 0, 63, 41
2, 216840, Note_off_c, 0, 63, 0
2, 216840, Note_on_c, 0, 66, 40
2, 216960, Note_off_c, 0, 66, 0
2, 216960, Note_on_c, 0, 68, 40
2, 217080, Note_off_c, 0, 68, 0
2, 217080, Note_on_c, 0, 72, 43
2, 217200, Note_off_c, 0, 72, 0
2, 217200, Note_on_c, 0, 63, 44
2, 217320, Note_off_c, 0, 63, 0
2, 217320, Note_on_c, 0, 67, 46
2, 217440, Note_off_c, 0, 67, 0
2, 217440, Note_on_c, 0, 69, 47
2, 217560, Note_off_c, 0, 69, 0
2, 217560, Note_on_c, 0, 72, 48
2, 217680, Note_off_c, 0, 72, 0
2, 217680, Note_on_c, 0, 65, 50
2, 217800, Note_off_c, 0, 65, 0
2, 217800, Note_on_c, 0, 69, 51
2, 217920, Note_off_c, 0, 69, 0
2, 217920, Note_on_c, 0, 70, 53
2, 218040, Note_off_c, 0, 70, 0
2, 218040, Note_on_c, 0, 77, 51
2, 218160, Note_off_c, 0, 77, 0
2, 218160, Note_on_c, 0, 65, 49
2, 218280, Note_off_c, 0, 65, 0
2, 218280, Note_on_c, 0, 69, 48
2, 218400, Note_off_c, 0, 69, 0
2, 218400, Note_on_c, 0, 71, 46
2, 218520, Note_off_c, 0, 71, 0
2, 218520, Note_on_c, 0, 65, 44
2, 218640, Note_off_c, 0, 65, 0
2, 218640, Note_on_c, 0, 77, 42
2, 218760, Note_off_c, 0, 77, 0
2, 218760, Note_on_c, 0, 71, 40
2, 218880, Control_c, 0, 64, 0
2, 218880, Note_off_c, 0, 71, 0
2, 218880, Note_on_c, 0, 72, 49
2, 219360, Note_off_c, 0, 72, 0
2, 219600, Note_on_c, 0, 89, 48
2, 219720, Note_off_c, 0, 89, 0
2, 219840, Note_on_c, 0, 89, 48
2, 220080, Note_off_c, 0, 89, 0
2, 220080, Note_on_c, 0, 88, 47
2, 220200, Note_off_c, 0, 88, 0
2, 220560, Note_on_c, 0, 83, 46
2, 220680, Note_off_c, 0, 83, 0
2, 220800, Note_on_c, 0, 84, 46
2, 221160, Note_off_c, 0, 84, 0
2, 221520, Note_on_c, 0, 89, 53
2, 221640, Note_off_c, 0, 89, 0
2, 221760, Note_on_c, 0, 89, 44
2, 221880, Note_off_c, 0, 89, 0
2, 221880, Note_on_c, 0, 88, 44
2, 222000, Note_off_c, 0, 88, 0
2, 222000, Note_on_c, 0, 86, 44
2, 222120, Note_off_c, 0, 86, 0
2, 222120, Note_on_c, 0, 84, 44
2, 222240, Note_off_c, 0, 84, 0
2, 222480, Note_on_c, 0, 83, 52
2, 222600, Note_off_c, 0, 83, 0
2, 222720, Note_on_c, 0, 84, 42
2, 223080, Note_off_c, 0, 84, 0
2, 223440, Note_on_c, 0, 83, 50
2, 223560, Note_off_c, 0, 83, 0
2, 223680, Note_on_c, 0, 84, 41
2, 224040, Note_off_c, 0, 84, 0
2, 224400, Note_on_c, 0, 83, 48
2, 224520, Note_off_c, 0, 83, 0
2, 224640, Note_on_c, 0, 84, 39
2, 225000, Note_off_c, 0, 84, 0
2, 226560, Note_on_c, 0, 74, 43
2, 226800, Note_off_c, 0, 74, 0
2, 226800, Note_on_c, 0, 70, 42
2, 226920, Note_off_c, 0, 70, 0
2, 227040, Note_on_c, 0, 67, 41
2, 227160, Note_off_c, 0, 67, 0
2, 227280, Note_on_c, 0, 69, 40
2, 227320, Note_off_c, 0, 69, 0
2, 227320, Note_on_c, 0, 70, 40
2, 227360, Note_off_c, 0, 70, 0
2, 227360, Note_on_c, 0, 69, 40
2, 227400, Note_off_c, 0, 69, 0
2, 227400, Note_on_c, 0, 67, 40
2, 227460, Note_off_c, 0, 67, 0
2, 227460, Note_on_c, 0, 69, 40
2, 227520, Note_off_c, 0, 69, 0
2, 227520, Note_on_c, 0, 74, 45
2, 227760, Note_off_c, 0, 74, 0
2, 227760, Note_on_c, 0, 70, 42
2, 227880, Note_off_c, 0, 70, 0
2, 228000, Note_on_c, 0, 67, 39
2, 228120, Note_off_c, 0, 67, 0
2, 228240, Note_on_c, 0, 69, 36
2, 228280, Note_off_c, 0, 69, 0
2, 228280, Note_on_c, 0, 70, 36
2, 228320, Note_off_c, 0, 70, 0
2, 228320, Note_on_c, 0, 69, 35
2, 228360, Note_off_c, 0, 69, 0
2, 228360, Note_on_c, 0, 67, 35
2, 228420, Note_off_c, 0, 67, 0
2, 228420, Note_on_c, 0, 69, 34
2, 228480, Note_off_c, 0, 69, 0
2, 228480, Note_on_c, 0, 70, 37
2, 228600, Note_off_c, 0, 70, 0
2, 228960, Note_on_c, 0, 67, 35
2, 229080, Note_off_c, 0, 67, 0
2, 229440, Note_on_c, 0, 69, 33
2, 229632, Note_off_c, 0, 69, 0
2, 230220, Control_c, 0, 64, 127
2, 230220, Note_on_c, 0, 84, 85
2, 230280, Note_off_c, 0, 84, 0
2, 230400, Control_c, 0, 64, 0
2, 230460, Note_on_c, 0, 85, 84
2, 230520, Note_off_c, 0, 85, 0
2, 230700, Control_c, 0, 64, 127
2, 230700, Note_on_c, 0, 82, 83
2, 230760, Note_off_c, 0, 82, 0
2, 230880, Control_c, 0, 64, 0
2, 230940, Control_c, 0, 64, 127
2, 230940, Note_on_c, 0, 79, 81
2, 231000, Note_off_c, 0, 79, 0
2, 231120, Control_c, 0, 64, 0
2, 231180, Control_c, 0, 64, 127
2, 231180, Note_on_c, 0, 80, 80
2, 231240, Note_off_c, 0, 80, 0
2, 231360, Control_c, 0, 64, 0
2, 231420, Control_c, 0, 64, 127
2, 231420, Note_on_c, 0, 85, 78
2, 231480, Note_off_c, 0, 85, 0
2, 231600, Control_c, 0, 64, 0
2, 231660, Control_c, 0, 64, 127
2, 231660, Note_on_c, 0, 82, 77
2, 231720, Note_off_c, 0, 82, 0
2, 231840, Control_c, 0, 64, 0
2, 231900, Control_c, 0, 64, 127
2, 231900, Note_on_c, 0, 79, 76
2, 231960, Note_off_c, 0, 79, 0
2, 232080, Control_c, 0, 64, 0
2, 232140, Control_c, 0, 64, 127
2, 232140, Note_on_c, 0, 80, 74
2, 232200, Note_off_c, 0, 80, 0
2, 232320, Control_c, 0, 64, 0
2, 232320, Note_on_c, 0, 82, 85
2, 232440, Note_off_c, 0, 82, 0
2, 232800, Note_on_c, 0, 79, 80
2, 232920, Note_off_c, 0, 79, 0
2, 233280, Note_on_c, 0, 77, 75
2, 233400, Note_off_c, 0, 77, 0
2, 234240, Note_on_c, 0, 65, 47
2, 234360, Note_off_c, 0, 65, 0
2, 235320, Note_on_c, 0, 55, 45
2, 235320, Note_on_c, 0, 64, 45
2, 235440, Note_off_c, 0, 64, 0
2, 235440, Note_off_c, 0, 55, 0
2, 235560, Note_on_c, 0, 67, 47
2, 235560, Note_on_c, 0, 58, 47
2, 235680, Note_off_c, 0, 58, 0
2, 235680, Note_off_c, 0, 67, 0
2, 235800, Note_on_c, 0, 65, 49
2, 235800, Note_on_c, 0, 57, 49
2, 235920, Note_off_c, 0, 57, 0
2, 235920, Note_off_c, 0, 65, 0
2, 236040, Note_on_c, 0, 65, 51
2, 236040, Note_on_c, 0, 69, 51
2, 236160, Note_off_c, 0, 69, 0
2, 236160, Note_off_c, 0, 65, 0
2, 236280, Note_on_c, 0, 64, 53
2, 236280, Note_on_c, 0, 70, 53
2, 236400, Note_off_c, 0, 70, 0
2, 236400, Note_off_c, 0, 64, 0
2, 236520, Note_on_c, 0, 70, 55
2, 236520, Note_on_c, 0, 76, 55
2, 236640, Note_off_c, 0, 76, 0
2, 236640, Note_off_c, 0, 70, 0
2, 236760, Note_on_c, 0, 69, 56
2, 236760, Note_on_c, 0, 77, 56
2, 236880, Note_off_c, 0, 77, 0
2, 236880, Note_off_c, 0, 69, 0
2, 237000, Note_on_c, 0, 77, 58
2, 237000, Note_on_c, 0, 81, 58
2, 237120, Note_off_c, 0, 81, 0
2, 237120, Note_off_c, 0, 77, 0
2, 237240, Note_on_c, 0, 82, 60
2, 237240, Note_on_c, 0, 76, 60
2, 237360, Note_off_c, 0, 76, 0
2, 237360, Note_off_c, 0, 82, 0
2, 237480, Note_on_c, 0, 76, 62
2, 237480, Note_on_c, 0, 84, 62
2, 237480, Note_on_c, 0, 79, 62
2, 237600, Note_off_c, 0, 79, 0
2, 237600, Note_off_c, 0, 84, 0
2, 237600, Note_off_c, 0, 76, 0
2, 237720, Note_on_c, 0, 84, 64
2, 237720, Note_on_c, 0, 81, 64
2, 237720, Note_on_c, 0, 77, 64
2, 237840, Note_off_c, 0, 77, 0
2, 237840, Note_off_c, 0, 81, 0
2, 237840, Note_off_c, 0, 84, 0
2, 237960, Note_on_c, 0, 89, 66
2, 237960, Note_on_c, 0, 84, 66
2, 237960, Note_on_c, 0, 81, 66
2, 238080, Note_off_c, 0, 81, 0
2, 238080, Note_off_c, 0, 84, 0
2, 238080, Note_off_c, 0, 89, 0
2, 238200, Note_on_c, 0, 88, 68
2, 238200, Note_on_c, 0, 79, 68
2, 238200, Note_on_c, 0, 84, 68
2, 238320, Note_off_c, 0, 84, 0
2, 238320, Note_off_c, 0, 79, 0
2, 238320, Note_off_c, 0, 88, 0
2, 238440, Note_on_c, 0, 79, 70
2, 238440, Note_on_c, 0, 84, 70
2, 238440, Note_on_c, 0, 76, 70
2, 238560, Note_off_c, 0, 76, 0
2, 238560, Note_off_c, 0, 84, 0
2, 238560, Note_off_c, 0, 79, 0
2, 238680, Note_on_c, 0, 77, 72
2, 238680, Note_on_c, 0, 81, 72
2, 238680, Note_on_c, 0, 84, 72
2, 238800, Note_off_c, 0, 84, 0
2, 238800, Note_off_c, 0, 81, 0
2, 238800, Note_off_c, 0, 77, 0
2, 238920, Note_on_c, 0, 84, 74
2, 238920, Note_on_c, 0, 89, 74
2, 238920, Note_on_c, 0, 81, 74
2, 239040, Note_off_c, 0, 81, 0
2, 239040, Note_off_c, 0, 89, 0
2, 239040, Note_off_c, 0, 84, 0
2, 239280, Note_on_c, 0, 86, 79
2, 239360, Note_off_c, 0, 86, 0
2, 239360, Note_on_c, 0, 85, 79
2, 239440, Note_off_c, 0, 85, 0
2, 239440, Note_on_c, 0, 88, 79
2, 239520, Note_off_c, 0, 88, 0
2, 239520, Note_on_c, 0, 86, 79
2, 239640, Note_off_c, 0, 86, 0
2, 239760, Note_on_c, 0, 82, 79
2, 239840, Note_off_c, 0, 82, 0
2, 239840, Note_on_c, 0, 81, 79
2, 239920, Note_off_c, 0, 81, 0
2, 239920, Note_on_c, 0, 84, 79
2, 240000, Note_off_c, 0, 84, 0
2, 240000, Note_on_c, 0, 82, 79
2, 240120, Note_off_c, 0, 82, 0
2, 240240, Note_on_c, 0, 79, 79
2, 240320, Note_off_c, 0, 79, 0
2, 240320, Note_on_c, 0, 78, 79
2, 240400, Note_off_c, 0, 78, 0
2, 240400, Note_on_c, 0, 81, 79
2, 240480, Note_off_c, 0, 81, 0
2, 240480, Note_on_c, 0, 79, 79
2, 240600, Note_off_c, 0, 79, 0
2, 240720, Note_on_c, 0, 74, 79
2, 240800, Note_off_c, 0, 74, 0
2, 240800, Note_on_c, 0, 73, 79
2, 240880, Note_off_c, 0, 73, 0
2, 240880, Note_on_c, 0, 76, 79
2, 240960, Note_off_c, 0, 76, 0
2, 240960, Note_on_c, 0, 74, 79
2, 241080, Note_off_c, 0, 74, 0
2, 241200, Note_on_c, 0, 67, 95
2, 241680, Note_off_c, 0, 67, 0
2, 241680, Note_on_c, 0, 69, 86
2, 241800, Note_off_c, 0, 69, 0
2, 241800, Note_on_c, 0, 70, 85
2, 241920, Note_off_c, 0, 70, 0
2, 241920, Note_on_c, 0, 72, 84
2, 242480, Note_off_c, 0, 72, 0
2, 242480, Note_on_c, 0, 74, 79
2, 242560, Note_off_c, 0, 74, 0
2, 242560, Note_on_c, 0, 72, 79
2, 242640, Note_off_c, 0, 72, 0
2, 242640, Note_on_c, 0, 70, 78
2, 242720, Note_off_c, 0, 70, 0
2, 242720, Note_on_c, 0, 69, 77
2, 242800, Note_off_c, 0, 69, 0
2, 242800, Note_on_c, 0, 67, 77
2, 242880, Note_off_c, 0, 67, 0
2, 242880, Note_on_c, 0, 65, 76
2, 243000, Note_off_c, 0, 65, 0
2, 243120, Note_on_c, 0, 79, 95
2, 243600, Note_off_c, 0, 79, 0
2, 243600, Note_on_c, 0, 81, 91
2, 243720, Note_off_c, 0, 81, 0
2, 243720, Note_on_c, 0, 83, 91
2, 243840, Note_off_c, 0, 83, 0
2, 243840, Note_on_c, 0, 84, 90
2, 244380, Note_off_c, 0, 84, 0
2, 244380, Note_on_c, 0, 86, 87
2, 244440, Note_off_c, 0, 86, 0
2, 244440, Note_on_c, 0, 84, 86
2, 244500, Note_off_c, 0, 84, 0
2, 244500, Note_on_c, 0, 83, 86
2, 244560, Note_off_c, 0, 83, 0
2, 244560, Note_on_c, 0, 84, 86
2, 244640, Note_off_c, 0, 84, 0
2, 244640, Note_on_c, 0, 86, 85
2, 244720, Note_off_c, 0, 86, 0
2, 244720, Note_on_c, 0, 88, 85
2, 244800, Note_off_c, 0, 88, 0
2, 244800, Note_on_c, 0, 89, 84
2, 244920, Note_off_c, 0, 89, 0
2, 245280, Note_on_c, 0, 84, 44
2, 245280, Note_on_c, 0, 72, 44
2, 245400, Note_off_c, 0, 72, 0
2, 245400, Note_off_c, 0, 84, 0
2, 245520, Note_on_c, 0, 72, 46
2, 245520, Note_on_c, 0, 84, 46
2, 245640, Note_off_c, 0, 84, 0
2, 245640, Note_off_c, 0, 72, 0
2, 245760, Note_on_c, 0, 81, 47
2, 245760, Note_on_c, 0, 69, 47
2, 245880, Note_off_c, 0, 69, 0
2, 245880, Note_off_c, 0, 81, 0
2, 246240, Note_on_c, 0, 89, 50
2, 246240, Note_on_c, 0, 77, 50
2, 246360, Note_off_c, 0, 77, 0
2, 246360, Note_off_c, 0, 89, 0
2, 246480, Note_on_c, 0, 77, 51
2, 246480, Note_on_c, 0, 89, 51
2, 246600, Note_off_c, 0, 89, 0
2, 246600, Note_off_c, 0, 77, 0
2, 246720, Note_on_c, 0, 86, 52
2, 246720, Note_on_c, 0, 74, 52
2, 246840, Note_off_c, 0, 74, 0
2, 246840, Note_off_c, 0, 86, 0
2, 247200, Note_on_c, 0, 47, 72
2, 247320, Note_off_c, 0, 47, 0
2, 247440, Note_on_c, 0, 47, 70
2, 247560, Note_off_c, 0, 47, 0
2, 247680, Note_on_c, 0, 47, 68
2, 247740, Note_off_c, 0, 47, 0
2, 247740, Note_on_c, 0, 48, 68
2, 247800, Note_off_c, 0, 48, 0
2, 247800, Note_on_c, 0, 50, 68
2, 247860, Note_off_c, 0, 50, 0
2, 247860, Note_on_c, 0, 48, 67
2, 247920, Note_off_c, 0, 48, 0
2, 247920, Note_on_c, 0, 50, 67
2, 247980, Note_off_c, 0, 50, 0
2, 247980, Note_on_c, 0, 48, 66
2, 248040, Note_off_c, 0, 48, 0
2, 248040, Note_on_c, 0, 50, 66
2, 248100, Note_off_c, 0, 50, 0
2, 248100, Note_on_c, 0, 48, 66
2, 248160, Note_off_c, 0, 48, 0
2, 248160, Note_on_c, 0, 50, 65
2, 248220, Note_off_c, 0, 50, 0
2, 248220, Note_on_c, 0, 48, 65
2, 248280, Note_off_c, 0, 48, 0
2, 248280, Note_on_c, 0, 50, 64
2, 248340, Note_off_c, 0, 50, 0
2, 248340, Note_on_c, 0, 48, 64
2, 248400, Note_off_c, 0, 48, 0
2, 248400, Note_on_c, 0, 50, 64
2, 248460, Note_off_c, 0, 50, 0
2, 248460, Note_on_c, 0, 48, 63
2, 248520, Note_off_c, 0, 48, 0
2, 248520, Note_on_c, 0, 47, 63
2, 248580, Note_off_c, 0, 47, 0
2, 248580, Note_on_c, 0, 48, 62
2, 248640, Note_off_c, 0, 48, 0
2, 248640, Note_on_c, 0, 41, 62
2, 248760, Note_off_c, 0, 41, 0
2, 249060, Note_on_c, 0, 72, 64
2, 249120, Note_on_c, 0, 84, 64
2, 249180, Note_off_c, 0, 72, 0
2, 249240, Note_off_c, 0, 84, 0
2, 249300, Note_on_c, 0, 72, 66
2, 249360, Note_on_c, 0, 84, 66
2, 249420, Note_off_c, 0, 72, 0
2, 249480, Note_off_c, 0, 84, 0
2, 249540, Note_on_c, 0, 69, 67
2, 249600, Note_on_c, 0, 81, 68
2, 249660, Note_off_c, 0, 69, 0
2, 249720, Note_off_c, 0, 81, 0
2, 250020, Note_on_c, 0, 77, 71
2, 250080, Note_on_c, 0, 89, 72
2, 250140, Note_off_c, 0, 77, 0
2, 250200, Note_off_c, 0, 89, 0
2, 250260, Note_on_c, 0, 77, 73
2, 250320, Note_on_c, 0, 89, 73
2, 250380, Note_off_c, 0, 77, 0
2, 250440, Note_off_c, 0, 89, 0
2, 250500, Note_on_c, 0, 74, 75
2, 250560, Note_on_c, 0, 86, 75
2, 250620, Note_off_c, 0, 74, 0
2, 250680, Note_off_c, 0, 86, 0
2, 251040, Note_on_c, 0, 47, 79
2, 251160, Note_off_c, 0, 47, 0
2, 251280, Note_on_c, 0, 47, 79
2, 251400, Note_off_c, 0, 47, 0
2, 251520, Note_on_c, 0, 47, 78
2, 251580, Note_off_c, 0, 47, 0
2, 251580, Note_on_c, 0, 48, 77
2, 251640, Note_off_c, 0, 48, 0
2, 251640, Note_on_c, 0, 50, 77
2, 251700, Note_off_c, 0, 50, 0
2, 251700, Note_on_c, 0, 48, 77
2, 251760, Note_off_c, 0, 48, 0
2, 251760, Note_on_c, 0, 50, 77
2, 251820, Note_off_c, 0, 50, 0
2, 251820, Note_on_c, 0, 48, 77
2, 251880, Note_off_c, 0, 48, 0
2, 251880, Note_on_c, 0, 50, 76
2, 251940, Note_off_c, 0, 50, 0
2, 251940, Note_on_c, 0, 48, 76
2, 252000, Note_off_c, 0, 48, 0
2, 252000, Note_on_c, 0, 50, 76
2, 252060, Note_off_c, 0, 50, 0
2, 252060, Note_on_c, 0, 48, 76
2, 252120, Note_off_c, 0, 48, 0
2, 252120, Note_on_c, 0, 50, 76
2, 252180, Note_off_c, 0, 50, 0
2, 252180, Note_on_c, 0, 48, 75
2, 252240, Note_off_c, 0, 48, 0
2, 252240, Note_on_c, 0, 50, 75
2, 252300, Note_off_c, 0, 50, 0
2, 252300, Note_on_c, 0, 48, 75
2, 252360, Note_off_c, 0, 48, 0
2, 252360, Note_on_c, 0, 47, 75
2, 252420, Note_off_c, 0, 47, 0
2, 252420, Note_on_c, 0, 48, 75
2, 252480, Note_off_c, 0, 48, 0
2, 252480, Note_on_c, 0, 41, 74
2, 252600, Note_off_c, 0, 41, 0
2, 252960, Note_on_c, 0, 83, 88
2, 253080, Note_off_c, 0, 83, 0
2, 253200, Note_on_c, 0, 83, 89
2, 253320, Note_off_c, 0, 83, 0
2, 253440, Note_on_c, 0, 83, 89
2, 253500, Note_off_c, 0, 83, 0
2, 253500, Note_on_c, 0, 84, 89
2, 253560, Note_off_c, 0, 84, 0
2, 253560, Note_on_c, 0, 86, 89
2, 253620, Note_off_c, 0, 86, 0
2, 253620, Note_on_c, 0, 84, 90
2, 253680, Note_off_c, 0, 84, 0
2, 253680, Note_on_c, 0, 86, 90
2, 253740, Note_off_c, 0, 86, 0
2, 253740, Note_on_c, 0, 84, 90
2, 253800, Note_off_c, 0, 84, 0
2, 253800, Note_on_c, 0, 86, 91
2, 253860, Note_off_c, 0, 86, 0
2, 253860, Note_on_c, 0, 84, 91
2, 253920, Note_off_c, 0, 84, 0
2, 253920, Note_on_c, 0, 86, 91
2, 253980, Note_off_c, 0, 86, 0
2, 253980, Note_on_c, 0, 84, 92
2, 254040, Note_off_c, 0, 84, 0
2, 254040, Note_on_c, 0, 86, 92
2, 254100, Note_off_c, 0, 86, 0
2, 254100, Note_on_c, 0, 84, 92
2, 254160, Note_off_c, 0, 84, 0
2, 254160, Note_on_c, 0, 86, 93
2, 254220, Note_off_c, 0, 86, 0
2, 254220, Note_on_c, 0, 84, 93
2, 254280, Note_off_c, 0, 84, 0
2, 254280, Note_on_c, 0, 83, 93
2, 254340, Note_off_c, 0, 83, 0
2, 254340, Note_on_c, 0, 84, 94
2, 254400, Note_off_c, 0, 84, 0
2, 254400, Note_on_c, 0, 89, 94
2, 254400, Note_on_c, 0, 77, 94
2, 254520, Note_off_c, 0, 77, 0
2, 254520, Note_off_c, 0, 89, 0
2, 254880, Note_on_c, 0, 71, 96
2, 255000, Note_off_c, 0, 71, 0
2, 255120, Note_on_c, 0, 71, 98
2, 255240, Note_off_c, 0, 71, 0
2, 255360, Note_on_c, 0, 71, 99
2, 255420, Note_off_c, 0, 71, 0
2, 255420, Note_on_c, 0, 72, 99
2, 255480, Note_off_c, 0, 72, 0
2, 255480, Note_on_c, 0, 74, 100
2, 255540, Note_off_c, 0, 74, 0
2, 255540, Note_on_c, 0, 72, 100
2, 255600, Note_off_c, 0, 72, 0
2, 255600, Note_on_c, 0, 74, 100
2, 255660, Note_off_c, 0, 74, 0
2, 255660, Note_on_c, 0, 72, 101
2, 255720, Note_off_c, 0, 72, 0
2, 255720, Note_on_c, 0, 74, 101
2, 255780, Note_off_c, 0, 74, 0
2, 255780, Note_on_c, 0, 72, 101
2, 255840, Note_off_c, 0, 72, 0
2, 255840, Note_on_c, 0, 74, 102
2, 255900, Note_off_c, 0, 74, 0
2, 255900, Note_on_c, 0, 72, 102
2, 255960, Note_off_c, 0, 72, 0
2, 255960, Note_on_c, 0, 74, 102
2, 256020, Note_off_c, 0, 74, 0
2, 256020, Note_on_c, 0, 72, 103
2, 256080, Note_off_c, 0, 72, 0
2, 256080, Note_on_c, 0, 74, 103
2, 256140, Note_off_c, 0, 74, 0
2, 256140, Note_on_c, 0, 72, 103
2, 256200, Note_off_c, 0, 72, 0
2, 256200, Note_on_c, 0, 71, 104
2, 256260, Note_off_c, 0, 71, 0
2, 256260, Note_on_c, 0, 72, 104
2, 256320, Note_off_c, 0, 72, 0
2, 256320, Note_on_c, 0, 65, 106
2, 256320, Note_on_c, 0, 77, 106
2, 256440, Note_off_c, 0, 77, 0
2, 256440, Note_off_c, 0, 65, 0
2, 256800, Note_on_c, 0, 60, 109
2, 256800, Note_on_c, 0, 72, 109
2, 256920, Note_off_c, 0, 72, 0
2, 256920, Note_off_c, 0, 60, 0
2, 257280, Note_on_c, 0, 65, 112
2, 257280, Note_on_c, 0, 53, 112
2, 257472, Note_off_c, 0, 53, 0
2, 257472, Note_off_c, 0, 65, 0
2, 258720, Control_c, 0, 64, 0
2, 259200, Control_c, 0, 64, 0
2, 259200, Note_on_c, 0, 48, 40
2, 259680, Note_off_c, 0, 48, 0
2, 259680, Note_on_c, 0, 53, 41
2, 260160, Note_off_c, 0, 53, 0
2, 260160, Note_on_c, 0, 56, 43
2, 260640, Note_off_c, 0, 56, 0
2, 260640, Note_on_c, 0, 52, 44
2, 261120, Note_off_c, 0, 52, 0
2, 261120, Note_on_c, 0, 53, 46
2, 261600, Note_off_c, 0, 53, 0
2, 261600, Note_on_c, 0, 56, 47
2, 262080, Note_off_c, 0, 56, 0
2, 262080, Note_on_c, 0, 60, 49
2, 262560, Note_off_c, 0, 60, 0
2, 262560, Note_on_c, 0, 61, 50
2, 263040, Note_off_c, 0, 61, 0
2, 263040, Note_on_c, 0, 58, 51
2, 263520, Note_off_c, 0, 58, 0
2, 263520, Note_on_c, 0, 64, 53
2, 264000, Note_off_c, 0, 64, 0
2, 264000, Note_on_c, 0, 65, 54
2, 264480, Note_off_c, 0, 65, 0
2, 264480, Note_on_c, 0, 60, 56
2, 264960, Note_off_c, 0, 60, 0
2, 264960, Note_on_c, 0, 67, 57
2, 265440, Note_off_c, 0, 67, 0
2, 265440, Note_on_c, 0, 68, 59
2, 265920, Note_on_c, 0, 65, 60
2, 266400, Note_off_c, 0, 65, 0
2, 266400, Note_off_c, 0, 68, 0
2, 266400, Note_on_c, 0, 70, 62
2, 266880, Note_off_c, 0, 70, 0
2, 266880, Note_on_c, 0, 72, 68
2, 267840, Note_off_c, 0, 72, 0
2, 267840, Note_on_c, 0, 75, 59
2, 268080, Note_off_c, 0, 75, 0
2, 268080, Note_on_c, 0, 73, 58
2, 268320, Note_off_c, 0, 73, 0
2, 268320, Note_on_c, 0, 72, 56
2, 269280, Note_off_c, 0, 72, 0
2, 269280, Note_on_c, 0, 70, 51
2, 269760, Note_off_c, 0, 70, 0
2, 269760, Note_on_c, 0, 68, 48
2, 270240, Note_off_c, 0, 68, 0
2, 270720, Control_c, 0, 64, 0
2, 270720, Control_c, 0, 7, 117
2, 270720, Note_on_c, 0, 48, 40
2, 271200, Note_off_c, 0, 48, 0
2, 271200, Note_on_c, 0, 53, 41
2, 271680, Note_off_c, 0, 53, 0
2, 271680, Note_on_c, 0, 56, 43
2, 272160, Note_off_c, 0, 56, 0
2, 272160, Note_on_c, 0, 52, 44
2, 272640, Note_off_c, 0, 52, 0
2, 272640, Note_on_c, 0, 53, 46
2, 273120, Note_off_c, 0, 53, 0
2, 273120, Note_on_c, 0, 56, 47
2, 273600, Note_off_c, 0, 56, 0
2, 273600, Note_on_c, 0, 60, 49
2, 274080, Note_off_c, 0, 60, 0
2, 274080, Note_on_c, 0, 61, 50
2, 274560, Note_off_c, 0, 61, 0
2, 274560, Note_on_c, 0, 58, 51
2, 275040, Note_off_c, 0, 58, 0
2, 275040, Note_on_c, 0, 64, 53
2, 275520, Note_off_c, 0, 64, 0
2, 275520, Note_on_c, 0, 65, 54
2, 276000, Note_off_c, 0, 65, 0
2, 276000, Note_on_c, 0, 60, 56
2, 276480, Note_off_c, 0, 60, 0
2, 276480, Note_on_c, 0, 67, 57
2, 276960, Note_off_c, 0, 67, 0
2, 276960, Note_on_c, 0, 68, 59
2, 277440, Note_on_c, 0, 65, 60
2, 277920, Note_off_c, 0, 65, 0
2, 277920, Note_off_c, 0, 68, 0
2, 277920, Note_on_c, 0, 70, 62
2, 278400, Note_off_c, 0, 70, 0
2, 278400, Note_on_c, 0, 72, 68
2, 279360, Note_off_c, 0, 72, 0
2, 279360, Note_on_c, 0, 75, 59
2, 279600, Note_off_c, 0, 75, 0
2, 279600, Note_on_c, 0, 73, 58
2, 279840, Note_off_c, 0, 73, 0
2, 279840, Note_on_c, 0, 72, 56
2, 280800, Note_off_c, 0, 72, 0
2, 280800, Note_on_c, 0, 70, 51
2, 281280, Note_off_c, 0, 70, 0
2, 281280, Note_on_c, 0, 68, 48
2, 281760, Note_off_c, 0, 68, 0
2, 282240, Control_c, 0, 64, 0
2, 282240, Control_c, 0, 7, 127
2, 282240, Note_on_c, 0, 72, 42
2, 282480, Note_off_c, 0, 72, 0
2, 282720, Note_on_c, 0, 72, 43
2, 283200, Note_off_c, 0, 72, 0
2, 283200, Note_on_c, 0, 73, 44
2, 283440, Note_off_c, 0, 73, 0
2, 283440, Note_on_c, 0, 72, 45
2, 283680, Note_off_c, 0, 72, 0
2, 283680, Note_on_c, 0, 73, 51
2, 283920, Note_off_c, 0, 73, 0
2, 284160, Note_on_c, 0, 73, 47
2, 284400, Note_off_c, 0, 73, 0
2, 285120, Note_on_c, 0, 73, 53
2, 285360, Note_off_c, 0, 73, 0
2, 285600, Note_on_c, 0, 73, 50
2, 286080, Note_off_c, 0, 73, 0
2, 286080, Note_on_c, 0, 75, 52
2, 286320, Note_off_c, 0, 75, 0
2, 286320, Note_on_c, 0, 73, 52
2, 286560, Note_off_c, 0, 73, 0
2, 286560, Note_on_c, 0, 75, 58
2, 286800, Note_off_c, 0, 75, 0
2, 287040, Note_on_c, 0, 75, 54
2, 287280, Note_off_c, 0, 75, 0
2, 288000, Note_on_c, 0, 75, 63
2, 288240, Note_off_c, 0, 75, 0
2, 288480, Note_on_c, 0, 75, 58
2, 288960, Note_off_c, 0, 75, 0
2, 288960, Note_on_c, 0, 77, 59
2, 289200, Note_off_c, 0, 77, 0
2, 289200, Note_on_c, 0, 75, 60
2, 289440, Note_off_c, 0, 75, 0
2, 289440, Note_on_c, 0, 77, 67
2, 289680, Note_off_c, 0, 77, 0
2, 289920, Note_on_c, 0, 77, 61
2, 290880, Note_off_c, 0, 77, 0
2, 290880, Note_on_c, 0, 77, 68
2, 291120, Note_off_c, 0, 77, 0
2, 291360, Note_on_c, 0, 77, 60
2, 291440, Note_off_c, 0, 77, 0
2, 291440, Note_on_c, 0, 79, 60
2, 291520, Note_off_c, 0, 79, 0
2, 291520, Note_on_c, 0, 77, 61
2, 291600, Note_off_c, 0, 77, 0
2, 291600, Note_on_c, 0, 79, 61
2, 291680, Note_off_c, 0, 79, 0
2, 291680, Note_on_c, 0, 77, 62
2, 291760, Note_off_c, 0, 77, 0
2, 291760, Note_on_c, 0, 79, 62
2, 291840, Note_off_c, 0, 79, 0
2, 291840, Note_on_c, 0, 77, 63
2, 291920, Note_off_c, 0, 77, 0
2, 291920, Note_on_c, 0, 79, 63
2, 292000, Note_off_c, 0, 79, 0
2, 292000, Note_on_c, 0, 77, 64
2, 292080, Note_off_c, 0, 77, 0
2, 292080, Note_on_c, 0, 76, 64
2, 292200, Note_off_c, 0, 76, 0
2, 292200, Note_on_c, 0, 77, 65
2, 292320, Note_off_c, 0, 77, 0
2, 292320, Note_on_c, 0, 79, 70
2, 292560, Note_off_c, 0, 79, 0
2, 292800, Note_on_c, 0, 72, 65
2, 293520, Note_off_c, 0, 72, 0
2, 293760, Note_on_c, 0, 72, 38
2, 294240, Note_off_c, 0, 72, 0
2, 294240, Note_on_c, 0, 77, 40
2, 294720, Note_off_c, 0, 77, 0
2, 294720, Note_on_c, 0, 80, 41
2, 295200, Note_off_c, 0, 80, 0
2, 295200, Note_on_c, 0, 76, 42
2, 295680, Note_off_c, 0, 76, 0
2, 295680, Note_on_c, 0, 77, 43
2, 296160, Note_off_c, 0, 77, 0
2, 296160, Note_on_c, 0, 80, 44
2, 296640, Note_off_c, 0, 80, 0
2, 296640, Note_on_c, 0, 84, 46
2, 297120, Note_off_c, 0, 84, 0
2, 297120, Note_on_c, 0, 85, 47
2, 297600, Note_off_c, 0, 85, 0
2, 297600, Note_on_c, 0, 82, 48
2, 298080, Note_off_c, 0, 82, 0
2, 298080, Note_on_c, 0, 88, 49
2, 298560, Note_off_c, 0, 88, 0
2, 298560, Note_on_c, 0, 89, 50
2, 299040, Note_off_c, 0, 89, 0
2, 299040, Note_on_c, 0, 84, 51
2, 299520, Note_off_c, 0, 84, 0
2, 299520, Note_on_c, 0, 80, 53
2, 300000, Note_off_c, 0, 80, 0
2, 300000, Note_on_c, 0, 82, 54
2, 300480, Note_off_c, 0, 82, 0
2, 300480, Note_on_c, 0, 85, 55
2, 300960, Note_off_c, 0, 85, 0
2, 300960, Note_on_c, 0, 79, 56
2, 301440, Note_off_c, 0, 79, 0
2, 301440, Note_on_c, 0, 80, 57
2, 302160, Note_off_c, 0, 80, 0
2, 302400, Note_on_c, 0, 80, 60
2, 302880, Note_off_c, 0, 80, 0
2, 302880, Note_on_c, 0, 80, 68
2, 303840, Note_off_c, 0, 80, 0
2, 303840, Note_on_c, 0, 79, 63
2, 304320, Note_off_c, 0, 79, 0
2, 304320, Note_on_c, 0, 80, 71
2, 305280, Note_off_c, 0, 80, 0
2, 305280, Note_on_c, 0, 79, 61
2, 305760, Note_off_c, 0, 79, 0
2, 305760, Note_on_c, 0, 77, 58
2, 306240, Note_off_c, 0, 77, 0
2, 306240, Note_on_c, 0, 79, 56
2, 306720, Note_off_c, 0, 79, 0
2, 306720, Note_on_c, 0, 76, 54
2, 307200, Note_off_c, 0, 76, 0
2, 307200, Note_on_c, 0, 77, 52
2, 307680, Note_off_c, 0, 77, 0
2, 307680, Note_on_c, 0, 72, 49
2, 308160, Note_off_c, 0, 72, 0
2, 308160, Note_on_c, 0, 68, 47
2, 308640, Note_off_c, 0, 68, 0
2, 308640, Note_on_c, 0, 68, 63
2, 309600, Note_off_c, 0, 68, 0
2, 309600, Note_on_c, 0, 67, 54
2, 310080, Note_off_c, 0, 67, 0
2, 310080, Note_on_c, 0, 68, 63
2, 311040, Note_off_c, 0, 68, 0
2, 311040, Note_on_c, 0, 67, 52
2, 311520, Note_off_c, 0, 67, 0
2, 311520, Note_on_c, 0, 65, 52
2, 312000, Note_off_c, 0, 65, 0
2, 312000, Note_on_c, 0, 67, 51
2, 312480, Note_off_c, 0, 67, 0
2, 312480, Note_on_c, 0, 64, 51
2, 312960, Note_off_c, 0, 64, 0
2, 312960, Note_on_c, 0, 65, 50
2, 313440, Note_off_c, 0, 65, 0
2, 313920, Note_on_c, 0, 60, 47
2, 314400, Note_off_c, 0, 60, 0
2, 314400, Note_on_c, 0, 64, 50
2, 315360, Note_off_c, 0, 64, 0
2, 315360, Note_on_c, 0, 65, 55
2, 315840, Note_off_c, 0, 65, 0
2, 315840, Note_on_c, 0, 67, 61
2, 316800, Note_off_c, 0, 67, 0
2, 316800, Note_on_c, 0, 68, 73
2, 317280, Note_off_c, 0, 68, 0
2, 317280, Note_on_c, 0, 72, 89
2, 318000, Note_off_c, 0, 72, 0
2, 318000, Note_on_c, 0, 70, 68
2, 318240, Note_off_c, 0, 70, 0
2, 318240, Note_on_c, 0, 68, 64
2, 318480, Note_off_c, 0, 68, 0
2, 318480, Note_on_c, 0, 67, 60
2, 318720, Note_off_c, 0, 67, 0
2, 318720, Note_on_c, 0, 70, 56
2, 318960, Note_off_c, 0, 70, 0
2, 318960, Note_on_c, 0, 68, 52
2, 319200, Note_off_c, 0, 68, 0
2, 319200, Note_on_c, 0, 67, 48
2, 319440, Note_off_c, 0, 67, 0
2, 319440, Note_on_c, 0, 65, 48
2, 319680, Note_off_c, 0, 65, 0
2, 319680, Note_on_c, 0, 72, 51
2, 319760, Note_off_c, 0, 72, 0
2, 319760, Note_on_c, 0, 73, 52
2, 319840, Note_off_c, 0, 73, 0
2, 319840, Note_on_c, 0, 72, 53
2, 319920, Note_off_c, 0, 72, 0
2, 319920, Note_on_c, 0, 71, 54
2, 320040, Note_off_c, 0, 71, 0
2, 320040, Note_on_c, 0, 72, 55
2, 320160, Note_off_c, 0, 72, 0
2, 320160, Note_on_c, 0, 79, 57
2, 321120, Note_off_c, 0, 79, 0
2, 321120, Note_on_c, 0, 80, 68
2, 321600, Note_off_c, 0, 80, 0
2, 321600, Note_on_c, 0, 82, 74
2, 322080, Note_off_c, 0, 82, 0
2, 322560, Note_on_c, 0, 88, 90
2, 322800, Note_off_c, 0, 88, 0
2, 323040, Note_on_c, 0, 89, 95
2, 323280, Note_off_c, 0, 89, 0
2, 324000, Note_on_c, 0, 65, 31
2, 324360, Note_off_c, 0, 65, 0
2, 324480, Note_on_c, 0, 65, 32
2, 325200, Note_off_c, 0, 65, 0
2, 325440, Note_on_c, 0, 65, 33
2, 325800, Note_off_c, 0, 65, 0
2, 325920, Note_on_c, 0, 65, 34
2, 326640, Note_off_c, 0, 65, 0
2, 326880, Note_on_c, 0, 65, 36
2, 327240, Note_off_c, 0, 65, 0
2, 327360, Note_on_c, 0, 65, 43
2, 328800, Note_off_c, 0, 65, 0
2, 328800, Note_on_c, 0, 63, 34
2, 329760, Note_off_c, 0, 63, 0
2, 329760, Note_on_c, 0, 63, 32
2, 329880, Note_off_c, 0, 63, 0
2, 329880, Note_on_c, 0, 65, 33
2, 329920, Note_on_c, 0, 63, 33
2, 329940, Note_off_c, 0, 65, 0
2, 329960, Note_on_c, 0, 62, 34
2, 329980, Note_off_c, 0, 63, 0
2, 330000, Note_on_c, 0, 63, 34
2, 330020, Note_off_c, 0, 62, 0
2, 330120, Note_off_c, 0, 63, 0
2, 330120, Note_on_c, 0, 65, 35
2, 330240, Note_off_c, 0, 65, 0
2, 330240, Note_on_c, 0, 66, 40
2, 330960, Note_off_c, 0, 66, 0
2, 331200, Note_on_c, 0, 66, 43
2, 331560, Note_off_c, 0, 66, 0
2, 331680, Note_on_c, 0, 66, 45
2, 332400, Note_off_c, 0, 66, 0
2, 332640, Note_on_c, 0, 66, 48
2, 333000, Note_off_c, 0, 66, 0
2, 333120, Note_on_c, 0, 66, 54
2, 334560, Note_off_c, 0, 66, 0
2, 334560, Note_on_c, 0, 65, 44
2, 335040, Note_off_c, 0, 65, 0
2, 335520, Note_on_c, 0, 65, 45
2, 335760, Note_off_c, 0, 65, 0
2, 335760, Note_on_c, 0, 67, 46
2, 336000, Note_off_c, 0, 67, 0
2, 336000, Note_on_c, 0, 68, 48
2, 336720, Note_off_c, 0, 68, 0
2, 336960, Note_on_c, 0, 68, 53
2, 337320, Note_off_c, 0, 68, 0
2, 337440, Note_on_c, 0, 68, 55
2, 338160, Note_off_c, 0, 68, 0
2, 338400, Note_on_c, 0, 68, 60
2, 338760, Note_off_c, 0, 68, 0
2, 338880, Note_on_c, 0, 73, 73
2, 341280, Note_off_c, 0, 73, 0
2, 341280, Note_on_c, 0, 72, 56
2, 341640, Note_off_c, 0, 72, 0
2, 341760, Note_on_c, 0, 72, 54
2, 342240, Note_off_c, 0, 72, 0
2, 342240, Note_on_c, 0, 70, 52
2, 342600, Note_off_c, 0, 70, 0
2, 342720, Note_on_c, 0, 68, 50
2, 343080, Note_off_c, 0, 68, 0
2, 343200, Note_on_c, 0, 68, 48
2, 344160, Note_off_c, 0, 68, 0
2, 344160, Note_on_c, 0, 67, 44
2, 344520, Note_off_c, 0, 67, 0
2, 344640, Note_on_c, 0, 70, 43
2, 346080, Note_off_c, 0, 70, 0
2, 346080, Note_on_c, 0, 68, 37
2, 346440, Note_off_c, 0, 68, 0
2, 347040, Note_on_c, 0, 65, 30
2, 347400, Note_off_c, 0, 65, 0
2, 347520, Note_on_c, 0, 65, 31
2, 348240, Note_off_c, 0, 65, 0
2, 348480, Note_on_c, 0, 65, 33
2, 348840, Note_off_c, 0, 65, 0
2, 348960, Note_on_c, 0, 65, 34
2, 349680, Note_off_c, 0, 65, 0
2, 349920, Note_on_c, 0, 65, 36
2, 350280, Note_off_c, 0, 65, 0
2, 350400, Note_on_c, 0, 65, 42
2, 351840, Note_off_c, 0, 65, 0
2, 351840, Note_on_c, 0, 63, 32
2, 352200, Note_off_c, 0, 63, 0
2, 352800, Note_on_c, 0, 63, 33
2, 353040, Note_off_c, 0, 63, 0
2, 353040, Note_on_c, 0, 65, 34
2, 353280, Note_off_c, 0, 65, 0
2, 353280, Note_on_c, 0, 66, 35
2, 354000, Note_off_c, 0, 66, 0
2, 354240, Note_on_c, 0, 66, 39
2, 354600, Note_off_c, 0, 66, 0
2, 354720, Note_on_c, 0, 66, 40
2, 355440, Note_off_c, 0, 66, 0
2, 355680, Note_on_c, 0, 66, 44
2, 356040, Note_off_c, 0, 66, 0
2, 356160, Note_on_c, 0, 66, 52
2, 357600, Note_off_c, 0, 66, 0
2, 357600, Note_on_c, 0, 65, 42
2, 357960, Note_off_c, 0, 65, 0
2, 358560, Note_on_c, 0, 67, 47
2, 358800, Note_off_c, 0, 67, 0
2, 358800, Note_on_c, 0, 68, 48
2, 359040, Note_off_c, 0, 68, 0
2, 359040, Note_on_c, 0, 70, 49
2, 359760, Note_off_c, 0, 70, 0
2, 360000, Note_on_c, 0, 70, 53
2, 360360, Note_off_c, 0, 70, 0
2, 360480, Note_on_c, 0, 70, 55
2, 361200, Note_off_c, 0, 70, 0
2, 361440, Note_on_c, 0, 70, 61
2, 361800, Note_off_c, 0, 70, 0
2, 361920, Note_on_c, 0, 70, 69
2, 363360, Note_off_c, 0, 70, 0
2, 363360, Note_on_c, 0, 68, 56
2, 363720, Note_off_c, 0, 68, 0
2, 364320, Note_on_c, 0, 68, 52
2, 364560, Note_off_c, 0, 68, 0
2, 364800, Note_on_c, 0, 65, 50
2, 365040, Note_off_c, 0, 65, 0
2, 365760, Note_on_c, 0, 65, 46
2, 366000, Note_off_c, 0, 65, 0
2, 366240, Note_on_c, 0, 63, 43
2, 366480, Note_off_c, 0, 63, 0
2, 367200, Note_on_c, 0, 63, 39
2, 367440, Note_off_c, 0, 63, 0
2, 367680, Note_on_c, 0, 56, 37
2, 367920, Note_off_c, 0, 56, 0
2, 374400, Note_on_c, 0, 89, 67
2, 375120, Note_off_c, 0, 89, 0
2, 375120, Note_on_c, 0, 87, 51
2, 375360, Note_off_c, 0, 87, 0
2, 375360, Note_on_c, 0, 86, 48
2, 375600, Note_off_c, 0, 86, 0
2, 375600, Note_on_c, 0, 83, 46
2, 375840, Note_off_c, 0, 83, 0
2, 375840, Note_on_c, 0, 82, 43
2, 376080, Note_off_c, 0, 82, 0
2, 376080, Note_on_c, 0, 80, 40
2, 376320, Note_off_c, 0, 80, 0
2, 376320, Note_on_c, 0, 78, 37
2, 376560, Note_off_c, 0, 78, 0
2, 380160, Note_on_c, 0, 87, 75
2, 380880, Note_off_c, 0, 87, 0
2, 380880, Note_on_c, 0, 85, 57
2, 381120, Note_off_c, 0, 85, 0
2, 381120, Note_on_c, 0, 84, 55
2, 381360, Note_off_c, 0, 84, 0
2, 381360, Note_on_c, 0, 82, 53
2, 381600, Note_off_c, 0, 82, 0
2, 381600, Note_on_c, 0, 80, 51
2, 381840, Note_off_c, 0, 80, 0
2, 381840, Note_on_c, 0, 78, 50
2, 382080, Note_off_c, 0, 78, 0
2, 382080, Note_on_c, 0, 77, 46
2, 382800, Note_off_c, 0, 77, 0
2, 383040, Note_on_c, 0, 77, 52
2, 383400, Note_off_c, 0, 77, 0
2, 383520, Note_on_c, 0, 77, 55
2, 384240, Note_off_c, 0, 77, 0
2, 384480, Note_on_c, 0, 77, 61
2, 384840, Note_off_c, 0, 77, 0
2, 384960, Note_on_c, 0, 77, 63
2, 386400, Note_off_c, 0, 77, 0
2, 386400, Note_on_c, 0, 75, 56
2, 386760, Note_off_c, 0, 75, 0
2, 387360, Note_on_c, 0, 75, 53
2, 387600, Note_off_c, 0, 75, 0
2, 387600, Note_on_c, 0, 77, 55
2, 387840, Note_off_c, 0, 77, 0
2, 387840, Note_on_c, 0, 78, 59
2, 388560, Note_off_c, 0, 78, 0
2, 388800, Note_on_c, 0, 78, 63
2, 389160, Note_off_c, 0, 78, 0
2, 389280, Note_on_c, 0, 78, 66
2, 390000, Note_off_c, 0, 78, 0
2, 390240, Note_on_c, 0, 78, 71
2, 390600, Note_off_c, 0, 78, 0
2, 390720, Note_on_c, 0, 78, 77
2, 392160, Note_off_c, 0, 78, 0
2, 392160, Note_on_c, 0, 77, 55
2, 392520, Note_off_c, 0, 77, 0
2, 393600, Note_on_c, 0, 70, 34
2, 394320, Note_off_c, 0, 70, 0
2, 394560, Note_on_c, 0, 70, 37
2, 394920, Note_off_c, 0, 70, 0
2, 395040, Note_on_c, 0, 70, 39
2, 395760, Note_off_c, 0, 70, 0
2, 396000, Note_on_c, 0, 70, 43
2, 396360, Note_off_c, 0, 70, 0
2, 396480, Note_on_c, 0, 70, 44
2, 397920, Note_off_c, 0, 70, 0
2, 397920, Note_on_c, 0, 68, 39
2, 398280, Note_off_c, 0, 68, 0
2, 399360, Note_on_c, 0, 68, 37
2, 400080, Note_off_c, 0, 68, 0
2, 400320, Note_on_c, 0, 68, 36
2, 400680, Note_off_c, 0, 68, 0
2, 400800, Note_on_c, 0, 68, 35
2, 401520, Note_off_c, 0, 68, 0
2, 401760, Note_on_c, 0, 68, 34
2, 402120, Note_off_c, 0, 68, 0
2, 402240, Note_on_c, 0, 61, 33
2, 402600, Note_off_c, 0, 61, 0
2, 408840, Note_on_c, 0, 77, 55
2, 408960, Note_off_c, 0, 77, 0
2, 408960, Note_on_c, 0, 89, 66
2, 409680, Note_off_c, 0, 89, 0
2, 409680, Note_on_c, 0, 87, 53
2, 409920, Note_off_c, 0, 87, 0
2, 409920, Note_on_c, 0, 86, 52
2, 410160, Note_off_c, 0, 86, 0
2, 410160, Note_on_c, 0, 83, 50
2, 410400, Note_off_c, 0, 83, 0
2, 410400, Note_on_c, 0, 82, 49
2, 410640, Note_off_c, 0, 82, 0
2, 410640, Note_on_c, 0, 80, 47
2, 410880, Note_off_c, 0, 80, 0
2, 410880, Note_on_c, 0, 78, 45
2, 411120, Note_off_c, 0, 78, 0
2, 414600, Note_on_c, 0, 75, 66
2, 414720, Note_off_c, 0, 75, 0
2, 414720, Note_on_c, 0, 87, 76
2, 415440, Note_off_c, 0, 87, 0
2, 415440, Note_on_c, 0, 85, 58
2, 415680, Note_off_c, 0, 85, 0
2, 415680, Note_on_c, 0, 84, 56
2, 415920, Note_off_c, 0, 84, 0
2, 415920, Note_on_c, 0, 82, 55
2, 416160, Note_off_c, 0, 82, 0
2, 416160, Note_on_c, 0, 80, 54
2, 416400, Note_off_c, 0, 80, 0
2, 416400, Note_on_c, 0, 78, 52
2, 416640, Note_off_c, 0, 78, 0
2, 416640, Note_on_c, 0, 77, 52
2, 417360, Note_off_c, 0, 77, 0
2, 417600, Note_on_c, 0, 77, 56
2, 417960, Note_off_c, 0, 77, 0
2, 418080, Note_on_c, 0, 77, 58
2, 418800, Note_off_c, 0, 77, 0
2, 419040, Note_on_c, 0, 77, 61
2, 419400, Note_off_c, 0, 77, 0
2, 419520, Note_on_c, 0, 77, 62
2, 420960, Note_off_c, 0, 77, 0
2, 420960, Note_on_c, 0, 75, 58
2, 421320, Note_off_c, 0, 75, 0
2, 421920, Note_on_c, 0, 75, 54
2, 422160, Note_off_c, 0, 75, 0
2, 422160, Note_on_c, 0, 77, 58
2, 422400, Note_off_c, 0, 77, 0
2, 422400, Note_on_c, 0, 78, 60
2, 423120, Note_off_c, 0, 78, 0
2, 423360, Note_on_c, 0, 78, 63
2, 423720, Note_off_c, 0, 78, 0
2, 423840, Note_on_c, 0, 78, 65
2, 424560, Note_off_c, 0, 78, 0
2, 424800, Note_on_c, 0, 78, 69
2, 425160, Note_off_c, 0, 78, 0
2, 425280, Note_on_c, 0, 78, 80
2, 426720, Note_off_c, 0, 78, 0
2, 426720, Note_on_c, 0, 77, 64
2, 427080, Note_off_c, 0, 77, 0
2, 428160, Note_on_c, 0, 70, 32
2, 428880, Note_off_c, 0, 70, 0
2, 429120, Note_on_c, 0, 70, 34
2, 429480, Note_off_c, 0, 70, 0
2, 429600, Note_on_c, 0, 70, 36
2, 430320, Note_off_c, 0, 70, 0
2, 430560, Note_on_c, 0, 70, 38
2, 430920, Note_off_c, 0, 70, 0
2, 431040, Note_on_c, 0, 70, 41
2, 432480, Note_off_c, 0, 70, 0
2, 432480, Note_on_c, 0, 69, 36
2, 433920, Note_off_c, 0, 69, 0
2, 433920, Note_on_c, 0, 68, 37
2, 434640, Note_off_c, 0, 68, 0
2, 434880, Note_on_c, 0, 68, 36
2, 435240, Note_off_c, 0, 68, 0
2, 435360, Note_on_c, 0, 68, 36
2, 436080, Note_off_c, 0, 68, 0
2, 436320, Note_on_c, 0, 68, 36
2, 436680, Note_off_c, 0, 68, 0
2, 436800, Note_on_c, 0, 61, 36
2, 437160, Note_off_c, 0, 61, 0
2, 438240, Note_on_c, 0, 61, 35
2, 438960, Note_off_c, 0, 61, 0
2, 439200, Note_on_c, 0, 61, 34
2, 439560, Note_off_c, 0, 61, 0
2, 439680, Note_on_c, 0, 61, 34
2, 440400, Note_off_c, 0, 61, 0
2, 440640, Note_on_c, 0, 61, 34
2, 441000, Note_off_c, 0, 61, 0
2, 441120, Note_on_c, 0, 60, 34
2, 444000, Note_off_c, 0, 60, 0
2, 444000, Note_on_c, 0, 64, 32
2, 444720, Note_off_c, 0, 64, 0
2, 444960, Note_on_c, 0, 64, 32
2, 445320, Note_off_c, 0, 64, 0
2, 445440, Note_on_c, 0, 64, 32
2, 446160, Note_off_c, 0, 64, 0
2, 446400, Note_on_c, 0, 64, 38
2, 446760, Note_off_c, 0, 64, 0
2, 446880, Note_on_c, 0, 65, 39
2, 447360, Note_off_c, 0, 65, 0
2, 447360, Note_on_c, 0, 56, 40
2, 447840, Note_off_c, 0, 56, 0
2, 447840, Note_on_c, 0, 52, 41
2, 448320, Note_off_c, 0, 52, 0
2, 448320, Note_on_c, 0, 53, 42
2, 448800, Note_off_c, 0, 53, 0
2, 448800, Note_on_c, 0, 56, 43
2, 449280, Note_off_c, 0, 56, 0
2, 449280, Note_on_c, 0, 60, 44
2, 449760, Note_off_c, 0, 60, 0
2, 449760, Note_on_c, 0, 61, 45
2, 450240, Note_off_c, 0, 61, 0
2, 450240, Note_on_c, 0, 58, 46
2, 450720, Note_off_c, 0, 58, 0
2, 450720, Note_on_c, 0, 64, 47
2, 451200, Note_off_c, 0, 64, 0
2, 451200, Note_on_c, 0, 65, 48
2, 451680, Note_off_c, 0, 65, 0
2, 451680, Note_on_c, 0, 60, 49
2, 452160, Note_off_c, 0, 60, 0
2, 452160, Note_on_c, 0, 67, 50
2, 452640, Note_off_c, 0, 67, 0
2, 452640, Note_on_c, 0, 68, 50
2, 453120, Note_on_c, 0, 65, 51
2, 453600, Note_off_c, 0, 65, 0
2, 453600, Note_off_c, 0, 68, 0
2, 453600, Note_on_c, 0, 70, 52
2, 454080, Note_off_c, 0, 70, 0
2, 454080, Note_on_c, 0, 72, 53
2, 455040, Note_off_c, 0, 72, 0
2, 455040, Note_on_c, 0, 75, 55
2, 455280, Note_off_c, 0, 75, 0
2, 455280, Note_on_c, 0, 73, 55
2, 455520, Note_off_c, 0, 73, 0
2, 455520, Note_on_c, 0, 72, 56
2, 456480, Note_off_c, 0, 72, 0
2, 456480, Note_on_c, 0, 70, 51
2, 456960, Note_off_c, 0, 70, 0
2, 456960, Note_on_c, 0, 68, 48
2, 457440, Note_off_c, 0, 68, 0
2, 458160, Note_on_c, 0, 48, 45
2, 458640, Note_off_c, 0, 48, 0
2, 458640, Note_on_c, 0, 53, 46
2, 459120, Note_off_c, 0, 53, 0
2, 459120, Note_on_c, 0, 56, 48
2, 459600, Note_off_c, 0, 56, 0
2, 459600, Note_on_c, 0, 52, 49
2, 460080, Note_off_c, 0, 52, 0
2, 460080, Note_on_c, 0, 53, 51
2, 460560, Note_off_c, 0, 53, 0
2, 460560, Note_on_c, 0, 56, 52
2, 461040, Note_off_c, 0, 56, 0
2, 461040, Note_on_c, 0, 60, 54
2, 461520, Note_off_c, 0, 60, 0
2, 461520, Note_on_c, 0, 61, 55
2, 462000, Note_off_c, 0, 61, 0
2, 462000, Note_on_c, 0, 58, 57
2, 462480, Note_off_c, 0, 58, 0
2, 462480, Note_on_c, 0, 64, 58
2, 462960, Note_off_c, 0, 64, 0
2, 462960, Note_on_c, 0, 65, 60
2, 463440, Note_off_c, 0, 65, 0
2, 463440, Note_on_c, 0, 60, 61
2, 463920, Note_off_c, 0, 60, 0
2, 463920, Note_on_c, 0, 67, 62
2, 464400, Note_off_c, 0, 67, 0
2, 464400, Note_on_c, 0, 68, 64
2, 464880, Note_off_c, 0, 68, 0
2, 464880, Note_on_c, 0, 65, 65
2, 465360, Note_off_c, 0, 65, 0
2, 465360, Note_on_c, 0, 70, 67
2, 465600, Note_on_c, 0, 72, 68
2, 465840, Note_off_c, 0, 70, 0
2, 466320, Note_off_c, 0, 72, 0
2, 466560, Note_on_c, 0, 75, 70
2, 466800, Note_off_c, 0, 75, 0
2, 466800, Note_on_c, 0, 73, 71
2, 467040, Note_off_c, 0, 73, 0
2, 467040, Note_on_c, 0, 72, 69
2, 467760, Note_off_c, 0, 72, 0
2, 467760, Note_on_c, 0, 73, 63
2, 468000, Note_off_c, 0, 73, 0
2, 468000, Note_on_c, 0, 70, 61
2, 468240, Note_off_c, 0, 70, 0
2, 468240, Note_on_c, 0, 72, 59
2, 468480, Note_off_c, 0, 72, 0
2, 468480, Note_on_c, 0, 68, 57
2, 468960, Note_off_c, 0, 68, 0
2, 469440, Note_on_c, 0, 72, 44
2, 469680, Note_off_c, 0, 72, 0
2, 469920, Note_on_c, 0, 72, 44
2, 470400, Note_off_c, 0, 72, 0
2, 470400, Note_on_c, 0, 71, 45
2, 470640, Note_off_c, 0, 71, 0
2, 470640, Note_on_c, 0, 72, 45
2, 470880, Note_off_c, 0, 72, 0
2, 470880, Note_on_c, 0, 73, 52
2, 471120, Note_off_c, 0, 73, 0
2, 471360, Note_on_c, 0, 73, 46
2, 471600, Note_off_c, 0, 73, 0
2, 472320, Note_on_c, 0, 73, 54
2, 472560, Note_off_c, 0, 73, 0
2, 472800, Note_on_c, 0, 73, 48
2, 473280, Note_off_c, 0, 73, 0
2, 473280, Note_on_c, 0, 72, 48
2, 473520, Note_off_c, 0, 72, 0
2, 473520, Note_on_c, 0, 73, 49
2, 473760, Note_off_c, 0, 73, 0
2, 473760, Note_on_c, 0, 75, 56
2, 474000, Note_off_c, 0, 75, 0
2, 474240, Note_on_c, 0, 75, 50
2, 474480, Note_off_c, 0, 75, 0
2, 475200, Note_on_c, 0, 75, 58
2, 475440, Note_off_c, 0, 75, 0
2, 475680, Note_on_c, 0, 75, 51
2, 476160, Note_off_c, 0, 75, 0
2, 476160, Note_on_c, 0, 74, 52
2, 476400, Note_off_c, 0, 74, 0
2, 476400, Note_on_c, 0, 75, 52
2, 476640, Note_off_c, 0, 75, 0
2, 476640, Note_on_c, 0, 77, 59
2, 476880, Note_off_c, 0, 77, 0
2, 477120, Note_on_c, 0, 77, 53
2, 477360, Note_off_c, 0, 77, 0
2, 478080, Note_on_c, 0, 77, 60
2, 478320, Note_off_c, 0, 77, 0
2, 478560, Note_on_c, 0, 77, 54
2, 478640, Note_off_c, 0, 77, 0
2, 478640, Note_on_c, 0, 79, 54
2, 478720, Note_off_c, 0, 79, 0
2, 478720, Note_on_c, 0, 77, 53
2, 478800, Note_off_c, 0, 77, 0
2, 478800, Note_on_c, 0, 79, 53
2, 478880, Note_off_c, 0, 79, 0
2, 478880, Note_on_c, 0, 77, 52
2, 478960, Note_off_c, 0, 77, 0
2, 478960, Note_on_c, 0, 79, 52
2, 479040, Note_off_c, 0, 79, 0
2, 479040, Note_on_c, 0, 77, 51
2, 479120, Note_off_c, 0, 77, 0
2, 479120, Note_on_c, 0, 79, 51
2, 479200, Note_off_c, 0, 79, 0
2, 479200, Note_on_c, 0, 77, 51
2, 479280, Note_off_c, 0, 77, 0
2, 479280, Note_on_c, 0, 76, 50
2, 479400, Note_off_c, 0, 76, 0
2, 479400, Note_on_c, 0, 77, 49
2, 479520, Note_off_c, 0, 77, 0
2, 479520, Note_on_c, 0, 79, 59
2, 479760, Note_off_c, 0, 79, 0
2, 480000, Note_on_c, 0, 72, 55
2, 480720, Note_off_c, 0, 72, 0
2, 480960, Note_on_c, 0, 72, 28
2, 481440, Note_off_c, 0, 72, 0
2, 481440, Note_on_c, 0, 77, 29
2, 481920, Note_off_c, 0, 77, 0
2, 481920, Note_on_c, 0, 80, 30
2, 482400, Note_off_c, 0, 80, 0
2, 482400, Note_on_c, 0, 76, 31
2, 483120, Note_off_c, 0, 76, 0
2, 483120, Note_on_c, 0, 77, 32
2, 483600, Note_off_c, 0, 77, 0
2, 483600, Note_on_c, 0, 80, 33
2, 484080, Note_off_c, 0, 80, 0
2, 484080, Note_on_c, 0, 84, 34
2, 484560, Note_off_c, 0, 84, 0
2, 484560, Note_on_c, 0, 85, 35
2, 485040, Note_off_c, 0, 85, 0
2, 485040, Note_on_c, 0, 82, 36
2, 485520, Note_off_c, 0, 82, 0
2, 485520, Note_on_c, 0, 88, 37
2, 486000, Note_off_c, 0, 88, 0
2, 486000, Note_on_c, 0, 89, 38
2, 486480, Note_off_c, 0, 89, 0
2, 486480, Note_on_c, 0, 84, 39
2, 486960, Note_off_c, 0, 84, 0
2, 486960, Note_on_c, 0, 80, 40
2, 487440, Note_off_c, 0, 80, 0
2, 487440, Note_on_c, 0, 82, 41
2, 487920, Note_off_c, 0, 82, 0
2, 487920, Note_on_c, 0, 85, 42
2, 488400, Note_off_c, 0, 85, 0
2, 488400, Note_on_c, 0, 79, 43
2, 488880, Note_off_c, 0, 79, 0
2, 488880, Note_on_c, 0, 80, 44
2, 489360, Note_off_c, 0, 80, 0
2, 489360, Note_on_c, 0, 80, 45
2, 489840, Note_off_c, 0, 80, 0
2, 489840, Note_on_c, 0, 80, 46
2, 490080, Note_off_c, 0, 80, 0
2, 490080, Note_on_c, 0, 80, 52
2, 491040, Note_off_c, 0, 80, 0
2, 491040, Note_on_c, 0, 79, 48
2, 491520, Note_off_c, 0, 79, 0
2, 491520, Note_on_c, 0, 80, 52
2, 492480, Note_off_c, 0, 80, 0
2, 492480, Note_on_c, 0, 79, 45
2, 492960, Note_off_c, 0, 79, 0
2, 492960, Note_on_c, 0, 77, 43
2, 493440, Note_off_c, 0, 77, 0
2, 493440, Note_on_c, 0, 79, 41
2, 493920, Note_off_c, 0, 79, 0
2, 493920, Note_on_c, 0, 76, 38
2, 494400, Note_off_c, 0, 76, 0
2, 494400, Note_on_c, 0, 77, 36
2, 494640, Note_off_c, 0, 77, 0
2, 494640, Note_on_c, 0, 75, 35
2, 494880, Note_off_c, 0, 75, 0
2, 494880, Note_on_c, 0, 73, 34
2, 495120, Note_off_c, 0, 73, 0
2, 495120, Note_on_c, 0, 72, 33
2, 495360, Note_off_c, 0, 72, 0
2, 495360, Note_on_c, 0, 70, 32
2, 495600, Note_off_c, 0, 70, 0
2, 495600, Note_on_c, 0, 68, 31
2, 495840, Note_off_c, 0, 68, 0
2, 495840, Note_on_c, 0, 68, 36
2, 496800, Note_off_c, 0, 68, 0
2, 496800, Note_on_c, 0, 67, 31
2, 497280, Note_off_c, 0, 67, 0
2, 497280, Note_on_c, 0, 68, 42
2, 498240, Note_off_c, 0, 68, 0
2, 498240, Note_on_c, 0, 67, 36
2, 498720, Note_off_c, 0, 67, 0
2, 498720, Note_on_c, 0, 65, 35
2, 499200, Note_off_c, 0, 65, 0
2, 499200, Note_on_c, 0, 67, 33
2, 499680, Note_off_c, 0, 67, 0
2, 499680, Note_on_c, 0, 64, 31
2, 500160, Note_off_c, 0, 64, 0
2, 500160, Note_on_c, 0, 65, 30
2, 500640, Note_off_c, 0, 65, 0
2, 501120, Note_on_c, 0, 60, 31
2, 501600, Note_off_c, 0, 60, 0
2, 501600, Note_on_c, 0, 64, 37
2, 502560, Note_off_c, 0, 64, 0
2, 502560, Note_on_c, 0, 65, 45
2, 503040, Note_off_c, 0, 65, 0
2, 503040, Note_on_c, 0, 67, 50
2, 504000, Note_off_c, 0, 67, 0
2, 504000, Note_on_c, 0, 68, 58
2, 504480, Note_off_c, 0, 68, 0
2, 504480, Note_on_c, 0, 72, 71
2, 505200, Note_off_c, 0, 72, 0
2, 505200, Note_on_c, 0, 70, 63
2, 505440, Note_off_c, 0, 70, 0
2, 505440, Note_on_c, 0, 68, 60
2, 505680, Note_off_c, 0, 68, 0
2, 505680, Note_on_c, 0, 67, 58
2, 505920, Note_off_c, 0, 67, 0
2, 505920, Note_on_c, 0, 70, 56
2, 506160, Note_off_c, 0, 70, 0
2, 506160, Note_on_c, 0, 68, 54
2, 506400, Note_off_c, 0, 68, 0
2, 506400, Note_on_c, 0, 67, 51
2, 506640, Note_off_c, 0, 67, 0
2, 506640, Note_on_c, 0, 65, 49
2, 506880, Note_off_c, 0, 65, 0
2, 506880, Note_on_c, 0, 72, 47
2, 506960, Note_off_c, 0, 72, 0
2, 506960, Note_on_c, 0, 73, 48
2, 507040, Note_off_c, 0, 73, 0
2, 507040, Note_on_c, 0, 72, 49
2, 507120, Note_off_c, 0, 72, 0
2, 507120, Note_on_c, 0, 71, 50
2, 507240, Note_off_c, 0, 71, 0
2, 507240, Note_on_c, 0, 72, 51
2, 507360, Note_off_c, 0, 72, 0
2, 507360, Note_on_c, 0, 79, 55
2, 508320, Note_off_c, 0, 79, 0
2, 508320, Note_on_c, 0, 80, 65
2, 508800, Note_off_c, 0, 80, 0
2, 508800, Note_on_c, 0, 82, 69
2, 509280, Note_off_c, 0, 82, 0
2, 509760, Note_on_c, 0, 88, 79
2, 510000, Note_off_c, 0, 88, 0
2, 510240, Note_on_c, 0, 89, 83
2, 510480, Note_off_c, 0, 89, 0
2, 511200, Pitch_bend_c, 0, 8192
2, 511200, Control_c, 0, 1, 0
2, 511200, Control_c, 0, 93, 1
2, 511200, Control_c, 0, 91, 64
2, 511200, Control_c, 0, 64, 0
2, 512400, Control_c, 0, 64, 0
2, 520080, Note_on_c, 0, 67, 56
2, 520200, Note_off_c, 0, 67, 0
2, 520320, Note_on_c, 0, 72, 65
2, 520440, Note_off_c, 0, 72, 0
2, 520560, Note_on_c, 0, 72, 56
2, 520680, Note_off_c, 0, 72, 0
2, 520800, Note_on_c, 0, 72, 57
2, 520920, Note_off_c, 0, 72, 0
2, 521040, Note_on_c, 0, 67, 57
2, 521160, Note_off_c, 0, 67, 0
2, 521280, Note_on_c, 0, 76, 69
2, 521400, Note_off_c, 0, 76, 0
2, 521520, Note_on_c, 0, 76, 58
2, 521640, Note_off_c, 0, 76, 0
2, 521760, Note_on_c, 0, 76, 59
2, 521880, Note_off_c, 0, 76, 0
2, 522000, Note_on_c, 0, 72, 59
2, 522120, Note_off_c, 0, 72, 0
2, 522240, Note_on_c, 0, 79, 72
2, 522360, Note_off_c, 0, 79, 0
2, 522480, Note_on_c, 0, 79, 60
2, 522600, Note_off_c, 0, 79, 0
2, 522720, Note_on_c, 0, 79, 61
2, 522840, Note_off_c, 0, 79, 0
2, 522840, Note_on_c, 0, 81, 61
2, 522960, Note_off_c, 0, 81, 0
2, 522960, Note_on_c, 0, 79, 61
2, 523080, Note_off_c, 0, 79, 0
2, 523080, Note_on_c, 0, 77, 62
2, 523200, Note_off_c, 0, 77, 0
2, 523200, Note_on_c, 0, 76, 73
2, 523320, Note_off_c, 0, 76, 0
2, 523440, Note_on_c, 0, 76, 62
2, 523560, Note_off_c, 0, 76, 0
2, 523680, Note_on_c, 0, 76, 63
2, 523800, Note_off_c, 0, 76, 0
2, 523800, Note_on_c, 0, 74, 63
2, 523920, Note_off_c, 0, 74, 0
2, 523920, Note_on_c, 0, 76, 63
2, 524040, Note_off_c, 0, 76, 0
2, 524040, Note_on_c, 0, 72, 64
2, 524160, Note_off_c, 0, 72, 0
2, 524160, Note_on_c, 0, 81, 73
2, 524280, Note_off_c, 0, 81, 0
2, 524400, Note_on_c, 0, 81, 64
2, 524520, Note_off_c, 0, 81, 0
2, 524640, Note_on_c, 0, 81, 65
2, 524700, Note_off_c, 0, 81, 0
2, 524760, Note_on_c, 0, 82, 65
2, 524820, Note_off_c, 0, 82, 0
2, 524880, Note_on_c, 0, 81, 65
2, 524940, Note_off_c, 0, 81, 0
2, 525000, Note_on_c, 0, 79, 65
2, 525060, Note_off_c, 0, 79, 0
2, 525120, Note_on_c, 0, 77, 74
2, 525240, Note_off_c, 0, 77, 0
2, 525360, Note_on_c, 0, 77, 66
2, 525480, Note_off_c, 0, 77, 0
2, 525600, Note_on_c, 0, 77, 67
2, 525720, Note_off_c, 0, 77, 0
2, 525720, Note_on_c, 0, 76, 67
2, 525840, Note_off_c, 0, 76, 0
2, 525840, Note_on_c, 0, 77, 67
2, 525960, Note_off_c, 0, 77, 0
2, 525960, Note_on_c, 0, 74, 67
2, 526080, Note_off_c, 0, 74, 0
2, 526080, Note_on_c, 0, 89, 76
2, 526200, Note_off_c, 0, 89, 0
2, 526320, Note_on_c, 0, 89, 68
2, 526440, Note_off_c, 0, 89, 0
2, 526560, Note_on_c, 0, 88, 69
2, 526680, Note_off_c, 0, 88, 0
2, 526680, Note_on_c, 0, 87, 69
2, 526800, Note_off_c, 0, 87, 0
2, 526800, Note_on_c, 0, 88, 69
2, 526920, Note_off_c, 0, 88, 0
2, 526920, Note_on_c, 0, 84, 69
2, 527040, Note_off_c, 0, 84, 0
2, 527040, Note_on_c, 0, 89, 78
2, 527160, Note_off_c, 0, 89, 0
2, 527280, Note_on_c, 0, 89, 70
2, 527400, Note_off_c, 0, 89, 0
2, 527520, Note_on_c, 0, 88, 71
2, 527640, Note_off_c, 0, 88, 0
2, 527640, Note_on_c, 0, 87, 71
2, 527760, Note_off_c, 0, 87, 0
2, 527760, Note_on_c, 0, 88, 71
2, 527880, Note_off_c, 0, 88, 0
2, 527880, Note_on_c, 0, 84, 71
2, 528000, Note_off_c, 0, 84, 0
2, 528000, Note_on_c, 0, 86, 82
2, 528120, Note_off_c, 0, 86, 0
2, 528120, Note_on_c, 0, 84, 72
2, 528240, Note_off_c, 0, 84, 0
2, 528240, Note_on_c, 0, 83, 72
2, 528360, Note_off_c, 0, 83, 0
2, 528360, Note_on_c, 0, 81, 72
2, 528480, Note_off_c, 0, 81, 0
2, 528480, Note_on_c, 0, 79, 73
2, 528600, Note_off_c, 0, 79, 0
2, 528600, Note_on_c, 0, 77, 73
2, 528720, Note_off_c, 0, 77, 0
2, 528720, Note_on_c, 0, 76, 73
2, 528840, Note_off_c, 0, 76, 0
2, 528840, Note_on_c, 0, 74, 73
2, 528960, Note_off_c, 0, 74, 0
2, 528960, Note_on_c, 0, 72, 74
2, 529080, Note_off_c, 0, 72, 0
2, 529080, Note_on_c, 0, 71, 74
2, 529200, Note_off_c, 0, 71, 0
2, 529200, Note_on_c, 0, 72, 74
2, 529320, Note_off_c, 0, 72, 0
2, 529320, Note_on_c, 0, 74, 74
2, 529440, Note_off_c, 0, 74, 0
2, 529440, Note_on_c, 0, 76, 75
2, 529560, Note_off_c, 0, 76, 0
2, 529560, Note_on_c, 0, 77, 75
2, 529680, Note_off_c, 0, 77, 0
2, 529680, Note_on_c, 0, 79, 75
2, 529800, Note_off_c, 0, 79, 0
2, 529800, Note_on_c, 0, 76, 75
2, 529920, Note_off_c, 0, 76, 0
2, 529920, Note_on_c, 0, 77, 84
2, 530040, Note_off_c, 0, 77, 0
2, 530040, Note_on_c, 0, 74, 76
2, 530160, Note_off_c, 0, 74, 0
2, 530160, Note_on_c, 0, 77, 76
2, 530280, Note_off_c, 0, 77, 0
2, 530280, Note_on_c, 0, 74, 76
2, 530400, Note_off_c, 0, 74, 0
2, 530400, Note_on_c, 0, 76, 76
2, 530520, Note_off_c, 0, 76, 0
2, 530520, Note_on_c, 0, 75, 77
2, 530640, Note_off_c, 0, 75, 0
2, 530640, Note_on_c, 0, 76, 77
2, 530760, Note_off_c, 0, 76, 0
2, 530760, Note_on_c, 0, 72, 77
2, 530880, Note_off_c, 0, 72, 0
2, 530880, Note_on_c, 0, 77, 86
2, 531000, Note_off_c, 0, 77, 0
2, 531000, Note_on_c, 0, 74, 78
2, 531120, Note_off_c, 0, 74, 0
2, 531120, Note_on_c, 0, 77, 78
2, 531240, Note_off_c, 0, 77, 0
2, 531240, Note_on_c, 0, 74, 78
2, 531360, Note_off_c, 0, 74, 0
2, 531360, Note_on_c, 0, 76, 78
2, 531480, Note_off_c, 0, 76, 0
2, 531480, Note_on_c, 0, 75, 79
2, 531600, Note_off_c, 0, 75, 0
2, 531600, Note_on_c, 0, 76, 79
2, 531720, Note_off_c, 0, 76, 0
2, 531720, Note_on_c, 0, 72, 79
2, 531840, Note_off_c, 0, 72, 0
2, 531840, Note_on_c, 0, 81, 88
2, 531960, Note_off_c, 0, 81, 0
2, 531960, Note_on_c, 0, 80, 79
2, 532080, Note_off_c, 0, 80, 0
2, 532080, Note_on_c, 0, 81, 79
2, 532200, Note_off_c, 0, 81, 0
2, 532200, Note_on_c, 0, 80, 78
2, 532320, Note_off_c, 0, 80, 0
2, 532320, Note_on_c, 0, 81, 78
2, 532440, Note_off_c, 0, 81, 0
2, 532440, Note_on_c, 0, 79, 77
2, 532560, Note_off_c, 0, 79, 0
2, 532560, Note_on_c, 0, 77, 77
2, 532680, Note_off_c, 0, 77, 0
2, 532680, Note_on_c, 0, 76, 76
2, 532800, Note_off_c, 0, 76, 0
2, 532800, Note_on_c, 0, 74, 76
2, 532920, Note_off_c, 0, 74, 0
2, 532920, Note_on_c, 0, 72, 75
2, 533040, Note_off_c, 0, 72, 0
2, 533040, Note_on_c, 0, 71, 75
2, 533160, Note_off_c, 0, 71, 0
2, 533160, Note_on_c, 0, 69, 74
2, 533280, Note_off_c, 0, 69, 0
2, 533280, Note_on_c, 0, 67, 74
2, 533400, Note_off_c, 0, 67, 0
2, 533400, Note_on_c, 0, 65, 73
2, 533520, Note_off_c, 0, 65, 0
2, 533520, Note_on_c, 0, 64, 73
2, 533640, Note_off_c, 0, 64, 0
2, 533640, Note_on_c, 0, 62, 72
2, 533760, Note_off_c, 0, 62, 0
2, 533760, Note_on_c, 0, 60, 72
2, 533880, Note_off_c, 0, 60, 0
2, 534000, Note_on_c, 0, 55, 57
2, 534120, Note_off_c, 0, 55, 0
2, 534240, Note_on_c, 0, 55, 57
2, 534360, Note_off_c, 0, 55, 0
2, 534480, Note_on_c, 0, 60, 57
2, 534600, Note_off_c, 0, 60, 0
2, 534720, Note_on_c, 0, 55, 70
2, 534840, Note_off_c, 0, 55, 0
2, 534960, Note_on_c, 0, 55, 56
2, 535080, Note_off_c, 0, 55, 0
2, 535200, Note_on_c, 0, 55, 56
2, 535320, Note_off_c, 0, 55, 0
2, 535440, Note_on_c, 0, 60, 55
2, 535560, Note_off_c, 0, 60, 0
2, 535680, Note_on_c, 0, 55, 69
2, 535800, Note_off_c, 0, 55, 0
2, 535920, Note_on_c, 0, 62, 55
2, 536040, Note_off_c, 0, 62, 0
2, 536160, Note_on_c, 0, 62, 54
2, 536280, Note_off_c, 0, 62, 0
2, 536400, Note_on_c, 0, 62, 54
2, 536520, Note_off_c, 0, 62, 0
2, 536640, Note_on_c, 0, 62, 54
2, 536760, Note_off_c, 0, 62, 0
2, 536880, Note_on_c, 0, 62, 53
2, 537000, Note_off_c, 0, 62, 0
2, 537120, Note_on_c, 0, 62, 53
2, 537240, Note_off_c, 0, 62, 0
2, 537240, Note_on_c, 0, 64, 53
2, 537360, Note_off_c, 0, 64, 0
2, 537360, Note_on_c, 0, 62, 53
2, 537480, Note_off_c, 0, 62, 0
2, 537480, Note_on_c, 0, 64, 53
2, 537600, Note_off_c, 0, 64, 0
2, 537600, Note_on_c, 0, 60, 60
2, 537720, Note_off_c, 0, 60, 0
2, 537840, Note_on_c, 0, 55, 52
2, 537960, Note_off_c, 0, 55, 0
2, 538080, Note_on_c, 0, 55, 52
2, 538200, Note_off_c, 0, 55, 0
2, 538320, Note_on_c, 0, 60, 51
2, 538440, Note_off_c, 0, 60, 0
2, 538560, Note_on_c, 0, 55, 59
2, 538680, Note_off_c, 0, 55, 0
2, 538800, Note_on_c, 0, 55, 51
2, 538920, Note_off_c, 0, 55, 0
2, 539040, Note_on_c, 0, 55, 51
2, 539160, Note_off_c, 0, 55, 0
2, 539280, Note_on_c, 0, 60, 50
2, 539400, Note_off_c, 0, 60, 0
2, 539520, Note_on_c, 0, 55, 58
2, 539640, Note_off_c, 0, 55, 0
2, 539760, Note_on_c, 0, 62, 50
2, 539880, Note_off_c, 0, 62, 0
2, 540000, Note_on_c, 0, 62, 49
2, 540120, Note_off_c, 0, 62, 0
2, 540240, Note_on_c, 0, 62, 49
2, 540360, Note_off_c, 0, 62, 0
2, 540480, Note_on_c, 0, 62, 49
2, 540600, Note_off_c, 0, 62, 0
2, 540720, Note_on_c, 0, 62, 48
2, 540840, Note_off_c, 0, 62, 0
2, 540960, Note_on_c, 0, 62, 48
2, 541080, Note_off_c, 0, 62, 0
2, 541080, Note_on_c, 0, 64, 48
2, 541200, Note_off_c, 0, 64, 0
2, 541200, Note_on_c, 0, 62, 48
2, 541320, Note_off_c, 0, 62, 0
2, 541320, Note_on_c, 0, 64, 47
2, 541440, Note_off_c, 0, 64, 0
2, 541440, Note_on_c, 0, 60, 53
2, 541560, Note_off_c, 0, 60, 0
2, 541680, Note_on_c, 0, 55, 47
2, 541800, Note_off_c, 0, 55, 0
2, 541920, Note_on_c, 0, 60, 52
2, 542040, Note_off_c, 0, 60, 0
2, 542160, Note_on_c, 0, 55, 46
2, 542280, Note_off_c, 0, 55, 0
2, 542400, Note_on_c, 0, 60, 46
2, 542760, Note_off_c, 0, 60, 0
2, 543120, Control_c, 0, 64, 0
2, 550800, Note_on_c, 0, 67, 56
2, 550920, Note_off_c, 0, 67, 0
2, 551040, Note_on_c, 0, 72, 65
2, 551160, Note_off_c, 0, 72, 0
2, 551280, Note_on_c, 0, 72, 56
2, 551400, Note_off_c, 0, 72, 0
2, 551520, Note_on_c, 0, 72, 57
2, 551640, Note_off_c, 0, 72, 0
2, 551760, Note_on_c, 0, 67, 57
2, 551880, Note_off_c, 0, 67, 0
2, 552000, Note_on_c, 0, 76, 69
2, 552120, Note_off_c, 0, 76, 0
2, 552240, Note_on_c, 0, 76, 58
2, 552360, Note_off_c, 0, 76, 0
2, 552480, Note_on_c, 0, 76, 59
2, 552600, Note_off_c, 0, 76, 0
2, 552720, Note_on_c, 0, 72, 59
2, 552840, Note_off_c, 0, 72, 0
2, 552960, Note_on_c, 0, 79, 72
2, 553080, Note_off_c, 0, 79, 0
2, 553200, Note_on_c, 0, 79, 60
2, 553320, Note_off_c, 0, 79, 0
2, 553440, Note_on_c, 0, 79, 61
2, 553560, Note_off_c, 0, 79, 0
2, 553560, Note_on_c, 0, 81, 61
2, 553680, Note_off_c, 0, 81, 0
2, 553680, Note_on_c, 0, 79, 61
2, 553800, Note_off_c, 0, 79, 0
2, 553800, Note_on_c, 0, 77, 62
2, 553920, Note_off_c, 0, 77, 0
2, 553920, Note_on_c, 0, 76, 73
2, 554040, Note_off_c, 0, 76, 0
2, 554160, Note_on_c, 0, 76, 62
2, 554280, Note_off_c, 0, 76, 0
2, 554400, Note_on_c, 0, 76, 63
2, 554520, Note_off_c, 0, 76, 0
2, 554520, Note_on_c, 0, 74, 63
2, 554640, Note_off_c, 0, 74, 0
2, 554640, Note_on_c, 0, 76, 63
2, 554760, Note_off_c, 0, 76, 0
2, 554760, Note_on_c, 0, 72, 64
2, 554880, Note_off_c, 0, 72, 0
2, 554880, Note_on_c, 0, 81, 73
2, 555000, Note_off_c, 0, 81, 0
2, 555120, Note_on_c, 0, 81, 64
2, 555240, Note_off_c, 0, 81, 0
2, 555360, Note_on_c, 0, 81, 65
2, 555420, Note_off_c, 0, 81, 0
2, 555480, Note_on_c, 0, 82, 65
2, 555540, Note_off_c, 0, 82, 0
2, 555600, Note_on_c, 0, 81, 65
2, 555660, Note_off_c, 0, 81, 0
2, 555720, Note_on_c, 0, 79, 65
2, 555780, Note_off_c, 0, 79, 0
2, 555840, Note_on_c, 0, 77, 74
2, 555960, Note_off_c, 0, 77, 0
2, 556080, Note_on_c, 0, 77, 66
2, 556200, Note_off_c, 0, 77, 0
2, 556320, Note_on_c, 0, 77, 67
2, 556440, Note_off_c, 0, 77, 0
2, 556440, Note_on_c, 0, 76, 67
2, 556560, Note_off_c, 0, 76, 0
2, 556560, Note_on_c, 0, 77, 67
2, 556680, Note_off_c, 0, 77, 0
2, 556680, Note_on_c, 0, 74, 67
2, 556800, Note_off_c, 0, 74, 0
2, 556800, Note_on_c, 0, 89, 76
2, 556920, Note_off_c, 0, 89, 0
2, 557040, Note_on_c, 0, 89, 68
2, 557160, Note_off_c, 0, 89, 0
2, 557280, Note_on_c, 0, 88, 69
2, 557400, Note_off_c, 0, 88, 0
2, 557400, Note_on_c, 0, 87, 69
2, 557520, Note_off_c, 0, 87, 0
2, 557520, Note_on_c, 0, 88, 69
2, 557640, Note_off_c, 0, 88, 0
2, 557640, Note_on_c, 0, 84, 69
2, 557760, Note_off_c, 0, 84, 0
2, 557760, Note_on_c, 0, 89, 78
2, 557880, Note_off_c, 0, 89, 0
2, 558000, Note_on_c, 0, 89, 70
2, 558120, Note_off_c, 0, 89, 0
2, 558240, Note_on_c, 0, 88, 71
2, 558360, Note_off_c, 0, 88, 0
2, 558360, Note_on_c, 0, 87, 71
2, 558480, Note_off_c, 0, 87, 0
2, 558480, Note_on_c, 0, 88, 71
2, 558600, Note_off_c, 0, 88, 0
2, 558600, Note_on_c, 0, 84, 71
2, 558720, Note_off_c, 0, 84, 0
2, 558720, Note_on_c, 0, 86, 82
2, 558840, Note_off_c, 0, 86, 0
2, 558840, Note_on_c, 0, 84, 72
2, 558960, Note_off_c, 0, 84, 0
2, 558960, Note_on_c, 0, 83, 72
2, 559080, Note_off_c, 0, 83, 0
2, 559080, Note_on_c, 0, 81, 72
2, 559200, Note_off_c, 0, 81, 0
2, 559200, Note_on_c, 0, 79, 73
2, 559320, Note_off_c, 0, 79, 0
2, 559320, Note_on_c, 0, 77, 73
2, 559440, Note_off_c, 0, 77, 0
2, 559440, Note_on_c, 0, 76, 73
2, 559560, Note_off_c, 0, 76, 0
2, 559560, Note_on_c, 0, 74, 73
2, 559680, Note_off_c, 0, 74, 0
2, 559680, Note_on_c, 0, 72, 74
2, 559800, Note_off_c, 0, 72, 0
2, 559800, Note_on_c, 0, 71, 74
2, 559920, Note_off_c, 0, 71, 0
2, 559920, Note_on_c, 0, 72, 74
2, 560040, Note_off_c, 0, 72, 0
2, 560040, Note_on_c, 0, 74, 74
2, 560160, Note_off_c, 0, 74, 0
2, 560160, Note_on_c, 0, 76, 75
2, 560280, Note_off_c, 0, 76, 0
2, 560280, Note_on_c, 0, 77, 75
2, 560400, Note_off_c, 0, 77, 0
2, 560400, Note_on_c, 0, 79, 75
2, 560520, Note_off_c, 0, 79, 0
2, 560520, Note_on_c, 0, 76, 75
2, 560640, Note_off_c, 0, 76, 0
2, 560640, Note_on_c, 0, 77, 84
2, 560760, Note_off_c, 0, 77, 0
2, 560760, Note_on_c, 0, 74, 76
2, 560880, Note_off_c, 0, 74, 0
2, 560880, Note_on_c, 0, 77, 76
2, 561000, Note_off_c, 0, 77, 0
2, 561000, Note_on_c, 0, 74, 76
2, 561120, Note_off_c, 0, 74, 0
2, 561120, Note_on_c, 0, 76, 76
2, 561240, Note_off_c, 0, 76, 0
2, 561240, Note_on_c, 0, 75, 77
2, 561360, Note_off_c, 0, 75, 0
2, 561360, Note_on_c, 0, 76, 77
2, 561480, Note_off_c, 0, 76, 0
2, 561480, Note_on_c, 0, 72, 77
2, 561600, Note_off_c, 0, 72, 0
2, 561600, Note_on_c, 0, 77, 86
2, 561720, Note_off_c, 0, 77, 0
2, 561720, Note_on_c, 0, 74, 78
2, 561840, Note_off_c, 0, 74, 0
2, 561840, Note_on_c, 0, 77, 78
2, 561960, Note_off_c, 0, 77, 0
2, 561960, Note_on_c, 0, 74, 78
2, 562080, Note_off_c, 0, 74, 0
2, 562080, Note_on_c, 0, 76, 78
2, 562200, Note_off_c, 0, 76, 0
2, 562200, Note_on_c, 0, 75, 79
2, 562320, Note_off_c, 0, 75, 0
2, 562320, Note_on_c, 0, 76, 79
2, 562440, Note_off_c, 0, 76, 0
2, 562440, Note_on_c, 0, 72, 79
2, 562560, Note_off_c, 0, 72, 0
2, 562560, Note_on_c, 0, 81, 88
2, 562680, Note_off_c, 0, 81, 0
2, 562680, Note_on_c, 0, 80, 79
2, 562800, Note_off_c, 0, 80, 0
2, 562800, Note_on_c, 0, 81, 79
2, 562920, Note_off_c, 0, 81, 0
2, 562920, Note_on_c, 0, 80, 78
2, 563040, Note_off_c, 0, 80, 0
2, 563040, Note_on_c, 0, 81, 78
2, 563160, Note_off_c, 0, 81, 0
2, 563160, Note_on_c, 0, 79, 77
2, 563280, Note_off_c, 0, 79, 0
2, 563280, Note_on_c, 0, 77, 77
2, 563400, Note_off_c, 0, 77, 0
2, 563400, Note_on_c, 0, 76, 76
2, 563520, Note_off_c, 0, 76, 0
2, 563520, Note_on_c, 0, 74, 76
2, 563640, Note_off_c, 0, 74, 0
2, 563640, Note_on_c, 0, 72, 75
2, 563760, Note_off_c, 0, 72, 0
2, 563760, Note_on_c, 0, 71, 75
2, 563880, Note_off_c, 0, 71, 0
2, 563880, Note_on_c, 0, 69, 74
2, 564000, Note_off_c, 0, 69, 0
2, 564000, Note_on_c, 0, 67, 74
2, 564120, Note_off_c, 0, 67, 0
2, 564120, Note_on_c, 0, 65, 73
2, 564240, Note_off_c, 0, 65, 0
2, 564240, Note_on_c, 0, 64, 73
2, 564360, Note_off_c, 0, 64, 0
2, 564360, Note_on_c, 0, 62, 72
2, 564480, Note_off_c, 0, 62, 0
2, 564480, Note_on_c, 0, 60, 72
2, 564600, Note_off_c, 0, 60, 0
2, 564720, Note_on_c, 0, 55, 57
2, 564840, Note_off_c, 0, 55, 0
2, 564960, Note_on_c, 0, 55, 57
2, 565080, Note_off_c, 0, 55, 0
2, 565200, Note_on_c, 0, 60, 57
2, 565320, Note_off_c, 0, 60, 0
2, 565440, Note_on_c, 0, 55, 70
2, 565560, Note_off_c, 0, 55, 0
2, 565680, Note_on_c, 0, 55, 56
2, 565800, Note_off_c, 0, 55, 0
2, 565920, Note_on_c, 0, 55, 56
2, 566040, Note_off_c, 0, 55, 0
2, 566160, Note_on_c, 0, 60, 55
2, 566280, Note_off_c, 0, 60, 0
2, 566400, Note_on_c, 0, 55, 69
2, 566520, Note_off_c, 0, 55, 0
2, 566640, Note_on_c, 0, 62, 55
2, 566760, Note_off_c, 0, 62, 0
2, 566880, Note_on_c, 0, 62, 54
2, 567000, Note_off_c, 0, 62, 0
2, 567120, Note_on_c, 0, 62, 54
2, 567240, Note_off_c, 0, 62, 0
2, 567360, Note_on_c, 0, 62, 54
2, 567480, Note_off_c, 0, 62, 0
2, 567600, Note_on_c, 0, 62, 53
2, 567720, Note_off_c, 0, 62, 0
2, 567840, Note_on_c, 0, 62, 53
2, 567960, Note_off_c, 0, 62, 0
2, 567960, Note_on_c, 0, 64, 53
2, 568080, Note_off_c, 0, 64, 0
2, 568080, Note_on_c, 0, 62, 53
2, 568200, Note_off_c, 0, 62, 0
2, 568200, Note_on_c, 0, 64, 53
2, 568320, Note_off_c, 0, 64, 0
2, 568320, Note_on_c, 0, 60, 60
2, 568440, Note_off_c, 0, 60, 0
2, 568560, Note_on_c, 0, 55, 52
2, 568680, Note_off_c, 0, 55, 0
2, 568800, Note_on_c, 0, 55, 52
2, 568920, Note_off_c, 0, 55, 0
2, 569040, Note_on_c, 0, 60, 51
2, 569160, Note_off_c, 0, 60, 0
2, 569280, Note_on_c, 0, 55, 59
2, 569400, Note_off_c, 0, 55, 0
2, 569520, Note_on_c, 0, 55, 51
2, 569640, Note_off_c, 0, 55, 0
2, 569760, Note_on_c, 0, 55, 51
2, 569880, Note_off_c, 0, 55, 0
2, 570000, Note_on_c, 0, 60, 50
2, 570120, Note_off_c, 0, 60, 0
2, 570240, Note_on_c, 0, 55, 58
2, 570360, Note_off_c, 0, 55, 0
2, 570480, Note_on_c, 0, 62, 50
2, 570600, Note_off_c, 0, 62, 0
2, 570720, Note_on_c, 0, 62, 49
2, 570840, Note_off_c, 0, 62, 0
2, 570960, Note_on_c, 0, 62, 49
2, 571080, Note_off_c, 0, 62, 0
2, 571200, Note_on_c, 0, 62, 49
2, 571320, Note_off_c, 0, 62, 0
2, 571440, Note_on_c, 0, 62, 48
2, 571560, Note_off_c, 0, 62, 0
2, 571680, Note_on_c, 0, 62, 48
2, 571800, Note_off_c, 0, 62, 0
2, 571800, Note_on_c, 0, 64, 48
2, 571920, Note_off_c, 0, 64, 0
2, 571920, Note_on_c, 0, 62, 48
2, 572040, Note_off_c, 0, 62, 0
2, 572040, Note_on_c, 0, 64, 47
2, 572160, Note_off_c, 0, 64, 0
2, 572160, Note_on_c, 0, 60, 53
2, 572280, Note_off_c, 0, 60, 0
2, 572400, Note_on_c, 0, 55, 47
2, 572520, Note_off_c, 0, 55, 0
2, 572640, Note_on_c, 0, 60, 52
2, 572760, Note_off_c, 0, 60, 0
2, 572880, Note_on_c, 0, 55, 46
2, 573000, Note_off_c, 0, 55, 0
2, 573120, Note_on_c, 0, 60, 46
2, 573480, Note_off_c, 0, 60, 0
2, 573840, Control_c, 0, 64, 0
2, 573840, Note_on_c, 0, 51, 70
2, 573960, Note_off_c, 0, 51, 0
2, 574020, Note_on_c, 0, 58, 70
2, 574080, Note_off_c, 0, 58, 0
2, 574080, Note_on_c, 0, 56, 79
2, 574200, Note_off_c, 0, 56, 0
2, 574320, Note_on_c, 0, 56, 71
2, 574440, Note_off_c, 0, 56, 0
2, 574560, Note_on_c, 0, 56, 71
2, 574680, Note_off_c, 0, 56, 0
2, 574680, Note_on_c, 0, 55, 72
2, 574800, Note_off_c, 0, 55, 0
2, 574800, Note_on_c, 0, 56, 72
2, 574920, Note_off_c, 0, 56, 0
2, 574920, Note_on_c, 0, 58, 72
2, 575040, Note_off_c, 0, 58, 0
2, 575040, Note_on_c, 0, 60, 82
2, 575160, Note_off_c, 0, 60, 0
2, 575280, Note_on_c, 0, 60, 73
2, 575400, Note_off_c, 0, 60, 0
2, 575460, Note_on_c, 0, 61, 74
2, 575520, Note_off_c, 0, 61, 0
2, 575520, Note_on_c, 0, 60, 74
2, 575640, Note_off_c, 0, 60, 0
2, 575640, Note_on_c, 0, 59, 74
2, 575760, Note_off_c, 0, 59, 0
2, 575760, Note_on_c, 0, 60, 74
2, 575880, Note_off_c, 0, 60, 0
2, 575880, Note_on_c, 0, 61, 75
2, 576000, Note_off_c, 0, 61, 0
2, 576000, Note_on_c, 0, 63, 84
2, 576120, Note_off_c, 0, 63, 0
2, 576240, Note_on_c, 0, 63, 75
2, 576360, Note_off_c, 0, 63, 0
2, 576420, Note_on_c, 0, 65, 76
2, 576480, Note_off_c, 0, 65, 0
2, 576480, Note_on_c, 0, 63, 76
2, 576600, Note_off_c, 0, 63, 0
2, 576600, Note_on_c, 0, 62, 76
2, 576720, Note_off_c, 0, 62, 0
2, 576720, Note_on_c, 0, 63, 77
2, 576840, Note_off_c, 0, 63, 0
2, 576840, Note_on_c, 0, 65, 77
2, 576960, Note_off_c, 0, 65, 0
2, 576960, Note_on_c, 0, 67, 84
2, 577080, Note_off_c, 0, 67, 0
2, 577200, Note_on_c, 0, 67, 78
2, 577320, Note_off_c, 0, 67, 0
2, 577440, Note_on_c, 0, 67, 78
2, 577560, Note_off_c, 0, 67, 0
2, 577560, Note_on_c, 0, 63, 79
2, 577680, Note_off_c, 0, 63, 0
2, 577680, Note_on_c, 0, 65, 79
2, 577800, Note_off_c, 0, 65, 0
2, 577800, Note_on_c, 0, 67, 79
2, 577920, Note_off_c, 0, 67, 0
2, 577920, Note_on_c, 0, 68, 89
2, 578040, Note_off_c, 0, 68, 0
2, 578160, Note_on_c, 0, 68, 46
2, 578280, Note_off_c, 0, 68, 0
2, 578400, Note_on_c, 0, 68, 47
2, 578520, Note_off_c, 0, 68, 0
2, 578640, Note_on_c, 0, 63, 47
2, 578760, Note_off_c, 0, 63, 0
2, 578880, Note_on_c, 0, 72, 58
2, 579000, Note_off_c, 0, 72, 0
2, 579120, Note_on_c, 0, 72, 49
2, 579240, Note_off_c, 0, 72, 0
2, 579360, Note_on_c, 0, 72, 50
2, 579480, Note_off_c, 0, 72, 0
2, 579600, Note_on_c, 0, 68, 51
2, 579720, Note_off_c, 0, 68, 0
2, 579840, Note_on_c, 0, 75, 60
2, 579960, Note_off_c, 0, 75, 0
2, 580080, Note_on_c, 0, 75, 52
2, 580200, Note_off_c, 0, 75, 0
2, 580320, Note_on_c, 0, 75, 53
2, 580440, Note_off_c, 0, 75, 0
2, 580440, Note_on_c, 0, 77, 54
2, 580560, Note_off_c, 0, 77, 0
2, 580560, Note_on_c, 0, 75, 54
2, 580680, Note_off_c, 0, 75, 0
2, 580680, Note_on_c, 0, 74, 55
2, 580800, Note_off_c, 0, 74, 0
2, 580800, Note_on_c, 0, 75, 66
2, 580920, Note_off_c, 0, 75, 0
2, 581040, Note_on_c, 0, 75, 56
2, 581160, Note_off_c, 0, 75, 0
2, 581280, Note_on_c, 0, 75, 57
2, 581400, Note_off_c, 0, 75, 0
2, 581400, Note_on_c, 0, 77, 57
2, 581520, Note_off_c, 0, 77, 0
2, 581520, Note_on_c, 0, 75, 57
2, 581640, Note_off_c, 0, 75, 0
2, 581640, Note_on_c, 0, 73, 58
2, 581760, Note_off_c, 0, 73, 0
2, 581760, Note_on_c, 0, 80, 68
2, 581760, Note_on_c, 0, 72, 68
2, 581880, Note_off_c, 0, 72, 0
2, 581880, Note_off_c, 0, 80, 0
2, 582000, Note_on_c, 0, 80, 59
2, 582120, Note_off_c, 0, 80, 0
2, 582240, Note_on_c, 0, 80, 60
2, 582360, Note_off_c, 0, 80, 0
2, 582480, Note_on_c, 0, 75, 61
2, 582600, Note_off_c, 0, 75, 0
2, 582720, Note_on_c, 0, 84, 72
2, 582840, Note_off_c, 0, 84, 0
2, 582960, Note_on_c, 0, 84, 62
2, 583080, Note_off_c, 0, 84, 0
2, 583200, Note_on_c, 0, 84, 63
2, 583320, Note_off_c, 0, 84, 0
2, 583440, Note_on_c, 0, 80, 64
2, 583560, Note_off_c, 0, 80, 0
2, 583680, Note_on_c, 0, 87, 72
2, 583800, Note_off_c, 0, 87, 0
2, 583920, Note_on_c, 0, 87, 66
2, 584040, Note_off_c, 0, 87, 0
2, 584160, Note_on_c, 0, 87, 67
2, 584280, Note_off_c, 0, 87, 0
2, 584280, Note_on_c, 0, 89, 67
2, 584400, Note_off_c, 0, 89, 0
2, 584400, Note_on_c, 0, 87, 67
2, 584520, Note_off_c, 0, 87, 0
2, 584520, Note_on_c, 0, 85, 68
2, 584640, Note_off_c, 0, 85, 0
2, 584640, Note_on_c, 0, 84, 76
2, 584760, Note_off_c, 0, 84, 0
2, 584880, Note_on_c, 0, 84, 69
2, 585000, Note_off_c, 0, 84, 0
2, 585120, Note_on_c, 0, 84, 70
2, 585240, Note_off_c, 0, 84, 0
2, 585240, Note_on_c, 0, 85, 70
2, 585360, Note_off_c, 0, 85, 0
2, 585360, Note_on_c, 0, 84, 71
2, 585480, Note_off_c, 0, 84, 0
2, 585480, Note_on_c, 0, 82, 71
2, 585600, Note_off_c, 0, 82, 0
2, 585600, Note_on_c, 0, 81, 86
2, 585720, Note_off_c, 0, 81, 0
2, 585840, Note_on_c, 0, 81, 82
2, 585960, Note_off_c, 0, 81, 0
2, 586080, Note_on_c, 0, 81, 80
2, 586200, Note_off_c, 0, 81, 0
2, 586320, Note_on_c, 0, 82, 79
2, 586440, Note_off_c, 0, 82, 0
2, 586560, Note_on_c, 0, 84, 77
2, 587040, Note_off_c, 0, 84, 0
2, 587520, Note_on_c, 0, 85, 87
2, 587640, Note_off_c, 0, 85, 0
2, 587760, Note_on_c, 0, 85, 81
2, 587880, Note_off_c, 0, 85, 0
2, 588000, Note_on_c, 0, 85, 81
2, 588120, Note_off_c, 0, 85, 0
2, 588120, Note_on_c, 0, 87, 81
2, 588240, Note_off_c, 0, 87, 0
2, 588240, Note_on_c, 0, 85, 81
2, 588360, Note_off_c, 0, 85, 0
2, 588360, Note_on_c, 0, 84, 81
2, 588480, Note_off_c, 0, 84, 0
2, 588480, Note_on_c, 0, 82, 86
2, 588600, Note_off_c, 0, 82, 0
2, 588720, Note_on_c, 0, 82, 80
2, 588840, Note_off_c, 0, 82, 0
2, 588960, Note_on_c, 0, 82, 80
2, 589080, Note_off_c, 0, 82, 0
2, 589080, Note_on_c, 0, 84, 80
2, 589200, Note_off_c, 0, 84, 0
2, 589200, Note_on_c, 0, 82, 80
2, 589320, Note_off_c, 0, 82, 0
2, 589320, Note_on_c, 0, 80, 79
2, 589440, Note_off_c, 0, 80, 0
2, 589440, Note_on_c, 0, 79, 84
2, 589560, Note_off_c, 0, 79, 0
2, 589680, Note_on_c, 0, 79, 80
2, 589800, Note_off_c, 0, 79, 0
2, 589920, Note_on_c, 0, 79, 78
2, 590040, Note_off_c, 0, 79, 0
2, 590160, Note_on_c, 0, 80, 77
2, 590280, Note_off_c, 0, 80, 0
2, 590400, Note_on_c, 0, 82, 75
2, 591360, Note_off_c, 0, 82, 0
2, 592320, Note_on_c, 0, 83, 76
2, 593280, Note_off_c, 0, 83, 0
2, 593280, Note_on_c, 0, 84, 80
2, 593400, Note_off_c, 0, 84, 0
2, 593520, Note_on_c, 0, 84, 75
2, 593640, Note_off_c, 0, 84, 0
2, 593760, Note_on_c, 0, 84, 74
2, 593880, Note_off_c, 0, 84, 0
2, 593880, Note_on_c, 0, 83, 74
2, 594000, Note_off_c, 0, 83, 0
2, 594000, Note_on_c, 0, 84, 74
2, 594120, Note_off_c, 0, 84, 0
2, 594120, Note_on_c, 0, 87, 74
2, 594240, Note_off_c, 0, 87, 0
2, 594240, Note_on_c, 0, 78, 74
2, 595200, Note_off_c, 0, 78, 0
2, 595200, Note_on_c, 0, 79, 77
2, 595680, Note_off_c, 0, 79, 0
2, 596160, Note_on_c, 0, 78, 78
2, 596280, Note_off_c, 0, 78, 0
2, 596400, Note_on_c, 0, 78, 71
2, 596520, Note_off_c, 0, 78, 0
2, 596640, Note_on_c, 0, 78, 71
2, 596760, Note_off_c, 0, 78, 0
2, 596760, Note_on_c, 0, 76, 71
2, 596880, Note_off_c, 0, 76, 0
2, 596880, Note_on_c, 0, 78, 71
2, 597000, Note_off_c, 0, 78, 0
2, 597000, Note_on_c, 0, 74, 71
2, 597120, Note_off_c, 0, 74, 0
2, 597120, Note_on_c, 0, 79, 77
2, 597240, Note_off_c, 0, 79, 0
2, 597360, Note_on_c, 0, 79, 70
2, 597480, Note_off_c, 0, 79, 0
2, 597600, Note_on_c, 0, 79, 70
2, 597720, Note_off_c, 0, 79, 0
2, 597720, Note_on_c, 0, 78, 70
2, 597840, Note_off_c, 0, 78, 0
2, 597840, Note_on_c, 0, 79, 70
2, 597960, Note_off_c, 0, 79, 0
2, 597960, Note_on_c, 0, 82, 70
2, 598080, Note_off_c, 0, 82, 0
2, 598080, Note_on_c, 0, 73, 69
2, 599040, Note_off_c, 0, 73, 0
2, 599040, Note_on_c, 0, 74, 74
2, 599520, Note_off_c, 0, 74, 0
2, 600000, Note_on_c, 0, 73, 71
2, 600120, Note_off_c, 0, 73, 0
2, 600240, Note_on_c, 0, 73, 67
2, 600360, Note_off_c, 0, 73, 0
2, 600480, Note_on_c, 0, 73, 67
2, 600600, Note_off_c, 0, 73, 0
2, 600600, Note_on_c, 0, 71, 67
2, 600720, Note_off_c, 0, 71, 0
2, 600720, Note_on_c, 0, 73, 66
2, 600840, Note_off_c, 0, 73, 0
2, 600840, Note_on_c, 0, 69, 66
2, 600960, Note_off_c, 0, 69, 0
2, 600960, Note_on_c, 0, 74, 71
2, 601080, Note_off_c, 0, 74, 0
2, 601200, Note_on_c, 0, 74, 66
2, 601320, Note_off_c, 0, 74, 0
2, 601440, Note_on_c, 0, 74, 66
2, 601560, Note_off_c, 0, 74, 0
2, 601560, Note_on_c, 0, 73, 66
2, 601680, Note_off_c, 0, 73, 0
2, 601680, Note_on_c, 0, 74, 65
2, 601800, Note_off_c, 0, 74, 0
2, 601800, Note_on_c, 0, 77, 65
2, 601920, Note_off_c, 0, 77, 0
2, 601920, Note_on_c, 0, 68, 71
2, 602880, Note_off_c, 0, 68, 0
2, 602880, Note_on_c, 0, 69, 69
2, 603840, Note_off_c, 0, 69, 0
2, 603840, Note_on_c, 0, 68, 67
2, 604800, Note_off_c, 0, 68, 0
2, 604800, Note_on_c, 0, 69, 66
2, 605760, Note_off_c, 0, 69, 0
2, 605760, Note_on_c, 0, 68, 64
2, 606720, Note_off_c, 0, 68, 0
2, 606720, Note_on_c, 0, 69, 62
2, 606960, Note_off_c, 0, 69, 0
2, 606960, Note_on_c, 0, 81, 53
2, 607080, Note_off_c, 0, 81, 0
2, 607080, Note_on_c, 0, 80, 53
2, 607200, Note_off_c, 0, 80, 0
2, 607200, Note_on_c, 0, 81, 52
2, 607320, Note_off_c, 0, 81, 0
2, 607320, Note_on_c, 0, 80, 51
2, 607440, Note_off_c, 0, 80, 0
2, 607440, Note_on_c, 0, 81, 51
2, 607560, Note_off_c, 0, 81, 0
2, 607560, Note_on_c, 0, 80, 50
2, 607680, Note_off_c, 0, 80, 0
2, 607680, Note_on_c, 0, 81, 49
2, 607800, Note_off_c, 0, 81, 0
2, 607800, Note_on_c, 0, 80, 48
2, 607920, Note_off_c, 0, 80, 0
2, 607920, Note_on_c, 0, 81, 48
2, 608040, Note_off_c, 0, 81, 0
2, 608040, Note_on_c, 0, 80, 47
2, 608160, Note_off_c, 0, 80, 0
2, 608160, Note_on_c, 0, 81, 46
2, 608280, Note_off_c, 0, 81, 0
2, 608280, Note_on_c, 0, 80, 46
2, 608400, Note_off_c, 0, 80, 0
2, 608400, Note_on_c, 0, 81, 45
2, 608520, Note_off_c, 0, 81, 0
2, 608520, Note_on_c, 0, 80, 44
2, 608640, Note_off_c, 0, 80, 0
2, 608640, Note_on_c, 0, 81, 53
2, 608760, Note_off_c, 0, 81, 0
2, 608880, Note_on_c, 0, 81, 46
2, 609000, Note_off_c, 0, 81, 0
2, 609120, Note_on_c, 0, 81, 47
2, 609240, Note_off_c, 0, 81, 0
2, 609360, Note_on_c, 0, 81, 48
2, 609480, Note_off_c, 0, 81, 0
2, 609600, Note_on_c, 0, 81, 56
2, 609720, Note_off_c, 0, 81, 0
2, 609840, Note_on_c, 0, 81, 50
2, 609960, Note_off_c, 0, 81, 0
2, 610080, Note_on_c, 0, 81, 51
2, 610200, Note_off_c, 0, 81, 0
2, 610320, Note_on_c, 0, 81, 52
2, 610440, Note_off_c, 0, 81, 0
2, 610560, Note_on_c, 0, 81, 58
2, 610680, Note_off_c, 0, 81, 0
2, 610800, Note_on_c, 0, 83, 56
2, 610920, Note_off_c, 0, 83, 0
2, 611040, Note_on_c, 0, 85, 59
2, 611160, Note_off_c, 0, 85, 0
2, 611280, Note_on_c, 0, 86, 62
2, 611400, Note_off_c, 0, 86, 0
2, 611520, Note_on_c, 0, 88, 68
2, 611640, Note_off_c, 0, 88, 0
2, 611760, Note_on_c, 0, 85, 61
2, 611880, Note_off_c, 0, 85, 0
2, 612000, Note_on_c, 0, 86, 57
2, 612120, Note_off_c, 0, 86, 0
2, 612240, Note_on_c, 0, 88, 53
2, 612360, Note_off_c, 0, 88, 0
2, 612480, Note_on_c, 0, 81, 56
2, 612600, Note_off_c, 0, 81, 0
2, 612720, Note_on_c, 0, 81, 47
2, 612840, Note_off_c, 0, 81, 0
2, 612960, Note_on_c, 0, 81, 47
2, 613080, Note_off_c, 0, 81, 0
2, 613200, Note_on_c, 0, 81, 47
2, 613320, Note_off_c, 0, 81, 0
2, 613440, Note_on_c, 0, 81, 52
2, 613560, Note_off_c, 0, 81, 0
2, 613680, Note_on_c, 0, 81, 47
2, 613800, Note_off_c, 0, 81, 0
2, 613920, Note_on_c, 0, 81, 47
2, 614040, Note_off_c, 0, 81, 0
2, 614160, Note_on_c, 0, 81, 47
2, 614280, Note_off_c, 0, 81, 0
2, 614400, Note_on_c, 0, 81, 52
2, 614520, Note_off_c, 0, 81, 0
2, 614640, Note_on_c, 0, 83, 47
2, 614760, Note_off_c, 0, 83, 0
2, 614880, Note_on_c, 0, 85, 49
2, 615000, Note_off_c, 0, 85, 0
2, 615120, Note_on_c, 0, 86, 51
2, 615240, Note_off_c, 0, 86, 0
2, 615360, Note_on_c, 0, 88, 53
2, 615480, Note_off_c, 0, 88, 0
2, 615600, Note_on_c, 0, 85, 52
2, 615720, Note_off_c, 0, 85, 0
2, 615840, Note_on_c, 0, 86, 50
2, 615960, Note_off_c, 0, 86, 0
2, 616080, Note_on_c, 0, 88, 49
2, 616200, Note_off_c, 0, 88, 0
2, 616320, Note_on_c, 0, 81, 46
2, 616440, Note_off_c, 0, 81, 0
2, 616560, Note_on_c, 0, 81, 47
2, 616680, Note_off_c, 0, 81, 0
2, 616800, Note_on_c, 0, 83, 48
2, 616920, Note_off_c, 0, 83, 0
2, 617040, Note_on_c, 0, 84, 49
2, 617160, Note_off_c, 0, 84, 0
2, 617280, Note_on_c, 0, 86, 50
2, 617400, Note_off_c, 0, 86, 0
2, 617520, Note_on_c, 0, 83, 51
2, 617640, Note_off_c, 0, 83, 0
2, 617760, Note_on_c, 0, 84, 52
2, 617880, Note_off_c, 0, 84, 0
2, 618000, Note_on_c, 0, 86, 53
2, 618120, Note_off_c, 0, 86, 0
2, 618240, Note_on_c, 0, 79, 54
2, 618360, Note_off_c, 0, 79, 0
2, 618480, Note_on_c, 0, 79, 55
2, 618600, Note_off_c, 0, 79, 0
2, 618720, Note_on_c, 0, 81, 56
2, 618840, Note_off_c, 0, 81, 0
2, 618960, Note_on_c, 0, 82, 57
2, 619080, Note_off_c, 0, 82, 0
2, 619200, Note_on_c, 0, 84, 58
2, 619320, Note_off_c, 0, 84, 0
2, 619440, Note_on_c, 0, 81, 59
2, 619560, Note_off_c, 0, 81, 0
2, 619680, Note_on_c, 0, 82, 60
2, 619800, Note_off_c, 0, 82, 0
2, 619920, Note_on_c, 0, 84, 61
2, 620040, Note_off_c, 0, 84, 0
2, 620160, Note_on_c, 0, 77, 62
2, 620280, Note_off_c, 0, 77, 0
2, 620400, Note_on_c, 0, 77, 63
2, 620520, Note_off_c, 0, 77, 0
2, 620640, Note_on_c, 0, 79, 65
2, 620760, Note_off_c, 0, 79, 0
2, 620880, Note_on_c, 0, 81, 66
2, 621000, Note_off_c, 0, 81, 0
2, 621120, Note_on_c, 0, 82, 66
2, 621240, Note_off_c, 0, 82, 0
2, 621360, Note_on_c, 0, 82, 68
2, 621480, Note_off_c, 0, 82, 0
2, 621600, Note_on_c, 0, 82, 70
2, 621720, Note_off_c, 0, 82, 0
2, 621840, Note_on_c, 0, 82, 72
2, 621960, Note_off_c, 0, 82, 0
2, 622080, Note_on_c, 0, 82, 74
2, 622200, Note_off_c, 0, 82, 0
2, 622320, Note_on_c, 0, 82, 75
2, 622440, Note_off_c, 0, 82, 0
2, 622560, Note_on_c, 0, 82, 77
2, 622680, Note_off_c, 0, 82, 0
2, 622800, Note_on_c, 0, 82, 78
2, 622920, Note_off_c, 0, 82, 0
2, 623040, Note_on_c, 0, 82, 79
2, 623160, Note_off_c, 0, 82, 0
2, 623280, Note_on_c, 0, 82, 81
2, 623400, Note_off_c, 0, 82, 0
2, 623520, Note_on_c, 0, 82, 82
2, 623640, Note_off_c, 0, 82, 0
2, 623760, Note_on_c, 0, 82, 83
2, 623880, Note_off_c, 0, 82, 0
2, 624000, Note_on_c, 0, 82, 84
2, 624120, Note_off_c, 0, 82, 0
2, 624120, Note_on_c, 0, 84, 85
2, 624240, Note_off_c, 0, 84, 0
2, 624240, Note_on_c, 0, 86, 85
2, 624360, Note_off_c, 0, 86, 0
2, 624360, Note_on_c, 0, 84, 86
2, 624480, Note_off_c, 0, 84, 0
2, 624480, Note_on_c, 0, 82, 86
2, 624600, Note_off_c, 0, 82, 0
2, 624600, Note_on_c, 0, 81, 87
2, 624720, Note_off_c, 0, 81, 0
2, 624720, Note_on_c, 0, 79, 87
2, 624840, Note_off_c, 0, 79, 0
2, 624840, Note_on_c, 0, 77, 88
2, 624960, Note_off_c, 0, 77, 0
2, 624960, Note_on_c, 0, 76, 89
2, 625080, Note_off_c, 0, 76, 0
2, 625080, Note_on_c, 0, 77, 89
2, 625200, Note_off_c, 0, 77, 0
2, 625200, Note_on_c, 0, 79, 90
2, 625320, Note_off_c, 0, 79, 0
2, 625320, Note_on_c, 0, 77, 90
2, 625440, Note_off_c, 0, 77, 0
2, 625440, Note_on_c, 0, 76, 91
2, 625560, Note_off_c, 0, 76, 0
2, 625560, Note_on_c, 0, 74, 92
2, 625680, Note_off_c, 0, 74, 0
2, 625680, Note_on_c, 0, 72, 92
2, 625800, Note_off_c, 0, 72, 0
2, 625800, Note_on_c, 0, 70, 93
2, 625920, Note_off_c, 0, 70, 0
2, 625920, Note_on_c, 0, 69, 93
2, 626040, Note_off_c, 0, 69, 0
2, 626160, Note_on_c, 0, 84, 93
2, 626280, Note_off_c, 0, 84, 0
2, 626280, Note_on_c, 0, 82, 93
2, 626400, Note_off_c, 0, 82, 0
2, 626400, Note_on_c, 0, 81, 93
2, 626520, Note_off_c, 0, 81, 0
2, 626520, Note_on_c, 0, 79, 93
2, 626640, Note_off_c, 0, 79, 0
2, 626640, Note_on_c, 0, 77, 93
2, 626760, Note_off_c, 0, 77, 0
2, 626760, Note_on_c, 0, 76, 93
2, 626880, Note_off_c, 0, 76, 0
2, 626880, Note_on_c, 0, 77, 93
2, 627000, Note_off_c, 0, 77, 0
2, 627000, Note_on_c, 0, 76, 93
2, 627120, Note_off_c, 0, 76, 0
2, 627120, Note_on_c, 0, 74, 93
2, 627240, Note_off_c, 0, 74, 0
2, 627240, Note_on_c, 0, 72, 93
2, 627360, Note_off_c, 0, 72, 0
2, 627360, Note_on_c, 0, 70, 93
2, 627480, Note_off_c, 0, 70, 0
2, 627480, Note_on_c, 0, 69, 93
2, 627600, Note_off_c, 0, 69, 0
2, 627600, Note_on_c, 0, 67, 92
2, 627720, Note_off_c, 0, 67, 0
2, 627720, Note_on_c, 0, 65, 92
2, 627840, Note_off_c, 0, 65, 0
2, 627840, Note_on_c, 0, 64, 92
2, 627960, Note_off_c, 0, 64, 0
2, 627960, Note_on_c, 0, 65, 92
2, 628080, Note_off_c, 0, 65, 0
2, 628080, Note_on_c, 0, 67, 92
2, 628200, Note_off_c, 0, 67, 0
2, 628200, Note_on_c, 0, 65, 92
2, 628320, Note_off_c, 0, 65, 0
2, 628320, Note_on_c, 0, 64, 92
2, 628440, Note_off_c, 0, 64, 0
2, 628440, Note_on_c, 0, 60, 92
2, 628560, Note_off_c, 0, 60, 0
2, 628560, Note_on_c, 0, 62, 92
2, 628680, Note_off_c, 0, 62, 0
2, 628680, Note_on_c, 0, 64, 92
2, 628800, Note_off_c, 0, 64, 0
2, 628800, Note_on_c, 0, 65, 92
2, 628920, Note_off_c, 0, 65, 0
2, 628920, Note_on_c, 0, 60, 92
2, 629040, Note_off_c, 0, 60, 0
2, 629040, Note_on_c, 0, 65, 92
2, 629160, Note_off_c, 0, 65, 0
2, 629160, Note_on_c, 0, 60, 92
2, 629280, Note_off_c, 0, 60, 0
2, 629280, Note_on_c, 0, 65, 91
2, 629400, Note_off_c, 0, 65, 0
2, 629400, Note_on_c, 0, 60, 91
2, 629520, Note_off_c, 0, 60, 0
2, 629520, Note_on_c, 0, 67, 91
2, 629640, Note_off_c, 0, 67, 0
2, 629640, Note_on_c, 0, 60, 91
2, 629760, Note_off_c, 0, 60, 0
2, 629760, Note_on_c, 0, 69, 102
2, 629880, Note_off_c, 0, 69, 0
2, 630000, Note_on_c, 0, 65, 91
2, 630120, Note_off_c, 0, 65, 0
2, 630240, Note_on_c, 0, 65, 91
2, 630360, Note_off_c, 0, 65, 0
2, 630480, Note_on_c, 0, 60, 91
2, 630600, Note_off_c, 0, 60, 0
2, 630720, Note_on_c, 0, 69, 102
2, 630840, Note_off_c, 0, 69, 0
2, 630960, Note_on_c, 0, 69, 90
2, 631080, Note_off_c, 0, 69, 0
2, 631200, Note_on_c, 0, 69, 90
2, 631320, Note_off_c, 0, 69, 0
2, 631440, Note_on_c, 0, 65, 90
2, 631560, Note_off_c, 0, 65, 0
2, 631680, Note_on_c, 0, 72, 101
2, 631800, Note_off_c, 0, 72, 0
2, 631920, Note_on_c, 0, 72, 90
2, 632040, Note_off_c, 0, 72, 0
2, 632160, Note_on_c, 0, 72, 90
2, 632280, Note_off_c, 0, 72, 0
2, 632280, Note_on_c, 0, 74, 90
2, 632400, Note_off_c, 0, 74, 0
2, 632400, Note_on_c, 0, 72, 90
2, 632520, Note_off_c, 0, 72, 0
2, 632520, Note_on_c, 0, 70, 89
2, 632640, Note_off_c, 0, 70, 0
2, 632640, Note_on_c, 0, 69, 89
2, 632760, Note_off_c, 0, 69, 0
2, 632760, Note_on_c, 0, 72, 89
2, 632880, Note_off_c, 0, 72, 0
2, 632880, Note_on_c, 0, 67, 89
2, 633000, Note_off_c, 0, 67, 0
2, 633000, Note_on_c, 0, 73, 89
2, 633120, Note_off_c, 0, 73, 0
2, 633120, Note_on_c, 0, 66, 89
2, 633240, Note_off_c, 0, 66, 0
2, 633240, Note_on_c, 0, 74, 89
2, 633360, Note_off_c, 0, 74, 0
2, 633360, Note_on_c, 0, 69, 89
2, 633480, Note_off_c, 0, 69, 0
2, 633480, Note_on_c, 0, 72, 89
2, 633600, Note_off_c, 0, 72, 0
2, 633600, Note_on_c, 0, 70, 89
2, 633720, Note_off_c, 0, 70, 0
2, 633840, Note_on_c, 0, 86, 89
2, 633960, Note_off_c, 0, 86, 0
2, 633960, Note_on_c, 0, 84, 89
2, 634080, Note_off_c, 0, 84, 0
2, 634080, Note_on_c, 0, 82, 88
2, 634200, Note_off_c, 0, 82, 0
2, 634200, Note_on_c, 0, 81, 88
2, 634320, Note_off_c, 0, 81, 0
2, 634320, Note_on_c, 0, 79, 88
2, 634440, Note_off_c, 0, 79, 0
2, 634440, Note_on_c, 0, 78, 88
2, 634560, Note_off_c, 0, 78, 0
2, 634560, Note_on_c, 0, 79, 88
2, 634680, Note_off_c, 0, 79, 0
2, 634680, Note_on_c, 0, 77, 88
2, 634800, Note_off_c, 0, 77, 0
2, 634800, Note_on_c, 0, 75, 88
2, 634920, Note_off_c, 0, 75, 0
2, 634920, Note_on_c, 0, 74, 88
2, 635040, Note_off_c, 0, 74, 0
2, 635040, Note_on_c, 0, 72, 88
2, 635160, Note_off_c, 0, 72, 0
2, 635160, Note_on_c, 0, 70, 88
2, 635280, Note_off_c, 0, 70, 0
2, 635280, Note_on_c, 0, 69, 88
2, 635400, Note_off_c, 0, 69, 0
2, 635400, Note_on_c, 0, 67, 88
2, 635520, Note_off_c, 0, 67, 0
2, 635520, Note_on_c, 0, 66, 88
2, 635640, Note_off_c, 0, 66, 0
2, 635640, Note_on_c, 0, 67, 87
2, 635760, Note_off_c, 0, 67, 0
2, 635760, Note_on_c, 0, 69, 87
2, 635880, Note_off_c, 0, 69, 0
2, 635880, Note_on_c, 0, 67, 87
2, 636000, Note_off_c, 0, 67, 0
2, 636000, Note_on_c, 0, 66, 87
2, 636120, Note_off_c, 0, 66, 0
2, 636120, Note_on_c, 0, 62, 87
2, 636240, Note_off_c, 0, 62, 0
2, 636240, Note_on_c, 0, 64, 87
2, 636360, Note_off_c, 0, 64, 0
2, 636360, Note_on_c, 0, 66, 87
2, 636480, Note_off_c, 0, 66, 0
2, 636480, Note_on_c, 0, 67, 87
2, 636600, Note_off_c, 0, 67, 0
2, 636600, Note_on_c, 0, 62, 87
2, 636720, Note_off_c, 0, 62, 0
2, 636720, Note_on_c, 0, 67, 87
2, 636840, Note_off_c, 0, 67, 0
2, 636840, Note_on_c, 0, 62, 87
2, 636960, Note_off_c, 0, 62, 0
2, 636960, Note_on_c, 0, 67, 87
2, 637080, Note_off_c, 0, 67, 0
2, 637080, Note_on_c, 0, 62, 87
2, 637200, Note_off_c, 0, 62, 0
2, 637200, Note_on_c, 0, 69, 87
2, 637320, Note_off_c, 0, 69, 0
2, 637320, Note_on_c, 0, 62, 86
2, 637440, Note_off_c, 0, 62, 0
2, 637440, Note_on_c, 0, 70, 98
2, 637560, Note_off_c, 0, 70, 0
2, 637680, Note_on_c, 0, 67, 86
2, 637800, Note_off_c, 0, 67, 0
2, 637920, Note_on_c, 0, 67, 86
2, 638040, Note_off_c, 0, 67, 0
2, 638160, Note_on_c, 0, 62, 86
2, 638280, Note_off_c, 0, 62, 0
2, 638400, Note_on_c, 0, 70, 98
2, 638520, Note_off_c, 0, 70, 0
2, 638640, Note_on_c, 0, 70, 86
2, 638760, Note_off_c, 0, 70, 0
2, 638880, Note_on_c, 0, 70, 85
2, 639000, Note_off_c, 0, 70, 0
2, 639120, Note_on_c, 0, 67, 85
2, 639240, Note_off_c, 0, 67, 0
2, 639360, Note_on_c, 0, 74, 96
2, 639480, Note_off_c, 0, 74, 0
2, 639600, Note_on_c, 0, 74, 85
2, 639720, Note_off_c, 0, 74, 0
2, 639840, Note_on_c, 0, 74, 85
2, 639960, Note_off_c, 0, 74, 0
2, 639960, Note_on_c, 0, 75, 85
2, 640080, Note_off_c, 0, 75, 0
2, 640080, Note_on_c, 0, 74, 85
2, 640200, Note_off_c, 0, 74, 0
2, 640200, Note_on_c, 0, 72, 85
2, 640320, Note_off_c, 0, 72, 0
2, 640320, Note_on_c, 0, 70, 85
2, 640440, Note_off_c, 0, 70, 0
2, 640440, Note_on_c, 0, 74, 85
2, 640560, Note_off_c, 0, 74, 0
2, 640560, Note_on_c, 0, 76, 84
2, 640680, Note_off_c, 0, 76, 0
2, 640680, Note_on_c, 0, 70, 84
2, 640800, Note_off_c, 0, 70, 0
2, 640800, Note_on_c, 0, 77, 84
2, 640920, Note_off_c, 0, 77, 0
2, 640920, Note_on_c, 0, 69, 84
2, 641040, Note_off_c, 0, 69, 0
2, 641040, Note_on_c, 0, 75, 84
2, 641160, Note_off_c, 0, 75, 0
2, 641160, Note_on_c, 0, 72, 84
2, 641280, Note_off_c, 0, 72, 0
2, 641280, Note_on_c, 0, 74, 84
2, 641400, Note_off_c, 0, 74, 0
2, 641520, Note_on_c, 0, 89, 84
2, 641640, Note_off_c, 0, 89, 0
2, 641640, Note_on_c, 0, 87, 84
2, 641760, Note_off_c, 0, 87, 0
2, 641760, Note_on_c, 0, 86, 84
2, 641880, Note_off_c, 0, 86, 0
2, 641880, Note_on_c, 0, 84, 84
2, 642000, Note_off_c, 0, 84, 0
2, 642000, Note_on_c, 0, 82, 84
2, 642120, Note_off_c, 0, 82, 0
2, 642120, Note_on_c, 0, 81, 83
2, 642240, Note_off_c, 0, 81, 0
2, 642240, Note_on_c, 0, 82, 83
2, 642360, Note_off_c, 0, 82, 0
2, 642360, Note_on_c, 0, 81, 83
2, 642480, Note_off_c, 0, 81, 0
2, 642480, Note_on_c, 0, 79, 83
2, 642600, Note_off_c, 0, 79, 0
2, 642600, Note_on_c, 0, 77, 83
2, 642720, Note_off_c, 0, 77, 0
2, 642720, Note_on_c, 0, 75, 83
2, 642840, Note_off_c, 0, 75, 0
2, 642840, Note_on_c, 0, 74, 83
2, 642960, Note_off_c, 0, 74, 0
2, 642960, Note_on_c, 0, 72, 83
2, 643080, Note_off_c, 0, 72, 0
2, 643080, Note_on_c, 0, 70, 83
2, 643200, Note_off_c, 0, 70, 0
2, 643200, Note_on_c, 0, 69, 83
2, 643320, Note_off_c, 0, 69, 0
2, 643320, Note_on_c, 0, 70, 83
2, 643440, Note_off_c, 0, 70, 0
2, 643440, Note_on_c, 0, 72, 83
2, 643560, Note_off_c, 0, 72, 0
2, 643560, Note_on_c, 0, 70, 83
2, 643680, Note_off_c, 0, 70, 0
2, 643680, Note_on_c, 0, 69, 83
2, 643800, Note_off_c, 0, 69, 0
2, 643800, Note_on_c, 0, 65, 82
2, 643920, Note_off_c, 0, 65, 0
2, 643920, Note_on_c, 0, 67, 82
2, 644040, Note_off_c, 0, 67, 0
2, 644040, Note_on_c, 0, 69, 82
2, 644160, Note_off_c, 0, 69, 0
2, 644160, Note_on_c, 0, 70, 82
2, 644280, Note_on_c, 0, 65, 82
2, 644379, Note_off_c, 0, 70, 0
2, 644400, Note_off_c, 0, 65, 0
2, 644400, Note_on_c, 0, 70, 82
2, 644520, Note_on_c, 0, 65, 82
2, 644619, Note_off_c, 0, 70, 0
2, 644640, Note_off_c, 0, 65, 0
2, 644640, Note_on_c, 0, 70, 82
2, 644760, Note_on_c, 0, 65, 82
2, 644859, Note_off_c, 0, 70, 0
2, 644880, Note_off_c, 0, 65, 0
2, 644880, Note_on_c, 0, 72, 82
2, 645000, Note_on_c, 0, 65, 82
2, 645099, Note_off_c, 0, 72, 0
2, 645120, Note_off_c, 0, 65, 0
2, 645120, Note_on_c, 0, 73, 82
2, 645360, Note_on_c, 0, 70, 46
2, 645366, Note_off_c, 0, 73, 0
2, 645480, Note_on_c, 0, 82, 47
2, 645588, Note_off_c, 0, 70, 0
2, 645600, Note_off_c, 0, 82, 0
2, 645600, Note_on_c, 0, 70, 47
2, 645720, Note_on_c, 0, 82, 48
2, 645828, Note_off_c, 0, 70, 0
2, 645840, Note_off_c, 0, 82, 0
2, 645840, Note_on_c, 0, 65, 48
2, 645960, Note_on_c, 0, 77, 49
2, 646068, Note_off_c, 0, 65, 0
2, 646080, Note_off_c, 0, 77, 0
2, 646080, Note_on_c, 0, 73, 49
2, 646200, Note_on_c, 0, 85, 50
2, 646308, Note_off_c, 0, 73, 0
2, 646320, Note_off_c, 0, 85, 0
2, 646320, Note_on_c, 0, 73, 50
2, 646440, Note_on_c, 0, 85, 51
2, 646548, Note_off_c, 0, 73, 0
2, 646560, Note_off_c, 0, 85, 0
2, 646560, Note_on_c, 0, 73, 51
2, 646680, Note_on_c, 0, 85, 52
2, 646788, Note_off_c, 0, 73, 0
2, 646800, Note_off_c, 0, 85, 0
2, 646800, Note_on_c, 0, 70, 52
2, 646920, Note_on_c, 0, 82, 53
2, 647028, Note_off_c, 0, 70, 0
2, 647040, Note_off_c, 0, 82, 0
2, 647040, Note_on_c, 0, 77, 54
2, 647160, Note_on_c, 0, 89, 54
2, 647259, Note_off_c, 0, 77, 0
2, 647280, Note_off_c, 0, 89, 0
2, 647280, Note_on_c, 0, 77, 55
2, 647400, Note_on_c, 0, 89, 55
2, 647499, Note_off_c, 0, 77, 0
2, 647520, Note_off_c, 0, 89, 0
2, 647520, Note_on_c, 0, 77, 56
2, 647640, Note_on_c, 0, 89, 56
2, 647739, Note_off_c, 0, 77, 0
2, 647760, Note_off_c, 0, 89, 0
2, 647760, Note_on_c, 0, 75, 57
2, 647880, Note_on_c, 0, 87, 57
2, 647988, Note_off_c, 0, 75, 0
2, 648000, Note_off_c, 0, 87, 0
2, 648000, Note_on_c, 0, 73, 58
2, 648120, Note_on_c, 0, 85, 58
2, 648228, Note_off_c, 0, 73, 0
2, 648240, Note_off_c, 0, 85, 0
2, 648240, Note_on_c, 0, 73, 59
2, 648360, Note_on_c, 0, 85, 59
2, 648468, Note_off_c, 0, 73, 0
2, 648480, Note_off_c, 0, 85, 0
2, 648480, Note_on_c, 0, 73, 60
2, 648600, Note_on_c, 0, 85, 60
2, 648708, Note_off_c, 0, 73, 0
2, 648720, Note_off_c, 0, 85, 0
2, 648720, Note_on_c, 0, 70, 61
2, 648840, Note_on_c, 0, 82, 61
2, 648948, Note_off_c, 0, 70, 0
2, 648960, Note_off_c, 0, 82, 0
2, 648960, Note_on_c, 0, 77, 62
2, 649080, Note_on_c, 0, 89, 63
2, 649188, Note_off_c, 0, 77, 0
2, 649200, Note_off_c, 0, 89, 0
2, 649200, Note_on_c, 0, 77, 63
2, 649320, Note_on_c, 0, 89, 64
2, 649428, Note_off_c, 0, 77, 0
2, 649440, Note_off_c, 0, 89, 0
2, 649440, Note_on_c, 0, 77, 64
2, 649560, Note_on_c, 0, 89, 65
2, 649668, Note_off_c, 0, 77, 0
2, 649680, Note_off_c, 0, 89, 0
2, 649680, Note_on_c, 0, 75, 65
2, 649800, Note_on_c, 0, 87, 66
2, 649908, Note_off_c, 0, 75, 0
2, 649920, Note_off_c, 0, 87, 0
2, 649920, Note_on_c, 0, 73, 66
2, 650040, Note_on_c, 0, 85, 67
2, 650148, Note_off_c, 0, 73, 0
2, 650160, Note_off_c, 0, 85, 0
2, 650160, Note_on_c, 0, 73, 67
2, 650280, Note_on_c, 0, 85, 68
2, 650379, Note_off_c, 0, 73, 0
2, 650400, Note_off_c, 0, 85, 0
2, 650400, Note_on_c, 0, 73, 68
2, 650520, Note_on_c, 0, 85, 69
2, 650619, Note_off_c, 0, 73, 0
2, 650640, Note_off_c, 0, 85, 0
2, 650640, Note_on_c, 0, 72, 69
2, 650760, Note_on_c, 0, 84, 70
2, 650859, Note_off_c, 0, 72, 0
2, 650880, Note_off_c, 0, 84, 0
2, 650880, Note_on_c, 0, 70, 71
2, 651000, Note_on_c, 0, 82, 71
2, 651099, Note_off_c, 0, 70, 0
2, 651120, Note_off_c, 0, 82, 0
2, 651120, Note_on_c, 0, 70, 72
2, 651240, Note_on_c, 0, 82, 72
2, 651339, Note_off_c, 0, 70, 0
2, 651360, Note_off_c, 0, 82, 0
2, 651360, Note_on_c, 0, 70, 73
2, 651480, Note_on_c, 0, 82, 73
2, 651579, Note_off_c, 0, 70, 0
2, 651600, Note_off_c, 0, 82, 0
2, 651600, Note_on_c, 0, 68, 74
2, 651720, Note_on_c, 0, 80, 74
2, 651819, Note_off_c, 0, 68, 0
2, 651840, Note_off_c, 0, 80, 0
2, 651840, Note_on_c, 0, 66, 75
2, 651960, Note_on_c, 0, 78, 75
2, 652059, Note_off_c, 0, 66, 0
2, 652080, Note_off_c, 0, 78, 0
2, 652080, Note_on_c, 0, 66, 76
2, 652200, Note_on_c, 0, 78, 76
2, 652299, Note_off_c, 0, 66, 0
2, 652320, Note_off_c, 0, 78, 0
2, 652320, Note_on_c, 0, 66, 77
2, 652440, Note_on_c, 0, 78, 77
2, 652539, Note_off_c, 0, 66, 0
2, 652560, Note_off_c, 0, 78, 0
2, 652560, Note_on_c, 0, 65, 78
2, 652680, Note_on_c, 0, 77, 78
2, 652779, Note_off_c, 0, 65, 0
2, 652800, Note_off_c, 0, 77, 0
2, 652800, Note_on_c, 0, 64, 78
2, 652920, Note_on_c, 0, 76, 78
2, 653019, Note_off_c, 0, 64, 0
2, 653040, Note_off_c, 0, 76, 0
2, 653040, Note_on_c, 0, 64, 79
2, 653160, Note_on_c, 0, 76, 79
2, 653259, Note_off_c, 0, 64, 0
2, 653280, Note_off_c, 0, 76, 0
2, 653280, Note_on_c, 0, 64, 79
2, 653400, Note_on_c, 0, 76, 80
2, 653499, Note_off_c, 0, 64, 0
2, 653520, Note_off_c, 0, 76, 0
2, 653520, Note_on_c, 0, 67, 80
2, 653640, Note_on_c, 0, 79, 80
2, 653739, Note_off_c, 0, 67, 0
2, 653760, Note_off_c, 0, 79, 0
2, 653760, Note_on_c, 0, 65, 81
2, 653880, Note_on_c, 0, 77, 81
2, 653979, Note_off_c, 0, 65, 0
2, 654000, Note_off_c, 0, 77, 0
2, 654000, Note_on_c, 0, 68, 82
2, 654120, Note_on_c, 0, 80, 82
2, 654219, Note_off_c, 0, 68, 0
2, 654240, Note_off_c, 0, 80, 0
2, 654240, Note_on_c, 0, 67, 82
2, 654360, Note_on_c, 0, 79, 83
2, 654459, Note_off_c, 0, 67, 0
2, 654480, Note_off_c, 0, 79, 0
2, 654480, Note_on_c, 0, 70, 83
2, 654600, Note_on_c, 0, 82, 83
2, 654699, Note_off_c, 0, 70, 0
2, 654720, Note_off_c, 0, 82, 0
2, 654720, Note_on_c, 0, 68, 84
2, 654840, Note_on_c, 0, 80, 84
2, 654939, Note_off_c, 0, 68, 0
2, 654960, Note_off_c, 0, 80, 0
2, 654960, Note_on_c, 0, 72, 85
2, 655080, Note_on_c, 0, 84, 85
2, 655179, Note_off_c, 0, 72, 0
2, 655200, Note_off_c, 0, 84, 0
2, 655200, Note_on_c, 0, 69, 85
2, 655320, Note_on_c, 0, 81, 86
2, 655419, Note_off_c, 0, 69, 0
2, 655440, Note_off_c, 0, 81, 0
2, 655440, Note_on_c, 0, 72, 86
2, 655560, Note_on_c, 0, 84, 86
2, 655659, Note_off_c, 0, 72, 0
2, 655680, Note_off_c, 0, 84, 0
2, 655680, Note_on_c, 0, 70, 87
2, 655800, Note_on_c, 0, 82, 87
2, 655899, Note_off_c, 0, 70, 0
2, 655920, Note_off_c, 0, 82, 0
2, 655920, Note_on_c, 0, 73, 87
2, 656040, Note_on_c, 0, 85, 88
2, 656139, Note_off_c, 0, 73, 0
2, 656160, Note_off_c, 0, 85, 0
2, 656160, Note_on_c, 0, 72, 88
2, 656280, Note_on_c, 0, 84, 89
2, 656379, Note_off_c, 0, 72, 0
2, 656400, Note_off_c, 0, 84, 0
2, 656400, Note_on_c, 0, 75, 89
2, 656520, Note_on_c, 0, 87, 89
2, 656619, Note_off_c, 0, 75, 0
2, 656640, Note_off_c, 0, 87, 0
2, 656640, Note_on_c, 0, 73, 95
2, 656760, Note_on_c, 0, 85, 95
2, 656859, Note_off_c, 0, 73, 0
2, 656880, Note_off_c, 0, 85, 0
2, 656880, Note_on_c, 0, 73, 95
2, 657000, Note_on_c, 0, 85, 95
2, 657099, Note_off_c, 0, 73, 0
2, 657120, Note_off_c, 0, 85, 0
2, 657120, Note_on_c, 0, 73, 95
2, 657240, Note_on_c, 0, 85, 95
2, 657339, Note_off_c, 0, 73, 0
2, 657360, Note_off_c, 0, 85, 0
2, 657360, Note_on_c, 0, 72, 95
2, 657480, Note_on_c, 0, 84, 95
2, 657579, Note_off_c, 0, 72, 0
2, 657600, Note_off_c, 0, 84, 0
2, 657600, Note_on_c, 0, 71, 95
2, 657720, Note_on_c, 0, 83, 95
2, 657819, Note_off_c, 0, 71, 0
2, 657840, Note_off_c, 0, 83, 0
2, 657840, Note_on_c, 0, 71, 95
2, 657960, Note_on_c, 0, 83, 95
2, 658059, Note_off_c, 0, 71, 0
2, 658080, Note_off_c, 0, 83, 0
2, 658080, Note_on_c, 0, 71, 95
2, 658200, Note_on_c, 0, 83, 95
2, 658299, Note_off_c, 0, 71, 0
2, 658320, Note_off_c, 0, 83, 0
2, 658320, Note_on_c, 0, 77, 108
2, 658440, Note_on_c, 0, 89, 101
2, 658539, Note_off_c, 0, 77, 0
2, 658560, Note_off_c, 0, 89, 0
2, 658560, Note_on_c, 0, 76, 95
2, 658680, Note_on_c, 0, 88, 95
2, 658779, Note_off_c, 0, 76, 0
2, 658800, Note_off_c, 0, 88, 0
2, 658800, Note_on_c, 0, 76, 95
2, 658920, Note_on_c, 0, 88, 95
2, 659019, Note_off_c, 0, 76, 0
2, 659040, Note_off_c, 0, 88, 0
2, 659040, Note_on_c, 0, 76, 95
2, 659160, Note_on_c, 0, 88, 95
2, 659259, Note_off_c, 0, 76, 0
2, 659280, Note_off_c, 0, 88, 0
2, 659280, Note_on_c, 0, 70, 109
2, 659400, Note_on_c, 0, 82, 101
2, 659499, Note_off_c, 0, 70, 0
2, 659520, Note_off_c, 0, 82, 0
2, 659520, Note_on_c, 0, 69, 95
2, 659640, Note_on_c, 0, 81, 95
2, 659739, Note_off_c, 0, 69, 0
2, 659760, Note_off_c, 0, 81, 0
2, 659760, Note_on_c, 0, 69, 95
2, 659880, Note_on_c, 0, 81, 95
2, 659979, Note_off_c, 0, 69, 0
2, 660000, Note_off_c, 0, 81, 0
2, 660000, Note_on_c, 0, 69, 95
2, 660120, Note_on_c, 0, 81, 95
2, 660219, Note_off_c, 0, 69, 0
2, 660240, Note_off_c, 0, 81, 0
2, 660240, Note_on_c, 0, 75, 110
2, 660360, Note_on_c, 0, 87, 102
2, 660459, Note_off_c, 0, 75, 0
2, 660480, Note_off_c, 0, 87, 0
2, 660480, Note_on_c, 0, 74, 95
2, 660699, Note_off_c, 0, 74, 0
2, 660720, Note_on_c, 0, 86, 93
2, 660840, Note_off_c, 0, 86, 0
2, 660840, Note_on_c, 0, 85, 92
2, 660960, Note_off_c, 0, 85, 0
2, 660960, Note_on_c, 0, 86, 91
2, 661080, Note_off_c, 0, 86, 0
2, 661080, Note_on_c, 0, 84, 90
2, 661200, Note_off_c, 0, 84, 0
2, 661200, Note_on_c, 0, 82, 89
2, 661320, Note_off_c, 0, 82, 0
2, 661320, Note_on_c, 0, 81, 89
2, 661440, Note_off_c, 0, 81, 0
2, 661440, Note_on_c, 0, 79, 88
2, 661560, Note_off_c, 0, 79, 0
2, 661560, Note_on_c, 0, 77, 87
2, 661680, Note_off_c, 0, 77, 0
2, 661680, Note_on_c, 0, 76, 86
2, 661800, Note_off_c, 0, 76, 0
2, 661800, Note_on_c, 0, 74, 85
2, 661920, Note_off_c, 0, 74, 0
2, 661920, Note_on_c, 0, 72, 84
2, 662040, Note_off_c, 0, 72, 0
2, 662040, Note_on_c, 0, 70, 83
2, 662160, Note_off_c, 0, 70, 0
2, 662160, Note_on_c, 0, 69, 82
2, 662280, Note_off_c, 0, 69, 0
2, 662280, Note_on_c, 0, 67, 81
2, 662400, Note_off_c, 0, 67, 0
2, 662400, Note_on_c, 0, 65, 80
2, 662520, Note_off_c, 0, 65, 0
2, 662640, Note_on_c, 0, 60, 61
2, 662760, Note_off_c, 0, 60, 0
2, 662880, Note_on_c, 0, 60, 61
2, 663000, Note_off_c, 0, 60, 0
2, 663120, Note_on_c, 0, 65, 61
2, 663240, Note_off_c, 0, 65, 0
2, 663360, Note_on_c, 0, 60, 70
2, 663480, Note_off_c, 0, 60, 0
2, 663600, Note_on_c, 0, 60, 61
2, 663720, Note_off_c, 0, 60, 0
2, 663840, Note_on_c, 0, 60, 60
2, 663960, Note_off_c, 0, 60, 0
2, 664080, Note_on_c, 0, 65, 60
2, 664200, Note_off_c, 0, 65, 0
2, 664320, Note_on_c, 0, 60, 71
2, 664440, Note_off_c, 0, 60, 0
2, 664560, Note_on_c, 0, 67, 62
2, 664680, Note_off_c, 0, 67, 0
2, 664800, Note_on_c, 0, 67, 64
2, 664920, Note_off_c, 0, 67, 0
2, 665040, Note_on_c, 0, 67, 66
2, 665160, Note_off_c, 0, 67, 0
2, 665280, Note_on_c, 0, 67, 70
2, 665400, Note_off_c, 0, 67, 0
2, 665520, Note_on_c, 0, 67, 68
2, 665640, Note_off_c, 0, 67, 0
2, 665760, Note_on_c, 0, 67, 65
2, 665880, Note_off_c, 0, 67, 0
2, 665880, Note_on_c, 0, 69, 64
2, 666000, Note_off_c, 0, 69, 0
2, 666000, Note_on_c, 0, 67, 63
2, 666120, Note_off_c, 0, 67, 0
2, 666120, Note_on_c, 0, 69, 61
2, 666240, Note_off_c, 0, 69, 0
2, 666240, Note_on_c, 0, 65, 67
2, 666360, Note_off_c, 0, 65, 0
2, 666480, Note_on_c, 0, 60, 58
2, 666600, Note_off_c, 0, 60, 0
2, 666720, Note_on_c, 0, 60, 58
2, 666840, Note_off_c, 0, 60, 0
2, 666960, Note_on_c, 0, 65, 58
2, 667080, Note_off_c, 0, 65, 0
2, 667200, Note_on_c, 0, 60, 67
2, 667320, Note_off_c, 0, 60, 0
2, 667440, Note_on_c, 0, 60, 57
2, 667560, Note_off_c, 0, 60, 0
2, 667680, Note_on_c, 0, 60, 57
2, 667800, Note_off_c, 0, 60, 0
2, 667920, Note_on_c, 0, 65, 56
2, 668040, Note_off_c, 0, 65, 0
2, 668160, Note_on_c, 0, 60, 66
2, 668280, Note_off_c, 0, 60, 0
2, 668400, Note_on_c, 0, 67, 60
2, 668520, Note_off_c, 0, 67, 0
2, 668640, Note_on_c, 0, 67, 62
2, 668760, Note_off_c, 0, 67, 0
2, 668880, Note_on_c, 0, 67, 63
2, 669000, Note_off_c, 0, 67, 0
2, 669120, Note_on_c, 0, 67, 67
2, 669240, Note_off_c, 0, 67, 0
2, 669360, Note_on_c, 0, 67, 64
2, 669480, Note_off_c, 0, 67, 0
2, 669600, Note_on_c, 0, 67, 62
2, 669720, Note_off_c, 0, 67, 0
2, 669720, Note_on_c, 0, 69, 61
2, 669840, Note_off_c, 0, 69, 0
2, 669840, Note_on_c, 0, 67, 59
2, 669960, Note_off_c, 0, 67, 0
2, 669960, Note_on_c, 0, 69, 58
2, 670080, Note_off_c, 0, 69, 0
2, 670080, Note_on_c, 0, 65, 65
2, 670200, Note_off_c, 0, 65, 0
2, 670320, Note_on_c, 0, 84, 55
2, 670440, Note_off_c, 0, 84, 0
2, 670560, Note_on_c, 0, 84, 55
2, 670680, Note_off_c, 0, 84, 0
2, 670800, Note_on_c, 0, 84, 54
2, 670920, Note_off_c, 0, 84, 0
2, 671040, Note_on_c, 0, 84, 63
2, 671160, Note_off_c, 0, 84, 0
2, 671280, Note_on_c, 0, 84, 54
2, 671400, Note_off_c, 0, 84, 0
2, 671520, Note_on_c, 0, 84, 54
2, 671640, Note_off_c, 0, 84, 0
2, 671760, Note_on_c, 0, 84, 54
2, 671880, Note_off_c, 0, 84, 0
2, 672000, Note_on_c, 0, 84, 66
2, 672120, Note_off_c, 0, 84, 0
2, 672240, Note_on_c, 0, 84, 56
2, 672360, Note_off_c, 0, 84, 0
2, 672480, Note_on_c, 0, 84, 58
2, 672600, Note_off_c, 0, 84, 0
2, 672720, Note_on_c, 0, 84, 59
2, 672840, Note_off_c, 0, 84, 0
2, 672960, Note_on_c, 0, 84, 66
2, 673080, Note_off_c, 0, 84, 0
2, 673200, Note_on_c, 0, 84, 61
2, 673320, Note_off_c, 0, 84, 0
2, 673440, Note_on_c, 0, 84, 59
2, 673560, Note_off_c, 0, 84, 0
2, 673680, Note_on_c, 0, 84, 56
2, 673800, Note_off_c, 0, 84, 0
2, 673920, Note_on_c, 0, 84, 63
2, 674040, Note_off_c, 0, 84, 0
2, 674160, Note_on_c, 0, 84, 52
2, 674280, Note_off_c, 0, 84, 0
2, 674400, Note_on_c, 0, 84, 51
2, 674520, Note_off_c, 0, 84, 0
2, 674640, Note_on_c, 0, 84, 51
2, 674760, Note_off_c, 0, 84, 0
2, 674880, Note_on_c, 0, 84, 60
2, 675000, Note_off_c, 0, 84, 0
2, 675120, Note_on_c, 0, 84, 51
2, 675240, Note_off_c, 0, 84, 0
2, 675360, Note_on_c, 0, 84, 51
2, 675480, Note_off_c, 0, 84, 0
2, 675600, Note_on_c, 0, 84, 50
2, 675720, Note_off_c, 0, 84, 0
2, 675840, Note_on_c, 0, 84, 61
2, 675960, Note_off_c, 0, 84, 0
2, 676080, Note_on_c, 0, 84, 52
2, 676200, Note_off_c, 0, 84, 0
2, 676320, Note_on_c, 0, 84, 54
2, 676440, Note_off_c, 0, 84, 0
2, 676560, Note_on_c, 0, 84, 56
2, 676680, Note_off_c, 0, 84, 0
2, 676800, Note_on_c, 0, 84, 61
2, 676920, Note_off_c, 0, 84, 0
2, 677040, Note_on_c, 0, 84, 59
2, 677160, Note_off_c, 0, 84, 0
2, 677280, Note_on_c, 0, 84, 56
2, 677400, Note_off_c, 0, 84, 0
2, 677520, Note_on_c, 0, 84, 54
2, 677640, Note_off_c, 0, 84, 0
2, 677760, Note_on_c, 0, 84, 52
2, 677880, Note_off_c, 0, 84, 0
2, 678000, Note_on_c, 0, 84, 54
2, 678120, Note_off_c, 0, 84, 0
2, 678240, Note_on_c, 0, 84, 56
2, 678360, Note_off_c, 0, 84, 0
2, 678480, Note_on_c, 0, 84, 58
2, 678600, Note_off_c, 0, 84, 0
2, 678720, Note_on_c, 0, 84, 60
2, 678840, Note_off_c, 0, 84, 0
2, 678960, Note_on_c, 0, 84, 62
2, 679080, Note_off_c, 0, 84, 0
2, 679200, Note_on_c, 0, 86, 63
2, 679320, Note_off_c, 0, 86, 0
2, 679440, Note_on_c, 0, 88, 65
2, 679560, Note_off_c, 0, 88, 0
2, 679680, Note_on_c, 0, 89, 67
2, 679800, Note_off_c, 0, 89, 0
2, 679920, Note_on_c, 0, 84, 69
2, 680040, Note_off_c, 0, 84, 0
2, 680160, Note_on_c, 0, 84, 71
2, 680280, Note_off_c, 0, 84, 0
2, 680400, Note_on_c, 0, 84, 73
2, 680520, Note_off_c, 0, 84, 0
2, 680640, Note_on_c, 0, 84, 75
2, 680760, Note_off_c, 0, 84, 0
2, 680880, Note_on_c, 0, 84, 77
2, 681000, Note_off_c, 0, 84, 0
2, 681120, Note_on_c, 0, 84, 79
2, 681240, Note_off_c, 0, 84, 0
2, 681360, Note_on_c, 0, 84, 81
2, 681480, Note_off_c, 0, 84, 0
2, 681600, Note_on_c, 0, 77, 83
2, 681600, Note_on_c, 0, 89, 83
2, 681720, Note_off_c, 0, 89, 0
2, 681720, Note_off_c, 0, 77, 0
2, 681840, Note_on_c, 0, 76, 85
2, 681840, Note_on_c, 0, 88, 85
2, 681960, Note_off_c, 0, 88, 0
2, 681960, Note_off_c, 0, 76, 0
2, 682080, Note_on_c, 0, 74, 87
2, 682080, Note_on_c, 0, 86, 87
2, 682200, Note_off_c, 0, 86, 0
2, 682200, Note_off_c, 0, 74, 0
2, 682320, Note_on_c, 0, 84, 89
2, 682320, Note_on_c, 0, 72, 89
2, 682440, Note_off_c, 0, 72, 0
2, 682440, Note_off_c, 0, 84, 0
2, 682560, Note_on_c, 0, 82, 90
2, 682560, Note_on_c, 0, 70, 90
2, 682680, Note_off_c, 0, 70, 0
2, 682680, Note_off_c, 0, 82, 0
2, 682800, Note_on_c, 0, 81, 92
2, 682800, Note_on_c, 0, 69, 92
2, 682920, Note_off_c, 0, 69, 0
2, 682920, Note_off_c, 0, 81, 0
2, 683040, Note_on_c, 0, 67, 94
2, 683040, Note_on_c, 0, 79, 94
2, 683160, Note_off_c, 0, 79, 0
2, 683160, Note_off_c, 0, 67, 0
2, 683280, Note_on_c, 0, 72, 96
2, 683280, Note_on_c, 0, 84, 96
2, 683400, Note_off_c, 0, 84, 0
2, 683400, Note_off_c, 0, 72, 0
2, 683520, Note_on_c, 0, 65, 98
2, 683520, Note_on_c, 0, 77, 98
2, 683640, Note_off_c, 0, 77, 0
2, 683640, Note_off_c, 0, 65, 0
2, 683760, Note_on_c, 0, 64, 99
2, 683760, Note_on_c, 0, 76, 99
2, 683880, Note_off_c, 0, 76, 0
2, 683880, Note_off_c, 0, 64, 0
2, 684000, Note_on_c, 0, 62, 100
2, 684000, Note_on_c, 0, 74, 100
2, 684120, Note_off_c, 0, 74, 0
2, 684120, Note_off_c, 0, 62, 0
2, 684240, Note_on_c, 0, 60, 101
2, 684240, Note_on_c, 0, 72, 101
2, 684360, Note_off_c, 0, 72, 0
2, 684360, Note_off_c, 0, 60, 0
2, 684480, Note_on_c, 0, 70, 102
2, 684480, Note_on_c, 0, 58, 102
2, 684600, Note_off_c, 0, 58, 0
2, 684600, Note_off_c, 0, 70, 0
2, 684720, Note_on_c, 0, 57, 103
2, 684720, Note_on_c, 0, 69, 103
2, 684840, Note_off_c, 0, 69, 0
2, 684840, Note_off_c, 0, 57, 0
2, 684960, Note_on_c, 0, 55, 104
2, 684960, Note_on_c, 0, 67, 104
2, 685080, Note_off_c, 0, 67, 0
2, 685080, Note_off_c, 0, 55, 0
2, 685200, Note_on_c, 0, 60, 105
2, 685200, Note_on_c, 0, 72, 105
2, 685320, Note_off_c, 0, 72, 0
2, 685320, Note_off_c, 0, 60, 0
2, 685440, Note_on_c, 0, 53, 106
2, 685440, Note_on_c, 0, 65, 106
2, 685800, Note_off_c, 0, 65, 0
2, 685800, Note_off_c, 0, 53, 0
2, 685800, End_track
3, 0, Start_track
3, 0, Title_t, "No Name"
3, 0, Control_c, 1, 0, 0
3, 0, Control_c, 1, 32, 0
3, 0, Program_c, 1, 0
3, 0, Control_c, 1, 10, 64
3, 0, Control_c, 1, 91, 91
3, 0, Control_c, 1, 93, 28
3, 0, Control_c, 1, 64, 0
3, 0, Control_c, 1, 1, 0
3, 0, Pitch_bend_c, 1, 8192
3, 0, Control_c, 1, 7, 117
3, 720, Note_on_c, 1, 60, 48
3, 720, Note_on_c, 1, 57, 48
3, 720, Note_on_c, 1, 65, 48
3, 840, Note_off_c, 1, 65, 0
3, 840, Note_off_c, 1, 57, 0
3, 840, Note_off_c, 1, 60, 0
3, 960, Note_on_c, 1, 69, 49
3, 960, Note_on_c, 1, 60, 49
3, 960, Note_on_c, 1, 65, 49
3, 1152, Note_off_c, 1, 65, 0
3, 1152, Note_off_c, 1, 60, 0
3, 1152, Note_off_c, 1, 69, 0
3, 2640, Note_on_c, 1, 60, 46
3, 2640, Note_on_c, 1, 65, 46
3, 2760, Note_off_c, 1, 65, 0
3, 2760, Note_off_c, 1, 60, 0
3, 2880, Note_on_c, 1, 60, 46
3, 2880, Note_on_c, 1, 67, 46
3, 3072, Note_off_c, 1, 67, 0
3, 3072, Note_off_c, 1, 60, 0
3, 12240, Note_on_c, 1, 60, 47
3, 12240, Note_on_c, 1, 65, 47
3, 12240, Note_on_c, 1, 57, 47
3, 12360, Note_off_c, 1, 57, 0
3, 12360, Note_off_c, 1, 65, 0
3, 12360, Note_off_c, 1, 60, 0
3, 12480, Note_on_c, 1, 69, 49
3, 12480, Note_on_c, 1, 65, 49
3, 12480, Note_on_c, 1, 60, 49
3, 12672, Note_off_c, 1, 60, 0
3, 12672, Note_off_c, 1, 65, 0
3, 12672, Note_off_c, 1, 69, 0
3, 14160, Note_on_c, 1, 60, 56
3, 14160, Note_on_c, 1, 57, 56
3, 14160, Note_on_c, 1, 63, 56
3, 14280, Note_off_c, 1, 63, 0
3, 14280, Note_off_c, 1, 57, 0
3, 14280, Note_off_c, 1, 60, 0
3, 14400, Note_on_c, 1, 69, 58
3, 14400, Note_on_c, 1, 63, 58
3, 14400, Note_on_c, 1, 60, 58
3, 14592, Note_off_c, 1, 60, 0
3, 14592, Note_off_c, 1, 63, 0
3, 14592, Note_off_c, 1, 69, 0
3, 16080, Note_on_c, 1, 63, 76
3, 16320, Note_off_c, 1, 63, 0
3, 16320, Note_on_c, 1, 64, 77
3, 16440, Note_off_c, 1, 64, 0
3, 16560, Note_on_c, 1, 63, 79
3, 16800, Note_off_c, 1, 63, 0
3, 16800, Note_on_c, 1, 64, 81
3, 16920, Note_off_c, 1, 64, 0
3, 17040, Note_on_c, 1, 63, 82
3, 17280, Note_off_c, 1, 63, 0
3, 17280, Note_on_c, 1, 64, 79
3, 17520, Note_off_c, 1, 64, 0
3, 18720, Note_on_c, 1, 64, 50
3, 18720, Note_on_c, 1, 60, 50
3, 19200, Note_off_c, 1, 60, 0
3, 19200, Note_off_c, 1, 64, 0
3, 19200, Note_on_c, 1, 69, 54
3, 19200, Note_on_c, 1, 65, 54
3, 19920, Note_off_c, 1, 65, 0
3, 19920, Note_off_c, 1, 69, 0
3, 22080, Note_on_c, 1, 62, 44
3, 22080, Note_on_c, 1, 65, 44
3, 22560, Note_off_c, 1, 65, 0
3, 22560, Note_off_c, 1, 62, 0
3, 22560, Note_on_c, 1, 65, 47
3, 22560, Note_on_c, 1, 71, 47
3, 23040, Note_off_c, 1, 71, 0
3, 23040, Note_off_c, 1, 65, 0
3, 23040, Note_on_c, 1, 71, 49
3, 23040, Note_on_c, 1, 74, 49
3, 23760, Note_off_c, 1, 74, 0
3, 23760, Note_off_c, 1, 71, 0
3, 25920, Note_on_c, 1, 67, 82
3, 25920, Note_on_c, 1, 72, 82
3, 26400, Note_off_c, 1, 72, 0
3, 26400, Note_off_c, 1, 67, 0
3, 26400, Note_on_c, 1, 76, 85
3, 26400, Note_on_c, 1, 72, 85
3, 26880, Note_off_c, 1, 72, 0
3, 26880, Note_off_c, 1, 76, 0
3, 29520, Note_on_c, 1, 72, 63
3, 29640, Note_off_c, 1, 72, 0
3, 29760, Note_on_c, 1, 72, 68
3, 30000, Note_off_c, 1, 72, 0
3, 30000, Note_on_c, 1, 71, 62
3, 30120, Note_off_c, 1, 71, 0
3, 31440, Note_on_c, 1, 72, 58
3, 31560, Note_off_c, 1, 72, 0
3, 31680, Note_on_c, 1, 72, 64
3, 31800, Note_off_c, 1, 72, 0
3, 31800, Note_on_c, 1, 71, 57
3, 31920, Note_off_c, 1, 71, 0
3, 31920, Note_on_c, 1, 69, 57
3, 32040, Note_off_c, 1, 69, 0
3, 32040, Note_on_c, 1, 67, 57
3, 32160, Note_off_c, 1, 67, 0
3, 38400, Note_on_c, 1, 74, 49
3, 38400, Note_on_c, 1, 69, 49
3, 38520, Note_off_c, 1, 69, 0
3, 38520, Note_off_c, 1, 74, 0
3, 38880, Note_on_c, 1, 67, 46
3, 38880, Note_on_c, 1, 71, 46
3, 39000, Note_off_c, 1, 71, 0
3, 39000, Note_off_c, 1, 67, 0
3, 39360, Note_on_c, 1, 67, 43
3, 39360, Note_on_c, 1, 64, 43
3, 39360, Note_on_c, 1, 72, 43
3, 39516, Note_off_c, 1, 72, 0
3, 39516, Note_off_c, 1, 64, 0
3, 39516, Note_off_c, 1, 67, 0
3, 40200, Note_on_c, 1, 75, 85
3, 40260, Note_off_c, 1, 75, 0
3, 40260, Note_on_c, 1, 67, 85
3, 40320, Note_off_c, 1, 67, 0
3, 40440, Note_on_c, 1, 77, 84
3, 40500, Note_off_c, 1, 77, 0
3, 40500, Note_on_c, 1, 67, 84
3, 40560, Note_off_c, 1, 67, 0
3, 40680, Note_on_c, 1, 74, 83
3, 40740, Note_off_c, 1, 74, 0
3, 40740, Note_on_c, 1, 67, 83
3, 40800, Note_off_c, 1, 67, 0
3, 40920, Note_on_c, 1, 71, 82
3, 40980, Note_off_c, 1, 71, 0
3, 40980, Note_on_c, 1, 67, 82
3, 41040, Note_off_c, 1, 67, 0
3, 41160, Note_on_c, 1, 72, 81
3, 41220, Note_off_c, 1, 72, 0
3, 41220, Note_on_c, 1, 67, 81
3, 41280, Note_off_c, 1, 67, 0
3, 41400, Note_on_c, 1, 77, 81
3, 41460, Note_off_c, 1, 77, 0
3, 41460, Note_on_c, 1, 67, 80
3, 41520, Note_off_c, 1, 67, 0
3, 41640, Note_on_c, 1, 74, 80
3, 41700, Note_off_c, 1, 74, 0
3, 41700, Note_on_c, 1, 67, 79
3, 41760, Note_off_c, 1, 67, 0
3, 41880, Note_on_c, 1, 71, 79
3, 41940, Note_off_c, 1, 71, 0
3, 41940, Note_on_c, 1, 67, 78
3, 42000, Note_off_c, 1, 67, 0
3, 42120, Note_on_c, 1, 72, 78
3, 42180, Note_off_c, 1, 72, 0
3, 42180, Note_on_c, 1, 67, 78
3, 42240, Note_off_c, 1, 67, 0
3, 42240, Note_on_c, 1, 74, 82
3, 42240, Note_on_c, 1, 68, 82
3, 42360, Note_off_c, 1, 68, 0
3, 42360, Note_off_c, 1, 74, 0
3, 42720, Note_on_c, 1, 65, 80
3, 42720, Note_on_c, 1, 71, 80
3, 42840, Note_off_c, 1, 71, 0
3, 42840, Note_off_c, 1, 65, 0
3, 43200, Note_on_c, 1, 63, 78
3, 43200, Note_on_c, 1, 68, 78
3, 43320, Note_off_c, 1, 68, 0
3, 43320, Note_off_c, 1, 63, 0
3, 44160, Note_on_c, 1, 69, 52
3, 44160, Note_on_c, 1, 63, 52
3, 44280, Note_off_c, 1, 63, 0
3, 44280, Note_off_c, 1, 69, 0
3, 64080, Note_on_c, 1, 65, 48
3, 64080, Note_on_c, 1, 57, 48
3, 64080, Note_on_c, 1, 60, 48
3, 64200, Note_off_c, 1, 60, 0
3, 64200, Note_off_c, 1, 57, 0
3, 64200, Note_off_c, 1, 65, 0
3, 64320, Note_on_c, 1, 65, 49
3, 64320, Note_on_c, 1, 60, 49
3, 64320, Note_on_c, 1, 69, 49
3, 64512, Note_off_c, 1, 69, 0
3, 64512, Note_off_c, 1, 60, 0
3, 64512, Note_off_c, 1, 65, 0
3, 66000, Note_on_c, 1, 65, 46
3, 66000, Note_on_c, 1, 60, 46
3, 66120, Note_off_c, 1, 60, 0
3, 66120, Note_off_c, 1, 65, 0
3, 66240, Note_on_c, 1, 67, 46
3, 66240, Note_on_c, 1, 60, 46
3, 66432, Note_off_c, 1, 60, 0
3, 66432, Note_off_c, 1, 67, 0
3, 75600, Note_on_c, 1, 57, 47
3, 75600, Note_on_c, 1, 65, 47
3, 75600, Note_on_c, 1, 60, 47
3, 75720, Note_off_c, 1, 60, 0
3, 75720, Note_off_c, 1, 65, 0
3, 75720, Note_off_c, 1, 57, 0
3, 75840, Note_on_c, 1, 60, 49
3, 75840, Note_on_c, 1, 65, 49
3, 75840, Note_on_c, 1, 69, 49
3, 76032, Note_off_c, 1, 69, 0
3, 76032, Note_off_c, 1, 65, 0
3, 76032, Note_off_c, 1, 60, 0
3, 77520, Note_on_c, 1, 63, 56
3, 77520, Note_on_c, 1, 57, 56
3, 77520, Note_on_c, 1, 60, 56
3, 77640, Note_off_c, 1, 60, 0
3, 77640, Note_off_c, 1, 57, 0
3, 77640, Note_off_c, 1, 63, 0
3, 77760, Note_on_c, 1, 60, 58
3, 77760, Note_on_c, 1, 63, 58
3, 77760, Note_on_c, 1, 69, 58
3, 77952, Note_off_c, 1, 69, 0
3, 77952, Note_off_c, 1, 63, 0
3, 77952, Note_off_c, 1, 60, 0
3, 79440, Note_on_c, 1, 63, 76
3, 79680, Note_off_c, 1, 63, 0
3, 79680, Note_on_c, 1, 64, 77
3, 79800, Note_off_c, 1, 64, 0
3, 79920, Note_on_c, 1, 63, 79
3, 80160, Note_off_c, 1, 63, 0
3, 80160, Note_on_c, 1, 64, 81
3, 80280, Note_off_c, 1, 64, 0
3, 80400, Note_on_c, 1, 63, 82
3, 80640, Note_off_c, 1, 63, 0
3, 80640, Note_on_c, 1, 64, 79
3, 80880, Note_off_c, 1, 64, 0
3, 82080, Note_on_c, 1, 60, 50
3, 82080, Note_on_c, 1, 64, 50
3, 82560, Note_off_c, 1, 64, 0
3, 82560, Note_off_c, 1, 60, 0
3, 82560, Note_on_c, 1, 65, 54
3, 82560, Note_on_c, 1, 69, 54
3, 83280, Note_off_c, 1, 69, 0
3, 83280, Note_off_c, 1, 65, 0
3, 85440, Note_on_c, 1, 65, 44
3, 85440, Note_on_c, 1, 62, 44
3, 85920, Note_off_c, 1, 62, 0
3, 85920, Note_off_c, 1, 65, 0
3, 85920, Note_on_c, 1, 71, 47
3, 85920, Note_on_c, 1, 65, 47
3, 86400, Note_off_c, 1, 65, 0
3, 86400, Note_off_c, 1, 71, 0
3, 86400, Note_on_c, 1, 74, 49
3, 86400, Note_on_c, 1, 71, 49
3, 87120, Note_off_c, 1, 71, 0
3, 87120, Note_off_c, 1, 74, 0
3, 89280, Note_on_c, 1, 72, 82
3, 89280, Note_on_c, 1, 67, 82
3, 89760, Note_off_c, 1, 67, 0
3, 89760, Note_off_c, 1, 72, 0
3, 89760, Note_on_c, 1, 72, 85
3, 89760, Note_on_c, 1, 76, 85
3, 90240, Note_off_c, 1, 76, 0
3, 90240, Note_off_c, 1, 72, 0
3, 92880, Note_on_c, 1, 72, 63
3, 93000, Note_off_c, 1, 72, 0
3, 93120, Note_on_c, 1, 72, 68
3, 93360, Note_off_c, 1, 72, 0
3, 93360, Note_on_c, 1, 71, 62
3, 93480, Note_off_c, 1, 71, 0
3, 94800, Note_on_c, 1, 72, 58
3, 94920, Note_off_c, 1, 72, 0
3, 95040, Note_on_c, 1, 72, 64
3, 95160, Note_off_c, 1, 72, 0
3, 95160, Note_on_c, 1, 71, 57
3, 95280, Note_off_c, 1, 71, 0
3, 95280, Note_on_c, 1, 69, 57
3, 95400, Note_off_c, 1, 69, 0
3, 95400, Note_on_c, 1, 67, 57
3, 95520, Note_off_c, 1, 67, 0
3, 101760, Note_on_c, 1, 69, 49
3, 101760, Note_on_c, 1, 74, 49
3, 101880, Note_off_c, 1, 74, 0
3, 101880, Note_off_c, 1, 69, 0
3, 102240, Note_on_c, 1, 71, 46
3, 102240, Note_on_c, 1, 67, 46
3, 102360, Note_off_c, 1, 67, 0
3, 102360, Note_off_c, 1, 71, 0
3, 102720, Note_on_c, 1, 72, 43
3, 102720, Note_on_c, 1, 64, 43
3, 102720, Note_on_c, 1, 67, 43
3, 102876, Note_off_c, 1, 67, 0
3, 102876, Note_off_c, 1, 64, 0
3, 102876, Note_off_c, 1, 72, 0
3, 103560, Note_on_c, 1, 75, 85
3, 103620, Note_off_c, 1, 75, 0
3, 103620, Note_on_c, 1, 67, 85
3, 103680, Note_off_c, 1, 67, 0
3, 103800, Note_on_c, 1, 77, 84
3, 103860, Note_off_c, 1, 77, 0
3, 103860, Note_on_c, 1, 67, 84
3, 103920, Note_off_c, 1, 67, 0
3, 104040, Note_on_c, 1, 74, 83
3, 104100, Note_off_c, 1, 74, 0
3, 104100, Note_on_c, 1, 67, 83
3, 104160, Note_off_c, 1, 67, 0
3, 104280, Note_on_c, 1, 71, 82
3, 104340, Note_off_c, 1, 71, 0
3, 104340, Note_on_c, 1, 67, 82
3, 104400, Note_off_c, 1, 67, 0
3, 104520, Note_on_c, 1, 72, 81
3, 104580, Note_off_c, 1, 72, 0
3, 104580, Note_on_c, 1, 67, 81
3, 104640, Note_off_c, 1, 67, 0
3, 104760, Note_on_c, 1, 77, 81
3, 104820, Note_off_c, 1, 77, 0
3, 104820, Note_on_c, 1, 67, 80
3, 104880, Note_off_c, 1, 67, 0
3, 105000, Note_on_c, 1, 74, 80
3, 105060, Note_off_c, 1, 74, 0
3, 105060, Note_on_c, 1, 67, 79
3, 105120, Note_off_c, 1, 67, 0
3, 105240, Note_on_c, 1, 71, 79
3, 105300, Note_off_c, 1, 71, 0
3, 105300, Note_on_c, 1, 67, 78
3, 105360, Note_off_c, 1, 67, 0
3, 105480, Note_on_c, 1, 72, 78
3, 105540, Note_off_c, 1, 72, 0
3, 105540, Note_on_c, 1, 67, 78
3, 105600, Note_off_c, 1, 67, 0
3, 105600, Note_on_c, 1, 68, 82
3, 105600, Note_on_c, 1, 74, 82
3, 105720, Note_off_c, 1, 74, 0
3, 105720, Note_off_c, 1, 68, 0
3, 106080, Note_on_c, 1, 71, 80
3, 106080, Note_on_c, 1, 65, 80
3, 106200, Note_off_c, 1, 65, 0
3, 106200, Note_off_c, 1, 71, 0
3, 106560, Note_on_c, 1, 68, 78
3, 106560, Note_on_c, 1, 63, 78
3, 106680, Note_off_c, 1, 63, 0
3, 106680, Note_off_c, 1, 68, 0
3, 107520, Note_on_c, 1, 63, 52
3, 107520, Note_on_c, 1, 69, 52
3, 107640, Note_off_c, 1, 69, 0
3, 107640, Note_off_c, 1, 63, 0
3, 127680, Control_c, 1, 64, 0
3, 133440, Note_on_c, 1, 74, 83
3, 133440, Note_on_c, 1, 77, 83
3, 133440, Note_on_c, 1, 81, 83
3, 133560, Note_off_c, 1, 81, 0
3, 133560, Note_off_c, 1, 77, 0
3, 133560, Note_off_c, 1, 74, 0
3, 133920, Note_on_c, 1, 73, 82
3, 133920, Note_on_c, 1, 76, 82
3, 133920, Note_on_c, 1, 69, 82
3, 134040, Note_off_c, 1, 69, 0
3, 134040, Note_off_c, 1, 76, 0
3, 134040, Note_off_c, 1, 73, 0
3, 134400, Note_on_c, 1, 69, 80
3, 134400, Note_on_c, 1, 62, 80
3, 134400, Note_on_c, 1, 65, 80
3, 134520, Note_off_c, 1, 65, 0
3, 134520, Note_off_c, 1, 62, 0
3, 134520, Note_off_c, 1, 69, 0
3, 135360, Note_on_c, 1, 73, 77
3, 135360, Note_on_c, 1, 69, 77
3, 135360, Note_on_c, 1, 76, 77
3, 135480, Note_off_c, 1, 76, 0
3, 135480, Note_off_c, 1, 69, 0
3, 135480, Note_off_c, 1, 73, 0
3, 135840, Note_on_c, 1, 68, 75
3, 135840, Note_on_c, 1, 64, 75
3, 135840, Note_on_c, 1, 71, 75
3, 135960, Note_off_c, 1, 71, 0
3, 135960, Note_off_c, 1, 64, 0
3, 135960, Note_off_c, 1, 68, 0
3, 136320, Note_on_c, 1, 64, 74
3, 136320, Note_on_c, 1, 61, 74
3, 136440, Note_off_c, 1, 61, 0
3, 136440, Note_off_c, 1, 64, 0
3, 158400, Note_on_c, 1, 73, 49
3, 158400, Note_on_c, 1, 70, 49
3, 158400, Note_on_c, 1, 77, 49
3, 158520, Note_off_c, 1, 77, 0
3, 158520, Note_off_c, 1, 70, 0
3, 158520, Note_off_c, 1, 73, 0
3, 158880, Note_on_c, 1, 65, 60
3, 158880, Note_on_c, 1, 73, 60
3, 158880, Note_on_c, 1, 70, 60
3, 159000, Note_off_c, 1, 70, 0
3, 159000, Note_off_c, 1, 73, 0
3, 159000, Note_off_c, 1, 65, 0
3, 159360, Note_on_c, 1, 61, 70
3, 159360, Note_on_c, 1, 65, 70
3, 159360, Note_on_c, 1, 70, 70
3, 159480, Note_off_c, 1, 70, 0
3, 159480, Note_off_c, 1, 65, 0
3, 159480, Note_off_c, 1, 61, 0
3, 160320, Note_on_c, 1, 63, 88
3, 160320, Note_on_c, 1, 65, 88
3, 160320, Note_on_c, 1, 69, 88
3, 160440, Note_off_c, 1, 69, 0
3, 160440, Note_off_c, 1, 65, 0
3, 160440, Note_off_c, 1, 63, 0
3, 160800, Note_on_c, 1, 63, 80
3, 160800, Note_on_c, 1, 65, 80
3, 160800, Note_on_c, 1, 69, 80
3, 160920, Note_off_c, 1, 69, 0
3, 160920, Note_off_c, 1, 65, 0
3, 160920, Note_off_c, 1, 63, 0
3, 161280, Note_on_c, 1, 60, 71
3, 161280, Note_on_c, 1, 63, 71
3, 161280, Note_on_c, 1, 65, 71
3, 161400, Note_off_c, 1, 65, 0
3, 161400, Note_off_c, 1, 63, 0
3, 161400, Note_off_c, 1, 60, 0
3, 176400, Note_on_c, 1, 62, 47
3, 176520, Note_off_c, 1, 62, 0
3, 176640, Note_on_c, 1, 66, 47
3, 176640, Note_on_c, 1, 62, 47
3, 176832, Note_off_c, 1, 62, 0
3, 176832, Note_off_c, 1, 66, 0
3, 178320, Note_on_c, 1, 62, 42
3, 178440, Note_off_c, 1, 62, 0
3, 178560, Note_on_c, 1, 64, 45
3, 178752, Note_off_c, 1, 64, 0
3, 188880, Note_on_c, 1, 66, 39
3, 189000, Note_off_c, 1, 66, 0
3, 189120, Note_on_c, 1, 67, 39
3, 189312, Note_off_c, 1, 67, 0
3, 190800, Note_on_c, 1, 67, 35
3, 190920, Note_off_c, 1, 67, 0
3, 191040, Note_on_c, 1, 64, 35
3, 191232, Note_off_c, 1, 64, 0
3, 202560, Note_on_c, 1, 60, 51
3, 202560, Note_on_c, 1, 65, 51
3, 203040, Note_off_c, 1, 65, 0
3, 203040, Note_off_c, 1, 60, 0
3, 203040, Note_on_c, 1, 65, 54
3, 203040, Note_on_c, 1, 69, 54
3, 203520, Note_off_c, 1, 69, 0
3, 203520, Note_off_c, 1, 65, 0
3, 203520, Note_on_c, 1, 70, 58
3, 203520, Note_on_c, 1, 74, 58
3, 204240, Note_off_c, 1, 74, 0
3, 204240, Note_off_c, 1, 70, 0
3, 204240, Note_on_c, 1, 72, 64
3, 204240, Note_on_c, 1, 77, 64
3, 204480, Note_off_c, 1, 77, 0
3, 204480, Note_off_c, 1, 72, 0
3, 204480, Note_on_c, 1, 81, 66
3, 204480, Note_on_c, 1, 77, 66
3, 204720, Note_off_c, 1, 77, 0
3, 204720, Note_off_c, 1, 81, 0
3, 204720, Note_on_c, 1, 84, 76
3, 204720, Note_on_c, 1, 81, 76
3, 205200, Note_off_c, 1, 81, 0
3, 205200, Note_off_c, 1, 84, 0
3, 205200, Note_on_c, 1, 81, 65
3, 205200, Note_on_c, 1, 84, 65
3, 205440, Note_off_c, 1, 84, 0
3, 205440, Note_off_c, 1, 81, 0
3, 205440, Note_on_c, 1, 84, 62
3, 205440, Note_on_c, 1, 82, 62
3, 206160, Note_off_c, 1, 84, 0
3, 206167, Note_off_c, 1, 82, 0
3, 206400, Note_on_c, 1, 58, 45
3, 206400, Note_on_c, 1, 55, 45
3, 206880, Note_off_c, 1, 55, 0
3, 206880, Note_off_c, 1, 58, 0
3, 206880, Note_on_c, 1, 64, 48
3, 206880, Note_on_c, 1, 58, 48
3, 207360, Note_off_c, 1, 58, 0
3, 207360, Note_off_c, 1, 64, 0
3, 207360, Note_on_c, 1, 67, 52
3, 207360, Note_on_c, 1, 64, 52
3, 208080, Note_off_c, 1, 64, 0
3, 208080, Note_off_c, 1, 67, 0
3, 220560, Note_on_c, 1, 77, 46
3, 220680, Note_off_c, 1, 77, 0
3, 220800, Note_on_c, 1, 77, 46
3, 221040, Note_off_c, 1, 77, 0
3, 221040, Note_on_c, 1, 76, 46
3, 221160, Note_off_c, 1, 76, 0
3, 222480, Note_on_c, 1, 77, 52
3, 222600, Note_off_c, 1, 77, 0
3, 222720, Note_on_c, 1, 77, 42
3, 222840, Note_off_c, 1, 77, 0
3, 222840, Note_on_c, 1, 76, 42
3, 222960, Note_off_c, 1, 76, 0
3, 222960, Note_on_c, 1, 74, 42
3, 223080, Note_off_c, 1, 74, 0
3, 223080, Note_on_c, 1, 72, 42
3, 223200, Note_off_c, 1, 72, 0
3, 223440, Note_on_c, 1, 77, 50
3, 223560, Note_off_c, 1, 77, 0
3, 223680, Note_on_c, 1, 77, 41
3, 223800, Note_off_c, 1, 77, 0
3, 223800, Note_on_c, 1, 76, 40
3, 223920, Note_off_c, 1, 76, 0
3, 223920, Note_on_c, 1, 74, 40
3, 224040, Note_off_c, 1, 74, 0
3, 224040, Note_on_c, 1, 72, 40
3, 224160, Note_off_c, 1, 72, 0
3, 224400, Note_on_c, 1, 77, 48
3, 224520, Note_off_c, 1, 77, 0
3, 224640, Note_on_c, 1, 77, 39
3, 224760, Note_off_c, 1, 77, 0
3, 224760, Note_on_c, 1, 76, 39
3, 224880, Note_off_c, 1, 76, 0
3, 224880, Note_on_c, 1, 74, 38
3, 225000, Note_off_c, 1, 74, 0
3, 225000, Note_on_c, 1, 72, 38
3, 225120, Note_off_c, 1, 72, 0
3, 225120, Note_on_c, 1, 71, 38
3, 225240, Note_off_c, 1, 71, 0
3, 225240, Note_on_c, 1, 72, 38
3, 225360, Note_off_c, 1, 72, 0
3, 225360, Note_on_c, 1, 74, 38
3, 225480, Note_off_c, 1, 74, 0
3, 225480, Note_on_c, 1, 72, 37
3, 225600, Note_off_c, 1, 72, 0
3, 225600, Note_on_c, 1, 71, 37
3, 225720, Note_off_c, 1, 71, 0
3, 225720, Note_on_c, 1, 72, 37
3, 225840, Note_off_c, 1, 72, 0
3, 225840, Note_on_c, 1, 74, 37
3, 225960, Note_off_c, 1, 74, 0
3, 225960, Note_on_c, 1, 72, 36
3, 226080, Note_off_c, 1, 72, 0
3, 226080, Note_on_c, 1, 71, 36
3, 226200, Note_off_c, 1, 71, 0
3, 226200, Note_on_c, 1, 72, 36
3, 226320, Note_off_c, 1, 72, 0
3, 226320, Note_on_c, 1, 73, 36
3, 226440, Note_off_c, 1, 73, 0
3, 226440, Note_on_c, 1, 74, 36
3, 226560, Note_off_c, 1, 74, 0
3, 228480, Note_on_c, 1, 67, 37
3, 228480, Note_on_c, 1, 62, 37
3, 228600, Note_off_c, 1, 62, 0
3, 228600, Note_off_c, 1, 67, 0
3, 228960, Note_on_c, 1, 64, 35
3, 228960, Note_on_c, 1, 60, 35
3, 229080, Note_off_c, 1, 60, 0
3, 229080, Note_off_c, 1, 64, 0
3, 229440, Note_on_c, 1, 60, 33
3, 229440, Note_on_c, 1, 65, 33
3, 229632, Note_off_c, 1, 65, 0
3, 229632, Note_off_c, 1, 60, 0
3, 230280, Note_on_c, 1, 80, 85
3, 230340, Note_off_c, 1, 80, 0
3, 230340, Note_on_c, 1, 72, 85
3, 230400, Note_off_c, 1, 72, 0
3, 230520, Note_on_c, 1, 82, 84
3, 230580, Note_off_c, 1, 82, 0
3, 230580, Note_on_c, 1, 72, 83
3, 230640, Note_off_c, 1, 72, 0
3, 230760, Note_on_c, 1, 79, 82
3, 230820, Note_off_c, 1, 79, 0
3, 230820, Note_on_c, 1, 72, 82
3, 230880, Note_off_c, 1, 72, 0
3, 231000, Note_on_c, 1, 76, 81
3, 231060, Note_off_c, 1, 76, 0
3, 231060, Note_on_c, 1, 72, 80
3, 231120, Note_off_c, 1, 72, 0
3, 231240, Note_on_c, 1, 77, 79
3, 231300, Note_off_c, 1, 77, 0
3, 231300, Note_on_c, 1, 72, 79
3, 231360, Note_off_c, 1, 72, 0
3, 231480, Note_on_c, 1, 82, 78
3, 231540, Note_off_c, 1, 82, 0
3, 231540, Note_on_c, 1, 72, 78
3, 231600, Note_off_c, 1, 72, 0
3, 231720, Note_on_c, 1, 79, 77
3, 231780, Note_off_c, 1, 79, 0
3, 231780, Note_on_c, 1, 72, 76
3, 231840, Note_off_c, 1, 72, 0
3, 231960, Note_on_c, 1, 76, 75
3, 232020, Note_off_c, 1, 76, 0
3, 232020, Note_on_c, 1, 72, 75
3, 232080, Note_off_c, 1, 72, 0
3, 232200, Note_on_c, 1, 77, 74
3, 232260, Note_off_c, 1, 77, 0
3, 232260, Note_on_c, 1, 72, 74
3, 232320, Note_off_c, 1, 72, 0
3, 232320, Note_on_c, 1, 79, 85
3, 232320, Note_on_c, 1, 73, 85
3, 232440, Note_off_c, 1, 73, 0
3, 232440, Note_off_c, 1, 79, 0
3, 232800, Note_on_c, 1, 70, 80
3, 232800, Note_on_c, 1, 76, 80
3, 232920, Note_off_c, 1, 76, 0
3, 232920, Note_off_c, 1, 70, 0
3, 233280, Note_on_c, 1, 68, 75
3, 233280, Note_on_c, 1, 73, 75
3, 233400, Note_off_c, 1, 73, 0
3, 233400, Note_off_c, 1, 68, 0
3, 234240, Note_on_c, 1, 56, 47
3, 234240, Note_on_c, 1, 62, 47
3, 234360, Note_off_c, 1, 62, 0
3, 234360, Note_off_c, 1, 56, 0
3, 243120, Note_on_c, 1, 77, 95
3, 243840, Note_off_c, 1, 77, 0
3, 258720, Control_c, 1, 64, 0
3, 259200, Control_c, 1, 64, 0
3, 266400, Note_on_c, 1, 63, 62
3, 266880, Note_on_c, 1, 68, 68
3, 267360, Note_off_c, 1, 63, 0
3, 267360, Note_on_c, 1, 65, 62
3, 267840, Note_off_c, 1, 68, 0
3, 267840, Note_on_c, 1, 70, 59
3, 268320, Note_off_c, 1, 70, 0
3, 268320, Note_off_c, 1, 65, 0
3, 268320, Note_on_c, 1, 63, 56
3, 268320, Note_on_c, 1, 68, 56
3, 269280, Note_off_c, 1, 68, 0
3, 269280, Note_off_c, 1, 63, 0
3, 269280, Note_on_c, 1, 67, 51
3, 269280, Note_on_c, 1, 61, 51
3, 269760, Note_off_c, 1, 61, 0
3, 269760, Note_off_c, 1, 67, 0
3, 269760, Note_on_c, 1, 60, 48
3, 270240, Note_off_c, 1, 60, 0
3, 270720, Control_c, 1, 64, 0
3, 270720, Control_c, 1, 7, 107
3, 277920, Note_on_c, 1, 63, 62
3, 278400, Note_on_c, 1, 68, 68
3, 278880, Note_off_c, 1, 63, 0
3, 278880, Note_on_c, 1, 65, 62
3, 279360, Note_off_c, 1, 68, 0
3, 279360, Note_on_c, 1, 70, 59
3, 279840, Note_off_c, 1, 70, 0
3, 279840, Note_off_c, 1, 65, 0
3, 279840, Note_on_c, 1, 68, 56
3, 279840, Note_on_c, 1, 63, 56
3, 280800, Note_off_c, 1, 63, 0
3, 280800, Note_off_c, 1, 68, 0
3, 280800, Note_on_c, 1, 61, 51
3, 280800, Note_on_c, 1, 67, 51
3, 281280, Note_off_c, 1, 67, 0
3, 281280, Note_off_c, 1, 61, 0
3, 281280, Note_on_c, 1, 60, 48
3, 281760, Note_off_c, 1, 60, 0
3, 282240, Control_c, 1, 64, 0
3, 282240, Control_c, 1, 7, 117
3, 283680, Note_on_c, 1, 65, 51
3, 283920, Note_off_c, 1, 65, 0
3, 284160, Note_on_c, 1, 65, 47
3, 284640, Note_off_c, 1, 65, 0
3, 284640, Note_on_c, 1, 67, 48
3, 284880, Note_off_c, 1, 67, 0
3, 284880, Note_on_c, 1, 65, 49
3, 285120, Note_off_c, 1, 65, 0
3, 285120, Note_on_c, 1, 67, 53
3, 285360, Note_off_c, 1, 67, 0
3, 285600, Note_on_c, 1, 67, 50
3, 285840, Note_off_c, 1, 67, 0
3, 286560, Note_on_c, 1, 67, 58
3, 286800, Note_off_c, 1, 67, 0
3, 287040, Note_on_c, 1, 67, 54
3, 287520, Note_off_c, 1, 67, 0
3, 287520, Note_on_c, 1, 69, 55
3, 287760, Note_off_c, 1, 69, 0
3, 287760, Note_on_c, 1, 67, 56
3, 288000, Note_off_c, 1, 67, 0
3, 288000, Note_on_c, 1, 69, 63
3, 288240, Note_off_c, 1, 69, 0
3, 288480, Note_on_c, 1, 69, 58
3, 288720, Note_off_c, 1, 69, 0
3, 289440, Note_on_c, 1, 69, 67
3, 289680, Note_off_c, 1, 69, 0
3, 289920, Note_on_c, 1, 69, 61
3, 290400, Note_off_c, 1, 69, 0
3, 290400, Note_on_c, 1, 70, 63
3, 290640, Note_off_c, 1, 70, 0
3, 290640, Note_on_c, 1, 69, 63
3, 290880, Note_off_c, 1, 69, 0
3, 290880, Note_on_c, 1, 70, 68
3, 291120, Note_off_c, 1, 70, 0
3, 291360, Note_on_c, 1, 71, 60
3, 292320, Note_off_c, 1, 71, 0
3, 292320, Note_on_c, 1, 71, 70
3, 292560, Note_off_c, 1, 71, 0
3, 292800, Note_on_c, 1, 67, 65
3, 293520, Note_off_c, 1, 67, 0
3, 302400, Note_on_c, 1, 68, 60
3, 302880, Note_off_c, 1, 68, 0
3, 302880, Note_on_c, 1, 70, 68
3, 302880, Note_on_c, 1, 73, 68
3, 302880, Note_on_c, 1, 76, 68
3, 304320, Note_off_c, 1, 76, 0
3, 304320, Note_off_c, 1, 73, 0
3, 304320, Note_off_c, 1, 70, 0
3, 304320, Note_on_c, 1, 76, 71
3, 304320, Note_on_c, 1, 73, 71
3, 304320, Note_on_c, 1, 70, 71
3, 305760, Note_off_c, 1, 70, 0
3, 305760, Note_off_c, 1, 73, 0
3, 305760, Note_off_c, 1, 76, 0
3, 305760, Note_on_c, 1, 68, 58
3, 306240, Note_off_c, 1, 68, 0
3, 306240, Note_on_c, 1, 70, 56
3, 306720, Note_off_c, 1, 70, 0
3, 306720, Note_on_c, 1, 67, 54
3, 307200, Note_off_c, 1, 67, 0
3, 307200, Note_on_c, 1, 68, 52
3, 307680, Note_off_c, 1, 68, 0
3, 308640, Note_on_c, 1, 58, 63
3, 308640, Note_on_c, 1, 64, 63
3, 308640, Note_on_c, 1, 61, 63
3, 310080, Note_off_c, 1, 61, 0
3, 310080, Note_off_c, 1, 64, 0
3, 310080, Note_off_c, 1, 58, 0
3, 310080, Note_on_c, 1, 58, 63
3, 310080, Note_on_c, 1, 64, 63
3, 310080, Note_on_c, 1, 61, 63
3, 311520, Note_off_c, 1, 61, 0
3, 311520, Note_off_c, 1, 64, 0
3, 311520, Note_off_c, 1, 58, 0
3, 311520, Note_on_c, 1, 56, 52
3, 312000, Note_off_c, 1, 56, 0
3, 312000, Note_on_c, 1, 58, 51
3, 312480, Note_off_c, 1, 58, 0
3, 312480, Note_on_c, 1, 55, 51
3, 312960, Note_off_c, 1, 55, 0
3, 312960, Note_on_c, 1, 56, 50
3, 313440, Note_off_c, 1, 56, 0
3, 314400, Note_on_c, 1, 60, 50
3, 315840, Note_off_c, 1, 60, 0
3, 315840, Note_on_c, 1, 64, 61
3, 315840, Note_on_c, 1, 60, 61
3, 316800, Note_off_c, 1, 64, 0
3, 316800, Note_on_c, 1, 65, 73
3, 317280, Note_off_c, 1, 65, 0
3, 317280, Note_off_c, 1, 60, 0
3, 317280, Note_on_c, 1, 67, 89
3, 317280, Note_on_c, 1, 64, 89
3, 318000, Note_off_c, 1, 64, 0
3, 318000, Note_off_c, 1, 67, 0
3, 320160, Note_on_c, 1, 76, 57
3, 320160, Note_on_c, 1, 72, 57
3, 321120, Note_off_c, 1, 76, 0
3, 321120, Note_on_c, 1, 77, 68
3, 321600, Note_off_c, 1, 77, 0
3, 321600, Note_on_c, 1, 79, 74
3, 322080, Note_off_c, 1, 79, 0
3, 322080, Note_off_c, 1, 72, 0
3, 322560, Note_on_c, 1, 79, 90
3, 322560, Note_on_c, 1, 76, 90
3, 322800, Note_off_c, 1, 76, 0
3, 322800, Note_off_c, 1, 79, 0
3, 323040, Note_on_c, 1, 80, 95
3, 323040, Note_on_c, 1, 77, 95
3, 323280, Note_off_c, 1, 77, 0
3, 323280, Note_off_c, 1, 80, 0
3, 324000, Note_on_c, 1, 56, 31
3, 324000, Note_on_c, 1, 53, 31
3, 324360, Note_off_c, 1, 53, 0
3, 324360, Note_off_c, 1, 56, 0
3, 324480, Note_on_c, 1, 56, 32
3, 324480, Note_on_c, 1, 53, 32
3, 325200, Note_off_c, 1, 53, 0
3, 325200, Note_off_c, 1, 56, 0
3, 325440, Note_on_c, 1, 56, 33
3, 325440, Note_on_c, 1, 53, 33
3, 325800, Note_off_c, 1, 53, 0
3, 325800, Note_off_c, 1, 56, 0
3, 325920, Note_on_c, 1, 56, 34
3, 325920, Note_on_c, 1, 53, 34
3, 326640, Note_off_c, 1, 53, 0
3, 326640, Note_off_c, 1, 56, 0
3, 326880, Note_on_c, 1, 56, 36
3, 326880, Note_on_c, 1, 53, 36
3, 327240, Note_off_c, 1, 53, 0
3, 327240, Note_off_c, 1, 56, 0
3, 327360, Note_on_c, 1, 58, 43
3, 327360, Note_on_c, 1, 54, 43
3, 330240, Note_off_c, 1, 54, 0
3, 330240, Note_off_c, 1, 58, 0
3, 330240, Note_on_c, 1, 63, 40
3, 330240, Note_on_c, 1, 56, 40
3, 330960, Note_off_c, 1, 56, 0
3, 330960, Note_off_c, 1, 63, 0
3, 331200, Note_on_c, 1, 63, 43
3, 331200, Note_on_c, 1, 56, 43
3, 331560, Note_off_c, 1, 56, 0
3, 331560, Note_off_c, 1, 63, 0
3, 331680, Note_on_c, 1, 63, 45
3, 331680, Note_on_c, 1, 56, 45
3, 332400, Note_off_c, 1, 56, 0
3, 332400, Note_off_c, 1, 63, 0
3, 332640, Note_on_c, 1, 63, 48
3, 332640, Note_on_c, 1, 56, 48
3, 333000, Note_off_c, 1, 56, 0
3, 333000, Note_off_c, 1, 63, 0
3, 333120, Note_on_c, 1, 63, 54
3, 333120, Note_on_c, 1, 56, 54
3, 334560, Note_off_c, 1, 63, 0
3, 334560, Note_on_c, 1, 61, 44
3, 335040, Note_off_c, 1, 61, 0
3, 335040, Note_off_c, 1, 56, 0
3, 336000, Note_on_c, 1, 65, 48
3, 336720, Note_off_c, 1, 65, 0
3, 336960, Note_on_c, 1, 65, 53
3, 337320, Note_off_c, 1, 65, 0
3, 337440, Note_on_c, 1, 65, 55
3, 338160, Note_off_c, 1, 65, 0
3, 338400, Note_on_c, 1, 65, 60
3, 338760, Note_off_c, 1, 65, 0
3, 338880, Note_on_c, 1, 68, 73
3, 338880, Note_on_c, 1, 61, 73
3, 338880, Note_on_c, 1, 63, 73
3, 341272, Note_off_c, 1, 63, 0
3, 341280, Note_off_c, 1, 61, 0
3, 341280, Note_off_c, 1, 68, 0
3, 341280, Note_on_c, 1, 68, 56
3, 341280, Note_on_c, 1, 60, 56
3, 341280, Note_on_c, 1, 63, 56
3, 341640, Note_off_c, 1, 63, 0
3, 341640, Note_off_c, 1, 60, 0
3, 341640, Note_off_c, 1, 68, 0
3, 341760, Note_on_c, 1, 65, 54
3, 342720, Note_off_c, 1, 65, 0
3, 342720, Note_on_c, 1, 65, 50
3, 343080, Note_off_c, 1, 65, 0
3, 343200, Note_on_c, 1, 63, 48
3, 344160, Note_off_c, 1, 63, 0
3, 344160, Note_on_c, 1, 61, 44
3, 344520, Note_off_c, 1, 61, 0
3, 344640, Note_on_c, 1, 61, 43
3, 346080, Note_off_c, 1, 61, 0
3, 346080, Note_on_c, 1, 60, 37
3, 346440, Note_off_c, 1, 60, 0
3, 347040, Note_on_c, 1, 56, 30
3, 347040, Note_on_c, 1, 53, 30
3, 347400, Note_off_c, 1, 53, 0
3, 347400, Note_off_c, 1, 56, 0
3, 347520, Note_on_c, 1, 56, 31
3, 347520, Note_on_c, 1, 53, 31
3, 348240, Note_off_c, 1, 53, 0
3, 348240, Note_off_c, 1, 56, 0
3, 348480, Note_on_c, 1, 56, 33
3, 348480, Note_on_c, 1, 53, 33
3, 348840, Note_off_c, 1, 53, 0
3, 348840, Note_off_c, 1, 56, 0
3, 348960, Note_on_c, 1, 56, 34
3, 348960, Note_on_c, 1, 53, 34
3, 349680, Note_off_c, 1, 53, 0
3, 349680, Note_off_c, 1, 56, 0
3, 349920, Note_on_c, 1, 56, 36
3, 349920, Note_on_c, 1, 53, 36
3, 350280, Note_off_c, 1, 53, 0
3, 350280, Note_off_c, 1, 56, 0
3, 350400, Note_on_c, 1, 58, 42
3, 350400, Note_on_c, 1, 54, 42
3, 351840, Note_off_c, 1, 54, 0
3, 351840, Note_off_c, 1, 58, 0
3, 351840, Note_on_c, 1, 58, 32
3, 352200, Note_off_c, 1, 58, 0
3, 353280, Note_on_c, 1, 60, 35
3, 353280, Note_on_c, 1, 63, 35
3, 353280, Note_on_c, 1, 57, 35
3, 354000, Note_off_c, 1, 57, 0
3, 354000, Note_off_c, 1, 63, 0
3, 354000, Note_off_c, 1, 60, 0
3, 354240, Note_on_c, 1, 63, 39
3, 354240, Note_on_c, 1, 60, 39
3, 354240, Note_on_c, 1, 57, 39
3, 354600, Note_off_c, 1, 57, 0
3, 354600, Note_off_c, 1, 60, 0
3, 354600, Note_off_c, 1, 63, 0
3, 354720, Note_on_c, 1, 60, 40
3, 354720, Note_on_c, 1, 63, 40
3, 354720, Note_on_c, 1, 57, 40
3, 355440, Note_off_c, 1, 57, 0
3, 355440, Note_off_c, 1, 63, 0
3, 355440, Note_off_c, 1, 60, 0
3, 355680, Note_on_c, 1, 57, 44
3, 355680, Note_on_c, 1, 60, 44
3, 355680, Note_on_c, 1, 63, 44
3, 356040, Note_off_c, 1, 63, 0
3, 356040, Note_off_c, 1, 60, 0
3, 356040, Note_off_c, 1, 57, 0
3, 356160, Note_on_c, 1, 57, 52
3, 356160, Note_on_c, 1, 63, 52
3, 356160, Note_on_c, 1, 60, 52
3, 357600, Note_off_c, 1, 60, 0
3, 357600, Note_off_c, 1, 63, 0
3, 357600, Note_off_c, 1, 57, 0
3, 357600, Note_on_c, 1, 58, 42
3, 357600, Note_on_c, 1, 61, 42
3, 357960, Note_off_c, 1, 61, 0
3, 357960, Note_off_c, 1, 58, 0
3, 359040, Note_on_c, 1, 61, 49
3, 359040, Note_on_c, 1, 67, 49
3, 359760, Note_off_c, 1, 67, 0
3, 359760, Note_off_c, 1, 61, 0
3, 360000, Note_on_c, 1, 61, 53
3, 360000, Note_on_c, 1, 67, 53
3, 360360, Note_off_c, 1, 67, 0
3, 360360, Note_off_c, 1, 61, 0
3, 360480, Note_on_c, 1, 67, 55
3, 360480, Note_on_c, 1, 61, 55
3, 361200, Note_off_c, 1, 61, 0
3, 361200, Note_off_c, 1, 67, 0
3, 361440, Note_on_c, 1, 61, 61
3, 361440, Note_on_c, 1, 67, 61
3, 361800, Note_off_c, 1, 67, 0
3, 361800, Note_off_c, 1, 61, 0
3, 361920, Note_on_c, 1, 67, 69
3, 361920, Note_on_c, 1, 60, 69
3, 363360, Note_off_c, 1, 67, 0
3, 363360, Note_on_c, 1, 65, 56
3, 363720, Note_off_c, 1, 65, 0
3, 363720, Note_off_c, 1, 60, 0
3, 364320, Note_on_c, 1, 56, 52
3, 364560, Note_off_c, 1, 56, 0
3, 364800, Note_on_c, 1, 58, 50
3, 364800, Note_on_c, 1, 56, 50
3, 365040, Note_off_c, 1, 56, 0
3, 365040, Note_off_c, 1, 58, 0
3, 365760, Note_on_c, 1, 58, 46
3, 365760, Note_on_c, 1, 56, 46
3, 366000, Note_off_c, 1, 56, 0
3, 366000, Note_off_c, 1, 58, 0
3, 366240, Note_on_c, 1, 58, 43
3, 366240, Note_on_c, 1, 55, 43
3, 366480, Note_off_c, 1, 55, 0
3, 366480, Note_off_c, 1, 58, 0
3, 367200, Note_on_c, 1, 58, 39
3, 367200, Note_on_c, 1, 55, 39
3, 367440, Note_off_c, 1, 55, 0
3, 367440, Note_off_c, 1, 58, 0
3, 382080, Note_on_c, 1, 65, 46
3, 382800, Note_off_c, 1, 65, 0
3, 383040, Note_on_c, 1, 65, 52
3, 383400, Note_off_c, 1, 65, 0
3, 383520, Note_on_c, 1, 68, 55
3, 383520, Note_on_c, 1, 65, 55
3, 384240, Note_off_c, 1, 65, 0
3, 384240, Note_off_c, 1, 68, 0
3, 384480, Note_on_c, 1, 68, 61
3, 384480, Note_on_c, 1, 65, 61
3, 384840, Note_off_c, 1, 65, 0
3, 384840, Note_off_c, 1, 68, 0
3, 384960, Note_on_c, 1, 70, 63
3, 384960, Note_on_c, 1, 66, 63
3, 386400, Note_off_c, 1, 66, 0
3, 386760, Note_off_c, 1, 70, 0
3, 387360, Note_on_c, 1, 72, 53
3, 387600, Note_off_c, 1, 72, 0
3, 387600, Note_on_c, 1, 73, 55
3, 387840, Note_off_c, 1, 73, 0
3, 387840, Note_on_c, 1, 75, 59
3, 387840, Note_on_c, 1, 72, 59
3, 388560, Note_off_c, 1, 72, 0
3, 388560, Note_off_c, 1, 75, 0
3, 388800, Note_on_c, 1, 75, 63
3, 388800, Note_on_c, 1, 72, 63
3, 389160, Note_off_c, 1, 72, 0
3, 389160, Note_off_c, 1, 75, 0
3, 389280, Note_on_c, 1, 75, 66
3, 389280, Note_on_c, 1, 72, 66
3, 390000, Note_off_c, 1, 72, 0
3, 390000, Note_off_c, 1, 75, 0
3, 390240, Note_on_c, 1, 75, 71
3, 390240, Note_on_c, 1, 72, 71
3, 390600, Note_off_c, 1, 72, 0
3, 390600, Note_off_c, 1, 75, 0
3, 390720, Note_on_c, 1, 75, 77
3, 390720, Note_on_c, 1, 72, 77
3, 392160, Note_off_c, 1, 72, 0
3, 392160, Note_off_c, 1, 75, 0
3, 392160, Note_on_c, 1, 73, 55
3, 392520, Note_off_c, 1, 73, 0
3, 416640, Note_on_c, 1, 65, 52
3, 417360, Note_off_c, 1, 65, 0
3, 417600, Note_on_c, 1, 68, 56
3, 417600, Note_on_c, 1, 65, 56
3, 417960, Note_off_c, 1, 65, 0
3, 417960, Note_off_c, 1, 68, 0
3, 418080, Note_on_c, 1, 65, 58
3, 418080, Note_on_c, 1, 68, 58
3, 418800, Note_off_c, 1, 68, 0
3, 418800, Note_off_c, 1, 65, 0
3, 419040, Note_on_c, 1, 68, 61
3, 419040, Note_on_c, 1, 65, 61
3, 419400, Note_off_c, 1, 65, 0
3, 419400, Note_off_c, 1, 68, 0
3, 419520, Note_on_c, 1, 70, 62
3, 419520, Note_on_c, 1, 66, 62
3, 420960, Note_off_c, 1, 66, 0
3, 421320, Note_off_c, 1, 70, 0
3, 421920, Note_on_c, 1, 72, 54
3, 422160, Note_off_c, 1, 72, 0
3, 422160, Note_on_c, 1, 73, 58
3, 422400, Note_off_c, 1, 73, 0
3, 422400, Note_on_c, 1, 75, 60
3, 422400, Note_on_c, 1, 72, 60
3, 423120, Note_off_c, 1, 72, 0
3, 423120, Note_off_c, 1, 75, 0
3, 423360, Note_on_c, 1, 75, 63
3, 423360, Note_on_c, 1, 72, 63
3, 423720, Note_off_c, 1, 72, 0
3, 423720, Note_off_c, 1, 75, 0
3, 423840, Note_on_c, 1, 75, 65
3, 423840, Note_on_c, 1, 72, 65
3, 424560, Note_off_c, 1, 72, 0
3, 424560, Note_off_c, 1, 75, 0
3, 424800, Note_on_c, 1, 75, 69
3, 424800, Note_on_c, 1, 72, 69
3, 425160, Note_off_c, 1, 72, 0
3, 425160, Note_off_c, 1, 75, 0
3, 425280, Note_on_c, 1, 75, 80
3, 425280, Note_on_c, 1, 72, 80
3, 426720, Note_off_c, 1, 72, 0
3, 426720, Note_off_c, 1, 75, 0
3, 426720, Note_on_c, 1, 73, 64
3, 427080, Note_off_c, 1, 73, 0
3, 428160, Note_on_c, 1, 61, 32
3, 428880, Note_off_c, 1, 61, 0
3, 429120, Note_on_c, 1, 61, 34
3, 429480, Note_off_c, 1, 61, 0
3, 429600, Note_on_c, 1, 61, 36
3, 430320, Note_off_c, 1, 61, 0
3, 430560, Note_on_c, 1, 61, 38
3, 430920, Note_off_c, 1, 61, 0
3, 431040, Note_on_c, 1, 61, 41
3, 433920, Note_off_c, 1, 61, 0
3, 433920, Note_on_c, 1, 60, 37
3, 434640, Note_off_c, 1, 60, 0
3, 434880, Note_on_c, 1, 60, 36
3, 435240, Note_off_c, 1, 60, 0
3, 435360, Note_on_c, 1, 60, 36
3, 436080, Note_off_c, 1, 60, 0
3, 436320, Note_on_c, 1, 60, 36
3, 436680, Note_off_c, 1, 60, 0
3, 444000, Note_on_c, 1, 58, 32
3, 444000, Note_on_c, 1, 55, 32
3, 444720, Note_off_c, 1, 55, 0
3, 444720, Note_off_c, 1, 58, 0
3, 444960, Note_on_c, 1, 58, 32
3, 444960, Note_on_c, 1, 55, 32
3, 445320, Note_off_c, 1, 55, 0
3, 445320, Note_off_c, 1, 58, 0
3, 445440, Note_on_c, 1, 55, 32
3, 445440, Note_on_c, 1, 58, 32
3, 446160, Note_off_c, 1, 58, 0
3, 446160, Note_off_c, 1, 55, 0
3, 446400, Note_on_c, 1, 55, 38
3, 446400, Note_on_c, 1, 58, 38
3, 446760, Note_off_c, 1, 58, 0
3, 446760, Note_off_c, 1, 55, 0
3, 446880, Note_on_c, 1, 53, 39
3, 447360, Note_off_c, 1, 53, 0
3, 453600, Note_on_c, 1, 63, 52
3, 454080, Note_on_c, 1, 68, 53
3, 454560, Note_off_c, 1, 63, 0
3, 454560, Note_on_c, 1, 65, 54
3, 455040, Note_off_c, 1, 68, 0
3, 455040, Note_on_c, 1, 70, 55
3, 455520, Note_off_c, 1, 70, 0
3, 455520, Note_off_c, 1, 65, 0
3, 455520, Note_on_c, 1, 68, 56
3, 455520, Note_on_c, 1, 63, 56
3, 456480, Note_off_c, 1, 63, 0
3, 456480, Note_off_c, 1, 68, 0
3, 456480, Note_on_c, 1, 61, 51
3, 456480, Note_on_c, 1, 67, 51
3, 456960, Note_off_c, 1, 67, 0
3, 456960, Note_off_c, 1, 61, 0
3, 456960, Note_on_c, 1, 60, 48
3, 457440, Note_off_c, 1, 60, 0
3, 465840, Note_on_c, 1, 68, 68
3, 466320, Note_on_c, 1, 72, 70
3, 466560, Note_off_c, 1, 72, 0
3, 466560, Note_off_c, 1, 68, 0
3, 466560, Note_on_c, 1, 70, 70
3, 466800, Note_on_c, 1, 65, 71
3, 467040, Note_off_c, 1, 65, 0
3, 467280, Note_on_c, 1, 63, 67
3, 467520, Note_off_c, 1, 70, 0
3, 467520, Note_on_c, 1, 68, 65
3, 468000, Note_off_c, 1, 68, 0
3, 468000, Note_off_c, 1, 63, 0
3, 468000, Note_on_c, 1, 61, 61
3, 468000, Note_on_c, 1, 67, 61
3, 468480, Note_off_c, 1, 67, 0
3, 468480, Note_off_c, 1, 61, 0
3, 468480, Note_on_c, 1, 60, 57
3, 468960, Note_off_c, 1, 60, 0
3, 470880, Note_on_c, 1, 65, 52
3, 471120, Note_off_c, 1, 65, 0
3, 471360, Note_on_c, 1, 65, 46
3, 471840, Note_off_c, 1, 65, 0
3, 471840, Note_on_c, 1, 64, 47
3, 472080, Note_off_c, 1, 64, 0
3, 472080, Note_on_c, 1, 65, 47
3, 472320, Note_off_c, 1, 65, 0
3, 472320, Note_on_c, 1, 67, 54
3, 472560, Note_off_c, 1, 67, 0
3, 472800, Note_on_c, 1, 67, 48
3, 473040, Note_off_c, 1, 67, 0
3, 473760, Note_on_c, 1, 67, 56
3, 474000, Note_off_c, 1, 67, 0
3, 474240, Note_on_c, 1, 67, 50
3, 474720, Note_off_c, 1, 67, 0
3, 474720, Note_on_c, 1, 65, 50
3, 474960, Note_off_c, 1, 65, 0
3, 474960, Note_on_c, 1, 67, 51
3, 475200, Note_off_c, 1, 67, 0
3, 475200, Note_on_c, 1, 69, 58
3, 475440, Note_off_c, 1, 69, 0
3, 475680, Note_on_c, 1, 69, 51
3, 475920, Note_off_c, 1, 69, 0
3, 476640, Note_on_c, 1, 69, 59
3, 476880, Note_off_c, 1, 69, 0
3, 477120, Note_on_c, 1, 69, 53
3, 477600, Note_off_c, 1, 69, 0
3, 477600, Note_on_c, 1, 67, 54
3, 477840, Note_off_c, 1, 67, 0
3, 477840, Note_on_c, 1, 69, 54
3, 478080, Note_off_c, 1, 69, 0
3, 478080, Note_on_c, 1, 70, 60
3, 478320, Note_off_c, 1, 70, 0
3, 478560, Note_on_c, 1, 70, 54
3, 479520, Note_off_c, 1, 70, 0
3, 479520, Note_on_c, 1, 70, 59
3, 479760, Note_off_c, 1, 70, 0
3, 480000, Note_on_c, 1, 67, 55
3, 480720, Note_off_c, 1, 67, 0
3, 490320, Note_on_c, 1, 70, 41
3, 490320, Note_on_c, 1, 73, 41
3, 490800, Note_off_c, 1, 73, 0
3, 490800, Note_off_c, 1, 70, 0
3, 490800, Note_on_c, 1, 73, 43
3, 490800, Note_on_c, 1, 70, 43
3, 491280, Note_off_c, 1, 70, 0
3, 491280, Note_off_c, 1, 73, 0
3, 491280, Note_on_c, 1, 73, 44
3, 491280, Note_on_c, 1, 70, 44
3, 491520, Note_off_c, 1, 70, 0
3, 491520, Note_off_c, 1, 73, 0
3, 491760, Note_on_c, 1, 73, 46
3, 491760, Note_on_c, 1, 70, 46
3, 492240, Note_off_c, 1, 70, 0
3, 492240, Note_off_c, 1, 73, 0
3, 492240, Note_on_c, 1, 73, 48
3, 492240, Note_on_c, 1, 70, 48
3, 492720, Note_off_c, 1, 70, 0
3, 492720, Note_off_c, 1, 73, 0
3, 492720, Note_on_c, 1, 70, 49
3, 492720, Note_on_c, 1, 73, 49
3, 492960, Note_off_c, 1, 73, 0
3, 492960, Note_off_c, 1, 70, 0
3, 493200, Note_on_c, 1, 68, 51
3, 493680, Note_off_c, 1, 68, 0
3, 493680, Note_on_c, 1, 70, 47
3, 494160, Note_off_c, 1, 70, 0
3, 494160, Note_on_c, 1, 67, 44
3, 494400, Note_off_c, 1, 67, 0
3, 494400, Note_on_c, 1, 68, 43
3, 494880, Note_off_c, 1, 68, 0
3, 496080, Note_on_c, 1, 61, 39
3, 496080, Note_on_c, 1, 58, 39
3, 496560, Note_off_c, 1, 58, 0
3, 496560, Note_off_c, 1, 61, 0
3, 496560, Note_on_c, 1, 61, 38
3, 496560, Note_on_c, 1, 58, 38
3, 497040, Note_off_c, 1, 58, 0
3, 497040, Note_off_c, 1, 61, 0
3, 497040, Note_on_c, 1, 61, 37
3, 497040, Note_on_c, 1, 58, 37
3, 497280, Note_off_c, 1, 58, 0
3, 497280, Note_off_c, 1, 61, 0
3, 497520, Note_on_c, 1, 58, 36
3, 497520, Note_on_c, 1, 61, 36
3, 498000, Note_off_c, 1, 61, 0
3, 498000, Note_off_c, 1, 58, 0
3, 498000, Note_on_c, 1, 61, 35
3, 498000, Note_on_c, 1, 58, 35
3, 498480, Note_off_c, 1, 58, 0
3, 498480, Note_off_c, 1, 61, 0
3, 498480, Note_on_c, 1, 61, 34
3, 498480, Note_on_c, 1, 58, 34
3, 498720, Note_off_c, 1, 58, 0
3, 498720, Note_off_c, 1, 61, 0
3, 498960, Note_on_c, 1, 56, 33
3, 499440, Note_off_c, 1, 56, 0
3, 499440, Note_on_c, 1, 58, 32
3, 499920, Note_off_c, 1, 58, 0
3, 499920, Note_on_c, 1, 55, 31
3, 500160, Note_off_c, 1, 55, 0
3, 500160, Note_on_c, 1, 56, 30
3, 500640, Note_off_c, 1, 56, 0
3, 501840, Note_on_c, 1, 60, 35
3, 502320, Note_off_c, 1, 60, 0
3, 502320, Note_on_c, 1, 60, 39
3, 502800, Note_off_c, 1, 60, 0
3, 502800, Note_on_c, 1, 60, 42
3, 503040, Note_off_c, 1, 60, 0
3, 503040, Note_on_c, 1, 64, 50
3, 503280, Note_on_c, 1, 60, 46
3, 503760, Note_off_c, 1, 60, 0
3, 503760, Note_on_c, 1, 60, 50
3, 504000, Note_off_c, 1, 64, 0
3, 504000, Note_on_c, 1, 65, 58
3, 504240, Note_off_c, 1, 60, 0
3, 504240, Note_on_c, 1, 60, 53
3, 504480, Note_off_c, 1, 60, 0
3, 504480, Note_off_c, 1, 65, 0
3, 504480, Note_on_c, 1, 67, 71
3, 504480, Note_on_c, 1, 64, 71
3, 505200, Note_off_c, 1, 64, 0
3, 505200, Note_off_c, 1, 67, 0
3, 507360, Note_on_c, 1, 76, 55
3, 507600, Note_on_c, 1, 72, 55
3, 508080, Note_off_c, 1, 72, 0
3, 508080, Note_on_c, 1, 72, 61
3, 508320, Note_off_c, 1, 76, 0
3, 508320, Note_on_c, 1, 77, 65
3, 508560, Note_off_c, 1, 72, 0
3, 508560, Note_on_c, 1, 72, 67
3, 508800, Note_off_c, 1, 77, 0
3, 508800, Note_on_c, 1, 79, 69
3, 509040, Note_off_c, 1, 72, 0
3, 509040, Note_on_c, 1, 72, 73
3, 509280, Note_off_c, 1, 72, 0
3, 509280, Note_off_c, 1, 79, 0
3, 509280, Note_on_c, 1, 71, 76
3, 509520, Note_off_c, 1, 71, 0
3, 509520, Note_on_c, 1, 72, 78
3, 509760, Note_off_c, 1, 72, 0
3, 509760, Note_on_c, 1, 79, 79
3, 509760, Note_on_c, 1, 76, 79
3, 510000, Note_off_c, 1, 76, 0
3, 510000, Note_off_c, 1, 79, 0
3, 510240, Note_on_c, 1, 80, 83
3, 510240, Note_on_c, 1, 77, 83
3, 510480, Note_off_c, 1, 77, 0
3, 510480, Note_off_c, 1, 80, 0
3, 511200, Control_c, 1, 91, 64
3, 511200, Control_c, 1, 93, 1
3, 511200, Control_c, 1, 1, 0
3, 511200, Pitch_bend_c, 1, 8192
3, 511200, Control_c, 1, 64, 0
3, 512400, Control_c, 1, 64, 0
3, 516240, Note_on_c, 1, 60, 48
3, 516360, Note_off_c, 1, 60, 0
3, 516480, Note_on_c, 1, 65, 56
3, 516600, Note_off_c, 1, 65, 0
3, 516720, Note_on_c, 1, 65, 49
3, 516840, Note_off_c, 1, 65, 0
3, 516960, Note_on_c, 1, 65, 49
3, 517080, Note_off_c, 1, 65, 0
3, 517200, Note_on_c, 1, 60, 50
3, 517320, Note_off_c, 1, 60, 0
3, 517440, Note_on_c, 1, 69, 58
3, 517560, Note_off_c, 1, 69, 0
3, 517680, Note_on_c, 1, 69, 51
3, 517800, Note_off_c, 1, 69, 0
3, 517920, Note_on_c, 1, 69, 51
3, 518040, Note_off_c, 1, 69, 0
3, 518160, Note_on_c, 1, 65, 52
3, 518280, Note_off_c, 1, 65, 0
3, 518400, Note_on_c, 1, 72, 60
3, 518520, Note_off_c, 1, 72, 0
3, 518640, Note_on_c, 1, 72, 53
3, 518760, Note_off_c, 1, 72, 0
3, 518880, Note_on_c, 1, 72, 53
3, 519000, Note_off_c, 1, 72, 0
3, 519000, Note_on_c, 1, 74, 53
3, 519120, Note_off_c, 1, 74, 0
3, 519120, Note_on_c, 1, 72, 54
3, 519240, Note_off_c, 1, 72, 0
3, 519240, Note_on_c, 1, 70, 54
3, 519360, Note_off_c, 1, 70, 0
3, 519360, Note_on_c, 1, 69, 64
3, 519480, Note_off_c, 1, 69, 0
3, 519600, Note_on_c, 1, 69, 54
3, 519720, Note_off_c, 1, 69, 0
3, 519840, Note_on_c, 1, 67, 55
3, 519960, Note_off_c, 1, 67, 0
3, 519960, Note_on_c, 1, 69, 55
3, 520080, Note_off_c, 1, 69, 0
3, 520200, Note_on_c, 1, 65, 56
3, 520320, Note_off_c, 1, 65, 0
3, 534000, Note_on_c, 1, 52, 57
3, 534120, Note_off_c, 1, 52, 0
3, 534240, Note_on_c, 1, 52, 57
3, 534360, Note_off_c, 1, 52, 0
3, 534480, Note_on_c, 1, 52, 57
3, 534600, Note_off_c, 1, 52, 0
3, 534720, Note_on_c, 1, 52, 70
3, 534840, Note_off_c, 1, 52, 0
3, 534960, Note_on_c, 1, 52, 56
3, 535080, Note_off_c, 1, 52, 0
3, 535200, Note_on_c, 1, 52, 56
3, 535320, Note_off_c, 1, 52, 0
3, 535440, Note_on_c, 1, 52, 55
3, 535560, Note_off_c, 1, 52, 0
3, 535680, Note_on_c, 1, 53, 69
3, 535800, Note_off_c, 1, 53, 0
3, 535920, Note_on_c, 1, 53, 55
3, 536040, Note_off_c, 1, 53, 0
3, 536160, Note_on_c, 1, 53, 54
3, 536280, Note_off_c, 1, 53, 0
3, 536400, Note_on_c, 1, 53, 54
3, 536520, Note_off_c, 1, 53, 0
3, 536640, Note_on_c, 1, 53, 54
3, 536760, Note_off_c, 1, 53, 0
3, 536880, Note_on_c, 1, 53, 53
3, 537000, Note_off_c, 1, 53, 0
3, 537120, Note_on_c, 1, 53, 53
3, 537240, Note_off_c, 1, 53, 0
3, 537360, Note_on_c, 1, 53, 53
3, 537480, Note_off_c, 1, 53, 0
3, 537600, Note_on_c, 1, 52, 60
3, 537720, Note_off_c, 1, 52, 0
3, 537840, Note_on_c, 1, 52, 52
3, 537960, Note_off_c, 1, 52, 0
3, 538080, Note_on_c, 1, 52, 52
3, 538200, Note_off_c, 1, 52, 0
3, 538320, Note_on_c, 1, 52, 51
3, 538440, Note_off_c, 1, 52, 0
3, 538560, Note_on_c, 1, 52, 59
3, 538680, Note_off_c, 1, 52, 0
3, 538800, Note_on_c, 1, 52, 51
3, 538920, Note_off_c, 1, 52, 0
3, 539040, Note_on_c, 1, 52, 51
3, 539160, Note_off_c, 1, 52, 0
3, 539280, Note_on_c, 1, 52, 50
3, 539400, Note_off_c, 1, 52, 0
3, 539520, Note_on_c, 1, 53, 58
3, 539640, Note_off_c, 1, 53, 0
3, 539760, Note_on_c, 1, 53, 50
3, 539880, Note_off_c, 1, 53, 0
3, 540000, Note_on_c, 1, 53, 49
3, 540120, Note_off_c, 1, 53, 0
3, 540240, Note_on_c, 1, 53, 49
3, 540360, Note_off_c, 1, 53, 0
3, 540480, Note_on_c, 1, 53, 49
3, 540600, Note_off_c, 1, 53, 0
3, 540720, Note_on_c, 1, 53, 48
3, 540840, Note_off_c, 1, 53, 0
3, 540960, Note_on_c, 1, 53, 48
3, 541080, Note_off_c, 1, 53, 0
3, 541200, Note_on_c, 1, 53, 48
3, 541320, Note_off_c, 1, 53, 0
3, 541440, Note_on_c, 1, 52, 52
3, 541560, Note_off_c, 1, 52, 0
3, 541920, Note_on_c, 1, 52, 53
3, 542040, Note_off_c, 1, 52, 0
3, 542400, Note_on_c, 1, 52, 46
3, 542760, Note_off_c, 1, 52, 0
3, 543120, Control_c, 1, 64, 0
3, 546960, Note_on_c, 1, 60, 48
3, 547080, Note_off_c, 1, 60, 0
3, 547200, Note_on_c, 1, 65, 56
3, 547320, Note_off_c, 1, 65, 0
3, 547440, Note_on_c, 1, 65, 49
3, 547560, Note_off_c, 1, 65, 0
3, 547680, Note_on_c, 1, 65, 49
3, 547800, Note_off_c, 1, 65, 0
3, 547920, Note_on_c, 1, 60, 50
3, 548040, Note_off_c, 1, 60, 0
3, 548160, Note_on_c, 1, 69, 58
3, 548280, Note_off_c, 1, 69, 0
3, 548400, Note_on_c, 1, 69, 51
3, 548520, Note_off_c, 1, 69, 0
3, 548640, Note_on_c, 1, 69, 51
3, 548760, Note_off_c, 1, 69, 0
3, 548880, Note_on_c, 1, 65, 52
3, 549000, Note_off_c, 1, 65, 0
3, 549120, Note_on_c, 1, 72, 60
3, 549240, Note_off_c, 1, 72, 0
3, 549360, Note_on_c, 1, 72, 53
3, 549480, Note_off_c, 1, 72, 0
3, 549600, Note_on_c, 1, 72, 53
3, 549720, Note_off_c, 1, 72, 0
3, 549720, Note_on_c, 1, 74, 53
3, 549840, Note_off_c, 1, 74, 0
3, 549840, Note_on_c, 1, 72, 54
3, 549960, Note_off_c, 1, 72, 0
3, 549960, Note_on_c, 1, 70, 54
3, 550080, Note_off_c, 1, 70, 0
3, 550080, Note_on_c, 1, 69, 64
3, 550200, Note_off_c, 1, 69, 0
3, 550320, Note_on_c, 1, 69, 54
3, 550440, Note_off_c, 1, 69, 0
3, 550560, Note_on_c, 1, 67, 55
3, 550680, Note_off_c, 1, 67, 0
3, 550680, Note_on_c, 1, 69, 55
3, 550800, Note_off_c, 1, 69, 0
3, 550920, Note_on_c, 1, 65, 56
3, 551040, Note_off_c, 1, 65, 0
3, 564720, Note_on_c, 1, 52, 57
3, 564840, Note_off_c, 1, 52, 0
3, 564960, Note_on_c, 1, 52, 57
3, 565080, Note_off_c, 1, 52, 0
3, 565200, Note_on_c, 1, 52, 57
3, 565320, Note_off_c, 1, 52, 0
3, 565440, Note_on_c, 1, 52, 70
3, 565560, Note_off_c, 1, 52, 0
3, 565680, Note_on_c, 1, 52, 56
3, 565800, Note_off_c, 1, 52, 0
3, 565920, Note_on_c, 1, 52, 56
3, 566040, Note_off_c, 1, 52, 0
3, 566160, Note_on_c, 1, 52, 55
3, 566280, Note_off_c, 1, 52, 0
3, 566400, Note_on_c, 1, 53, 69
3, 566520, Note_off_c, 1, 53, 0
3, 566640, Note_on_c, 1, 53, 55
3, 566760, Note_off_c, 1, 53, 0
3, 566880, Note_on_c, 1, 53, 54
3, 567000, Note_off_c, 1, 53, 0
3, 567120, Note_on_c, 1, 53, 54
3, 567240, Note_off_c, 1, 53, 0
3, 567360, Note_on_c, 1, 53, 54
3, 567480, Note_off_c, 1, 53, 0
3, 567600, Note_on_c, 1, 53, 53
3, 567720, Note_off_c, 1, 53, 0
3, 567840, Note_on_c, 1, 53, 53
3, 567960, Note_off_c, 1, 53, 0
3, 568080, Note_on_c, 1, 53, 53
3, 568200, Note_off_c, 1, 53, 0
3, 568320, Note_on_c, 1, 52, 60
3, 568440, Note_off_c, 1, 52, 0
3, 568560, Note_on_c, 1, 52, 52
3, 568680, Note_off_c, 1, 52, 0
3, 568800, Note_on_c, 1, 52, 52
3, 568920, Note_off_c, 1, 52, 0
3, 569040, Note_on_c, 1, 52, 51
3, 569160, Note_off_c, 1, 52, 0
3, 569280, Note_on_c, 1, 52, 59
3, 569400, Note_off_c, 1, 52, 0
3, 569520, Note_on_c, 1, 52, 51
3, 569640, Note_off_c, 1, 52, 0
3, 569760, Note_on_c, 1, 52, 51
3, 569880, Note_off_c, 1, 52, 0
3, 570000, Note_on_c, 1, 52, 50
3, 570120, Note_off_c, 1, 52, 0
3, 570240, Note_on_c, 1, 53, 58
3, 570360, Note_off_c, 1, 53, 0
3, 570480, Note_on_c, 1, 53, 50
3, 570600, Note_off_c, 1, 53, 0
3, 570720, Note_on_c, 1, 53, 49
3, 570840, Note_off_c, 1, 53, 0
3, 570960, Note_on_c, 1, 53, 49
3, 571080, Note_off_c, 1, 53, 0
3, 571200, Note_on_c, 1, 53, 49
3, 571320, Note_off_c, 1, 53, 0
3, 571440, Note_on_c, 1, 53, 48
3, 571560, Note_off_c, 1, 53, 0
3, 571680, Note_on_c, 1, 53, 48
3, 571800, Note_off_c, 1, 53, 0
3, 571920, Note_on_c, 1, 53, 48
3, 572040, Note_off_c, 1, 53, 0
3, 572160, Note_on_c, 1, 52, 52
3, 572280, Note_off_c, 1, 52, 0
3, 572640, Note_on_c, 1, 52, 53
3, 572760, Note_off_c, 1, 52, 0
3, 573120, Note_on_c, 1, 52, 46
3, 573480, Note_off_c, 1, 52, 0
3, 573840, Control_c, 1, 64, 0
3, 585600, Note_on_c, 1, 75, 86
3, 585720, Note_off_c, 1, 75, 0
3, 585840, Note_on_c, 1, 75, 81
3, 585960, Note_off_c, 1, 75, 0
3, 586080, Note_on_c, 1, 75, 80
3, 586200, Note_off_c, 1, 75, 0
3, 586200, Note_on_c, 1, 77, 80
3, 586320, Note_off_c, 1, 77, 0
3, 586320, Note_on_c, 1, 75, 79
3, 586440, Note_off_c, 1, 75, 0
3, 586440, Note_on_c, 1, 73, 79
3, 586560, Note_off_c, 1, 73, 0
3, 586560, Note_on_c, 1, 72, 78
3, 587040, Note_off_c, 1, 72, 0
3, 589440, Note_on_c, 1, 76, 86
3, 589560, Note_off_c, 1, 76, 0
3, 589680, Note_on_c, 1, 76, 79
3, 589800, Note_off_c, 1, 76, 0
3, 589920, Note_on_c, 1, 76, 79
3, 590040, Note_off_c, 1, 76, 0
3, 590160, Note_on_c, 1, 77, 78
3, 590280, Note_off_c, 1, 77, 0
3, 590400, Note_on_c, 1, 79, 78
3, 591360, Note_off_c, 1, 79, 0
3, 591360, Note_on_c, 1, 80, 84
3, 591480, Note_off_c, 1, 80, 0
3, 591600, Note_on_c, 1, 80, 77
3, 591720, Note_off_c, 1, 80, 0
3, 591840, Note_on_c, 1, 80, 77
3, 591960, Note_off_c, 1, 80, 0
3, 591960, Note_on_c, 1, 79, 76
3, 592080, Note_off_c, 1, 79, 0
3, 592080, Note_on_c, 1, 80, 76
3, 592200, Note_off_c, 1, 80, 0
3, 592200, Note_on_c, 1, 77, 76
3, 592320, Note_off_c, 1, 77, 0
3, 592320, Note_on_c, 1, 77, 84
3, 592440, Note_off_c, 1, 77, 0
3, 592560, Note_on_c, 1, 77, 76
3, 592680, Note_off_c, 1, 77, 0
3, 592800, Note_on_c, 1, 77, 75
3, 592920, Note_off_c, 1, 77, 0
3, 592920, Note_on_c, 1, 75, 75
3, 593040, Note_off_c, 1, 75, 0
3, 593040, Note_on_c, 1, 77, 75
3, 593160, Note_off_c, 1, 77, 0
3, 593160, Note_on_c, 1, 74, 75
3, 593280, Note_off_c, 1, 74, 0
3, 594240, Note_on_c, 1, 72, 80
3, 594360, Note_off_c, 1, 72, 0
3, 594480, Note_on_c, 1, 72, 74
3, 594600, Note_off_c, 1, 72, 0
3, 594720, Note_on_c, 1, 72, 73
3, 594840, Note_off_c, 1, 72, 0
3, 594840, Note_on_c, 1, 71, 73
3, 594960, Note_off_c, 1, 71, 0
3, 594960, Note_on_c, 1, 72, 73
3, 595080, Note_off_c, 1, 72, 0
3, 595080, Note_on_c, 1, 69, 73
3, 595200, Note_off_c, 1, 69, 0
3, 595200, Note_on_c, 1, 70, 77
3, 595320, Note_off_c, 1, 70, 0
3, 595440, Note_on_c, 1, 70, 72
3, 595560, Note_off_c, 1, 70, 0
3, 595680, Note_on_c, 1, 70, 72
3, 595800, Note_off_c, 1, 70, 0
3, 595800, Note_on_c, 1, 69, 72
3, 595920, Note_off_c, 1, 69, 0
3, 595920, Note_on_c, 1, 70, 72
3, 596040, Note_off_c, 1, 70, 0
3, 596040, Note_on_c, 1, 67, 72
3, 596160, Note_off_c, 1, 67, 0
3, 596160, Note_on_c, 1, 72, 72
3, 597120, Note_off_c, 1, 72, 0
3, 597120, Note_on_c, 1, 70, 77
3, 597600, Note_off_c, 1, 70, 0
3, 598080, Note_on_c, 1, 67, 75
3, 598200, Note_off_c, 1, 67, 0
3, 598320, Note_on_c, 1, 67, 69
3, 598440, Note_off_c, 1, 67, 0
3, 598560, Note_on_c, 1, 67, 69
3, 598680, Note_off_c, 1, 67, 0
3, 598680, Note_on_c, 1, 65, 69
3, 598800, Note_off_c, 1, 65, 0
3, 598800, Note_on_c, 1, 67, 69
3, 598920, Note_off_c, 1, 67, 0
3, 598920, Note_on_c, 1, 64, 69
3, 599040, Note_off_c, 1, 64, 0
3, 599040, Note_on_c, 1, 65, 74
3, 599160, Note_off_c, 1, 65, 0
3, 599280, Note_on_c, 1, 65, 68
3, 599400, Note_off_c, 1, 65, 0
3, 599520, Note_on_c, 1, 65, 68
3, 599640, Note_off_c, 1, 65, 0
3, 599640, Note_on_c, 1, 64, 68
3, 599760, Note_off_c, 1, 64, 0
3, 599760, Note_on_c, 1, 65, 68
3, 599880, Note_off_c, 1, 65, 0
3, 599880, Note_on_c, 1, 62, 67
3, 600000, Note_off_c, 1, 62, 0
3, 600000, Note_on_c, 1, 67, 67
3, 600960, Note_off_c, 1, 67, 0
3, 600960, Note_on_c, 1, 65, 71
3, 601440, Note_off_c, 1, 65, 0
3, 601920, Note_on_c, 1, 65, 70
3, 602040, Note_off_c, 1, 65, 0
3, 602160, Note_on_c, 1, 65, 65
3, 602280, Note_off_c, 1, 65, 0
3, 602400, Note_on_c, 1, 65, 65
3, 602520, Note_off_c, 1, 65, 0
3, 602520, Note_on_c, 1, 64, 64
3, 602640, Note_off_c, 1, 64, 0
3, 602640, Note_on_c, 1, 65, 64
3, 602760, Note_off_c, 1, 65, 0
3, 602760, Note_on_c, 1, 62, 64
3, 602880, Note_off_c, 1, 62, 0
3, 602880, Note_on_c, 1, 61, 70
3, 603000, Note_off_c, 1, 61, 0
3, 603120, Note_on_c, 1, 61, 64
3, 603240, Note_off_c, 1, 61, 0
3, 603360, Note_on_c, 1, 61, 63
3, 603480, Note_off_c, 1, 61, 0
3, 603480, Note_on_c, 1, 59, 63
3, 603600, Note_off_c, 1, 59, 0
3, 603600, Note_on_c, 1, 61, 63
3, 603720, Note_off_c, 1, 61, 0
3, 603720, Note_on_c, 1, 57, 63
3, 603840, Note_off_c, 1, 57, 0
3, 603840, Note_on_c, 1, 62, 70
3, 603960, Note_off_c, 1, 62, 0
3, 604080, Note_on_c, 1, 62, 63
3, 604200, Note_off_c, 1, 62, 0
3, 604320, Note_on_c, 1, 62, 62
3, 604440, Note_off_c, 1, 62, 0
3, 604440, Note_on_c, 1, 61, 62
3, 604560, Note_off_c, 1, 61, 0
3, 604560, Note_on_c, 1, 62, 62
3, 604680, Note_off_c, 1, 62, 0
3, 604680, Note_on_c, 1, 59, 62
3, 604800, Note_off_c, 1, 59, 0
3, 604800, Note_on_c, 1, 61, 70
3, 604920, Note_off_c, 1, 61, 0
3, 605040, Note_on_c, 1, 61, 62
3, 605160, Note_off_c, 1, 61, 0
3, 605280, Note_on_c, 1, 61, 61
3, 605400, Note_off_c, 1, 61, 0
3, 605400, Note_on_c, 1, 59, 61
3, 605520, Note_off_c, 1, 59, 0
3, 605520, Note_on_c, 1, 61, 61
3, 605640, Note_off_c, 1, 61, 0
3, 605640, Note_on_c, 1, 57, 61
3, 605760, Note_off_c, 1, 57, 0
3, 605760, Note_on_c, 1, 62, 72
3, 605880, Note_off_c, 1, 62, 0
3, 606000, Note_on_c, 1, 62, 60
3, 606120, Note_off_c, 1, 62, 0
3, 606240, Note_on_c, 1, 62, 60
3, 606360, Note_off_c, 1, 62, 0
3, 606360, Note_on_c, 1, 61, 60
3, 606480, Note_off_c, 1, 61, 0
3, 606480, Note_on_c, 1, 62, 60
3, 606600, Note_off_c, 1, 62, 0
3, 606600, Note_on_c, 1, 59, 60
3, 606720, Note_off_c, 1, 59, 0
3, 606720, Note_on_c, 1, 61, 60
3, 606960, Note_off_c, 1, 61, 0
3, 608640, Note_on_c, 1, 69, 53
3, 608640, Note_on_c, 1, 78, 53
3, 608760, Note_off_c, 1, 78, 0
3, 608760, Note_off_c, 1, 69, 0
3, 608880, Note_on_c, 1, 78, 46
3, 608880, Note_on_c, 1, 69, 46
3, 609000, Note_off_c, 1, 69, 0
3, 609000, Note_off_c, 1, 78, 0
3, 609120, Note_on_c, 1, 78, 47
3, 609120, Note_on_c, 1, 69, 47
3, 609240, Note_off_c, 1, 69, 0
3, 609240, Note_off_c, 1, 78, 0
3, 609360, Note_on_c, 1, 74, 48
3, 609360, Note_on_c, 1, 78, 48
3, 609480, Note_off_c, 1, 78, 0
3, 609480, Note_off_c, 1, 74, 0
3, 609600, Note_on_c, 1, 69, 54
3, 609600, Note_on_c, 1, 78, 54
3, 609720, Note_off_c, 1, 78, 0
3, 609720, Note_off_c, 1, 69, 0
3, 609840, Note_on_c, 1, 78, 50
3, 609840, Note_on_c, 1, 69, 50
3, 609960, Note_off_c, 1, 69, 0
3, 609960, Note_off_c, 1, 78, 0
3, 610080, Note_on_c, 1, 69, 51
3, 610080, Note_on_c, 1, 78, 51
3, 610200, Note_off_c, 1, 78, 0
3, 610200, Note_off_c, 1, 69, 0
3, 610320, Note_on_c, 1, 74, 52
3, 610320, Note_on_c, 1, 78, 52
3, 610440, Note_off_c, 1, 78, 0
3, 610440, Note_off_c, 1, 74, 0
3, 610560, Note_on_c, 1, 79, 53
3, 610680, Note_off_c, 1, 79, 0
3, 610800, Note_on_c, 1, 79, 56
3, 610800, Note_on_c, 1, 81, 56
3, 610920, Note_off_c, 1, 81, 0
3, 610920, Note_off_c, 1, 79, 0
3, 611040, Note_on_c, 1, 81, 59
3, 611040, Note_on_c, 1, 79, 59
3, 611160, Note_off_c, 1, 79, 0
3, 611160, Note_off_c, 1, 81, 0
3, 611280, Note_on_c, 1, 81, 62
3, 611280, Note_on_c, 1, 79, 62
3, 611400, Note_off_c, 1, 79, 0
3, 611400, Note_off_c, 1, 81, 0
3, 611520, Note_on_c, 1, 79, 68
3, 611520, Note_on_c, 1, 81, 68
3, 611640, Note_off_c, 1, 81, 0
3, 611640, Note_off_c, 1, 79, 0
3, 611760, Note_on_c, 1, 79, 61
3, 611760, Note_on_c, 1, 81, 61
3, 611880, Note_off_c, 1, 81, 0
3, 611880, Note_off_c, 1, 79, 0
3, 612000, Note_on_c, 1, 81, 57
3, 612000, Note_on_c, 1, 79, 57
3, 612120, Note_off_c, 1, 79, 0
3, 612120, Note_off_c, 1, 81, 0
3, 612240, Note_on_c, 1, 81, 53
3, 612240, Note_on_c, 1, 79, 53
3, 612360, Note_off_c, 1, 79, 0
3, 612360, Note_off_c, 1, 81, 0
3, 612480, Note_on_c, 1, 69, 56
3, 612480, Note_on_c, 1, 78, 56
3, 612600, Note_off_c, 1, 78, 0
3, 612600, Note_off_c, 1, 69, 0
3, 612720, Note_on_c, 1, 78, 47
3, 612720, Note_on_c, 1, 69, 47
3, 612840, Note_off_c, 1, 69, 0
3, 612840, Note_off_c, 1, 78, 0
3, 612960, Note_on_c, 1, 78, 47
3, 612960, Note_on_c, 1, 69, 47
3, 613080, Note_off_c, 1, 69, 0
3, 613080, Note_off_c, 1, 78, 0
3, 613200, Note_on_c, 1, 78, 47
3, 613200, Note_on_c, 1, 74, 47
3, 613320, Note_off_c, 1, 74, 0
3, 613320, Note_off_c, 1, 78, 0
3, 613440, Note_on_c, 1, 78, 53
3, 613440, Note_on_c, 1, 69, 53
3, 613560, Note_off_c, 1, 69, 0
3, 613560, Note_off_c, 1, 78, 0
3, 613680, Note_on_c, 1, 78, 47
3, 613680, Note_on_c, 1, 69, 47
3, 613800, Note_off_c, 1, 69, 0
3, 613800, Note_off_c, 1, 78, 0
3, 613920, Note_on_c, 1, 78, 47
3, 613920, Note_on_c, 1, 69, 47
3, 614040, Note_off_c, 1, 69, 0
3, 614040, Note_off_c, 1, 78, 0
3, 614160, Note_on_c, 1, 78, 47
3, 614160, Note_on_c, 1, 74, 47
3, 614280, Note_off_c, 1, 74, 0
3, 614280, Note_off_c, 1, 78, 0
3, 614400, Note_on_c, 1, 79, 53
3, 614520, Note_off_c, 1, 79, 0
3, 614640, Note_on_c, 1, 81, 47
3, 614640, Note_on_c, 1, 79, 47
3, 614760, Note_off_c, 1, 79, 0
3, 614760, Note_off_c, 1, 81, 0
3, 614880, Note_on_c, 1, 79, 49
3, 614880, Note_on_c, 1, 81, 49
3, 615000, Note_off_c, 1, 81, 0
3, 615000, Note_off_c, 1, 79, 0
3, 615120, Note_on_c, 1, 79, 51
3, 615120, Note_on_c, 1, 81, 51
3, 615240, Note_off_c, 1, 81, 0
3, 615240, Note_off_c, 1, 79, 0
3, 615360, Note_on_c, 1, 81, 53
3, 615360, Note_on_c, 1, 79, 53
3, 615480, Note_off_c, 1, 79, 0
3, 615480, Note_off_c, 1, 81, 0
3, 615600, Note_on_c, 1, 81, 52
3, 615600, Note_on_c, 1, 79, 52
3, 615720, Note_off_c, 1, 79, 0
3, 615720, Note_off_c, 1, 81, 0
3, 615840, Note_on_c, 1, 81, 50
3, 615840, Note_on_c, 1, 79, 50
3, 615960, Note_off_c, 1, 79, 0
3, 615960, Note_off_c, 1, 81, 0
3, 616080, Note_on_c, 1, 81, 49
3, 616080, Note_on_c, 1, 79, 49
3, 616200, Note_off_c, 1, 79, 0
3, 616200, Note_off_c, 1, 81, 0
3, 616320, Note_on_c, 1, 78, 46
3, 616440, Note_off_c, 1, 78, 0
3, 616560, Note_on_c, 1, 78, 47
3, 616680, Note_off_c, 1, 78, 0
3, 616800, Note_on_c, 1, 78, 48
3, 616920, Note_off_c, 1, 78, 0
3, 617040, Note_on_c, 1, 78, 49
3, 617160, Note_off_c, 1, 78, 0
3, 617280, Note_on_c, 1, 77, 50
3, 617400, Note_off_c, 1, 77, 0
3, 617520, Note_on_c, 1, 77, 51
3, 617640, Note_off_c, 1, 77, 0
3, 617760, Note_on_c, 1, 77, 52
3, 617880, Note_off_c, 1, 77, 0
3, 618000, Note_on_c, 1, 77, 53
3, 618120, Note_off_c, 1, 77, 0
3, 618240, Note_on_c, 1, 76, 54
3, 618360, Note_off_c, 1, 76, 0
3, 618480, Note_on_c, 1, 76, 55
3, 618600, Note_off_c, 1, 76, 0
3, 618720, Note_on_c, 1, 76, 56
3, 618840, Note_off_c, 1, 76, 0
3, 618960, Note_on_c, 1, 76, 57
3, 619080, Note_off_c, 1, 76, 0
3, 619200, Note_on_c, 1, 75, 58
3, 619320, Note_off_c, 1, 75, 0
3, 619440, Note_on_c, 1, 75, 59
3, 619560, Note_off_c, 1, 75, 0
3, 619680, Note_on_c, 1, 75, 60
3, 619800, Note_off_c, 1, 75, 0
3, 619920, Note_on_c, 1, 75, 61
3, 620040, Note_off_c, 1, 75, 0
3, 620160, Note_on_c, 1, 74, 62
3, 620280, Note_off_c, 1, 74, 0
3, 620400, Note_on_c, 1, 74, 63
3, 620520, Note_off_c, 1, 74, 0
3, 620640, Note_on_c, 1, 76, 65
3, 620760, Note_off_c, 1, 76, 0
3, 620880, Note_on_c, 1, 77, 66
3, 621000, Note_off_c, 1, 77, 0
3, 621120, Note_on_c, 1, 79, 66
3, 621240, Note_off_c, 1, 79, 0
3, 621360, Note_on_c, 1, 79, 68
3, 621480, Note_off_c, 1, 79, 0
3, 621600, Note_on_c, 1, 79, 70
3, 621720, Note_off_c, 1, 79, 0
3, 621840, Note_on_c, 1, 79, 72
3, 621960, Note_off_c, 1, 79, 0
3, 622080, Note_on_c, 1, 79, 74
3, 622200, Note_off_c, 1, 79, 0
3, 622320, Note_on_c, 1, 79, 75
3, 622440, Note_off_c, 1, 79, 0
3, 622560, Note_on_c, 1, 79, 77
3, 622680, Note_off_c, 1, 79, 0
3, 622800, Note_on_c, 1, 79, 78
3, 622920, Note_off_c, 1, 79, 0
3, 623040, Note_on_c, 1, 79, 79
3, 623160, Note_off_c, 1, 79, 0
3, 623280, Note_on_c, 1, 81, 81
3, 623400, Note_off_c, 1, 81, 0
3, 623520, Note_on_c, 1, 79, 82
3, 623640, Note_off_c, 1, 79, 0
3, 623760, Note_on_c, 1, 77, 83
3, 623880, Note_off_c, 1, 77, 0
3, 624000, Note_on_c, 1, 76, 84
3, 624120, Note_off_c, 1, 76, 0
3, 662640, Note_on_c, 1, 57, 61
3, 662760, Note_off_c, 1, 57, 0
3, 662880, Note_on_c, 1, 57, 61
3, 663000, Note_off_c, 1, 57, 0
3, 663120, Note_on_c, 1, 57, 61
3, 663240, Note_off_c, 1, 57, 0
3, 663360, Note_on_c, 1, 57, 69
3, 663480, Note_off_c, 1, 57, 0
3, 663600, Note_on_c, 1, 57, 61
3, 663720, Note_off_c, 1, 57, 0
3, 663840, Note_on_c, 1, 57, 60
3, 663960, Note_off_c, 1, 57, 0
3, 664080, Note_on_c, 1, 57, 60
3, 664200, Note_off_c, 1, 57, 0
3, 664320, Note_on_c, 1, 58, 70
3, 664440, Note_off_c, 1, 58, 0
3, 664560, Note_on_c, 1, 58, 62
3, 664680, Note_off_c, 1, 58, 0
3, 664800, Note_on_c, 1, 58, 64
3, 664920, Note_off_c, 1, 58, 0
3, 665040, Note_on_c, 1, 58, 66
3, 665160, Note_off_c, 1, 58, 0
3, 665280, Note_on_c, 1, 58, 70
3, 665400, Note_off_c, 1, 58, 0
3, 665520, Note_on_c, 1, 58, 68
3, 665640, Note_off_c, 1, 58, 0
3, 665760, Note_on_c, 1, 58, 65
3, 665880, Note_off_c, 1, 58, 0
3, 666000, Note_on_c, 1, 58, 63
3, 666120, Note_off_c, 1, 58, 0
3, 666240, Note_on_c, 1, 57, 68
3, 666360, Note_off_c, 1, 57, 0
3, 666480, Note_on_c, 1, 57, 58
3, 666600, Note_off_c, 1, 57, 0
3, 666720, Note_on_c, 1, 57, 58
3, 666840, Note_off_c, 1, 57, 0
3, 666960, Note_on_c, 1, 57, 58
3, 667080, Note_off_c, 1, 57, 0
3, 667200, Note_on_c, 1, 57, 68
3, 667320, Note_off_c, 1, 57, 0
3, 667440, Note_on_c, 1, 57, 57
3, 667560, Note_off_c, 1, 57, 0
3, 667680, Note_on_c, 1, 57, 57
3, 667800, Note_off_c, 1, 57, 0
3, 667920, Note_on_c, 1, 57, 56
3, 668040, Note_off_c, 1, 57, 0
3, 668160, Note_on_c, 1, 58, 67
3, 668280, Note_off_c, 1, 58, 0
3, 668400, Note_on_c, 1, 58, 60
3, 668520, Note_off_c, 1, 58, 0
3, 668640, Note_on_c, 1, 58, 62
3, 668760, Note_off_c, 1, 58, 0
3, 668880, Note_on_c, 1, 58, 63
3, 669000, Note_off_c, 1, 58, 0
3, 669120, Note_on_c, 1, 58, 67
3, 669240, Note_off_c, 1, 58, 0
3, 669360, Note_on_c, 1, 58, 64
3, 669480, Note_off_c, 1, 58, 0
3, 669600, Note_on_c, 1, 58, 62
3, 669720, Note_off_c, 1, 58, 0
3, 669840, Note_on_c, 1, 58, 59
3, 669960, Note_off_c, 1, 58, 0
3, 670080, Note_on_c, 1, 57, 64
3, 670200, Note_off_c, 1, 57, 0
3, 670320, Note_on_c, 1, 81, 55
3, 670320, Note_on_c, 1, 72, 55
3, 670440, Note_off_c, 1, 72, 0
3, 670440, Note_off_c, 1, 81, 0
3, 670560, Note_on_c, 1, 81, 55
3, 670560, Note_on_c, 1, 72, 55
3, 670680, Note_off_c, 1, 72, 0
3, 670680, Note_off_c, 1, 81, 0
3, 670800, Note_on_c, 1, 81, 54
3, 670800, Note_on_c, 1, 77, 54
3, 670920, Note_off_c, 1, 77, 0
3, 670920, Note_off_c, 1, 81, 0
3, 671040, Note_on_c, 1, 81, 64
3, 671040, Note_on_c, 1, 72, 64
3, 671160, Note_off_c, 1, 72, 0
3, 671160, Note_off_c, 1, 81, 0
3, 671280, Note_on_c, 1, 81, 54
3, 671280, Note_on_c, 1, 72, 54
3, 671400, Note_off_c, 1, 72, 0
3, 671400, Note_off_c, 1, 81, 0
3, 671520, Note_on_c, 1, 81, 54
3, 671520, Note_on_c, 1, 72, 54
3, 671640, Note_off_c, 1, 72, 0
3, 671640, Note_off_c, 1, 81, 0
3, 671760, Note_on_c, 1, 77, 54
3, 671760, Note_on_c, 1, 81, 54
3, 671880, Note_off_c, 1, 81, 0
3, 671880, Note_off_c, 1, 77, 0
3, 672000, Note_on_c, 1, 82, 66
3, 672000, Note_on_c, 1, 72, 66
3, 672120, Note_off_c, 1, 72, 0
3, 672120, Note_off_c, 1, 82, 0
3, 672240, Note_on_c, 1, 82, 56
3, 672240, Note_on_c, 1, 74, 56
3, 672360, Note_off_c, 1, 74, 0
3, 672360, Note_off_c, 1, 82, 0
3, 672480, Note_on_c, 1, 82, 58
3, 672480, Note_on_c, 1, 76, 58
3, 672600, Note_off_c, 1, 76, 0
3, 672600, Note_off_c, 1, 82, 0
3, 672720, Note_on_c, 1, 77, 59
3, 672720, Note_on_c, 1, 82, 59
3, 672840, Note_off_c, 1, 82, 0
3, 672840, Note_off_c, 1, 77, 0
3, 672960, Note_on_c, 1, 82, 63
3, 672960, Note_on_c, 1, 79, 63
3, 673080, Note_off_c, 1, 79, 0
3, 673080, Note_off_c, 1, 82, 0
3, 673200, Note_on_c, 1, 82, 61
3, 673200, Note_on_c, 1, 76, 61
3, 673320, Note_off_c, 1, 76, 0
3, 673320, Note_off_c, 1, 82, 0
3, 673440, Note_on_c, 1, 82, 59
3, 673440, Note_on_c, 1, 77, 59
3, 673560, Note_off_c, 1, 77, 0
3, 673560, Note_off_c, 1, 82, 0
3, 673680, Note_on_c, 1, 82, 56
3, 673680, Note_on_c, 1, 79, 56
3, 673800, Note_off_c, 1, 79, 0
3, 673800, Note_off_c, 1, 82, 0
3, 673920, Note_on_c, 1, 72, 65
3, 673920, Note_on_c, 1, 81, 65
3, 674040, Note_off_c, 1, 81, 0
3, 674040, Note_off_c, 1, 72, 0
3, 674160, Note_on_c, 1, 72, 52
3, 674160, Note_on_c, 1, 81, 52
3, 674280, Note_off_c, 1, 81, 0
3, 674280, Note_off_c, 1, 72, 0
3, 674400, Note_on_c, 1, 81, 51
3, 674400, Note_on_c, 1, 72, 51
3, 674520, Note_off_c, 1, 72, 0
3, 674520, Note_off_c, 1, 81, 0
3, 674640, Note_on_c, 1, 81, 51
3, 674640, Note_on_c, 1, 77, 51
3, 674760, Note_off_c, 1, 77, 0
3, 674760, Note_off_c, 1, 81, 0
3, 674880, Note_on_c, 1, 81, 59
3, 674880, Note_on_c, 1, 72, 59
3, 675000, Note_off_c, 1, 72, 0
3, 675000, Note_off_c, 1, 81, 0
3, 675120, Note_on_c, 1, 81, 51
3, 675120, Note_on_c, 1, 72, 51
3, 675240, Note_off_c, 1, 72, 0
3, 675240, Note_off_c, 1, 81, 0
3, 675360, Note_on_c, 1, 81, 51
3, 675360, Note_on_c, 1, 72, 51
3, 675480, Note_off_c, 1, 72, 0
3, 675480, Note_off_c, 1, 81, 0
3, 675600, Note_on_c, 1, 81, 50
3, 675600, Note_on_c, 1, 77, 50
3, 675720, Note_off_c, 1, 77, 0
3, 675720, Note_off_c, 1, 81, 0
3, 675840, Note_on_c, 1, 82, 61
3, 675840, Note_on_c, 1, 72, 61
3, 675960, Note_off_c, 1, 72, 0
3, 675960, Note_off_c, 1, 82, 0
3, 676080, Note_on_c, 1, 82, 52
3, 676080, Note_on_c, 1, 74, 52
3, 676200, Note_off_c, 1, 74, 0
3, 676200, Note_off_c, 1, 82, 0
3, 676320, Note_on_c, 1, 82, 54
3, 676320, Note_on_c, 1, 76, 54
3, 676440, Note_off_c, 1, 76, 0
3, 676440, Note_off_c, 1, 82, 0
3, 676560, Note_on_c, 1, 82, 56
3, 676560, Note_on_c, 1, 77, 56
3, 676680, Note_off_c, 1, 77, 0
3, 676680, Note_off_c, 1, 82, 0
3, 676800, Note_on_c, 1, 79, 61
3, 676800, Note_on_c, 1, 82, 61
3, 676920, Note_off_c, 1, 82, 0
3, 676920, Note_off_c, 1, 79, 0
3, 677040, Note_on_c, 1, 82, 59
3, 677040, Note_on_c, 1, 76, 59
3, 677160, Note_off_c, 1, 76, 0
3, 677160, Note_off_c, 1, 82, 0
3, 677280, Note_on_c, 1, 82, 56
3, 677280, Note_on_c, 1, 77, 56
3, 677400, Note_off_c, 1, 77, 0
3, 677400, Note_off_c, 1, 82, 0
3, 677520, Note_on_c, 1, 79, 54
3, 677520, Note_on_c, 1, 82, 54
3, 677640, Note_off_c, 1, 82, 0
3, 677640, Note_off_c, 1, 79, 0
3, 677760, Note_on_c, 1, 77, 52
3, 677760, Note_on_c, 1, 81, 52
3, 677880, Note_off_c, 1, 81, 0
3, 677880, Note_off_c, 1, 77, 0
3, 678000, Note_on_c, 1, 81, 54
3, 678120, Note_off_c, 1, 81, 0
3, 678240, Note_on_c, 1, 81, 56
3, 678360, Note_off_c, 1, 81, 0
3, 678480, Note_on_c, 1, 81, 58
3, 678600, Note_off_c, 1, 81, 0
3, 678720, Note_on_c, 1, 76, 60
3, 678720, Note_on_c, 1, 79, 60
3, 678840, Note_off_c, 1, 79, 0
3, 678840, Note_off_c, 1, 76, 0
3, 678960, Note_on_c, 1, 76, 62
3, 678960, Note_on_c, 1, 79, 62
3, 679080, Note_off_c, 1, 79, 0
3, 679080, Note_off_c, 1, 76, 0
3, 679200, Note_on_c, 1, 76, 63
3, 679200, Note_on_c, 1, 79, 63
3, 679320, Note_off_c, 1, 79, 0
3, 679320, Note_off_c, 1, 76, 0
3, 679440, Note_on_c, 1, 79, 65
3, 679440, Note_on_c, 1, 76, 65
3, 679560, Note_off_c, 1, 76, 0
3, 679560, Note_off_c, 1, 79, 0
3, 679680, Note_on_c, 1, 81, 67
3, 679680, Note_on_c, 1, 77, 67
3, 679800, Note_off_c, 1, 77, 0
3, 679800, Note_off_c, 1, 81, 0
3, 679920, Note_on_c, 1, 81, 69
3, 679920, Note_on_c, 1, 72, 69
3, 680040, Note_off_c, 1, 72, 0
3, 680040, Note_off_c, 1, 81, 0
3, 680160, Note_on_c, 1, 72, 71
3, 680160, Note_on_c, 1, 81, 71
3, 680280, Note_off_c, 1, 81, 0
3, 680280, Note_off_c, 1, 72, 0
3, 680400, Note_on_c, 1, 81, 73
3, 680400, Note_on_c, 1, 72, 73
3, 680520, Note_off_c, 1, 72, 0
3, 680520, Note_off_c, 1, 81, 0
3, 680640, Note_on_c, 1, 82, 75
3, 680640, Note_on_c, 1, 72, 75
3, 680760, Note_off_c, 1, 72, 0
3, 680760, Note_off_c, 1, 82, 0
3, 680880, Note_on_c, 1, 72, 77
3, 680880, Note_on_c, 1, 82, 77
3, 681000, Note_off_c, 1, 82, 0
3, 681000, Note_off_c, 1, 72, 0
3, 681120, Note_on_c, 1, 82, 79
3, 681120, Note_on_c, 1, 74, 79
3, 681240, Note_off_c, 1, 74, 0
3, 681240, Note_off_c, 1, 82, 0
3, 681360, Note_on_c, 1, 82, 81
3, 681360, Note_on_c, 1, 76, 81
3, 681480, Note_off_c, 1, 76, 0
3, 681480, Note_off_c, 1, 82, 0
3, 681480, End_track
4, 0, Start_track
4, 0, Title_t, "No Name"
4, 0, Control_c, 2, 0, 0
4, 0, Control_c, 2, 32, 0
4, 0, Program_c, 2, 0
4, 0, Control_c, 2, 10, 64
4, 0, Control_c, 2, 91, 91
4, 0, Control_c, 2, 93, 28
4, 0, Control_c, 2, 64, 0
4, 0, Control_c, 2, 1, 0
4, 0, Pitch_bend_c, 2, 8192
4, 0, Control_c, 2, 7, 112
4, 720, Note_on_c, 2, 53, 45
4, 720, Note_on_c, 2, 48, 45
4, 840, Note_off_c, 2, 48, 0
4, 840, Note_off_c, 2, 53, 0
4, 960, Note_on_c, 2, 48, 47
4, 960, Note_on_c, 2, 53, 47
4, 1152, Note_off_c, 2, 53, 0
4, 1152, Note_off_c, 2, 48, 0
4, 2640, Note_on_c, 2, 48, 41
4, 2640, Note_on_c, 2, 53, 41
4, 2760, Note_off_c, 2, 53, 0
4, 2760, Note_off_c, 2, 48, 0
4, 2880, Note_on_c, 2, 48, 42
4, 2880, Note_on_c, 2, 52, 42
4, 3072, Note_off_c, 2, 52, 0
4, 3072, Note_off_c, 2, 48, 0
4, 4800, Note_on_c, 2, 57, 42
4, 4800, Note_on_c, 2, 60, 42
4, 5280, Note_off_c, 2, 60, 0
4, 5280, Note_off_c, 2, 57, 0
4, 5280, Note_on_c, 2, 58, 46
4, 5280, Note_on_c, 2, 60, 46
4, 5760, Note_off_c, 2, 60, 0
4, 5760, Note_off_c, 2, 58, 0
4, 5760, Note_on_c, 2, 60, 49
4, 5760, Note_on_c, 2, 65, 49
4, 6240, Note_off_c, 2, 65, 0
4, 6240, Note_off_c, 2, 60, 0
4, 6240, Note_on_c, 2, 62, 52
4, 6240, Note_on_c, 2, 65, 52
4, 6240, Note_on_c, 2, 67, 52
4, 6720, Note_off_c, 2, 67, 0
4, 6720, Note_off_c, 2, 65, 0
4, 6720, Note_off_c, 2, 62, 0
4, 6720, Note_on_c, 2, 65, 59
4, 6720, Note_on_c, 2, 69, 59
4, 7200, Note_off_c, 2, 69, 0
4, 7200, Note_off_c, 2, 65, 0
4, 7200, Note_on_c, 2, 65, 57
4, 7200, Note_on_c, 2, 69, 57
4, 7200, Note_on_c, 2, 72, 57
4, 7680, Note_off_c, 2, 72, 0
4, 7680, Note_off_c, 2, 69, 0
4, 7680, Note_off_c, 2, 65, 0
4, 7680, Note_on_c, 2, 65, 56
4, 7680, Note_on_c, 2, 70, 56
4, 8040, Note_off_c, 2, 70, 0
4, 8040, Note_off_c, 2, 65, 0
4, 8640, Note_on_c, 2, 65, 52
4, 8640, Note_on_c, 2, 70, 52
4, 9120, Note_off_c, 2, 70, 0
4, 9120, Note_off_c, 2, 65, 0
4, 9120, Note_on_c, 2, 72, 50
4, 9120, Note_on_c, 2, 67, 50
4, 9600, Note_off_c, 2, 67, 0
4, 9600, Note_off_c, 2, 72, 0
4, 9840, Note_on_c, 2, 72, 47
4, 9840, Note_on_c, 2, 69, 47
4, 10080, Note_off_c, 2, 69, 0
4, 10080, Note_off_c, 2, 72, 0
4, 10080, Note_on_c, 2, 67, 47
4, 10080, Note_on_c, 2, 62, 47
4, 10560, Note_off_c, 2, 62, 0
4, 10560, Note_off_c, 2, 67, 0
4, 10560, Note_on_c, 2, 69, 45
4, 10560, Note_on_c, 2, 65, 45
4, 11040, Note_off_c, 2, 65, 0
4, 11040, Note_off_c, 2, 69, 0
4, 11040, Note_on_c, 2, 70, 43
4, 11040, Note_on_c, 2, 67, 43
4, 11040, Note_on_c, 2, 60, 43
4, 11520, Note_off_c, 2, 60, 0
4, 11520, Note_off_c, 2, 67, 0
4, 11520, Note_off_c, 2, 70, 0
4, 11520, Note_on_c, 2, 69, 41
4, 11520, Note_on_c, 2, 65, 41
4, 11880, Note_off_c, 2, 65, 0
4, 11880, Note_off_c, 2, 69, 0
4, 12240, Note_on_c, 2, 53, 44
4, 12240, Note_on_c, 2, 48, 44
4, 12360, Note_off_c, 2, 48, 0
4, 12360, Note_off_c, 2, 53, 0
4, 12480, Note_on_c, 2, 53, 47
4, 12480, Note_on_c, 2, 48, 47
4, 12672, Note_off_c, 2, 48, 0
4, 12672, Note_off_c, 2, 53, 0
4, 14160, Note_on_c, 2, 51, 50
4, 14160, Note_on_c, 2, 48, 50
4, 14280, Note_off_c, 2, 48, 0
4, 14280, Note_off_c, 2, 51, 0
4, 14400, Note_on_c, 2, 51, 53
4, 14400, Note_on_c, 2, 48, 53
4, 14592, Note_off_c, 2, 48, 0
4, 14592, Note_off_c, 2, 51, 0
4, 16080, Note_on_c, 2, 57, 78
4, 16160, Note_off_c, 2, 57, 0
4, 16160, Note_on_c, 2, 59, 78
4, 16240, Note_off_c, 2, 59, 0
4, 16240, Note_on_c, 2, 60, 79
4, 16320, Note_off_c, 2, 60, 0
4, 16320, Note_on_c, 2, 56, 79
4, 16440, Note_off_c, 2, 56, 0
4, 16560, Note_on_c, 2, 57, 80
4, 16640, Note_off_c, 2, 57, 0
4, 16640, Note_on_c, 2, 59, 81
4, 16720, Note_off_c, 2, 59, 0
4, 16720, Note_on_c, 2, 60, 81
4, 16800, Note_off_c, 2, 60, 0
4, 16800, Note_on_c, 2, 56, 81
4, 16920, Note_off_c, 2, 56, 0
4, 17040, Note_on_c, 2, 57, 83
4, 17120, Note_off_c, 2, 57, 0
4, 17120, Note_on_c, 2, 59, 83
4, 17200, Note_off_c, 2, 59, 0
4, 17200, Note_on_c, 2, 60, 83
4, 17280, Note_off_c, 2, 60, 0
4, 17280, Note_on_c, 2, 56, 79
4, 17520, Note_off_c, 2, 56, 0
4, 28880, Note_on_c, 2, 59, 57
4, 28960, Note_off_c, 2, 59, 0
4, 28960, Note_on_c, 2, 62, 57
4, 29040, Note_off_c, 2, 62, 0
4, 29040, Note_on_c, 2, 59, 57
4, 29120, Note_off_c, 2, 59, 0
4, 29120, Note_on_c, 2, 62, 57
4, 29200, Note_off_c, 2, 62, 0
4, 29200, Note_on_c, 2, 59, 57
4, 29280, Note_off_c, 2, 59, 0
4, 29360, Note_on_c, 2, 60, 56
4, 29440, Note_off_c, 2, 60, 0
4, 29440, Note_on_c, 2, 62, 56
4, 29520, Note_off_c, 2, 62, 0
4, 29520, Note_on_c, 2, 60, 56
4, 29600, Note_off_c, 2, 60, 0
4, 29600, Note_on_c, 2, 62, 56
4, 29680, Note_off_c, 2, 62, 0
4, 29680, Note_on_c, 2, 60, 56
4, 29760, Note_off_c, 2, 60, 0
4, 29840, Note_on_c, 2, 59, 55
4, 29920, Note_off_c, 2, 59, 0
4, 29920, Note_on_c, 2, 62, 55
4, 30000, Note_off_c, 2, 62, 0
4, 30000, Note_on_c, 2, 59, 55
4, 30080, Note_off_c, 2, 59, 0
4, 30080, Note_on_c, 2, 62, 55
4, 30160, Note_off_c, 2, 62, 0
4, 30160, Note_on_c, 2, 59, 55
4, 30240, Note_off_c, 2, 59, 0
4, 30320, Note_on_c, 2, 57, 54
4, 30400, Note_off_c, 2, 57, 0
4, 30400, Note_on_c, 2, 62, 54
4, 30480, Note_off_c, 2, 62, 0
4, 30480, Note_on_c, 2, 57, 54
4, 30560, Note_off_c, 2, 57, 0
4, 30560, Note_on_c, 2, 62, 54
4, 30640, Note_off_c, 2, 62, 0
4, 30640, Note_on_c, 2, 57, 54
4, 30720, Note_off_c, 2, 57, 0
4, 30800, Note_on_c, 2, 59, 53
4, 30880, Note_off_c, 2, 59, 0
4, 30880, Note_on_c, 2, 62, 53
4, 30960, Note_off_c, 2, 62, 0
4, 30960, Note_on_c, 2, 59, 53
4, 31040, Note_off_c, 2, 59, 0
4, 31040, Note_on_c, 2, 62, 53
4, 31120, Note_off_c, 2, 62, 0
4, 31120, Note_on_c, 2, 59, 52
4, 31200, Note_off_c, 2, 59, 0
4, 31280, Note_on_c, 2, 60, 52
4, 31360, Note_off_c, 2, 60, 0
4, 31360, Note_on_c, 2, 62, 52
4, 31440, Note_off_c, 2, 62, 0
4, 31440, Note_on_c, 2, 60, 52
4, 31520, Note_off_c, 2, 60, 0
4, 31520, Note_on_c, 2, 62, 52
4, 31600, Note_off_c, 2, 62, 0
4, 31600, Note_on_c, 2, 60, 51
4, 31680, Note_off_c, 2, 60, 0
4, 31760, Note_on_c, 2, 59, 51
4, 31840, Note_off_c, 2, 59, 0
4, 31840, Note_on_c, 2, 62, 51
4, 31920, Note_off_c, 2, 62, 0
4, 31920, Note_on_c, 2, 59, 51
4, 32000, Note_off_c, 2, 59, 0
4, 32000, Note_on_c, 2, 62, 50
4, 32080, Note_off_c, 2, 62, 0
4, 32080, Note_on_c, 2, 59, 50
4, 32160, Note_off_c, 2, 59, 0
4, 32240, Note_on_c, 2, 57, 50
4, 32320, Note_off_c, 2, 57, 0
4, 32320, Note_on_c, 2, 62, 50
4, 32400, Note_off_c, 2, 62, 0
4, 32400, Note_on_c, 2, 57, 50
4, 32480, Note_off_c, 2, 57, 0
4, 32480, Note_on_c, 2, 62, 49
4, 32560, Note_off_c, 2, 62, 0
4, 32560, Note_on_c, 2, 57, 49
4, 32640, Note_off_c, 2, 57, 0
4, 32720, Note_on_c, 2, 59, 49
4, 32800, Note_off_c, 2, 59, 0
4, 32800, Note_on_c, 2, 62, 49
4, 32880, Note_off_c, 2, 62, 0
4, 32880, Note_on_c, 2, 59, 48
4, 32960, Note_off_c, 2, 59, 0
4, 32960, Note_on_c, 2, 62, 48
4, 33040, Note_off_c, 2, 62, 0
4, 33040, Note_on_c, 2, 59, 48
4, 33120, Note_off_c, 2, 59, 0
4, 33200, Note_on_c, 2, 57, 48
4, 33280, Note_off_c, 2, 57, 0
4, 33280, Note_on_c, 2, 62, 48
4, 33360, Note_off_c, 2, 62, 0
4, 33360, Note_on_c, 2, 57, 47
4, 33440, Note_off_c, 2, 57, 0
4, 33440, Note_on_c, 2, 62, 47
4, 33520, Note_off_c, 2, 62, 0
4, 33520, Note_on_c, 2, 57, 47
4, 33600, Note_off_c, 2, 57, 0
4, 33680, Note_on_c, 2, 59, 47
4, 33760, Note_off_c, 2, 59, 0
4, 33760, Note_on_c, 2, 62, 46
4, 33840, Note_off_c, 2, 62, 0
4, 33840, Note_on_c, 2, 59, 46
4, 33920, Note_off_c, 2, 59, 0
4, 33920, Note_on_c, 2, 62, 46
4, 34000, Note_off_c, 2, 62, 0
4, 34000, Note_on_c, 2, 59, 46
4, 34080, Note_off_c, 2, 59, 0
4, 34160, Note_on_c, 2, 57, 46
4, 34240, Note_off_c, 2, 57, 0
4, 34240, Note_on_c, 2, 62, 45
4, 34320, Note_off_c, 2, 62, 0
4, 34320, Note_on_c, 2, 57, 45
4, 34400, Note_off_c, 2, 57, 0
4, 34400, Note_on_c, 2, 62, 45
4, 34480, Note_off_c, 2, 62, 0
4, 34480, Note_on_c, 2, 57, 45
4, 34560, Note_off_c, 2, 57, 0
4, 34560, Note_on_c, 2, 59, 45
4, 34560, Note_on_c, 2, 62, 45
4, 34800, Note_off_c, 2, 62, 0
4, 34800, Note_off_c, 2, 59, 0
4, 36480, Note_on_c, 2, 67, 52
4, 36840, Note_off_c, 2, 67, 0
4, 36960, Note_on_c, 2, 67, 48
4, 37080, Note_off_c, 2, 67, 0
4, 37200, Note_on_c, 2, 67, 47
4, 37320, Note_off_c, 2, 67, 0
4, 37440, Note_on_c, 2, 67, 50
4, 37800, Note_off_c, 2, 67, 0
4, 37920, Note_on_c, 2, 67, 46
4, 38040, Note_off_c, 2, 67, 0
4, 38160, Note_on_c, 2, 67, 45
4, 38280, Note_off_c, 2, 67, 0
4, 38400, Note_on_c, 2, 65, 47
4, 38520, Note_off_c, 2, 65, 0
4, 38880, Note_on_c, 2, 62, 43
4, 38880, Note_on_c, 2, 59, 43
4, 39000, Note_off_c, 2, 59, 0
4, 39000, Note_off_c, 2, 62, 0
4, 39360, Note_on_c, 2, 52, 42
4, 39360, Note_on_c, 2, 55, 42
4, 39360, Note_on_c, 2, 60, 42
4, 39516, Note_off_c, 2, 60, 0
4, 39516, Note_off_c, 2, 55, 0
4, 39516, Note_off_c, 2, 52, 0
4, 40080, Note_on_c, 2, 67, 91
4, 40200, Note_off_c, 2, 67, 0
4, 40320, Note_on_c, 2, 68, 95
4, 40560, Note_off_c, 2, 68, 0
4, 40560, Note_on_c, 2, 65, 90
4, 40680, Note_off_c, 2, 65, 0
4, 40800, Note_on_c, 2, 62, 90
4, 40920, Note_off_c, 2, 62, 0
4, 41040, Note_on_c, 2, 63, 89
4, 41160, Note_off_c, 2, 63, 0
4, 41280, Note_on_c, 2, 68, 94
4, 41520, Note_off_c, 2, 68, 0
4, 41520, Note_on_c, 2, 65, 88
4, 41640, Note_off_c, 2, 65, 0
4, 41760, Note_on_c, 2, 62, 87
4, 41880, Note_off_c, 2, 62, 0
4, 42000, Note_on_c, 2, 63, 87
4, 42120, Note_off_c, 2, 63, 0
4, 42240, Note_on_c, 2, 56, 93
4, 42240, Note_on_c, 2, 62, 93
4, 42360, Note_off_c, 2, 62, 0
4, 42360, Note_off_c, 2, 56, 0
4, 42720, Note_on_c, 2, 62, 88
4, 42720, Note_on_c, 2, 59, 88
4, 42840, Note_off_c, 2, 59, 0
4, 42840, Note_off_c, 2, 62, 0
4, 43200, Note_on_c, 2, 60, 82
4, 43320, Note_off_c, 2, 60, 0
4, 44160, Note_on_c, 2, 60, 47
4, 44160, Note_on_c, 2, 57, 47
4, 44280, Note_off_c, 2, 57, 0
4, 44280, Note_off_c, 2, 60, 0
4, 45120, Note_on_c, 2, 55, 48
4, 45240, Note_off_c, 2, 55, 0
4, 45360, Note_on_c, 2, 55, 50
4, 45480, Note_off_c, 2, 55, 0
4, 45600, Note_on_c, 2, 55, 51
4, 45720, Note_off_c, 2, 55, 0
4, 45840, Note_on_c, 2, 55, 53
4, 45960, Note_off_c, 2, 55, 0
4, 46080, Note_on_c, 2, 55, 55
4, 46200, Note_off_c, 2, 55, 0
4, 46320, Note_on_c, 2, 55, 57
4, 46440, Note_off_c, 2, 55, 0
4, 46560, Note_on_c, 2, 55, 59
4, 46680, Note_off_c, 2, 55, 0
4, 46800, Note_on_c, 2, 55, 60
4, 46920, Note_off_c, 2, 55, 0
4, 47040, Note_on_c, 2, 55, 62
4, 47160, Note_off_c, 2, 55, 0
4, 47280, Note_on_c, 2, 55, 64
4, 47400, Note_off_c, 2, 55, 0
4, 47520, Note_on_c, 2, 55, 66
4, 47640, Note_off_c, 2, 55, 0
4, 47760, Note_on_c, 2, 55, 67
4, 47880, Note_off_c, 2, 55, 0
4, 48000, Note_on_c, 2, 55, 69
4, 48120, Note_off_c, 2, 55, 0
4, 48240, Note_on_c, 2, 55, 71
4, 48360, Note_off_c, 2, 55, 0
4, 48480, Note_on_c, 2, 55, 73
4, 48600, Note_off_c, 2, 55, 0
4, 48720, Note_on_c, 2, 55, 75
4, 48840, Note_off_c, 2, 55, 0
4, 48960, Note_on_c, 2, 50, 76
4, 48960, Note_on_c, 2, 45, 76
4, 49080, Note_off_c, 2, 45, 0
4, 49080, Note_off_c, 2, 50, 0
4, 49440, Note_on_c, 2, 57, 80
4, 49440, Note_on_c, 2, 62, 80
4, 49560, Note_off_c, 2, 62, 0
4, 49560, Note_off_c, 2, 57, 0
4, 52880, Note_on_c, 2, 64, 50
4, 52960, Note_off_c, 2, 64, 0
4, 52960, Note_on_c, 2, 67, 50
4, 53040, Note_off_c, 2, 67, 0
4, 53120, Note_on_c, 2, 64, 51
4, 53200, Note_off_c, 2, 64, 0
4, 53200, Note_on_c, 2, 67, 51
4, 53280, Note_off_c, 2, 67, 0
4, 53360, Note_on_c, 2, 64, 52
4, 53440, Note_off_c, 2, 64, 0
4, 53440, Note_on_c, 2, 67, 52
4, 53520, Note_off_c, 2, 67, 0
4, 53600, Note_on_c, 2, 64, 53
4, 53680, Note_off_c, 2, 64, 0
4, 53680, Note_on_c, 2, 67, 53
4, 53760, Note_off_c, 2, 67, 0
4, 53840, Note_on_c, 2, 64, 50
4, 53920, Note_off_c, 2, 64, 0
4, 53920, Note_on_c, 2, 67, 50
4, 54000, Note_off_c, 2, 67, 0
4, 54080, Note_on_c, 2, 64, 51
4, 54160, Note_off_c, 2, 64, 0
4, 54160, Note_on_c, 2, 67, 51
4, 54240, Note_off_c, 2, 67, 0
4, 54320, Note_on_c, 2, 64, 52
4, 54400, Note_off_c, 2, 64, 0
4, 54400, Note_on_c, 2, 67, 52
4, 54480, Note_off_c, 2, 67, 0
4, 54560, Note_on_c, 2, 64, 53
4, 54640, Note_off_c, 2, 64, 0
4, 54640, Note_on_c, 2, 67, 53
4, 54720, Note_off_c, 2, 67, 0
4, 54720, Note_on_c, 2, 57, 54
4, 54800, Note_off_c, 2, 57, 0
4, 54800, Note_on_c, 2, 60, 54
4, 54880, Note_off_c, 2, 60, 0
4, 54880, Note_on_c, 2, 62, 54
4, 54960, Note_off_c, 2, 62, 0
4, 54960, Note_on_c, 2, 57, 55
4, 55040, Note_off_c, 2, 57, 0
4, 55040, Note_on_c, 2, 60, 55
4, 55120, Note_off_c, 2, 60, 0
4, 55120, Note_on_c, 2, 62, 55
4, 55200, Note_off_c, 2, 62, 0
4, 55200, Note_on_c, 2, 57, 75
4, 55280, Note_off_c, 2, 57, 0
4, 55280, Note_on_c, 2, 60, 75
4, 55360, Note_off_c, 2, 60, 0
4, 55360, Note_on_c, 2, 62, 75
4, 55440, Note_off_c, 2, 62, 0
4, 55440, Note_on_c, 2, 57, 74
4, 55520, Note_off_c, 2, 57, 0
4, 55520, Note_on_c, 2, 60, 74
4, 55600, Note_off_c, 2, 60, 0
4, 55600, Note_on_c, 2, 62, 74
4, 55680, Note_off_c, 2, 62, 0
4, 55760, Note_on_c, 2, 60, 73
4, 55840, Note_off_c, 2, 60, 0
4, 55840, Note_on_c, 2, 64, 73
4, 55920, Note_off_c, 2, 64, 0
4, 56000, Note_on_c, 2, 60, 72
4, 56080, Note_off_c, 2, 60, 0
4, 56080, Note_on_c, 2, 64, 72
4, 56160, Note_off_c, 2, 64, 0
4, 56240, Note_on_c, 2, 59, 71
4, 56320, Note_off_c, 2, 59, 0
4, 56320, Note_on_c, 2, 62, 71
4, 56400, Note_off_c, 2, 62, 0
4, 56480, Note_on_c, 2, 59, 70
4, 56560, Note_off_c, 2, 59, 0
4, 56560, Note_on_c, 2, 62, 70
4, 56640, Note_off_c, 2, 62, 0
4, 56700, Note_on_c, 2, 52, 65
4, 56760, Note_off_c, 2, 52, 0
4, 56760, Note_on_c, 2, 55, 63
4, 56820, Note_off_c, 2, 55, 0
4, 56820, Note_on_c, 2, 60, 61
4, 56880, Note_off_c, 2, 60, 0
4, 56940, Note_on_c, 2, 52, 57
4, 57000, Note_off_c, 2, 52, 0
4, 57000, Note_on_c, 2, 55, 55
4, 57060, Note_off_c, 2, 55, 0
4, 57060, Note_on_c, 2, 60, 53
4, 57120, Note_off_c, 2, 60, 0
4, 57180, Note_on_c, 2, 52, 46
4, 57240, Note_off_c, 2, 52, 0
4, 57240, Note_on_c, 2, 55, 46
4, 57300, Note_off_c, 2, 55, 0
4, 57300, Note_on_c, 2, 60, 46
4, 57360, Note_off_c, 2, 60, 0
4, 57420, Note_on_c, 2, 52, 47
4, 57480, Note_off_c, 2, 52, 0
4, 57480, Note_on_c, 2, 55, 47
4, 57540, Note_off_c, 2, 55, 0
4, 57540, Note_on_c, 2, 60, 47
4, 57600, Note_off_c, 2, 60, 0
4, 57660, Note_on_c, 2, 52, 48
4, 57720, Note_off_c, 2, 52, 0
4, 57720, Note_on_c, 2, 55, 48
4, 57780, Note_off_c, 2, 55, 0
4, 57780, Note_on_c, 2, 60, 48
4, 57840, Note_off_c, 2, 60, 0
4, 57900, Note_on_c, 2, 52, 49
4, 57960, Note_off_c, 2, 52, 0
4, 57960, Note_on_c, 2, 55, 49
4, 58020, Note_off_c, 2, 55, 0
4, 58020, Note_on_c, 2, 60, 49
4, 58080, Note_off_c, 2, 60, 0
4, 58160, Note_on_c, 2, 55, 50
4, 58240, Note_off_c, 2, 55, 0
4, 58240, Note_on_c, 2, 60, 50
4, 58320, Note_off_c, 2, 60, 0
4, 58400, Note_on_c, 2, 55, 51
4, 58480, Note_off_c, 2, 55, 0
4, 58480, Note_on_c, 2, 60, 51
4, 58560, Note_off_c, 2, 60, 0
4, 58620, Note_on_c, 2, 57, 52
4, 58680, Note_off_c, 2, 57, 0
4, 58680, Note_on_c, 2, 60, 52
4, 58740, Note_off_c, 2, 60, 0
4, 58740, Note_on_c, 2, 62, 52
4, 58800, Note_off_c, 2, 62, 0
4, 58860, Note_on_c, 2, 57, 53
4, 58920, Note_off_c, 2, 57, 0
4, 58920, Note_on_c, 2, 60, 53
4, 58980, Note_off_c, 2, 60, 0
4, 58980, Note_on_c, 2, 62, 53
4, 59040, Note_off_c, 2, 62, 0
4, 59100, Note_on_c, 2, 57, 69
4, 59160, Note_off_c, 2, 57, 0
4, 59160, Note_on_c, 2, 60, 69
4, 59220, Note_off_c, 2, 60, 0
4, 59220, Note_on_c, 2, 62, 69
4, 59280, Note_off_c, 2, 62, 0
4, 59340, Note_on_c, 2, 57, 69
4, 59400, Note_off_c, 2, 57, 0
4, 59400, Note_on_c, 2, 60, 69
4, 59460, Note_off_c, 2, 60, 0
4, 59460, Note_on_c, 2, 62, 69
4, 59520, Note_off_c, 2, 62, 0
4, 59600, Note_on_c, 2, 60, 69
4, 59680, Note_off_c, 2, 60, 0
4, 59680, Note_on_c, 2, 64, 69
4, 59760, Note_off_c, 2, 64, 0
4, 59840, Note_on_c, 2, 60, 69
4, 59920, Note_off_c, 2, 60, 0
4, 59920, Note_on_c, 2, 64, 69
4, 60000, Note_off_c, 2, 64, 0
4, 60080, Note_on_c, 2, 59, 68
4, 60160, Note_off_c, 2, 59, 0
4, 60160, Note_on_c, 2, 62, 68
4, 60240, Note_off_c, 2, 62, 0
4, 60320, Note_on_c, 2, 59, 68
4, 60400, Note_off_c, 2, 59, 0
4, 60400, Note_on_c, 2, 62, 68
4, 60480, Note_off_c, 2, 62, 0
4, 60540, Note_on_c, 2, 52, 68
4, 60600, Note_off_c, 2, 52, 0
4, 60600, Note_on_c, 2, 55, 68
4, 60660, Note_off_c, 2, 55, 0
4, 60660, Note_on_c, 2, 60, 68
4, 60720, Note_off_c, 2, 60, 0
4, 60780, Note_on_c, 2, 52, 68
4, 60840, Note_off_c, 2, 52, 0
4, 60840, Note_on_c, 2, 55, 68
4, 60900, Note_off_c, 2, 55, 0
4, 60900, Note_on_c, 2, 60, 68
4, 60960, Note_off_c, 2, 60, 0
4, 61040, Note_on_c, 2, 51, 69
4, 61120, Note_off_c, 2, 51, 0
4, 61120, Note_on_c, 2, 55, 70
4, 61200, Note_off_c, 2, 55, 0
4, 61280, Note_on_c, 2, 51, 73
4, 61360, Note_off_c, 2, 51, 0
4, 61360, Note_on_c, 2, 55, 75
4, 61440, Note_off_c, 2, 55, 0
4, 61500, Note_on_c, 2, 48, 77
4, 61560, Note_off_c, 2, 48, 0
4, 61560, Note_on_c, 2, 50, 78
4, 61620, Note_off_c, 2, 50, 0
4, 61620, Note_on_c, 2, 55, 80
4, 61680, Note_off_c, 2, 55, 0
4, 61740, Note_on_c, 2, 48, 82
4, 61800, Note_off_c, 2, 48, 0
4, 61800, Note_on_c, 2, 50, 83
4, 61860, Note_off_c, 2, 50, 0
4, 61860, Note_on_c, 2, 55, 84
4, 61920, Note_off_c, 2, 55, 0
4, 61980, Note_on_c, 2, 47, 86
4, 62040, Note_off_c, 2, 47, 0
4, 62040, Note_on_c, 2, 50, 86
4, 62100, Note_off_c, 2, 50, 0
4, 62100, Note_on_c, 2, 55, 87
4, 62160, Note_off_c, 2, 55, 0
4, 62220, Note_on_c, 2, 47, 89
4, 62280, Note_off_c, 2, 47, 0
4, 62280, Note_on_c, 2, 50, 90
4, 62340, Note_off_c, 2, 50, 0
4, 62340, Note_on_c, 2, 55, 91
4, 62400, Note_off_c, 2, 55, 0
4, 64080, Note_on_c, 2, 48, 45
4, 64080, Note_on_c, 2, 53, 45
4, 64200, Note_off_c, 2, 53, 0
4, 64200, Note_off_c, 2, 48, 0
4, 64320, Note_on_c, 2, 53, 47
4, 64320, Note_on_c, 2, 48, 47
4, 64512, Note_off_c, 2, 48, 0
4, 64512, Note_off_c, 2, 53, 0
4, 66000, Note_on_c, 2, 53, 41
4, 66000, Note_on_c, 2, 48, 41
4, 66120, Note_off_c, 2, 48, 0
4, 66120, Note_off_c, 2, 53, 0
4, 66240, Note_on_c, 2, 52, 42
4, 66240, Note_on_c, 2, 48, 42
4, 66432, Note_off_c, 2, 48, 0
4, 66432, Note_off_c, 2, 52, 0
4, 68160, Note_on_c, 2, 60, 42
4, 68160, Note_on_c, 2, 57, 42
4, 68640, Note_off_c, 2, 57, 0
4, 68640, Note_off_c, 2, 60, 0
4, 68640, Note_on_c, 2, 60, 46
4, 68640, Note_on_c, 2, 58, 46
4, 69120, Note_off_c, 2, 58, 0
4, 69120, Note_off_c, 2, 60, 0
4, 69120, Note_on_c, 2, 65, 49
4, 69120, Note_on_c, 2, 60, 49
4, 69600, Note_off_c, 2, 60, 0
4, 69600, Note_off_c, 2, 65, 0
4, 69600, Note_on_c, 2, 67, 52
4, 69600, Note_on_c, 2, 65, 52
4, 69600, Note_on_c, 2, 62, 52
4, 70080, Note_off_c, 2, 62, 0
4, 70080, Note_off_c, 2, 65, 0
4, 70080, Note_off_c, 2, 67, 0
4, 70080, Note_on_c, 2, 69, 59
4, 70080, Note_on_c, 2, 65, 59
4, 70560, Note_off_c, 2, 65, 0
4, 70560, Note_off_c, 2, 69, 0
4, 70560, Note_on_c, 2, 72, 57
4, 70560, Note_on_c, 2, 69, 57
4, 70560, Note_on_c, 2, 65, 57
4, 71040, Note_off_c, 2, 65, 0
4, 71040, Note_off_c, 2, 69, 0
4, 71040, Note_off_c, 2, 72, 0
4, 71040, Note_on_c, 2, 70, 56
4, 71040, Note_on_c, 2, 65, 56
4, 71400, Note_off_c, 2, 65, 0
4, 71400, Note_off_c, 2, 70, 0
4, 72000, Note_on_c, 2, 70, 52
4, 72000, Note_on_c, 2, 65, 52
4, 72480, Note_off_c, 2, 65, 0
4, 72480, Note_off_c, 2, 70, 0
4, 72480, Note_on_c, 2, 67, 50
4, 72480, Note_on_c, 2, 72, 50
4, 72960, Note_off_c, 2, 72, 0
4, 72960, Note_off_c, 2, 67, 0
4, 73200, Note_on_c, 2, 69, 47
4, 73200, Note_on_c, 2, 72, 47
4, 73440, Note_off_c, 2, 72, 0
4, 73440, Note_off_c, 2, 69, 0
4, 73440, Note_on_c, 2, 62, 47
4, 73440, Note_on_c, 2, 67, 47
4, 73920, Note_off_c, 2, 67, 0
4, 73920, Note_off_c, 2, 62, 0
4, 73920, Note_on_c, 2, 65, 45
4, 73920, Note_on_c, 2, 69, 45
4, 74400, Note_off_c, 2, 69, 0
4, 74400, Note_off_c, 2, 65, 0
4, 74400, Note_on_c, 2, 60, 43
4, 74400, Note_on_c, 2, 67, 43
4, 74400, Note_on_c, 2, 70, 43
4, 74880, Note_off_c, 2, 70, 0
4, 74880, Note_off_c, 2, 67, 0
4, 74880, Note_off_c, 2, 60, 0
4, 74880, Note_on_c, 2, 65, 41
4, 74880, Note_on_c, 2, 69, 41
4, 75240, Note_off_c, 2, 69, 0
4, 75240, Note_off_c, 2, 65, 0
4, 75600, Note_on_c, 2, 48, 44
4, 75600, Note_on_c, 2, 53, 44
4, 75720, Note_off_c, 2, 53, 0
4, 75720, Note_off_c, 2, 48, 0
4, 75840, Note_on_c, 2, 48, 47
4, 75840, Note_on_c, 2, 53, 47
4, 76032, Note_off_c, 2, 53, 0
4, 76032, Note_off_c, 2, 48, 0
4, 77520, Note_on_c, 2, 48, 50
4, 77520, Note_on_c, 2, 51, 50
4, 77640, Note_off_c, 2, 51, 0
4, 77640, Note_off_c, 2, 48, 0
4, 77760, Note_on_c, 2, 48, 53
4, 77760, Note_on_c, 2, 51, 53
4, 77952, Note_off_c, 2, 51, 0
4, 77952, Note_off_c, 2, 48, 0
4, 79440, Note_on_c, 2, 57, 78
4, 79520, Note_off_c, 2, 57, 0
4, 79520, Note_on_c, 2, 59, 78
4, 79600, Note_off_c, 2, 59, 0
4, 79600, Note_on_c, 2, 60, 79
4, 79680, Note_off_c, 2, 60, 0
4, 79680, Note_on_c, 2, 56, 79
4, 79800, Note_off_c, 2, 56, 0
4, 79920, Note_on_c, 2, 57, 80
4, 80000, Note_off_c, 2, 57, 0
4, 80000, Note_on_c, 2, 59, 81
4, 80080, Note_off_c, 2, 59, 0
4, 80080, Note_on_c, 2, 60, 81
4, 80160, Note_off_c, 2, 60, 0
4, 80160, Note_on_c, 2, 56, 81
4, 80280, Note_off_c, 2, 56, 0
4, 80400, Note_on_c, 2, 57, 83
4, 80480, Note_off_c, 2, 57, 0
4, 80480, Note_on_c, 2, 59, 83
4, 80560, Note_off_c, 2, 59, 0
4, 80560, Note_on_c, 2, 60, 83
4, 80640, Note_off_c, 2, 60, 0
4, 80640, Note_on_c, 2, 56, 79
4, 80880, Note_off_c, 2, 56, 0
4, 92240, Note_on_c, 2, 59, 57
4, 92320, Note_off_c, 2, 59, 0
4, 92320, Note_on_c, 2, 62, 57
4, 92400, Note_off_c, 2, 62, 0
4, 92400, Note_on_c, 2, 59, 57
4, 92480, Note_off_c, 2, 59, 0
4, 92480, Note_on_c, 2, 62, 57
4, 92560, Note_off_c, 2, 62, 0
4, 92560, Note_on_c, 2, 59, 57
4, 92640, Note_off_c, 2, 59, 0
4, 92720, Note_on_c, 2, 60, 56
4, 92800, Note_off_c, 2, 60, 0
4, 92800, Note_on_c, 2, 62, 56
4, 92880, Note_off_c, 2, 62, 0
4, 92880, Note_on_c, 2, 60, 56
4, 92960, Note_off_c, 2, 60, 0
4, 92960, Note_on_c, 2, 62, 56
4, 93040, Note_off_c, 2, 62, 0
4, 93040, Note_on_c, 2, 60, 56
4, 93120, Note_off_c, 2, 60, 0
4, 93200, Note_on_c, 2, 59, 55
4, 93280, Note_off_c, 2, 59, 0
4, 93280, Note_on_c, 2, 62, 55
4, 93360, Note_off_c, 2, 62, 0
4, 93360, Note_on_c, 2, 59, 55
4, 93440, Note_off_c, 2, 59, 0
4, 93440, Note_on_c, 2, 62, 55
4, 93520, Note_off_c, 2, 62, 0
4, 93520, Note_on_c, 2, 59, 55
4, 93600, Note_off_c, 2, 59, 0
4, 93680, Note_on_c, 2, 57, 54
4, 93760, Note_off_c, 2, 57, 0
4, 93760, Note_on_c, 2, 62, 54
4, 93840, Note_off_c, 2, 62, 0
4, 93840, Note_on_c, 2, 57, 54
4, 93920, Note_off_c, 2, 57, 0
4, 93920, Note_on_c, 2, 62, 54
4, 94000, Note_off_c, 2, 62, 0
4, 94000, Note_on_c, 2, 57, 54
4, 94080, Note_off_c, 2, 57, 0
4, 94160, Note_on_c, 2, 59, 53
4, 94240, Note_off_c, 2, 59, 0
4, 94240, Note_on_c, 2, 62, 53
4, 94320, Note_off_c, 2, 62, 0
4, 94320, Note_on_c, 2, 59, 53
4, 94400, Note_off_c, 2, 59, 0
4, 94400, Note_on_c, 2, 62, 53
4, 94480, Note_off_c, 2, 62, 0
4, 94480, Note_on_c, 2, 59, 52
4, 94560, Note_off_c, 2, 59, 0
4, 94640, Note_on_c, 2, 60, 52
4, 94720, Note_off_c, 2, 60, 0
4, 94720, Note_on_c, 2, 62, 52
4, 94800, Note_off_c, 2, 62, 0
4, 94800, Note_on_c, 2, 60, 52
4, 94880, Note_off_c, 2, 60, 0
4, 94880, Note_on_c, 2, 62, 52
4, 94960, Note_off_c, 2, 62, 0
4, 94960, Note_on_c, 2, 60, 51
4, 95040, Note_off_c, 2, 60, 0
4, 95120, Note_on_c, 2, 59, 51
4, 95200, Note_off_c, 2, 59, 0
4, 95200, Note_on_c, 2, 62, 51
4, 95280, Note_off_c, 2, 62, 0
4, 95280, Note_on_c, 2, 59, 51
4, 95360, Note_off_c, 2, 59, 0
4, 95360, Note_on_c, 2, 62, 50
4, 95440, Note_off_c, 2, 62, 0
4, 95440, Note_on_c, 2, 59, 50
4, 95520, Note_off_c, 2, 59, 0
4, 95600, Note_on_c, 2, 57, 50
4, 95680, Note_off_c, 2, 57, 0
4, 95680, Note_on_c, 2, 62, 50
4, 95760, Note_off_c, 2, 62, 0
4, 95760, Note_on_c, 2, 57, 50
4, 95840, Note_off_c, 2, 57, 0
4, 95840, Note_on_c, 2, 62, 49
4, 95920, Note_off_c, 2, 62, 0
4, 95920, Note_on_c, 2, 57, 49
4, 96000, Note_off_c, 2, 57, 0
4, 96080, Note_on_c, 2, 59, 49
4, 96160, Note_off_c, 2, 59, 0
4, 96160, Note_on_c, 2, 62, 49
4, 96240, Note_off_c, 2, 62, 0
4, 96240, Note_on_c, 2, 59, 48
4, 96320, Note_off_c, 2, 59, 0
4, 96320, Note_on_c, 2, 62, 48
4, 96400, Note_off_c, 2, 62, 0
4, 96400, Note_on_c, 2, 59, 48
4, 96480, Note_off_c, 2, 59, 0
4, 96560, Note_on_c, 2, 57, 48
4, 96640, Note_off_c, 2, 57, 0
4, 96640, Note_on_c, 2, 62, 48
4, 96720, Note_off_c, 2, 62, 0
4, 96720, Note_on_c, 2, 57, 47
4, 96800, Note_off_c, 2, 57, 0
4, 96800, Note_on_c, 2, 62, 47
4, 96880, Note_off_c, 2, 62, 0
4, 96880, Note_on_c, 2, 57, 47
4, 96960, Note_off_c, 2, 57, 0
4, 97040, Note_on_c, 2, 59, 47
4, 97120, Note_off_c, 2, 59, 0
4, 97120, Note_on_c, 2, 62, 46
4, 97200, Note_off_c, 2, 62, 0
4, 97200, Note_on_c, 2, 59, 46
4, 97280, Note_off_c, 2, 59, 0
4, 97280, Note_on_c, 2, 62, 46
4, 97360, Note_off_c, 2, 62, 0
4, 97360, Note_on_c, 2, 59, 46
4, 97440, Note_off_c, 2, 59, 0
4, 97520, Note_on_c, 2, 57, 46
4, 97600, Note_off_c, 2, 57, 0
4, 97600, Note_on_c, 2, 62, 45
4, 97680, Note_off_c, 2, 62, 0
4, 97680, Note_on_c, 2, 57, 45
4, 97760, Note_off_c, 2, 57, 0
4, 97760, Note_on_c, 2, 62, 45
4, 97840, Note_off_c, 2, 62, 0
4, 97840, Note_on_c, 2, 57, 45
4, 97920, Note_off_c, 2, 57, 0
4, 97920, Note_on_c, 2, 62, 45
4, 97920, Note_on_c, 2, 59, 45
4, 98160, Note_off_c, 2, 59, 0
4, 98160, Note_off_c, 2, 62, 0
4, 99840, Note_on_c, 2, 67, 52
4, 100200, Note_off_c, 2, 67, 0
4, 100320, Note_on_c, 2, 67, 48
4, 100440, Note_off_c, 2, 67, 0
4, 100560, Note_on_c, 2, 67, 47
4, 100680, Note_off_c, 2, 67, 0
4, 100800, Note_on_c, 2, 67, 50
4, 101160, Note_off_c, 2, 67, 0
4, 101280, Note_on_c, 2, 67, 46
4, 101400, Note_off_c, 2, 67, 0
4, 101520, Note_on_c, 2, 67, 45
4, 101640, Note_off_c, 2, 67, 0
4, 101760, Note_on_c, 2, 65, 47
4, 101880, Note_off_c, 2, 65, 0
4, 102240, Note_on_c, 2, 59, 43
4, 102240, Note_on_c, 2, 62, 43
4, 102360, Note_off_c, 2, 62, 0
4, 102360, Note_off_c, 2, 59, 0
4, 102720, Note_on_c, 2, 60, 42
4, 102720, Note_on_c, 2, 55, 42
4, 102720, Note_on_c, 2, 52, 42
4, 102876, Note_off_c, 2, 52, 0
4, 102876, Note_off_c, 2, 55, 0
4, 102876, Note_off_c, 2, 60, 0
4, 103440, Note_on_c, 2, 67, 91
4, 103560, Note_off_c, 2, 67, 0
4, 103680, Note_on_c, 2, 68, 95
4, 103920, Note_off_c, 2, 68, 0
4, 103920, Note_on_c, 2, 65, 90
4, 104040, Note_off_c, 2, 65, 0
4, 104160, Note_on_c, 2, 62, 90
4, 104280, Note_off_c, 2, 62, 0
4, 104400, Note_on_c, 2, 63, 89
4, 104520, Note_off_c, 2, 63, 0
4, 104640, Note_on_c, 2, 68, 94
4, 104880, Note_off_c, 2, 68, 0
4, 104880, Note_on_c, 2, 65, 88
4, 105000, Note_off_c, 2, 65, 0
4, 105120, Note_on_c, 2, 62, 87
4, 105240, Note_off_c, 2, 62, 0
4, 105360, Note_on_c, 2, 63, 87
4, 105480, Note_off_c, 2, 63, 0
4, 105600, Note_on_c, 2, 62, 93
4, 105600, Note_on_c, 2, 56, 93
4, 105720, Note_off_c, 2, 56, 0
4, 105720, Note_off_c, 2, 62, 0
4, 106080, Note_on_c, 2, 59, 88
4, 106080, Note_on_c, 2, 62, 88
4, 106200, Note_off_c, 2, 62, 0
4, 106200, Note_off_c, 2, 59, 0
4, 106560, Note_on_c, 2, 60, 82
4, 106680, Note_off_c, 2, 60, 0
4, 107520, Note_on_c, 2, 57, 47
4, 107520, Note_on_c, 2, 60, 47
4, 107640, Note_off_c, 2, 60, 0
4, 107640, Note_off_c, 2, 57, 0
4, 108480, Note_on_c, 2, 55, 48
4, 108600, Note_off_c, 2, 55, 0
4, 108720, Note_on_c, 2, 55, 50
4, 108840, Note_off_c, 2, 55, 0
4, 108960, Note_on_c, 2, 55, 51
4, 109080, Note_off_c, 2, 55, 0
4, 109200, Note_on_c, 2, 55, 53
4, 109320, Note_off_c, 2, 55, 0
4, 109440, Note_on_c, 2, 55, 55
4, 109560, Note_off_c, 2, 55, 0
4, 109680, Note_on_c, 2, 55, 57
4, 109800, Note_off_c, 2, 55, 0
4, 109920, Note_on_c, 2, 55, 59
4, 110040, Note_off_c, 2, 55, 0
4, 110160, Note_on_c, 2, 55, 60
4, 110280, Note_off_c, 2, 55, 0
4, 110400, Note_on_c, 2, 55, 62
4, 110520, Note_off_c, 2, 55, 0
4, 110640, Note_on_c, 2, 55, 64
4, 110760, Note_off_c, 2, 55, 0
4, 110880, Note_on_c, 2, 55, 66
4, 111000, Note_off_c, 2, 55, 0
4, 111120, Note_on_c, 2, 55, 67
4, 111240, Note_off_c, 2, 55, 0
4, 111360, Note_on_c, 2, 55, 69
4, 111480, Note_off_c, 2, 55, 0
4, 111600, Note_on_c, 2, 55, 71
4, 111720, Note_off_c, 2, 55, 0
4, 111840, Note_on_c, 2, 55, 73
4, 111960, Note_off_c, 2, 55, 0
4, 112080, Note_on_c, 2, 55, 75
4, 112200, Note_off_c, 2, 55, 0
4, 112320, Note_on_c, 2, 45, 76
4, 112320, Note_on_c, 2, 50, 76
4, 112440, Note_off_c, 2, 50, 0
4, 112440, Note_off_c, 2, 45, 0
4, 112800, Note_on_c, 2, 62, 80
4, 112800, Note_on_c, 2, 57, 80
4, 112920, Note_off_c, 2, 57, 0
4, 112920, Note_off_c, 2, 62, 0
4, 116240, Note_on_c, 2, 64, 50
4, 116320, Note_off_c, 2, 64, 0
4, 116320, Note_on_c, 2, 67, 50
4, 116400, Note_off_c, 2, 67, 0
4, 116480, Note_on_c, 2, 64, 51
4, 116560, Note_off_c, 2, 64, 0
4, 116560, Note_on_c, 2, 67, 51
4, 116640, Note_off_c, 2, 67, 0
4, 116720, Note_on_c, 2, 64, 52
4, 116800, Note_off_c, 2, 64, 0
4, 116800, Note_on_c, 2, 67, 52
4, 116880, Note_off_c, 2, 67, 0
4, 116960, Note_on_c, 2, 64, 53
4, 117040, Note_off_c, 2, 64, 0
4, 117040, Note_on_c, 2, 67, 53
4, 117120, Note_off_c, 2, 67, 0
4, 117200, Note_on_c, 2, 64, 50
4, 117280, Note_off_c, 2, 64, 0
4, 117280, Note_on_c, 2, 67, 50
4, 117360, Note_off_c, 2, 67, 0
4, 117440, Note_on_c, 2, 64, 51
4, 117520, Note_off_c, 2, 64, 0
4, 117520, Note_on_c, 2, 67, 51
4, 117600, Note_off_c, 2, 67, 0
4, 117680, Note_on_c, 2, 64, 52
4, 117760, Note_off_c, 2, 64, 0
4, 117760, Note_on_c, 2, 67, 52
4, 117840, Note_off_c, 2, 67, 0
4, 117920, Note_on_c, 2, 64, 53
4, 118000, Note_off_c, 2, 64, 0
4, 118000, Note_on_c, 2, 67, 53
4, 118080, Note_off_c, 2, 67, 0
4, 118080, Note_on_c, 2, 57, 54
4, 118160, Note_off_c, 2, 57, 0
4, 118160, Note_on_c, 2, 60, 54
4, 118240, Note_off_c, 2, 60, 0
4, 118240, Note_on_c, 2, 62, 54
4, 118320, Note_off_c, 2, 62, 0
4, 118320, Note_on_c, 2, 57, 55
4, 118400, Note_off_c, 2, 57, 0
4, 118400, Note_on_c, 2, 60, 55
4, 118480, Note_off_c, 2, 60, 0
4, 118480, Note_on_c, 2, 62, 55
4, 118560, Note_off_c, 2, 62, 0
4, 118560, Note_on_c, 2, 57, 75
4, 118640, Note_off_c, 2, 57, 0
4, 118640, Note_on_c, 2, 60, 75
4, 118720, Note_off_c, 2, 60, 0
4, 118720, Note_on_c, 2, 62, 75
4, 118800, Note_off_c, 2, 62, 0
4, 118800, Note_on_c, 2, 57, 74
4, 118880, Note_off_c, 2, 57, 0
4, 118880, Note_on_c, 2, 60, 74
4, 118960, Note_off_c, 2, 60, 0
4, 118960, Note_on_c, 2, 62, 74
4, 119040, Note_off_c, 2, 62, 0
4, 119120, Note_on_c, 2, 60, 73
4, 119200, Note_off_c, 2, 60, 0
4, 119200, Note_on_c, 2, 64, 73
4, 119280, Note_off_c, 2, 64, 0
4, 119360, Note_on_c, 2, 60, 72
4, 119440, Note_off_c, 2, 60, 0
4, 119440, Note_on_c, 2, 64, 72
4, 119520, Note_off_c, 2, 64, 0
4, 119600, Note_on_c, 2, 59, 71
4, 119680, Note_off_c, 2, 59, 0
4, 119680, Note_on_c, 2, 62, 71
4, 119760, Note_off_c, 2, 62, 0
4, 119840, Note_on_c, 2, 59, 70
4, 119920, Note_off_c, 2, 59, 0
4, 119920, Note_on_c, 2, 62, 70
4, 120000, Note_off_c, 2, 62, 0
4, 120060, Note_on_c, 2, 52, 65
4, 120120, Note_off_c, 2, 52, 0
4, 120120, Note_on_c, 2, 55, 63
4, 120180, Note_off_c, 2, 55, 0
4, 120180, Note_on_c, 2, 60, 61
4, 120240, Note_off_c, 2, 60, 0
4, 120300, Note_on_c, 2, 52, 57
4, 120360, Note_off_c, 2, 52, 0
4, 120360, Note_on_c, 2, 55, 55
4, 120420, Note_off_c, 2, 55, 0
4, 120420, Note_on_c, 2, 60, 53
4, 120480, Note_off_c, 2, 60, 0
4, 120540, Note_on_c, 2, 52, 46
4, 120600, Note_off_c, 2, 52, 0
4, 120600, Note_on_c, 2, 55, 46
4, 120660, Note_off_c, 2, 55, 0
4, 120660, Note_on_c, 2, 60, 46
4, 120720, Note_off_c, 2, 60, 0
4, 120780, Note_on_c, 2, 52, 47
4, 120840, Note_off_c, 2, 52, 0
4, 120840, Note_on_c, 2, 55, 47
4, 120900, Note_off_c, 2, 55, 0
4, 120900, Note_on_c, 2, 60, 47
4, 120960, Note_off_c, 2, 60, 0
4, 121020, Note_on_c, 2, 52, 48
4, 121080, Note_off_c, 2, 52, 0
4, 121080, Note_on_c, 2, 55, 48
4, 121140, Note_off_c, 2, 55, 0
4, 121140, Note_on_c, 2, 60, 48
4, 121200, Note_off_c, 2, 60, 0
4, 121260, Note_on_c, 2, 52, 49
4, 121320, Note_off_c, 2, 52, 0
4, 121320, Note_on_c, 2, 55, 49
4, 121380, Note_off_c, 2, 55, 0
4, 121380, Note_on_c, 2, 60, 49
4, 121440, Note_off_c, 2, 60, 0
4, 121520, Note_on_c, 2, 55, 50
4, 121600, Note_off_c, 2, 55, 0
4, 121600, Note_on_c, 2, 60, 50
4, 121680, Note_off_c, 2, 60, 0
4, 121760, Note_on_c, 2, 55, 51
4, 121840, Note_off_c, 2, 55, 0
4, 121840, Note_on_c, 2, 60, 51
4, 121920, Note_off_c, 2, 60, 0
4, 121980, Note_on_c, 2, 57, 52
4, 122040, Note_off_c, 2, 57, 0
4, 122040, Note_on_c, 2, 60, 52
4, 122100, Note_off_c, 2, 60, 0
4, 122100, Note_on_c, 2, 62, 52
4, 122160, Note_off_c, 2, 62, 0
4, 122220, Note_on_c, 2, 57, 53
4, 122280, Note_off_c, 2, 57, 0
4, 122280, Note_on_c, 2, 60, 53
4, 122340, Note_off_c, 2, 60, 0
4, 122340, Note_on_c, 2, 62, 53
4, 122400, Note_off_c, 2, 62, 0
4, 122460, Note_on_c, 2, 57, 69
4, 122520, Note_off_c, 2, 57, 0
4, 122520, Note_on_c, 2, 60, 69
4, 122580, Note_off_c, 2, 60, 0
4, 122580, Note_on_c, 2, 62, 69
4, 122640, Note_off_c, 2, 62, 0
4, 122700, Note_on_c, 2, 57, 69
4, 122760, Note_off_c, 2, 57, 0
4, 122760, Note_on_c, 2, 60, 69
4, 122820, Note_off_c, 2, 60, 0
4, 122820, Note_on_c, 2, 62, 69
4, 122880, Note_off_c, 2, 62, 0
4, 122960, Note_on_c, 2, 60, 69
4, 123040, Note_off_c, 2, 60, 0
4, 123040, Note_on_c, 2, 64, 69
4, 123120, Note_off_c, 2, 64, 0
4, 123200, Note_on_c, 2, 60, 69
4, 123280, Note_off_c, 2, 60, 0
4, 123280, Note_on_c, 2, 64, 69
4, 123360, Note_off_c, 2, 64, 0
4, 123440, Note_on_c, 2, 59, 68
4, 123520, Note_off_c, 2, 59, 0
4, 123520, Note_on_c, 2, 62, 68
4, 123600, Note_off_c, 2, 62, 0
4, 123680, Note_on_c, 2, 59, 68
4, 123760, Note_off_c, 2, 59, 0
4, 123760, Note_on_c, 2, 62, 68
4, 123840, Note_off_c, 2, 62, 0
4, 123900, Note_on_c, 2, 52, 68
4, 123960, Note_off_c, 2, 52, 0
4, 123960, Note_on_c, 2, 55, 68
4, 124020, Note_off_c, 2, 55, 0
4, 124020, Note_on_c, 2, 60, 68
4, 124080, Note_off_c, 2, 60, 0
4, 124140, Note_on_c, 2, 52, 68
4, 124200, Note_off_c, 2, 52, 0
4, 124200, Note_on_c, 2, 55, 68
4, 124260, Note_off_c, 2, 55, 0
4, 124260, Note_on_c, 2, 60, 68
4, 124320, Note_off_c, 2, 60, 0
4, 124400, Note_on_c, 2, 51, 69
4, 124480, Note_off_c, 2, 51, 0
4, 124480, Note_on_c, 2, 55, 70
4, 124560, Note_off_c, 2, 55, 0
4, 124640, Note_on_c, 2, 51, 73
4, 124720, Note_off_c, 2, 51, 0
4, 124720, Note_on_c, 2, 55, 75
4, 124800, Note_off_c, 2, 55, 0
4, 124860, Note_on_c, 2, 48, 77
4, 124920, Note_off_c, 2, 48, 0
4, 124920, Note_on_c, 2, 50, 78
4, 124980, Note_off_c, 2, 50, 0
4, 124980, Note_on_c, 2, 55, 80
4, 125040, Note_off_c, 2, 55, 0
4, 125100, Note_on_c, 2, 48, 82
4, 125160, Note_off_c, 2, 48, 0
4, 125160, Note_on_c, 2, 50, 83
4, 125220, Note_off_c, 2, 50, 0
4, 125220, Note_on_c, 2, 55, 84
4, 125280, Note_off_c, 2, 55, 0
4, 125340, Note_on_c, 2, 47, 86
4, 125400, Note_off_c, 2, 47, 0
4, 125400, Note_on_c, 2, 50, 86
4, 125460, Note_off_c, 2, 50, 0
4, 125460, Note_on_c, 2, 55, 87
4, 125520, Note_off_c, 2, 55, 0
4, 125580, Note_on_c, 2, 47, 89
4, 125640, Note_off_c, 2, 47, 0
4, 125640, Note_on_c, 2, 50, 90
4, 125700, Note_off_c, 2, 50, 0
4, 125700, Note_on_c, 2, 55, 91
4, 125760, Note_off_c, 2, 55, 0
4, 127680, Control_c, 2, 64, 0
4, 137520, Note_on_c, 2, 50, 44
4, 137520, Note_on_c, 2, 57, 44
4, 137520, Note_on_c, 2, 53, 44
4, 137760, Note_off_c, 2, 53, 0
4, 137760, Note_off_c, 2, 57, 0
4, 137760, Note_off_c, 2, 50, 0
4, 137760, Note_on_c, 2, 53, 45
4, 137760, Note_on_c, 2, 57, 45
4, 137760, Note_on_c, 2, 50, 45
4, 138000, Note_off_c, 2, 50, 0
4, 138000, Note_off_c, 2, 57, 0
4, 138000, Note_off_c, 2, 53, 0
4, 138000, Note_on_c, 2, 53, 47
4, 138000, Note_on_c, 2, 50, 47
4, 138000, Note_on_c, 2, 57, 47
4, 138240, Note_off_c, 2, 57, 0
4, 138240, Note_off_c, 2, 50, 0
4, 138240, Note_off_c, 2, 53, 0
4, 138480, Note_on_c, 2, 52, 49
4, 138480, Note_on_c, 2, 57, 49
4, 138480, Note_on_c, 2, 55, 49
4, 138720, Note_off_c, 2, 55, 0
4, 138720, Note_off_c, 2, 57, 0
4, 138720, Note_off_c, 2, 52, 0
4, 138720, Note_on_c, 2, 57, 51
4, 138720, Note_on_c, 2, 52, 51
4, 138720, Note_on_c, 2, 55, 51
4, 138960, Note_off_c, 2, 55, 0
4, 138960, Note_off_c, 2, 52, 0
4, 138960, Note_off_c, 2, 57, 0
4, 138960, Note_on_c, 2, 57, 52
4, 138960, Note_on_c, 2, 52, 52
4, 138960, Note_on_c, 2, 55, 52
4, 139200, Note_off_c, 2, 55, 0
4, 139200, Note_off_c, 2, 52, 0
4, 139200, Note_off_c, 2, 57, 0
4, 139440, Note_on_c, 2, 57, 54
4, 139440, Note_on_c, 2, 53, 54
4, 139680, Note_off_c, 2, 53, 0
4, 139680, Note_off_c, 2, 57, 0
4, 139680, Note_on_c, 2, 53, 56
4, 139680, Note_on_c, 2, 57, 56
4, 139920, Note_off_c, 2, 57, 0
4, 139920, Note_off_c, 2, 53, 0
4, 139920, Note_on_c, 2, 53, 57
4, 139920, Note_on_c, 2, 57, 57
4, 140160, Note_off_c, 2, 57, 0
4, 140160, Note_off_c, 2, 53, 0
4, 140400, Note_on_c, 2, 49, 60
4, 140400, Note_on_c, 2, 57, 60
4, 140640, Note_off_c, 2, 57, 0
4, 140640, Note_off_c, 2, 49, 0
4, 140640, Note_on_c, 2, 49, 60
4, 140640, Note_on_c, 2, 57, 60
4, 140880, Note_off_c, 2, 57, 0
4, 140880, Note_off_c, 2, 49, 0
4, 140880, Note_on_c, 2, 49, 62
4, 140880, Note_on_c, 2, 57, 62
4, 141120, Note_off_c, 2, 57, 0
4, 141120, Note_off_c, 2, 49, 0
4, 141360, Note_on_c, 2, 62, 66
4, 141516, Note_off_c, 2, 62, 0
4, 141840, Note_on_c, 2, 60, 70
4, 141996, Note_off_c, 2, 60, 0
4, 142320, Note_on_c, 2, 59, 73
4, 142476, Note_off_c, 2, 59, 0
4, 142800, Note_on_c, 2, 54, 77
4, 142956, Note_off_c, 2, 54, 0
4, 143040, Note_on_c, 2, 55, 79
4, 143196, Note_off_c, 2, 55, 0
4, 143280, Note_on_c, 2, 62, 40
4, 143280, Note_on_c, 2, 55, 40
4, 143280, Note_on_c, 2, 58, 40
4, 143520, Note_off_c, 2, 58, 0
4, 143520, Note_off_c, 2, 55, 0
4, 143520, Note_off_c, 2, 62, 0
4, 143520, Note_on_c, 2, 58, 40
4, 143520, Note_on_c, 2, 55, 40
4, 143520, Note_on_c, 2, 62, 40
4, 143760, Note_off_c, 2, 62, 0
4, 143760, Note_off_c, 2, 55, 0
4, 143760, Note_off_c, 2, 58, 0
4, 143760, Note_on_c, 2, 55, 41
4, 143760, Note_on_c, 2, 62, 41
4, 143760, Note_on_c, 2, 58, 41
4, 144000, Note_off_c, 2, 58, 0
4, 144000, Note_off_c, 2, 62, 0
4, 144000, Note_off_c, 2, 55, 0
4, 144240, Note_on_c, 2, 57, 42
4, 144240, Note_on_c, 2, 62, 42
4, 144240, Note_on_c, 2, 60, 42
4, 144480, Note_off_c, 2, 60, 0
4, 144480, Note_off_c, 2, 62, 0
4, 144480, Note_off_c, 2, 57, 0
4, 144480, Note_on_c, 2, 57, 43
4, 144480, Note_on_c, 2, 62, 43
4, 144480, Note_on_c, 2, 60, 43
4, 144720, Note_off_c, 2, 60, 0
4, 144720, Note_off_c, 2, 62, 0
4, 144720, Note_off_c, 2, 57, 0
4, 144720, Note_on_c, 2, 57, 43
4, 144720, Note_on_c, 2, 62, 43
4, 144720, Note_on_c, 2, 60, 43
4, 144960, Note_off_c, 2, 60, 0
4, 144960, Note_off_c, 2, 62, 0
4, 144960, Note_off_c, 2, 57, 0
4, 145200, Note_on_c, 2, 58, 44
4, 145200, Note_on_c, 2, 62, 44
4, 145440, Note_off_c, 2, 62, 0
4, 145440, Note_off_c, 2, 58, 0
4, 145440, Note_on_c, 2, 58, 45
4, 145440, Note_on_c, 2, 62, 45
4, 145680, Note_off_c, 2, 62, 0
4, 145680, Note_off_c, 2, 58, 0
4, 145680, Note_on_c, 2, 58, 45
4, 145680, Note_on_c, 2, 62, 45
4, 145920, Note_off_c, 2, 62, 0
4, 145920, Note_off_c, 2, 58, 0
4, 146160, Note_on_c, 2, 60, 47
4, 146160, Note_on_c, 2, 62, 47
4, 146400, Note_off_c, 2, 62, 0
4, 146400, Note_off_c, 2, 60, 0
4, 146400, Note_on_c, 2, 60, 47
4, 146400, Note_on_c, 2, 62, 47
4, 146640, Note_off_c, 2, 62, 0
4, 146640, Note_off_c, 2, 60, 0
4, 146640, Note_on_c, 2, 62, 47
4, 146640, Note_on_c, 2, 60, 47
4, 146880, Note_off_c, 2, 60, 0
4, 146880, Note_off_c, 2, 62, 0
4, 147120, Note_on_c, 2, 67, 54
4, 147276, Note_off_c, 2, 67, 0
4, 147600, Note_on_c, 2, 65, 63
4, 147756, Note_off_c, 2, 65, 0
4, 148080, Note_on_c, 2, 63, 73
4, 148236, Note_off_c, 2, 63, 0
4, 148560, Note_on_c, 2, 59, 82
4, 148716, Note_off_c, 2, 59, 0
4, 149040, Note_on_c, 2, 60, 93
4, 149196, Note_off_c, 2, 60, 0
4, 149520, Note_on_c, 2, 58, 88
4, 149676, Note_off_c, 2, 58, 0
4, 150000, Note_on_c, 2, 57, 83
4, 150156, Note_off_c, 2, 57, 0
4, 150480, Note_on_c, 2, 53, 78
4, 150636, Note_off_c, 2, 53, 0
4, 150960, Note_on_c, 2, 58, 44
4, 150960, Note_on_c, 2, 65, 44
4, 150960, Note_on_c, 2, 62, 44
4, 151200, Note_off_c, 2, 62, 0
4, 151200, Note_off_c, 2, 65, 0
4, 151200, Note_off_c, 2, 58, 0
4, 151200, Note_on_c, 2, 58, 45
4, 151200, Note_on_c, 2, 62, 45
4, 151200, Note_on_c, 2, 65, 45
4, 151440, Note_off_c, 2, 65, 0
4, 151440, Note_off_c, 2, 62, 0
4, 151440, Note_off_c, 2, 58, 0
4, 151440, Note_on_c, 2, 58, 45
4, 151440, Note_on_c, 2, 65, 45
4, 151440, Note_on_c, 2, 62, 45
4, 151680, Note_off_c, 2, 62, 0
4, 151680, Note_off_c, 2, 65, 0
4, 151680, Note_off_c, 2, 58, 0
4, 151920, Note_on_c, 2, 63, 47
4, 151920, Note_on_c, 2, 60, 47
4, 151920, Note_on_c, 2, 65, 47
4, 152160, Note_off_c, 2, 65, 0
4, 152160, Note_off_c, 2, 60, 0
4, 152160, Note_off_c, 2, 63, 0
4, 152160, Note_on_c, 2, 60, 48
4, 152160, Note_on_c, 2, 63, 48
4, 152160, Note_on_c, 2, 65, 48
4, 152400, Note_off_c, 2, 65, 0
4, 152400, Note_off_c, 2, 63, 0
4, 152400, Note_off_c, 2, 60, 0
4, 152400, Note_on_c, 2, 63, 49
4, 152400, Note_on_c, 2, 60, 49
4, 152400, Note_on_c, 2, 65, 49
4, 152640, Note_off_c, 2, 65, 0
4, 152640, Note_off_c, 2, 60, 0
4, 152640, Note_off_c, 2, 63, 0
4, 152880, Note_on_c, 2, 65, 53
4, 152880, Note_on_c, 2, 62, 53
4, 153120, Note_off_c, 2, 62, 0
4, 153120, Note_off_c, 2, 65, 0
4, 153120, Note_on_c, 2, 62, 56
4, 153120, Note_on_c, 2, 65, 56
4, 153360, Note_off_c, 2, 65, 0
4, 153360, Note_off_c, 2, 62, 0
4, 153360, Note_on_c, 2, 62, 59
4, 153360, Note_on_c, 2, 65, 59
4, 153600, Note_off_c, 2, 65, 0
4, 153600, Note_off_c, 2, 62, 0
4, 153840, Note_on_c, 2, 60, 62
4, 153840, Note_on_c, 2, 63, 62
4, 153840, Note_on_c, 2, 65, 62
4, 154080, Note_off_c, 2, 65, 0
4, 154080, Note_off_c, 2, 63, 0
4, 154080, Note_off_c, 2, 60, 0
4, 154080, Note_on_c, 2, 60, 62
4, 154080, Note_on_c, 2, 63, 62
4, 154080, Note_on_c, 2, 65, 62
4, 154320, Note_off_c, 2, 65, 0
4, 154320, Note_off_c, 2, 63, 0
4, 154320, Note_off_c, 2, 60, 0
4, 154320, Note_on_c, 2, 65, 62
4, 154320, Note_on_c, 2, 63, 62
4, 154320, Note_on_c, 2, 60, 62
4, 154560, Note_off_c, 2, 60, 0
4, 154560, Note_off_c, 2, 63, 0
4, 154560, Note_off_c, 2, 65, 0
4, 176400, Note_on_c, 2, 57, 44
4, 176520, Note_off_c, 2, 57, 0
4, 176640, Note_on_c, 2, 57, 47
4, 176832, Note_off_c, 2, 57, 0
4, 178320, Note_on_c, 2, 57, 42
4, 178440, Note_off_c, 2, 57, 0
4, 178560, Note_on_c, 2, 57, 44
4, 178752, Note_off_c, 2, 57, 0
4, 180480, Note_on_c, 2, 57, 42
4, 180480, Note_on_c, 2, 54, 42
4, 180960, Note_off_c, 2, 54, 0
4, 180960, Note_off_c, 2, 57, 0
4, 180960, Note_on_c, 2, 57, 46
4, 180960, Note_on_c, 2, 55, 46
4, 180960, Note_on_c, 2, 61, 46
4, 181440, Note_off_c, 2, 61, 0
4, 181440, Note_off_c, 2, 55, 0
4, 181440, Note_off_c, 2, 57, 0
4, 181440, Note_on_c, 2, 62, 49
4, 181440, Note_on_c, 2, 57, 49
4, 181920, Note_off_c, 2, 57, 0
4, 181920, Note_off_c, 2, 62, 0
4, 181920, Note_on_c, 2, 62, 53
4, 181920, Note_on_c, 2, 59, 53
4, 182400, Note_off_c, 2, 59, 0
4, 182400, Note_off_c, 2, 62, 0
4, 182400, Note_on_c, 2, 66, 57
4, 182400, Note_on_c, 2, 62, 57
4, 182400, Note_on_c, 2, 60, 57
4, 182880, Note_off_c, 2, 60, 0
4, 182880, Note_off_c, 2, 62, 0
4, 182880, Note_off_c, 2, 66, 0
4, 182880, Note_on_c, 2, 69, 56
4, 182880, Note_on_c, 2, 66, 56
4, 182880, Note_on_c, 2, 62, 56
4, 183360, Note_off_c, 2, 62, 0
4, 183360, Note_off_c, 2, 66, 0
4, 183360, Note_off_c, 2, 69, 0
4, 183360, Note_on_c, 2, 67, 55
4, 183360, Note_on_c, 2, 62, 55
4, 183720, Note_off_c, 2, 62, 0
4, 183720, Note_off_c, 2, 67, 0
4, 184320, Note_on_c, 2, 67, 53
4, 184320, Note_on_c, 2, 62, 53
4, 184800, Note_off_c, 2, 62, 0
4, 184800, Note_off_c, 2, 67, 0
4, 184800, Note_on_c, 2, 64, 52
4, 184800, Note_on_c, 2, 69, 52
4, 185280, Note_off_c, 2, 69, 0
4, 185280, Note_off_c, 2, 64, 0
4, 185520, Note_on_c, 2, 66, 50
4, 185520, Note_on_c, 2, 69, 50
4, 185760, Note_off_c, 2, 69, 0
4, 185760, Note_off_c, 2, 66, 0
4, 185760, Note_on_c, 2, 59, 50
4, 185760, Note_on_c, 2, 64, 50
4, 186240, Note_off_c, 2, 64, 0
4, 186240, Note_off_c, 2, 59, 0
4, 186240, Note_on_c, 2, 62, 48
4, 186240, Note_on_c, 2, 66, 48
4, 186720, Note_off_c, 2, 66, 0
4, 186720, Note_off_c, 2, 62, 0
4, 186720, Note_on_c, 2, 64, 47
4, 186720, Note_on_c, 2, 67, 47
4, 187200, Note_off_c, 2, 67, 0
4, 187200, Note_off_c, 2, 64, 0
4, 187200, Note_on_c, 2, 66, 46
4, 187560, Note_off_c, 2, 66, 0
4, 188880, Note_on_c, 2, 62, 35
4, 189000, Note_off_c, 2, 62, 0
4, 189120, Note_on_c, 2, 62, 35
4, 189312, Note_off_c, 2, 62, 0
4, 190800, Note_on_c, 2, 62, 31
4, 190920, Note_off_c, 2, 62, 0
4, 191040, Note_on_c, 2, 60, 31
4, 191232, Note_off_c, 2, 60, 0
4, 194880, Note_on_c, 2, 60, 38
4, 194880, Note_on_c, 2, 57, 38
4, 195360, Note_off_c, 2, 57, 0
4, 195360, Note_off_c, 2, 60, 0
4, 195360, Note_on_c, 2, 60, 41
4, 195360, Note_on_c, 2, 58, 41
4, 195840, Note_off_c, 2, 58, 0
4, 195840, Note_off_c, 2, 60, 0
4, 195840, Note_on_c, 2, 65, 44
4, 195840, Note_on_c, 2, 60, 44
4, 196320, Note_off_c, 2, 60, 0
4, 196320, Note_off_c, 2, 65, 0
4, 196320, Note_on_c, 2, 67, 47
4, 196320, Note_on_c, 2, 65, 47
4, 196320, Note_on_c, 2, 62, 47
4, 196800, Note_off_c, 2, 62, 0
4, 196800, Note_off_c, 2, 65, 0
4, 196800, Note_off_c, 2, 67, 0
4, 196800, Note_on_c, 2, 69, 49
4, 196800, Note_on_c, 2, 65, 49
4, 197280, Note_off_c, 2, 65, 0
4, 197280, Note_off_c, 2, 69, 0
4, 197280, Note_on_c, 2, 72, 53
4, 197280, Note_on_c, 2, 69, 53
4, 197280, Note_on_c, 2, 65, 53
4, 197760, Note_off_c, 2, 65, 0
4, 197760, Note_off_c, 2, 69, 0
4, 197760, Note_off_c, 2, 72, 0
4, 197760, Note_on_c, 2, 70, 51
4, 197760, Note_on_c, 2, 65, 51
4, 198120, Note_off_c, 2, 65, 0
4, 198120, Note_off_c, 2, 70, 0
4, 198720, Note_on_c, 2, 70, 48
4, 198720, Note_on_c, 2, 65, 48
4, 199200, Note_off_c, 2, 65, 0
4, 199200, Note_off_c, 2, 70, 0
4, 199200, Note_on_c, 2, 67, 47
4, 199200, Note_on_c, 2, 72, 47
4, 199680, Note_off_c, 2, 72, 0
4, 199680, Note_off_c, 2, 67, 0
4, 199920, Note_on_c, 2, 69, 45
4, 199920, Note_on_c, 2, 72, 45
4, 200160, Note_off_c, 2, 72, 0
4, 200160, Note_off_c, 2, 69, 0
4, 200160, Note_on_c, 2, 62, 44
4, 200160, Note_on_c, 2, 67, 44
4, 200640, Note_off_c, 2, 67, 0
4, 200640, Note_off_c, 2, 62, 0
4, 200640, Note_on_c, 2, 65, 43
4, 200640, Note_on_c, 2, 69, 43
4, 201120, Note_off_c, 2, 69, 0
4, 201120, Note_off_c, 2, 65, 0
4, 201120, Note_on_c, 2, 67, 42
4, 201120, Note_on_c, 2, 70, 42
4, 201360, Note_off_c, 2, 70, 0
4, 201360, Note_off_c, 2, 67, 0
4, 218960, Note_on_c, 2, 52, 52
4, 219040, Note_off_c, 2, 52, 0
4, 219040, Note_on_c, 2, 55, 50
4, 219120, Note_off_c, 2, 55, 0
4, 219120, Note_on_c, 2, 52, 48
4, 219200, Note_off_c, 2, 52, 0
4, 219200, Note_on_c, 2, 55, 46
4, 219280, Note_off_c, 2, 55, 0
4, 219280, Note_on_c, 2, 52, 42
4, 219360, Note_off_c, 2, 52, 0
4, 219440, Note_on_c, 2, 50, 41
4, 219520, Note_off_c, 2, 50, 0
4, 219520, Note_on_c, 2, 55, 41
4, 219600, Note_off_c, 2, 55, 0
4, 219600, Note_on_c, 2, 50, 41
4, 219680, Note_off_c, 2, 50, 0
4, 219680, Note_on_c, 2, 55, 41
4, 219760, Note_off_c, 2, 55, 0
4, 219760, Note_on_c, 2, 50, 41
4, 219840, Note_off_c, 2, 50, 0
4, 219920, Note_on_c, 2, 52, 40
4, 220000, Note_off_c, 2, 52, 0
4, 220000, Note_on_c, 2, 55, 40
4, 220080, Note_off_c, 2, 55, 0
4, 220080, Note_on_c, 2, 52, 40
4, 220160, Note_off_c, 2, 52, 0
4, 220160, Note_on_c, 2, 55, 40
4, 220240, Note_off_c, 2, 55, 0
4, 220240, Note_on_c, 2, 52, 40
4, 220320, Note_off_c, 2, 52, 0
4, 220400, Note_on_c, 2, 53, 40
4, 220480, Note_off_c, 2, 53, 0
4, 220480, Note_on_c, 2, 55, 40
4, 220560, Note_off_c, 2, 55, 0
4, 220560, Note_on_c, 2, 53, 39
4, 220640, Note_off_c, 2, 53, 0
4, 220640, Note_on_c, 2, 55, 39
4, 220720, Note_off_c, 2, 55, 0
4, 220720, Note_on_c, 2, 53, 39
4, 220800, Note_off_c, 2, 53, 0
4, 220880, Note_on_c, 2, 52, 39
4, 220960, Note_off_c, 2, 52, 0
4, 220960, Note_on_c, 2, 55, 39
4, 221040, Note_off_c, 2, 55, 0
4, 221040, Note_on_c, 2, 52, 39
4, 221120, Note_off_c, 2, 52, 0
4, 221120, Note_on_c, 2, 55, 38
4, 221200, Note_off_c, 2, 55, 0
4, 221200, Note_on_c, 2, 52, 38
4, 221280, Note_off_c, 2, 52, 0
4, 221360, Note_on_c, 2, 50, 38
4, 221440, Note_off_c, 2, 50, 0
4, 221440, Note_on_c, 2, 55, 38
4, 221520, Note_off_c, 2, 55, 0
4, 221520, Note_on_c, 2, 50, 38
4, 221600, Note_off_c, 2, 50, 0
4, 221600, Note_on_c, 2, 55, 38
4, 221680, Note_off_c, 2, 55, 0
4, 221680, Note_on_c, 2, 50, 38
4, 221760, Note_off_c, 2, 50, 0
4, 221840, Note_on_c, 2, 52, 37
4, 221920, Note_off_c, 2, 52, 0
4, 221920, Note_on_c, 2, 55, 37
4, 222000, Note_off_c, 2, 55, 0
4, 222000, Note_on_c, 2, 52, 37
4, 222080, Note_off_c, 2, 52, 0
4, 222080, Note_on_c, 2, 55, 37
4, 222160, Note_off_c, 2, 55, 0
4, 222160, Note_on_c, 2, 52, 37
4, 222240, Note_off_c, 2, 52, 0
4, 222320, Note_on_c, 2, 53, 36
4, 222400, Note_off_c, 2, 53, 0
4, 222400, Note_on_c, 2, 55, 36
4, 222480, Note_off_c, 2, 55, 0
4, 222480, Note_on_c, 2, 53, 36
4, 222560, Note_off_c, 2, 53, 0
4, 222560, Note_on_c, 2, 55, 36
4, 222640, Note_off_c, 2, 55, 0
4, 222640, Note_on_c, 2, 53, 36
4, 222720, Note_off_c, 2, 53, 0
4, 222800, Note_on_c, 2, 52, 36
4, 222880, Note_off_c, 2, 52, 0
4, 222880, Note_on_c, 2, 55, 36
4, 222960, Note_off_c, 2, 55, 0
4, 222960, Note_on_c, 2, 52, 35
4, 223040, Note_off_c, 2, 52, 0
4, 223040, Note_on_c, 2, 55, 35
4, 223120, Note_off_c, 2, 55, 0
4, 223120, Note_on_c, 2, 52, 35
4, 223200, Note_off_c, 2, 52, 0
4, 223280, Note_on_c, 2, 53, 35
4, 223360, Note_off_c, 2, 53, 0
4, 223360, Note_on_c, 2, 55, 35
4, 223440, Note_off_c, 2, 55, 0
4, 223440, Note_on_c, 2, 53, 35
4, 223520, Note_off_c, 2, 53, 0
4, 223520, Note_on_c, 2, 55, 34
4, 223600, Note_off_c, 2, 55, 0
4, 223600, Note_on_c, 2, 53, 34
4, 223680, Note_off_c, 2, 53, 0
4, 223760, Note_on_c, 2, 52, 34
4, 223840, Note_off_c, 2, 52, 0
4, 223840, Note_on_c, 2, 55, 34
4, 223920, Note_off_c, 2, 55, 0
4, 223920, Note_on_c, 2, 52, 34
4, 224000, Note_off_c, 2, 52, 0
4, 224000, Note_on_c, 2, 55, 34
4, 224080, Note_off_c, 2, 55, 0
4, 224080, Note_on_c, 2, 52, 34
4, 224160, Note_off_c, 2, 52, 0
4, 224240, Note_on_c, 2, 53, 33
4, 224320, Note_off_c, 2, 53, 0
4, 224320, Note_on_c, 2, 55, 33
4, 224400, Note_off_c, 2, 55, 0
4, 224400, Note_on_c, 2, 53, 33
4, 224480, Note_off_c, 2, 53, 0
4, 224480, Note_on_c, 2, 55, 33
4, 224560, Note_off_c, 2, 55, 0
4, 224560, Note_on_c, 2, 53, 33
4, 224640, Note_off_c, 2, 53, 0
4, 224640, Note_on_c, 2, 52, 33
4, 224640, Note_on_c, 2, 55, 33
4, 225120, Note_off_c, 2, 55, 0
4, 225120, Note_off_c, 2, 52, 0
4, 226560, Note_on_c, 2, 60, 43
4, 226920, Note_off_c, 2, 60, 0
4, 227040, Note_on_c, 2, 60, 40
4, 227160, Note_off_c, 2, 60, 0
4, 227280, Note_on_c, 2, 60, 38
4, 227400, Note_off_c, 2, 60, 0
4, 227520, Note_on_c, 2, 60, 43
4, 227880, Note_off_c, 2, 60, 0
4, 228000, Note_on_c, 2, 60, 39
4, 228120, Note_off_c, 2, 60, 0
4, 228240, Note_on_c, 2, 60, 36
4, 228360, Note_off_c, 2, 60, 0
4, 228480, Note_on_c, 2, 58, 39
4, 228600, Note_off_c, 2, 58, 0
4, 228960, Note_on_c, 2, 52, 37
4, 228960, Note_on_c, 2, 55, 37
4, 229080, Note_off_c, 2, 55, 0
4, 229080, Note_off_c, 2, 52, 0
4, 229440, Note_on_c, 2, 48, 36
4, 229440, Note_on_c, 2, 53, 36
4, 229632, Note_off_c, 2, 53, 0
4, 229632, Note_off_c, 2, 48, 0
4, 230160, Note_on_c, 2, 72, 95
4, 230280, Note_off_c, 2, 72, 0
4, 230400, Note_on_c, 2, 73, 94
4, 230640, Note_off_c, 2, 73, 0
4, 230640, Note_on_c, 2, 70, 88
4, 230760, Note_off_c, 2, 70, 0
4, 230880, Note_on_c, 2, 67, 85
4, 231000, Note_off_c, 2, 67, 0
4, 231120, Note_on_c, 2, 68, 83
4, 231240, Note_off_c, 2, 68, 0
4, 231360, Note_on_c, 2, 73, 88
4, 231600, Note_off_c, 2, 73, 0
4, 231600, Note_on_c, 2, 70, 81
4, 231720, Note_off_c, 2, 70, 0
4, 231840, Note_on_c, 2, 67, 80
4, 231960, Note_off_c, 2, 67, 0
4, 232080, Note_on_c, 2, 68, 78
4, 232200, Note_off_c, 2, 68, 0
4, 232320, Note_on_c, 2, 61, 82
4, 232320, Note_on_c, 2, 67, 82
4, 232440, Note_off_c, 2, 67, 0
4, 232440, Note_off_c, 2, 61, 0
4, 232800, Note_on_c, 2, 67, 79
4, 232800, Note_on_c, 2, 64, 79
4, 232920, Note_off_c, 2, 64, 0
4, 232920, Note_off_c, 2, 67, 0
4, 233280, Note_on_c, 2, 65, 76
4, 233400, Note_off_c, 2, 65, 0
4, 235200, Note_on_c, 2, 48, 43
4, 235320, Note_off_c, 2, 48, 0
4, 235440, Note_on_c, 2, 48, 45
4, 235560, Note_off_c, 2, 48, 0
4, 235680, Note_on_c, 2, 48, 48
4, 235800, Note_off_c, 2, 48, 0
4, 235920, Note_on_c, 2, 48, 50
4, 236040, Note_off_c, 2, 48, 0
4, 236160, Note_on_c, 2, 48, 52
4, 236280, Note_off_c, 2, 48, 0
4, 236400, Note_on_c, 2, 48, 55
4, 236520, Note_off_c, 2, 48, 0
4, 236640, Note_on_c, 2, 48, 57
4, 236760, Note_off_c, 2, 48, 0
4, 236880, Note_on_c, 2, 48, 59
4, 237000, Note_off_c, 2, 48, 0
4, 237120, Note_on_c, 2, 48, 62
4, 237240, Note_off_c, 2, 48, 0
4, 237360, Note_on_c, 2, 48, 64
4, 237480, Note_off_c, 2, 48, 0
4, 237600, Note_on_c, 2, 48, 66
4, 237720, Note_off_c, 2, 48, 0
4, 237840, Note_on_c, 2, 48, 69
4, 237960, Note_off_c, 2, 48, 0
4, 238080, Note_on_c, 2, 48, 71
4, 238200, Note_off_c, 2, 48, 0
4, 238320, Note_on_c, 2, 48, 73
4, 238440, Note_off_c, 2, 48, 0
4, 238560, Note_on_c, 2, 48, 76
4, 238680, Note_off_c, 2, 48, 0
4, 238800, Note_on_c, 2, 48, 78
4, 238920, Note_off_c, 2, 48, 0
4, 239040, Note_on_c, 2, 55, 79
4, 239040, Note_on_c, 2, 50, 79
4, 239280, Note_off_c, 2, 50, 0
4, 239280, Note_off_c, 2, 55, 0
4, 239520, Note_on_c, 2, 67, 79
4, 239520, Note_on_c, 2, 62, 79
4, 239760, Note_off_c, 2, 62, 0
4, 239760, Note_off_c, 2, 67, 0
4, 242400, Note_on_c, 2, 52, 80
4, 242400, Note_on_c, 2, 58, 80
4, 242400, Note_on_c, 2, 55, 80
4, 242640, Note_off_c, 2, 55, 0
4, 242640, Note_off_c, 2, 58, 0
4, 242640, Note_off_c, 2, 52, 0
4, 242880, Note_on_c, 2, 57, 76
4, 243000, Note_off_c, 2, 57, 0
4, 243120, Note_on_c, 2, 67, 95
4, 243600, Note_off_c, 2, 67, 0
4, 243600, Note_on_c, 2, 69, 85
4, 243720, Note_off_c, 2, 69, 0
4, 243720, Note_on_c, 2, 71, 84
4, 243840, Note_off_c, 2, 71, 0
4, 243840, Note_on_c, 2, 72, 82
4, 243840, Note_on_c, 2, 65, 82
4, 243840, Note_on_c, 2, 69, 82
4, 244080, Note_off_c, 2, 69, 0
4, 244080, Note_off_c, 2, 65, 0
4, 244080, Note_off_c, 2, 72, 0
4, 244320, Note_on_c, 2, 67, 77
4, 244320, Note_on_c, 2, 70, 77
4, 244560, Note_off_c, 2, 70, 0
4, 244560, Note_off_c, 2, 67, 0
4, 244880, Note_on_c, 2, 57, 72
4, 244960, Note_off_c, 2, 57, 0
4, 244960, Note_on_c, 2, 60, 66
4, 245040, Note_off_c, 2, 60, 0
4, 245120, Note_on_c, 2, 57, 53
4, 245200, Note_off_c, 2, 57, 0
4, 245200, Note_on_c, 2, 60, 47
4, 245280, Note_off_c, 2, 60, 0
4, 245360, Note_on_c, 2, 57, 44
4, 245440, Note_off_c, 2, 57, 0
4, 245440, Note_on_c, 2, 60, 44
4, 245520, Note_off_c, 2, 60, 0
4, 245600, Note_on_c, 2, 57, 46
4, 245680, Note_off_c, 2, 57, 0
4, 245680, Note_on_c, 2, 60, 46
4, 245760, Note_off_c, 2, 60, 0
4, 245840, Note_on_c, 2, 57, 46
4, 245920, Note_off_c, 2, 57, 0
4, 245920, Note_on_c, 2, 60, 46
4, 246000, Note_off_c, 2, 60, 0
4, 246080, Note_on_c, 2, 57, 46
4, 246160, Note_off_c, 2, 57, 0
4, 246160, Note_on_c, 2, 60, 46
4, 246240, Note_off_c, 2, 60, 0
4, 246320, Note_on_c, 2, 60, 46
4, 246400, Note_off_c, 2, 60, 0
4, 246400, Note_on_c, 2, 65, 46
4, 246480, Note_off_c, 2, 65, 0
4, 246560, Note_on_c, 2, 60, 46
4, 246640, Note_off_c, 2, 60, 0
4, 246640, Note_on_c, 2, 65, 46
4, 246720, Note_off_c, 2, 65, 0
4, 246720, Note_on_c, 2, 62, 46
4, 246800, Note_off_c, 2, 62, 0
4, 246800, Note_on_c, 2, 65, 46
4, 246880, Note_off_c, 2, 65, 0
4, 246880, Note_on_c, 2, 67, 46
4, 246960, Note_off_c, 2, 67, 0
4, 246960, Note_on_c, 2, 62, 46
4, 246960, Note_on_c, 2, 65, 46
4, 247040, Note_off_c, 2, 65, 0
4, 247040, Note_off_c, 2, 62, 0
4, 247040, Note_on_c, 2, 65, 46
4, 247120, Note_off_c, 2, 65, 0
4, 247120, Note_on_c, 2, 67, 46
4, 247200, Note_off_c, 2, 67, 0
4, 247200, Note_on_c, 2, 62, 62
4, 247280, Note_off_c, 2, 62, 0
4, 247280, Note_on_c, 2, 65, 61
4, 247360, Note_off_c, 2, 65, 0
4, 247360, Note_on_c, 2, 67, 61
4, 247440, Note_off_c, 2, 67, 0
4, 247440, Note_on_c, 2, 62, 60
4, 247520, Note_off_c, 2, 62, 0
4, 247520, Note_on_c, 2, 65, 60
4, 247600, Note_off_c, 2, 65, 0
4, 247600, Note_on_c, 2, 67, 60
4, 247680, Note_off_c, 2, 67, 0
4, 247760, Note_on_c, 2, 65, 59
4, 247840, Note_off_c, 2, 65, 0
4, 247840, Note_on_c, 2, 69, 58
4, 247920, Note_off_c, 2, 69, 0
4, 248000, Note_on_c, 2, 65, 58
4, 248080, Note_off_c, 2, 65, 0
4, 248080, Note_on_c, 2, 69, 57
4, 248160, Note_off_c, 2, 69, 0
4, 248240, Note_on_c, 2, 64, 56
4, 248320, Note_off_c, 2, 64, 0
4, 248320, Note_on_c, 2, 67, 56
4, 248400, Note_off_c, 2, 67, 0
4, 248480, Note_on_c, 2, 64, 55
4, 248560, Note_off_c, 2, 64, 0
4, 248560, Note_on_c, 2, 67, 55
4, 248640, Note_off_c, 2, 67, 0
4, 248700, Note_on_c, 2, 57, 56
4, 248760, Note_off_c, 2, 57, 0
4, 248760, Note_on_c, 2, 60, 56
4, 248820, Note_off_c, 2, 60, 0
4, 248820, Note_on_c, 2, 65, 56
4, 248880, Note_off_c, 2, 65, 0
4, 248940, Note_on_c, 2, 57, 56
4, 249000, Note_off_c, 2, 57, 0
4, 249000, Note_on_c, 2, 60, 56
4, 249060, Note_off_c, 2, 60, 0
4, 249060, Note_on_c, 2, 65, 57
4, 249120, Note_off_c, 2, 65, 0
4, 249180, Note_on_c, 2, 57, 57
4, 249240, Note_off_c, 2, 57, 0
4, 249240, Note_on_c, 2, 60, 57
4, 249300, Note_off_c, 2, 60, 0
4, 249300, Note_on_c, 2, 65, 57
4, 249360, Note_off_c, 2, 65, 0
4, 249420, Note_on_c, 2, 57, 57
4, 249480, Note_off_c, 2, 57, 0
4, 249480, Note_on_c, 2, 60, 58
4, 249540, Note_off_c, 2, 60, 0
4, 249540, Note_on_c, 2, 65, 58
4, 249600, Note_off_c, 2, 65, 0
4, 249660, Note_on_c, 2, 57, 58
4, 249720, Note_off_c, 2, 57, 0
4, 249720, Note_on_c, 2, 60, 58
4, 249780, Note_off_c, 2, 60, 0
4, 249780, Note_on_c, 2, 65, 58
4, 249840, Note_off_c, 2, 65, 0
4, 249900, Note_on_c, 2, 57, 59
4, 249960, Note_off_c, 2, 57, 0
4, 249960, Note_on_c, 2, 60, 59
4, 250020, Note_off_c, 2, 60, 0
4, 250020, Note_on_c, 2, 65, 59
4, 250080, Note_off_c, 2, 65, 0
4, 250160, Note_on_c, 2, 60, 59
4, 250240, Note_off_c, 2, 60, 0
4, 250240, Note_on_c, 2, 65, 59
4, 250320, Note_off_c, 2, 65, 0
4, 250400, Note_on_c, 2, 60, 60
4, 250480, Note_off_c, 2, 60, 0
4, 250480, Note_on_c, 2, 65, 60
4, 250560, Note_off_c, 2, 65, 0
4, 250620, Note_on_c, 2, 62, 60
4, 250680, Note_off_c, 2, 62, 0
4, 250680, Note_on_c, 2, 65, 60
4, 250740, Note_off_c, 2, 65, 0
4, 250740, Note_on_c, 2, 67, 61
4, 250800, Note_off_c, 2, 67, 0
4, 250860, Note_on_c, 2, 62, 61
4, 250920, Note_off_c, 2, 62, 0
4, 250920, Note_on_c, 2, 65, 61
4, 250980, Note_off_c, 2, 65, 0
4, 250980, Note_on_c, 2, 67, 61
4, 251040, Note_off_c, 2, 67, 0
4, 251100, Note_on_c, 2, 62, 71
4, 251160, Note_off_c, 2, 62, 0
4, 251160, Note_on_c, 2, 65, 71
4, 251220, Note_off_c, 2, 65, 0
4, 251220, Note_on_c, 2, 67, 71
4, 251280, Note_off_c, 2, 67, 0
4, 251340, Note_on_c, 2, 62, 71
4, 251400, Note_off_c, 2, 62, 0
4, 251400, Note_on_c, 2, 65, 70
4, 251460, Note_off_c, 2, 65, 0
4, 251460, Note_on_c, 2, 67, 70
4, 251520, Note_off_c, 2, 67, 0
4, 251600, Note_on_c, 2, 65, 70
4, 251680, Note_off_c, 2, 65, 0
4, 251680, Note_on_c, 2, 69, 70
4, 251760, Note_off_c, 2, 69, 0
4, 251840, Note_on_c, 2, 65, 69
4, 251920, Note_off_c, 2, 65, 0
4, 251920, Note_on_c, 2, 69, 69
4, 252000, Note_off_c, 2, 69, 0
4, 252080, Note_on_c, 2, 64, 69
4, 252160, Note_off_c, 2, 64, 0
4, 252160, Note_on_c, 2, 67, 68
4, 252240, Note_off_c, 2, 67, 0
4, 252320, Note_on_c, 2, 64, 68
4, 252400, Note_off_c, 2, 64, 0
4, 252400, Note_on_c, 2, 67, 68
4, 252480, Note_off_c, 2, 67, 0
4, 252540, Note_on_c, 2, 57, 69
4, 252600, Note_off_c, 2, 57, 0
4, 252600, Note_on_c, 2, 60, 69
4, 252660, Note_off_c, 2, 60, 0
4, 252660, Note_on_c, 2, 65, 70
4, 252720, Note_off_c, 2, 65, 0
4, 252780, Note_on_c, 2, 57, 71
4, 252840, Note_off_c, 2, 57, 0
4, 252840, Note_on_c, 2, 60, 71
4, 252900, Note_off_c, 2, 60, 0
4, 252900, Note_on_c, 2, 65, 72
4, 252960, Note_off_c, 2, 65, 0
4, 253040, Note_on_c, 2, 56, 73
4, 253120, Note_off_c, 2, 56, 0
4, 253120, Note_on_c, 2, 60, 73
4, 253200, Note_off_c, 2, 60, 0
4, 253280, Note_on_c, 2, 56, 75
4, 253360, Note_off_c, 2, 56, 0
4, 253360, Note_on_c, 2, 60, 75
4, 253440, Note_off_c, 2, 60, 0
4, 253500, Note_on_c, 2, 53, 76
4, 253560, Note_off_c, 2, 53, 0
4, 253560, Note_on_c, 2, 55, 77
4, 253620, Note_off_c, 2, 55, 0
4, 253620, Note_on_c, 2, 60, 77
4, 253680, Note_off_c, 2, 60, 0
4, 253740, Note_on_c, 2, 53, 78
4, 253800, Note_off_c, 2, 53, 0
4, 253800, Note_on_c, 2, 55, 78
4, 253860, Note_off_c, 2, 55, 0
4, 253860, Note_on_c, 2, 60, 79
4, 253920, Note_off_c, 2, 60, 0
4, 253980, Note_on_c, 2, 52, 80
4, 254040, Note_off_c, 2, 52, 0
4, 254040, Note_on_c, 2, 55, 80
4, 254100, Note_off_c, 2, 55, 0
4, 254100, Note_on_c, 2, 60, 81
4, 254160, Note_off_c, 2, 60, 0
4, 254220, Note_on_c, 2, 52, 81
4, 254280, Note_off_c, 2, 52, 0
4, 254280, Note_on_c, 2, 55, 82
4, 254340, Note_off_c, 2, 55, 0
4, 254340, Note_on_c, 2, 60, 82
4, 254400, Note_off_c, 2, 60, 0
4, 254460, Note_on_c, 2, 45, 83
4, 254520, Note_off_c, 2, 45, 0
4, 254520, Note_on_c, 2, 48, 84
4, 254580, Note_off_c, 2, 48, 0
4, 254580, Note_on_c, 2, 53, 84
4, 254640, Note_off_c, 2, 53, 0
4, 254700, Note_on_c, 2, 45, 85
4, 254760, Note_off_c, 2, 45, 0
4, 254760, Note_on_c, 2, 48, 85
4, 254820, Note_off_c, 2, 48, 0
4, 254820, Note_on_c, 2, 53, 86
4, 254880, Note_off_c, 2, 53, 0
4, 254960, Note_on_c, 2, 44, 87
4, 255040, Note_off_c, 2, 44, 0
4, 255040, Note_on_c, 2, 48, 88
4, 255120, Note_off_c, 2, 48, 0
4, 255200, Note_on_c, 2, 44, 89
4, 255280, Note_off_c, 2, 44, 0
4, 255280, Note_on_c, 2, 48, 89
4, 255360, Note_off_c, 2, 48, 0
4, 255420, Note_on_c, 2, 41, 90
4, 255480, Note_off_c, 2, 41, 0
4, 255480, Note_on_c, 2, 43, 91
4, 255540, Note_off_c, 2, 43, 0
4, 255540, Note_on_c, 2, 48, 91
4, 255600, Note_off_c, 2, 48, 0
4, 255660, Note_on_c, 2, 41, 92
4, 255720, Note_off_c, 2, 41, 0
4, 255720, Note_on_c, 2, 43, 93
4, 255780, Note_off_c, 2, 43, 0
4, 255780, Note_on_c, 2, 48, 93
4, 255840, Note_off_c, 2, 48, 0
4, 255900, Note_on_c, 2, 40, 93
4, 255960, Note_off_c, 2, 40, 0
4, 255960, Note_on_c, 2, 43, 94
4, 256020, Note_off_c, 2, 43, 0
4, 256020, Note_on_c, 2, 48, 95
4, 256080, Note_off_c, 2, 48, 0
4, 256140, Note_on_c, 2, 40, 97
4, 256200, Note_off_c, 2, 40, 0
4, 256200, Note_on_c, 2, 43, 99
4, 256260, Note_off_c, 2, 43, 0
4, 256260, Note_on_c, 2, 48, 100
4, 256320, Note_off_c, 2, 48, 0
4, 258720, Control_c, 2, 64, 0
4, 259200, Control_c, 2, 64, 0
4, 266400, Note_on_c, 2, 58, 59
4, 266880, Note_off_c, 2, 58, 0
4, 266880, Note_on_c, 2, 60, 63
4, 267840, Note_off_c, 2, 60, 0
4, 270720, Control_c, 2, 64, 0
4, 270720, Control_c, 2, 7, 102
4, 277920, Note_on_c, 2, 58, 59
4, 278400, Note_off_c, 2, 58, 0
4, 278400, Note_on_c, 2, 60, 63
4, 279360, Note_off_c, 2, 60, 0
4, 282240, Control_c, 2, 64, 0
4, 282240, Control_c, 2, 7, 112
4, 283680, Note_on_c, 2, 60, 51
4, 283920, Note_off_c, 2, 60, 0
4, 284160, Note_on_c, 2, 61, 45
4, 285120, Note_off_c, 2, 61, 0
4, 285120, Note_on_c, 2, 61, 56
4, 285360, Note_off_c, 2, 61, 0
4, 285600, Note_on_c, 2, 61, 49
4, 286560, Note_off_c, 2, 61, 0
4, 286560, Note_on_c, 2, 61, 58
4, 286800, Note_off_c, 2, 61, 0
4, 287040, Note_on_c, 2, 63, 52
4, 288000, Note_off_c, 2, 63, 0
4, 288000, Note_on_c, 2, 63, 62
4, 288240, Note_off_c, 2, 63, 0
4, 288480, Note_on_c, 2, 63, 56
4, 289440, Note_off_c, 2, 63, 0
4, 289440, Note_on_c, 2, 63, 67
4, 289680, Note_off_c, 2, 63, 0
4, 289920, Note_on_c, 2, 65, 59
4, 290880, Note_off_c, 2, 65, 0
4, 290880, Note_on_c, 2, 65, 68
4, 291120, Note_off_c, 2, 65, 0
4, 291360, Note_on_c, 2, 65, 63
4, 292320, Note_off_c, 2, 65, 0
4, 292320, Note_on_c, 2, 65, 72
4, 292560, Note_off_c, 2, 65, 0
4, 292800, Note_on_c, 2, 64, 64
4, 293520, Note_off_c, 2, 64, 0
4, 312960, Note_on_c, 2, 53, 39
4, 313440, Note_off_c, 2, 53, 0
4, 314400, Note_on_c, 2, 58, 47
4, 315360, Note_off_c, 2, 58, 0
4, 315360, Note_on_c, 2, 56, 57
4, 315840, Note_off_c, 2, 56, 0
4, 315840, Note_on_c, 2, 58, 62
4, 315840, Note_on_c, 2, 55, 62
4, 316800, Note_off_c, 2, 55, 0
4, 316800, Note_off_c, 2, 58, 0
4, 316800, Note_on_c, 2, 53, 74
4, 316800, Note_on_c, 2, 56, 74
4, 317280, Note_off_c, 2, 56, 0
4, 317280, Note_off_c, 2, 53, 0
4, 317280, Note_on_c, 2, 55, 87
4, 317280, Note_on_c, 2, 52, 87
4, 317280, Note_on_c, 2, 60, 87
4, 318720, Note_off_c, 2, 60, 0
4, 318720, Note_off_c, 2, 52, 0
4, 318720, Note_off_c, 2, 55, 0
4, 318720, Note_on_c, 2, 60, 47
4, 318720, Note_on_c, 2, 56, 47
4, 319200, Note_off_c, 2, 56, 0
4, 319200, Note_off_c, 2, 60, 0
4, 320160, Note_on_c, 2, 67, 55
4, 320160, Note_on_c, 2, 70, 55
4, 321120, Note_off_c, 2, 70, 0
4, 321120, Note_off_c, 2, 67, 0
4, 321120, Note_on_c, 2, 68, 66
4, 321120, Note_on_c, 2, 65, 66
4, 321600, Note_off_c, 2, 65, 0
4, 321600, Note_off_c, 2, 68, 0
4, 321600, Note_on_c, 2, 67, 71
4, 321600, Note_on_c, 2, 64, 71
4, 322080, Note_off_c, 2, 64, 0
4, 322080, Note_off_c, 2, 67, 0
4, 322560, Note_on_c, 2, 60, 87
4, 322800, Note_off_c, 2, 60, 0
4, 323040, Note_on_c, 2, 53, 95
4, 323280, Note_off_c, 2, 53, 0
4, 324000, Note_on_c, 2, 49, 30
4, 324360, Note_off_c, 2, 49, 0
4, 324480, Note_on_c, 2, 49, 31
4, 325200, Note_off_c, 2, 49, 0
4, 325440, Note_on_c, 2, 49, 34
4, 325800, Note_off_c, 2, 49, 0
4, 325920, Note_on_c, 2, 49, 35
4, 326640, Note_off_c, 2, 49, 0
4, 326880, Note_on_c, 2, 49, 37
4, 327240, Note_off_c, 2, 49, 0
4, 327360, Note_on_c, 2, 49, 43
4, 330240, Note_off_c, 2, 49, 0
4, 330240, Note_on_c, 2, 48, 34
4, 330960, Note_off_c, 2, 48, 0
4, 331200, Note_on_c, 2, 48, 38
4, 331560, Note_off_c, 2, 48, 0
4, 331680, Note_on_c, 2, 48, 41
4, 332400, Note_off_c, 2, 48, 0
4, 332640, Note_on_c, 2, 48, 47
4, 333000, Note_off_c, 2, 48, 0
4, 333120, Note_on_c, 2, 49, 51
4, 335040, Note_off_c, 2, 49, 0
4, 336000, Note_on_c, 2, 56, 43
4, 336720, Note_off_c, 2, 56, 0
4, 336960, Note_on_c, 2, 56, 49
4, 337320, Note_off_c, 2, 56, 0
4, 337440, Note_on_c, 2, 56, 52
4, 338160, Note_off_c, 2, 56, 0
4, 338400, Note_on_c, 2, 56, 58
4, 338760, Note_off_c, 2, 56, 0
4, 338880, Note_on_c, 2, 51, 73
4, 338880, Note_on_c, 2, 56, 73
4, 340320, Note_off_c, 2, 56, 0
4, 340320, Note_off_c, 2, 51, 0
4, 340320, Note_on_c, 2, 55, 60
4, 340320, Note_on_c, 2, 51, 60
4, 341280, Note_off_c, 2, 51, 0
4, 341280, Note_off_c, 2, 55, 0
4, 341280, Note_on_c, 2, 56, 57
4, 341280, Note_on_c, 2, 51, 57
4, 341640, Note_off_c, 2, 51, 0
4, 341640, Note_off_c, 2, 56, 0
4, 341760, Note_on_c, 2, 58, 56
4, 341760, Note_on_c, 2, 53, 56
4, 342720, Note_off_c, 2, 53, 0
4, 342720, Note_off_c, 2, 58, 0
4, 342720, Note_on_c, 2, 53, 52
4, 342720, Note_on_c, 2, 59, 52
4, 343080, Note_off_c, 2, 59, 0
4, 343080, Note_off_c, 2, 53, 0
4, 343200, Note_on_c, 2, 60, 51
4, 344160, Note_off_c, 2, 60, 0
4, 344160, Note_on_c, 2, 58, 48
4, 344520, Note_off_c, 2, 58, 0
4, 344640, Note_on_c, 2, 55, 46
4, 345600, Note_on_c, 2, 51, 43
4, 346080, Note_off_c, 2, 55, 0
4, 346080, Note_on_c, 2, 56, 41
4, 346440, Note_off_c, 2, 56, 0
4, 346560, Note_off_c, 2, 51, 0
4, 348000, Note_on_c, 2, 49, 40
4, 348240, Note_off_c, 2, 49, 0
4, 349440, Note_on_c, 2, 49, 45
4, 349680, Note_off_c, 2, 49, 0
4, 370080, Note_on_c, 2, 56, 30
4, 370080, Note_on_c, 2, 59, 30
4, 370440, Note_off_c, 2, 59, 0
4, 370440, Note_off_c, 2, 56, 0
4, 370560, Note_on_c, 2, 56, 32
4, 370560, Note_on_c, 2, 59, 32
4, 371280, Note_off_c, 2, 59, 0
4, 371280, Note_off_c, 2, 56, 0
4, 371520, Note_on_c, 2, 56, 35
4, 371520, Note_on_c, 2, 59, 35
4, 371880, Note_off_c, 2, 59, 0
4, 371880, Note_off_c, 2, 56, 0
4, 372000, Note_on_c, 2, 53, 37
4, 372000, Note_on_c, 2, 56, 37
4, 372000, Note_on_c, 2, 59, 37
4, 372720, Note_off_c, 2, 59, 0
4, 372720, Note_off_c, 2, 56, 0
4, 372720, Note_off_c, 2, 53, 0
4, 372960, Note_on_c, 2, 53, 40
4, 372960, Note_on_c, 2, 56, 40
4, 372960, Note_on_c, 2, 59, 40
4, 373320, Note_off_c, 2, 59, 0
4, 373320, Note_off_c, 2, 56, 0
4, 373320, Note_off_c, 2, 53, 0
4, 373440, Note_on_c, 2, 53, 44
4, 373440, Note_on_c, 2, 59, 44
4, 373440, Note_on_c, 2, 56, 44
4, 374880, Note_off_c, 2, 56, 0
4, 374880, Note_off_c, 2, 59, 0
4, 374880, Note_on_c, 2, 58, 33
4, 374880, Note_on_c, 2, 56, 33
4, 375240, Note_off_c, 2, 56, 0
4, 375240, Note_off_c, 2, 58, 0
4, 375240, Note_off_c, 2, 53, 0
4, 376320, Note_on_c, 2, 54, 37
4, 376320, Note_on_c, 2, 58, 37
4, 377040, Note_off_c, 2, 58, 0
4, 377040, Note_off_c, 2, 54, 0
4, 377280, Note_on_c, 2, 58, 42
4, 377280, Note_on_c, 2, 54, 42
4, 377640, Note_off_c, 2, 54, 0
4, 377640, Note_off_c, 2, 58, 0
4, 377760, Note_on_c, 2, 51, 44
4, 377760, Note_on_c, 2, 54, 44
4, 377760, Note_on_c, 2, 57, 44
4, 378480, Note_off_c, 2, 57, 0
4, 378480, Note_off_c, 2, 54, 0
4, 378480, Note_off_c, 2, 51, 0
4, 378720, Note_on_c, 2, 51, 49
4, 378720, Note_on_c, 2, 57, 49
4, 378720, Note_on_c, 2, 54, 49
4, 379080, Note_off_c, 2, 54, 0
4, 379080, Note_off_c, 2, 57, 0
4, 379080, Note_off_c, 2, 51, 0
4, 379200, Note_on_c, 2, 51, 54
4, 379200, Note_on_c, 2, 57, 54
4, 379200, Note_on_c, 2, 54, 54
4, 380640, Note_off_c, 2, 57, 0
4, 380640, Note_on_c, 2, 56, 44
4, 381000, Note_off_c, 2, 56, 0
4, 381000, Note_off_c, 2, 54, 0
4, 381000, Note_off_c, 2, 51, 0
4, 393600, Note_on_c, 2, 52, 36
4, 394320, Note_off_c, 2, 52, 0
4, 394560, Note_on_c, 2, 52, 39
4, 394920, Note_off_c, 2, 52, 0
4, 395040, Note_on_c, 2, 52, 40
4, 395760, Note_off_c, 2, 52, 0
4, 396000, Note_on_c, 2, 52, 43
4, 396360, Note_off_c, 2, 52, 0
4, 396480, Note_on_c, 2, 52, 46
4, 397920, Note_off_c, 2, 52, 0
4, 397920, Note_on_c, 2, 53, 41
4, 398280, Note_off_c, 2, 53, 0
4, 399360, Note_on_c, 2, 54, 39
4, 400080, Note_off_c, 2, 54, 0
4, 400320, Note_on_c, 2, 54, 38
4, 400680, Note_off_c, 2, 54, 0
4, 400800, Note_on_c, 2, 54, 38
4, 401520, Note_off_c, 2, 54, 0
4, 401760, Note_on_c, 2, 54, 37
4, 402120, Note_off_c, 2, 54, 0
4, 402240, Note_on_c, 2, 53, 36
4, 402600, Note_off_c, 2, 53, 0
4, 404640, Note_on_c, 2, 56, 34
4, 404640, Note_on_c, 2, 59, 34
4, 405000, Note_off_c, 2, 59, 0
4, 405000, Note_off_c, 2, 56, 0
4, 405120, Note_on_c, 2, 56, 35
4, 405120, Note_on_c, 2, 59, 35
4, 405840, Note_off_c, 2, 59, 0
4, 405840, Note_off_c, 2, 56, 0
4, 406080, Note_on_c, 2, 56, 37
4, 406080, Note_on_c, 2, 59, 37
4, 406440, Note_off_c, 2, 59, 0
4, 406440, Note_off_c, 2, 56, 0
4, 406560, Note_on_c, 2, 53, 38
4, 406560, Note_on_c, 2, 59, 38
4, 406560, Note_on_c, 2, 56, 38
4, 407280, Note_off_c, 2, 56, 0
4, 407280, Note_off_c, 2, 59, 0
4, 407280, Note_off_c, 2, 53, 0
4, 407520, Note_on_c, 2, 53, 40
4, 407520, Note_on_c, 2, 56, 40
4, 407520, Note_on_c, 2, 59, 40
4, 407880, Note_off_c, 2, 59, 0
4, 407880, Note_off_c, 2, 56, 0
4, 407880, Note_off_c, 2, 53, 0
4, 408000, Note_on_c, 2, 53, 47
4, 408000, Note_on_c, 2, 59, 47
4, 408000, Note_on_c, 2, 56, 47
4, 409440, Note_off_c, 2, 59, 0
4, 409440, Note_on_c, 2, 58, 39
4, 409800, Note_off_c, 2, 58, 0
4, 409800, Note_off_c, 2, 56, 0
4, 409800, Note_off_c, 2, 53, 0
4, 410880, Note_on_c, 2, 54, 40
4, 410880, Note_on_c, 2, 58, 40
4, 411600, Note_off_c, 2, 58, 0
4, 411600, Note_off_c, 2, 54, 0
4, 411840, Note_on_c, 2, 54, 44
4, 411840, Note_on_c, 2, 58, 44
4, 412200, Note_off_c, 2, 58, 0
4, 412200, Note_off_c, 2, 54, 0
4, 412320, Note_on_c, 2, 51, 46
4, 412320, Note_on_c, 2, 54, 46
4, 412320, Note_on_c, 2, 57, 46
4, 413040, Note_off_c, 2, 57, 0
4, 413040, Note_off_c, 2, 54, 0
4, 413040, Note_off_c, 2, 51, 0
4, 413280, Note_on_c, 2, 51, 50
4, 413280, Note_on_c, 2, 54, 50
4, 413280, Note_on_c, 2, 57, 50
4, 413640, Note_off_c, 2, 57, 0
4, 413640, Note_off_c, 2, 54, 0
4, 413640, Note_off_c, 2, 51, 0
4, 413760, Note_on_c, 2, 51, 55
4, 413760, Note_on_c, 2, 54, 55
4, 413760, Note_on_c, 2, 57, 55
4, 415200, Note_off_c, 2, 57, 0
4, 415200, Note_on_c, 2, 56, 49
4, 415560, Note_off_c, 2, 56, 0
4, 415560, Note_off_c, 2, 54, 0
4, 415560, Note_off_c, 2, 51, 0
4, 428160, Note_on_c, 2, 52, 30
4, 428880, Note_off_c, 2, 52, 0
4, 429120, Note_on_c, 2, 52, 32
4, 429480, Note_off_c, 2, 52, 0
4, 429600, Note_on_c, 2, 52, 33
4, 430320, Note_off_c, 2, 52, 0
4, 430560, Note_on_c, 2, 52, 35
4, 430920, Note_off_c, 2, 52, 0
4, 431040, Note_on_c, 2, 52, 39
4, 432480, Note_off_c, 2, 52, 0
4, 432480, Note_on_c, 2, 53, 34
4, 433920, Note_off_c, 2, 53, 0
4, 433920, Note_on_c, 2, 54, 35
4, 434640, Note_off_c, 2, 54, 0
4, 434880, Note_on_c, 2, 54, 35
4, 435240, Note_off_c, 2, 54, 0
4, 435360, Note_on_c, 2, 54, 34
4, 436080, Note_off_c, 2, 54, 0
4, 436320, Note_on_c, 2, 54, 34
4, 436680, Note_off_c, 2, 54, 0
4, 436800, Note_on_c, 2, 53, 34
4, 437160, Note_off_c, 2, 53, 0
4, 444000, Note_on_c, 2, 48, 31
4, 444720, Note_off_c, 2, 48, 0
4, 444960, Note_on_c, 2, 48, 30
4, 445320, Note_off_c, 2, 48, 0
4, 445440, Note_on_c, 2, 48, 30
4, 446160, Note_off_c, 2, 48, 0
4, 446400, Note_on_c, 2, 48, 30
4, 446760, Note_off_c, 2, 48, 0
4, 453600, Note_on_c, 2, 58, 53
4, 454080, Note_off_c, 2, 58, 0
4, 454080, Note_on_c, 2, 60, 55
4, 455040, Note_off_c, 2, 60, 0
4, 465120, Note_on_c, 2, 58, 65
4, 465600, Note_off_c, 2, 58, 0
4, 465600, Note_on_c, 2, 60, 66
4, 466080, Note_off_c, 2, 60, 0
4, 470160, Note_on_c, 2, 60, 43
4, 470400, Note_off_c, 2, 60, 0
4, 470640, Note_on_c, 2, 60, 44
4, 470880, Note_off_c, 2, 60, 0
4, 471120, Note_on_c, 2, 60, 45
4, 471360, Note_off_c, 2, 60, 0
4, 471600, Note_on_c, 2, 61, 46
4, 471840, Note_off_c, 2, 61, 0
4, 472080, Note_on_c, 2, 61, 47
4, 472320, Note_off_c, 2, 61, 0
4, 472560, Note_on_c, 2, 61, 48
4, 472800, Note_off_c, 2, 61, 0
4, 473040, Note_on_c, 2, 61, 49
4, 473280, Note_off_c, 2, 61, 0
4, 473520, Note_on_c, 2, 61, 51
4, 473760, Note_off_c, 2, 61, 0
4, 474000, Note_on_c, 2, 61, 52
4, 474240, Note_off_c, 2, 61, 0
4, 474480, Note_on_c, 2, 63, 53
4, 474720, Note_off_c, 2, 63, 0
4, 474960, Note_on_c, 2, 63, 54
4, 475200, Note_off_c, 2, 63, 0
4, 475440, Note_on_c, 2, 63, 55
4, 475680, Note_off_c, 2, 63, 0
4, 475920, Note_on_c, 2, 63, 56
4, 476160, Note_off_c, 2, 63, 0
4, 476400, Note_on_c, 2, 63, 57
4, 476640, Note_off_c, 2, 63, 0
4, 476880, Note_on_c, 2, 63, 59
4, 477120, Note_off_c, 2, 63, 0
4, 477360, Note_on_c, 2, 65, 60
4, 477600, Note_off_c, 2, 65, 0
4, 477840, Note_on_c, 2, 65, 61
4, 478080, Note_off_c, 2, 65, 0
4, 478320, Note_on_c, 2, 65, 62
4, 478560, Note_off_c, 2, 65, 0
4, 478800, Note_on_c, 2, 65, 63
4, 479040, Note_off_c, 2, 65, 0
4, 479280, Note_on_c, 2, 65, 63
4, 479520, Note_off_c, 2, 65, 0
4, 479760, Note_on_c, 2, 65, 61
4, 480000, Note_off_c, 2, 65, 0
4, 480000, Note_on_c, 2, 64, 59
4, 480720, Note_off_c, 2, 64, 0
4, 500160, Note_on_c, 2, 53, 31
4, 500400, Note_off_c, 2, 53, 0
4, 502080, Note_on_c, 2, 58, 41
4, 502560, Note_off_c, 2, 58, 0
4, 502560, Note_on_c, 2, 56, 45
4, 503040, Note_off_c, 2, 56, 0
4, 503520, Note_on_c, 2, 58, 55
4, 503520, Note_on_c, 2, 55, 55
4, 504000, Note_off_c, 2, 55, 0
4, 504000, Note_off_c, 2, 58, 0
4, 504000, Note_on_c, 2, 56, 60
4, 504000, Note_on_c, 2, 53, 60
4, 504480, Note_off_c, 2, 53, 0
4, 504480, Note_off_c, 2, 56, 0
4, 504480, Note_on_c, 2, 55, 73
4, 504480, Note_on_c, 2, 60, 73
4, 504480, Note_on_c, 2, 52, 73
4, 505920, Note_off_c, 2, 52, 0
4, 505920, Note_off_c, 2, 60, 0
4, 505920, Note_off_c, 2, 55, 0
4, 505920, Note_on_c, 2, 56, 50
4, 505920, Note_on_c, 2, 60, 50
4, 506400, Note_off_c, 2, 60, 0
4, 506400, Note_off_c, 2, 56, 0
4, 507840, Note_on_c, 2, 67, 60
4, 507840, Note_on_c, 2, 70, 60
4, 508320, Note_off_c, 2, 70, 0
4, 508320, Note_off_c, 2, 67, 0
4, 508320, Note_on_c, 2, 68, 67
4, 508320, Note_on_c, 2, 65, 67
4, 508800, Note_off_c, 2, 65, 0
4, 508800, Note_off_c, 2, 68, 0
4, 508800, Note_on_c, 2, 67, 73
4, 508800, Note_on_c, 2, 64, 73
4, 509040, Note_off_c, 2, 64, 0
4, 509040, Note_off_c, 2, 67, 0
4, 509760, Note_on_c, 2, 48, 86
4, 510000, Note_off_c, 2, 48, 0
4, 510240, Note_on_c, 2, 41, 92
4, 510480, Note_off_c, 2, 41, 0
4, 511200, Control_c, 2, 91, 64
4, 511200, Control_c, 2, 93, 1
4, 511200, Control_c, 2, 1, 0
4, 511200, Pitch_bend_c, 2, 8192
4, 511200, Control_c, 2, 64, 0
4, 512400, Control_c, 2, 64, 0
4, 520320, Note_on_c, 2, 64, 55
4, 520440, Note_off_c, 2, 64, 0
4, 520560, Note_on_c, 2, 65, 55
4, 520680, Note_off_c, 2, 65, 0
4, 520800, Note_on_c, 2, 67, 56
4, 520920, Note_off_c, 2, 67, 0
4, 521040, Note_on_c, 2, 65, 56
4, 521160, Note_off_c, 2, 65, 0
4, 521280, Note_on_c, 2, 64, 57
4, 521400, Note_off_c, 2, 64, 0
4, 521760, Note_on_c, 2, 64, 58
4, 521880, Note_off_c, 2, 64, 0
4, 522000, Note_on_c, 2, 60, 58
4, 522120, Note_off_c, 2, 60, 0
4, 522240, Note_on_c, 2, 62, 59
4, 522360, Note_off_c, 2, 62, 0
4, 522480, Note_on_c, 2, 59, 59
4, 522600, Note_off_c, 2, 59, 0
4, 522720, Note_on_c, 2, 60, 60
4, 522840, Note_off_c, 2, 60, 0
4, 522960, Note_on_c, 2, 62, 60
4, 523080, Note_off_c, 2, 62, 0
4, 523200, Note_on_c, 2, 64, 61
4, 523320, Note_off_c, 2, 64, 0
4, 523440, Note_on_c, 2, 65, 61
4, 523560, Note_off_c, 2, 65, 0
4, 523680, Note_on_c, 2, 67, 62
4, 523800, Note_off_c, 2, 67, 0
4, 523920, Note_on_c, 2, 64, 62
4, 524040, Note_off_c, 2, 64, 0
4, 524160, Note_on_c, 2, 64, 63
4, 524280, Note_off_c, 2, 64, 0
4, 524400, Note_on_c, 2, 61, 63
4, 524520, Note_off_c, 2, 61, 0
4, 524640, Note_on_c, 2, 62, 64
4, 524760, Note_off_c, 2, 62, 0
4, 524880, Note_on_c, 2, 64, 64
4, 525000, Note_off_c, 2, 64, 0
4, 525120, Note_on_c, 2, 65, 65
4, 525240, Note_off_c, 2, 65, 0
4, 525360, Note_on_c, 2, 67, 65
4, 525480, Note_off_c, 2, 67, 0
4, 525600, Note_on_c, 2, 69, 66
4, 525720, Note_off_c, 2, 69, 0
4, 525840, Note_on_c, 2, 65, 67
4, 525960, Note_off_c, 2, 65, 0
4, 526080, Note_on_c, 2, 62, 75
4, 526080, Note_on_c, 2, 67, 75
4, 526200, Note_off_c, 2, 67, 0
4, 526200, Note_off_c, 2, 62, 0
4, 526320, Note_on_c, 2, 67, 68
4, 526320, Note_on_c, 2, 62, 68
4, 526440, Note_off_c, 2, 62, 0
4, 526440, Note_off_c, 2, 67, 0
4, 526560, Note_on_c, 2, 64, 68
4, 526560, Note_on_c, 2, 67, 68
4, 526680, Note_off_c, 2, 67, 0
4, 526680, Note_off_c, 2, 64, 0
4, 527040, Note_on_c, 2, 67, 77
4, 527040, Note_on_c, 2, 62, 77
4, 527160, Note_off_c, 2, 62, 0
4, 527160, Note_off_c, 2, 67, 0
4, 527280, Note_on_c, 2, 67, 70
4, 527280, Note_on_c, 2, 62, 70
4, 527400, Note_off_c, 2, 62, 0
4, 527400, Note_off_c, 2, 67, 0
4, 527520, Note_on_c, 2, 67, 70
4, 527520, Note_on_c, 2, 64, 70
4, 527640, Note_off_c, 2, 64, 0
4, 527640, Note_off_c, 2, 67, 0
4, 528000, Note_on_c, 2, 62, 71
4, 528000, Note_on_c, 2, 57, 71
4, 528120, Note_off_c, 2, 57, 0
4, 528120, Note_off_c, 2, 62, 0
4, 528480, Note_on_c, 2, 62, 72
4, 528480, Note_on_c, 2, 59, 72
4, 528600, Note_off_c, 2, 59, 0
4, 528600, Note_off_c, 2, 62, 0
4, 528960, Note_on_c, 2, 60, 73
4, 528960, Note_on_c, 2, 52, 73
4, 528960, Note_on_c, 2, 55, 73
4, 529440, Note_off_c, 2, 55, 0
4, 529440, Note_off_c, 2, 52, 0
4, 529440, Note_off_c, 2, 60, 0
4, 529920, Note_on_c, 2, 53, 83
4, 529920, Note_on_c, 2, 50, 83
4, 529920, Note_on_c, 2, 55, 83
4, 530040, Note_off_c, 2, 55, 0
4, 530040, Note_off_c, 2, 50, 0
4, 530040, Note_off_c, 2, 53, 0
4, 530160, Note_on_c, 2, 50, 76
4, 530160, Note_on_c, 2, 55, 76
4, 530160, Note_on_c, 2, 53, 76
4, 530280, Note_off_c, 2, 53, 0
4, 530280, Note_off_c, 2, 55, 0
4, 530280, Note_off_c, 2, 50, 0
4, 530400, Note_on_c, 2, 52, 76
4, 530400, Note_on_c, 2, 55, 76
4, 530520, Note_off_c, 2, 55, 0
4, 530520, Note_off_c, 2, 52, 0
4, 530880, Note_on_c, 2, 53, 87
4, 530880, Note_on_c, 2, 50, 87
4, 530880, Note_on_c, 2, 55, 87
4, 531000, Note_off_c, 2, 55, 0
4, 531000, Note_off_c, 2, 50, 0
4, 531000, Note_off_c, 2, 53, 0
4, 531120, Note_on_c, 2, 50, 78
4, 531120, Note_on_c, 2, 53, 78
4, 531120, Note_on_c, 2, 55, 78
4, 531240, Note_off_c, 2, 55, 0
4, 531240, Note_off_c, 2, 53, 0
4, 531240, Note_off_c, 2, 50, 0
4, 531360, Note_on_c, 2, 55, 78
4, 531360, Note_on_c, 2, 52, 78
4, 531480, Note_off_c, 2, 52, 0
4, 531480, Note_off_c, 2, 55, 0
4, 532080, Note_on_c, 2, 53, 79
4, 532200, Note_off_c, 2, 53, 0
4, 532320, Note_on_c, 2, 53, 78
4, 532440, Note_off_c, 2, 53, 0
4, 532560, Note_on_c, 2, 53, 77
4, 532680, Note_off_c, 2, 53, 0
4, 533040, Note_on_c, 2, 55, 76
4, 533160, Note_off_c, 2, 55, 0
4, 533280, Note_on_c, 2, 55, 75
4, 533400, Note_off_c, 2, 55, 0
4, 533520, Note_on_c, 2, 55, 74
4, 533640, Note_off_c, 2, 55, 0
4, 543120, Control_c, 2, 64, 0
4, 551040, Note_on_c, 2, 64, 55
4, 551160, Note_off_c, 2, 64, 0
4, 551280, Note_on_c, 2, 65, 55
4, 551400, Note_off_c, 2, 65, 0
4, 551520, Note_on_c, 2, 67, 56
4, 551640, Note_off_c, 2, 67, 0
4, 551760, Note_on_c, 2, 65, 56
4, 551880, Note_off_c, 2, 65, 0
4, 552000, Note_on_c, 2, 64, 57
4, 552120, Note_off_c, 2, 64, 0
4, 552480, Note_on_c, 2, 64, 58
4, 552600, Note_off_c, 2, 64, 0
4, 552720, Note_on_c, 2, 60, 58
4, 552840, Note_off_c, 2, 60, 0
4, 552960, Note_on_c, 2, 62, 59
4, 553080, Note_off_c, 2, 62, 0
4, 553200, Note_on_c, 2, 59, 59
4, 553320, Note_off_c, 2, 59, 0
4, 553440, Note_on_c, 2, 60, 60
4, 553560, Note_off_c, 2, 60, 0
4, 553680, Note_on_c, 2, 62, 60
4, 553800, Note_off_c, 2, 62, 0
4, 553920, Note_on_c, 2, 64, 61
4, 554040, Note_off_c, 2, 64, 0
4, 554160, Note_on_c, 2, 65, 61
4, 554280, Note_off_c, 2, 65, 0
4, 554400, Note_on_c, 2, 67, 62
4, 554520, Note_off_c, 2, 67, 0
4, 554640, Note_on_c, 2, 64, 62
4, 554760, Note_off_c, 2, 64, 0
4, 554880, Note_on_c, 2, 64, 63
4, 555000, Note_off_c, 2, 64, 0
4, 555120, Note_on_c, 2, 61, 63
4, 555240, Note_off_c, 2, 61, 0
4, 555360, Note_on_c, 2, 62, 64
4, 555480, Note_off_c, 2, 62, 0
4, 555600, Note_on_c, 2, 64, 64
4, 555720, Note_off_c, 2, 64, 0
4, 555840, Note_on_c, 2, 65, 65
4, 555960, Note_off_c, 2, 65, 0
4, 556080, Note_on_c, 2, 67, 65
4, 556200, Note_off_c, 2, 67, 0
4, 556320, Note_on_c, 2, 69, 66
4, 556440, Note_off_c, 2, 69, 0
4, 556560, Note_on_c, 2, 65, 67
4, 556680, Note_off_c, 2, 65, 0
4, 556800, Note_on_c, 2, 67, 75
4, 556800, Note_on_c, 2, 62, 75
4, 556920, Note_off_c, 2, 62, 0
4, 556920, Note_off_c, 2, 67, 0
4, 557040, Note_on_c, 2, 62, 68
4, 557040, Note_on_c, 2, 67, 68
4, 557160, Note_off_c, 2, 67, 0
4, 557160, Note_off_c, 2, 62, 0
4, 557280, Note_on_c, 2, 67, 68
4, 557280, Note_on_c, 2, 64, 68
4, 557400, Note_off_c, 2, 64, 0
4, 557400, Note_off_c, 2, 67, 0
4, 557760, Note_on_c, 2, 62, 77
4, 557760, Note_on_c, 2, 67, 77
4, 557880, Note_off_c, 2, 67, 0
4, 557880, Note_off_c, 2, 62, 0
4, 558000, Note_on_c, 2, 62, 70
4, 558000, Note_on_c, 2, 67, 70
4, 558120, Note_off_c, 2, 67, 0
4, 558120, Note_off_c, 2, 62, 0
4, 558240, Note_on_c, 2, 64, 70
4, 558240, Note_on_c, 2, 67, 70
4, 558360, Note_off_c, 2, 67, 0
4, 558360, Note_off_c, 2, 64, 0
4, 558720, Note_on_c, 2, 57, 71
4, 558720, Note_on_c, 2, 62, 71
4, 558840, Note_off_c, 2, 62, 0
4, 558840, Note_off_c, 2, 57, 0
4, 559200, Note_on_c, 2, 59, 72
4, 559200, Note_on_c, 2, 62, 72
4, 559320, Note_off_c, 2, 62, 0
4, 559320, Note_off_c, 2, 59, 0
4, 559680, Note_on_c, 2, 55, 73
4, 559680, Note_on_c, 2, 52, 73
4, 559680, Note_on_c, 2, 60, 73
4, 560160, Note_off_c, 2, 60, 0
4, 560160, Note_off_c, 2, 52, 0
4, 560160, Note_off_c, 2, 55, 0
4, 560640, Note_on_c, 2, 55, 83
4, 560640, Note_on_c, 2, 50, 83
4, 560640, Note_on_c, 2, 53, 83
4, 560760, Note_off_c, 2, 53, 0
4, 560760, Note_off_c, 2, 50, 0
4, 560760, Note_off_c, 2, 55, 0
4, 560880, Note_on_c, 2, 53, 76
4, 560880, Note_on_c, 2, 55, 76
4, 560880, Note_on_c, 2, 50, 76
4, 561000, Note_off_c, 2, 50, 0
4, 561000, Note_off_c, 2, 55, 0
4, 561000, Note_off_c, 2, 53, 0
4, 561120, Note_on_c, 2, 55, 76
4, 561120, Note_on_c, 2, 52, 76
4, 561240, Note_off_c, 2, 52, 0
4, 561240, Note_off_c, 2, 55, 0
4, 561600, Note_on_c, 2, 55, 87
4, 561600, Note_on_c, 2, 50, 87
4, 561600, Note_on_c, 2, 53, 87
4, 561720, Note_off_c, 2, 53, 0
4, 561720, Note_off_c, 2, 50, 0
4, 561720, Note_off_c, 2, 55, 0
4, 561840, Note_on_c, 2, 55, 78
4, 561840, Note_on_c, 2, 53, 78
4, 561840, Note_on_c, 2, 50, 78
4, 561960, Note_off_c, 2, 50, 0
4, 561960, Note_off_c, 2, 53, 0
4, 561960, Note_off_c, 2, 55, 0
4, 562080, Note_on_c, 2, 52, 78
4, 562080, Note_on_c, 2, 55, 78
4, 562200, Note_off_c, 2, 55, 0
4, 562200, Note_off_c, 2, 52, 0
4, 562800, Note_on_c, 2, 53, 79
4, 562920, Note_off_c, 2, 53, 0
4, 563040, Note_on_c, 2, 53, 78
4, 563160, Note_off_c, 2, 53, 0
4, 563280, Note_on_c, 2, 53, 77
4, 563400, Note_off_c, 2, 53, 0
4, 563760, Note_on_c, 2, 55, 76
4, 563880, Note_off_c, 2, 55, 0
4, 564000, Note_on_c, 2, 55, 75
4, 564120, Note_off_c, 2, 55, 0
4, 564240, Note_on_c, 2, 55, 74
4, 564360, Note_off_c, 2, 55, 0
4, 573840, Control_c, 2, 64, 0
4, 578040, Note_on_c, 2, 60, 42
4, 578160, Note_off_c, 2, 60, 0
4, 578280, Note_on_c, 2, 60, 43
4, 578400, Note_off_c, 2, 60, 0
4, 578520, Note_on_c, 2, 60, 44
4, 578640, Note_off_c, 2, 60, 0
4, 578760, Note_on_c, 2, 60, 45
4, 578880, Note_off_c, 2, 60, 0
4, 579000, Note_on_c, 2, 60, 46
4, 579120, Note_off_c, 2, 60, 0
4, 579240, Note_on_c, 2, 60, 47
4, 579360, Note_off_c, 2, 60, 0
4, 579480, Note_on_c, 2, 60, 48
4, 579600, Note_off_c, 2, 60, 0
4, 579720, Note_on_c, 2, 60, 49
4, 579840, Note_off_c, 2, 60, 0
4, 579960, Note_on_c, 2, 58, 50
4, 580080, Note_off_c, 2, 58, 0
4, 580200, Note_on_c, 2, 58, 51
4, 580320, Note_off_c, 2, 58, 0
4, 580440, Note_on_c, 2, 58, 52
4, 580560, Note_off_c, 2, 58, 0
4, 580680, Note_on_c, 2, 58, 53
4, 580800, Note_off_c, 2, 58, 0
4, 580800, Note_on_c, 2, 55, 53
4, 580920, Note_off_c, 2, 55, 0
4, 580920, Note_on_c, 2, 58, 54
4, 581040, Note_off_c, 2, 58, 0
4, 581040, Note_on_c, 2, 55, 54
4, 581160, Note_off_c, 2, 55, 0
4, 581160, Note_on_c, 2, 58, 55
4, 581280, Note_off_c, 2, 58, 0
4, 581280, Note_on_c, 2, 55, 55
4, 581400, Note_off_c, 2, 55, 0
4, 581400, Note_on_c, 2, 58, 56
4, 581520, Note_off_c, 2, 58, 0
4, 581520, Note_on_c, 2, 55, 56
4, 581640, Note_off_c, 2, 55, 0
4, 581640, Note_on_c, 2, 58, 57
4, 581760, Note_off_c, 2, 58, 0
4, 602880, Note_on_c, 2, 45, 72
4, 603000, Note_off_c, 2, 45, 0
4, 603120, Note_on_c, 2, 52, 67
4, 603240, Note_off_c, 2, 52, 0
4, 603360, Note_on_c, 2, 52, 67
4, 603480, Note_off_c, 2, 52, 0
4, 603480, Note_on_c, 2, 51, 67
4, 603600, Note_off_c, 2, 51, 0
4, 603600, Note_on_c, 2, 52, 67
4, 603720, Note_off_c, 2, 52, 0
4, 603720, Note_on_c, 2, 49, 67
4, 603840, Note_off_c, 2, 49, 0
4, 603840, Note_on_c, 2, 53, 71
4, 603960, Note_off_c, 2, 53, 0
4, 604080, Note_on_c, 2, 53, 67
4, 604200, Note_off_c, 2, 53, 0
4, 604320, Note_on_c, 2, 53, 66
4, 604440, Note_off_c, 2, 53, 0
4, 604440, Note_on_c, 2, 52, 66
4, 604560, Note_off_c, 2, 52, 0
4, 604560, Note_on_c, 2, 53, 66
4, 604680, Note_off_c, 2, 53, 0
4, 604680, Note_on_c, 2, 50, 66
4, 604800, Note_off_c, 2, 50, 0
4, 604800, Note_on_c, 2, 52, 72
4, 604920, Note_off_c, 2, 52, 0
4, 605040, Note_on_c, 2, 52, 66
4, 605160, Note_off_c, 2, 52, 0
4, 605280, Note_on_c, 2, 52, 65
4, 605400, Note_off_c, 2, 52, 0
4, 605400, Note_on_c, 2, 51, 65
4, 605520, Note_off_c, 2, 51, 0
4, 605520, Note_on_c, 2, 52, 65
4, 605640, Note_off_c, 2, 52, 0
4, 605640, Note_on_c, 2, 49, 65
4, 605760, Note_off_c, 2, 49, 0
4, 605760, Note_on_c, 2, 53, 71
4, 605880, Note_off_c, 2, 53, 0
4, 606000, Note_on_c, 2, 53, 65
4, 606120, Note_off_c, 2, 53, 0
4, 606240, Note_on_c, 2, 53, 65
4, 606360, Note_off_c, 2, 53, 0
4, 606360, Note_on_c, 2, 52, 64
4, 606480, Note_off_c, 2, 52, 0
4, 606480, Note_on_c, 2, 53, 64
4, 606600, Note_off_c, 2, 53, 0
4, 606600, Note_on_c, 2, 50, 64
4, 606720, Note_off_c, 2, 50, 0
4, 606720, Note_on_c, 2, 52, 64
4, 607200, Note_off_c, 2, 52, 0
4, 607200, End_track
5, 0, Start_track
5, 0, Title_t, "No Name"
5, 0, Control_c, 3, 0, 0
5, 0, Control_c, 3, 32, 0
5, 0, Program_c, 3, 0
5, 0, Pitch_bend_c, 3, 8192
5, 0, Control_c, 3, 1, 0
5, 0, Control_c, 3, 64, 0
5, 0, Control_c, 3, 93, 28
5, 0, Control_c, 3, 91, 91
5, 0, Control_c, 3, 7, 117
5, 0, Control_c, 3, 10, 55
5, 720, Note_on_c, 3, 41, 45
5, 840, Note_off_c, 3, 41, 0
5, 960, Note_on_c, 3, 41, 47
5, 1152, Note_off_c, 3, 41, 0
5, 2640, Note_on_c, 3, 41, 41
5, 2760, Note_off_c, 3, 41, 0
5, 2880, Note_on_c, 3, 40, 42
5, 3072, Note_off_c, 3, 40, 0
5, 4800, Note_on_c, 3, 53, 42
5, 5280, Note_off_c, 3, 53, 0
5, 5280, Note_on_c, 3, 55, 46
5, 5760, Note_off_c, 3, 55, 0
5, 5760, Note_on_c, 3, 57, 49
5, 6240, Note_off_c, 3, 57, 0
5, 6240, Note_on_c, 3, 58, 52
5, 6720, Note_off_c, 3, 58, 0
5, 6720, Note_on_c, 3, 60, 59
5, 7200, Note_off_c, 3, 60, 0
5, 7200, Note_on_c, 3, 63, 57
5, 7680, Note_off_c, 3, 63, 0
5, 7680, Note_on_c, 3, 62, 56
5, 8040, Note_off_c, 3, 62, 0
5, 8640, Note_on_c, 3, 62, 52
5, 9120, Note_off_c, 3, 62, 0
5, 9120, Note_on_c, 3, 64, 50
5, 9600, Note_off_c, 3, 64, 0
5, 9840, Note_on_c, 3, 65, 47
5, 10080, Note_off_c, 3, 65, 0
5, 10080, Note_on_c, 3, 58, 47
5, 10560, Note_off_c, 3, 58, 0
5, 10560, Note_on_c, 3, 60, 45
5, 11040, Note_off_c, 3, 60, 0
5, 11040, Note_on_c, 3, 60, 43
5, 11520, Note_off_c, 3, 60, 0
5, 11520, Note_on_c, 3, 65, 41
5, 11880, Note_off_c, 3, 65, 0
5, 12240, Note_on_c, 3, 41, 44
5, 12360, Note_off_c, 3, 41, 0
5, 12480, Note_on_c, 3, 41, 47
5, 12672, Note_off_c, 3, 41, 0
5, 14160, Note_on_c, 3, 41, 50
5, 14280, Note_off_c, 3, 41, 0
5, 14400, Note_on_c, 3, 41, 53
5, 14592, Note_off_c, 3, 41, 0
5, 16080, Note_on_c, 3, 53, 78
5, 16320, Note_off_c, 3, 53, 0
5, 16320, Note_on_c, 3, 52, 79
5, 16440, Note_off_c, 3, 52, 0
5, 16560, Note_on_c, 3, 53, 80
5, 16800, Note_off_c, 3, 53, 0
5, 16800, Note_on_c, 3, 52, 81
5, 16920, Note_off_c, 3, 52, 0
5, 17040, Note_on_c, 3, 53, 83
5, 17160, Note_off_c, 3, 53, 0
5, 17280, Note_on_c, 3, 52, 79
5, 17520, Note_off_c, 3, 52, 0
5, 18000, Note_on_c, 3, 43, 36
5, 18120, Note_off_c, 3, 43, 0
5, 18120, Note_on_c, 3, 47, 37
5, 18240, Note_off_c, 3, 47, 0
5, 18240, Note_on_c, 3, 48, 38
5, 18360, Note_off_c, 3, 48, 0
5, 18360, Note_on_c, 3, 52, 39
5, 18480, Note_off_c, 3, 52, 0
5, 18480, Note_on_c, 3, 43, 39
5, 18600, Note_off_c, 3, 43, 0
5, 18600, Note_on_c, 3, 47, 40
5, 18720, Note_off_c, 3, 47, 0
5, 18720, Note_on_c, 3, 48, 41
5, 18840, Note_off_c, 3, 48, 0
5, 18840, Note_on_c, 3, 52, 42
5, 18960, Note_off_c, 3, 52, 0
5, 18960, Note_on_c, 3, 43, 43
5, 19080, Note_off_c, 3, 43, 0
5, 19080, Note_on_c, 3, 47, 44
5, 19200, Note_off_c, 3, 47, 0
5, 19200, Note_on_c, 3, 48, 45
5, 19320, Note_off_c, 3, 48, 0
5, 19320, Note_on_c, 3, 52, 46
5, 19440, Note_off_c, 3, 52, 0
5, 19440, Note_on_c, 3, 43, 47
5, 19560, Note_off_c, 3, 43, 0
5, 19560, Note_on_c, 3, 47, 48
5, 19680, Note_off_c, 3, 47, 0
5, 19680, Note_on_c, 3, 48, 49
5, 19800, Note_off_c, 3, 48, 0
5, 19800, Note_on_c, 3, 52, 49
5, 19920, Note_off_c, 3, 52, 0
5, 19920, Note_on_c, 3, 43, 50
5, 20040, Note_off_c, 3, 43, 0
5, 20040, Note_on_c, 3, 47, 51
5, 20160, Note_off_c, 3, 47, 0
5, 20160, Note_on_c, 3, 48, 52
5, 20280, Note_off_c, 3, 48, 0
5, 20280, Note_on_c, 3, 52, 53
5, 20400, Note_off_c, 3, 52, 0
5, 20400, Note_on_c, 3, 43, 55
5, 20520, Note_off_c, 3, 43, 0
5, 20520, Note_on_c, 3, 47, 51
5, 20640, Note_off_c, 3, 47, 0
5, 20640, Note_on_c, 3, 48, 50
5, 20760, Note_off_c, 3, 48, 0
5, 20760, Note_on_c, 3, 52, 49
5, 20880, Note_off_c, 3, 52, 0
5, 20880, Note_on_c, 3, 43, 48
5, 21000, Note_off_c, 3, 43, 0
5, 21000, Note_on_c, 3, 48, 48
5, 21120, Note_off_c, 3, 48, 0
5, 21120, Note_on_c, 3, 50, 47
5, 21240, Note_off_c, 3, 50, 0
5, 21240, Note_on_c, 3, 53, 46
5, 21360, Note_off_c, 3, 53, 0
5, 21360, Note_on_c, 3, 43, 45
5, 21480, Note_off_c, 3, 43, 0
5, 21480, Note_on_c, 3, 49, 44
5, 21600, Note_off_c, 3, 49, 0
5, 21600, Note_on_c, 3, 50, 43
5, 21720, Note_off_c, 3, 50, 0
5, 21720, Note_on_c, 3, 53, 42
5, 21840, Note_off_c, 3, 53, 0
5, 21840, Note_on_c, 3, 43, 42
5, 21960, Note_off_c, 3, 43, 0
5, 21960, Note_on_c, 3, 49, 41
5, 22080, Note_off_c, 3, 49, 0
5, 22080, Note_on_c, 3, 50, 38
5, 22200, Note_off_c, 3, 50, 0
5, 22200, Note_on_c, 3, 53, 39
5, 22320, Note_off_c, 3, 53, 0
5, 22320, Note_on_c, 3, 43, 39
5, 22440, Note_off_c, 3, 43, 0
5, 22440, Note_on_c, 3, 49, 40
5, 22560, Note_off_c, 3, 49, 0
5, 22560, Note_on_c, 3, 50, 41
5, 22680, Note_off_c, 3, 50, 0
5, 22680, Note_on_c, 3, 53, 41
5, 22800, Note_off_c, 3, 53, 0
5, 22800, Note_on_c, 3, 43, 42
5, 22920, Note_off_c, 3, 43, 0
5, 22920, Note_on_c, 3, 49, 43
5, 23040, Note_off_c, 3, 49, 0
5, 23040, Note_on_c, 3, 50, 44
5, 23160, Note_off_c, 3, 50, 0
5, 23160, Note_on_c, 3, 53, 44
5, 23280, Note_off_c, 3, 53, 0
5, 23280, Note_on_c, 3, 43, 45
5, 23400, Note_off_c, 3, 43, 0
5, 23400, Note_on_c, 3, 49, 46
5, 23520, Note_off_c, 3, 49, 0
5, 23520, Note_on_c, 3, 50, 47
5, 23640, Note_off_c, 3, 50, 0
5, 23640, Note_on_c, 3, 53, 47
5, 23760, Note_off_c, 3, 53, 0
5, 23760, Note_on_c, 3, 43, 48
5, 23880, Note_off_c, 3, 43, 0
5, 23880, Note_on_c, 3, 49, 49
5, 24000, Note_off_c, 3, 49, 0
5, 24000, Note_on_c, 3, 50, 49
5, 24120, Note_off_c, 3, 50, 0
5, 24120, Note_on_c, 3, 53, 50
5, 24240, Note_off_c, 3, 53, 0
5, 24240, Note_on_c, 3, 43, 54
5, 24360, Note_off_c, 3, 43, 0
5, 24360, Note_on_c, 3, 49, 52
5, 24480, Note_off_c, 3, 49, 0
5, 24480, Note_on_c, 3, 50, 48
5, 24600, Note_off_c, 3, 50, 0
5, 24600, Note_on_c, 3, 53, 47
5, 24720, Note_off_c, 3, 53, 0
5, 24720, Note_on_c, 3, 43, 47
5, 24840, Note_off_c, 3, 43, 0
5, 24840, Note_on_c, 3, 50, 46
5, 24960, Note_off_c, 3, 50, 0
5, 24960, Note_on_c, 3, 52, 45
5, 25080, Note_off_c, 3, 52, 0
5, 25080, Note_on_c, 3, 55, 44
5, 25200, Note_off_c, 3, 55, 0
5, 25200, Note_on_c, 3, 48, 43
5, 25320, Note_off_c, 3, 48, 0
5, 25320, Note_on_c, 3, 51, 43
5, 25440, Note_off_c, 3, 51, 0
5, 25440, Note_on_c, 3, 52, 42
5, 25560, Note_off_c, 3, 52, 0
5, 25560, Note_on_c, 3, 55, 41
5, 25680, Note_off_c, 3, 55, 0
5, 25680, Note_on_c, 3, 52, 40
5, 25800, Note_off_c, 3, 52, 0
5, 25800, Note_on_c, 3, 50, 40
5, 25920, Note_off_c, 3, 50, 0
5, 25920, Note_on_c, 3, 48, 84
5, 26040, Note_off_c, 3, 48, 0
5, 26040, Note_on_c, 3, 60, 84
5, 26160, Note_off_c, 3, 60, 0
5, 26160, Note_on_c, 3, 64, 85
5, 26280, Note_off_c, 3, 64, 0
5, 26280, Note_on_c, 3, 62, 86
5, 26400, Note_off_c, 3, 62, 0
5, 26400, Note_on_c, 3, 60, 87
5, 26520, Note_off_c, 3, 60, 0
5, 26520, Note_on_c, 3, 64, 88
5, 26640, Note_off_c, 3, 64, 0
5, 26640, Note_on_c, 3, 60, 88
5, 26760, Note_off_c, 3, 60, 0
5, 26760, Note_on_c, 3, 59, 89
5, 26880, Note_off_c, 3, 59, 0
5, 26880, Note_on_c, 3, 57, 90
5, 27000, Note_off_c, 3, 57, 0
5, 27000, Note_on_c, 3, 60, 91
5, 27120, Note_off_c, 3, 60, 0
5, 27120, Note_on_c, 3, 57, 91
5, 27240, Note_off_c, 3, 57, 0
5, 27240, Note_on_c, 3, 55, 92
5, 27360, Note_off_c, 3, 55, 0
5, 27360, Note_on_c, 3, 54, 93
5, 27480, Note_off_c, 3, 54, 0
5, 27480, Note_on_c, 3, 57, 94
5, 27600, Note_off_c, 3, 57, 0
5, 27600, Note_on_c, 3, 54, 95
5, 27720, Note_off_c, 3, 54, 0
5, 27720, Note_on_c, 3, 52, 95
5, 27840, Note_off_c, 3, 52, 0
5, 27840, Note_on_c, 3, 50, 96
5, 27960, Note_off_c, 3, 50, 0
5, 27960, Note_on_c, 3, 52, 97
5, 28080, Note_off_c, 3, 52, 0
5, 28080, Note_on_c, 3, 54, 98
5, 28200, Note_off_c, 3, 54, 0
5, 28200, Note_on_c, 3, 55, 98
5, 28320, Note_off_c, 3, 55, 0
5, 28320, Note_on_c, 3, 57, 99
5, 28440, Note_off_c, 3, 57, 0
5, 28440, Note_on_c, 3, 50, 92
5, 28560, Note_off_c, 3, 50, 0
5, 28560, Note_on_c, 3, 52, 90
5, 28680, Note_off_c, 3, 52, 0
5, 28680, Note_on_c, 3, 54, 88
5, 28800, Note_off_c, 3, 54, 0
5, 28800, Note_on_c, 3, 55, 86
5, 29280, Note_off_c, 3, 55, 0
5, 29280, Note_on_c, 3, 57, 57
5, 29750, Note_off_c, 3, 57, 0
5, 29760, Note_on_c, 3, 55, 55
5, 30240, Note_off_c, 3, 55, 0
5, 30240, Note_on_c, 3, 54, 54
5, 30720, Note_off_c, 3, 54, 0
5, 30720, Note_on_c, 3, 55, 53
5, 31200, Note_off_c, 3, 55, 0
5, 31200, Note_on_c, 3, 57, 52
5, 31655, Note_off_c, 3, 57, 0
5, 31680, Note_on_c, 3, 55, 51
5, 32160, Note_off_c, 3, 55, 0
5, 32160, Note_on_c, 3, 54, 50
5, 32640, Note_off_c, 3, 54, 0
5, 32640, Note_on_c, 3, 55, 49
5, 33120, Note_off_c, 3, 55, 0
5, 33120, Note_on_c, 3, 54, 48
5, 33600, Note_off_c, 3, 54, 0
5, 33600, Note_on_c, 3, 55, 47
5, 34080, Note_off_c, 3, 55, 0
5, 34080, Note_on_c, 3, 54, 46
5, 34560, Note_off_c, 3, 54, 0
5, 34560, Note_on_c, 3, 55, 45
5, 34800, Note_off_c, 3, 55, 0
5, 36480, Note_on_c, 3, 65, 52
5, 36720, Note_off_c, 3, 65, 0
5, 36720, Note_on_c, 3, 62, 49
5, 36840, Note_off_c, 3, 62, 0
5, 36960, Note_on_c, 3, 59, 48
5, 37080, Note_off_c, 3, 59, 0
5, 37200, Note_on_c, 3, 60, 47
5, 37320, Note_off_c, 3, 60, 0
5, 37440, Note_on_c, 3, 65, 50
5, 37680, Note_off_c, 3, 65, 0
5, 37680, Note_on_c, 3, 62, 46
5, 37800, Note_off_c, 3, 62, 0
5, 37920, Note_on_c, 3, 59, 46
5, 38040, Note_off_c, 3, 59, 0
5, 38160, Note_on_c, 3, 60, 45
5, 38280, Note_off_c, 3, 60, 0
5, 38400, Note_on_c, 3, 53, 47
5, 38520, Note_off_c, 3, 53, 0
5, 38880, Note_on_c, 3, 55, 43
5, 39000, Note_off_c, 3, 55, 0
5, 39360, Note_on_c, 3, 48, 42
5, 39516, Note_off_c, 3, 48, 0
5, 40080, Note_on_c, 3, 63, 91
5, 40200, Note_off_c, 3, 63, 0
5, 40320, Note_on_c, 3, 65, 95
5, 40560, Note_off_c, 3, 65, 0
5, 40560, Note_on_c, 3, 62, 90
5, 40680, Note_off_c, 3, 62, 0
5, 40800, Note_on_c, 3, 59, 90
5, 40920, Note_off_c, 3, 59, 0
5, 41040, Note_on_c, 3, 60, 89
5, 41160, Note_off_c, 3, 60, 0
5, 41280, Note_on_c, 3, 65, 94
5, 41520, Note_off_c, 3, 65, 0
5, 41520, Note_on_c, 3, 62, 88
5, 41640, Note_off_c, 3, 62, 0
5, 41760, Note_on_c, 3, 59, 87
5, 41880, Note_off_c, 3, 59, 0
5, 42000, Note_on_c, 3, 60, 87
5, 42120, Note_off_c, 3, 60, 0
5, 42240, Note_on_c, 3, 53, 93
5, 42360, Note_off_c, 3, 53, 0
5, 42720, Note_on_c, 3, 55, 88
5, 42840, Note_off_c, 3, 55, 0
5, 43200, Note_on_c, 3, 56, 82
5, 43320, Note_off_c, 3, 56, 0
5, 44160, Note_on_c, 3, 54, 47
5, 44280, Note_off_c, 3, 54, 0
5, 45120, Note_on_c, 3, 53, 48
5, 45240, Note_off_c, 3, 53, 0
5, 45360, Note_on_c, 3, 47, 50
5, 45480, Note_off_c, 3, 47, 0
5, 45600, Note_on_c, 3, 48, 51
5, 45720, Note_off_c, 3, 48, 0
5, 45840, Note_on_c, 3, 43, 53
5, 45960, Note_off_c, 3, 43, 0
5, 46080, Note_on_c, 3, 50, 55
5, 46200, Note_off_c, 3, 50, 0
5, 46320, Note_on_c, 3, 43, 57
5, 46440, Note_off_c, 3, 43, 0
5, 46560, Note_on_c, 3, 48, 59
5, 46680, Note_off_c, 3, 48, 0
5, 46800, Note_on_c, 3, 43, 60
5, 46920, Note_off_c, 3, 43, 0
5, 47040, Note_on_c, 3, 50, 62
5, 47160, Note_off_c, 3, 50, 0
5, 47280, Note_on_c, 3, 53, 64
5, 47400, Note_off_c, 3, 53, 0
5, 47520, Note_on_c, 3, 52, 66
5, 47640, Note_off_c, 3, 52, 0
5, 47760, Note_on_c, 3, 48, 67
5, 47880, Note_off_c, 3, 48, 0
5, 48000, Note_on_c, 3, 50, 69
5, 48120, Note_off_c, 3, 50, 0
5, 48240, Note_on_c, 3, 53, 71
5, 48360, Note_off_c, 3, 53, 0
5, 48480, Note_on_c, 3, 52, 73
5, 48600, Note_off_c, 3, 52, 0
5, 48720, Note_on_c, 3, 48, 75
5, 48840, Note_off_c, 3, 48, 0
5, 48960, Note_on_c, 3, 41, 76
5, 49080, Note_off_c, 3, 41, 0
5, 49440, Note_on_c, 3, 53, 80
5, 49560, Note_off_c, 3, 53, 0
5, 51120, Note_on_c, 3, 62, 84
5, 51600, Note_on_c, 3, 64, 76
5, 51622, Note_off_c, 3, 62, 0
5, 51720, Note_off_c, 3, 64, 0
5, 51720, Note_on_c, 3, 65, 75
5, 51840, Note_off_c, 3, 65, 0
5, 51840, Note_on_c, 3, 67, 79
5, 52080, Note_off_c, 3, 67, 0
5, 52320, Note_on_c, 3, 62, 72
5, 52320, Note_on_c, 3, 59, 72
5, 52320, Note_on_c, 3, 55, 72
5, 52320, Note_on_c, 3, 65, 72
5, 52560, Note_off_c, 3, 65, 0
5, 52560, Note_off_c, 3, 55, 0
5, 52560, Note_off_c, 3, 59, 0
5, 52560, Note_off_c, 3, 62, 0
5, 52800, Note_on_c, 3, 60, 46
5, 53040, Note_off_c, 3, 60, 0
5, 53040, Note_on_c, 3, 60, 47
5, 53280, Note_off_c, 3, 60, 0
5, 53280, Note_on_c, 3, 60, 48
5, 53520, Note_off_c, 3, 60, 0
5, 53520, Note_on_c, 3, 60, 49
5, 53760, Note_off_c, 3, 60, 0
5, 53760, Note_on_c, 3, 60, 50
5, 54000, Note_off_c, 3, 60, 0
5, 54000, Note_on_c, 3, 60, 51
5, 54240, Note_off_c, 3, 60, 0
5, 54240, Note_on_c, 3, 60, 52
5, 54480, Note_off_c, 3, 60, 0
5, 54480, Note_on_c, 3, 60, 53
5, 54720, Note_off_c, 3, 60, 0
5, 54720, Note_on_c, 3, 53, 54
5, 54960, Note_off_c, 3, 53, 0
5, 54960, Note_on_c, 3, 53, 55
5, 55200, Note_off_c, 3, 53, 0
5, 55200, Note_on_c, 3, 54, 75
5, 55440, Note_off_c, 3, 54, 0
5, 55440, Note_on_c, 3, 54, 74
5, 55680, Note_off_c, 3, 54, 0
5, 55680, Note_on_c, 3, 55, 73
5, 55920, Note_off_c, 3, 55, 0
5, 55920, Note_on_c, 3, 55, 72
5, 56160, Note_off_c, 3, 55, 0
5, 56160, Note_on_c, 3, 55, 71
5, 56400, Note_off_c, 3, 55, 0
5, 56400, Note_on_c, 3, 55, 70
5, 56640, Note_off_c, 3, 55, 0
5, 56640, Note_on_c, 3, 48, 67
5, 56880, Note_off_c, 3, 48, 0
5, 56880, Note_on_c, 3, 48, 59
5, 57120, Note_off_c, 3, 48, 0
5, 57120, Note_on_c, 3, 48, 46
5, 57360, Note_off_c, 3, 48, 0
5, 57360, Note_on_c, 3, 48, 47
5, 57600, Note_off_c, 3, 48, 0
5, 57600, Note_on_c, 3, 48, 48
5, 57840, Note_off_c, 3, 48, 0
5, 57840, Note_on_c, 3, 48, 49
5, 58080, Note_off_c, 3, 48, 0
5, 58080, Note_on_c, 3, 52, 50
5, 58320, Note_off_c, 3, 52, 0
5, 58320, Note_on_c, 3, 52, 51
5, 58560, Note_off_c, 3, 52, 0
5, 58560, Note_on_c, 3, 53, 52
5, 58800, Note_off_c, 3, 53, 0
5, 58800, Note_on_c, 3, 53, 53
5, 59040, Note_off_c, 3, 53, 0
5, 59040, Note_on_c, 3, 54, 69
5, 59280, Note_off_c, 3, 54, 0
5, 59280, Note_on_c, 3, 54, 69
5, 59520, Note_off_c, 3, 54, 0
5, 59520, Note_on_c, 3, 55, 69
5, 59760, Note_off_c, 3, 55, 0
5, 59760, Note_on_c, 3, 55, 69
5, 60000, Note_off_c, 3, 55, 0
5, 60000, Note_on_c, 3, 55, 69
5, 60240, Note_off_c, 3, 55, 0
5, 60240, Note_on_c, 3, 55, 68
5, 60480, Note_off_c, 3, 55, 0
5, 60480, Note_on_c, 3, 48, 68
5, 60720, Note_off_c, 3, 48, 0
5, 60720, Note_on_c, 3, 48, 68
5, 60960, Note_off_c, 3, 48, 0
5, 60960, Note_on_c, 3, 48, 68
5, 61200, Note_off_c, 3, 48, 0
5, 61200, Note_on_c, 3, 48, 72
5, 61440, Note_off_c, 3, 48, 0
5, 61440, Note_on_c, 3, 43, 76
5, 61680, Note_off_c, 3, 43, 0
5, 61680, Note_on_c, 3, 43, 81
5, 61920, Note_off_c, 3, 43, 0
5, 61920, Note_on_c, 3, 43, 85
5, 62160, Note_off_c, 3, 43, 0
5, 62160, Note_on_c, 3, 43, 88
5, 62400, Note_off_c, 3, 43, 0
5, 62400, Note_on_c, 3, 48, 95
5, 62520, Note_off_c, 3, 48, 0
5, 62880, Note_on_c, 3, 55, 95
5, 62880, Note_on_c, 3, 43, 95
5, 63000, Note_off_c, 3, 43, 0
5, 63000, Note_off_c, 3, 55, 0
5, 63360, Note_on_c, 3, 48, 95
5, 63360, Note_on_c, 3, 36, 95
5, 63552, Note_off_c, 3, 36, 0
5, 63552, Note_off_c, 3, 48, 0
5, 64080, Note_on_c, 3, 41, 45
5, 64200, Note_off_c, 3, 41, 0
5, 64320, Note_on_c, 3, 41, 47
5, 64512, Note_off_c, 3, 41, 0
5, 66000, Note_on_c, 3, 41, 41
5, 66120, Note_off_c, 3, 41, 0
5, 66240, Note_on_c, 3, 40, 42
5, 66432, Note_off_c, 3, 40, 0
5, 68160, Note_on_c, 3, 53, 42
5, 68640, Note_off_c, 3, 53, 0
5, 68640, Note_on_c, 3, 55, 46
5, 69120, Note_off_c, 3, 55, 0
5, 69120, Note_on_c, 3, 57, 49
5, 69600, Note_off_c, 3, 57, 0
5, 69600, Note_on_c, 3, 58, 52
5, 70080, Note_off_c, 3, 58, 0
5, 70080, Note_on_c, 3, 60, 59
5, 70560, Note_off_c, 3, 60, 0
5, 70560, Note_on_c, 3, 63, 57
5, 71040, Note_off_c, 3, 63, 0
5, 71040, Note_on_c, 3, 62, 56
5, 71400, Note_off_c, 3, 62, 0
5, 72000, Note_on_c, 3, 62, 52
5, 72480, Note_off_c, 3, 62, 0
5, 72480, Note_on_c, 3, 64, 50
5, 72960, Note_off_c, 3, 64, 0
5, 73200, Note_on_c, 3, 65, 47
5, 73440, Note_off_c, 3, 65, 0
5, 73440, Note_on_c, 3, 58, 47
5, 73920, Note_off_c, 3, 58, 0
5, 73920, Note_on_c, 3, 60, 45
5, 74400, Note_off_c, 3, 60, 0
5, 74400, Note_on_c, 3, 60, 43
5, 74880, Note_off_c, 3, 60, 0
5, 74880, Note_on_c, 3, 65, 41
5, 75240, Note_off_c, 3, 65, 0
5, 75600, Note_on_c, 3, 41, 44
5, 75720, Note_off_c, 3, 41, 0
5, 75840, Note_on_c, 3, 41, 47
5, 76032, Note_off_c, 3, 41, 0
5, 77520, Note_on_c, 3, 41, 50
5, 77640, Note_off_c, 3, 41, 0
5, 77760, Note_on_c, 3, 41, 53
5, 77952, Note_off_c, 3, 41, 0
5, 79440, Note_on_c, 3, 53, 78
5, 79680, Note_off_c, 3, 53, 0
5, 79680, Note_on_c, 3, 52, 79
5, 79800, Note_off_c, 3, 52, 0
5, 79920, Note_on_c, 3, 53, 80
5, 80160, Note_off_c, 3, 53, 0
5, 80160, Note_on_c, 3, 52, 81
5, 80280, Note_off_c, 3, 52, 0
5, 80400, Note_on_c, 3, 53, 83
5, 80520, Note_off_c, 3, 53, 0
5, 80640, Note_on_c, 3, 52, 79
5, 80880, Note_off_c, 3, 52, 0
5, 81360, Note_on_c, 3, 43, 36
5, 81480, Note_off_c, 3, 43, 0
5, 81480, Note_on_c, 3, 47, 37
5, 81600, Note_off_c, 3, 47, 0
5, 81600, Note_on_c, 3, 48, 38
5, 81720, Note_off_c, 3, 48, 0
5, 81720, Note_on_c, 3, 52, 39
5, 81840, Note_off_c, 3, 52, 0
5, 81840, Note_on_c, 3, 43, 39
5, 81960, Note_off_c, 3, 43, 0
5, 81960, Note_on_c, 3, 47, 40
5, 82080, Note_off_c, 3, 47, 0
5, 82080, Note_on_c, 3, 48, 41
5, 82200, Note_off_c, 3, 48, 0
5, 82200, Note_on_c, 3, 52, 42
5, 82320, Note_off_c, 3, 52, 0
5, 82320, Note_on_c, 3, 43, 43
5, 82440, Note_off_c, 3, 43, 0
5, 82440, Note_on_c, 3, 47, 44
5, 82560, Note_off_c, 3, 47, 0
5, 82560, Note_on_c, 3, 48, 45
5, 82680, Note_off_c, 3, 48, 0
5, 82680, Note_on_c, 3, 52, 46
5, 82800, Note_off_c, 3, 52, 0
5, 82800, Note_on_c, 3, 43, 47
5, 82920, Note_off_c, 3, 43, 0
5, 82920, Note_on_c, 3, 47, 48
5, 83040, Note_off_c, 3, 47, 0
5, 83040, Note_on_c, 3, 48, 49
5, 83160, Note_off_c, 3, 48, 0
5, 83160, Note_on_c, 3, 52, 49
5, 83280, Note_off_c, 3, 52, 0
5, 83280, Note_on_c, 3, 43, 50
5, 83400, Note_off_c, 3, 43, 0
5, 83400, Note_on_c, 3, 47, 51
5, 83520, Note_off_c, 3, 47, 0
5, 83520, Note_on_c, 3, 48, 52
5, 83640, Note_off_c, 3, 48, 0
5, 83640, Note_on_c, 3, 52, 53
5, 83760, Note_off_c, 3, 52, 0
5, 83760, Note_on_c, 3, 43, 55
5, 83880, Note_off_c, 3, 43, 0
5, 83880, Note_on_c, 3, 47, 51
5, 84000, Note_off_c, 3, 47, 0
5, 84000, Note_on_c, 3, 48, 50
5, 84120, Note_off_c, 3, 48, 0
5, 84120, Note_on_c, 3, 52, 49
5, 84240, Note_off_c, 3, 52, 0
5, 84240, Note_on_c, 3, 43, 48
5, 84360, Note_off_c, 3, 43, 0
5, 84360, Note_on_c, 3, 48, 48
5, 84480, Note_off_c, 3, 48, 0
5, 84480, Note_on_c, 3, 50, 47
5, 84600, Note_off_c, 3, 50, 0
5, 84600, Note_on_c, 3, 53, 46
5, 84720, Note_off_c, 3, 53, 0
5, 84720, Note_on_c, 3, 43, 45
5, 84840, Note_off_c, 3, 43, 0
5, 84840, Note_on_c, 3, 49, 44
5, 84960, Note_off_c, 3, 49, 0
5, 84960, Note_on_c, 3, 50, 43
5, 85080, Note_off_c, 3, 50, 0
5, 85080, Note_on_c, 3, 53, 42
5, 85200, Note_off_c, 3, 53, 0
5, 85200, Note_on_c, 3, 43, 42
5, 85320, Note_off_c, 3, 43, 0
5, 85320, Note_on_c, 3, 49, 41
5, 85440, Note_off_c, 3, 49, 0
5, 85440, Note_on_c, 3, 50, 38
5, 85560, Note_off_c, 3, 50, 0
5, 85560, Note_on_c, 3, 53, 39
5, 85680, Note_off_c, 3, 53, 0
5, 85680, Note_on_c, 3, 43, 39
5, 85800, Note_off_c, 3, 43, 0
5, 85800, Note_on_c, 3, 49, 40
5, 85920, Note_off_c, 3, 49, 0
5, 85920, Note_on_c, 3, 50, 41
5, 86040, Note_off_c, 3, 50, 0
5, 86040, Note_on_c, 3, 53, 41
5, 86160, Note_off_c, 3, 53, 0
5, 86160, Note_on_c, 3, 43, 42
5, 86280, Note_off_c, 3, 43, 0
5, 86280, Note_on_c, 3, 49, 43
5, 86400, Note_off_c, 3, 49, 0
5, 86400, Note_on_c, 3, 50, 44
5, 86520, Note_off_c, 3, 50, 0
5, 86520, Note_on_c, 3, 53, 44
5, 86640, Note_off_c, 3, 53, 0
5, 86640, Note_on_c, 3, 43, 45
5, 86760, Note_off_c, 3, 43, 0
5, 86760, Note_on_c, 3, 49, 46
5, 86880, Note_off_c, 3, 49, 0
5, 86880, Note_on_c, 3, 50, 47
5, 87000, Note_off_c, 3, 50, 0
5, 87000, Note_on_c, 3, 53, 47
5, 87120, Note_off_c, 3, 53, 0
5, 87120, Note_on_c, 3, 43, 48
5, 87240, Note_off_c, 3, 43, 0
5, 87240, Note_on_c, 3, 49, 49
5, 87360, Note_off_c, 3, 49, 0
5, 87360, Note_on_c, 3, 50, 49
5, 87480, Note_off_c, 3, 50, 0
5, 87480, Note_on_c, 3, 53, 50
5, 87600, Note_off_c, 3, 53, 0
5, 87600, Note_on_c, 3, 43, 54
5, 87720, Note_off_c, 3, 43, 0
5, 87720, Note_on_c, 3, 49, 52
5, 87840, Note_off_c, 3, 49, 0
5, 87840, Note_on_c, 3, 50, 48
5, 87960, Note_off_c, 3, 50, 0
5, 87960, Note_on_c, 3, 53, 47
5, 88080, Note_off_c, 3, 53, 0
5, 88080, Note_on_c, 3, 43, 47
5, 88200, Note_off_c, 3, 43, 0
5, 88200, Note_on_c, 3, 50, 46
5, 88320, Note_off_c, 3, 50, 0
5, 88320, Note_on_c, 3, 52, 45
5, 88440, Note_off_c, 3, 52, 0
5, 88440, Note_on_c, 3, 55, 44
5, 88560, Note_off_c, 3, 55, 0
5, 88560, Note_on_c, 3, 48, 43
5, 88680, Note_off_c, 3, 48, 0
5, 88680, Note_on_c, 3, 51, 43
5, 88800, Note_off_c, 3, 51, 0
5, 88800, Note_on_c, 3, 52, 42
5, 88920, Note_off_c, 3, 52, 0
5, 88920, Note_on_c, 3, 55, 41
5, 89040, Note_off_c, 3, 55, 0
5, 89040, Note_on_c, 3, 52, 40
5, 89160, Note_off_c, 3, 52, 0
5, 89160, Note_on_c, 3, 50, 40
5, 89280, Note_off_c, 3, 50, 0
5, 89280, Note_on_c, 3, 48, 84
5, 89400, Note_off_c, 3, 48, 0
5, 89400, Note_on_c, 3, 60, 84
5, 89520, Note_off_c, 3, 60, 0
5, 89520, Note_on_c, 3, 64, 85
5, 89640, Note_off_c, 3, 64, 0
5, 89640, Note_on_c, 3, 62, 86
5, 89760, Note_off_c, 3, 62, 0
5, 89760, Note_on_c, 3, 60, 87
5, 89880, Note_off_c, 3, 60, 0
5, 89880, Note_on_c, 3, 64, 88
5, 90000, Note_off_c, 3, 64, 0
5, 90000, Note_on_c, 3, 60, 88
5, 90120, Note_off_c, 3, 60, 0
5, 90120, Note_on_c, 3, 59, 89
5, 90240, Note_off_c, 3, 59, 0
5, 90240, Note_on_c, 3, 57, 90
5, 90360, Note_off_c, 3, 57, 0
5, 90360, Note_on_c, 3, 60, 91
5, 90480, Note_off_c, 3, 60, 0
5, 90480, Note_on_c, 3, 57, 91
5, 90600, Note_off_c, 3, 57, 0
5, 90600, Note_on_c, 3, 55, 92
5, 90720, Note_off_c, 3, 55, 0
5, 90720, Note_on_c, 3, 54, 93
5, 90840, Note_off_c, 3, 54, 0
5, 90840, Note_on_c, 3, 57, 94
5, 90960, Note_off_c, 3, 57, 0
5, 90960, Note_on_c, 3, 54, 95
5, 91080, Note_off_c, 3, 54, 0
5, 91080, Note_on_c, 3, 52, 95
5, 91200, Note_off_c, 3, 52, 0
5, 91200, Note_on_c, 3, 50, 96
5, 91320, Note_off_c, 3, 50, 0
5, 91320, Note_on_c, 3, 52, 97
5, 91440, Note_off_c, 3, 52, 0
5, 91440, Note_on_c, 3, 54, 98
5, 91560, Note_off_c, 3, 54, 0
5, 91560, Note_on_c, 3, 55, 98
5, 91680, Note_off_c, 3, 55, 0
5, 91680, Note_on_c, 3, 57, 99
5, 91800, Note_off_c, 3, 57, 0
5, 91800, Note_on_c, 3, 50, 92
5, 91920, Note_off_c, 3, 50, 0
5, 91920, Note_on_c, 3, 52, 90
5, 92040, Note_off_c, 3, 52, 0
5, 92040, Note_on_c, 3, 54, 88
5, 92160, Note_off_c, 3, 54, 0
5, 92160, Note_on_c, 3, 55, 86
5, 92640, Note_off_c, 3, 55, 0
5, 92640, Note_on_c, 3, 57, 57
5, 93110, Note_off_c, 3, 57, 0
5, 93120, Note_on_c, 3, 55, 55
5, 93600, Note_off_c, 3, 55, 0
5, 93600, Note_on_c, 3, 54, 54
5, 94080, Note_off_c, 3, 54, 0
5, 94080, Note_on_c, 3, 55, 53
5, 94560, Note_off_c, 3, 55, 0
5, 94560, Note_on_c, 3, 57, 52
5, 95015, Note_off_c, 3, 57, 0
5, 95040, Note_on_c, 3, 55, 51
5, 95520, Note_off_c, 3, 55, 0
5, 95520, Note_on_c, 3, 54, 50
5, 96000, Note_off_c, 3, 54, 0
5, 96000, Note_on_c, 3, 55, 49
5, 96480, Note_off_c, 3, 55, 0
5, 96480, Note_on_c, 3, 54, 48
5, 96960, Note_off_c, 3, 54, 0
5, 96960, Note_on_c, 3, 55, 47
5, 97440, Note_off_c, 3, 55, 0
5, 97440, Note_on_c, 3, 54, 46
5, 97920, Note_off_c, 3, 54, 0
5, 97920, Note_on_c, 3, 55, 45
5, 98160, Note_off_c, 3, 55, 0
5, 99840, Note_on_c, 3, 65, 52
5, 100080, Note_off_c, 3, 65, 0
5, 100080, Note_on_c, 3, 62, 49
5, 100200, Note_off_c, 3, 62, 0
5, 100320, Note_on_c, 3, 59, 48
5, 100440, Note_off_c, 3, 59, 0
5, 100560, Note_on_c, 3, 60, 47
5, 100680, Note_off_c, 3, 60, 0
5, 100800, Note_on_c, 3, 65, 50
5, 101040, Note_off_c, 3, 65, 0
5, 101040, Note_on_c, 3, 62, 46
5, 101160, Note_off_c, 3, 62, 0
5, 101280, Note_on_c, 3, 59, 46
5, 101400, Note_off_c, 3, 59, 0
5, 101520, Note_on_c, 3, 60, 45
5, 101640, Note_off_c, 3, 60, 0
5, 101760, Note_on_c, 3, 53, 47
5, 101880, Note_off_c, 3, 53, 0
5, 102240, Note_on_c, 3, 55, 43
5, 102360, Note_off_c, 3, 55, 0
5, 102720, Note_on_c, 3, 48, 42
5, 102876, Note_off_c, 3, 48, 0
5, 103440, Note_on_c, 3, 63, 91
5, 103560, Note_off_c, 3, 63, 0
5, 103680, Note_on_c, 3, 65, 95
5, 103920, Note_off_c, 3, 65, 0
5, 103920, Note_on_c, 3, 62, 90
5, 104040, Note_off_c, 3, 62, 0
5, 104160, Note_on_c, 3, 59, 90
5, 104280, Note_off_c, 3, 59, 0
5, 104400, Note_on_c, 3, 60, 89
5, 104520, Note_off_c, 3, 60, 0
5, 104640, Note_on_c, 3, 65, 94
5, 104880, Note_off_c, 3, 65, 0
5, 104880, Note_on_c, 3, 62, 88
5, 105000, Note_off_c, 3, 62, 0
5, 105120, Note_on_c, 3, 59, 87
5, 105240, Note_off_c, 3, 59, 0
5, 105360, Note_on_c, 3, 60, 87
5, 105480, Note_off_c, 3, 60, 0
5, 105600, Note_on_c, 3, 53, 93
5, 105720, Note_off_c, 3, 53, 0
5, 106080, Note_on_c, 3, 55, 88
5, 106200, Note_off_c, 3, 55, 0
5, 106560, Note_on_c, 3, 56, 82
5, 106680, Note_off_c, 3, 56, 0
5, 107520, Note_on_c, 3, 54, 47
5, 107640, Note_off_c, 3, 54, 0
5, 108480, Note_on_c, 3, 53, 48
5, 108600, Note_off_c, 3, 53, 0
5, 108720, Note_on_c, 3, 47, 50
5, 108840, Note_off_c, 3, 47, 0
5, 108960, Note_on_c, 3, 48, 51
5, 109080, Note_off_c, 3, 48, 0
5, 109200, Note_on_c, 3, 43, 53
5, 109320, Note_off_c, 3, 43, 0
5, 109440, Note_on_c, 3, 50, 55
5, 109560, Note_off_c, 3, 50, 0
5, 109680, Note_on_c, 3, 43, 57
5, 109800, Note_off_c, 3, 43, 0
5, 109920, Note_on_c, 3, 48, 59
5, 110040, Note_off_c, 3, 48, 0
5, 110160, Note_on_c, 3, 43, 60
5, 110280, Note_off_c, 3, 43, 0
5, 110400, Note_on_c, 3, 50, 62
5, 110520, Note_off_c, 3, 50, 0
5, 110640, Note_on_c, 3, 53, 64
5, 110760, Note_off_c, 3, 53, 0
5, 110880, Note_on_c, 3, 52, 66
5, 111000, Note_off_c, 3, 52, 0
5, 111120, Note_on_c, 3, 48, 67
5, 111240, Note_off_c, 3, 48, 0
5, 111360, Note_on_c, 3, 50, 69
5, 111480, Note_off_c, 3, 50, 0
5, 111600, Note_on_c, 3, 53, 71
5, 111720, Note_off_c, 3, 53, 0
5, 111840, Note_on_c, 3, 52, 73
5, 111960, Note_off_c, 3, 52, 0
5, 112080, Note_on_c, 3, 48, 75
5, 112200, Note_off_c, 3, 48, 0
5, 112320, Note_on_c, 3, 41, 76
5, 112440, Note_off_c, 3, 41, 0
5, 112800, Note_on_c, 3, 53, 80
5, 112920, Note_off_c, 3, 53, 0
5, 114480, Note_on_c, 3, 62, 84
5, 114960, Note_on_c, 3, 64, 76
5, 114982, Note_off_c, 3, 62, 0
5, 115080, Note_off_c, 3, 64, 0
5, 115080, Note_on_c, 3, 65, 75
5, 115200, Note_off_c, 3, 65, 0
5, 115200, Note_on_c, 3, 67, 79
5, 115440, Note_off_c, 3, 67, 0
5, 115680, Note_on_c, 3, 65, 72
5, 115680, Note_on_c, 3, 55, 72
5, 115680, Note_on_c, 3, 59, 72
5, 115680, Note_on_c, 3, 62, 72
5, 115920, Note_off_c, 3, 62, 0
5, 115920, Note_off_c, 3, 59, 0
5, 115920, Note_off_c, 3, 55, 0
5, 115920, Note_off_c, 3, 65, 0
5, 116160, Note_on_c, 3, 60, 46
5, 116400, Note_off_c, 3, 60, 0
5, 116400, Note_on_c, 3, 60, 47
5, 116640, Note_off_c, 3, 60, 0
5, 116640, Note_on_c, 3, 60, 48
5, 116880, Note_off_c, 3, 60, 0
5, 116880, Note_on_c, 3, 60, 49
5, 117120, Note_off_c, 3, 60, 0
5, 117120, Note_on_c, 3, 60, 50
5, 117360, Note_off_c, 3, 60, 0
5, 117360, Note_on_c, 3, 60, 51
5, 117600, Note_off_c, 3, 60, 0
5, 117600, Note_on_c, 3, 60, 52
5, 117840, Note_off_c, 3, 60, 0
5, 117840, Note_on_c, 3, 60, 53
5, 118080, Note_off_c, 3, 60, 0
5, 118080, Note_on_c, 3, 53, 54
5, 118320, Note_off_c, 3, 53, 0
5, 118320, Note_on_c, 3, 53, 55
5, 118560, Note_off_c, 3, 53, 0
5, 118560, Note_on_c, 3, 54, 75
5, 118800, Note_off_c, 3, 54, 0
5, 118800, Note_on_c, 3, 54, 74
5, 119040, Note_off_c, 3, 54, 0
5, 119040, Note_on_c, 3, 55, 73
5, 119280, Note_off_c, 3, 55, 0
5, 119280, Note_on_c, 3, 55, 72
5, 119520, Note_off_c, 3, 55, 0
5, 119520, Note_on_c, 3, 55, 71
5, 119760, Note_off_c, 3, 55, 0
5, 119760, Note_on_c, 3, 55, 70
5, 120000, Note_off_c, 3, 55, 0
5, 120000, Note_on_c, 3, 48, 67
5, 120240, Note_off_c, 3, 48, 0
5, 120240, Note_on_c, 3, 48, 59
5, 120480, Note_off_c, 3, 48, 0
5, 120480, Note_on_c, 3, 48, 46
5, 120720, Note_off_c, 3, 48, 0
5, 120720, Note_on_c, 3, 48, 47
5, 120960, Note_off_c, 3, 48, 0
5, 120960, Note_on_c, 3, 48, 48
5, 121200, Note_off_c, 3, 48, 0
5, 121200, Note_on_c, 3, 48, 49
5, 121440, Note_off_c, 3, 48, 0
5, 121440, Note_on_c, 3, 52, 50
5, 121680, Note_off_c, 3, 52, 0
5, 121680, Note_on_c, 3, 52, 51
5, 121920, Note_off_c, 3, 52, 0
5, 121920, Note_on_c, 3, 53, 52
5, 122160, Note_off_c, 3, 53, 0
5, 122160, Note_on_c, 3, 53, 53
5, 122400, Note_off_c, 3, 53, 0
5, 122400, Note_on_c, 3, 54, 69
5, 122640, Note_off_c, 3, 54, 0
5, 122640, Note_on_c, 3, 54, 69
5, 122880, Note_off_c, 3, 54, 0
5, 122880, Note_on_c, 3, 55, 69
5, 123120, Note_off_c, 3, 55, 0
5, 123120, Note_on_c, 3, 55, 69
5, 123360, Note_off_c, 3, 55, 0
5, 123360, Note_on_c, 3, 55, 69
5, 123600, Note_off_c, 3, 55, 0
5, 123600, Note_on_c, 3, 55, 68
5, 123840, Note_off_c, 3, 55, 0
5, 123840, Note_on_c, 3, 48, 68
5, 124080, Note_off_c, 3, 48, 0
5, 124080, Note_on_c, 3, 48, 68
5, 124320, Note_off_c, 3, 48, 0
5, 124320, Note_on_c, 3, 48, 68
5, 124560, Note_off_c, 3, 48, 0
5, 124560, Note_on_c, 3, 48, 72
5, 124800, Note_off_c, 3, 48, 0
5, 124800, Note_on_c, 3, 43, 76
5, 125040, Note_off_c, 3, 43, 0
5, 125040, Note_on_c, 3, 43, 81
5, 125280, Note_off_c, 3, 43, 0
5, 125280, Note_on_c, 3, 43, 85
5, 125520, Note_off_c, 3, 43, 0
5, 125520, Note_on_c, 3, 43, 88
5, 125760, Note_off_c, 3, 43, 0
5, 125760, Note_on_c, 3, 48, 95
5, 125880, Note_off_c, 3, 48, 0
5, 126240, Note_on_c, 3, 43, 95
5, 126240, Note_on_c, 3, 55, 95
5, 126360, Note_off_c, 3, 55, 0
5, 126360, Note_off_c, 3, 43, 0
5, 126720, Note_on_c, 3, 36, 95
5, 126720, Note_on_c, 3, 48, 95
5, 126912, Note_off_c, 3, 48, 0
5, 126912, Note_off_c, 3, 36, 0
5, 127680, Control_c, 3, 64, 0
5, 127680, Note_on_c, 3, 45, 49
5, 127680, Note_on_c, 3, 57, 49
5, 127800, Note_off_c, 3, 57, 0
5, 127800, Note_off_c, 3, 45, 0
5, 128160, Note_on_c, 3, 40, 48
5, 128160, Note_on_c, 3, 52, 48
5, 128280, Note_off_c, 3, 52, 0
5, 128280, Note_off_c, 3, 40, 0
5, 128640, Note_on_c, 3, 45, 46
5, 128640, Note_on_c, 3, 33, 46
5, 128832, Note_off_c, 3, 33, 0
5, 128832, Note_off_c, 3, 45, 0
5, 129600, Note_on_c, 3, 62, 61
5, 129720, Note_off_c, 3, 62, 0
5, 130080, Note_on_c, 3, 57, 60
5, 130200, Note_off_c, 3, 57, 0
5, 130560, Note_on_c, 3, 50, 59
5, 130680, Note_off_c, 3, 50, 0
5, 131520, Note_on_c, 3, 57, 58
5, 131640, Note_off_c, 3, 57, 0
5, 132000, Note_on_c, 3, 52, 57
5, 132120, Note_off_c, 3, 52, 0
5, 132480, Note_on_c, 3, 45, 56
5, 132600, Note_off_c, 3, 45, 0
5, 133520, Note_on_c, 3, 38, 79
5, 133600, Note_off_c, 3, 38, 0
5, 133600, Note_on_c, 3, 40, 79
5, 133680, Note_off_c, 3, 40, 0
5, 133680, Note_on_c, 3, 41, 79
5, 133760, Note_off_c, 3, 41, 0
5, 133760, Note_on_c, 3, 40, 79
5, 133840, Note_off_c, 3, 40, 0
5, 133840, Note_on_c, 3, 38, 78
5, 133920, Note_off_c, 3, 38, 0
5, 133920, Note_on_c, 3, 45, 78
5, 134000, Note_off_c, 3, 45, 0
5, 134000, Note_on_c, 3, 47, 78
5, 134080, Note_off_c, 3, 47, 0
5, 134080, Note_on_c, 3, 49, 78
5, 134160, Note_off_c, 3, 49, 0
5, 134160, Note_on_c, 3, 47, 78
5, 134240, Note_off_c, 3, 47, 0
5, 134240, Note_on_c, 3, 45, 77
5, 134320, Note_off_c, 3, 45, 0
5, 134320, Note_on_c, 3, 50, 77
5, 134400, Note_off_c, 3, 50, 0
5, 134480, Note_on_c, 3, 52, 77
5, 134560, Note_off_c, 3, 52, 0
5, 134640, Note_on_c, 3, 53, 76
5, 134720, Note_off_c, 3, 53, 0
5, 134720, Note_on_c, 3, 52, 76
5, 134800, Note_off_c, 3, 52, 0
5, 134800, Note_on_c, 3, 50, 76
5, 134880, Note_off_c, 3, 50, 0
5, 134880, Note_on_c, 3, 57, 76
5, 135000, Note_off_c, 3, 57, 0
5, 135000, Note_on_c, 3, 53, 76
5, 135120, Note_off_c, 3, 53, 0
5, 135120, Note_on_c, 3, 52, 75
5, 135240, Note_off_c, 3, 52, 0
5, 135240, Note_on_c, 3, 50, 75
5, 135360, Note_off_c, 3, 50, 0
5, 135440, Note_on_c, 3, 45, 74
5, 135520, Note_off_c, 3, 45, 0
5, 135520, Note_on_c, 3, 47, 74
5, 135600, Note_off_c, 3, 47, 0
5, 135600, Note_on_c, 3, 49, 74
5, 135680, Note_off_c, 3, 49, 0
5, 135680, Note_on_c, 3, 47, 74
5, 135760, Note_off_c, 3, 47, 0
5, 135760, Note_on_c, 3, 45, 74
5, 135840, Note_off_c, 3, 45, 0
5, 135920, Note_on_c, 3, 52, 73
5, 136000, Note_off_c, 3, 52, 0
5, 136000, Note_on_c, 3, 54, 73
5, 136080, Note_off_c, 3, 54, 0
5, 136080, Note_on_c, 3, 56, 73
5, 136160, Note_off_c, 3, 56, 0
5, 136160, Note_on_c, 3, 54, 73
5, 136240, Note_off_c, 3, 54, 0
5, 136240, Note_on_c, 3, 52, 72
5, 136320, Note_off_c, 3, 52, 0
5, 136440, Note_on_c, 3, 56, 72
5, 136560, Note_off_c, 3, 56, 0
5, 136560, Note_on_c, 3, 57, 72
5, 136680, Note_off_c, 3, 57, 0
5, 136680, Note_on_c, 3, 58, 71
5, 136800, Note_off_c, 3, 58, 0
5, 136800, Note_on_c, 3, 57, 71
5, 136920, Note_off_c, 3, 57, 0
5, 136920, Note_on_c, 3, 55, 70
5, 137040, Note_off_c, 3, 55, 0
5, 137040, Note_on_c, 3, 53, 69
5, 137160, Note_off_c, 3, 53, 0
5, 137160, Note_on_c, 3, 52, 68
5, 137280, Note_off_c, 3, 52, 0
5, 137280, Note_on_c, 3, 38, 66
5, 138231, Note_off_c, 3, 38, 0
5, 138240, Note_on_c, 3, 40, 54
5, 139161, Note_off_c, 3, 40, 0
5, 139200, Note_on_c, 3, 41, 58
5, 140121, Note_off_c, 3, 41, 0
5, 140160, Note_on_c, 3, 37, 64
5, 141081, Note_off_c, 3, 37, 0
5, 141120, Note_on_c, 3, 50, 64
5, 141276, Note_off_c, 3, 50, 0
5, 141600, Note_on_c, 3, 48, 68
5, 141756, Note_off_c, 3, 48, 0
5, 142080, Note_on_c, 3, 47, 71
5, 142236, Note_off_c, 3, 47, 0
5, 142560, Note_on_c, 3, 42, 75
5, 142716, Note_off_c, 3, 42, 0
5, 143040, Note_on_c, 3, 43, 79
5, 143961, Note_off_c, 3, 43, 0
5, 144000, Note_on_c, 3, 45, 54
5, 144921, Note_off_c, 3, 45, 0
5, 144960, Note_on_c, 3, 46, 59
5, 145881, Note_off_c, 3, 46, 0
5, 145920, Note_on_c, 3, 54, 60
5, 146841, Note_off_c, 3, 54, 0
5, 146880, Note_on_c, 3, 55, 50
5, 147036, Note_off_c, 3, 55, 0
5, 147360, Note_on_c, 3, 53, 59
5, 147516, Note_off_c, 3, 53, 0
5, 147840, Note_on_c, 3, 51, 68
5, 147996, Note_off_c, 3, 51, 0
5, 148320, Note_on_c, 3, 47, 77
5, 148476, Note_off_c, 3, 47, 0
5, 148800, Note_on_c, 3, 48, 95
5, 148956, Note_off_c, 3, 48, 0
5, 149280, Note_on_c, 3, 46, 90
5, 149436, Note_off_c, 3, 46, 0
5, 149760, Note_on_c, 3, 45, 86
5, 149916, Note_off_c, 3, 45, 0
5, 150240, Note_on_c, 3, 41, 81
5, 150396, Note_off_c, 3, 41, 0
5, 150720, Note_on_c, 3, 46, 76
5, 151656, Note_off_c, 3, 46, 0
5, 151680, Note_on_c, 3, 48, 52
5, 152616, Note_off_c, 3, 48, 0
5, 152640, Note_on_c, 3, 50, 57
5, 153576, Note_off_c, 3, 50, 0
5, 153600, Note_on_c, 3, 57, 69
5, 154536, Note_off_c, 3, 57, 0
5, 154560, Note_on_c, 3, 70, 59
5, 154680, Note_off_c, 3, 70, 0
5, 155040, Note_on_c, 3, 65, 54
5, 155160, Note_off_c, 3, 65, 0
5, 155520, Note_on_c, 3, 58, 53
5, 155640, Note_off_c, 3, 58, 0
5, 156480, Note_on_c, 3, 65, 50
5, 156600, Note_off_c, 3, 65, 0
5, 156960, Note_on_c, 3, 60, 49
5, 157080, Note_off_c, 3, 60, 0
5, 157440, Note_on_c, 3, 53, 48
5, 157560, Note_off_c, 3, 53, 0
5, 158480, Note_on_c, 3, 46, 48
5, 158560, Note_off_c, 3, 46, 0
5, 158560, Note_on_c, 3, 48, 49
5, 158640, Note_off_c, 3, 48, 0
5, 158640, Note_on_c, 3, 49, 51
5, 158720, Note_off_c, 3, 49, 0
5, 158720, Note_on_c, 3, 48, 52
5, 158800, Note_off_c, 3, 48, 0
5, 158800, Note_on_c, 3, 46, 53
5, 158880, Note_off_c, 3, 46, 0
5, 158960, Note_on_c, 3, 46, 56
5, 159040, Note_off_c, 3, 46, 0
5, 159040, Note_on_c, 3, 48, 57
5, 159120, Note_off_c, 3, 48, 0
5, 159120, Note_on_c, 3, 49, 58
5, 159200, Note_off_c, 3, 49, 0
5, 159200, Note_on_c, 3, 48, 60
5, 159280, Note_off_c, 3, 48, 0
5, 159280, Note_on_c, 3, 46, 61
5, 159360, Note_off_c, 3, 46, 0
5, 159440, Note_on_c, 3, 46, 63
5, 159520, Note_off_c, 3, 46, 0
5, 159520, Note_on_c, 3, 48, 65
5, 159600, Note_off_c, 3, 48, 0
5, 159600, Note_on_c, 3, 49, 66
5, 159680, Note_off_c, 3, 49, 0
5, 159680, Note_on_c, 3, 48, 67
5, 159760, Note_off_c, 3, 48, 0
5, 159760, Note_on_c, 3, 46, 69
5, 159840, Note_off_c, 3, 46, 0
5, 159840, Note_on_c, 3, 53, 70
5, 159960, Note_off_c, 3, 53, 0
5, 159960, Note_on_c, 3, 49, 72
5, 160080, Note_off_c, 3, 49, 0
5, 160080, Note_on_c, 3, 48, 74
5, 160200, Note_off_c, 3, 48, 0
5, 160200, Note_on_c, 3, 46, 76
5, 160320, Note_off_c, 3, 46, 0
5, 160400, Note_on_c, 3, 41, 79
5, 160480, Note_off_c, 3, 41, 0
5, 160480, Note_on_c, 3, 43, 79
5, 160560, Note_off_c, 3, 43, 0
5, 160560, Note_on_c, 3, 45, 78
5, 160640, Note_off_c, 3, 45, 0
5, 160640, Note_on_c, 3, 43, 78
5, 160720, Note_off_c, 3, 43, 0
5, 160720, Note_on_c, 3, 41, 78
5, 160800, Note_off_c, 3, 41, 0
5, 160880, Note_on_c, 3, 45, 77
5, 160960, Note_off_c, 3, 45, 0
5, 160960, Note_on_c, 3, 46, 76
5, 161040, Note_off_c, 3, 46, 0
5, 161040, Note_on_c, 3, 48, 76
5, 161120, Note_off_c, 3, 48, 0
5, 161120, Note_on_c, 3, 46, 75
5, 161200, Note_off_c, 3, 46, 0
5, 161200, Note_on_c, 3, 45, 75
5, 161280, Note_off_c, 3, 45, 0
5, 161360, Note_on_c, 3, 48, 74
5, 161440, Note_off_c, 3, 48, 0
5, 161440, Note_on_c, 3, 49, 74
5, 161520, Note_off_c, 3, 49, 0
5, 161520, Note_on_c, 3, 51, 73
5, 161600, Note_off_c, 3, 51, 0
5, 161600, Note_on_c, 3, 49, 73
5, 161680, Note_off_c, 3, 49, 0
5, 161680, Note_on_c, 3, 48, 72
5, 161760, Note_off_c, 3, 48, 0
5, 161760, Note_on_c, 3, 53, 72
5, 161880, Note_off_c, 3, 53, 0
5, 161880, Note_on_c, 3, 51, 71
5, 162000, Note_off_c, 3, 51, 0
5, 162000, Note_on_c, 3, 49, 70
5, 162120, Note_off_c, 3, 49, 0
5, 162120, Note_on_c, 3, 48, 70
5, 162240, Note_off_c, 3, 48, 0
5, 162240, Note_on_c, 3, 58, 51
5, 162360, Note_off_c, 3, 58, 0
5, 162720, Note_on_c, 3, 53, 52
5, 162840, Note_off_c, 3, 53, 0
5, 163200, Note_on_c, 3, 46, 53
5, 163320, Note_off_c, 3, 46, 0
5, 164160, Note_on_c, 3, 48, 56
5, 164280, Note_off_c, 3, 48, 0
5, 164640, Note_on_c, 3, 43, 57
5, 164760, Note_off_c, 3, 43, 0
5, 165120, Note_on_c, 3, 36, 58
5, 165240, Note_off_c, 3, 36, 0
5, 166080, Note_on_c, 3, 53, 66
5, 166200, Note_off_c, 3, 53, 0
5, 166560, Note_on_c, 3, 48, 66
5, 166680, Note_off_c, 3, 48, 0
5, 167040, Note_on_c, 3, 41, 70
5, 167160, Note_off_c, 3, 41, 0
5, 168000, Note_on_c, 3, 49, 79
5, 168120, Note_off_c, 3, 49, 0
5, 168480, Note_on_c, 3, 44, 82
5, 168600, Note_off_c, 3, 44, 0
5, 168960, Note_on_c, 3, 37, 86
5, 169080, Note_off_c, 3, 37, 0
5, 169440, Note_on_c, 3, 36, 89
5, 169560, Note_off_c, 3, 36, 0
5, 169920, Note_on_c, 3, 35, 98
5, 170040, Note_off_c, 3, 35, 0
5, 170880, Note_on_c, 3, 34, 101
5, 171120, Note_off_c, 3, 34, 0
5, 171840, Note_on_c, 3, 33, 105
5, 172080, Note_off_c, 3, 33, 0
5, 173760, Note_on_c, 3, 45, 74
5, 173760, Note_on_c, 3, 33, 74
5, 174000, Note_off_c, 3, 33, 0
5, 174000, Note_off_c, 3, 45, 0
5, 174720, Note_on_c, 3, 45, 45
5, 174720, Note_on_c, 3, 33, 45
5, 174960, Note_off_c, 3, 33, 0
5, 174960, Note_off_c, 3, 45, 0
5, 176400, Note_on_c, 3, 50, 44
5, 176520, Note_off_c, 3, 50, 0
5, 176640, Note_on_c, 3, 50, 47
5, 176832, Note_off_c, 3, 50, 0
5, 178320, Note_on_c, 3, 50, 42
5, 178440, Note_off_c, 3, 50, 0
5, 178560, Note_on_c, 3, 49, 44
5, 178752, Note_off_c, 3, 49, 0
5, 180480, Note_on_c, 3, 50, 42
5, 180960, Note_off_c, 3, 50, 0
5, 180960, Note_on_c, 3, 52, 46
5, 181440, Note_off_c, 3, 52, 0
5, 181440, Note_on_c, 3, 54, 49
5, 181920, Note_off_c, 3, 54, 0
5, 181920, Note_on_c, 3, 55, 53
5, 182400, Note_off_c, 3, 55, 0
5, 182400, Note_on_c, 3, 57, 57
5, 182880, Note_off_c, 3, 57, 0
5, 182880, Note_on_c, 3, 60, 56
5, 183360, Note_off_c, 3, 60, 0
5, 183360, Note_on_c, 3, 59, 55
5, 183720, Note_off_c, 3, 59, 0
5, 184320, Note_on_c, 3, 59, 53
5, 184800, Note_off_c, 3, 59, 0
5, 184800, Note_on_c, 3, 61, 52
5, 185280, Note_off_c, 3, 61, 0
5, 185520, Note_on_c, 3, 62, 50
5, 185760, Note_off_c, 3, 62, 0
5, 185760, Note_on_c, 3, 55, 50
5, 186240, Note_off_c, 3, 55, 0
5, 186240, Note_on_c, 3, 57, 48
5, 186720, Note_off_c, 3, 57, 0
5, 186720, Note_on_c, 3, 57, 47
5, 187200, Note_off_c, 3, 57, 0
5, 187200, Note_on_c, 3, 62, 46
5, 187560, Note_off_c, 3, 62, 0
5, 188880, Note_on_c, 3, 50, 35
5, 189000, Note_off_c, 3, 50, 0
5, 189120, Note_on_c, 3, 55, 35
5, 189312, Note_off_c, 3, 55, 0
5, 190800, Note_on_c, 3, 55, 31
5, 190920, Note_off_c, 3, 55, 0
5, 191040, Note_on_c, 3, 48, 31
5, 191232, Note_off_c, 3, 48, 0
5, 194880, Note_on_c, 3, 53, 38
5, 195360, Note_off_c, 3, 53, 0
5, 195360, Note_on_c, 3, 55, 41
5, 195840, Note_off_c, 3, 55, 0
5, 195840, Note_on_c, 3, 57, 44
5, 196320, Note_off_c, 3, 57, 0
5, 196320, Note_on_c, 3, 58, 47
5, 196800, Note_off_c, 3, 58, 0
5, 196800, Note_on_c, 3, 60, 49
5, 197280, Note_off_c, 3, 60, 0
5, 197280, Note_on_c, 3, 63, 53
5, 197760, Note_off_c, 3, 63, 0
5, 197760, Note_on_c, 3, 62, 51
5, 198120, Note_off_c, 3, 62, 0
5, 198720, Note_on_c, 3, 62, 48
5, 199200, Note_off_c, 3, 62, 0
5, 199200, Note_on_c, 3, 64, 47
5, 199680, Note_off_c, 3, 64, 0
5, 199920, Note_on_c, 3, 65, 45
5, 200160, Note_off_c, 3, 65, 0
5, 200160, Note_on_c, 3, 58, 44
5, 200640, Note_off_c, 3, 58, 0
5, 200640, Note_on_c, 3, 60, 43
5, 201120, Note_off_c, 3, 60, 0
5, 201120, Note_on_c, 3, 60, 42
5, 201360, Note_off_c, 3, 60, 0
5, 201600, Note_on_c, 3, 41, 40
5, 201720, Note_off_c, 3, 41, 0
5, 201720, Note_on_c, 3, 45, 40
5, 201840, Note_off_c, 3, 45, 0
5, 201840, Note_on_c, 3, 36, 41
5, 201960, Note_off_c, 3, 36, 0
5, 201960, Note_on_c, 3, 40, 41
5, 202080, Note_off_c, 3, 40, 0
5, 202080, Note_on_c, 3, 41, 41
5, 202200, Note_off_c, 3, 41, 0
5, 202200, Note_on_c, 3, 45, 42
5, 202320, Note_off_c, 3, 45, 0
5, 202320, Note_on_c, 3, 36, 42
5, 202440, Note_off_c, 3, 36, 0
5, 202440, Note_on_c, 3, 40, 43
5, 202560, Note_off_c, 3, 40, 0
5, 202560, Note_on_c, 3, 41, 43
5, 202680, Note_off_c, 3, 41, 0
5, 202680, Note_on_c, 3, 45, 43
5, 202800, Note_off_c, 3, 45, 0
5, 202800, Note_on_c, 3, 36, 44
5, 202920, Note_off_c, 3, 36, 0
5, 202920, Note_on_c, 3, 40, 44
5, 203040, Note_off_c, 3, 40, 0
5, 203040, Note_on_c, 3, 41, 44
5, 203160, Note_off_c, 3, 41, 0
5, 203160, Note_on_c, 3, 45, 45
5, 203280, Note_off_c, 3, 45, 0
5, 203280, Note_on_c, 3, 36, 45
5, 203400, Note_off_c, 3, 36, 0
5, 203400, Note_on_c, 3, 40, 46
5, 203520, Note_off_c, 3, 40, 0
5, 203520, Note_on_c, 3, 41, 46
5, 203640, Note_off_c, 3, 41, 0
5, 203640, Note_on_c, 3, 45, 46
5, 203760, Note_off_c, 3, 45, 0
5, 203760, Note_on_c, 3, 36, 47
5, 203880, Note_off_c, 3, 36, 0
5, 203880, Note_on_c, 3, 40, 47
5, 204000, Note_off_c, 3, 40, 0
5, 204000, Note_on_c, 3, 41, 47
5, 204120, Note_off_c, 3, 41, 0
5, 204120, Note_on_c, 3, 45, 48
5, 204240, Note_off_c, 3, 45, 0
5, 204240, Note_on_c, 3, 36, 48
5, 204360, Note_off_c, 3, 36, 0
5, 204360, Note_on_c, 3, 40, 49
5, 204480, Note_off_c, 3, 40, 0
5, 204480, Note_on_c, 3, 41, 49
5, 204600, Note_off_c, 3, 41, 0
5, 204600, Note_on_c, 3, 45, 49
5, 204720, Note_off_c, 3, 45, 0
5, 204720, Note_on_c, 3, 36, 51
5, 204840, Note_off_c, 3, 36, 0
5, 204840, Note_on_c, 3, 40, 50
5, 204960, Note_off_c, 3, 40, 0
5, 204960, Note_on_c, 3, 41, 49
5, 205080, Note_off_c, 3, 41, 0
5, 205080, Note_on_c, 3, 45, 48
5, 205200, Note_off_c, 3, 45, 0
5, 205200, Note_on_c, 3, 36, 47
5, 205320, Note_off_c, 3, 36, 0
5, 205320, Note_on_c, 3, 41, 46
5, 205440, Note_off_c, 3, 41, 0
5, 205440, Note_on_c, 3, 43, 45
5, 205560, Note_off_c, 3, 43, 0
5, 205560, Note_on_c, 3, 46, 44
5, 205680, Note_off_c, 3, 46, 0
5, 205680, Note_on_c, 3, 36, 43
5, 205800, Note_off_c, 3, 36, 0
5, 205800, Note_on_c, 3, 42, 41
5, 205920, Note_off_c, 3, 42, 0
5, 205920, Note_on_c, 3, 43, 40
5, 206040, Note_off_c, 3, 43, 0
5, 206040, Note_on_c, 3, 46, 39
5, 206160, Note_off_c, 3, 46, 0
5, 206160, Note_on_c, 3, 36, 38
5, 206280, Note_off_c, 3, 36, 0
5, 206280, Note_on_c, 3, 42, 37
5, 206400, Note_off_c, 3, 42, 0
5, 206400, Note_on_c, 3, 43, 36
5, 206520, Note_off_c, 3, 43, 0
5, 206520, Note_on_c, 3, 46, 36
5, 206640, Note_off_c, 3, 46, 0
5, 206640, Note_on_c, 3, 36, 37
5, 206760, Note_off_c, 3, 36, 0
5, 206760, Note_on_c, 3, 42, 37
5, 206880, Note_off_c, 3, 42, 0
5, 206880, Note_on_c, 3, 43, 38
5, 207000, Note_off_c, 3, 43, 0
5, 207000, Note_on_c, 3, 46, 39
5, 207120, Note_off_c, 3, 46, 0
5, 207120, Note_on_c, 3, 36, 39
5, 207240, Note_off_c, 3, 36, 0
5, 207240, Note_on_c, 3, 42, 40
5, 207360, Note_off_c, 3, 42, 0
5, 207360, Note_on_c, 3, 43, 41
5, 207480, Note_off_c, 3, 43, 0
5, 207480, Note_on_c, 3, 46, 41
5, 207600, Note_off_c, 3, 46, 0
5, 207600, Note_on_c, 3, 36, 42
5, 207720, Note_off_c, 3, 36, 0
5, 207720, Note_on_c, 3, 42, 42
5, 207840, Note_off_c, 3, 42, 0
5, 207840, Note_on_c, 3, 43, 43
5, 207960, Note_off_c, 3, 43, 0
5, 207960, Note_on_c, 3, 46, 44
5, 208080, Note_off_c, 3, 46, 0
5, 208080, Note_on_c, 3, 36, 44
5, 208200, Note_off_c, 3, 36, 0
5, 208200, Note_on_c, 3, 42, 45
5, 208320, Note_off_c, 3, 42, 0
5, 208320, Note_on_c, 3, 43, 46
5, 208440, Note_off_c, 3, 43, 0
5, 208440, Note_on_c, 3, 46, 46
5, 208560, Note_off_c, 3, 46, 0
5, 208560, Note_on_c, 3, 36, 47
5, 208680, Note_off_c, 3, 36, 0
5, 208680, Note_on_c, 3, 42, 47
5, 208800, Note_off_c, 3, 42, 0
5, 208800, Note_on_c, 3, 43, 46
5, 208920, Note_off_c, 3, 43, 0
5, 208920, Note_on_c, 3, 46, 46
5, 209040, Note_off_c, 3, 46, 0
5, 209040, Note_on_c, 3, 36, 45
5, 209160, Note_off_c, 3, 36, 0
5, 209160, Note_on_c, 3, 43, 44
5, 209280, Note_off_c, 3, 43, 0
5, 209280, Note_on_c, 3, 45, 43
5, 209400, Note_off_c, 3, 45, 0
5, 209400, Note_on_c, 3, 48, 42
5, 209520, Note_off_c, 3, 48, 0
5, 209520, Note_on_c, 3, 41, 42
5, 209640, Note_off_c, 3, 41, 0
5, 209640, Note_on_c, 3, 44, 41
5, 209760, Note_off_c, 3, 44, 0
5, 209760, Note_on_c, 3, 45, 40
5, 209880, Note_off_c, 3, 45, 0
5, 209880, Note_on_c, 3, 48, 39
5, 210000, Note_off_c, 3, 48, 0
5, 210000, Note_on_c, 3, 45, 38
5, 210120, Note_off_c, 3, 45, 0
5, 210120, Note_on_c, 3, 43, 38
5, 210240, Note_off_c, 3, 43, 0
5, 210240, Note_on_c, 3, 48, 46
5, 210720, Note_on_c, 3, 53, 54
5, 211200, Note_on_c, 3, 56, 72
5, 211920, Note_off_c, 3, 56, 0
5, 211920, Note_off_c, 3, 53, 0
5, 211920, Note_off_c, 3, 48, 0
5, 211920, Note_on_c, 3, 53, 62
5, 211920, Note_on_c, 3, 56, 62
5, 212010, Note_off_c, 3, 56, 0
5, 212010, Note_off_c, 3, 53, 0
5, 212160, Note_on_c, 3, 56, 59
5, 212160, Note_on_c, 3, 53, 59
5, 212250, Note_off_c, 3, 53, 0
5, 212250, Note_off_c, 3, 56, 0
5, 212400, Note_on_c, 3, 53, 56
5, 212400, Note_on_c, 3, 56, 56
5, 212490, Note_off_c, 3, 56, 0
5, 212490, Note_off_c, 3, 53, 0
5, 212640, Note_on_c, 3, 53, 53
5, 212640, Note_on_c, 3, 56, 53
5, 212730, Note_off_c, 3, 56, 0
5, 212730, Note_off_c, 3, 53, 0
5, 212880, Note_on_c, 3, 56, 50
5, 212880, Note_on_c, 3, 53, 50
5, 212970, Note_off_c, 3, 53, 0
5, 212970, Note_off_c, 3, 56, 0
5, 213120, Note_on_c, 3, 55, 46
5, 213120, Note_on_c, 3, 58, 46
5, 213120, Note_on_c, 3, 51, 46
5, 213600, Note_off_c, 3, 51, 0
5, 213600, Note_off_c, 3, 58, 0
5, 213600, Note_off_c, 3, 55, 0
5, 214080, Note_on_c, 3, 51, 41
5, 214560, Note_on_c, 3, 55, 51
5, 215040, Note_on_c, 3, 58, 67
5, 215760, Note_off_c, 3, 58, 0
5, 215760, Note_off_c, 3, 55, 0
5, 215760, Note_off_c, 3, 51, 0
5, 215760, Note_on_c, 3, 61, 58
5, 215760, Note_on_c, 3, 58, 58
5, 215850, Note_off_c, 3, 58, 0
5, 215850, Note_off_c, 3, 61, 0
5, 216000, Note_on_c, 3, 61, 56
5, 216000, Note_on_c, 3, 58, 56
5, 216090, Note_off_c, 3, 58, 0
5, 216090, Note_off_c, 3, 61, 0
5, 216240, Note_on_c, 3, 61, 53
5, 216240, Note_on_c, 3, 58, 53
5, 216330, Note_off_c, 3, 58, 0
5, 216330, Note_off_c, 3, 61, 0
5, 216480, Note_on_c, 3, 58, 50
5, 216480, Note_on_c, 3, 61, 50
5, 216570, Note_off_c, 3, 61, 0
5, 216570, Note_off_c, 3, 58, 0
5, 216720, Note_on_c, 3, 61, 47
5, 216720, Note_on_c, 3, 58, 47
5, 216810, Note_off_c, 3, 58, 0
5, 216810, Note_off_c, 3, 61, 0
5, 216960, Note_on_c, 3, 60, 45
5, 216960, Note_on_c, 3, 56, 45
5, 217440, Note_off_c, 3, 56, 0
5, 217440, Note_off_c, 3, 60, 0
5, 217440, Note_on_c, 3, 63, 50
5, 217920, Note_off_c, 3, 63, 0
5, 217920, Note_on_c, 3, 62, 57
5, 218400, Note_off_c, 3, 62, 0
5, 218400, Note_on_c, 3, 61, 46
5, 218880, Note_off_c, 3, 61, 0
5, 218880, Note_on_c, 3, 48, 60
5, 219360, Note_off_c, 3, 48, 0
5, 219360, Note_on_c, 3, 47, 41
5, 219840, Note_off_c, 3, 47, 0
5, 219840, Note_on_c, 3, 48, 41
5, 220320, Note_off_c, 3, 48, 0
5, 220320, Note_on_c, 3, 50, 40
5, 220800, Note_off_c, 3, 50, 0
5, 220800, Note_on_c, 3, 48, 39
5, 221280, Note_off_c, 3, 48, 0
5, 221280, Note_on_c, 3, 47, 38
5, 221760, Note_off_c, 3, 47, 0
5, 221760, Note_on_c, 3, 48, 37
5, 222240, Note_off_c, 3, 48, 0
5, 222240, Note_on_c, 3, 50, 37
5, 222720, Note_off_c, 3, 50, 0
5, 222720, Note_on_c, 3, 48, 36
5, 223200, Note_off_c, 3, 48, 0
5, 223200, Note_on_c, 3, 50, 35
5, 223680, Note_off_c, 3, 50, 0
5, 223680, Note_on_c, 3, 48, 34
5, 224160, Note_off_c, 3, 48, 0
5, 224160, Note_on_c, 3, 50, 33
5, 224640, Note_off_c, 3, 50, 0
5, 224640, Note_on_c, 3, 48, 33
5, 225120, Note_off_c, 3, 48, 0
5, 226560, Note_on_c, 3, 58, 43
5, 226800, Note_off_c, 3, 58, 0
5, 226800, Note_on_c, 3, 55, 42
5, 226920, Note_off_c, 3, 55, 0
5, 227040, Note_on_c, 3, 52, 40
5, 227160, Note_off_c, 3, 52, 0
5, 227280, Note_on_c, 3, 53, 38
5, 227400, Note_off_c, 3, 53, 0
5, 227520, Note_on_c, 3, 58, 43
5, 227760, Note_off_c, 3, 58, 0
5, 227760, Note_on_c, 3, 55, 41
5, 227880, Note_off_c, 3, 55, 0
5, 228000, Note_on_c, 3, 52, 39
5, 228120, Note_off_c, 3, 52, 0
5, 228240, Note_on_c, 3, 53, 36
5, 228360, Note_off_c, 3, 53, 0
5, 228480, Note_on_c, 3, 46, 39
5, 228600, Note_off_c, 3, 46, 0
5, 228960, Note_on_c, 3, 48, 37
5, 229080, Note_off_c, 3, 48, 0
5, 229440, Note_on_c, 3, 41, 36
5, 229632, Note_off_c, 3, 41, 0
5, 230160, Note_on_c, 3, 68, 95
5, 230280, Note_off_c, 3, 68, 0
5, 230400, Note_on_c, 3, 70, 94
5, 230640, Note_off_c, 3, 70, 0
5, 230640, Note_on_c, 3, 67, 88
5, 230760, Note_off_c, 3, 67, 0
5, 230880, Note_on_c, 3, 64, 85
5, 231000, Note_off_c, 3, 64, 0
5, 231120, Note_on_c, 3, 65, 83
5, 231240, Note_off_c, 3, 65, 0
5, 231360, Note_on_c, 3, 70, 88
5, 231600, Note_off_c, 3, 70, 0
5, 231600, Note_on_c, 3, 67, 81
5, 231720, Note_off_c, 3, 67, 0
5, 231840, Note_on_c, 3, 64, 80
5, 231960, Note_off_c, 3, 64, 0
5, 232080, Note_on_c, 3, 65, 78
5, 232200, Note_off_c, 3, 65, 0
5, 232320, Note_on_c, 3, 58, 82
5, 232440, Note_off_c, 3, 58, 0
5, 232800, Note_on_c, 3, 60, 79
5, 232920, Note_off_c, 3, 60, 0
5, 233280, Note_on_c, 3, 61, 76
5, 233400, Note_off_c, 3, 61, 0
5, 234240, Note_on_c, 3, 47, 47
5, 234240, Note_on_c, 3, 35, 47
5, 234360, Note_off_c, 3, 35, 0
5, 234360, Note_off_c, 3, 47, 0
5, 235200, Note_on_c, 3, 46, 43
5, 235320, Note_off_c, 3, 46, 0
5, 235440, Note_on_c, 3, 40, 45
5, 235560, Note_off_c, 3, 40, 0
5, 235680, Note_on_c, 3, 41, 48
5, 235800, Note_off_c, 3, 41, 0
5, 235920, Note_on_c, 3, 36, 50
5, 236040, Note_off_c, 3, 36, 0
5, 236160, Note_on_c, 3, 43, 52
5, 236280, Note_off_c, 3, 43, 0
5, 236400, Note_on_c, 3, 36, 55
5, 236520, Note_off_c, 3, 36, 0
5, 236640, Note_on_c, 3, 41, 57
5, 236760, Note_off_c, 3, 41, 0
5, 236880, Note_on_c, 3, 36, 59
5, 237000, Note_off_c, 3, 36, 0
5, 237120, Note_on_c, 3, 43, 62
5, 237240, Note_off_c, 3, 43, 0
5, 237360, Note_on_c, 3, 46, 64
5, 237480, Note_off_c, 3, 46, 0
5, 237600, Note_on_c, 3, 45, 66
5, 237720, Note_off_c, 3, 45, 0
5, 237840, Note_on_c, 3, 41, 69
5, 237960, Note_off_c, 3, 41, 0
5, 238080, Note_on_c, 3, 43, 71
5, 238200, Note_off_c, 3, 43, 0
5, 238320, Note_on_c, 3, 46, 73
5, 238440, Note_off_c, 3, 46, 0
5, 238560, Note_on_c, 3, 45, 76
5, 238680, Note_off_c, 3, 45, 0
5, 238800, Note_on_c, 3, 41, 78
5, 238920, Note_off_c, 3, 41, 0
5, 239040, Note_on_c, 3, 46, 79
5, 239280, Note_off_c, 3, 46, 0
5, 239520, Note_on_c, 3, 58, 79
5, 239760, Note_off_c, 3, 58, 0
5, 241200, Note_on_c, 3, 55, 95
5, 241680, Note_off_c, 3, 55, 0
5, 241680, Note_on_c, 3, 57, 86
5, 241800, Note_off_c, 3, 57, 0
5, 241800, Note_on_c, 3, 58, 85
5, 241920, Note_off_c, 3, 58, 0
5, 241920, Note_on_c, 3, 60, 84
5, 242160, Note_off_c, 3, 60, 0
5, 242400, Note_on_c, 3, 48, 80
5, 242640, Note_off_c, 3, 48, 0
5, 242880, Note_on_c, 3, 53, 76
5, 243000, Note_off_c, 3, 53, 0
5, 243120, Note_on_c, 3, 65, 95
5, 243120, Note_on_c, 3, 62, 95
5, 243840, Note_off_c, 3, 62, 0
5, 243840, Note_off_c, 3, 65, 0
5, 243840, Note_on_c, 3, 60, 82
5, 244080, Note_off_c, 3, 60, 0
5, 244320, Note_on_c, 3, 60, 77
5, 244560, Note_off_c, 3, 60, 0
5, 244800, Note_on_c, 3, 53, 79
5, 245040, Note_off_c, 3, 53, 0
5, 245040, Note_on_c, 3, 53, 60
5, 245280, Note_off_c, 3, 53, 0
5, 245280, Note_on_c, 3, 53, 44
5, 245520, Note_off_c, 3, 53, 0
5, 245520, Note_on_c, 3, 53, 46
5, 245760, Note_off_c, 3, 53, 0
5, 245760, Note_on_c, 3, 53, 46
5, 246000, Note_off_c, 3, 53, 0
5, 246000, Note_on_c, 3, 53, 46
5, 246240, Note_off_c, 3, 53, 0
5, 246240, Note_on_c, 3, 57, 46
5, 246480, Note_off_c, 3, 57, 0
5, 246480, Note_on_c, 3, 57, 46
5, 246720, Note_off_c, 3, 57, 0
5, 246720, Note_on_c, 3, 58, 46
5, 246960, Note_off_c, 3, 58, 0
5, 246960, Note_on_c, 3, 58, 46
5, 247200, Note_off_c, 3, 58, 0
5, 247200, Note_on_c, 3, 59, 62
5, 247440, Note_off_c, 3, 59, 0
5, 247440, Note_on_c, 3, 59, 60
5, 247680, Note_off_c, 3, 59, 0
5, 247680, Note_on_c, 3, 60, 59
5, 247920, Note_off_c, 3, 60, 0
5, 247920, Note_on_c, 3, 60, 58
5, 248160, Note_off_c, 3, 60, 0
5, 248160, Note_on_c, 3, 60, 57
5, 248400, Note_off_c, 3, 60, 0
5, 248400, Note_on_c, 3, 60, 56
5, 248640, Note_off_c, 3, 60, 0
5, 248640, Note_on_c, 3, 53, 56
5, 248880, Note_off_c, 3, 53, 0
5, 248880, Note_on_c, 3, 53, 56
5, 249120, Note_off_c, 3, 53, 0
5, 249120, Note_on_c, 3, 53, 57
5, 249360, Note_off_c, 3, 53, 0
5, 249360, Note_on_c, 3, 53, 57
5, 249600, Note_off_c, 3, 53, 0
5, 249600, Note_on_c, 3, 53, 58
5, 249840, Note_off_c, 3, 53, 0
5, 249840, Note_on_c, 3, 53, 58
5, 250080, Note_off_c, 3, 53, 0
5, 250080, Note_on_c, 3, 57, 59
5, 250320, Note_off_c, 3, 57, 0
5, 250320, Note_on_c, 3, 57, 60
5, 250560, Note_off_c, 3, 57, 0
5, 250560, Note_on_c, 3, 58, 60
5, 250800, Note_off_c, 3, 58, 0
5, 250800, Note_on_c, 3, 58, 61
5, 251040, Note_off_c, 3, 58, 0
5, 251040, Note_on_c, 3, 59, 71
5, 251280, Note_off_c, 3, 59, 0
5, 251280, Note_on_c, 3, 59, 71
5, 251520, Note_off_c, 3, 59, 0
5, 251520, Note_on_c, 3, 60, 70
5, 251760, Note_off_c, 3, 60, 0
5, 251760, Note_on_c, 3, 60, 70
5, 252000, Note_off_c, 3, 60, 0
5, 252000, Note_on_c, 3, 60, 69
5, 252240, Note_off_c, 3, 60, 0
5, 252240, Note_on_c, 3, 60, 68
5, 252480, Note_off_c, 3, 60, 0
5, 252480, Note_on_c, 3, 53, 68
5, 252720, Note_off_c, 3, 53, 0
5, 252720, Note_on_c, 3, 53, 70
5, 252960, Note_off_c, 3, 53, 0
5, 252960, Note_on_c, 3, 53, 72
5, 253200, Note_off_c, 3, 53, 0
5, 253200, Note_on_c, 3, 53, 74
5, 253440, Note_off_c, 3, 53, 0
5, 253440, Note_on_c, 3, 48, 76
5, 253680, Note_off_c, 3, 48, 0
5, 253680, Note_on_c, 3, 48, 77
5, 253920, Note_off_c, 3, 48, 0
5, 253920, Note_on_c, 3, 48, 79
5, 254160, Note_off_c, 3, 48, 0
5, 254160, Note_on_c, 3, 48, 81
5, 254400, Note_off_c, 3, 48, 0
5, 254400, Note_on_c, 3, 41, 83
5, 254640, Note_off_c, 3, 41, 0
5, 254640, Note_on_c, 3, 41, 85
5, 254880, Note_off_c, 3, 41, 0
5, 254880, Note_on_c, 3, 41, 86
5, 255120, Note_off_c, 3, 41, 0
5, 255120, Note_on_c, 3, 41, 88
5, 255360, Note_off_c, 3, 41, 0
5, 255360, Note_on_c, 3, 36, 90
5, 255600, Note_off_c, 3, 36, 0
5, 255600, Note_on_c, 3, 36, 92
5, 255840, Note_off_c, 3, 36, 0
5, 255840, Note_on_c, 3, 36, 92
5, 256080, Note_off_c, 3, 36, 0
5, 256080, Note_on_c, 3, 36, 96
5, 256320, Note_off_c, 3, 36, 0
5, 256320, Note_on_c, 3, 41, 101
5, 256440, Note_off_c, 3, 41, 0
5, 256800, Note_on_c, 3, 48, 102
5, 256800, Note_on_c, 3, 36, 102
5, 256920, Note_off_c, 3, 36, 0
5, 256920, Note_off_c, 3, 48, 0
5, 257280, Note_on_c, 3, 41, 104
5, 257280, Note_on_c, 3, 29, 104
5, 257520, Note_off_c, 3, 29, 0
5, 257520, Note_off_c, 3, 41, 0
5, 258720, Control_c, 3, 64, 0
5, 259200, Control_c, 3, 64, 0
5, 259200, Note_on_c, 3, 36, 42
5, 259680, Note_off_c, 3, 36, 0
5, 259680, Note_on_c, 3, 41, 43
5, 260160, Note_off_c, 3, 41, 0
5, 260160, Note_on_c, 3, 44, 44
5, 260640, Note_off_c, 3, 44, 0
5, 260640, Note_on_c, 3, 40, 45
5, 261120, Note_off_c, 3, 40, 0
5, 261120, Note_on_c, 3, 41, 46
5, 261600, Note_off_c, 3, 41, 0
5, 261600, Note_on_c, 3, 44, 48
5, 262080, Note_off_c, 3, 44, 0
5, 262080, Note_on_c, 3, 48, 49
5, 262560, Note_off_c, 3, 48, 0
5, 262560, Note_on_c, 3, 49, 50
5, 263040, Note_off_c, 3, 49, 0
5, 263040, Note_on_c, 3, 46, 51
5, 263520, Note_off_c, 3, 46, 0
5, 263520, Note_on_c, 3, 52, 52
5, 264000, Note_off_c, 3, 52, 0
5, 264000, Note_on_c, 3, 53, 53
5, 264480, Note_off_c, 3, 53, 0
5, 264480, Note_on_c, 3, 48, 55
5, 264960, Note_off_c, 3, 48, 0
5, 264960, Note_on_c, 3, 55, 56
5, 265440, Note_off_c, 3, 55, 0
5, 265440, Note_on_c, 3, 56, 57
5, 265920, Note_off_c, 3, 56, 0
5, 265920, Note_on_c, 3, 53, 58
5, 266400, Note_off_c, 3, 53, 0
5, 266400, Note_on_c, 3, 55, 59
5, 266880, Note_off_c, 3, 55, 0
5, 266880, Note_on_c, 3, 56, 63
5, 267360, Note_on_c, 3, 53, 59
5, 267840, Note_off_c, 3, 53, 0
5, 267840, Note_off_c, 3, 56, 0
5, 267840, Note_on_c, 3, 49, 57
5, 268320, Note_off_c, 3, 49, 0
5, 268320, Note_on_c, 3, 51, 54
5, 268800, Note_off_c, 3, 51, 0
5, 268800, Note_on_c, 3, 39, 52
5, 269040, Note_off_c, 3, 39, 0
5, 269280, Note_on_c, 3, 39, 49
5, 269520, Note_off_c, 3, 39, 0
5, 269760, Note_on_c, 3, 44, 47
5, 270000, Note_off_c, 3, 44, 0
5, 270240, Note_on_c, 3, 32, 44
5, 270480, Note_off_c, 3, 32, 0
5, 270720, Control_c, 3, 64, 0
5, 270720, Control_c, 3, 7, 107
5, 270720, Note_on_c, 3, 36, 42
5, 271200, Note_off_c, 3, 36, 0
5, 271200, Note_on_c, 3, 41, 43
5, 271680, Note_off_c, 3, 41, 0
5, 271680, Note_on_c, 3, 44, 44
5, 272160, Note_off_c, 3, 44, 0
5, 272160, Note_on_c, 3, 40, 45
5, 272640, Note_off_c, 3, 40, 0
5, 272640, Note_on_c, 3, 41, 46
5, 273120, Note_off_c, 3, 41, 0
5, 273120, Note_on_c, 3, 44, 48
5, 273600, Note_off_c, 3, 44, 0
5, 273600, Note_on_c, 3, 48, 49
5, 274080, Note_off_c, 3, 48, 0
5, 274080, Note_on_c, 3, 49, 50
5, 274560, Note_off_c, 3, 49, 0
5, 274560, Note_on_c, 3, 46, 51
5, 275040, Note_off_c, 3, 46, 0
5, 275040, Note_on_c, 3, 52, 52
5, 275520, Note_off_c, 3, 52, 0
5, 275520, Note_on_c, 3, 53, 53
5, 276000, Note_off_c, 3, 53, 0
5, 276000, Note_on_c, 3, 48, 55
5, 276480, Note_off_c, 3, 48, 0
5, 276480, Note_on_c, 3, 55, 56
5, 276960, Note_off_c, 3, 55, 0
5, 276960, Note_on_c, 3, 56, 57
5, 277440, Note_off_c, 3, 56, 0
5, 277440, Note_on_c, 3, 53, 58
5, 277920, Note_off_c, 3, 53, 0
5, 277920, Note_on_c, 3, 55, 59
5, 278400, Note_off_c, 3, 55, 0
5, 278400, Note_on_c, 3, 56, 63
5, 278880, Note_on_c, 3, 53, 59
5, 279360, Note_off_c, 3, 53, 0
5, 279360, Note_off_c, 3, 56, 0
5, 279360, Note_on_c, 3, 49, 57
5, 279840, Note_off_c, 3, 49, 0
5, 279840, Note_on_c, 3, 51, 54
5, 280320, Note_off_c, 3, 51, 0
5, 280320, Note_on_c, 3, 39, 52
5, 280560, Note_off_c, 3, 39, 0
5, 280800, Note_on_c, 3, 39, 49
5, 281040, Note_off_c, 3, 39, 0
5, 281280, Note_on_c, 3, 44, 47
5, 281520, Note_off_c, 3, 44, 0
5, 281760, Note_on_c, 3, 32, 44
5, 282000, Note_off_c, 3, 32, 0
5, 282240, Control_c, 3, 64, 0
5, 282240, Control_c, 3, 7, 117
5, 283680, Note_on_c, 3, 56, 51
5, 283920, Note_off_c, 3, 56, 0
5, 284160, Note_on_c, 3, 58, 45
5, 285120, Note_off_c, 3, 58, 0
5, 285120, Note_on_c, 3, 58, 56
5, 285360, Note_off_c, 3, 58, 0
5, 285600, Note_on_c, 3, 58, 49
5, 286560, Note_off_c, 3, 58, 0
5, 286560, Note_on_c, 3, 58, 58
5, 286800, Note_off_c, 3, 58, 0
5, 287040, Note_on_c, 3, 60, 52
5, 288000, Note_off_c, 3, 60, 0
5, 288000, Note_on_c, 3, 60, 62
5, 288240, Note_off_c, 3, 60, 0
5, 288480, Note_on_c, 3, 60, 56
5, 289440, Note_off_c, 3, 60, 0
5, 289440, Note_on_c, 3, 60, 67
5, 289680, Note_off_c, 3, 60, 0
5, 289920, Note_on_c, 3, 61, 59
5, 290880, Note_off_c, 3, 61, 0
5, 290880, Note_on_c, 3, 61, 68
5, 291120, Note_off_c, 3, 61, 0
5, 291360, Note_on_c, 3, 61, 63
5, 292320, Note_off_c, 3, 61, 0
5, 292320, Note_on_c, 3, 61, 72
5, 292560, Note_off_c, 3, 61, 0
5, 292800, Note_on_c, 3, 60, 64
5, 293520, Note_off_c, 3, 60, 0
5, 299520, Note_on_c, 3, 72, 55
5, 300000, Note_off_c, 3, 72, 0
5, 300000, Note_on_c, 3, 73, 55
5, 300480, Note_off_c, 3, 73, 0
5, 300480, Note_on_c, 3, 70, 56
5, 300960, Note_off_c, 3, 70, 0
5, 300960, Note_on_c, 3, 76, 57
5, 301440, Note_off_c, 3, 76, 0
5, 301440, Note_on_c, 3, 77, 58
5, 301920, Note_off_c, 3, 77, 0
5, 301920, Note_on_c, 3, 72, 59
5, 302280, Note_off_c, 3, 72, 0
5, 302400, Note_on_c, 3, 60, 59
5, 302880, Note_off_c, 3, 60, 0
5, 302880, Note_on_c, 3, 61, 69
5, 303360, Note_off_c, 3, 61, 0
5, 303360, Note_on_c, 3, 58, 61
5, 303840, Note_off_c, 3, 58, 0
5, 303840, Note_on_c, 3, 64, 62
5, 304320, Note_off_c, 3, 64, 0
5, 304320, Note_on_c, 3, 61, 68
5, 304800, Note_off_c, 3, 61, 0
5, 304800, Note_on_c, 3, 58, 62
5, 305280, Note_off_c, 3, 58, 0
5, 305280, Note_on_c, 3, 64, 59
5, 305760, Note_off_c, 3, 64, 0
5, 305760, Note_on_c, 3, 60, 57
5, 306720, Note_off_c, 3, 60, 0
5, 306720, Note_on_c, 3, 60, 51
5, 307200, Note_off_c, 3, 60, 0
5, 307200, Note_on_c, 3, 53, 49
5, 307680, Note_off_c, 3, 53, 0
5, 308160, Note_on_c, 3, 48, 47
5, 308640, Note_off_c, 3, 48, 0
5, 308640, Note_on_c, 3, 49, 62
5, 309120, Note_off_c, 3, 49, 0
5, 309120, Note_on_c, 3, 46, 55
5, 309600, Note_off_c, 3, 46, 0
5, 309600, Note_on_c, 3, 52, 53
5, 310080, Note_off_c, 3, 52, 0
5, 310080, Note_on_c, 3, 49, 60
5, 310560, Note_off_c, 3, 49, 0
5, 310560, Note_on_c, 3, 46, 49
5, 311040, Note_off_c, 3, 46, 0
5, 311040, Note_on_c, 3, 52, 47
5, 311520, Note_off_c, 3, 52, 0
5, 311520, Note_on_c, 3, 48, 45
5, 312480, Note_off_c, 3, 48, 0
5, 312480, Note_on_c, 3, 48, 41
5, 312960, Note_off_c, 3, 48, 0
5, 312960, Note_on_c, 3, 41, 39
5, 313440, Note_off_c, 3, 41, 0
5, 314400, Note_on_c, 3, 48, 47
5, 317280, Note_off_c, 3, 48, 0
5, 317280, Note_on_c, 3, 48, 87
5, 318720, Note_off_c, 3, 48, 0
5, 318720, Note_on_c, 3, 53, 47
5, 319200, Note_off_c, 3, 53, 0
5, 320160, Note_on_c, 3, 60, 55
5, 322080, Note_off_c, 3, 60, 0
5, 322560, Note_on_c, 3, 48, 87
5, 322800, Note_off_c, 3, 48, 0
5, 323040, Note_on_c, 3, 41, 95
5, 323280, Note_off_c, 3, 41, 0
5, 324000, Note_on_c, 3, 37, 30
5, 324360, Note_off_c, 3, 37, 0
5, 324480, Note_on_c, 3, 37, 31
5, 325200, Note_off_c, 3, 37, 0
5, 325440, Note_on_c, 3, 37, 34
5, 325800, Note_off_c, 3, 37, 0
5, 325920, Note_on_c, 3, 37, 35
5, 326640, Note_off_c, 3, 37, 0
5, 326880, Note_on_c, 3, 37, 37
5, 327240, Note_off_c, 3, 37, 0
5, 327360, Note_on_c, 3, 37, 43
5, 330240, Note_off_c, 3, 37, 0
5, 330240, Note_on_c, 3, 36, 34
5, 330960, Note_off_c, 3, 36, 0
5, 331200, Note_on_c, 3, 36, 38
5, 331560, Note_off_c, 3, 36, 0
5, 331680, Note_on_c, 3, 36, 41
5, 332400, Note_off_c, 3, 36, 0
5, 332640, Note_on_c, 3, 36, 47
5, 333000, Note_off_c, 3, 36, 0
5, 333120, Note_on_c, 3, 37, 51
5, 335040, Note_off_c, 3, 37, 0
5, 336000, Note_on_c, 3, 49, 43
5, 336720, Note_off_c, 3, 49, 0
5, 336960, Note_on_c, 3, 49, 49
5, 337320, Note_off_c, 3, 49, 0
5, 337440, Note_on_c, 3, 48, 52
5, 338160, Note_off_c, 3, 48, 0
5, 338400, Note_on_c, 3, 48, 58
5, 338760, Note_off_c, 3, 48, 0
5, 338880, Note_on_c, 3, 46, 73
5, 340320, Note_off_c, 3, 46, 0
5, 340320, Note_on_c, 3, 46, 60
5, 341280, Note_off_c, 3, 46, 0
5, 341280, Note_on_c, 3, 48, 57
5, 341640, Note_off_c, 3, 48, 0
5, 341760, Note_on_c, 3, 49, 56
5, 342720, Note_off_c, 3, 49, 0
5, 342720, Note_on_c, 3, 50, 52
5, 343080, Note_off_c, 3, 50, 0
5, 343200, Note_on_c, 3, 51, 51
5, 344160, Note_off_c, 3, 51, 0
5, 344160, Note_on_c, 3, 51, 48
5, 344520, Note_off_c, 3, 51, 0
5, 344640, Note_on_c, 3, 44, 46
5, 346080, Note_off_c, 3, 44, 0
5, 346080, Note_on_c, 3, 44, 41
5, 346440, Note_off_c, 3, 44, 0
5, 348000, Note_on_c, 3, 37, 40
5, 348240, Note_off_c, 3, 37, 0
5, 349440, Note_on_c, 3, 37, 45
5, 349680, Note_off_c, 3, 37, 0
5, 350880, Note_on_c, 3, 49, 63
5, 351360, Note_off_c, 3, 49, 0
5, 351360, Note_on_c, 3, 51, 45
5, 351600, Note_off_c, 3, 51, 0
5, 351600, Note_on_c, 3, 53, 44
5, 351840, Note_off_c, 3, 53, 0
5, 351840, Note_on_c, 3, 54, 43
5, 352080, Note_off_c, 3, 54, 0
5, 352080, Note_on_c, 3, 53, 41
5, 352200, Note_off_c, 3, 53, 0
5, 352320, Note_on_c, 3, 51, 40
5, 352440, Note_off_c, 3, 51, 0
5, 352560, Note_on_c, 3, 49, 38
5, 352680, Note_off_c, 3, 49, 0
5, 352800, Note_on_c, 3, 48, 36
5, 352920, Note_off_c, 3, 48, 0
5, 353040, Note_on_c, 3, 46, 35
5, 353160, Note_off_c, 3, 46, 0
5, 353280, Note_on_c, 3, 45, 35
5, 353520, Note_off_c, 3, 45, 0
5, 353760, Note_on_c, 3, 45, 44
5, 354000, Note_off_c, 3, 45, 0
5, 355200, Note_on_c, 3, 45, 52
5, 355440, Note_off_c, 3, 45, 0
5, 356640, Note_on_c, 3, 45, 67
5, 357120, Note_off_c, 3, 45, 0
5, 357120, Note_on_c, 3, 46, 51
5, 357360, Note_off_c, 3, 46, 0
5, 357360, Note_on_c, 3, 48, 50
5, 357600, Note_off_c, 3, 48, 0
5, 357600, Note_on_c, 3, 49, 48
5, 357840, Note_off_c, 3, 49, 0
5, 357840, Note_on_c, 3, 48, 47
5, 357960, Note_off_c, 3, 48, 0
5, 358080, Note_on_c, 3, 46, 46
5, 358200, Note_off_c, 3, 46, 0
5, 358320, Note_on_c, 3, 44, 45
5, 358440, Note_off_c, 3, 44, 0
5, 358560, Note_on_c, 3, 43, 44
5, 358680, Note_off_c, 3, 43, 0
5, 358800, Note_on_c, 3, 41, 43
5, 358920, Note_off_c, 3, 41, 0
5, 359040, Note_on_c, 3, 40, 44
5, 359280, Note_off_c, 3, 40, 0
5, 359520, Note_on_c, 3, 40, 54
5, 359760, Note_off_c, 3, 40, 0
5, 360960, Note_on_c, 3, 40, 68
5, 361200, Note_off_c, 3, 40, 0
5, 362400, Note_on_c, 3, 40, 81
5, 362880, Note_off_c, 3, 40, 0
5, 362880, Note_on_c, 3, 41, 65
5, 363120, Note_off_c, 3, 41, 0
5, 363120, Note_on_c, 3, 43, 62
5, 363360, Note_off_c, 3, 43, 0
5, 363360, Note_on_c, 3, 44, 60
5, 363600, Note_off_c, 3, 44, 0
5, 363600, Note_on_c, 3, 43, 58
5, 363720, Note_off_c, 3, 43, 0
5, 363840, Note_on_c, 3, 41, 55
5, 363960, Note_off_c, 3, 41, 0
5, 364080, Note_on_c, 3, 39, 53
5, 364200, Note_off_c, 3, 39, 0
5, 364320, Note_on_c, 3, 37, 50
5, 364440, Note_off_c, 3, 37, 0
5, 364560, Note_on_c, 3, 36, 48
5, 364680, Note_off_c, 3, 36, 0
5, 364800, Note_on_c, 3, 37, 45
5, 365040, Note_off_c, 3, 37, 0
5, 365280, Note_on_c, 3, 37, 46
5, 365520, Note_off_c, 3, 37, 0
5, 366720, Note_on_c, 3, 39, 44
5, 366960, Note_off_c, 3, 39, 0
5, 368160, Note_on_c, 3, 32, 38
5, 368400, Note_off_c, 3, 32, 0
5, 368400, Note_on_c, 3, 36, 37
5, 368640, Note_off_c, 3, 36, 0
5, 368640, Note_on_c, 3, 39, 36
5, 368880, Note_off_c, 3, 39, 0
5, 368880, Note_on_c, 3, 44, 35
5, 369120, Note_off_c, 3, 44, 0
5, 369120, Note_on_c, 3, 32, 34
5, 369360, Note_off_c, 3, 32, 0
5, 370080, Note_on_c, 3, 53, 30
5, 370440, Note_off_c, 3, 53, 0
5, 370560, Note_on_c, 3, 53, 32
5, 371280, Note_off_c, 3, 53, 0
5, 371520, Note_on_c, 3, 53, 35
5, 371880, Note_off_c, 3, 53, 0
5, 372000, Note_on_c, 3, 51, 37
5, 372720, Note_off_c, 3, 51, 0
5, 372960, Note_on_c, 3, 51, 40
5, 373320, Note_off_c, 3, 51, 0
5, 373440, Note_on_c, 3, 50, 44
5, 375240, Note_off_c, 3, 50, 0
5, 376320, Note_on_c, 3, 51, 37
5, 377040, Note_off_c, 3, 51, 0
5, 377280, Note_on_c, 3, 51, 42
5, 377640, Note_off_c, 3, 51, 0
5, 377760, Note_on_c, 3, 49, 44
5, 378480, Note_off_c, 3, 49, 0
5, 378720, Note_on_c, 3, 49, 49
5, 379080, Note_off_c, 3, 49, 0
5, 379200, Note_on_c, 3, 48, 54
5, 381000, Note_off_c, 3, 48, 0
5, 382080, Note_on_c, 3, 49, 49
5, 382320, Note_off_c, 3, 49, 0
5, 382560, Note_on_c, 3, 61, 59
5, 382800, Note_off_c, 3, 61, 0
5, 384000, Note_on_c, 3, 61, 69
5, 384240, Note_off_c, 3, 61, 0
5, 385440, Note_on_c, 3, 61, 75
5, 385920, Note_off_c, 3, 61, 0
5, 385920, Note_on_c, 3, 63, 66
5, 386160, Note_off_c, 3, 63, 0
5, 386160, Note_on_c, 3, 65, 65
5, 386400, Note_off_c, 3, 65, 0
5, 386400, Note_on_c, 3, 66, 64
5, 386640, Note_off_c, 3, 66, 0
5, 386640, Note_on_c, 3, 65, 62
5, 386760, Note_off_c, 3, 65, 0
5, 386880, Note_on_c, 3, 63, 61
5, 387000, Note_off_c, 3, 63, 0
5, 387120, Note_on_c, 3, 61, 60
5, 387240, Note_off_c, 3, 61, 0
5, 387360, Note_on_c, 3, 60, 59
5, 387480, Note_off_c, 3, 60, 0
5, 387600, Note_on_c, 3, 58, 58
5, 387720, Note_off_c, 3, 58, 0
5, 387840, Note_on_c, 3, 57, 56
5, 388080, Note_off_c, 3, 57, 0
5, 388320, Note_on_c, 3, 69, 71
5, 388560, Note_off_c, 3, 69, 0
5, 389760, Note_on_c, 3, 69, 80
5, 390000, Note_off_c, 3, 69, 0
5, 391200, Note_on_c, 3, 70, 87
5, 392520, Note_off_c, 3, 70, 0
5, 393600, Note_on_c, 3, 43, 36
5, 394320, Note_off_c, 3, 43, 0
5, 394560, Note_on_c, 3, 43, 39
5, 394920, Note_off_c, 3, 43, 0
5, 395040, Note_on_c, 3, 43, 40
5, 395760, Note_off_c, 3, 43, 0
5, 396000, Note_on_c, 3, 43, 43
5, 396360, Note_off_c, 3, 43, 0
5, 396480, Note_on_c, 3, 44, 46
5, 397920, Note_off_c, 3, 44, 0
5, 397920, Note_on_c, 3, 44, 41
5, 398280, Note_off_c, 3, 44, 0
5, 399360, Note_on_c, 3, 44, 39
5, 400080, Note_off_c, 3, 44, 0
5, 400320, Note_on_c, 3, 44, 38
5, 400680, Note_off_c, 3, 44, 0
5, 400800, Note_on_c, 3, 44, 38
5, 401520, Note_off_c, 3, 44, 0
5, 401760, Note_on_c, 3, 44, 37
5, 402120, Note_off_c, 3, 44, 0
5, 402240, Note_on_c, 3, 49, 36
5, 402600, Note_off_c, 3, 49, 0
5, 404640, Note_on_c, 3, 53, 34
5, 405000, Note_off_c, 3, 53, 0
5, 405120, Note_on_c, 3, 53, 35
5, 405840, Note_off_c, 3, 53, 0
5, 406080, Note_on_c, 3, 53, 37
5, 406440, Note_off_c, 3, 53, 0
5, 406560, Note_on_c, 3, 51, 38
5, 407280, Note_off_c, 3, 51, 0
5, 407520, Note_on_c, 3, 51, 40
5, 407880, Note_off_c, 3, 51, 0
5, 408000, Note_on_c, 3, 50, 47
5, 409800, Note_off_c, 3, 50, 0
5, 410880, Note_on_c, 3, 51, 40
5, 411600, Note_off_c, 3, 51, 0
5, 411840, Note_on_c, 3, 51, 44
5, 412200, Note_off_c, 3, 51, 0
5, 412320, Note_on_c, 3, 49, 46
5, 413040, Note_off_c, 3, 49, 0
5, 413280, Note_on_c, 3, 49, 50
5, 413640, Note_off_c, 3, 49, 0
5, 413760, Note_on_c, 3, 48, 55
5, 415560, Note_off_c, 3, 48, 0
5, 416640, Note_on_c, 3, 49, 57
5, 416880, Note_off_c, 3, 49, 0
5, 417120, Note_on_c, 3, 61, 63
5, 417360, Note_off_c, 3, 61, 0
5, 418560, Note_on_c, 3, 61, 72
5, 418800, Note_off_c, 3, 61, 0
5, 420000, Note_on_c, 3, 61, 79
5, 420480, Note_off_c, 3, 61, 0
5, 420480, Note_on_c, 3, 63, 69
5, 420720, Note_off_c, 3, 63, 0
5, 420720, Note_on_c, 3, 65, 67
5, 420960, Note_off_c, 3, 65, 0
5, 420960, Note_on_c, 3, 66, 66
5, 421200, Note_off_c, 3, 66, 0
5, 421200, Note_on_c, 3, 65, 65
5, 421320, Note_off_c, 3, 65, 0
5, 421440, Note_on_c, 3, 63, 64
5, 421560, Note_off_c, 3, 63, 0
5, 421680, Note_on_c, 3, 61, 63
5, 421800, Note_off_c, 3, 61, 0
5, 421920, Note_on_c, 3, 60, 62
5, 422040, Note_off_c, 3, 60, 0
5, 422160, Note_on_c, 3, 58, 60
5, 422280, Note_off_c, 3, 58, 0
5, 422400, Note_on_c, 3, 57, 60
5, 422640, Note_off_c, 3, 57, 0
5, 422880, Note_on_c, 3, 69, 69
5, 423120, Note_off_c, 3, 69, 0
5, 424320, Note_on_c, 3, 69, 77
5, 424560, Note_off_c, 3, 69, 0
5, 425760, Note_on_c, 3, 70, 83
5, 427080, Note_off_c, 3, 70, 0
5, 428160, Note_on_c, 3, 43, 30
5, 428880, Note_off_c, 3, 43, 0
5, 429120, Note_on_c, 3, 43, 32
5, 429480, Note_off_c, 3, 43, 0
5, 429600, Note_on_c, 3, 43, 33
5, 430320, Note_off_c, 3, 43, 0
5, 430560, Note_on_c, 3, 43, 35
5, 430920, Note_off_c, 3, 43, 0
5, 431040, Note_on_c, 3, 44, 39
5, 433920, Note_off_c, 3, 44, 0
5, 433920, Note_on_c, 3, 44, 35
5, 434640, Note_off_c, 3, 44, 0
5, 434880, Note_on_c, 3, 44, 35
5, 435240, Note_off_c, 3, 44, 0
5, 435360, Note_on_c, 3, 44, 34
5, 436080, Note_off_c, 3, 44, 0
5, 436320, Note_on_c, 3, 44, 34
5, 436680, Note_off_c, 3, 44, 0
5, 436800, Note_on_c, 3, 49, 34
5, 437160, Note_off_c, 3, 49, 0
5, 438240, Note_on_c, 3, 49, 33
5, 438960, Note_off_c, 3, 49, 0
5, 439200, Note_on_c, 3, 49, 33
5, 439560, Note_off_c, 3, 49, 0
5, 439680, Note_on_c, 3, 49, 33
5, 440400, Note_off_c, 3, 49, 0
5, 440640, Note_on_c, 3, 49, 32
5, 441000, Note_off_c, 3, 49, 0
5, 441120, Note_on_c, 3, 48, 32
5, 444000, Note_off_c, 3, 48, 0
5, 444000, Note_on_c, 3, 36, 31
5, 444720, Note_off_c, 3, 36, 0
5, 444960, Note_on_c, 3, 36, 30
5, 445320, Note_off_c, 3, 36, 0
5, 445440, Note_on_c, 3, 36, 30
5, 446160, Note_off_c, 3, 36, 0
5, 446400, Note_on_c, 3, 36, 30
5, 446760, Note_off_c, 3, 36, 0
5, 446880, Note_on_c, 3, 41, 33
5, 447360, Note_off_c, 3, 41, 0
5, 447360, Note_on_c, 3, 44, 35
5, 447840, Note_off_c, 3, 44, 0
5, 447840, Note_on_c, 3, 40, 36
5, 448320, Note_off_c, 3, 40, 0
5, 448320, Note_on_c, 3, 41, 37
5, 448800, Note_off_c, 3, 41, 0
5, 448800, Note_on_c, 3, 44, 39
5, 449280, Note_off_c, 3, 44, 0
5, 449280, Note_on_c, 3, 48, 40
5, 449760, Note_off_c, 3, 48, 0
5, 449760, Note_on_c, 3, 49, 42
5, 450240, Note_off_c, 3, 49, 0
5, 450240, Note_on_c, 3, 46, 43
5, 450720, Note_off_c, 3, 46, 0
5, 450720, Note_on_c, 3, 52, 45
5, 451200, Note_off_c, 3, 52, 0
5, 451200, Note_on_c, 3, 53, 46
5, 451680, Note_off_c, 3, 53, 0
5, 451680, Note_on_c, 3, 48, 47
5, 452160, Note_off_c, 3, 48, 0
5, 452160, Note_on_c, 3, 55, 49
5, 452640, Note_off_c, 3, 55, 0
5, 452640, Note_on_c, 3, 56, 50
5, 453120, Note_off_c, 3, 56, 0
5, 453120, Note_on_c, 3, 53, 52
5, 453600, Note_off_c, 3, 53, 0
5, 453600, Note_on_c, 3, 55, 53
5, 454080, Note_off_c, 3, 55, 0
5, 454080, Note_on_c, 3, 56, 55
5, 454560, Note_on_c, 3, 53, 52
5, 455040, Note_off_c, 3, 53, 0
5, 455040, Note_off_c, 3, 56, 0
5, 455040, Note_on_c, 3, 49, 50
5, 455520, Note_off_c, 3, 49, 0
5, 455520, Note_on_c, 3, 51, 49
5, 455760, Note_off_c, 3, 51, 0
5, 456000, Note_on_c, 3, 39, 47
5, 456240, Note_off_c, 3, 39, 0
5, 456480, Note_on_c, 3, 39, 45
5, 456720, Note_off_c, 3, 39, 0
5, 456960, Note_on_c, 3, 44, 44
5, 457200, Note_off_c, 3, 44, 0
5, 457440, Note_on_c, 3, 32, 41
5, 457680, Note_off_c, 3, 32, 0
5, 457920, Note_on_c, 3, 36, 42
5, 458400, Note_off_c, 3, 36, 0
5, 458400, Note_on_c, 3, 41, 44
5, 458880, Note_off_c, 3, 41, 0
5, 458880, Note_on_c, 3, 44, 45
5, 459360, Note_off_c, 3, 44, 0
5, 459360, Note_on_c, 3, 40, 47
5, 459840, Note_off_c, 3, 40, 0
5, 459840, Note_on_c, 3, 41, 48
5, 460320, Note_off_c, 3, 41, 0
5, 460320, Note_on_c, 3, 44, 50
5, 460800, Note_off_c, 3, 44, 0
5, 460800, Note_on_c, 3, 48, 51
5, 461280, Note_off_c, 3, 48, 0
5, 461280, Note_on_c, 3, 49, 53
5, 461760, Note_off_c, 3, 49, 0
5, 461760, Note_on_c, 3, 46, 54
5, 462240, Note_off_c, 3, 46, 0
5, 462240, Note_on_c, 3, 52, 56
5, 462720, Note_off_c, 3, 52, 0
5, 462720, Note_on_c, 3, 53, 57
5, 463200, Note_off_c, 3, 53, 0
5, 463200, Note_on_c, 3, 48, 59
5, 463680, Note_off_c, 3, 48, 0
5, 463680, Note_on_c, 3, 55, 60
5, 464160, Note_off_c, 3, 55, 0
5, 464160, Note_on_c, 3, 56, 62
5, 464640, Note_off_c, 3, 56, 0
5, 464640, Note_on_c, 3, 53, 63
5, 465120, Note_off_c, 3, 53, 0
5, 465120, Note_on_c, 3, 55, 65
5, 465600, Note_off_c, 3, 55, 0
5, 465600, Note_on_c, 3, 56, 66
5, 466080, Note_off_c, 3, 56, 0
5, 466080, Note_on_c, 3, 53, 68
5, 466560, Note_off_c, 3, 53, 0
5, 466560, Note_on_c, 3, 49, 68
5, 467040, Note_off_c, 3, 49, 0
5, 467040, Note_on_c, 3, 51, 64
5, 467280, Note_off_c, 3, 51, 0
5, 467520, Note_on_c, 3, 39, 60
5, 467760, Note_off_c, 3, 39, 0
5, 468000, Note_on_c, 3, 39, 56
5, 468240, Note_off_c, 3, 39, 0
5, 468480, Note_on_c, 3, 44, 52
5, 468720, Note_off_c, 3, 44, 0
5, 468960, Note_on_c, 3, 32, 48
5, 469200, Note_off_c, 3, 32, 0
5, 469920, Note_on_c, 3, 56, 42
5, 470360, Note_off_c, 3, 56, 0
5, 470400, Note_on_c, 3, 56, 43
5, 470840, Note_off_c, 3, 56, 0
5, 470880, Note_on_c, 3, 56, 44
5, 471320, Note_off_c, 3, 56, 0
5, 471360, Note_on_c, 3, 58, 45
5, 471800, Note_off_c, 3, 58, 0
5, 471840, Note_on_c, 3, 58, 47
5, 472280, Note_off_c, 3, 58, 0
5, 472320, Note_on_c, 3, 58, 48
5, 472760, Note_off_c, 3, 58, 0
5, 472800, Note_on_c, 3, 58, 49
5, 473240, Note_off_c, 3, 58, 0
5, 473280, Note_on_c, 3, 58, 50
5, 473720, Note_off_c, 3, 58, 0
5, 473760, Note_on_c, 3, 58, 51
5, 474200, Note_off_c, 3, 58, 0
5, 474240, Note_on_c, 3, 60, 52
5, 474700, Note_off_c, 3, 60, 0
5, 474720, Note_on_c, 3, 60, 53
5, 475180, Note_off_c, 3, 60, 0
5, 475200, Note_on_c, 3, 60, 55
5, 475660, Note_off_c, 3, 60, 0
5, 475680, Note_on_c, 3, 60, 56
5, 476140, Note_off_c, 3, 60, 0
5, 476160, Note_on_c, 3, 60, 57
5, 476620, Note_off_c, 3, 60, 0
5, 476640, Note_on_c, 3, 60, 58
5, 477100, Note_off_c, 3, 60, 0
5, 477120, Note_on_c, 3, 61, 59
5, 477580, Note_off_c, 3, 61, 0
5, 477600, Note_on_c, 3, 61, 60
5, 478060, Note_off_c, 3, 61, 0
5, 478080, Note_on_c, 3, 61, 61
5, 478540, Note_off_c, 3, 61, 0
5, 478560, Note_on_c, 3, 62, 63
5, 479020, Note_off_c, 3, 62, 0
5, 479040, Note_on_c, 3, 62, 64
5, 479500, Note_off_c, 3, 62, 0
5, 479520, Note_on_c, 3, 62, 62
5, 479980, Note_off_c, 3, 62, 0
5, 480000, Note_on_c, 3, 60, 59
5, 480720, Note_off_c, 3, 60, 0
5, 482400, Note_on_c, 3, 72, 31
5, 482880, Note_off_c, 3, 72, 0
5, 482880, Note_on_c, 3, 68, 32
5, 483360, Note_off_c, 3, 68, 0
5, 483360, Note_on_c, 3, 65, 33
5, 483840, Note_off_c, 3, 65, 0
5, 483840, Note_on_c, 3, 68, 34
5, 484320, Note_off_c, 3, 68, 0
5, 484320, Note_on_c, 3, 70, 35
5, 484800, Note_off_c, 3, 70, 0
5, 484800, Note_on_c, 3, 65, 36
5, 485280, Note_off_c, 3, 65, 0
5, 485280, Note_on_c, 3, 70, 38
5, 485760, Note_off_c, 3, 70, 0
5, 485760, Note_on_c, 3, 68, 39
5, 486240, Note_off_c, 3, 68, 0
5, 486240, Note_on_c, 3, 65, 40
5, 486720, Note_off_c, 3, 65, 0
5, 486720, Note_on_c, 3, 72, 41
5, 487200, Note_off_c, 3, 72, 0
5, 487200, Note_on_c, 3, 73, 42
5, 487680, Note_off_c, 3, 73, 0
5, 487680, Note_on_c, 3, 70, 43
5, 488160, Note_off_c, 3, 70, 0
5, 488160, Note_on_c, 3, 76, 44
5, 488640, Note_off_c, 3, 76, 0
5, 488640, Note_on_c, 3, 77, 45
5, 489120, Note_off_c, 3, 77, 0
5, 489120, Note_on_c, 3, 72, 46
5, 489600, Note_off_c, 3, 72, 0
5, 489600, Note_on_c, 3, 60, 47
5, 490080, Note_off_c, 3, 60, 0
5, 490080, Note_on_c, 3, 61, 53
5, 490560, Note_off_c, 3, 61, 0
5, 490560, Note_on_c, 3, 58, 49
5, 491040, Note_off_c, 3, 58, 0
5, 491040, Note_on_c, 3, 64, 50
5, 491520, Note_off_c, 3, 64, 0
5, 491520, Note_on_c, 3, 61, 55
5, 492000, Note_off_c, 3, 61, 0
5, 492000, Note_on_c, 3, 58, 46
5, 492480, Note_off_c, 3, 58, 0
5, 492480, Note_on_c, 3, 64, 44
5, 492960, Note_off_c, 3, 64, 0
5, 492960, Note_on_c, 3, 60, 41
5, 493200, Note_off_c, 3, 60, 0
5, 493440, Note_on_c, 3, 60, 39
5, 493680, Note_off_c, 3, 60, 0
5, 493920, Note_on_c, 3, 60, 36
5, 494160, Note_off_c, 3, 60, 0
5, 494400, Note_on_c, 3, 53, 33
5, 494640, Note_off_c, 3, 53, 0
5, 495360, Note_on_c, 3, 48, 36
5, 495840, Note_off_c, 3, 48, 0
5, 495840, Note_on_c, 3, 49, 49
5, 496320, Note_off_c, 3, 49, 0
5, 496320, Note_on_c, 3, 46, 41
5, 496800, Note_off_c, 3, 46, 0
5, 496800, Note_on_c, 3, 52, 39
5, 497280, Note_off_c, 3, 52, 0
5, 497280, Note_on_c, 3, 49, 44
5, 497760, Note_off_c, 3, 49, 0
5, 497760, Note_on_c, 3, 46, 37
5, 498240, Note_off_c, 3, 46, 0
5, 498240, Note_on_c, 3, 52, 36
5, 498720, Note_off_c, 3, 52, 0
5, 498720, Note_on_c, 3, 48, 34
5, 498960, Note_off_c, 3, 48, 0
5, 499200, Note_on_c, 3, 48, 33
5, 499440, Note_off_c, 3, 48, 0
5, 499680, Note_on_c, 3, 48, 32
5, 499920, Note_off_c, 3, 48, 0
5, 500160, Note_on_c, 3, 41, 31
5, 500400, Note_off_c, 3, 41, 0
5, 501600, Note_on_c, 3, 48, 36
5, 503040, Note_off_c, 3, 48, 0
5, 503040, Note_on_c, 3, 48, 50
5, 504480, Note_off_c, 3, 48, 0
5, 504480, Note_on_c, 3, 48, 73
5, 505920, Note_off_c, 3, 48, 0
5, 505920, Note_on_c, 3, 53, 50
5, 506400, Note_off_c, 3, 53, 0
5, 507360, Note_on_c, 3, 60, 54
5, 508800, Note_off_c, 3, 60, 0
5, 508800, Note_on_c, 3, 60, 73
5, 509040, Note_off_c, 3, 60, 0
5, 509760, Note_on_c, 3, 36, 86
5, 510000, Note_off_c, 3, 36, 0
5, 510240, Note_on_c, 3, 29, 92
5, 510480, Note_off_c, 3, 29, 0
5, 511200, Pitch_bend_c, 3, 8192
5, 511200, Control_c, 3, 1, 0
5, 511200, Control_c, 3, 93, 19
5, 511200, Control_c, 3, 91, 64
5, 511200, Control_c, 3, 64, 0
5, 512400, Control_c, 3, 64, 0
5, 512400, Note_on_c, 3, 48, 38
5, 512520, Note_off_c, 3, 48, 0
5, 512640, Note_on_c, 3, 53, 50
5, 512760, Note_off_c, 3, 53, 0
5, 512880, Note_on_c, 3, 53, 39
5, 513000, Note_off_c, 3, 53, 0
5, 513120, Note_on_c, 3, 53, 40
5, 513240, Note_off_c, 3, 53, 0
5, 513360, Note_on_c, 3, 48, 40
5, 513480, Note_off_c, 3, 48, 0
5, 513600, Note_on_c, 3, 57, 52
5, 513720, Note_off_c, 3, 57, 0
5, 513840, Note_on_c, 3, 57, 41
5, 513960, Note_off_c, 3, 57, 0
5, 514080, Note_on_c, 3, 57, 42
5, 514200, Note_off_c, 3, 57, 0
5, 514320, Note_on_c, 3, 53, 42
5, 514440, Note_off_c, 3, 53, 0
5, 514560, Note_on_c, 3, 60, 54
5, 514680, Note_off_c, 3, 60, 0
5, 514800, Note_on_c, 3, 60, 43
5, 514920, Note_off_c, 3, 60, 0
5, 515040, Note_on_c, 3, 60, 44
5, 515160, Note_off_c, 3, 60, 0
5, 515160, Note_on_c, 3, 62, 44
5, 515280, Note_off_c, 3, 62, 0
5, 515280, Note_on_c, 3, 60, 44
5, 515400, Note_off_c, 3, 60, 0
5, 515400, Note_on_c, 3, 58, 44
5, 515520, Note_off_c, 3, 58, 0
5, 515520, Note_on_c, 3, 57, 54
5, 515640, Note_off_c, 3, 57, 0
5, 515760, Note_on_c, 3, 57, 45
5, 515880, Note_off_c, 3, 57, 0
5, 516000, Note_on_c, 3, 57, 46
5, 516120, Note_off_c, 3, 57, 0
5, 516120, Note_on_c, 3, 58, 46
5, 516240, Note_off_c, 3, 58, 0
5, 516240, Note_on_c, 3, 57, 46
5, 516360, Note_off_c, 3, 57, 0
5, 516360, Note_on_c, 3, 55, 46
5, 516480, Note_off_c, 3, 55, 0
5, 516480, Note_on_c, 3, 57, 56
5, 516600, Note_off_c, 3, 57, 0
5, 516720, Note_on_c, 3, 60, 47
5, 516840, Note_off_c, 3, 60, 0
5, 516840, Note_on_c, 3, 58, 47
5, 516960, Note_off_c, 3, 58, 0
5, 516960, Note_on_c, 3, 57, 48
5, 517080, Note_off_c, 3, 57, 0
5, 517200, Note_on_c, 3, 55, 48
5, 517320, Note_off_c, 3, 55, 0
5, 517440, Note_on_c, 3, 53, 49
5, 517560, Note_off_c, 3, 53, 0
5, 517680, Note_on_c, 3, 52, 49
5, 517800, Note_off_c, 3, 52, 0
5, 517920, Note_on_c, 3, 53, 50
5, 518040, Note_off_c, 3, 53, 0
5, 518160, Note_on_c, 3, 50, 50
5, 518280, Note_off_c, 3, 50, 0
5, 518400, Note_on_c, 3, 52, 51
5, 518520, Note_off_c, 3, 52, 0
5, 518640, Note_on_c, 3, 48, 51
5, 518760, Note_off_c, 3, 48, 0
5, 518880, Note_on_c, 3, 50, 52
5, 519000, Note_off_c, 3, 50, 0
5, 519120, Note_on_c, 3, 52, 52
5, 519240, Note_off_c, 3, 52, 0
5, 519360, Note_on_c, 3, 53, 53
5, 519480, Note_off_c, 3, 53, 0
5, 519600, Note_on_c, 3, 55, 53
5, 519720, Note_off_c, 3, 55, 0
5, 519840, Note_on_c, 3, 57, 54
5, 519960, Note_off_c, 3, 57, 0
5, 520080, Note_on_c, 3, 59, 54
5, 520200, Note_off_c, 3, 59, 0
5, 520320, Note_on_c, 3, 60, 55
5, 520440, Note_off_c, 3, 60, 0
5, 520560, Note_on_c, 3, 62, 55
5, 520680, Note_off_c, 3, 62, 0
5, 520800, Note_on_c, 3, 64, 56
5, 520920, Note_off_c, 3, 64, 0
5, 521040, Note_on_c, 3, 62, 56
5, 521160, Note_off_c, 3, 62, 0
5, 521280, Note_on_c, 3, 60, 57
5, 521400, Note_off_c, 3, 60, 0
5, 521520, Note_on_c, 3, 59, 57
5, 521640, Note_off_c, 3, 59, 0
5, 521760, Note_on_c, 3, 60, 58
5, 521880, Note_off_c, 3, 60, 0
5, 522000, Note_on_c, 3, 57, 58
5, 522120, Note_off_c, 3, 57, 0
5, 522240, Note_on_c, 3, 59, 59
5, 522360, Note_off_c, 3, 59, 0
5, 522480, Note_on_c, 3, 55, 59
5, 522600, Note_off_c, 3, 55, 0
5, 522720, Note_on_c, 3, 57, 60
5, 522840, Note_off_c, 3, 57, 0
5, 522960, Note_on_c, 3, 59, 60
5, 523080, Note_off_c, 3, 59, 0
5, 523200, Note_on_c, 3, 60, 61
5, 523320, Note_off_c, 3, 60, 0
5, 523440, Note_on_c, 3, 62, 61
5, 523560, Note_off_c, 3, 62, 0
5, 523680, Note_on_c, 3, 64, 62
5, 523800, Note_off_c, 3, 64, 0
5, 523920, Note_on_c, 3, 60, 62
5, 524040, Note_off_c, 3, 60, 0
5, 524160, Note_on_c, 3, 61, 63
5, 524280, Note_off_c, 3, 61, 0
5, 524400, Note_on_c, 3, 57, 63
5, 524520, Note_off_c, 3, 57, 0
5, 524640, Note_on_c, 3, 59, 64
5, 524760, Note_off_c, 3, 59, 0
5, 524880, Note_on_c, 3, 61, 64
5, 525000, Note_off_c, 3, 61, 0
5, 525120, Note_on_c, 3, 62, 65
5, 525240, Note_off_c, 3, 62, 0
5, 525360, Note_on_c, 3, 64, 65
5, 525480, Note_off_c, 3, 64, 0
5, 525600, Note_on_c, 3, 65, 66
5, 525720, Note_off_c, 3, 65, 0
5, 525840, Note_on_c, 3, 62, 67
5, 525960, Note_off_c, 3, 62, 0
5, 526080, Note_on_c, 3, 59, 75
5, 526200, Note_off_c, 3, 59, 0
5, 526320, Note_on_c, 3, 59, 68
5, 526440, Note_off_c, 3, 59, 0
5, 526560, Note_on_c, 3, 60, 68
5, 526680, Note_off_c, 3, 60, 0
5, 527040, Note_on_c, 3, 59, 77
5, 527160, Note_off_c, 3, 59, 0
5, 527280, Note_on_c, 3, 59, 70
5, 527400, Note_off_c, 3, 59, 0
5, 527520, Note_on_c, 3, 60, 70
5, 527640, Note_off_c, 3, 60, 0
5, 528000, Note_on_c, 3, 53, 71
5, 528120, Note_off_c, 3, 53, 0
5, 528480, Note_on_c, 3, 55, 72
5, 528600, Note_off_c, 3, 55, 0
5, 528960, Note_on_c, 3, 48, 73
5, 529440, Note_off_c, 3, 48, 0
5, 529920, Note_on_c, 3, 47, 83
5, 530040, Note_off_c, 3, 47, 0
5, 530160, Note_on_c, 3, 47, 76
5, 530280, Note_off_c, 3, 47, 0
5, 530400, Note_on_c, 3, 48, 76
5, 530520, Note_off_c, 3, 48, 0
5, 530880, Note_on_c, 3, 47, 87
5, 531000, Note_off_c, 3, 47, 0
5, 531120, Note_on_c, 3, 47, 78
5, 531240, Note_off_c, 3, 47, 0
5, 531360, Note_on_c, 3, 48, 78
5, 531480, Note_off_c, 3, 48, 0
5, 531840, Note_on_c, 3, 41, 82
5, 531960, Note_off_c, 3, 41, 0
5, 532800, Note_on_c, 3, 43, 82
5, 532920, Note_off_c, 3, 43, 0
5, 533760, Note_on_c, 3, 48, 76
5, 533760, Note_on_c, 3, 36, 81
5, 533880, Note_off_c, 3, 48, 0
5, 534000, Note_on_c, 3, 48, 65
5, 534120, Note_off_c, 3, 48, 0
5, 534240, Note_on_c, 3, 48, 65
5, 534360, Note_off_c, 3, 48, 0
5, 534480, Note_on_c, 3, 43, 64
5, 534600, Note_off_c, 3, 43, 0
5, 534720, Note_off_c, 3, 36, 0
5, 534720, Note_on_c, 3, 48, 76
5, 534720, Note_on_c, 3, 36, 78
5, 534840, Note_off_c, 3, 48, 0
5, 534960, Note_on_c, 3, 48, 64
5, 535080, Note_off_c, 3, 48, 0
5, 535200, Note_on_c, 3, 48, 63
5, 535320, Note_off_c, 3, 48, 0
5, 535440, Note_on_c, 3, 43, 63
5, 535560, Note_off_c, 3, 43, 0
5, 535680, Note_off_c, 3, 36, 0
5, 535680, Note_on_c, 3, 50, 73
5, 535680, Note_on_c, 3, 36, 77
5, 535800, Note_off_c, 3, 50, 0
5, 535920, Note_on_c, 3, 48, 63
5, 536040, Note_off_c, 3, 48, 0
5, 536160, Note_on_c, 3, 47, 62
5, 536280, Note_off_c, 3, 47, 0
5, 536400, Note_on_c, 3, 45, 62
5, 536520, Note_off_c, 3, 45, 0
5, 536640, Note_on_c, 3, 43, 62
5, 536760, Note_off_c, 3, 43, 0
5, 536880, Note_on_c, 3, 45, 61
5, 537000, Note_off_c, 3, 45, 0
5, 537120, Note_on_c, 3, 47, 61
5, 537240, Note_off_c, 3, 47, 0
5, 537360, Note_on_c, 3, 43, 61
5, 537480, Note_off_c, 3, 43, 0
5, 537600, Note_off_c, 3, 36, 0
5, 537600, Note_on_c, 3, 48, 75
5, 537600, Note_on_c, 3, 36, 74
5, 537720, Note_off_c, 3, 48, 0
5, 537840, Note_on_c, 3, 48, 60
5, 537960, Note_off_c, 3, 48, 0
5, 538080, Note_on_c, 3, 48, 60
5, 538200, Note_off_c, 3, 48, 0
5, 538320, Note_on_c, 3, 43, 59
5, 538440, Note_off_c, 3, 43, 0
5, 538560, Note_off_c, 3, 36, 0
5, 538560, Note_on_c, 3, 48, 70
5, 538560, Note_on_c, 3, 36, 72
5, 538680, Note_off_c, 3, 48, 0
5, 538800, Note_on_c, 3, 48, 59
5, 538920, Note_off_c, 3, 48, 0
5, 539040, Note_on_c, 3, 48, 58
5, 539160, Note_off_c, 3, 48, 0
5, 539280, Note_on_c, 3, 43, 58
5, 539400, Note_off_c, 3, 43, 0
5, 539520, Note_off_c, 3, 36, 0
5, 539520, Note_on_c, 3, 50, 70
5, 539520, Note_on_c, 3, 36, 71
5, 539640, Note_off_c, 3, 50, 0
5, 539760, Note_on_c, 3, 48, 57
5, 539880, Note_off_c, 3, 48, 0
5, 540000, Note_on_c, 3, 47, 57
5, 540120, Note_off_c, 3, 47, 0
5, 540240, Note_on_c, 3, 45, 57
5, 540360, Note_off_c, 3, 45, 0
5, 540480, Note_on_c, 3, 43, 56
5, 540600, Note_off_c, 3, 43, 0
5, 540720, Note_on_c, 3, 45, 56
5, 540840, Note_off_c, 3, 45, 0
5, 540960, Note_on_c, 3, 47, 56
5, 541080, Note_off_c, 3, 47, 0
5, 541200, Note_on_c, 3, 43, 55
5, 541320, Note_off_c, 3, 43, 0
5, 541440, Note_off_c, 3, 36, 0
5, 541440, Note_on_c, 3, 48, 55
5, 541440, Note_on_c, 3, 36, 68
5, 541560, Note_off_c, 3, 36, 0
5, 541560, Note_off_c, 3, 48, 0
5, 541680, Note_on_c, 3, 43, 55
5, 541800, Note_off_c, 3, 43, 0
5, 541920, Note_on_c, 3, 48, 54
5, 541920, Note_on_c, 3, 36, 60
5, 542040, Note_off_c, 3, 36, 0
5, 542040, Note_off_c, 3, 48, 0
5, 542160, Note_on_c, 3, 43, 54
5, 542280, Note_off_c, 3, 43, 0
5, 542400, Note_on_c, 3, 48, 54
5, 542400, Note_on_c, 3, 36, 54
5, 542760, Note_off_c, 3, 36, 0
5, 542760, Note_off_c, 3, 48, 0
5, 543120, Control_c, 3, 64, 0
5, 543120, Note_on_c, 3, 48, 38
5, 543240, Note_off_c, 3, 48, 0
5, 543360, Note_on_c, 3, 53, 50
5, 543480, Note_off_c, 3, 53, 0
5, 543600, Note_on_c, 3, 53, 39
5, 543720, Note_off_c, 3, 53, 0
5, 543840, Note_on_c, 3, 53, 40
5, 543960, Note_off_c, 3, 53, 0
5, 544080, Note_on_c, 3, 48, 40
5, 544200, Note_off_c, 3, 48, 0
5, 544320, Note_on_c, 3, 57, 52
5, 544440, Note_off_c, 3, 57, 0
5, 544560, Note_on_c, 3, 57, 41
5, 544680, Note_off_c, 3, 57, 0
5, 544800, Note_on_c, 3, 57, 42
5, 544920, Note_off_c, 3, 57, 0
5, 545040, Note_on_c, 3, 53, 42
5, 545160, Note_off_c, 3, 53, 0
5, 545280, Note_on_c, 3, 60, 54
5, 545400, Note_off_c, 3, 60, 0
5, 545520, Note_on_c, 3, 60, 43
5, 545640, Note_off_c, 3, 60, 0
5, 545760, Note_on_c, 3, 60, 44
5, 545880, Note_off_c, 3, 60, 0
5, 545880, Note_on_c, 3, 62, 44
5, 546000, Note_off_c, 3, 62, 0
5, 546000, Note_on_c, 3, 60, 44
5, 546120, Note_off_c, 3, 60, 0
5, 546120, Note_on_c, 3, 58, 44
5, 546240, Note_off_c, 3, 58, 0
5, 546240, Note_on_c, 3, 57, 54
5, 546360, Note_off_c, 3, 57, 0
5, 546480, Note_on_c, 3, 57, 45
5, 546600, Note_off_c, 3, 57, 0
5, 546720, Note_on_c, 3, 57, 46
5, 546840, Note_off_c, 3, 57, 0
5, 546840, Note_on_c, 3, 58, 46
5, 546960, Note_off_c, 3, 58, 0
5, 546960, Note_on_c, 3, 57, 46
5, 547080, Note_off_c, 3, 57, 0
5, 547080, Note_on_c, 3, 55, 46
5, 547200, Note_off_c, 3, 55, 0
5, 547200, Note_on_c, 3, 57, 56
5, 547320, Note_off_c, 3, 57, 0
5, 547440, Note_on_c, 3, 60, 47
5, 547560, Note_off_c, 3, 60, 0
5, 547560, Note_on_c, 3, 58, 47
5, 547680, Note_off_c, 3, 58, 0
5, 547680, Note_on_c, 3, 57, 48
5, 547800, Note_off_c, 3, 57, 0
5, 547920, Note_on_c, 3, 55, 48
5, 548040, Note_off_c, 3, 55, 0
5, 548160, Note_on_c, 3, 53, 49
5, 548280, Note_off_c, 3, 53, 0
5, 548400, Note_on_c, 3, 52, 49
5, 548520, Note_off_c, 3, 52, 0
5, 548640, Note_on_c, 3, 53, 50
5, 548760, Note_off_c, 3, 53, 0
5, 548880, Note_on_c, 3, 50, 50
5, 549000, Note_off_c, 3, 50, 0
5, 549120, Note_on_c, 3, 52, 51
5, 549240, Note_off_c, 3, 52, 0
5, 549360, Note_on_c, 3, 48, 51
5, 549480, Note_off_c, 3, 48, 0
5, 549600, Note_on_c, 3, 50, 52
5, 549720, Note_off_c, 3, 50, 0
5, 549840, Note_on_c, 3, 52, 52
5, 549960, Note_off_c, 3, 52, 0
5, 550080, Note_on_c, 3, 53, 53
5, 550200, Note_off_c, 3, 53, 0
5, 550320, Note_on_c, 3, 55, 53
5, 550440, Note_off_c, 3, 55, 0
5, 550560, Note_on_c, 3, 57, 54
5, 550680, Note_off_c, 3, 57, 0
5, 550800, Note_on_c, 3, 59, 54
5, 550920, Note_off_c, 3, 59, 0
5, 551040, Note_on_c, 3, 60, 55
5, 551160, Note_off_c, 3, 60, 0
5, 551280, Note_on_c, 3, 62, 55
5, 551400, Note_off_c, 3, 62, 0
5, 551520, Note_on_c, 3, 64, 56
5, 551640, Note_off_c, 3, 64, 0
5, 551760, Note_on_c, 3, 62, 56
5, 551880, Note_off_c, 3, 62, 0
5, 552000, Note_on_c, 3, 60, 57
5, 552120, Note_off_c, 3, 60, 0
5, 552240, Note_on_c, 3, 59, 57
5, 552360, Note_off_c, 3, 59, 0
5, 552480, Note_on_c, 3, 60, 58
5, 552600, Note_off_c, 3, 60, 0
5, 552720, Note_on_c, 3, 57, 58
5, 552840, Note_off_c, 3, 57, 0
5, 552960, Note_on_c, 3, 59, 59
5, 553080, Note_off_c, 3, 59, 0
5, 553200, Note_on_c, 3, 55, 59
5, 553320, Note_off_c, 3, 55, 0
5, 553440, Note_on_c, 3, 57, 60
5, 553560, Note_off_c, 3, 57, 0
5, 553680, Note_on_c, 3, 59, 60
5, 553800, Note_off_c, 3, 59, 0
5, 553920, Note_on_c, 3, 60, 61
5, 554040, Note_off_c, 3, 60, 0
5, 554160, Note_on_c, 3, 62, 61
5, 554280, Note_off_c, 3, 62, 0
5, 554400, Note_on_c, 3, 64, 62
5, 554520, Note_off_c, 3, 64, 0
5, 554640, Note_on_c, 3, 60, 62
5, 554760, Note_off_c, 3, 60, 0
5, 554880, Note_on_c, 3, 61, 63
5, 555000, Note_off_c, 3, 61, 0
5, 555120, Note_on_c, 3, 57, 63
5, 555240, Note_off_c, 3, 57, 0
5, 555360, Note_on_c, 3, 59, 64
5, 555480, Note_off_c, 3, 59, 0
5, 555600, Note_on_c, 3, 61, 64
5, 555720, Note_off_c, 3, 61, 0
5, 555840, Note_on_c, 3, 62, 65
5, 555960, Note_off_c, 3, 62, 0
5, 556080, Note_on_c, 3, 64, 65
5, 556200, Note_off_c, 3, 64, 0
5, 556320, Note_on_c, 3, 65, 66
5, 556440, Note_off_c, 3, 65, 0
5, 556560, Note_on_c, 3, 62, 67
5, 556680, Note_off_c, 3, 62, 0
5, 556800, Note_on_c, 3, 59, 75
5, 556920, Note_off_c, 3, 59, 0
5, 557040, Note_on_c, 3, 59, 68
5, 557160, Note_off_c, 3, 59, 0
5, 557280, Note_on_c, 3, 60, 68
5, 557400, Note_off_c, 3, 60, 0
5, 557760, Note_on_c, 3, 59, 77
5, 557880, Note_off_c, 3, 59, 0
5, 558000, Note_on_c, 3, 59, 70
5, 558120, Note_off_c, 3, 59, 0
5, 558240, Note_on_c, 3, 60, 70
5, 558360, Note_off_c, 3, 60, 0
5, 558720, Note_on_c, 3, 53, 71
5, 558840, Note_off_c, 3, 53, 0
5, 559200, Note_on_c, 3, 55, 72
5, 559320, Note_off_c, 3, 55, 0
5, 559680, Note_on_c, 3, 48, 73
5, 560160, Note_off_c, 3, 48, 0
5, 560640, Note_on_c, 3, 47, 83
5, 560760, Note_off_c, 3, 47, 0
5, 560880, Note_on_c, 3, 47, 76
5, 561000, Note_off_c, 3, 47, 0
5, 561120, Note_on_c, 3, 48, 76
5, 561240, Note_off_c, 3, 48, 0
5, 561600, Note_on_c, 3, 47, 87
5, 561720, Note_off_c, 3, 47, 0
5, 561840, Note_on_c, 3, 47, 78
5, 561960, Note_off_c, 3, 47, 0
5, 562080, Note_on_c, 3, 48, 78
5, 562200, Note_off_c, 3, 48, 0
5, 562560, Note_on_c, 3, 41, 82
5, 562680, Note_off_c, 3, 41, 0
5, 563520, Note_on_c, 3, 43, 82
5, 563640, Note_off_c, 3, 43, 0
5, 564480, Note_on_c, 3, 48, 76
5, 564480, Note_on_c, 3, 36, 81
5, 564600, Note_off_c, 3, 48, 0
5, 564720, Note_on_c, 3, 48, 65
5, 564840, Note_off_c, 3, 48, 0
5, 564960, Note_on_c, 3, 48, 65
5, 565080, Note_off_c, 3, 48, 0
5, 565200, Note_on_c, 3, 43, 64
5, 565320, Note_off_c, 3, 43, 0
5, 565440, Note_off_c, 3, 36, 0
5, 565440, Note_on_c, 3, 48, 76
5, 565440, Note_on_c, 3, 36, 78
5, 565560, Note_off_c, 3, 48, 0
5, 565680, Note_on_c, 3, 48, 64
5, 565800, Note_off_c, 3, 48, 0
5, 565920, Note_on_c, 3, 48, 63
5, 566040, Note_off_c, 3, 48, 0
5, 566160, Note_on_c, 3, 43, 63
5, 566280, Note_off_c, 3, 43, 0
5, 566400, Note_off_c, 3, 36, 0
5, 566400, Note_on_c, 3, 50, 73
5, 566400, Note_on_c, 3, 36, 77
5, 566520, Note_off_c, 3, 50, 0
5, 566640, Note_on_c, 3, 48, 63
5, 566760, Note_off_c, 3, 48, 0
5, 566880, Note_on_c, 3, 47, 62
5, 567000, Note_off_c, 3, 47, 0
5, 567120, Note_on_c, 3, 45, 62
5, 567240, Note_off_c, 3, 45, 0
5, 567360, Note_on_c, 3, 43, 62
5, 567480, Note_off_c, 3, 43, 0
5, 567600, Note_on_c, 3, 45, 61
5, 567720, Note_off_c, 3, 45, 0
5, 567840, Note_on_c, 3, 47, 61
5, 567960, Note_off_c, 3, 47, 0
5, 568080, Note_on_c, 3, 43, 61
5, 568200, Note_off_c, 3, 43, 0
5, 568320, Note_off_c, 3, 36, 0
5, 568320, Note_on_c, 3, 48, 75
5, 568320, Note_on_c, 3, 36, 74
5, 568440, Note_off_c, 3, 48, 0
5, 568560, Note_on_c, 3, 48, 60
5, 568680, Note_off_c, 3, 48, 0
5, 568800, Note_on_c, 3, 48, 60
5, 568920, Note_off_c, 3, 48, 0
5, 569040, Note_on_c, 3, 43, 59
5, 569160, Note_off_c, 3, 43, 0
5, 569280, Note_off_c, 3, 36, 0
5, 569280, Note_on_c, 3, 48, 70
5, 569280, Note_on_c, 3, 36, 72
5, 569400, Note_off_c, 3, 48, 0
5, 569520, Note_on_c, 3, 48, 59
5, 569640, Note_off_c, 3, 48, 0
5, 569760, Note_on_c, 3, 48, 58
5, 569880, Note_off_c, 3, 48, 0
5, 570000, Note_on_c, 3, 43, 58
5, 570120, Note_off_c, 3, 43, 0
5, 570240, Note_off_c, 3, 36, 0
5, 570240, Note_on_c, 3, 50, 70
5, 570240, Note_on_c, 3, 36, 71
5, 570360, Note_off_c, 3, 50, 0
5, 570480, Note_on_c, 3, 48, 57
5, 570600, Note_off_c, 3, 48, 0
5, 570720, Note_on_c, 3, 47, 57
5, 570840, Note_off_c, 3, 47, 0
5, 570960, Note_on_c, 3, 45, 57
5, 571080, Note_off_c, 3, 45, 0
5, 571200, Note_on_c, 3, 43, 56
5, 571320, Note_off_c, 3, 43, 0
5, 571440, Note_on_c, 3, 45, 56
5, 571560, Note_off_c, 3, 45, 0
5, 571680, Note_on_c, 3, 47, 56
5, 571800, Note_off_c, 3, 47, 0
5, 571920, Note_on_c, 3, 43, 55
5, 572040, Note_off_c, 3, 43, 0
5, 572160, Note_off_c, 3, 36, 0
5, 572160, Note_on_c, 3, 48, 55
5, 572160, Note_on_c, 3, 36, 68
5, 572280, Note_off_c, 3, 36, 0
5, 572280, Note_off_c, 3, 48, 0
5, 572400, Note_on_c, 3, 43, 55
5, 572520, Note_off_c, 3, 43, 0
5, 572640, Note_on_c, 3, 48, 54
5, 572640, Note_on_c, 3, 36, 60
5, 572760, Note_off_c, 3, 36, 0
5, 572760, Note_off_c, 3, 48, 0
5, 572880, Note_on_c, 3, 43, 54
5, 573000, Note_off_c, 3, 43, 0
5, 573120, Note_on_c, 3, 48, 54
5, 573120, Note_on_c, 3, 36, 54
5, 573480, Note_off_c, 3, 36, 0
5, 573480, Note_off_c, 3, 48, 0
5, 573840, Control_c, 3, 64, 0
5, 573840, Note_on_c, 3, 39, 70
5, 573960, Note_off_c, 3, 39, 0
5, 574020, Note_on_c, 3, 46, 70
5, 574080, Note_off_c, 3, 46, 0
5, 574080, Note_on_c, 3, 44, 78
5, 574200, Note_off_c, 3, 44, 0
5, 574320, Note_on_c, 3, 44, 71
5, 574440, Note_off_c, 3, 44, 0
5, 574560, Note_on_c, 3, 44, 71
5, 574680, Note_off_c, 3, 44, 0
5, 574680, Note_on_c, 3, 43, 71
5, 574800, Note_off_c, 3, 43, 0
5, 574800, Note_on_c, 3, 44, 72
5, 574920, Note_off_c, 3, 44, 0
5, 574920, Note_on_c, 3, 46, 72
5, 575040, Note_off_c, 3, 46, 0
5, 575040, Note_on_c, 3, 48, 82
5, 575160, Note_off_c, 3, 48, 0
5, 575280, Note_on_c, 3, 48, 72
5, 575400, Note_off_c, 3, 48, 0
5, 575460, Note_on_c, 3, 49, 73
5, 575520, Note_off_c, 3, 49, 0
5, 575520, Note_on_c, 3, 48, 73
5, 575640, Note_off_c, 3, 48, 0
5, 575640, Note_on_c, 3, 47, 73
5, 575760, Note_off_c, 3, 47, 0
5, 575760, Note_on_c, 3, 48, 73
5, 575880, Note_off_c, 3, 48, 0
5, 575880, Note_on_c, 3, 49, 74
5, 576000, Note_off_c, 3, 49, 0
5, 576000, Note_on_c, 3, 51, 84
5, 576120, Note_off_c, 3, 51, 0
5, 576240, Note_on_c, 3, 51, 74
5, 576360, Note_off_c, 3, 51, 0
5, 576420, Note_on_c, 3, 53, 75
5, 576480, Note_off_c, 3, 53, 0
5, 576480, Note_on_c, 3, 51, 75
5, 576600, Note_off_c, 3, 51, 0
5, 576600, Note_on_c, 3, 50, 75
5, 576720, Note_off_c, 3, 50, 0
5, 576720, Note_on_c, 3, 51, 75
5, 576840, Note_off_c, 3, 51, 0
5, 576840, Note_on_c, 3, 53, 75
5, 576960, Note_off_c, 3, 53, 0
5, 576960, Note_on_c, 3, 55, 90
5, 577080, Note_off_c, 3, 55, 0
5, 577200, Note_on_c, 3, 55, 76
5, 577320, Note_off_c, 3, 55, 0
5, 577440, Note_on_c, 3, 55, 76
5, 577560, Note_off_c, 3, 55, 0
5, 577560, Note_on_c, 3, 51, 77
5, 577680, Note_off_c, 3, 51, 0
5, 577680, Note_on_c, 3, 53, 77
5, 577800, Note_off_c, 3, 53, 0
5, 577800, Note_on_c, 3, 55, 77
5, 577920, Note_off_c, 3, 55, 0
5, 577920, Note_on_c, 3, 56, 77
5, 578148, Note_off_c, 3, 56, 0
5, 578160, Note_on_c, 3, 56, 42
5, 578388, Note_off_c, 3, 56, 0
5, 578400, Note_on_c, 3, 56, 43
5, 578628, Note_off_c, 3, 56, 0
5, 578640, Note_on_c, 3, 56, 44
5, 578868, Note_off_c, 3, 56, 0
5, 578880, Note_on_c, 3, 56, 45
5, 579108, Note_off_c, 3, 56, 0
5, 579120, Note_on_c, 3, 56, 46
5, 579348, Note_off_c, 3, 56, 0
5, 579360, Note_on_c, 3, 56, 47
5, 579588, Note_off_c, 3, 56, 0
5, 579600, Note_on_c, 3, 56, 48
5, 579828, Note_off_c, 3, 56, 0
5, 579840, Note_on_c, 3, 56, 49
5, 580068, Note_off_c, 3, 56, 0
5, 580080, Note_on_c, 3, 56, 50
5, 580308, Note_off_c, 3, 56, 0
5, 580320, Note_on_c, 3, 56, 51
5, 580548, Note_off_c, 3, 56, 0
5, 580560, Note_on_c, 3, 56, 52
5, 580788, Note_off_c, 3, 56, 0
5, 580800, Note_on_c, 3, 51, 53
5, 581019, Note_off_c, 3, 51, 0
5, 581040, Note_on_c, 3, 51, 54
5, 581259, Note_off_c, 3, 51, 0
5, 581280, Note_on_c, 3, 51, 55
5, 581499, Note_off_c, 3, 51, 0
5, 581520, Note_on_c, 3, 51, 56
5, 581739, Note_off_c, 3, 51, 0
5, 581760, Note_on_c, 3, 56, 57
5, 582240, Note_off_c, 3, 56, 0
5, 582480, Note_on_c, 3, 60, 60
5, 582600, Note_off_c, 3, 60, 0
5, 582720, Note_on_c, 3, 68, 68
5, 582840, Note_off_c, 3, 68, 0
5, 582960, Note_on_c, 3, 68, 62
5, 583080, Note_off_c, 3, 68, 0
5, 583200, Note_on_c, 3, 68, 63
5, 583320, Note_off_c, 3, 68, 0
5, 583440, Note_on_c, 3, 63, 64
5, 583560, Note_off_c, 3, 63, 0
5, 583680, Note_on_c, 3, 72, 71
5, 583800, Note_off_c, 3, 72, 0
5, 583920, Note_on_c, 3, 72, 66
5, 584040, Note_off_c, 3, 72, 0
5, 584160, Note_on_c, 3, 72, 67
5, 584280, Note_off_c, 3, 72, 0
5, 584280, Note_on_c, 3, 73, 68
5, 584400, Note_off_c, 3, 73, 0
5, 584400, Note_on_c, 3, 72, 69
5, 584520, Note_off_c, 3, 72, 0
5, 584520, Note_on_c, 3, 70, 69
5, 584640, Note_off_c, 3, 70, 0
5, 584640, Note_on_c, 3, 69, 78
5, 584760, Note_off_c, 3, 69, 0
5, 584880, Note_on_c, 3, 75, 71
5, 585000, Note_off_c, 3, 75, 0
5, 585120, Note_on_c, 3, 75, 72
5, 585240, Note_off_c, 3, 75, 0
5, 585240, Note_on_c, 3, 77, 72
5, 585360, Note_off_c, 3, 77, 0
5, 585360, Note_on_c, 3, 75, 73
5, 585480, Note_off_c, 3, 75, 0
5, 585480, Note_on_c, 3, 73, 73
5, 585600, Note_off_c, 3, 73, 0
5, 585600, Note_on_c, 3, 72, 88
5, 585720, Note_off_c, 3, 72, 0
5, 585840, Note_on_c, 3, 72, 83
5, 585960, Note_off_c, 3, 72, 0
5, 586080, Note_on_c, 3, 72, 83
5, 586200, Note_off_c, 3, 72, 0
5, 586200, Note_on_c, 3, 73, 83
5, 586320, Note_off_c, 3, 73, 0
5, 586320, Note_on_c, 3, 72, 83
5, 586440, Note_off_c, 3, 72, 0
5, 586440, Note_on_c, 3, 70, 83
5, 586560, Note_off_c, 3, 70, 0
5, 586560, Note_on_c, 3, 69, 88
5, 586680, Note_off_c, 3, 69, 0
5, 586800, Note_on_c, 3, 69, 82
5, 586920, Note_off_c, 3, 69, 0
5, 587040, Note_on_c, 3, 69, 81
5, 587160, Note_off_c, 3, 69, 0
5, 587160, Note_on_c, 3, 70, 80
5, 587280, Note_off_c, 3, 70, 0
5, 587280, Note_on_c, 3, 69, 79
5, 587400, Note_off_c, 3, 69, 0
5, 587400, Note_on_c, 3, 65, 78
5, 587520, Note_off_c, 3, 65, 0
5, 587520, Note_on_c, 3, 70, 78
5, 588000, Note_off_c, 3, 70, 0
5, 588480, Note_on_c, 3, 73, 87
5, 588600, Note_off_c, 3, 73, 0
5, 588720, Note_on_c, 3, 73, 81
5, 588840, Note_off_c, 3, 73, 0
5, 588960, Note_on_c, 3, 73, 81
5, 589080, Note_off_c, 3, 73, 0
5, 589080, Note_on_c, 3, 75, 80
5, 589200, Note_off_c, 3, 75, 0
5, 589200, Note_on_c, 3, 73, 80
5, 589320, Note_off_c, 3, 73, 0
5, 589320, Note_on_c, 3, 72, 80
5, 589440, Note_off_c, 3, 72, 0
5, 589440, Note_on_c, 3, 70, 89
5, 589560, Note_off_c, 3, 70, 0
5, 589680, Note_on_c, 3, 70, 80
5, 589800, Note_off_c, 3, 70, 0
5, 589920, Note_on_c, 3, 70, 80
5, 590040, Note_off_c, 3, 70, 0
5, 590040, Note_on_c, 3, 72, 80
5, 590160, Note_off_c, 3, 72, 0
5, 590160, Note_on_c, 3, 70, 79
5, 590280, Note_off_c, 3, 70, 0
5, 590280, Note_on_c, 3, 68, 79
5, 590400, Note_off_c, 3, 68, 0
5, 590400, Note_on_c, 3, 67, 79
5, 590520, Note_off_c, 3, 67, 0
5, 590520, Note_on_c, 3, 68, 79
5, 590640, Note_off_c, 3, 68, 0
5, 590640, Note_on_c, 3, 67, 79
5, 590760, Note_off_c, 3, 67, 0
5, 590760, Note_on_c, 3, 65, 79
5, 590880, Note_off_c, 3, 65, 0
5, 590880, Note_on_c, 3, 64, 79
5, 591000, Note_off_c, 3, 64, 0
5, 591000, Note_on_c, 3, 62, 79
5, 591120, Note_off_c, 3, 62, 0
5, 591120, Note_on_c, 3, 64, 79
5, 591240, Note_off_c, 3, 64, 0
5, 591240, Note_on_c, 3, 60, 78
5, 591360, Note_off_c, 3, 60, 0
5, 591360, Note_on_c, 3, 65, 83
5, 592320, Note_off_c, 3, 65, 0
5, 592320, Note_on_c, 3, 67, 82
5, 593280, Note_off_c, 3, 67, 0
5, 593280, Note_on_c, 3, 60, 82
5, 594240, Note_off_c, 3, 60, 0
5, 594240, Note_on_c, 3, 62, 81
5, 595200, Note_off_c, 3, 62, 0
5, 595200, Note_on_c, 3, 55, 84
5, 596160, Note_off_c, 3, 55, 0
5, 596160, Note_on_c, 3, 50, 79
5, 596160, Note_on_c, 3, 62, 79
5, 597120, Note_off_c, 3, 62, 0
5, 597120, Note_off_c, 3, 50, 0
5, 597120, Note_on_c, 3, 43, 78
5, 597120, Note_on_c, 3, 55, 78
5, 598080, Note_off_c, 3, 55, 0
5, 598080, Note_off_c, 3, 43, 0
5, 598080, Note_on_c, 3, 45, 77
5, 598080, Note_on_c, 3, 57, 77
5, 599040, Note_off_c, 3, 57, 0
5, 599040, Note_off_c, 3, 45, 0
5, 599040, Note_on_c, 3, 38, 76
5, 599040, Note_on_c, 3, 50, 76
5, 600000, Note_off_c, 3, 50, 0
5, 600000, Note_off_c, 3, 38, 0
5, 600000, Note_on_c, 3, 45, 75
5, 600000, Note_on_c, 3, 57, 75
5, 600960, Note_off_c, 3, 57, 0
5, 600960, Note_off_c, 3, 45, 0
5, 600960, Note_on_c, 3, 38, 74
5, 600960, Note_on_c, 3, 50, 74
5, 601920, Note_off_c, 3, 50, 0
5, 601920, Note_off_c, 3, 38, 0
5, 601920, Note_on_c, 3, 34, 74
5, 601920, Note_on_c, 3, 46, 74
5, 602880, Note_off_c, 3, 46, 0
5, 602880, Note_off_c, 3, 34, 0
5, 602880, Note_on_c, 3, 33, 73
5, 603120, Note_off_c, 3, 33, 0
5, 603840, Note_on_c, 3, 45, 67
5, 604800, Note_off_c, 3, 45, 0
5, 604800, Note_on_c, 3, 45, 66
5, 605760, Note_off_c, 3, 45, 0
5, 605760, Note_on_c, 3, 45, 65
5, 606720, Note_off_c, 3, 45, 0
5, 606720, Note_on_c, 3, 45, 64
5, 607200, Note_off_c, 3, 45, 0
5, 608640, Note_on_c, 3, 62, 62
5, 608640, Note_on_c, 3, 50, 54
5, 608760, Note_off_c, 3, 62, 0
5, 608880, Note_on_c, 3, 62, 52
5, 609000, Note_off_c, 3, 62, 0
5, 609120, Note_on_c, 3, 62, 52
5, 609240, Note_off_c, 3, 62, 0
5, 609360, Note_on_c, 3, 57, 52
5, 609480, Note_off_c, 3, 57, 0
5, 609600, Note_off_c, 3, 50, 0
5, 609600, Note_on_c, 3, 62, 63
5, 609600, Note_on_c, 3, 50, 56
5, 609720, Note_off_c, 3, 62, 0
5, 609840, Note_on_c, 3, 62, 53
5, 609960, Note_off_c, 3, 62, 0
5, 610080, Note_on_c, 3, 62, 53
5, 610200, Note_off_c, 3, 62, 0
5, 610320, Note_on_c, 3, 57, 53
5, 610440, Note_off_c, 3, 57, 0
5, 610560, Note_off_c, 3, 50, 0
5, 610560, Note_on_c, 3, 64, 66
5, 610560, Note_on_c, 3, 50, 59
5, 610680, Note_off_c, 3, 64, 0
5, 610800, Note_on_c, 3, 62, 54
5, 610920, Note_off_c, 3, 62, 0
5, 611040, Note_on_c, 3, 61, 54
5, 611160, Note_off_c, 3, 61, 0
5, 611280, Note_on_c, 3, 59, 55
5, 611400, Note_off_c, 3, 59, 0
5, 611520, Note_on_c, 3, 57, 55
5, 611640, Note_off_c, 3, 57, 0
5, 611760, Note_on_c, 3, 61, 55
5, 611880, Note_off_c, 3, 61, 0
5, 612000, Note_on_c, 3, 59, 55
5, 612120, Note_off_c, 3, 59, 0
5, 612240, Note_on_c, 3, 57, 56
5, 612360, Note_off_c, 3, 57, 0
5, 612480, Note_off_c, 3, 50, 0
5, 612480, Note_on_c, 3, 62, 68
5, 612480, Note_on_c, 3, 50, 52
5, 612600, Note_off_c, 3, 62, 0
5, 612720, Note_on_c, 3, 62, 56
5, 612840, Note_off_c, 3, 62, 0
5, 612960, Note_on_c, 3, 62, 57
5, 613080, Note_off_c, 3, 62, 0
5, 613200, Note_on_c, 3, 57, 57
5, 613320, Note_off_c, 3, 57, 0
5, 613440, Note_off_c, 3, 50, 0
5, 613440, Note_on_c, 3, 62, 69
5, 613440, Note_on_c, 3, 50, 52
5, 613560, Note_off_c, 3, 62, 0
5, 613680, Note_on_c, 3, 62, 57
5, 613800, Note_off_c, 3, 62, 0
5, 613920, Note_on_c, 3, 62, 58
5, 614040, Note_off_c, 3, 62, 0
5, 614160, Note_on_c, 3, 57, 58
5, 614280, Note_off_c, 3, 57, 0
5, 614400, Note_off_c, 3, 50, 0
5, 614400, Note_on_c, 3, 64, 66
5, 614400, Note_on_c, 3, 50, 53
5, 614520, Note_off_c, 3, 64, 0
5, 614640, Note_on_c, 3, 62, 59
5, 614760, Note_off_c, 3, 62, 0
5, 614880, Note_on_c, 3, 61, 59
5, 615000, Note_off_c, 3, 61, 0
5, 615120, Note_on_c, 3, 59, 59
5, 615240, Note_off_c, 3, 59, 0
5, 615360, Note_on_c, 3, 57, 59
5, 615480, Note_off_c, 3, 57, 0
5, 615600, Note_on_c, 3, 61, 52
5, 615720, Note_off_c, 3, 61, 0
5, 615840, Note_on_c, 3, 59, 50
5, 615960, Note_off_c, 3, 59, 0
5, 616080, Note_on_c, 3, 57, 48
5, 616200, Note_off_c, 3, 57, 0
5, 616320, Note_off_c, 3, 50, 0
5, 616320, Note_on_c, 3, 74, 44
5, 616440, Note_off_c, 3, 74, 0
5, 616560, Note_on_c, 3, 72, 45
5, 616680, Note_off_c, 3, 72, 0
5, 616800, Note_on_c, 3, 71, 46
5, 616920, Note_off_c, 3, 71, 0
5, 617040, Note_on_c, 3, 69, 47
5, 617160, Note_off_c, 3, 69, 0
5, 617280, Note_on_c, 3, 67, 48
5, 617400, Note_off_c, 3, 67, 0
5, 617520, Note_on_c, 3, 71, 49
5, 617640, Note_off_c, 3, 71, 0
5, 617760, Note_on_c, 3, 69, 50
5, 617880, Note_off_c, 3, 69, 0
5, 618000, Note_on_c, 3, 67, 51
5, 618120, Note_off_c, 3, 67, 0
5, 618240, Note_on_c, 3, 72, 52
5, 618360, Note_off_c, 3, 72, 0
5, 618480, Note_on_c, 3, 70, 53
5, 618600, Note_off_c, 3, 70, 0
5, 618720, Note_on_c, 3, 69, 54
5, 618840, Note_off_c, 3, 69, 0
5, 618960, Note_on_c, 3, 67, 55
5, 619080, Note_off_c, 3, 67, 0
5, 619200, Note_on_c, 3, 65, 56
5, 619320, Note_off_c, 3, 65, 0
5, 619440, Note_on_c, 3, 69, 57
5, 619560, Note_off_c, 3, 69, 0
5, 619680, Note_on_c, 3, 67, 59
5, 619800, Note_off_c, 3, 67, 0
5, 619920, Note_on_c, 3, 65, 60
5, 620040, Note_off_c, 3, 65, 0
5, 620160, Note_on_c, 3, 70, 60
5, 620280, Note_off_c, 3, 70, 0
5, 620400, Note_on_c, 3, 72, 61
5, 620520, Note_off_c, 3, 72, 0
5, 620640, Note_on_c, 3, 70, 63
5, 620760, Note_off_c, 3, 70, 0
5, 620880, Note_on_c, 3, 69, 65
5, 621000, Note_off_c, 3, 69, 0
5, 621120, Note_on_c, 3, 67, 66
5, 621240, Note_off_c, 3, 67, 0
5, 621360, Note_on_c, 3, 65, 68
5, 621480, Note_off_c, 3, 65, 0
5, 621600, Note_on_c, 3, 64, 69
5, 621720, Note_off_c, 3, 64, 0
5, 621840, Note_on_c, 3, 62, 71
5, 621960, Note_off_c, 3, 62, 0
5, 622080, Note_on_c, 3, 60, 73
5, 622200, Note_off_c, 3, 60, 0
5, 622320, Note_on_c, 3, 59, 74
5, 622440, Note_off_c, 3, 59, 0
5, 622560, Note_on_c, 3, 58, 76
5, 622680, Note_off_c, 3, 58, 0
5, 622800, Note_on_c, 3, 57, 77
5, 622920, Note_off_c, 3, 57, 0
5, 623040, Note_on_c, 3, 55, 79
5, 623160, Note_off_c, 3, 55, 0
5, 623280, Note_on_c, 3, 53, 81
5, 623400, Note_off_c, 3, 53, 0
5, 623520, Note_on_c, 3, 52, 82
5, 623640, Note_off_c, 3, 52, 0
5, 623760, Note_on_c, 3, 50, 84
5, 623880, Note_off_c, 3, 50, 0
5, 624000, Note_on_c, 3, 48, 86
5, 624480, Note_off_c, 3, 48, 0
5, 625680, Note_on_c, 3, 36, 84
5, 625760, Note_off_c, 3, 36, 0
5, 625760, Note_on_c, 3, 38, 85
5, 625840, Note_off_c, 3, 38, 0
5, 625840, Note_on_c, 3, 40, 87
5, 625920, Note_off_c, 3, 40, 0
5, 625920, Note_on_c, 3, 41, 97
5, 626040, Note_off_c, 3, 41, 0
5, 626160, Note_on_c, 3, 41, 93
5, 626280, Note_off_c, 3, 41, 0
5, 626400, Note_on_c, 3, 41, 93
5, 626520, Note_off_c, 3, 41, 0
5, 626640, Note_on_c, 3, 36, 93
5, 626760, Note_off_c, 3, 36, 0
5, 626880, Note_on_c, 3, 45, 98
5, 627000, Note_off_c, 3, 45, 0
5, 627120, Note_on_c, 3, 45, 92
5, 627240, Note_off_c, 3, 45, 0
5, 627360, Note_on_c, 3, 45, 92
5, 627480, Note_off_c, 3, 45, 0
5, 627600, Note_on_c, 3, 41, 92
5, 627720, Note_off_c, 3, 41, 0
5, 627840, Note_on_c, 3, 48, 98
5, 627960, Note_off_c, 3, 48, 0
5, 628080, Note_on_c, 3, 48, 92
5, 628200, Note_off_c, 3, 48, 0
5, 628320, Note_on_c, 3, 48, 92
5, 628440, Note_off_c, 3, 48, 0
5, 628440, Note_on_c, 3, 50, 91
5, 628560, Note_off_c, 3, 50, 0
5, 628560, Note_on_c, 3, 48, 91
5, 628680, Note_off_c, 3, 48, 0
5, 628680, Note_on_c, 3, 46, 91
5, 628800, Note_off_c, 3, 46, 0
5, 628800, Note_on_c, 3, 45, 97
5, 628920, Note_off_c, 3, 45, 0
5, 629040, Note_on_c, 3, 45, 91
5, 629160, Note_off_c, 3, 45, 0
5, 629280, Note_on_c, 3, 45, 91
5, 629400, Note_off_c, 3, 45, 0
5, 629400, Note_on_c, 3, 46, 91
5, 629520, Note_off_c, 3, 46, 0
5, 629520, Note_on_c, 3, 45, 91
5, 629640, Note_off_c, 3, 45, 0
5, 629640, Note_on_c, 3, 43, 91
5, 629760, Note_off_c, 3, 43, 0
5, 629760, Note_on_c, 3, 41, 91
5, 629880, Note_off_c, 3, 41, 0
5, 630000, Note_on_c, 3, 60, 90
5, 630120, Note_off_c, 3, 60, 0
5, 630120, Note_on_c, 3, 58, 90
5, 630240, Note_off_c, 3, 58, 0
5, 630240, Note_on_c, 3, 57, 90
5, 630360, Note_off_c, 3, 57, 0
5, 630360, Note_on_c, 3, 55, 90
5, 630480, Note_off_c, 3, 55, 0
5, 630480, Note_on_c, 3, 53, 90
5, 630600, Note_off_c, 3, 53, 0
5, 630600, Note_on_c, 3, 52, 90
5, 630720, Note_off_c, 3, 52, 0
5, 630720, Note_on_c, 3, 53, 90
5, 630840, Note_off_c, 3, 53, 0
5, 630840, Note_on_c, 3, 52, 90
5, 630960, Note_off_c, 3, 52, 0
5, 630960, Note_on_c, 3, 50, 90
5, 631080, Note_off_c, 3, 50, 0
5, 631080, Note_on_c, 3, 48, 90
5, 631200, Note_off_c, 3, 48, 0
5, 631200, Note_on_c, 3, 46, 89
5, 631320, Note_off_c, 3, 46, 0
5, 631320, Note_on_c, 3, 45, 89
5, 631440, Note_off_c, 3, 45, 0
5, 631440, Note_on_c, 3, 43, 89
5, 631560, Note_off_c, 3, 43, 0
5, 631560, Note_on_c, 3, 41, 89
5, 631680, Note_off_c, 3, 41, 0
5, 631680, Note_on_c, 3, 40, 89
5, 631800, Note_off_c, 3, 40, 0
5, 631800, Note_on_c, 3, 41, 89
5, 631920, Note_off_c, 3, 41, 0
5, 631920, Note_on_c, 3, 43, 89
5, 632040, Note_off_c, 3, 43, 0
5, 632040, Note_on_c, 3, 41, 89
5, 632160, Note_off_c, 3, 41, 0
5, 632160, Note_on_c, 3, 40, 89
5, 632280, Note_off_c, 3, 40, 0
5, 632280, Note_on_c, 3, 36, 89
5, 632400, Note_off_c, 3, 36, 0
5, 632400, Note_on_c, 3, 38, 89
5, 632520, Note_off_c, 3, 38, 0
5, 632520, Note_on_c, 3, 40, 89
5, 632640, Note_off_c, 3, 40, 0
5, 632640, Note_on_c, 3, 41, 88
5, 632880, Note_off_c, 3, 41, 0
5, 632880, Note_on_c, 3, 39, 88
5, 633120, Note_off_c, 3, 39, 0
5, 633120, Note_on_c, 3, 38, 88
5, 633360, Note_off_c, 3, 38, 0
5, 633360, Note_on_c, 3, 42, 88
5, 633600, Note_off_c, 3, 42, 0
5, 633600, Note_on_c, 3, 43, 94
5, 633718, Note_off_c, 3, 43, 0
5, 633840, Note_on_c, 3, 43, 88
5, 633958, Note_off_c, 3, 43, 0
5, 634080, Note_on_c, 3, 43, 87
5, 634198, Note_off_c, 3, 43, 0
5, 634320, Note_on_c, 3, 38, 87
5, 634438, Note_off_c, 3, 38, 0
5, 634560, Note_on_c, 3, 46, 94
5, 634678, Note_off_c, 3, 46, 0
5, 634800, Note_on_c, 3, 46, 87
5, 634918, Note_off_c, 3, 46, 0
5, 635040, Note_on_c, 3, 46, 87
5, 635158, Note_off_c, 3, 46, 0
5, 635280, Note_on_c, 3, 43, 87
5, 635398, Note_off_c, 3, 43, 0
5, 635520, Note_on_c, 3, 50, 94
5, 635638, Note_off_c, 3, 50, 0
5, 635760, Note_on_c, 3, 50, 86
5, 635878, Note_off_c, 3, 50, 0
5, 636000, Note_on_c, 3, 50, 86
5, 636120, Note_off_c, 3, 50, 0
5, 636120, Note_on_c, 3, 51, 86
5, 636240, Note_off_c, 3, 51, 0
5, 636240, Note_on_c, 3, 50, 86
5, 636360, Note_off_c, 3, 50, 0
5, 636360, Note_on_c, 3, 48, 86
5, 636480, Note_off_c, 3, 48, 0
5, 636480, Note_on_c, 3, 46, 91
5, 636598, Note_off_c, 3, 46, 0
5, 636720, Note_on_c, 3, 46, 86
5, 636838, Note_off_c, 3, 46, 0
5, 636960, Note_on_c, 3, 46, 85
5, 637080, Note_off_c, 3, 46, 0
5, 637080, Note_on_c, 3, 48, 85
5, 637200, Note_off_c, 3, 48, 0
5, 637200, Note_on_c, 3, 46, 85
5, 637320, Note_off_c, 3, 46, 0
5, 637320, Note_on_c, 3, 45, 85
5, 637440, Note_off_c, 3, 45, 0
5, 637440, Note_on_c, 3, 43, 85
5, 637560, Note_off_c, 3, 43, 0
5, 637680, Note_on_c, 3, 62, 85
5, 637800, Note_off_c, 3, 62, 0
5, 637800, Note_on_c, 3, 60, 85
5, 637920, Note_off_c, 3, 60, 0
5, 637920, Note_on_c, 3, 58, 85
5, 638040, Note_off_c, 3, 58, 0
5, 638040, Note_on_c, 3, 57, 85
5, 638160, Note_off_c, 3, 57, 0
5, 638160, Note_on_c, 3, 55, 85
5, 638280, Note_off_c, 3, 55, 0
5, 638280, Note_on_c, 3, 54, 84
5, 638400, Note_off_c, 3, 54, 0
5, 638400, Note_on_c, 3, 55, 84
5, 638520, Note_off_c, 3, 55, 0
5, 638520, Note_on_c, 3, 53, 84
5, 638640, Note_off_c, 3, 53, 0
5, 638640, Note_on_c, 3, 51, 84
5, 638760, Note_off_c, 3, 51, 0
5, 638760, Note_on_c, 3, 50, 84
5, 638880, Note_off_c, 3, 50, 0
5, 638880, Note_on_c, 3, 48, 84
5, 639000, Note_off_c, 3, 48, 0
5, 639000, Note_on_c, 3, 46, 84
5, 639120, Note_off_c, 3, 46, 0
5, 639120, Note_on_c, 3, 45, 84
5, 639240, Note_off_c, 3, 45, 0
5, 639240, Note_on_c, 3, 43, 84
5, 639360, Note_off_c, 3, 43, 0
5, 639360, Note_on_c, 3, 42, 84
5, 639480, Note_off_c, 3, 42, 0
5, 639480, Note_on_c, 3, 43, 84
5, 639600, Note_off_c, 3, 43, 0
5, 639600, Note_on_c, 3, 45, 84
5, 639720, Note_off_c, 3, 45, 0
5, 639720, Note_on_c, 3, 43, 83
5, 639840, Note_off_c, 3, 43, 0
5, 639840, Note_on_c, 3, 42, 83
5, 639960, Note_off_c, 3, 42, 0
5, 639960, Note_on_c, 3, 38, 83
5, 640080, Note_off_c, 3, 38, 0
5, 640080, Note_on_c, 3, 40, 83
5, 640200, Note_off_c, 3, 40, 0
5, 640200, Note_on_c, 3, 42, 83
5, 640320, Note_off_c, 3, 42, 0
5, 640320, Note_on_c, 3, 43, 83
5, 640560, Note_off_c, 3, 43, 0
5, 640560, Note_on_c, 3, 42, 83
5, 640800, Note_off_c, 3, 42, 0
5, 640800, Note_on_c, 3, 41, 83
5, 641040, Note_off_c, 3, 41, 0
5, 641040, Note_on_c, 3, 45, 82
5, 641280, Note_off_c, 3, 45, 0
5, 641280, Note_on_c, 3, 46, 90
5, 641400, Note_off_c, 3, 46, 0
5, 641520, Note_on_c, 3, 46, 82
5, 641640, Note_off_c, 3, 46, 0
5, 641760, Note_on_c, 3, 46, 82
5, 641880, Note_off_c, 3, 46, 0
5, 642000, Note_on_c, 3, 41, 82
5, 642120, Note_off_c, 3, 41, 0
5, 642240, Note_on_c, 3, 50, 88
5, 642360, Note_off_c, 3, 50, 0
5, 642480, Note_on_c, 3, 50, 81
5, 642600, Note_off_c, 3, 50, 0
5, 642720, Note_on_c, 3, 50, 81
5, 642840, Note_off_c, 3, 50, 0
5, 642960, Note_on_c, 3, 46, 81
5, 643080, Note_off_c, 3, 46, 0
5, 643200, Note_on_c, 3, 53, 88
5, 643320, Note_off_c, 3, 53, 0
5, 643440, Note_on_c, 3, 53, 81
5, 643560, Note_off_c, 3, 53, 0
5, 643680, Note_on_c, 3, 53, 81
5, 643800, Note_off_c, 3, 53, 0
5, 643800, Note_on_c, 3, 55, 81
5, 643920, Note_off_c, 3, 55, 0
5, 643920, Note_on_c, 3, 53, 80
5, 644040, Note_off_c, 3, 53, 0
5, 644040, Note_on_c, 3, 51, 80
5, 644160, Note_off_c, 3, 51, 0
5, 644160, Note_on_c, 3, 50, 88
5, 644280, Note_off_c, 3, 50, 0
5, 644400, Note_on_c, 3, 50, 80
5, 644520, Note_off_c, 3, 50, 0
5, 644640, Note_on_c, 3, 50, 80
5, 644760, Note_off_c, 3, 50, 0
5, 644760, Note_on_c, 3, 51, 80
5, 644880, Note_off_c, 3, 51, 0
5, 644880, Note_on_c, 3, 50, 80
5, 645000, Note_off_c, 3, 50, 0
5, 645000, Note_on_c, 3, 48, 80
5, 645120, Note_off_c, 3, 48, 0
5, 645120, Note_on_c, 3, 46, 80
5, 645240, Note_off_c, 3, 46, 0
5, 645360, Note_on_c, 3, 58, 44
5, 645480, Note_on_c, 3, 61, 45
5, 645597, Note_off_c, 3, 58, 0
5, 645600, Note_off_c, 3, 61, 0
5, 645600, Note_on_c, 3, 58, 45
5, 645720, Note_on_c, 3, 61, 46
5, 645828, Note_off_c, 3, 58, 0
5, 645840, Note_off_c, 3, 61, 0
5, 645840, Note_on_c, 3, 58, 46
5, 645960, Note_on_c, 3, 61, 47
5, 646068, Note_off_c, 3, 58, 0
5, 646080, Note_off_c, 3, 61, 0
5, 646080, Note_on_c, 3, 58, 47
5, 646200, Note_on_c, 3, 61, 48
5, 646308, Note_off_c, 3, 58, 0
5, 646320, Note_off_c, 3, 61, 0
5, 646320, Note_on_c, 3, 58, 48
5, 646440, Note_on_c, 3, 61, 49
5, 646548, Note_off_c, 3, 58, 0
5, 646560, Note_off_c, 3, 61, 0
5, 646560, Note_on_c, 3, 58, 49
5, 646680, Note_on_c, 3, 61, 50
5, 646788, Note_off_c, 3, 58, 0
5, 646800, Note_off_c, 3, 61, 0
5, 646800, Note_on_c, 3, 58, 50
5, 646920, Note_on_c, 3, 61, 51
5, 647028, Note_off_c, 3, 58, 0
5, 647040, Note_off_c, 3, 61, 0
5, 647040, Note_on_c, 3, 53, 51
5, 647160, Note_on_c, 3, 60, 52
5, 647268, Note_off_c, 3, 53, 0
5, 647280, Note_off_c, 3, 60, 0
5, 647280, Note_on_c, 3, 57, 52
5, 647400, Note_on_c, 3, 60, 53
5, 647508, Note_off_c, 3, 57, 0
5, 647520, Note_off_c, 3, 60, 0
5, 647520, Note_on_c, 3, 57, 53
5, 647640, Note_on_c, 3, 60, 54
5, 647748, Note_off_c, 3, 57, 0
5, 647760, Note_off_c, 3, 60, 0
5, 647760, Note_on_c, 3, 57, 54
5, 647880, Note_on_c, 3, 60, 55
5, 647988, Note_off_c, 3, 57, 0
5, 648000, Note_off_c, 3, 60, 0
5, 648000, Note_on_c, 3, 58, 55
5, 648120, Note_on_c, 3, 61, 56
5, 648228, Note_off_c, 3, 58, 0
5, 648240, Note_off_c, 3, 61, 0
5, 648240, Note_on_c, 3, 58, 56
5, 648360, Note_on_c, 3, 61, 57
5, 648468, Note_off_c, 3, 58, 0
5, 648480, Note_off_c, 3, 61, 0
5, 648480, Note_on_c, 3, 58, 57
5, 648600, Note_on_c, 3, 61, 58
5, 648708, Note_off_c, 3, 58, 0
5, 648720, Note_off_c, 3, 61, 0
5, 648720, Note_on_c, 3, 58, 58
5, 648840, Note_on_c, 3, 61, 59
5, 648948, Note_off_c, 3, 58, 0
5, 648960, Note_off_c, 3, 61, 0
5, 648960, Note_on_c, 3, 53, 59
5, 649080, Note_on_c, 3, 60, 60
5, 649188, Note_off_c, 3, 53, 0
5, 649200, Note_off_c, 3, 60, 0
5, 649200, Note_on_c, 3, 57, 60
5, 649320, Note_on_c, 3, 60, 61
5, 649428, Note_off_c, 3, 57, 0
5, 649440, Note_off_c, 3, 60, 0
5, 649440, Note_on_c, 3, 57, 61
5, 649560, Note_on_c, 3, 60, 62
5, 649668, Note_off_c, 3, 57, 0
5, 649680, Note_off_c, 3, 60, 0
5, 649680, Note_on_c, 3, 57, 62
5, 649800, Note_on_c, 3, 60, 63
5, 649908, Note_off_c, 3, 57, 0
5, 649920, Note_off_c, 3, 60, 0
5, 649920, Note_on_c, 3, 58, 63
5, 650040, Note_on_c, 3, 61, 64
5, 650148, Note_off_c, 3, 58, 0
5, 650160, Note_off_c, 3, 61, 0
5, 650160, Note_on_c, 3, 58, 64
5, 650280, Note_on_c, 3, 61, 65
5, 650388, Note_off_c, 3, 58, 0
5, 650400, Note_off_c, 3, 61, 0
5, 650400, Note_on_c, 3, 58, 65
5, 650520, Note_on_c, 3, 61, 66
5, 650628, Note_off_c, 3, 58, 0
5, 650640, Note_off_c, 3, 61, 0
5, 650640, Note_on_c, 3, 60, 66
5, 650760, Note_on_c, 3, 63, 67
5, 650859, Note_off_c, 3, 60, 0
5, 650880, Note_off_c, 3, 63, 0
5, 650880, Note_on_c, 3, 61, 68
5, 651000, Note_on_c, 3, 65, 68
5, 651099, Note_off_c, 3, 61, 0
5, 651120, Note_off_c, 3, 65, 0
5, 651120, Note_on_c, 3, 61, 69
5, 651240, Note_on_c, 3, 65, 69
5, 651339, Note_off_c, 3, 61, 0
5, 651360, Note_off_c, 3, 65, 0
5, 651360, Note_on_c, 3, 61, 70
5, 651480, Note_on_c, 3, 65, 70
5, 651579, Note_off_c, 3, 61, 0
5, 651600, Note_off_c, 3, 65, 0
5, 651600, Note_on_c, 3, 60, 71
5, 651720, Note_on_c, 3, 63, 71
5, 651819, Note_off_c, 3, 60, 0
5, 651840, Note_off_c, 3, 63, 0
5, 651840, Note_on_c, 3, 58, 72
5, 651960, Note_on_c, 3, 61, 72
5, 652068, Note_off_c, 3, 58, 0
5, 652080, Note_off_c, 3, 61, 0
5, 652080, Note_on_c, 3, 58, 73
5, 652200, Note_on_c, 3, 61, 73
5, 652308, Note_off_c, 3, 58, 0
5, 652320, Note_off_c, 3, 61, 0
5, 652320, Note_on_c, 3, 58, 74
5, 652440, Note_on_c, 3, 61, 74
5, 652548, Note_off_c, 3, 58, 0
5, 652560, Note_off_c, 3, 61, 0
5, 652560, Note_on_c, 3, 56, 75
5, 652680, Note_on_c, 3, 60, 75
5, 652788, Note_off_c, 3, 56, 0
5, 652800, Note_off_c, 3, 60, 0
5, 652800, Note_on_c, 3, 55, 78
5, 652920, Note_on_c, 3, 59, 78
5, 653028, Note_off_c, 3, 55, 0
5, 653040, Note_off_c, 3, 59, 0
5, 653040, Note_on_c, 3, 55, 78
5, 653160, Note_on_c, 3, 59, 79
5, 653268, Note_off_c, 3, 55, 0
5, 653280, Note_off_c, 3, 59, 0
5, 653280, Note_on_c, 3, 55, 79
5, 653400, Note_on_c, 3, 59, 80
5, 653508, Note_off_c, 3, 55, 0
5, 653520, Note_off_c, 3, 59, 0
5, 653520, Note_on_c, 3, 55, 80
5, 653640, Note_on_c, 3, 59, 80
5, 653748, Note_off_c, 3, 55, 0
5, 653760, Note_off_c, 3, 59, 0
5, 653760, Note_on_c, 3, 56, 81
5, 653880, Note_on_c, 3, 60, 81
5, 653988, Note_off_c, 3, 56, 0
5, 654000, Note_off_c, 3, 60, 0
5, 654000, Note_on_c, 3, 56, 81
5, 654120, Note_on_c, 3, 60, 82
5, 654228, Note_off_c, 3, 56, 0
5, 654240, Note_off_c, 3, 60, 0
5, 654240, Note_on_c, 3, 52, 82
5, 654360, Note_on_c, 3, 60, 83
5, 654468, Note_off_c, 3, 52, 0
5, 654480, Note_off_c, 3, 60, 0
5, 654480, Note_on_c, 3, 52, 83
5, 654600, Note_on_c, 3, 60, 83
5, 654708, Note_off_c, 3, 52, 0
5, 654720, Note_off_c, 3, 60, 0
5, 654720, Note_on_c, 3, 53, 84
5, 654840, Note_on_c, 3, 60, 84
5, 654948, Note_off_c, 3, 53, 0
5, 654960, Note_off_c, 3, 60, 0
5, 654960, Note_on_c, 3, 53, 84
5, 655080, Note_on_c, 3, 60, 85
5, 655188, Note_off_c, 3, 53, 0
5, 655200, Note_off_c, 3, 60, 0
5, 655200, Note_on_c, 3, 51, 85
5, 655320, Note_on_c, 3, 53, 86
5, 655428, Note_off_c, 3, 51, 0
5, 655440, Note_off_c, 3, 53, 0
5, 655440, Note_on_c, 3, 51, 86
5, 655560, Note_on_c, 3, 53, 86
5, 655659, Note_off_c, 3, 51, 0
5, 655680, Note_off_c, 3, 53, 0
5, 655680, Note_on_c, 3, 49, 87
5, 655800, Note_on_c, 3, 53, 87
5, 655899, Note_off_c, 3, 49, 0
5, 655920, Note_off_c, 3, 53, 0
5, 655920, Note_on_c, 3, 49, 87
5, 656040, Note_on_c, 3, 53, 88
5, 656139, Note_off_c, 3, 49, 0
5, 656160, Note_off_c, 3, 53, 0
5, 656160, Note_on_c, 3, 45, 88
5, 656280, Note_on_c, 3, 53, 89
5, 656379, Note_off_c, 3, 45, 0
5, 656400, Note_off_c, 3, 53, 0
5, 656400, Note_on_c, 3, 45, 89
5, 656520, Note_on_c, 3, 53, 89
5, 656619, Note_off_c, 3, 45, 0
5, 656640, Note_off_c, 3, 53, 0
5, 656640, Note_on_c, 3, 46, 95
5, 656760, Note_on_c, 3, 53, 95
5, 656859, Note_off_c, 3, 46, 0
5, 656880, Note_off_c, 3, 53, 0
5, 656880, Note_on_c, 3, 46, 95
5, 657000, Note_on_c, 3, 53, 95
5, 657099, Note_off_c, 3, 46, 0
5, 657120, Note_off_c, 3, 53, 0
5, 657120, Note_on_c, 3, 46, 95
5, 657240, Note_on_c, 3, 53, 95
5, 657339, Note_off_c, 3, 46, 0
5, 657360, Note_off_c, 3, 53, 0
5, 657360, Note_on_c, 3, 48, 95
5, 657480, Note_on_c, 3, 53, 95
5, 657579, Note_off_c, 3, 48, 0
5, 657600, Note_off_c, 3, 53, 0
5, 657600, Note_on_c, 3, 49, 95
5, 657720, Note_on_c, 3, 53, 95
5, 657819, Note_off_c, 3, 49, 0
5, 657840, Note_off_c, 3, 53, 0
5, 657840, Note_on_c, 3, 49, 95
5, 657960, Note_on_c, 3, 53, 95
5, 658059, Note_off_c, 3, 49, 0
5, 658080, Note_off_c, 3, 53, 0
5, 658080, Note_on_c, 3, 49, 95
5, 658200, Note_on_c, 3, 53, 95
5, 658299, Note_off_c, 3, 49, 0
5, 658320, Note_off_c, 3, 53, 0
5, 658320, Note_on_c, 3, 37, 108
5, 658440, Note_on_c, 3, 49, 99
5, 658557, Note_off_c, 3, 37, 0
5, 658560, Note_off_c, 3, 49, 0
5, 658560, Note_on_c, 3, 36, 95
5, 658680, Note_on_c, 3, 48, 95
5, 658797, Note_off_c, 3, 36, 0
5, 658800, Note_off_c, 3, 48, 0
5, 658800, Note_on_c, 3, 36, 95
5, 658920, Note_on_c, 3, 48, 95
5, 659037, Note_off_c, 3, 36, 0
5, 659040, Note_off_c, 3, 48, 0
5, 659040, Note_on_c, 3, 36, 95
5, 659160, Note_on_c, 3, 48, 95
5, 659277, Note_off_c, 3, 36, 0
5, 659280, Note_off_c, 3, 48, 0
5, 659280, Note_on_c, 3, 40, 108
5, 659400, Note_on_c, 3, 52, 101
5, 659517, Note_off_c, 3, 40, 0
5, 659520, Note_off_c, 3, 52, 0
5, 659520, Note_on_c, 3, 41, 95
5, 659640, Note_on_c, 3, 53, 95
5, 659757, Note_off_c, 3, 41, 0
5, 659760, Note_off_c, 3, 53, 0
5, 659760, Note_on_c, 3, 41, 95
5, 659880, Note_on_c, 3, 53, 95
5, 659997, Note_off_c, 3, 41, 0
5, 660000, Note_off_c, 3, 53, 0
5, 660000, Note_on_c, 3, 41, 95
5, 660120, Note_on_c, 3, 53, 95
5, 660237, Note_off_c, 3, 41, 0
5, 660240, Note_off_c, 3, 53, 0
5, 660240, Note_on_c, 3, 33, 109
5, 660360, Note_on_c, 3, 45, 99
5, 660477, Note_off_c, 3, 33, 0
5, 660480, Note_off_c, 3, 45, 0
5, 660480, Note_on_c, 3, 34, 95
5, 660600, Note_on_c, 3, 46, 94
5, 660717, Note_off_c, 3, 34, 0
5, 660720, Note_off_c, 3, 46, 0
5, 660720, Note_on_c, 3, 34, 93
5, 660840, Note_on_c, 3, 46, 92
5, 660957, Note_off_c, 3, 34, 0
5, 660960, Note_off_c, 3, 46, 0
5, 660960, Note_on_c, 3, 34, 91
5, 661080, Note_on_c, 3, 46, 90
5, 661197, Note_off_c, 3, 34, 0
5, 661200, Note_off_c, 3, 46, 0
5, 661200, Note_on_c, 3, 35, 89
5, 661320, Note_on_c, 3, 47, 87
5, 661437, Note_off_c, 3, 35, 0
5, 661440, Note_off_c, 3, 47, 0
5, 661440, Note_on_c, 3, 36, 86
5, 661560, Note_on_c, 3, 48, 85
5, 661677, Note_off_c, 3, 36, 0
5, 661680, Note_off_c, 3, 48, 0
5, 661680, Note_on_c, 3, 36, 84
5, 661800, Note_on_c, 3, 48, 83
5, 661899, Note_off_c, 3, 36, 0
5, 661920, Note_off_c, 3, 48, 0
5, 661920, Note_on_c, 3, 36, 82
5, 662040, Note_on_c, 3, 48, 81
5, 662139, Note_off_c, 3, 36, 0
5, 662160, Note_off_c, 3, 48, 0
5, 662160, Note_on_c, 3, 36, 80
5, 662280, Note_on_c, 3, 48, 79
5, 662379, Note_off_c, 3, 36, 0
5, 662400, Note_off_c, 3, 48, 0
5, 662400, Note_on_c, 3, 53, 78
5, 662400, Note_on_c, 3, 41, 78
5, 662520, Note_off_c, 3, 53, 0
5, 662640, Note_on_c, 3, 53, 66
5, 662760, Note_off_c, 3, 53, 0
5, 662880, Note_on_c, 3, 53, 66
5, 663000, Note_off_c, 3, 53, 0
5, 663120, Note_on_c, 3, 48, 66
5, 663240, Note_off_c, 3, 48, 0
5, 663360, Note_off_c, 3, 41, 0
5, 663360, Note_on_c, 3, 53, 74
5, 663360, Note_on_c, 3, 41, 77
5, 663480, Note_off_c, 3, 53, 0
5, 663600, Note_on_c, 3, 53, 62
5, 663720, Note_off_c, 3, 53, 0
5, 663840, Note_on_c, 3, 53, 62
5, 663960, Note_off_c, 3, 53, 0
5, 664080, Note_on_c, 3, 48, 63
5, 664200, Note_off_c, 3, 48, 0
5, 664320, Note_off_c, 3, 41, 0
5, 664320, Note_on_c, 3, 55, 78
5, 664320, Note_on_c, 3, 41, 76
5, 664440, Note_off_c, 3, 55, 0
5, 664560, Note_on_c, 3, 53, 64
5, 664680, Note_off_c, 3, 53, 0
5, 664800, Note_on_c, 3, 52, 67
5, 664920, Note_off_c, 3, 52, 0
5, 665040, Note_on_c, 3, 50, 70
5, 665160, Note_off_c, 3, 50, 0
5, 665280, Note_on_c, 3, 48, 74
5, 665400, Note_off_c, 3, 48, 0
5, 665520, Note_on_c, 3, 50, 71
5, 665640, Note_off_c, 3, 50, 0
5, 665760, Note_on_c, 3, 52, 68
5, 665880, Note_off_c, 3, 52, 0
5, 666000, Note_on_c, 3, 48, 66
5, 666120, Note_off_c, 3, 48, 0
5, 666240, Note_off_c, 3, 41, 0
5, 666240, Note_on_c, 3, 53, 72
5, 666240, Note_on_c, 3, 41, 74
5, 666360, Note_off_c, 3, 53, 0
5, 666480, Note_on_c, 3, 53, 58
5, 666600, Note_off_c, 3, 53, 0
5, 666720, Note_on_c, 3, 53, 58
5, 666840, Note_off_c, 3, 53, 0
5, 666960, Note_on_c, 3, 48, 59
5, 667080, Note_off_c, 3, 48, 0
5, 667200, Note_off_c, 3, 41, 0
5, 667200, Note_on_c, 3, 53, 69
5, 667200, Note_on_c, 3, 41, 73
5, 667320, Note_off_c, 3, 53, 0
5, 667440, Note_on_c, 3, 53, 58
5, 667560, Note_off_c, 3, 53, 0
5, 667680, Note_on_c, 3, 53, 60
5, 667800, Note_off_c, 3, 53, 0
5, 667920, Note_on_c, 3, 48, 61
5, 668040, Note_off_c, 3, 48, 0
5, 668160, Note_off_c, 3, 41, 0
5, 668160, Note_on_c, 3, 55, 74
5, 668160, Note_on_c, 3, 41, 73
5, 668280, Note_off_c, 3, 55, 0
5, 668400, Note_on_c, 3, 53, 61
5, 668520, Note_off_c, 3, 53, 0
5, 668640, Note_on_c, 3, 52, 63
5, 668760, Note_off_c, 3, 52, 0
5, 668880, Note_on_c, 3, 50, 65
5, 669000, Note_off_c, 3, 50, 0
5, 669120, Note_on_c, 3, 48, 67
5, 669240, Note_off_c, 3, 48, 0
5, 669360, Note_on_c, 3, 50, 65
5, 669480, Note_off_c, 3, 50, 0
5, 669600, Note_on_c, 3, 52, 63
5, 669720, Note_off_c, 3, 52, 0
5, 669840, Note_on_c, 3, 48, 60
5, 669960, Note_off_c, 3, 48, 0
5, 670080, Note_off_c, 3, 41, 0
5, 670080, Note_on_c, 3, 53, 76
5, 670320, Note_on_c, 3, 65, 56
5, 670440, Note_off_c, 3, 65, 0
5, 670560, Note_on_c, 3, 65, 56
5, 670680, Note_off_c, 3, 65, 0
5, 670800, Note_on_c, 3, 60, 57
5, 670920, Note_off_c, 3, 60, 0
5, 671040, Note_off_c, 3, 53, 0
5, 671040, Note_on_c, 3, 65, 68
5, 671040, Note_on_c, 3, 53, 70
5, 671160, Note_off_c, 3, 65, 0
5, 671280, Note_on_c, 3, 65, 55
5, 671400, Note_off_c, 3, 65, 0
5, 671520, Note_on_c, 3, 65, 55
5, 671640, Note_off_c, 3, 65, 0
5, 671760, Note_on_c, 3, 60, 54
5, 671880, Note_off_c, 3, 60, 0
5, 672000, Note_off_c, 3, 53, 0
5, 672000, Note_on_c, 3, 67, 67
5, 672000, Note_on_c, 3, 53, 69
5, 672120, Note_off_c, 3, 67, 0
5, 672240, Note_on_c, 3, 65, 56
5, 672360, Note_off_c, 3, 65, 0
5, 672480, Note_on_c, 3, 64, 58
5, 672600, Note_off_c, 3, 64, 0
5, 672720, Note_on_c, 3, 62, 61
5, 672840, Note_off_c, 3, 62, 0
5, 672960, Note_on_c, 3, 60, 65
5, 673080, Note_off_c, 3, 60, 0
5, 673200, Note_on_c, 3, 64, 63
5, 673320, Note_off_c, 3, 64, 0
5, 673440, Note_on_c, 3, 62, 61
5, 673560, Note_off_c, 3, 62, 0
5, 673680, Note_on_c, 3, 60, 58
5, 673800, Note_off_c, 3, 60, 0
5, 673920, Note_off_c, 3, 53, 0
5, 673920, Note_on_c, 3, 65, 66
5, 673920, Note_on_c, 3, 53, 68
5, 674040, Note_off_c, 3, 65, 0
5, 674160, Note_on_c, 3, 65, 56
5, 674280, Note_off_c, 3, 65, 0
5, 674400, Note_on_c, 3, 65, 54
5, 674520, Note_off_c, 3, 65, 0
5, 674640, Note_on_c, 3, 60, 51
5, 674760, Note_off_c, 3, 60, 0
5, 674880, Note_off_c, 3, 53, 0
5, 674880, Note_on_c, 3, 65, 68
5, 674880, Note_on_c, 3, 53, 67
5, 675000, Note_off_c, 3, 65, 0
5, 675120, Note_on_c, 3, 65, 55
5, 675240, Note_off_c, 3, 65, 0
5, 675360, Note_on_c, 3, 65, 54
5, 675480, Note_off_c, 3, 65, 0
5, 675600, Note_on_c, 3, 60, 52
5, 675720, Note_off_c, 3, 60, 0
5, 675840, Note_off_c, 3, 53, 0
5, 675840, Note_on_c, 3, 67, 64
5, 675840, Note_on_c, 3, 53, 66
5, 675960, Note_off_c, 3, 67, 0
5, 676080, Note_on_c, 3, 65, 56
5, 676200, Note_off_c, 3, 65, 0
5, 676320, Note_on_c, 3, 64, 59
5, 676440, Note_off_c, 3, 64, 0
5, 676560, Note_on_c, 3, 62, 61
5, 676680, Note_off_c, 3, 62, 0
5, 676800, Note_on_c, 3, 60, 69
5, 676920, Note_off_c, 3, 60, 0
5, 677040, Note_on_c, 3, 64, 65
5, 677160, Note_off_c, 3, 64, 0
5, 677280, Note_on_c, 3, 62, 61
5, 677400, Note_off_c, 3, 62, 0
5, 677520, Note_on_c, 3, 60, 58
5, 677640, Note_off_c, 3, 60, 0
5, 677760, Note_off_c, 3, 53, 0
5, 677760, Note_on_c, 3, 65, 54
5, 677880, Note_off_c, 3, 65, 0
5, 678000, Note_on_c, 3, 76, 60
5, 678120, Note_off_c, 3, 76, 0
5, 678240, Note_on_c, 3, 74, 62
5, 678360, Note_off_c, 3, 74, 0
5, 678480, Note_on_c, 3, 72, 64
5, 678600, Note_off_c, 3, 72, 0
5, 678720, Note_on_c, 3, 70, 66
5, 678840, Note_off_c, 3, 70, 0
5, 678960, Note_on_c, 3, 69, 67
5, 679080, Note_off_c, 3, 69, 0
5, 679200, Note_on_c, 3, 67, 69
5, 679320, Note_off_c, 3, 67, 0
5, 679440, Note_on_c, 3, 72, 71
5, 679560, Note_off_c, 3, 72, 0
5, 679680, Note_on_c, 3, 65, 73
5, 679800, Note_off_c, 3, 65, 0
5, 679920, Note_on_c, 3, 64, 74
5, 680040, Note_off_c, 3, 64, 0
5, 680160, Note_on_c, 3, 62, 76
5, 680280, Note_off_c, 3, 62, 0
5, 680400, Note_on_c, 3, 60, 78
5, 680520, Note_off_c, 3, 60, 0
5, 680640, Note_on_c, 3, 58, 80
5, 680760, Note_off_c, 3, 58, 0
5, 680880, Note_on_c, 3, 57, 81
5, 681000, Note_off_c, 3, 57, 0
5, 681120, Note_on_c, 3, 55, 83
5, 681240, Note_off_c, 3, 55, 0
5, 681360, Note_on_c, 3, 60, 85
5, 681480, Note_off_c, 3, 60, 0
5, 681600, Note_on_c, 3, 53, 87
5, 681600, Note_on_c, 3, 57, 87
5, 681720, Note_off_c, 3, 57, 0
5, 681720, Note_off_c, 3, 53, 0
5, 681840, Note_on_c, 3, 53, 88
5, 681840, Note_on_c, 3, 57, 88
5, 681960, Note_off_c, 3, 57, 0
5, 681960, Note_off_c, 3, 53, 0
5, 682080, Note_on_c, 3, 57, 90
5, 682080, Note_on_c, 3, 53, 90
5, 682200, Note_off_c, 3, 53, 0
5, 682200, Note_off_c, 3, 57, 0
5, 682320, Note_on_c, 3, 57, 93
5, 682320, Note_on_c, 3, 53, 93
5, 682440, Note_off_c, 3, 53, 0
5, 682440, Note_off_c, 3, 57, 0
5, 682560, Note_on_c, 3, 53, 95
5, 682560, Note_on_c, 3, 55, 95
5, 682680, Note_off_c, 3, 55, 0
5, 682680, Note_off_c, 3, 53, 0
5, 682800, Note_on_c, 3, 53, 98
5, 682800, Note_on_c, 3, 55, 98
5, 682920, Note_off_c, 3, 55, 0
5, 682920, Note_off_c, 3, 53, 0
5, 683040, Note_on_c, 3, 52, 100
5, 683040, Note_on_c, 3, 55, 100
5, 683160, Note_off_c, 3, 55, 0
5, 683160, Note_off_c, 3, 52, 0
5, 683280, Note_on_c, 3, 52, 103
5, 683280, Note_on_c, 3, 55, 103
5, 683400, Note_off_c, 3, 55, 0
5, 683400, Note_off_c, 3, 52, 0
5, 683520, Note_on_c, 3, 53, 104
5, 683640, Note_off_c, 3, 53, 0
5, 683760, Note_on_c, 3, 36, 105
5, 683880, Note_off_c, 3, 36, 0
5, 684000, Note_on_c, 3, 36, 106
5, 684120, Note_off_c, 3, 36, 0
5, 684240, Note_on_c, 3, 36, 107
5, 684360, Note_off_c, 3, 36, 0
5, 684480, Note_on_c, 3, 36, 107
5, 684600, Note_off_c, 3, 36, 0
5, 684720, Note_on_c, 3, 36, 108
5, 684840, Note_off_c, 3, 36, 0
5, 684960, Note_on_c, 3, 38, 109
5, 685080, Note_off_c, 3, 38, 0
5, 685200, Note_on_c, 3, 40, 110
5, 685320, Note_off_c, 3, 40, 0
5, 685440, Note_on_c, 3, 41, 111
5, 685440, Note_on_c, 3, 29, 111
5, 685800, Note_off_c, 3, 29, 0
5, 685800, Note_off_c, 3, 41, 0
5, 685800, End_track
6, 0, Start_track
6, 1, Copyright_t, "___________________________________________________\012\012KUNSTDERFUGE.COM LARGE CLASSICAL MIDI COLLECTION\012ONCLASSICAL BY ALESSANDRO SIMONETTO, PROPRIETOR\012___________________________________________________\012\012! Attention: this file is under copyright !\012\012(c)onclassical, (c)hisamori, 2010\012___________________________________________________\012\012NO ONE MAY REPUBLISH THIS FILE WITHOUT PERMISSION\012COMMERCIAL USES OF THIS FILE IS STRICTLY PROHIBITED\012___________________________________________________\012\012Files & contributor's list: http://kunstderfuge.com/\012Terms and conditions: http://kunstderfuge.com/notes.htm"
6, 1, End_track
0, 0, End_of_file
